<?xml version="1.0" encoding="utf-8"?>
<!-- Generator: Adobe Illustrator 21.0.0, SVG Export Plug-In . SVG Version: 6.00 Build 0)  -->
<svg version="1.1" id="Layer_1" xmlns="http://www.w3.org/2000/svg" width="70" height="70" xmlns:xlink="http://www.w3.org/1999/xlink" x="0px" y="0px"
	 viewBox="0 0 50 50" style="enable-background:new 0 0 50 50;" xml:space="preserve">
<style type="text/css">
	.st0{fill:#E1E1E1;}
	.st1{fill:#888888;}
	.st2{fill:#FFFFFF;}
</style>
<rect id="Top" class="st0" width="50" height="13"/>
<rect id="Background_5_" x="35.3333321" y="15.0416679" class="st0" width="14.666667" height="34.9583321"/>
<rect id="Background_1_" x="17.666666" y="15.0416679" class="st1" width="14.666667" height="34.9583321"/>
<g>
	<path class="st2" d="M27.1499996,30.3708344v4.2999992h-4.2999992v-4.2999992H27.1499996 M27.1499996,29.7708321h-4.2999992
		c-0.2999992,0-0.6000004,0.3000031-0.6000004,0.6000023v4.2999992c0,0.2999992,0.2999992,0.6000023,0.6000004,0.6000023h4.2999992
		c0.2999992,0,0.6000004-0.3000031,0.6000004-0.6000023v-4.2999992C27.75,30.0708351,27.5500011,29.7708321,27.1499996,29.7708321z
		 M25.75,32.4708328l-0.8999996,1.2000008l-0.7000008-0.7999992L23.25,34.0708313h3.7000008
		C26.8500004,34.0708351,25.75,32.4708328,25.75,32.4708328z"/>
</g>
<rect id="Background_6_" y="15.0416679" class="st0" width="14.666667" height="34.9583321"/>
</svg>
