<?xml version="1.0" encoding="utf-8"?>
<!-- Generator: Adobe Illustrator 21.0.0, SVG Export Plug-In . SVG Version: 6.00 Build 0)  -->
<svg version="1.1" id="Layer_1" xmlns="http://www.w3.org/2000/svg" width="70" height="70" xmlns:xlink="http://www.w3.org/1999/xlink" x="0px" y="0px"
	 viewBox="0 0 50 50" style="enable-background:new 0 0 50 50;" xml:space="preserve">
<style type="text/css">
	.st0{fill:#E1E1E1;}
	.st1{fill:#888888;}
	.st2{fill:#FFFFFF;}
</style>
<rect id="Bottom" y="37.9166679" class="st0" width="50" height="12.0833321"/>
<rect id="Background_3_" x="18.3320351" y="15" class="st0" width="31.6679649" height="19.9166641"/>
<rect id="Background_2_" y="15" class="st1" width="15.3359299" height="19.9166641"/>
<rect id="Top" class="st0" width="50" height="12"/>
<g>
	<path class="st2" d="M9.8179646,22.8083324v4.2999992H5.5179653v-4.2999992H9.8179646 M9.8179646,22.2083321H5.5179653
		c-0.2999992,0-0.6000004,0.3000011-0.6000004,0.6000004v4.3000011c0,0.2999992,0.2999992,0.6000004,0.6000004,0.6000004h4.2999992
		c0.2999992,0,0.6000004-0.3000011,0.6000004-0.6000004v-4.3000011
		C10.4179649,22.5083332,10.2179661,22.2083321,9.8179646,22.2083321z M8.4179649,24.9083328l-0.8999996,1.1999989
		l-0.7000008-0.7999992l-0.8999996,1.1999989h3.7000008C9.5179653,26.5083332,8.4179649,24.9083328,8.4179649,24.9083328z"/>
</g>
</svg>
