<?xml version="1.0" encoding="utf-8"?>
<!-- Generator: Adobe Illustrator 21.0.0, SVG Export Plug-In . SVG Version: 6.00 Build 0)  -->
<svg version="1.1" id="Layer_1" xmlns="http://www.w3.org/2000/svg" width="70" height="70" xmlns:xlink="http://www.w3.org/1999/xlink" x="0px" y="0px"
	 viewBox="0 0 50 50" style="enable-background:new 0 0 50 50;" xml:space="preserve">
<style type="text/css">
	.st0{fill:#E1E1E1;}
	.st1{fill:#888888;}
	.st2{fill:#FFFFFF;}
</style>
<rect id="Bottom" y="37.9166679" class="st0" width="50" height="12.0833321"/>
<rect id="Background_3_" y="15" class="st1" width="31.6679649" height="19.9166641"/>
<rect id="Background_2_" x="34.6640701" y="15" class="st0" width="15.3359299" height="19.9166641"/>
<rect id="Top" class="st0" width="50" height="12"/>
<g>
	<path class="st2" d="M18.4839821,22.8083324v4.2999992h-4.2999992v-4.2999992H18.4839821 M18.4839821,22.2083321h-4.2999992
		c-0.2999992,0-0.6000004,0.3000011-0.6000004,0.6000004v4.3000011c0,0.2999992,0.2999992,0.6000004,0.6000004,0.6000004h4.2999992
		c0.2999992,0,0.5999985-0.3000011,0.5999985-0.6000004v-4.3000011
		C19.0839806,22.5083332,18.8839836,22.2083321,18.4839821,22.2083321z M17.0839806,24.9083328l-0.8999977,1.1999989
		l-0.7000008-0.7999992l-0.8999996,1.1999989h3.7000027C18.1839828,26.5083332,17.0839806,24.9083328,17.0839806,24.9083328z"/>
</g>
</svg>
