<?xml version="1.0" encoding="utf-8"?>
<!-- Generator: Adobe Illustrator 21.0.0, SVG Export Plug-In . SVG Version: 6.00 Build 0)  -->
<svg version="1.1" id="Layer_1" xmlns="http://www.w3.org/2000/svg" width="70" height="70" xmlns:xlink="http://www.w3.org/1999/xlink" x="0px" y="0px"
	 viewBox="0 0 50 50" style="enable-background:new 0 0 50 50;" xml:space="preserve">
<style type="text/css">
	.st0{fill:#E1E1E1;}
	.st1{fill:#888888;}
	.st2{fill:#FFFFFF;}
</style>
<rect id="Bottom" y="36.9166679" class="st0" width="50" height="13.0833321"/>
<rect id="Background_2_" y="15.2050247" class="st1" width="23.5058823" height="19.5066147"/>
<g>
	<path class="st2" d="M13.9029408,22.8083324v4.2999992H9.6029415v-4.2999992H13.9029408 M13.9029408,22.2083321H9.6029415
		c-0.2999992,0-0.6000004,0.3000011-0.6000004,0.6000004v4.3000011c0,0.2999992,0.2999992,0.6000004,0.6000004,0.6000004h4.2999992
		c0.2999992,0,0.6000004-0.3000011,0.6000004-0.6000004v-4.3000011
		C14.5029411,22.5083332,14.3029423,22.2083321,13.9029408,22.2083321z M12.5029411,24.9083328l-0.8999996,1.1999989
		l-0.7000008-0.7999992l-0.8999996,1.1999989h3.7000008C13.6029415,26.5083332,12.5029411,24.9083328,12.5029411,24.9083328z"/>
</g>
<rect id="Background_1_" x="26.5019608" y="15.2082787" class="st0" width="23.4980392" height="19.5001068"/>
<rect id="Top" class="st0" width="50" height="13"/>
</svg>
