<?xml version="1.0" encoding="utf-8"?>
<!-- Generator: Adobe Illustrator 21.0.0, SVG Export Plug-In . SVG Version: 6.00 Build 0)  -->
<svg version="1.1" id="Layer_1" xmlns="http://www.w3.org/2000/svg" width="70" height="70" xmlns:xlink="http://www.w3.org/1999/xlink" x="0px" y="0px"
	 viewBox="0 0 50 50" style="enable-background:new 0 0 50 50;" xml:space="preserve">
<style type="text/css">
	.st0{fill:#E1E1E1;}
	.st1{fill:#888888;}
	.st2{fill:#FFFFFF;}
</style>
<rect id="Background_4_" x="40.4166679" y="15" class="st0" width="9.5833321" height="35"/>
<rect id="Background_3_" x="12.583333" y="15" class="st1" width="24.8333359" height="35"/>
<rect id="Background_2_" y="15" class="st0" width="9.583333" height="35"/>
<rect id="Top" class="st0" width="50" height="12"/>
<g>
	<path class="st2" d="M27.1499996,30.3499985v4.2999992h-4.2999992v-4.2999992H27.1499996 M27.1499996,29.75h-4.2999992
		C22.5500011,29.75,22.25,30.0499992,22.25,30.3499985v4.3000031C22.25,34.9500008,22.5499992,35.25,22.8500004,35.25h4.2999992
		C27.4499989,35.25,27.75,34.9500008,27.75,34.6500015v-4.3000031C27.75,30.0499992,27.5500011,29.75,27.1499996,29.75z
		 M25.75,32.4500008l-0.8999996,1.1999969l-0.7000008-0.7999992L23.25,34.0499992h3.7000008
		C26.8500004,34.0499992,25.75,32.4500008,25.75,32.4500008z"/>
</g>
</svg>
