<?xml version="1.0" encoding="utf-8"?>
<!-- Generator: Adobe Illustrator 21.0.0, SVG Export Plug-In . SVG Version: 6.00 Build 0)  -->
<svg version="1.1" id="Layer_1" xmlns="http://www.w3.org/2000/svg" width="70" height="70" xmlns:xlink="http://www.w3.org/1999/xlink" x="0px" y="0px"
	 viewBox="0 0 50 50" style="enable-background:new 0 0 50 50;" xml:space="preserve">
<style type="text/css">
	.st0{fill:#888888;}
	.st1{fill:#FFFFFF;}
	.st2{fill:#E1E1E1;}
</style>
<rect id="Background_2_" y="15" class="st0" width="23.4980392" height="35"/>
<g>
	<path class="st1" d="M13.8990192,30.3499985v4.2999992H9.59902v-4.2999992H13.8990192 M13.8990192,29.75H9.59902
		c-0.2999992,0-0.6000004,0.2999992-0.6000004,0.5999985v4.3000031C8.9990196,34.9500008,9.2990189,35.25,9.59902,35.25h4.2999992
		c0.2999992,0,0.6000004-0.2999992,0.6000004-0.5999985v-4.3000031C14.4990196,30.0499992,14.2990208,29.75,13.8990192,29.75z
		 M12.4990196,32.4500008L11.59902,33.6499977l-0.7000008-0.7999992l-0.8999996,1.2000008h3.7000008
		C13.59902,34.0499992,12.4990196,32.4500008,12.4990196,32.4500008z"/>
</g>
<rect id="Background_1_" x="26.4980392" y="15" class="st2" width="23.5019608" height="35"/>
<rect id="Top" class="st2" width="50" height="12"/>
</svg>
