<?xml version="1.0" encoding="utf-8"?>
<!-- Generator: Adobe Illustrator 21.0.0, SVG Export Plug-In . SVG Version: 6.00 Build 0)  -->
<svg version="1.1" id="Layer_1" xmlns="http://www.w3.org/2000/svg" width="70" height="70" xmlns:xlink="http://www.w3.org/1999/xlink" x="0px" y="0px"
	 viewBox="0 0 50 50" style="enable-background:new 0 0 50 50;" xml:space="preserve">
<style type="text/css">
	.st0{fill:#E1E1E1;}
	.st1{fill:#888888;}
	.st2{fill:#FFFFFF;}
</style>
<rect id="Bottom" y="37.709198" class="st0" width="50" height="12.290801"/>
<rect id="Background_2_" x="26.5" y="15.2074652" class="st1" width="23.5" height="19.5017338"/>
<g>
	<path class="st2" d="M40.4000015,22.8083324v4.2999992h-4.3000031v-4.2999992H40.4000015 M40.4000015,22.2083321h-4.3000031
		c-0.2999954,0-0.5999985,0.3000011-0.5999985,0.6000004v4.3000011c0,0.2999992,0.2999992,0.6000004,0.5999985,0.6000004h4.3000031
		C40.6999969,27.708334,41,27.4083328,41,27.1083336v-4.3000011C41,22.5083332,40.8000031,22.2083321,40.4000015,22.2083321z
		 M39,24.9083328l-0.9000015,1.1999989l-0.6999969-0.7999992L36.5,26.5083313h3.7000008
		C40.0999985,26.5083332,39,24.9083328,39,24.9083328z"/>
</g>
<rect id="Background_1_" y="15.2074652" class="st0" width="23.5" height="19.5017338"/>
<rect id="Top" class="st0" width="50" height="12.2074652"/>
</svg>
