<?xml version="1.0" encoding="utf-8"?>
<!-- Generator: Adobe Illustrator 21.0.0, SVG Export Plug-In . SVG Version: 6.00 Build 0)  -->
<svg version="1.1" id="Layer_1" xmlns="http://www.w3.org/2000/svg" width="70" height="70" xmlns:xlink="http://www.w3.org/1999/xlink" x="0px" y="0px"
	 viewBox="0 0 50 50" style="enable-background:new 0 0 50 50;" xml:space="preserve">
<style type="text/css">
	.st0{fill:#E1E1E1;}
	.st1{fill:#888888;}
	.st2{fill:#FFFFFF;}
</style>
<rect id="Bottom" y="37.9166679" class="st0" width="50" height="12.0833321"/>
<rect id="Background_1_" x="17.666666" y="15" class="st0" width="14.666667" height="19.9166641"/>
<rect id="Background_3_" x="35.3333321" y="15" class="st0" width="14.666667" height="19.9166641"/>
<rect id="Top" class="st0" width="50" height="12"/>
<rect id="Background_2_" y="15" class="st1" width="14.666667" height="19.9166641"/>
<g>
	<path class="st2" d="M9.4833326,22.8083305v4.2999992H5.1833339v-4.2999992H9.4833326 M9.4833326,22.2083321H5.1833339
		c-0.2999992,0-0.6000004,0.2999992-0.6000004,0.5999985v4.3000031c0,0.2999992,0.2999992,0.5999985,0.6000004,0.5999985h4.2999988
		c0.2999992,0,0.6000004-0.2999992,0.6000004-0.5999985v-4.3000031C10.083333,22.5083313,9.8833342,22.2083321,9.4833326,22.2083321
		z M8.083333,24.9083328l-0.8999991,1.1999969l-0.7000008-0.7999992l-0.8999996,1.2000008h3.7000003
		C9.1833334,26.5083313,8.083333,24.9083328,8.083333,24.9083328z"/>
</g>
</svg>
