<?xml version="1.0" encoding="utf-8"?>
<!-- Generator: Adobe Illustrator 24.2.0, SVG Export Plug-In . SVG Version: 6.00 Build 0)  -->
<svg version="1.1" id="Layer_1" xmlns="http://www.w3.org/2000/svg" xmlns:xlink="http://www.w3.org/1999/xlink" x="0px" y="0px"
	 viewBox="0 0 430 80" style="enable-background:new 0 0 430 80;" xml:space="preserve">
<style type="text/css">
	.st0{fill:#222222;}
	.st1{fill:#FFFFFF;}
</style>
<g>
	<g>
		<path class="st0" d="M67.8,26.5c-7.5,0-13.5,6.1-13.5,13.5s6.1,13.5,13.5,13.5c7.5,0,13.5-6.1,13.5-13.5S75.3,26.5,67.8,26.5z
			 M73,33.4h-1.9c-1.5,0-1.8,0.7-1.8,1.7v2.2h3.5v3.5h-3.5v9.1h-3.6v-9.1h-3.1v-3.5h3.1v-2.6c0-3,1.8-4.7,4.5-4.7H73V33.4L73,33.4z"
			/>
	</g>
	<path class="st0" d="M126.6,26.4c-7.5,0-13.5,6-13.5,13.5s6,13.5,13.5,13.5c7.5,0,13.5-6,13.5-13.5S134.1,26.4,126.6,26.4z
		 M121.6,49.1h-3.8V36.8h3.8V49.1z M119.7,35.1c-1.2,0-2.2-1-2.2-2.2s1-2.2,2.2-2.2c1.2,0,2.2,1,2.2,2.2
		C121.9,34.2,120.9,35.1,119.7,35.1z M135.8,49.1H132v-5.9c0-1.4,0-3.2-2-3.2c-2,0-2.3,1.5-2.3,3.1v6H124V36.8h3.6v1.7h0.1
		c0.5-1,1.8-2,3.6-2c3.8,0,4.6,2.5,4.6,5.8C135.8,42.3,135.8,49.1,135.8,49.1z"/>
	<g>
		<path class="st0" d="M185.6,26.5c-7.5,0-13.5,6.1-13.5,13.5s6.1,13.5,13.5,13.5c7.5,0,13.5-6.1,13.5-13.5S193,26.5,185.6,26.5z
			 M187.2,44.5c-1.2,0-2.4-0.7-2.8-1.4c0,0-0.7,2.7-0.8,3.2c-0.5,1.8-2,3.6-2.1,3.8c-0.1,0.1-0.2,0.1-0.3-0.1c0-0.2-0.4-2.5,0-4.4
			c0.2-0.9,1.5-6.3,1.5-6.3s-0.4-0.7-0.4-1.8c0-1.7,1-3,2.2-3c1.1,0,1.6,0.8,1.6,1.7c0,1.1-0.7,2.6-1,4.1c-0.3,1.2,0.6,2.2,1.8,2.2
			c2.2,0,3.7-2.8,3.7-6.2c0-2.5-1.7-4.4-4.8-4.4c-3.5,0-5.7,2.6-5.7,5.5c0,1,0.3,1.7,0.8,2.3c0.2,0.2,0.2,0.4,0.2,0.6
			c-0.1,0.2-0.2,0.7-0.2,0.9c-0.1,0.3-0.3,0.4-0.6,0.3c-1.6-0.6-2.4-2.4-2.4-4.4c0-3.3,2.8-7.2,8.3-7.2c4.4,0,7.3,3.2,7.3,6.6
			C193.4,41.1,190.9,44.5,187.2,44.5z"/>
	</g>
	<g>
		<path class="st0" d="M244.5,26.5c-7.4,0-13.4,6-13.4,13.4s6,13.6,13.4,13.6s13.4-6,13.4-13.4C258.1,32.5,252,26.5,244.5,26.5z"/>
		<g>
			<g>
				<g>
					<polygon class="st1" points="244.5,43.1 244.5,49.3 250.3,46.2 250.3,40.1 					"/>
				</g>
			</g>
			<g>
				<g>
					<polygon class="st1" points="244.5,30.7 238.8,33.8 238.8,40.1 238.8,46.2 244.5,43.1 238.8,40.1 244.5,36.9 					"/>
				</g>
			</g>
			<g>
				<g>
					<polygon class="st1" points="244.5,36.9 250.3,40.1 250.3,33.8 					"/>
				</g>
			</g>
		</g>
	</g>
	<g>
		<g>
			<path class="st0" d="M303.9,35.8c0-1.9-1.1-4.8-3.3-4.8c-0.7,0-1.4,0.4-1.8,0.9c-0.4,0.5-0.6,1.2-0.6,1.9c0,1.7,1,4.6,3.2,4.6
				c0.6,0,1.4-0.3,1.8-0.7C303.8,37.1,303.9,36.3,303.9,35.8z"/>
			<path class="st0" d="M302.5,42.6c-0.2,0-0.3,0-0.6,0c-0.2,0-1.6,0.1-2.7,0.4c-0.6,0.2-2.2,0.8-2.2,2.7c0,1.8,1.8,3.2,4.6,3.2
				c2.5,0,3.8-1.2,3.8-2.8C305.3,44.7,304.4,44.1,302.5,42.6z"/>
			<path class="st0" d="M303.4,26.5c-7.5,0-13.5,6.1-13.5,13.5s6.1,13.5,13.5,13.5s13.5-6.1,13.5-13.5S310.8,26.5,303.4,26.5z
				 M300.2,50c-3.8,0-5.6-1.8-5.6-3.7c0-0.9,0.5-2.3,2-3.2c1.6-1,3.8-1.1,4.9-1.2c-0.4-0.5-0.8-1-0.8-1.8c0-0.4,0.1-0.7,0.3-1
				c-0.3,0-0.6,0.1-0.8,0.1c-2.8,0-4.3-2.1-4.3-4.1c0-1.2,0.5-2.5,1.6-3.5c1.5-1.2,3.5-1.6,4.9-1.6h5.1l-1.7,1.1h-1.6
				c0.6,0.5,1.8,1.5,1.8,3.5c0,1.9-1.1,2.8-2.2,3.7c-0.4,0.3-0.7,0.7-0.7,1.3s0.4,0.9,0.7,1.1l0.9,0.7c1.1,1,2.2,1.8,2.2,3.6
				C307,47.5,304.7,50,300.2,50z M311.4,39.7v2.6h-1.3v-2.6h-2.6v-1.3h2.6v-2.6h1.3v2.6h2.6v1.3H311.4z"/>
		</g>
	</g>
	<g>
		<path class="st0" d="M361.5,26.6c-7.4,0-13.5,6-13.5,13.5s6,13.5,13.5,13.5s13.5-6,13.5-13.5S368.9,26.6,361.5,26.6z M369.6,36.5
			c0,0.2,0,0.3,0,0.5c0,5.8-4.4,11.7-11.7,11.7c-2.2,0-4.4-0.6-6.3-1.9c0,0-0.1-0.1,0-0.1c0-0.1,0.1-0.1,0.1-0.1
			c0.3,0,0.6,0.1,1,0.1c1.7,0,3.4-0.5,4.8-1.6c-1.7-0.2-3.1-1.3-3.6-2.9v-0.1h0.1c0.5,0.1,0.9,0.1,1.4,0c-1.7-0.5-2.9-2.2-2.9-4V38
			c0,0,0-0.1,0.1-0.1h0.1c0.5,0.2,0.9,0.4,1.5,0.5c-1-0.8-1.6-2-1.6-3.3c0-0.7,0.2-1.5,0.6-2.1l0.1-0.1h0.1c2,2.5,5,4,8.2,4.2
			c-0.1-0.3-0.1-0.5-0.1-0.8c0-2.3,1.9-4.2,4.2-4.2c1.1,0,2.2,0.5,3,1.3c0.9-0.2,1.7-0.5,2.5-1h0.1c0,0,0.1,0.1,0,0.1
			c-0.3,0.8-0.8,1.5-1.5,2.1c0.6-0.1,1.3-0.3,1.9-0.6h0.1v0.1C371.1,35.2,370.4,35.9,369.6,36.5z"/>
	</g>
</g>
</svg>
