<?xml version="1.0" encoding="utf-8"?>
<!-- Generator: Adobe Illustrator 24.2.0, SVG Export Plug-In . SVG Version: 6.00 Build 0)  -->
<svg version="1.1" id="Layer_1" xmlns="http://www.w3.org/2000/svg" xmlns:xlink="http://www.w3.org/1999/xlink" x="0px" y="0px"
	 viewBox="0 0 430 80" style="enable-background:new 0 0 430 80;" xml:space="preserve">
<style type="text/css">
	.st0{fill:#222222;}
</style>
<g>
	<g>
		<g>
			<path class="st0" d="M69.5,35.8v-3.4c0-0.9,0.8-1.7,1.7-1.7h1.7v-4.2h-3.3c-2.8,0-5,2.3-5,5.1v4.2h-3.4V40h3.4v13.4h5.1V40h3.4
				l1.7-4.2H69.5z"/>
		</g>
	</g>
	<path class="st0" d="M113.3,34.9h6v18.5h-6C113.3,53.4,113.3,34.9,113.3,34.9z M135.7,35.1c-0.1,0-0.1-0.1-0.2-0.1
		c-0.1,0-0.2,0-0.2-0.1c-0.3-0.1-0.7-0.1-1.1-0.1c-3.5,0-5.7,2.6-6.4,3.5v-3.5h-6v18.5h6V43.3c0,0,4.5-6.3,6.4-1.7
		c0,4.1,0,11.8,0,11.8h6V40.9C140.2,38.1,138.3,35.8,135.7,35.1z M119.2,29.4c0,1.6-1.3,2.9-2.9,2.9s-2.9-1.3-2.9-2.9
		s1.3-2.9,2.9-2.9S119.2,27.8,119.2,29.4z"/>
	<g>
		<g>
			<path class="st0" d="M185.9,26.5c-7.4,0-11.3,4.7-11.3,9.9c0,2.4,1.3,5.4,3.5,6.3c0.3,0.1,0.5,0.1,0.6-0.2
				c0.1-0.2,0.3-1.3,0.5-1.9c0.1-0.2,0-0.3-0.1-0.5c-0.7-0.8-1.3-2.3-1.3-3.7c0-3.6,2.9-7.1,7.7-7.1c4.2,0,7.2,2.7,7.2,6.6
				c0,4.4-2.3,7.5-5.4,7.5c-1.7,0-2.9-1.3-2.5-3c0.5-1.9,1.4-4,1.4-5.4c0-1.3-0.7-2.3-2.2-2.3c-1.7,0-3.1,1.7-3.1,4
				c0,1.5,0.5,2.4,0.5,2.4s-1.7,6.8-2,8.1c-0.5,2.2,0.1,5.6,0.1,6c0,0.2,0.2,0.2,0.3,0.1c0.2-0.2,2.2-3.1,2.8-5.2
				c0.2-0.8,1.1-3.9,1.1-3.9c0.6,1,2.2,1.9,3.9,1.9c5.2,0,8.9-4.5,8.9-10.1C196.5,30.6,191.8,26.5,185.9,26.5z"/>
		</g>
	</g>
	<path class="st0" d="M244.6,44.7v9l8.4-4.5v-9L244.6,44.7z M244.6,26.7l-8.4,4.5v18l8.4-4.5l-8.4-4.5l8.4-4.5V26.7z M244.6,35.7
		l8.4,4.5v-9L244.6,35.7z"/>
	<g>
		<g>
			<path class="st0" d="M303.4,37.3v5.3h7.5c-1.1,3.1-4.1,5.3-7.5,5.3c-4.4,0-8-3.6-8-8s3.6-8,8-8c1.9,0,3.7,0.7,5.2,1.9l3.5-4
				c-2.4-2.1-5.5-3.3-8.7-3.3c-7.3,0-13.3,6-13.3,13.3s6,13.3,13.3,13.3s13.3-6,13.3-13.3v-2.7L303.4,37.3L303.4,37.3z"/>
		</g>
	</g>
	<g>
		<g>
			<path class="st0" d="M374.9,31.7c-1,0.4-2.1,0.7-3.2,0.9c1.2-0.7,2-1.7,2.4-3c-1.1,0.6-2.2,1.1-3.5,1.3c-1-1.1-2.4-1.7-4-1.7
				c-3,0-5.5,2.5-5.5,5.5c0,0.4,0,0.9,0.1,1.3c-4.6-0.2-8.6-2.4-11.4-5.8C349.3,31,349,32,349,33c0,1.9,1,3.6,2.4,4.6
				c-0.9,0-1.7-0.3-2.5-0.7c0,0,0,0,0,0.1c0,2.7,1.9,4.9,4.4,5.4c-0.4,0.1-0.9,0.2-1.5,0.2c-0.3,0-0.7,0-1-0.1
				c0.7,2.2,2.7,3.8,5.2,3.8c-1.9,1.5-4.2,2.3-6.8,2.3c-0.5,0-0.9,0-1.3-0.1c2.4,1.6,5.3,2.5,8.5,2.5c10.1,0,15.7-8.4,15.7-15.7
				c0-0.2,0-0.5,0-0.7C373.3,33.8,374.2,32.8,374.9,31.7z"/>
		</g>
	</g>
</g>
</svg>
