<?xml version="1.0" encoding="utf-8"?>
<!-- Generator: Adobe Illustrator 24.2.0, SVG Export Plug-In . SVG Version: 6.00 Build 0)  -->
<svg version="1.1" id="Layer_1" xmlns="http://www.w3.org/2000/svg" width="50px" height="50px" xmlns:xlink="http://www.w3.org/1999/xlink" x="0px" y="0px"
	 viewBox="0 0 50 50" style="enable-background:new 0 0 50 50;" xml:space="preserve">
<style type="text/css">
	.st0{display:none;fill:#222222;stroke:#222222;stroke-width:0.24;stroke-miterlimit:10;}
	.st1{font-family:'Lato-Regular';}
	.st2{font-size:10px;}
	.st3{fill:#222222;}
</style>
<text transform="matrix(1 0 0 1 5.2949772 28.3786621)" class="st0 st1 st2">inherit</text>
<g>
	<rect x="5.7749023" y="21.2973633" class="st3" width="1.2104492" height="7.4052734"/>
	<path class="st3" d="M13.625,26.4926758c0,0.0341797,0.0004883,0.0693359,0.0009766,0.1044922l-3.9125977-5.090332
		c-0.0673828-0.0830078-0.125-0.1352539-0.1811523-0.1640625c-0.0595703-0.0302734-0.140625-0.0454102-0.2470703-0.0454102
		H8.6650391v7.4052734h1.0898438v-5.2255859c0-0.027832-0.0004883-0.0571289-0.0009766-0.0869141l3.9121094,5.0927734
		c0.0625,0.078125,0.125,0.1328125,0.1914062,0.1660156c0.0693359,0.0361328,0.152832,0.0537109,0.2480469,0.0537109h0.609375
		v-7.4052734H13.625V26.4926758z"/>
	<polygon class="st3" points="21.0595703,24.4916992 17.4394531,24.4916992 17.4394531,21.2973633 16.2246094,21.2973633 
		16.2246094,28.7026367 17.4394531,28.7026367 17.4394531,25.4428711 21.0595703,25.4428711 21.0595703,28.7026367 
		22.2744141,28.7026367 22.2744141,21.2973633 21.0595703,21.2973633 	"/>
	<polygon class="st3" points="23.7851562,28.7026367 28.440918,28.7026367 28.440918,27.6723633 25,27.6723633 25,25.4672852 
		27.7856445,25.4672852 27.7856445,24.4672852 25,24.4672852 25,22.3276367 28.440918,22.3276367 28.440918,21.2973633 
		23.7851562,21.2973633 	"/>
	<path class="st3" d="M32.9643555,25.4853516c0.1953125-0.0605469,0.375-0.137207,0.5371094-0.2290039
		c0.2294922-0.1298828,0.4267578-0.2890625,0.5869141-0.4731445c0.1611328-0.1860352,0.2851562-0.3979492,0.3691406-0.6303711
		c0.0849609-0.2319336,0.1279297-0.484375,0.1279297-0.7509766c0-0.3178711-0.0556641-0.6103516-0.1650391-0.8691406
		c-0.1103516-0.262207-0.2832031-0.4887695-0.5126953-0.6733398c-0.2255859-0.1826172-0.5146484-0.3237305-0.8603516-0.4199219
		c-0.3388672-0.0942383-0.7451172-0.1420898-1.2070312-0.1420898h-2.1455078v7.4052734h1.2050781v-2.9902344h0.6152344
		c0.140625,0,0.2099609,0.0209961,0.2441406,0.0390625c0.0507812,0.0263672,0.0976562,0.0708008,0.1445312,0.1357422
		l1.8535156,2.5527344c0.1054688,0.171875,0.2763672,0.2626953,0.4931641,0.2626953h1.0966797l-2.2285156-3.034668
		C33.0708008,25.6000977,33.0200195,25.5390625,32.9643555,25.4853516z M30.8999023,22.3022461h0.9404297
		c0.5263672,0,0.9248047,0.1010742,1.1845703,0.300293c0.2519531,0.1943359,0.375,0.4790039,0.375,0.8696289
		c0,0.1933594-0.0332031,0.3710938-0.0996094,0.527832c-0.0683594,0.1591797-0.1650391,0.2910156-0.2958984,0.4038086
		c-0.1318359,0.1132812-0.2988281,0.203125-0.4980469,0.2666016c-0.2021484,0.0639648-0.4414062,0.0966797-0.7109375,0.0966797
		h-0.8955078V22.3022461z"/>
	<rect x="36.215332" y="21.2973633" class="st3" width="1.2099609" height="7.4052734"/>
	<polygon class="st3" points="38.3745117,21.2973633 38.3745117,22.3520508 40.699707,22.3520508 40.699707,28.7026367 
		41.909668,28.7026367 41.909668,22.3520508 44.2250977,22.3520508 44.2250977,21.2973633 	"/>
</g>
</svg>
