<?xml version="1.0" encoding="utf-8"?>
<!-- Generator: Adobe Illustrator 21.0.0, SVG Export Plug-In . SVG Version: 6.00 Build 0)  -->
<svg version="1.1" id="Layer_1" xmlns="http://www.w3.org/2000/svg" width="50px" height="50px" xmlns:xlink="http://www.w3.org/1999/xlink" x="0px" y="0px"
	 viewBox="0 0 50 50" style="enable-background:new 0 0 50 50;" xml:space="preserve">
<style type="text/css">
	.st0{fill:#222222;}
</style>
<g>
	<path class="st0" d="M6.8,16.3c0.3-0.4,0.7-0.6,1.2-0.6s0.8,0.1,1.1,0.3c0.2,0.2,0.4,0.6,0.4,1.1h1.2c-0.1-0.8-0.4-1.4-0.8-1.8
		c-0.5-0.4-1.1-0.6-1.9-0.6c-0.6,0-1.1,0.1-1.5,0.4s-0.8,0.7-1,1.2s-0.4,1.1-0.4,1.8v0.7c0,0.7,0.1,1.2,0.4,1.7s0.6,0.9,1,1.1
		C7,21.9,7.5,22,8,22c0.8,0,1.5-0.2,1.9-0.6c0.5-0.4,0.8-1,0.8-1.8H9.6c-0.1,0.5-0.2,0.9-0.5,1.1S8.5,21,8,21s-0.9-0.2-1.2-0.6
		c-0.3-0.4-0.4-1-0.4-1.8V18C6.4,17.3,6.6,16.7,6.8,16.3z"/>
	<path class="st0" d="M14.5,22c0.8,0,1.4-0.2,1.9-0.7c0.5-0.4,0.7-1,0.7-1.8v-4.8h-1.2v4.7c0,1-0.5,1.5-1.4,1.5
		c-0.5,0-0.8-0.1-1.1-0.4C13.2,20.4,13,20,13,19.6v-4.7h-1.2v4.7c0,0.8,0.2,1.4,0.7,1.8S13.6,22,14.5,22z"/>
	<path class="st0" d="M20.9,21c-0.5,0-0.9-0.1-1.1-0.3s-0.4-0.5-0.4-0.9h-1.2c0,0.4,0.1,0.8,0.4,1.2s0.6,0.6,1,0.8
		c0.4,0.2,0.9,0.3,1.4,0.3c0.8,0,1.4-0.2,1.8-0.5c0.5-0.3,0.7-0.8,0.7-1.4c0-0.4-0.1-0.7-0.2-1c-0.2-0.3-0.4-0.5-0.7-0.7
		c-0.3-0.2-0.8-0.4-1.3-0.6c-0.6-0.2-1-0.3-1.2-0.5s-0.4-0.4-0.4-0.6c0-0.3,0.1-0.5,0.3-0.7s0.5-0.3,0.9-0.3s0.8,0.1,1,0.3
		c0.2,0.2,0.3,0.5,0.3,0.9h1.2c0-0.4-0.1-0.8-0.3-1.1c-0.2-0.3-0.5-0.6-0.9-0.8s-0.8-0.3-1.3-0.3c-0.7,0-1.4,0.2-1.8,0.6
		s-0.7,0.8-0.7,1.4c0,0.7,0.3,1.2,1,1.6c0.3,0.2,0.8,0.4,1.4,0.6s1,0.3,1.2,0.5s0.3,0.4,0.3,0.7c0,0.3-0.1,0.5-0.3,0.7
		C21.6,21,21.3,21,20.9,21z"/>
	<polygon class="st0" points="26.2,21.9 27.4,21.9 27.4,15.8 29.6,15.8 29.6,14.8 24,14.8 24,15.8 26.2,15.8 	"/>
	<path class="st0" d="M35.7,20.4c0.2-0.5,0.4-1.1,0.4-1.8v-0.4c0-0.7-0.1-1.3-0.4-1.8c-0.2-0.5-0.6-0.9-1-1.2s-1-0.4-1.5-0.4
		c-0.6,0-1.1,0.1-1.5,0.4c-0.4,0.3-0.8,0.7-1,1.2s-0.4,1.1-0.4,1.8v0.4c0,0.7,0.1,1.3,0.4,1.8c0.2,0.5,0.6,0.9,1,1.2
		c0.5,0.3,1,0.4,1.5,0.4c0.6,0,1.1-0.1,1.5-0.4C35.1,21.3,35.5,20.9,35.7,20.4z M34.8,18.6c0,0.8-0.1,1.4-0.4,1.8
		c-0.3,0.4-0.7,0.6-1.3,0.6c-0.5,0-1-0.2-1.3-0.6s-0.5-1-0.5-1.8v-0.4c0-0.8,0.2-1.4,0.5-1.8s0.7-0.6,1.3-0.6c0.5,0,1,0.2,1.3,0.6
		s0.4,1,0.4,1.8V18.6z"/>
	<polygon class="st0" points="43,14.8 41,20.3 38.9,14.8 37.3,14.8 37.3,21.9 38.5,21.9 38.5,19.6 38.4,16.4 40.5,21.9 41.4,21.9 
		43.5,16.4 43.4,19.6 43.4,21.9 44.6,21.9 44.6,14.8 	"/>
	<path class="st0" d="M14,28.2c0.3-0.7,0.7-1.2,1.1-1.6L14.9,26c-0.4,0.2-0.8,0.6-1.2,1.1s-0.7,1.1-0.9,1.8
		c-0.2,0.7-0.3,1.4-0.3,2.1c0,0.8,0.1,1.5,0.3,2.2s0.5,1.3,0.9,1.8s0.8,0.9,1.2,1.1l0.2-0.7c-0.5-0.4-0.9-1-1.2-1.8
		s-0.4-1.7-0.4-2.6v-0.4C13.6,29.8,13.8,29,14,28.2z"/>
	<path class="st0" d="M20.1,30.4c-0.3-0.2-0.8-0.4-1.3-0.6c-0.6-0.2-1-0.3-1.2-0.5s-0.4-0.4-0.4-0.6c0-0.3,0.1-0.5,0.3-0.7
		s0.5-0.3,0.9-0.3s0.8,0.1,1,0.3s0.3,0.5,0.3,0.9H21c0-0.4-0.1-0.8-0.3-1.1c-0.2-0.3-0.5-0.6-0.9-0.8s-0.8-0.3-1.3-0.3
		c-0.7,0-1.4,0.2-1.8,0.6S16,28.1,16,28.7c0,0.7,0.3,1.2,1,1.6c0.3,0.2,0.8,0.4,1.4,0.6s1,0.3,1.2,0.5s0.3,0.4,0.3,0.7
		s-0.1,0.5-0.3,0.7c-0.2,0.2-0.5,0.3-1,0.3s-0.9-0.1-1.1-0.3s-0.5-0.6-0.5-1h-1.2c0,0.4,0.1,0.8,0.4,1.2c0.3,0.4,0.6,0.6,1,0.8
		s0.9,0.3,1.4,0.3c0.8,0,1.4-0.2,1.8-0.5c0.5-0.3,0.7-0.8,0.7-1.4c0-0.4-0.1-0.7-0.2-1C20.6,30.9,20.4,30.6,20.1,30.4z"/>
	<polygon class="st0" points="24.6,32.4 22.8,26.8 21.5,26.8 24,33.9 25.2,33.9 27.8,26.8 26.4,26.8 	"/>
	<path class="st0" d="M31.3,31.2h1.5v1.4C32.5,32.9,32,33,31.4,33s-1-0.2-1.4-0.6c-0.3-0.4-0.5-1-0.5-1.8v-0.5
		c0-0.8,0.2-1.4,0.4-1.8s0.7-0.6,1.3-0.6c0.9,0,1.4,0.4,1.5,1.3H34c-0.1-0.7-0.4-1.3-0.8-1.7c-0.5-0.4-1.1-0.6-1.9-0.6
		c-0.9,0-1.6,0.3-2.2,0.9c-0.5,0.6-0.8,1.4-0.8,2.5v0.6c0,0.7,0.1,1.3,0.4,1.8c0.2,0.5,0.6,0.9,1.1,1.2s1,0.4,1.6,0.4
		c0.6,0,1.1-0.1,1.6-0.3s0.8-0.4,1.1-0.8v-2.7h-2.7L31.3,31.2L31.3,31.2z"/>
	<path class="st0" d="M37.1,28.8c-0.2-0.6-0.5-1.2-0.9-1.7S35.5,26.2,35,26l-0.2,0.7l0.2,0.1c0.5,0.4,0.8,1,1.1,1.8
		c0.2,0.7,0.4,1.6,0.4,2.5v0.1c0,1-0.1,1.9-0.4,2.7c-0.3,0.8-0.7,1.4-1.2,1.7l0.2,0.7c0.4-0.2,0.9-0.6,1.3-1.1
		c0.4-0.6,0.7-1.2,0.9-1.8c0.2-0.7,0.3-1.4,0.3-2.1v-0.4C37.5,30.1,37.4,29.4,37.1,28.8z"/>
</g>
</svg>
