<?xml version="1.0" encoding="utf-8"?>
<!-- Generator: Adobe Illustrator 21.0.0, SVG Export Plug-In . SVG Version: 6.00 Build 0)  -->
<svg version="1.1" id="Layer_1" xmlns="http://www.w3.org/2000/svg" width="50px" height="50px" xmlns:xlink="http://www.w3.org/1999/xlink" x="0px" y="0px"
	 viewBox="0 0 50 50" style="enable-background:new 0 0 50 50;" xml:space="preserve">
<style type="text/css">
	.st0{display:none;}
	.st1{display:inline;fill:#FFFFFF;}
	.st2{display:inline;fill:#1089EF;}
	.st3{display:none;fill:#1089EF;}
	.st4{fill:#222222;}
</style>
<g class="st0">
	<path class="st1" d="M2,49.4c-0.8,0-1.4-0.6-1.4-1.4V2c0-0.8,0.6-1.4,1.4-1.4h46c0.8,0,1.4,0.6,1.4,1.4v46c0,0.8-0.6,1.4-1.4,1.4H2
		z"/>
	<path class="st2" d="M48,1.2c0.4,0,0.8,0.4,0.8,0.8v46c0,0.4-0.4,0.8-0.8,0.8H2c-0.4,0-0.8-0.4-0.8-0.8V2c0-0.4,0.4-0.8,0.8-0.8H48
		 M48,0H2C0.9,0,0,0.9,0,2v46c0,1.1,0.9,2,2,2h46c1.1,0,2-0.9,2-2V2C50,0.9,49.1,0,48,0L48,0z"/>
</g>
<path class="st3" d="M35.3,16.6c0-0.7-0.6-1.1-1.2-1.1h-3.4C30.6,12.4,28.1,10,25,10s-5.6,2.4-5.7,5.5h-3.4c-0.7,0-1.2,0.5-1.2,1.2
	l-0.8,20.6c0,0.7,0.2,1.4,0.7,1.9s1.1,0.8,1.8,0.8h17.2c0.7,0,1.3-0.3,1.8-0.8s0.7-1.2,0.7-1.9L35.3,16.6z M25,11.5
	c2.3,0,4.1,1.8,4.3,4h-8.5C20.9,13.2,22.7,11.5,25,11.5z M19.3,17v2.5c0,0.4,0.3,0.8,0.8,0.8s0.8-0.3,0.8-0.8V17h8.5v2.5
	c0,0.4,0.3,0.8,0.8,0.8c0.4,0,0.8-0.3,0.8-0.8V17h3.1l0.8,20.3c0,0.3-0.2,0.6-0.4,0.8s-0.5,0.3-0.8,0.3H16.4c-0.3,0-0.6-0.1-0.8-0.3
	s-0.3-0.5-0.3-0.8L16.2,17H19.3z"/>
<path class="st3" d="M35.3,16.7L35.3,16.7c0-0.7-0.6-1.2-1.2-1.2h-3.4C30.6,12.4,28.1,10,25,10s-5.6,2.4-5.7,5.5h-3.4
	c-0.7,0-1.2,0.5-1.2,1.2l-0.8,20.6c0,0.7,0.2,1.4,0.7,1.9s1.1,0.8,1.8,0.8h17.1c0.7,0,1.3-0.3,1.8-0.8S36,38,36,37.3L35.3,16.7z
	 M25,11.5c2.3,0,4.1,1.8,4.3,4h-8.5C20.9,13.2,22.8,11.5,25,11.5z"/>
<g class="st0">
	<path class="st2" d="M39.9,21.4c0-0.5-0.2-1-0.5-1.3c-0.4-0.4-0.8-0.6-1.4-0.6h-5.5l-6.9-9.2C25.5,10.1,25.3,10,25,10
		c-0.2,0-0.5,0.1-0.6,0.3l-6.9,9.2H12c-1.1,0-1.9,0.8-1.9,1.9v2.4c0,1.1,0.8,1.9,1.9,1.9h0.6l1.9,11.7c0.2,1.5,1.5,2.6,3,2.6h15
		c1.5,0,2.8-1.1,3-2.6l1.9-11.7H38c1.1,0,1.9-0.8,1.9-1.9V21.4z M11.5,21.4c0-0.2,0.2-0.5,0.5-0.5h4.5l-0.2,0.3h-0.1
		c-0.7,0-1.3,0.6-1.3,1.3c0,0.7,0.6,1.3,1.3,1.3c0.7,0,1.3-0.6,1.3-1.3c0-0.2,0-0.3-0.1-0.5l0.9-1.2h13.6l0.9,1.2
		c-0.1,0.1-0.1,0.3-0.1,0.5c0,0.7,0.6,1.3,1.3,1.3s1.3-0.6,1.3-1.3c0-0.7-0.6-1.3-1.3-1.3h-0.1L33.6,21h4.5c0.2,0,0.5,0.2,0.5,0.5
		v2.3c0,0.2-0.2,0.5-0.5,0.5H12c-0.2,0-0.5-0.2-0.5-0.5V21.4z M19.4,19.5l5.7-7.6l5.7,7.6H19.4z M14,25.7h22.1l-1.9,11.5
		c-0.2,0.8-0.8,1.4-1.6,1.4h-15c-0.8,0-1.5-0.6-1.6-1.4L14,25.7z M25,10.4L25,10.4L25,10.4L25,10.4z"/>
	<path class="st2" d="M29.8,37.7c0.4,0,0.7-0.3,0.7-0.7v-9.5c0-0.4-0.3-0.7-0.7-0.7s-0.7,0.3-0.7,0.7V37
		C29.1,37.3,29.4,37.7,29.8,37.7z"/>
	<path class="st2" d="M20.3,37.7c0.4,0,0.7-0.3,0.7-0.7v-9.5c0-0.4-0.3-0.7-0.7-0.7s-0.7,0.3-0.7,0.7V37
		C19.6,37.3,19.9,37.7,20.3,37.7z"/>
	<path class="st2" d="M25.1,37.7c0.4,0,0.7-0.3,0.7-0.7v-9.5c0-0.4-0.3-0.7-0.7-0.7c-0.4,0-0.7,0.3-0.7,0.7V37
		C24.4,37.3,24.7,37.7,25.1,37.7z"/>
</g>
<g class="st0">
	<path class="st2" d="M39.8,15.2c-0.1-0.1-0.3-0.3-0.6-0.3H15.9l-0.6-3c0-0.4-0.5-0.7-0.8-0.7h-3.7c-0.5,0-0.8,0.3-0.8,0.8
		s0.3,0.8,0.8,0.8h3.1l2.9,14.9c0.4,2,2.3,3.6,4.4,3.6h14.2c0.5,0,0.8-0.3,0.8-0.8s-0.3-0.8-0.8-0.8h-14c-0.9,0-1.7-0.4-2.1-1
		L37,26.3c0.3,0,0.7-0.3,0.7-0.7l2.5-9.8l0,0C40,15.7,40,15.4,39.8,15.2z M38.1,16.4l-2,8.4l-17.7,2.3l-2.1-10.7
		C16.2,16.4,38.1,16.4,38.1,16.4z"/>
	<path class="st2" d="M20.7,32.2c-1.8,0-3.3,1.4-3.3,3.3c0,1.8,1.4,3.3,3.3,3.3s3.3-1.4,3.3-3.3C23.9,33.6,22.5,32.2,20.7,32.2z
		 M22.3,35.5c0,0.9-0.8,1.7-1.7,1.7S19,36.4,19,35.5s0.8-1.7,1.7-1.7S22.3,34.6,22.3,35.5z"/>
	<path class="st2" d="M33,32.2c-1.8,0-3.3,1.4-3.3,3.3c0,1.8,1.4,3.3,3.3,3.3c1.8,0,3.3-1.4,3.3-3.3C36.3,33.6,34.8,32.2,33,32.2z
		 M34.7,35.5c0,0.9-0.8,1.7-1.7,1.7s-1.7-0.8-1.7-1.7s0.8-1.7,1.7-1.7S34.7,34.6,34.7,35.5z"/>
</g>
<g class="st0">
	<path class="st2" d="M10,15.7L10,15.7l2.5,9.9c0,0.3,0.3,0.7,0.7,0.7l17.7,2.4c-0.5,0.6-1.3,1-2.1,1H14.6c-0.5,0-0.8,0.3-0.8,0.8
		s0.3,0.8,0.8,0.8h14.2c2.1,0,4-1.6,4.4-3.6l2.9-14.9h3.1c0.5,0,0.8-0.3,0.8-0.8s-0.3-0.8-0.8-0.8h-3.7c-0.3,0-0.8,0.3-0.8,0.7
		L34.1,15H10.8c-0.3,0-0.5,0.2-0.6,0.3C10,15.4,10,15.7,10,15.7z M33.8,16.4l-2.1,10.7l-17.8-2.3l-2-8.4H33.8z"/>
	<path class="st2" d="M26.1,35.5c0,1.8,1.4,3.3,3.3,3.3c1.8,0,3.3-1.4,3.3-3.3c0-1.8-1.4-3.3-3.3-3.3S26.1,33.6,26.1,35.5z
		 M29.3,33.8c0.9,0,1.7,0.8,1.7,1.7s-0.8,1.7-1.7,1.7s-1.7-0.8-1.7-1.7C27.7,34.6,28.4,33.8,29.3,33.8z"/>
	<path class="st2" d="M13.7,35.5c0,1.8,1.4,3.3,3.3,3.3c1.8,0,3.3-1.4,3.3-3.3c0-1.8-1.4-3.3-3.3-3.3S13.7,33.6,13.7,35.5z M17,33.8
		c0.9,0,1.7,0.8,1.7,1.7s-0.8,1.7-1.7,1.7s-1.7-0.8-1.7-1.7S16.1,33.8,17,33.8z"/>
</g>
<g class="st0">
	<path class="st2" d="M10.9,20.2c-0.1,0.8-0.4,1.3-0.8,1.8c-0.5,0.4-1.1,0.6-1.9,0.6c-0.6,0-1.1-0.1-1.5-0.4s-0.8-0.7-1-1.1
		c-0.2-0.5-0.4-1.1-0.4-1.7v-0.7c0-0.7,0.1-1.3,0.4-1.8s0.6-0.9,1-1.2s1-0.4,1.5-0.4c0.8,0,1.4,0.2,1.9,0.6s0.8,1,0.8,1.8H9.7
		c-0.1-0.5-0.2-0.9-0.4-1.1s-0.6-0.3-1.1-0.3S7.3,16.5,7,16.9s-0.4,1-0.4,1.7v0.6C6.6,20,6.7,20.6,7,21s0.7,0.6,1.2,0.6
		s0.8-0.1,1.1-0.3s0.4-0.6,0.5-1.1C9.8,20.2,10.9,20.2,10.9,20.2z"/>
	<path class="st2" d="M17.2,15.4v4.8c0,0.8-0.2,1.4-0.7,1.8s-1.1,0.7-1.9,0.7c-0.8,0-1.5-0.2-1.9-0.7c-0.5-0.4-0.7-1-0.7-1.8v-4.7
		h1.2v4.7c0,0.5,0.1,0.8,0.4,1.1c0.2,0.3,0.6,0.4,1.1,0.4c1,0,1.4-0.5,1.4-1.5v-4.7h1.1V15.4z"/>
	<path class="st2" d="M22.3,20.6c0-0.3-0.1-0.6-0.3-0.7s-0.6-0.3-1.2-0.5s-1-0.4-1.4-0.6c-0.6-0.4-1-0.9-1-1.6c0-0.6,0.2-1,0.7-1.4
		s1.1-0.6,1.8-0.6c0.5,0,0.9,0.1,1.3,0.3s0.7,0.4,0.9,0.8c0.2,0.4,0.3,0.7,0.3,1.1h-1.2c0-0.4-0.1-0.7-0.3-0.9
		c-0.2-0.2-0.6-0.3-1-0.3s-0.7,0.1-0.9,0.3s-0.3,0.4-0.3,0.7c0,0.3,0.1,0.5,0.4,0.6c0.2,0.2,0.6,0.3,1.2,0.5s1,0.4,1.3,0.6
		s0.6,0.5,0.7,0.7s0.2,0.6,0.2,1c0,0.6-0.2,1.1-0.7,1.4c-0.5,0.4-1.1,0.5-1.8,0.5c-0.5,0-1-0.1-1.4-0.3c-0.4-0.2-0.8-0.5-1-0.8
		s-0.4-0.7-0.4-1.2h1.2c0,0.4,0.1,0.7,0.4,0.9s0.6,0.3,1.1,0.3c0.4,0,0.8-0.1,1-0.3C22.2,21.2,22.3,20.9,22.3,20.6z"/>
	<path class="st2" d="M29.7,16.4h-2.2v6.1h-1.2v-6.1h-2.2v-1h5.6C29.7,15.4,29.7,16.4,29.7,16.4z"/>
	<path class="st2" d="M36.2,19.1c0,0.7-0.1,1.3-0.4,1.8c-0.2,0.5-0.6,0.9-1,1.2c-0.4,0.3-1,0.4-1.5,0.4c-0.6,0-1.1-0.1-1.5-0.4
		c-0.5-0.3-0.8-0.7-1-1.2s-0.4-1.1-0.4-1.8v-0.4c0-0.7,0.1-1.3,0.4-1.8c0.2-0.5,0.6-0.9,1-1.2c0.4-0.3,1-0.4,1.5-0.4
		s1.1,0.1,1.5,0.4c0.4,0.3,0.8,0.7,1,1.2s0.4,1.1,0.4,1.8V19.1z M35,18.7c0-0.8-0.1-1.4-0.4-1.8c-0.3-0.4-0.7-0.6-1.3-0.6
		c-0.5,0-1,0.2-1.3,0.6s-0.5,1-0.5,1.8v0.4c0,0.8,0.2,1.4,0.5,1.8s0.7,0.6,1.3,0.6c0.5,0,1-0.2,1.3-0.6s0.4-1,0.4-1.8V18.7z"/>
	<path class="st2" d="M39,15.4l2.1,5.4l2-5.4h1.6v7.1h-1.2v-2.3l0.1-3.1l-2.1,5.5h-0.9L38.5,17l0.1,3.1v2.3h-1.2v-7.1H39V15.4z"/>
	<path class="st2" d="M12.6,29.6c0-0.8,0.1-1.5,0.3-2.1c0.2-0.7,0.5-1.3,0.9-1.8s0.8-0.9,1.2-1.1l0.2,0.7c-0.5,0.3-0.8,0.9-1.1,1.6
		s-0.4,1.5-0.5,2.5v0.4c0,1,0.1,1.9,0.4,2.6c0.3,0.8,0.7,1.4,1.2,1.8L15,34.7c-0.4-0.2-0.9-0.6-1.2-1.1c-0.4-0.5-0.7-1.1-0.9-1.8
		C12.7,31.1,12.6,30.4,12.6,29.6z"/>
	<path class="st2" d="M19.9,30.6c0-0.3-0.1-0.6-0.3-0.7s-0.6-0.3-1.2-0.5s-1-0.4-1.4-0.6c-0.6-0.4-1-0.9-1-1.6c0-0.6,0.2-1,0.7-1.4
		s1.1-0.6,1.8-0.6c0.5,0,0.9,0.1,1.3,0.3s0.7,0.4,0.9,0.8c0.2,0.3,0.3,0.7,0.3,1.1h-1.2c0-0.4-0.1-0.7-0.3-0.9s-0.6-0.3-1-0.3
		s-0.7,0.1-0.9,0.3s-0.3,0.4-0.3,0.7c0,0.3,0.1,0.5,0.4,0.6c0.2,0.2,0.6,0.3,1.2,0.5s1,0.3,1.3,0.6c0.3,0.2,0.6,0.5,0.7,0.7
		c0.2,0.3,0.2,0.6,0.2,1c0,0.6-0.2,1.1-0.7,1.4c-0.5,0.4-1.1,0.5-1.8,0.5c-0.5,0-1-0.1-1.4-0.3s-0.8-0.5-1-0.8s-0.4-0.7-0.4-1.2H17
		c0,0.4,0.1,0.7,0.4,0.9s0.6,0.3,1.1,0.3c0.4,0,0.8-0.1,1-0.3C19.8,31.2,19.9,30.9,19.9,30.6z"/>
	<path class="st2" d="M24.7,30.9l1.8-5.6h1.4l-2.6,7.1h-1.2l-2.5-7.1H23L24.7,30.9z"/>
	<path class="st2" d="M34.1,31.6c-0.3,0.3-0.6,0.6-1.1,0.8s-1,0.3-1.6,0.3s-1.1-0.1-1.6-0.4s-0.8-0.7-1.1-1.2
		c-0.2-0.5-0.4-1.1-0.4-1.8v-0.6c0-1.1,0.3-1.9,0.8-2.5s1.2-0.9,2.2-0.9c0.8,0,1.4,0.2,1.9,0.6s0.7,1,0.8,1.7h-1.2
		c-0.1-0.9-0.6-1.3-1.5-1.3c-0.6,0-1,0.2-1.3,0.6s-0.4,1-0.4,1.8v0.5c0,0.8,0.2,1.4,0.5,1.8s0.8,0.6,1.3,0.6c0.6,0,1.1-0.1,1.3-0.4
		v-1.4h-1.5v-0.9h2.7v2.7H34.1z"/>
	<path class="st2" d="M37.6,29.7c0,0.7-0.1,1.4-0.3,2.1c-0.2,0.7-0.5,1.3-0.9,1.8c-0.4,0.6-0.8,0.9-1.3,1.1L34.9,34
		c0.5-0.4,0.9-1,1.2-1.7c0.3-0.8,0.4-1.7,0.4-2.7v-0.1c0-0.9-0.1-1.7-0.4-2.5c-0.2-0.7-0.6-1.3-1.1-1.8l-0.2-0.1l0.2-0.7
		c0.4,0.2,0.8,0.6,1.2,1.1s0.7,1.1,0.9,1.7s0.3,1.3,0.4,2L37.6,29.7z"/>
</g>
<g>
	
		<rect x="23.9" y="7.7" transform="matrix(0.7071 -0.7071 0.7071 0.7071 -10.3054 24.9791)" class="st4" width="2.1" height="34.5"/>
	<rect x="7.7" y="24" transform="matrix(0.7071 -0.7071 0.7071 0.7071 -10.3763 24.9501)" class="st4" width="34.5" height="2.1"/>
</g>
</svg>
