<?xml version="1.0" encoding="utf-8"?>
<!-- Generator: Adobe Illustrator 21.0.0, SVG Export Plug-In . SVG Version: 6.00 Build 0)  -->
<svg version="1.1" id="Layer_1" xmlns="http://www.w3.org/2000/svg" width="430" height="70" xmlns:xlink="http://www.w3.org/1999/xlink" x="0px" y="0px"
	 viewBox="0 0 430 70" style="enable-background:new 0 0 430 70;" xml:space="preserve">
<style type="text/css">
	.st0{display:none;}
	.st1{display:inline;fill:#F5FDFF;}
	.st2{display:inline;fill:#1089EF;}
	.st3{display:inline;fill:#F5FCFF;}
	.st4{fill:#222222;}
	.st5{fill:#FFFFFF;}
</style>
<g class="st0">
	<rect x="316.7" y="21.2" class="st1" width="102.7" height="27.7"/>
	<path class="st2" d="M418.9,21.7v26.7H317.2V21.7H418.9 M419.9,20.7H316.2v28.7h103.7L419.9,20.7L419.9,20.7z"/>
</g>
<g class="st0">
	<rect x="117.2" y="21.2" class="st3" width="199.9" height="27.7"/>
	<path class="st2" d="M316.6,21.7v26.7H117.7V21.7H316.6 M317.6,20.7H116.7v28.7h200.9L317.6,20.7L317.6,20.7z"/>
</g>
<g>
	<g>
		<path class="st4" d="M117.9,49.3H10.1V20.7h107.8V49.3z M11.3,48.1h105.4V21.9H11.3V48.1z"/>
	</g>
</g>
<rect x="117.2" y="20.6" class="st4" width="301.7" height="28.7"/>
<g>
	<path class="st5" d="M334.2,36.3h-2.3v4h-1.3v-10h3.3c1.1,0,2,0.3,2.6,0.8s0.9,1.3,0.9,2.2c0,0.6-0.2,1.2-0.5,1.6
		c-0.3,0.5-0.8,0.8-1.4,1l2.3,4.2v0.1h-1.4L334.2,36.3z M331.8,35.2h2c0.7,0,1.2-0.2,1.6-0.5s0.6-0.8,0.6-1.4c0-0.6-0.2-1.1-0.6-1.4
		c-0.4-0.3-0.9-0.5-1.6-0.5h-2V35.2z"/>
	<path class="st5" d="M344.7,35.7h-4.3v3.5h5v1.1h-6.3v-10h6.3v1.1h-4.9v3.2h4.3v1.1C344.8,35.7,344.7,35.7,344.7,35.7z"/>
	<path class="st5" d="M350.4,38.5l2.8-8.2h1.4l-3.7,10h-1.2l-3.7-10h1.4L350.4,38.5z"/>
	<path class="st5" d="M357.4,40.3h-1.3v-10h1.3V40.3z"/>
	<path class="st5" d="M365.4,35.7h-4.3v3.5h5v1.1h-6.3v-10h6.3v1.1h-4.9v3.2h4.3v1.1C365.5,35.7,365.4,35.7,365.4,35.7z"/>
	<path class="st5" d="M369.9,37.2l0.2,1.3l0.3-1.2l2-6.9h1.1l1.9,6.9l0.3,1.2l0.2-1.3l1.5-6.8h1.3l-2.4,10h-1.2l-2.1-7.3l-0.2-0.8
		l-0.2,0.8l-2.1,7.3h-1.2l-2.4-10h1.3L369.9,37.2z"/>
	<path class="st5" d="M383.1,35.9c-1.1-0.3-1.9-0.7-2.5-1.2c-0.5-0.5-0.8-1.1-0.8-1.7c0-0.8,0.3-1.4,0.9-1.9s1.4-0.8,2.4-0.8
		c0.7,0,1.3,0.1,1.8,0.4s0.9,0.6,1.2,1.1c0.3,0.5,0.4,1,0.4,1.5h-1.3c0-0.6-0.2-1.1-0.6-1.4c-0.4-0.3-0.9-0.5-1.6-0.5
		c-0.6,0-1.2,0.1-1.5,0.4c-0.4,0.3-0.5,0.7-0.5,1.2c0,0.4,0.2,0.8,0.5,1c0.3,0.3,0.9,0.5,1.8,0.8c0.8,0.2,1.5,0.5,1.9,0.8
		c0.5,0.3,0.8,0.6,1,1s0.3,0.8,0.3,1.3c0,0.8-0.3,1.5-0.9,1.9c-0.6,0.5-1.5,0.7-2.5,0.7c-0.7,0-1.3-0.1-1.9-0.4
		c-0.6-0.3-1-0.6-1.4-1.1c-0.3-0.5-0.5-1-0.5-1.6h1.3c0,0.6,0.2,1.1,0.7,1.4c0.4,0.3,1,0.5,1.8,0.5c0.7,0,1.2-0.1,1.6-0.4
		s0.6-0.7,0.6-1.2s-0.2-0.9-0.5-1.1C384.6,36.4,384,36.1,383.1,35.9z"/>
	<path class="st5" d="M391.7,36.3c0-1,0.1-2,0.4-3c0.3-0.9,0.7-1.8,1.2-2.6s1.1-1.3,1.7-1.6l0.3,0.8c-0.7,0.5-1.2,1.3-1.6,2.3
		s-0.7,2.2-0.7,3.5v0.6c0,1.8,0.3,3.3,1,4.6c0.4,0.8,0.8,1.4,1.4,1.8l-0.3,0.8c-0.6-0.3-1.2-0.9-1.7-1.7
		C392.2,40.3,391.7,38.4,391.7,36.3z"/>
	<path class="st5" d="M402.6,36c0,1.5-0.3,2.6-0.8,3.3s-1.3,1.1-2.4,1.1s-1.8-0.4-2.4-1.1c-0.5-0.7-0.8-1.8-0.8-3.2v-1.7
		c0-1.5,0.3-2.5,0.8-3.3s1.3-1.1,2.4-1.1s1.9,0.3,2.4,1s0.8,1.7,0.8,3.2V36z M401.4,34.3c0-1.1-0.2-1.9-0.5-2.3
		c-0.3-0.5-0.8-0.7-1.4-0.7s-1.1,0.2-1.4,0.7s-0.4,1.2-0.5,2.2v2c0,1.1,0.2,1.9,0.5,2.4s0.8,0.8,1.4,0.8s1.1-0.2,1.4-0.7
		s0.5-1.2,0.5-2.3V34.3z"/>
	<path class="st5" d="M407.3,36.3c0,1-0.1,2-0.4,2.9s-0.7,1.8-1.2,2.6s-1.1,1.3-1.7,1.7l-0.3-0.8c0.7-0.5,1.3-1.4,1.7-2.5
		c0.4-1.1,0.6-2.4,0.7-3.8v-0.2c0-1-0.1-1.8-0.3-2.7c-0.2-0.8-0.5-1.6-0.8-2.2c-0.4-0.7-0.8-1.2-1.2-1.5l0.3-0.8
		c0.6,0.3,1.2,0.9,1.7,1.7c0.5,0.8,1,1.6,1.2,2.6C407.2,34.2,407.3,35.2,407.3,36.3z"/>
</g>
<g>
	<path class="st5" d="M135.5,37.7h-4.2l-0.9,2.6H129l3.8-10h1.1l3.8,10h-1.3L135.5,37.7z M131.7,36.6h3.4l-1.7-4.7L131.7,36.6z"/>
	<path class="st5" d="M139.1,40.3v-10h2.8c0.9,0,1.6,0.2,2.3,0.6s1.2,0.9,1.5,1.6s0.5,1.5,0.6,2.4v0.6c0,0.9-0.2,1.8-0.5,2.5
		s-0.9,1.2-1.6,1.6s-1.5,0.6-2.3,0.6h-2.8V40.3z M140.4,31.4v7.8h1.4c1,0,1.8-0.3,2.4-0.9c0.6-0.6,0.8-1.5,0.8-2.7V35
		c0-1.1-0.3-2-0.8-2.6c-0.5-0.6-1.3-0.9-2.3-1C141.9,31.4,140.4,31.4,140.4,31.4z"/>
	<path class="st5" d="M148.3,40.3v-10h2.8c0.9,0,1.6,0.2,2.3,0.6s1.2,0.9,1.5,1.6c0.4,0.7,0.5,1.5,0.6,2.4v0.6
		c0,0.9-0.2,1.8-0.5,2.5c-0.4,0.7-0.9,1.2-1.6,1.6s-1.5,0.6-2.3,0.6h-2.8V40.3z M149.6,31.4v7.8h1.4c1,0,1.8-0.3,2.4-0.9
		c0.6-0.6,0.8-1.5,0.8-2.7V35c0-1.1-0.3-2-0.8-2.6c-0.5-0.6-1.3-0.9-2.3-1C151.1,31.4,149.6,31.4,149.6,31.4z"/>
	<path class="st5" d="M158.9,40.3h-1.3v-10h1.3V40.3z"/>
	<path class="st5" d="M168,31.4h-3.2v8.9h-1.3v-8.9h-3.2v-1.1h7.7V31.4z"/>
	<path class="st5" d="M170.8,40.3h-1.3v-10h1.3V40.3z"/>
	<path class="st5" d="M180.9,35.6c0,1-0.2,1.8-0.5,2.6c-0.3,0.7-0.8,1.3-1.4,1.7s-1.3,0.6-2.1,0.6s-1.5-0.2-2.1-0.6
		c-0.6-0.4-1.1-0.9-1.4-1.6c-0.3-0.7-0.5-1.5-0.5-2.5V35c0-1,0.2-1.8,0.5-2.5s0.8-1.3,1.4-1.7c0.6-0.4,1.3-0.6,2.1-0.6
		s1.5,0.2,2.1,0.6s1.1,0.9,1.4,1.7c0.3,0.7,0.5,1.6,0.5,2.6V35.6z M179.6,35c0-1.2-0.2-2.1-0.7-2.7c-0.5-0.6-1.1-0.9-2-0.9
		c-0.8,0-1.5,0.3-2,0.9c-0.5,0.6-0.7,1.5-0.7,2.6v0.7c0,1.1,0.2,2,0.7,2.7s1.1,1,2,1c0.8,0,1.5-0.3,2-0.9c0.5-0.6,0.7-1.5,0.7-2.7
		V35z"/>
	<path class="st5" d="M190.5,40.3h-1.3l-5-7.7v7.7h-1.3v-10h1.3l5,7.7v-7.7h1.3V40.3z"/>
	<path class="st5" d="M198.5,37.7h-4.2l-0.9,2.6H192l3.8-10h1.1l3.8,10h-1.3L198.5,37.7z M194.7,36.6h3.4l-1.7-4.7L194.7,36.6z"/>
	<path class="st5" d="M203.4,39.2h4.7v1.1h-6v-10h1.3V39.2z"/>
	<path class="st5" d="M214.5,40.3h-1.3v-10h1.3V40.3z"/>
	<path class="st5" d="M224.6,40.3h-1.3l-5-7.7v7.7H217v-10h1.3l5,7.7v-7.7h1.3V40.3z"/>
	<path class="st5" d="M232.4,35.9h-4.2v4.4h-1.3v-10h6.2v1.1h-4.9v3.4h4.2V35.9z"/>
	<path class="st5" d="M242.3,35.6c0,1-0.2,1.8-0.5,2.6c-0.3,0.7-0.8,1.3-1.4,1.7s-1.3,0.6-2.1,0.6s-1.5-0.2-2.1-0.6
		c-0.6-0.4-1.1-0.9-1.4-1.6c-0.3-0.7-0.5-1.5-0.5-2.5V35c0-1,0.2-1.8,0.5-2.5s0.8-1.3,1.4-1.7c0.6-0.4,1.3-0.6,2.1-0.6
		s1.5,0.2,2.1,0.6s1.1,0.9,1.4,1.7c0.3,0.7,0.5,1.6,0.5,2.6V35.6z M241,35c0-1.2-0.2-2.1-0.7-2.7c-0.5-0.6-1.1-0.9-2-0.9
		c-0.8,0-1.5,0.3-2,0.9c-0.5,0.6-0.7,1.5-0.7,2.6v0.7c0,1.1,0.2,2,0.7,2.7s1.1,1,2,1c0.8,0,1.5-0.3,2-0.9c0.5-0.6,0.7-1.5,0.7-2.7
		V35z"/>
	<path class="st5" d="M247.9,36.3h-2.3v4h-1.3v-10h3.3c1.1,0,2,0.3,2.6,0.8s0.9,1.3,0.9,2.2c0,0.6-0.2,1.2-0.5,1.6
		c-0.3,0.5-0.8,0.8-1.4,1l2.3,4.2v0.1h-1.4L247.9,36.3z M245.6,35.2h2c0.7,0,1.2-0.2,1.6-0.5c0.4-0.3,0.6-0.8,0.6-1.4
		c0-0.6-0.2-1.1-0.6-1.4c-0.4-0.3-0.9-0.5-1.6-0.5h-2V35.2z"/>
	<path class="st5" d="M254.6,30.3l3.3,8.1l3.3-8.1h1.7v10h-1.3v-3.9l0.1-4.2l-3.3,8.1h-1l-3.3-8l0.1,4.2v3.9h-1.3v-10h1.7
		L254.6,30.3L254.6,30.3z"/>
	<path class="st5" d="M270.7,37.7h-4.2l-0.9,2.6h-1.4l3.8-10h1.1l3.8,10h-1.3L270.7,37.7z M266.9,36.6h3.4l-1.7-4.7L266.9,36.6z"/>
	<path class="st5" d="M280.4,31.4h-3.2v8.9h-1.3v-8.9h-3.2v-1.1h7.7V31.4z"/>
	<path class="st5" d="M283.2,40.3h-1.3v-10h1.3V40.3z"/>
	<path class="st5" d="M293.3,35.6c0,1-0.2,1.8-0.5,2.6c-0.3,0.7-0.8,1.3-1.4,1.7s-1.3,0.6-2.1,0.6c-0.8,0-1.5-0.2-2.1-0.6
		c-0.6-0.4-1.1-0.9-1.4-1.6c-0.3-0.7-0.5-1.5-0.5-2.5V35c0-1,0.2-1.8,0.5-2.5s0.8-1.3,1.4-1.7c0.6-0.4,1.3-0.6,2.1-0.6
		c0.8,0,1.5,0.2,2.1,0.6s1.1,0.9,1.4,1.7c0.3,0.7,0.5,1.6,0.5,2.6V35.6z M292,35c0-1.2-0.2-2.1-0.7-2.7c-0.5-0.6-1.1-0.9-2-0.9
		c-0.8,0-1.5,0.3-2,0.9c-0.5,0.6-0.7,1.5-0.7,2.6v0.7c0,1.1,0.2,2,0.7,2.7s1.1,1,2,1c0.8,0,1.5-0.3,2-0.9c0.5-0.6,0.7-1.5,0.7-2.7
		V35z"/>
	<path class="st5" d="M302.9,40.3h-1.3l-5-7.7v7.7h-1.3v-10h1.3l5,7.7v-7.7h1.3V40.3z"/>
</g>
<g>
	<path class="st4" d="M21.5,40.3v-10h2.8c0.9,0,1.6,0.2,2.3,0.6s1.2,0.9,1.5,1.6s0.5,1.5,0.6,2.4v0.6c0,0.9-0.2,1.8-0.5,2.5
		s-0.9,1.2-1.6,1.6s-1.5,0.6-2.3,0.6h-2.8V40.3z M22.8,31.4v7.8h1.4c1,0,1.8-0.3,2.4-0.9c0.6-0.6,0.8-1.5,0.8-2.7V35
		c0-1.1-0.3-2-0.8-2.6c-0.5-0.6-1.3-0.9-2.3-1C24.3,31.4,22.8,31.4,22.8,31.4z"/>
	<path class="st4" d="M36.3,35.7H32v3.5h5v1.1h-6.3v-10H37v1.1h-4.9v3.2h4.3L36.3,35.7L36.3,35.7z"/>
	<path class="st4" d="M41.5,35.9c-1.1-0.3-1.9-0.7-2.5-1.2c-0.5-0.5-0.8-1.1-0.8-1.7c0-0.8,0.3-1.4,0.9-1.9c0.6-0.5,1.4-0.8,2.4-0.8
		c0.7,0,1.3,0.1,1.8,0.4s1,0.6,1.2,1.1c0.2,0.5,0.4,1,0.4,1.5h-1.3c0-0.6-0.2-1.1-0.6-1.4c-0.4-0.3-0.9-0.5-1.6-0.5
		c-0.6,0-1.2,0.1-1.5,0.4c-0.4,0.3-0.5,0.7-0.5,1.2c0,0.4,0.2,0.8,0.5,1c0.3,0.3,0.9,0.5,1.8,0.8c0.8,0.2,1.5,0.5,1.9,0.8
		c0.5,0.3,0.8,0.6,1,1s0.3,0.8,0.3,1.3c0,0.8-0.3,1.5-0.9,1.9c-0.6,0.5-1.5,0.7-2.5,0.7c-0.7,0-1.3-0.1-1.9-0.4
		c-0.6-0.3-1-0.6-1.4-1.1S38,38,38,37.4h1.3c0,0.6,0.2,1.1,0.7,1.4c0.4,0.3,1,0.5,1.8,0.5c0.7,0,1.2-0.1,1.6-0.4s0.6-0.7,0.6-1.2
		s-0.2-0.9-0.5-1.1C43,36.4,42.4,36.1,41.5,35.9z"/>
	<path class="st4" d="M54.2,37.1c-0.1,1.1-0.5,1.9-1.2,2.4c-0.7,0.6-1.5,0.9-2.6,0.9c-1.2,0-2.1-0.4-2.8-1.3c-0.7-0.8-1.1-2-1.1-3.4
		v-1c0-0.9,0.2-1.7,0.5-2.4s0.8-1.2,1.4-1.6c0.6-0.4,1.3-0.6,2.1-0.6c1.1,0,1.9,0.3,2.5,0.9s1,1.4,1.1,2.5h-1.3
		c-0.1-0.8-0.4-1.4-0.7-1.7c-0.4-0.4-0.9-0.5-1.6-0.5c-0.8,0-1.5,0.3-2,0.9c-0.5,0.6-0.7,1.5-0.7,2.6v1c0,1.1,0.2,1.9,0.7,2.6
		s1.1,1,1.9,1c0.7,0,1.3-0.2,1.7-0.5s0.6-0.9,0.8-1.7L54.2,37.1L54.2,37.1z"/>
	<path class="st4" d="M59.7,36.3h-2.3v4H56v-10h3.3c1.1,0,2,0.3,2.6,0.8s0.9,1.3,0.9,2.2c0,0.6-0.2,1.2-0.5,1.6
		c-0.3,0.5-0.8,0.8-1.4,1l2.3,4.2v0.1h-1.4L59.7,36.3z M57.3,35.2h2c0.7,0,1.2-0.2,1.6-0.5c0.4-0.3,0.6-0.8,0.6-1.4
		c0-0.6-0.2-1.1-0.6-1.4c-0.4-0.3-0.9-0.5-1.6-0.5h-2V35.2z"/>
	<path class="st4" d="M66,40.3h-1.3v-10H66V40.3z"/>
	<path class="st4" d="M69.8,36.4v3.9h-1.3v-10h3.7c1.1,0,1.9,0.3,2.6,0.8c0.6,0.6,0.9,1.3,0.9,2.2c0,1-0.3,1.7-0.9,2.2
		s-1.5,0.8-2.6,0.8L69.8,36.4L69.8,36.4z M69.8,35.3h2.4c0.7,0,1.2-0.2,1.6-0.5s0.6-0.8,0.6-1.4c0-0.6-0.2-1.1-0.6-1.4
		s-0.9-0.5-1.5-0.6h-2.4L69.8,35.3L69.8,35.3z"/>
	<path class="st4" d="M84.1,31.4h-3.2v8.9h-1.3v-8.9h-3.2v-1.1h7.7V31.4z"/>
	<path class="st4" d="M87,40.3h-1.3v-10H87V40.3z"/>
	<path class="st4" d="M97.1,35.6c0,1-0.2,1.8-0.5,2.6c-0.3,0.7-0.8,1.3-1.4,1.7s-1.3,0.6-2.1,0.6c-0.8,0-1.5-0.2-2.1-0.6
		c-0.6-0.4-1.1-0.9-1.4-1.6c-0.3-0.7-0.5-1.5-0.5-2.5V35c0-1,0.2-1.8,0.5-2.5s0.8-1.3,1.4-1.7c0.6-0.4,1.3-0.6,2.1-0.6
		c0.8,0,1.5,0.2,2.1,0.6s1.1,0.9,1.4,1.7c0.3,0.7,0.5,1.6,0.5,2.6V35.6z M95.8,35c0-1.2-0.2-2.1-0.7-2.7c-0.5-0.6-1.1-0.9-2-0.9
		c-0.8,0-1.5,0.3-2,0.9c-0.5,0.6-0.7,1.5-0.7,2.6v0.7c0,1.1,0.2,2,0.7,2.7s1.1,1,2,1c0.8,0,1.5-0.3,2-0.9c0.5-0.6,0.7-1.5,0.7-2.7
		V35z"/>
	<path class="st4" d="M106.7,40.3h-1.3l-5-7.7v7.7h-1.3v-10h1.3l5,7.7v-7.7h1.3V40.3z"/>
</g>
<rect x="316.2" y="20.6" class="st5" width="1" height="28.7"/>
</svg>
