<?xml version="1.0" encoding="utf-8"?>
<!-- Generator: Adobe Illustrator 21.0.0, SVG Export Plug-In . SVG Version: 6.00 Build 0)  -->
<svg version="1.1" id="Layer_1" xmlns="http://www.w3.org/2000/svg" width="430" height="70" xmlns:xlink="http://www.w3.org/1999/xlink" x="0px" y="0px"
	 viewBox="0 0 430 70" style="enable-background:new 0 0 430 70;" xml:space="preserve">
<style type="text/css">
	.st0{fill:#E1E1E1;}
	.st1{fill:#E1E1E1;stroke:#E1E1E1;stroke-width:1.2;stroke-linecap:square;stroke-miterlimit:10;}
	.st2{fill:none;stroke:#A6D4F4;stroke-width:1.2;stroke-linecap:square;stroke-miterlimit:10;}
	.st3{fill:#222222;}
	.st4{fill:#FFFFFF;}
	.st5{display:none;fill:none;stroke:#A6D4F4;stroke-width:1.2;stroke-linecap:square;stroke-miterlimit:10;}
</style>
<g>
	<g>
		<path class="st0" d="M37.3,23.9h-4.2l-0.9,2.6h-1.4l3.8-10h1.1l3.8,10h-1.3L37.3,23.9z M33.5,22.8h3.4l-1.7-4.7L33.5,22.8z"/>
		<path class="st0" d="M48.1,23.3c-0.1,1.1-0.5,1.9-1.2,2.4c-0.7,0.6-1.5,0.9-2.6,0.9c-1.2,0-2.1-0.4-2.8-1.3s-1.1-2-1.1-3.4v-1
			c0-0.9,0.2-1.7,0.5-2.4c0.3-0.7,0.8-1.2,1.4-1.6c0.6-0.4,1.3-0.6,2.1-0.6c1.1,0,1.9,0.3,2.5,0.9s1,1.4,1.1,2.5h-1.3
			c-0.1-0.8-0.4-1.4-0.7-1.7s-0.9-0.5-1.6-0.5c-0.8,0-1.5,0.3-2,0.9s-0.7,1.5-0.7,2.6v1c0,1.1,0.2,1.9,0.7,2.6s1.1,1,1.9,1
			c0.7,0,1.3-0.2,1.7-0.5s0.6-0.9,0.8-1.7L48.1,23.3L48.1,23.3z"/>
		<path class="st0" d="M57.2,23.3c-0.1,1.1-0.5,1.9-1.2,2.4c-0.7,0.6-1.5,0.9-2.6,0.9c-1.2,0-2.1-0.4-2.8-1.3s-1.1-2-1.1-3.4v-1
			c0-0.9,0.2-1.7,0.5-2.4s0.8-1.2,1.4-1.6c0.6-0.4,1.3-0.6,2.1-0.6c1.1,0,1.9,0.3,2.5,0.9s1,1.4,1.1,2.5h-1.3
			c-0.1-0.8-0.4-1.4-0.7-1.7s-0.9-0.5-1.6-0.5c-0.8,0-1.5,0.3-2,0.9s-0.7,1.5-0.7,2.6v1c0,1.1,0.2,1.9,0.7,2.6s1.1,1,1.9,1
			c0.7,0,1.3-0.2,1.7-0.5s0.6-0.9,0.8-1.7L57.2,23.3L57.2,23.3z"/>
		<path class="st0" d="M66.7,21.8c0,1-0.2,1.8-0.5,2.6c-0.3,0.7-0.8,1.3-1.4,1.7c-0.6,0.4-1.3,0.6-2.1,0.6s-1.5-0.2-2.1-0.6
			s-1.1-0.9-1.4-1.6c-0.3-0.7-0.5-1.5-0.5-2.5v-0.7c0-1,0.2-1.8,0.5-2.5s0.8-1.3,1.4-1.7c0.6-0.4,1.3-0.6,2.1-0.6s1.5,0.2,2.1,0.6
			s1.1,0.9,1.4,1.7c0.3,0.7,0.5,1.6,0.5,2.6V21.8z M65.4,21.2c0-1.2-0.2-2.1-0.7-2.7s-1.1-0.9-2-0.9c-0.8,0-1.5,0.3-2,0.9
			C60.3,19.1,60,20,60,21.1v0.7c0,1.1,0.2,2,0.7,2.7s1.1,1,2,1c0.8,0,1.5-0.3,2-0.9s0.7-1.5,0.7-2.7C65.4,21.9,65.4,21.2,65.4,21.2z
			"/>
		<path class="st0" d="M72.3,22.5H70v4h-1.3v-10H72c1.1,0,2,0.3,2.6,0.8s0.9,1.3,0.9,2.2c0,0.6-0.2,1.2-0.5,1.6
			c-0.3,0.5-0.8,0.8-1.4,1l2.3,4.2v0.1h-1.4L72.3,22.5z M70,21.4h2c0.7,0,1.2-0.2,1.6-0.5s0.6-0.8,0.6-1.4s-0.2-1.1-0.6-1.4
			s-0.9-0.5-1.6-0.5h-2V21.4z"/>
		<path class="st0" d="M77.3,26.5v-10h2.8c0.9,0,1.6,0.2,2.3,0.6s1.2,0.9,1.5,1.6c0.4,0.7,0.5,1.5,0.6,2.4v0.6
			c0,0.9-0.2,1.8-0.5,2.5c-0.4,0.7-0.9,1.2-1.6,1.6s-1.5,0.6-2.3,0.6L77.3,26.5L77.3,26.5z M78.6,17.6v7.8H80c1,0,1.8-0.3,2.4-0.9
			s0.8-1.5,0.8-2.7v-0.6c0-1.1-0.3-2-0.8-2.6s-1.3-0.9-2.3-1H78.6z"/>
		<path class="st0" d="M87.9,26.5h-1.3v-10h1.3V26.5z"/>
		<path class="st0" d="M97.9,21.8c0,1-0.2,1.8-0.5,2.6c-0.3,0.7-0.8,1.3-1.4,1.7s-1.3,0.6-2.1,0.6c-0.8,0-1.5-0.2-2.1-0.6
			s-1.1-0.9-1.4-1.6S89.9,23,89.9,22v-0.7c0-1,0.2-1.8,0.5-2.5s0.8-1.3,1.4-1.7c0.6-0.4,1.3-0.6,2.1-0.6c0.8,0,1.5,0.2,2.1,0.6
			s1.1,0.9,1.4,1.7c0.3,0.7,0.5,1.6,0.5,2.6V21.8z M96.6,21.2c0-1.2-0.2-2.1-0.7-2.7s-1.1-0.9-2-0.9c-0.8,0-1.5,0.3-2,0.9
			s-0.7,1.5-0.7,2.6v0.7c0,1.1,0.2,2,0.7,2.7s1.1,1,2,1c0.8,0,1.5-0.3,2-0.9s0.7-1.5,0.7-2.7V21.2z"/>
		<path class="st0" d="M107.5,26.5h-1.3l-5-7.7v7.7h-1.3v-10h1.3l5,7.7v-7.7h1.3V26.5z"/>
		<path class="st0" d="M117.2,26.5h-1.3v-8.4l-2.5,0.9v-1.1l3.6-1.4h0.2C117.2,16.5,117.2,26.5,117.2,26.5z"/>
	</g>
	<line class="st1" x1="11" y1="7.5" x2="419.6" y2="7.5"/>
	<line class="st2" x1="11" y1="35" x2="419.6" y2="35"/>
	<g>
		<g>
			<g>
				<polygon class="st0" points="24,23.2 23.4,22.6 21,20.3 20.4,20.9 22.8,23.2 23.4,23.9 				"/>
			</g>
			<g>
				<polygon class="st0" points="26.4,20.9 25.8,20.3 23.4,22.6 22.8,23.2 23.4,23.9 				"/>
			</g>
		</g>
	</g>
</g>
<g>
	<rect x="10.4" y="34.4" class="st3" width="409.8" height="28.7"/>
	<g>
		<path class="st4" d="M37.3,51.4h-4.2L32.2,54h-1.4l3.8-10h1.1l3.8,10h-1.3L37.3,51.4z M33.5,50.3h3.4l-1.7-4.7L33.5,50.3z"/>
		<path class="st4" d="M48.1,50.8c-0.1,1.1-0.5,1.9-1.2,2.4c-0.7,0.6-1.5,0.9-2.6,0.9c-1.2,0-2.1-0.4-2.8-1.3s-1.1-2-1.1-3.4v-1
			c0-0.9,0.2-1.7,0.5-2.4s0.8-1.2,1.4-1.6c0.6-0.4,1.3-0.6,2.1-0.6c1.1,0,1.9,0.3,2.5,0.9c0.6,0.6,1,1.4,1.1,2.5h-1.3
			c-0.1-0.8-0.4-1.4-0.7-1.7S45.2,45,44.5,45c-0.8,0-1.5,0.3-2,0.9s-0.7,1.5-0.7,2.6v1c0,1.1,0.2,1.9,0.7,2.6s1.1,1,1.9,1
			c0.7,0,1.3-0.2,1.7-0.5s0.6-0.9,0.8-1.7L48.1,50.8L48.1,50.8z"/>
		<path class="st4" d="M57.3,50.8c-0.1,1.1-0.5,1.9-1.2,2.4c-0.7,0.6-1.5,0.9-2.6,0.9c-1.2,0-2.1-0.4-2.8-1.3s-1.1-2-1.1-3.4v-1
			c0-0.9,0.2-1.7,0.5-2.4s0.8-1.2,1.4-1.6c0.6-0.4,1.3-0.6,2.1-0.6c1.1,0,1.9,0.3,2.5,0.9c0.6,0.6,1,1.4,1.1,2.5h-1.3
			c-0.1-0.8-0.4-1.4-0.7-1.7S54.3,45,53.6,45c-0.8,0-1.5,0.3-2,0.9s-0.7,1.5-0.7,2.6v1c0,1.1,0.2,1.9,0.7,2.6s1.1,1,1.9,1
			c0.7,0,1.3-0.2,1.7-0.5s0.6-0.9,0.8-1.7L57.3,50.8L57.3,50.8z"/>
		<path class="st4" d="M66.7,49.3c0,1-0.2,1.8-0.5,2.6c-0.3,0.7-0.8,1.3-1.4,1.7s-1.3,0.6-2.1,0.6s-1.5-0.2-2.1-0.6
			c-0.6-0.4-1.1-0.9-1.4-1.6c-0.3-0.7-0.5-1.5-0.5-2.5v-0.7c0-1,0.2-1.8,0.5-2.5s0.8-1.3,1.4-1.7c0.6-0.4,1.3-0.6,2.1-0.6
			s1.5,0.2,2.1,0.6c0.6,0.4,1.1,0.9,1.4,1.7c0.3,0.7,0.5,1.6,0.5,2.6V49.3z M65.4,48.7c0-1.2-0.2-2.1-0.7-2.7
			c-0.5-0.6-1.1-0.9-2-0.9c-0.8,0-1.5,0.3-2,0.9c-0.5,0.6-0.7,1.5-0.7,2.6v0.7c0,1.1,0.2,2,0.7,2.7s1.1,1,2,1c0.8,0,1.5-0.3,2-0.9
			c0.5-0.6,0.7-1.5,0.7-2.7V48.7z"/>
		<path class="st4" d="M72.3,50H70v4h-1.3V44H72c1.1,0,2,0.3,2.6,0.8s0.9,1.3,0.9,2.2c0,0.6-0.2,1.2-0.5,1.6c-0.3,0.5-0.8,0.8-1.4,1
			l2.3,4.2V54h-1.4L72.3,50z M70,48.9h2c0.7,0,1.2-0.2,1.6-0.5s0.6-0.8,0.6-1.4c0-0.6-0.2-1.1-0.6-1.4c-0.4-0.3-0.9-0.5-1.6-0.5h-2
			V48.9z"/>
		<path class="st4" d="M77.3,54V44h2.8c0.9,0,1.6,0.2,2.3,0.6s1.2,0.9,1.5,1.6c0.4,0.7,0.5,1.5,0.6,2.4v0.6c0,0.9-0.2,1.8-0.5,2.5
			c-0.4,0.7-0.9,1.2-1.6,1.6C81.7,53.8,80.9,54,80,54H77.3z M78.6,45.1v7.8H80c1,0,1.8-0.3,2.4-0.9c0.6-0.6,0.8-1.5,0.8-2.7v-0.6
			c0-1.1-0.3-2-0.8-2.6s-1.3-0.9-2.3-1H78.6z"/>
		<path class="st4" d="M87.9,54h-1.3V44h1.3V54z"/>
		<path class="st4" d="M97.9,49.3c0,1-0.2,1.8-0.5,2.6c-0.3,0.7-0.8,1.3-1.4,1.7s-1.3,0.6-2.1,0.6c-0.8,0-1.5-0.2-2.1-0.6
			c-0.6-0.4-1.1-0.9-1.4-1.6c-0.3-0.7-0.5-1.5-0.5-2.5v-0.7c0-1,0.2-1.8,0.5-2.5s0.8-1.3,1.4-1.7s1.3-0.6,2.1-0.6
			c0.8,0,1.5,0.2,2.1,0.6c0.6,0.4,1.1,0.9,1.4,1.7c0.3,0.7,0.5,1.6,0.5,2.6V49.3z M96.6,48.7c0-1.2-0.2-2.1-0.7-2.7
			c-0.5-0.6-1.1-0.9-2-0.9c-0.8,0-1.5,0.3-2,0.9c-0.5,0.6-0.7,1.5-0.7,2.6v0.7c0,1.1,0.2,2,0.7,2.7s1.1,1,2,1c0.8,0,1.5-0.3,2-0.9
			c0.5-0.6,0.7-1.5,0.7-2.7V48.7z"/>
		<path class="st4" d="M107.6,54h-1.3l-5-7.7V54H100V44h1.3l5,7.7V44h1.3C107.6,44,107.6,54,107.6,54z"/>
		<path class="st4" d="M119.5,54H113v-0.9l3.4-3.8c0.5-0.6,0.9-1,1.1-1.4s0.3-0.7,0.3-1.1c0-0.5-0.2-0.9-0.5-1.3S116.6,45,116,45
			s-1.1,0.2-1.5,0.5c-0.3,0.4-0.5,0.9-0.5,1.5h-1.3c0-0.9,0.3-1.7,0.9-2.2c0.6-0.6,1.4-0.8,2.4-0.8c0.9,0,1.7,0.2,2.2,0.7
			s0.8,1.1,0.8,1.9c0,1-0.6,2.1-1.9,3.5l-2.7,2.9h5L119.5,54L119.5,54z"/>
	</g>
	<line class="st5" x1="11" y1="35" x2="419.6" y2="35"/>
	<line class="st5" x1="11" y1="62.5" x2="419.6" y2="62.5"/>
	<g>
		<g>
			<polygon class="st4" points="24,48.4 23.4,49 21,51.4 20.4,50.7 22.8,48.4 23.4,47.8 			"/>
		</g>
		<g>
			<polygon class="st4" points="26.4,50.7 25.8,51.4 23.4,49 22.8,48.4 23.4,47.8 			"/>
		</g>
	</g>
</g>
</svg>
