<?xml version="1.0" encoding="utf-8"?>
<!-- Generator: Adobe Illustrator 21.0.0, SVG Export Plug-In . SVG Version: 6.00 Build 0)  -->
<svg version="1.1" id="Layer_1" xmlns="http://www.w3.org/2000/svg" width="430" height="70" xmlns:xlink="http://www.w3.org/1999/xlink" x="0px" y="0px"
	 viewBox="0 0 430 70" style="enable-background:new 0 0 430 70;" xml:space="preserve">
<style type="text/css">
	.st0{fill:#222222;}
	.st1{enable-background:new    ;}
	.st2{fill:#E1E1E1;}
</style>
<g>
	<path class="st0" d="M334.9,34.9h-2.3v4h-1.3v-10h3.3c1.1,0,2,0.3,2.6,0.8s0.9,1.3,0.9,2.2c0,0.6-0.2,1.2-0.5,1.6
		c-0.3,0.4-0.8,0.8-1.4,1l2.3,4.2v0.1H337L334.9,34.9z M332.5,33.9h2c0.7,0,1.2-0.2,1.6-0.5s0.6-0.8,0.6-1.4c0-0.6-0.2-1.1-0.6-1.4
		s-0.9-0.5-1.6-0.5h-2V33.9z"/>
	<path class="st0" d="M345.4,34.4h-4.3v3.5h5V39h-6.3V29h6.3v1.1h-4.9v3.2h4.3v1.1C345.5,34.4,345.4,34.4,345.4,34.4z"/>
	<path class="st0" d="M351.1,37.2l2.8-8.2h1.4l-3.7,10h-1.2l-3.7-10h1.4L351.1,37.2z"/>
	<path class="st0" d="M358.1,39.1h-1.3v-10h1.3V39.1z"/>
	<path class="st0" d="M366.1,34.4h-4.3v3.5h5V39h-6.3V29h6.3v1.1h-4.9v3.2h4.3v1.1C366.2,34.4,366.1,34.4,366.1,34.4z"/>
	<path class="st0" d="M370.6,35.8l0.2,1.3l0.3-1.2l2-6.9h1.1l1.9,6.9l0.3,1.2l0.2-1.3l1.5-6.8h1.3L377,39h-1.2l-2.1-7.3l-0.2-0.8
		l-0.2,0.8l-2.1,7.3H370l-2.4-10h1.3L370.6,35.8z"/>
	<path class="st0" d="M383.8,34.6c-1.1-0.3-1.9-0.7-2.5-1.2c-0.5-0.5-0.8-1.1-0.8-1.7c0-0.8,0.3-1.4,0.9-1.9s1.4-0.8,2.4-0.8
		c0.7,0,1.3,0.1,1.8,0.4s0.9,0.6,1.2,1.1c0.3,0.5,0.4,1,0.4,1.5h-1.3c0-0.6-0.2-1.1-0.6-1.4s-0.9-0.5-1.6-0.5
		c-0.6,0-1.2,0.1-1.5,0.4c-0.4,0.3-0.5,0.7-0.5,1.2c0,0.4,0.2,0.8,0.5,1c0.3,0.3,0.9,0.5,1.8,0.8c0.8,0.2,1.5,0.5,1.9,0.8
		c0.5,0.3,0.8,0.6,1,1s0.3,0.8,0.3,1.3c0,0.8-0.3,1.5-0.9,1.9c-0.6,0.5-1.5,0.7-2.5,0.7c-0.7,0-1.3-0.1-1.9-0.4s-1-0.6-1.4-1.1
		c-0.3-0.5-0.5-1-0.5-1.6h1.3c0,0.6,0.2,1.1,0.7,1.4c0.4,0.3,1,0.5,1.8,0.5c0.7,0,1.2-0.1,1.6-0.4s0.6-0.7,0.6-1.2s-0.2-0.9-0.5-1.1
		C385.3,35.1,384.7,34.8,383.8,34.6z"/>
	<path class="st0" d="M392.4,34.9c0-1,0.1-2,0.4-3c0.3-0.9,0.7-1.8,1.2-2.6s1.1-1.3,1.7-1.6l0.3,0.8c-0.7,0.5-1.2,1.3-1.6,2.3
		s-0.7,2.2-0.7,3.5v0.6c0,1.8,0.3,3.3,1,4.6c0.4,0.8,0.8,1.4,1.4,1.8l-0.3,0.8c-0.6-0.3-1.2-0.9-1.7-1.7
		C392.9,38.9,392.4,37.2,392.4,34.9z"/>
	<path class="st0" d="M403.3,34.8c0,1.5-0.3,2.6-0.8,3.3s-1.3,1.1-2.4,1.1s-1.8-0.4-2.4-1.1c-0.5-0.7-0.8-1.8-0.8-3.2v-1.7
		c0-1.5,0.3-2.5,0.8-3.3s1.3-1.1,2.4-1.1s1.9,0.3,2.4,1s0.8,1.7,0.8,3.2V34.8z M402.1,33.1c0-1.1-0.2-1.9-0.5-2.3
		c-0.3-0.5-0.8-0.7-1.4-0.7s-1.1,0.2-1.4,0.7s-0.4,1.2-0.5,2.2v2c0,1.1,0.2,1.9,0.5,2.4s0.8,0.8,1.4,0.8s1.1-0.2,1.4-0.7
		s0.5-1.2,0.5-2.3V33.1z"/>
	<path class="st0" d="M408,35.1c0,1-0.1,2-0.4,2.9s-0.7,1.8-1.2,2.6s-1.1,1.3-1.7,1.7l-0.3-0.8c0.7-0.5,1.3-1.4,1.7-2.5
		c0.4-1.1,0.6-2.4,0.7-3.8V35c0-1-0.1-1.8-0.3-2.7c-0.2-0.8-0.5-1.6-0.8-2.2c-0.4-0.7-0.8-1.2-1.2-1.5l0.3-0.8
		c0.6,0.3,1.2,0.9,1.7,1.7c0.5,0.8,1,1.6,1.2,2.6C407.9,32.9,408,33.9,408,35.1z"/>
</g>
<g>
	<path class="st0" d="M136.2,37.3H132l-0.9,2.6h-1.4l3.8-10h1.1l3.8,10h-1.3L136.2,37.3z M132.4,36.2h3.4l-1.7-4.7L132.4,36.2z"/>
	<path class="st0" d="M139.8,40V30h2.8c0.9,0,1.6,0.2,2.3,0.6s1.2,0.9,1.5,1.6s0.5,1.5,0.6,2.4v0.6c0,0.9-0.2,1.8-0.5,2.5
		s-0.9,1.2-1.6,1.6c-0.7,0.4-1.5,0.6-2.3,0.6h-2.8V40z M141.1,31.1v7.8h1.4c1,0,1.8-0.3,2.4-0.9c0.6-0.6,0.8-1.5,0.8-2.7v-0.6
		c0-1.1-0.3-2-0.8-2.6c-0.5-0.6-1.3-0.9-2.3-1C142.6,31.1,141.1,31.1,141.1,31.1z"/>
	<path class="st0" d="M149,40V30h2.8c0.9,0,1.6,0.2,2.3,0.6s1.2,0.9,1.5,1.6c0.4,0.7,0.5,1.5,0.6,2.4v0.6c0,0.9-0.2,1.8-0.5,2.5
		c-0.4,0.7-0.9,1.2-1.6,1.6c-0.7,0.4-1.5,0.6-2.3,0.6H149V40z M150.3,31.1v7.8h1.4c1,0,1.8-0.3,2.4-0.9c0.6-0.6,0.8-1.5,0.8-2.7
		v-0.6c0-1.1-0.3-2-0.8-2.6c-0.5-0.6-1.3-0.9-2.3-1C151.8,31.1,150.3,31.1,150.3,31.1z"/>
	<path class="st0" d="M159.6,40h-1.3V30h1.3V40z"/>
	<path class="st0" d="M168.7,31.1h-3.2V40h-1.3v-8.9H161V30h7.7V31.1z"/>
	<path class="st0" d="M171.5,40h-1.3V30h1.3V40z"/>
	<path class="st0" d="M181.6,35.2c0,1-0.2,1.8-0.5,2.6c-0.3,0.7-0.8,1.3-1.4,1.7s-1.3,0.6-2.1,0.6s-1.5-0.2-2.1-0.6
		c-0.6-0.4-1.1-0.9-1.4-1.6c-0.3-0.7-0.5-1.5-0.5-2.5v-0.7c0-1,0.2-1.8,0.5-2.5s0.8-1.3,1.4-1.7c0.6-0.4,1.3-0.6,2.1-0.6
		s1.5,0.2,2.1,0.6s1.1,0.9,1.4,1.7c0.3,0.7,0.5,1.6,0.5,2.6V35.2z M180.3,34.7c0-1.2-0.2-2.1-0.7-2.7c-0.5-0.6-1.1-0.9-2-0.9
		c-0.8,0-1.5,0.3-2,0.9c-0.5,0.6-0.7,1.5-0.7,2.6v0.7c0,1.1,0.2,2,0.7,2.7s1.1,1,2,1c0.8,0,1.5-0.3,2-0.9c0.5-0.6,0.7-1.5,0.7-2.7
		V34.7z"/>
	<path class="st0" d="M191.2,40h-1.3l-5-7.7V40h-1.3V30h1.3l5,7.7V30h1.3V40z"/>
	<path class="st0" d="M199.2,37.3H195l-0.9,2.6h-1.4l3.8-10h1.1l3.8,10h-1.3L199.2,37.3z M195.4,36.2h3.4l-1.7-4.7L195.4,36.2z"/>
	<path class="st0" d="M204.1,38.8h4.7v1.1h-6v-10h1.3V38.8z"/>
	<path class="st0" d="M215.2,40h-1.3V30h1.3V40z"/>
	<path class="st0" d="M225.3,40H224l-5-7.7V40h-1.3V30h1.3l5,7.7V30h1.3V40z"/>
	<path class="st0" d="M233.1,35.6h-4.2V40h-1.3V30h6.2v1.1h-4.9v3.4h4.2V35.6z"/>
	<path class="st0" d="M243,35.2c0,1-0.2,1.8-0.5,2.6c-0.3,0.7-0.8,1.3-1.4,1.7S239.8,40,239,40s-1.5-0.2-2.1-0.6
		c-0.6-0.4-1.1-0.9-1.4-1.6c-0.3-0.7-0.5-1.5-0.5-2.5v-0.7c0-1,0.2-1.8,0.5-2.5s0.8-1.3,1.4-1.7c0.6-0.4,1.3-0.6,2.1-0.6
		s1.5,0.2,2.1,0.6s1.1,0.9,1.4,1.7c0.3,0.7,0.5,1.6,0.5,2.6V35.2z M241.7,34.7c0-1.2-0.2-2.1-0.7-2.7c-0.5-0.6-1.1-0.9-2-0.9
		c-0.8,0-1.5,0.3-2,0.9c-0.5,0.6-0.7,1.5-0.7,2.6v0.7c0,1.1,0.2,2,0.7,2.7s1.1,1,2,1c0.8,0,1.5-0.3,2-0.9c0.5-0.6,0.7-1.5,0.7-2.7
		V34.7z"/>
	<path class="st0" d="M248.6,35.8h-2.3v4H245v-10h3.3c1.1,0,2,0.3,2.6,0.8s0.9,1.3,0.9,2.2c0,0.6-0.2,1.2-0.5,1.6
		c-0.3,0.5-0.8,0.8-1.4,1l2.3,4.2v0.1h-1.4L248.6,35.8z M246.3,34.8h2c0.7,0,1.2-0.2,1.6-0.5c0.4-0.3,0.6-0.8,0.6-1.4
		c0-0.6-0.2-1.1-0.6-1.4c-0.4-0.3-0.9-0.5-1.6-0.5h-2V34.8z"/>
	<path class="st0" d="M255.3,30l3.3,8.1l3.3-8.1h1.7v10h-1.3v-3.9l0.1-4.2l-3.3,8.1h-1l-3.3-8l0.1,4.2v3.9h-1.3v-10h1.7L255.3,30
		L255.3,30z"/>
	<path class="st0" d="M271.4,37.3h-4.2l-0.9,2.6H265l3.8-10h1.1l3.8,10h-1.3L271.4,37.3z M267.6,36.2h3.4l-1.7-4.7L267.6,36.2z"/>
	<path class="st0" d="M281.1,31.1h-3.2V40h-1.3v-8.9h-3.2V30h7.7V31.1z"/>
	<path class="st0" d="M283.9,40h-1.3V30h1.3V40z"/>
	<path class="st0" d="M294,35.2c0,1-0.2,1.8-0.5,2.6c-0.3,0.7-0.8,1.3-1.4,1.7S290.8,40,290,40s-1.5-0.2-2.1-0.6
		c-0.6-0.4-1.1-0.9-1.4-1.6c-0.3-0.7-0.5-1.5-0.5-2.5v-0.7c0-1,0.2-1.8,0.5-2.5s0.8-1.3,1.4-1.7c0.6-0.4,1.3-0.6,2.1-0.6
		c0.8,0,1.5,0.2,2.1,0.6s1.1,0.9,1.4,1.7c0.3,0.7,0.5,1.6,0.5,2.6V35.2z M292.7,34.7c0-1.2-0.2-2.1-0.7-2.7c-0.5-0.6-1.1-0.9-2-0.9
		c-0.8,0-1.5,0.3-2,0.9c-0.5,0.6-0.7,1.5-0.7,2.6v0.7c0,1.1,0.2,2,0.7,2.7s1.1,1,2,1c0.8,0,1.5-0.3,2-0.9c0.5-0.6,0.7-1.5,0.7-2.7
		V34.7z"/>
	<path class="st0" d="M303.6,40h-1.3l-5-7.7V40H296V30h1.3l5,7.7V30h1.3L303.6,40L303.6,40z"/>
</g>
<g class="st1">
	<path class="st2" d="M22.2,40V30H25c0.9,0,1.6,0.2,2.3,0.6s1.2,0.9,1.5,1.6s0.5,1.5,0.6,2.4v0.6c0,0.9-0.2,1.8-0.5,2.5
		S28,39,27.3,39.3s-1.5,0.6-2.3,0.6h-2.8V40z M23.5,31.1v7.8h1.4c1,0,1.8-0.3,2.4-0.9c0.6-0.6,0.8-1.5,0.8-2.7v-0.6
		c0-1.1-0.3-2-0.8-2.6c-0.6-0.7-1.3-1-2.3-1C25,31.1,23.5,31.1,23.5,31.1z"/>
	<path class="st2" d="M37,35.4h-4.3v3.5h5V40h-6.3V30h6.3v1.1h-4.9v3.2H37V35.4z"/>
	<path class="st2" d="M42.2,35.5c-1.1-0.3-1.9-0.7-2.5-1.2c-0.5-0.5-0.8-1.1-0.8-1.7c0-0.8,0.3-1.4,0.9-1.9c0.6-0.5,1.4-0.8,2.4-0.8
		c0.7,0,1.3,0.1,1.8,0.4s1,0.6,1.2,1.1s0.4,1,0.4,1.5h-1.3c0-0.6-0.2-1.1-0.6-1.4c-0.4-0.3-0.9-0.5-1.6-0.5c-0.6,0-1.2,0.1-1.5,0.4
		c-0.4,0.3-0.5,0.7-0.5,1.2c0,0.4,0.2,0.8,0.5,1c0.3,0.3,0.9,0.5,1.8,0.8c0.8,0.2,1.5,0.5,1.9,0.8c0.5,0.3,0.8,0.6,1,1
		s0.3,0.8,0.3,1.3c0,0.8-0.3,1.5-0.9,1.9c-0.6,0.5-1.5,0.7-2.5,0.7c-0.7,0-1.3-0.1-1.9-0.4c-0.6-0.3-1-0.6-1.4-1.1s-0.5-1-0.5-1.6
		H40c0,0.6,0.2,1.1,0.7,1.4c0.4,0.3,1,0.5,1.8,0.5c0.7,0,1.2-0.1,1.6-0.4s0.6-0.7,0.6-1.2s-0.2-0.9-0.5-1.1
		C43.7,36,43.1,35.8,42.2,35.5z"/>
	<path class="st2" d="M54.9,36.8c-0.1,1.1-0.5,1.9-1.2,2.4c-0.7,0.6-1.5,0.9-2.6,0.9c-1.2,0-2.1-0.4-2.8-1.3c-0.7-0.8-1.1-2-1.1-3.4
		v-1c0-0.9,0.2-1.7,0.5-2.4s0.8-1.2,1.4-1.6c0.6-0.4,1.3-0.6,2.1-0.6c1.1,0,1.9,0.3,2.5,0.9s1,1.4,1.1,2.5h-1.3
		c-0.1-0.8-0.4-1.4-0.7-1.7c-0.4-0.4-0.9-0.5-1.6-0.5c-0.8,0-1.5,0.3-2,0.9s-0.7,1.5-0.7,2.6v1c0,1.1,0.2,1.9,0.7,2.6s1.1,1,1.9,1
		c0.7,0,1.3-0.2,1.7-0.5s0.6-0.9,0.8-1.7L54.9,36.8L54.9,36.8z"/>
	<path class="st2" d="M60.4,35.9H58v4h-1.3v-10H60c1.1,0,2,0.3,2.6,0.8s0.9,1.3,0.9,2.2c0,0.6-0.2,1.2-0.5,1.6
		c-0.3,0.5-0.8,0.8-1.4,1l2.3,4.2v0.1h-1.4L60.4,35.9z M58,34.9h2c0.7,0,1.2-0.2,1.6-0.5c0.4-0.3,0.6-0.8,0.6-1.4
		c0-0.6-0.2-1.1-0.6-1.4c-0.3-0.3-0.9-0.5-1.6-0.5h-2V34.9z"/>
	<path class="st2" d="M66.7,40h-1.3V30h1.3V40z"/>
	<path class="st2" d="M70.5,36.1V40h-1.3V30h3.7c1.1,0,1.9,0.3,2.6,0.8c0.6,0.6,0.9,1.3,0.9,2.2c0,1-0.3,1.7-0.9,2.2S74,36,72.9,36
		L70.5,36.1L70.5,36.1z M70.5,35h2.4c0.7,0,1.2-0.2,1.6-0.5s0.5-0.8,0.5-1.4s-0.2-1.1-0.6-1.4s-0.9-0.6-1.5-0.6h-2.4V35z"/>
	<path class="st2" d="M84.8,31.1h-3.2V40h-1.3v-8.9h-3.2V30h7.7V31.1z"/>
	<path class="st2" d="M87.7,40h-1.3V30h1.3V40z"/>
	<path class="st2" d="M97.8,35.3c0,1-0.2,1.8-0.5,2.6c-0.3,0.7-0.8,1.3-1.4,1.7s-1.3,0.5-2.1,0.5c-0.8,0-1.5-0.2-2.1-0.6
		c-0.6-0.4-1.1-0.9-1.4-1.6c-0.3-0.7-0.5-1.5-0.5-2.5v-0.7c0-1,0.2-1.8,0.5-2.5s0.8-1.3,1.4-1.7c0.6-0.4,1.3-0.6,2.1-0.6
		c0.8,0,1.5,0.2,2.1,0.6s1.1,0.9,1.4,1.7c0.3,0.7,0.5,1.6,0.5,2.6V35.3z M96.5,34.7c0-1.2-0.2-2.1-0.7-2.7c-0.5-0.6-1.1-0.9-2-0.9
		c-0.8,0-1.5,0.3-2,0.9c-0.5,0.6-0.7,1.5-0.7,2.6v0.7c0,1.1,0.2,2,0.7,2.7s1.1,1,2,1c0.8,0,1.5-0.3,2-0.9c0.5-0.6,0.7-1.5,0.7-2.7
		V34.7z"/>
	<path class="st2" d="M107.4,40h-1.3l-5-7.7V40h-1.3V30h1.3l5,7.7V30h1.3V40z"/>
</g>
</svg>
