<?xml version="1.0" encoding="utf-8"?>
<!-- Generator: Adobe Illustrator 21.0.0, SVG Export Plug-In . SVG Version: 6.00 Build 0)  -->
<svg version="1.1" id="Layer_1" xmlns="http://www.w3.org/2000/svg" width="430" height="70" xmlns:xlink="http://www.w3.org/1999/xlink" x="0px" y="0px"
	 viewBox="0 0 430 70" style="enable-background:new 0 0 430 70;" xml:space="preserve">
<style type="text/css">
	.st0{fill:#222222;}
	.st1{fill:#E1E1E1;}
</style>
<g>
	<path class="st0" d="M334.9,31.9h-2.3v4h-1.3v-10h3.3c1.1,0,2,0.3,2.6,0.8s0.9,1.3,0.9,2.2c0,0.6-0.2,1.2-0.5,1.6s-0.8,0.8-1.4,1
		l2.3,4.2v0.1H337L334.9,31.9z M332.5,30.9h2c0.7,0,1.2-0.2,1.6-0.5s0.6-0.8,0.6-1.4s-0.2-1.1-0.6-1.4s-0.9-0.5-1.6-0.5h-2V30.9z"/>
	<path class="st0" d="M345.4,31.4h-4.3v3.5h5V36h-6.3V26h6.3v1.1h-4.9v3.2h4.3v1.1C345.5,31.4,345.4,31.4,345.4,31.4z"/>
	<path class="st0" d="M351.1,34.2l2.8-8.2h1.4l-3.7,10h-1.2l-3.7-10h1.4L351.1,34.2z"/>
	<path class="st0" d="M358.1,36h-1.3V26h1.3V36z"/>
	<path class="st0" d="M366.1,31.4h-4.3v3.5h5V36h-6.3V26h6.3v1.1h-4.9v3.2h4.3v1.1C366.2,31.4,366.1,31.4,366.1,31.4z"/>
	<path class="st0" d="M370.6,32.8l0.2,1.3l0.3-1.2l2-6.9h1.1l1.9,6.9l0.3,1.2l0.2-1.3l1.5-6.8h1.3L377,36h-1.2l-2.1-7.3l-0.2-0.8
		l-0.2,0.8l-2.1,7.3H370l-2.4-10h1.3L370.6,32.8z"/>
	<path class="st0" d="M383.8,31.5c-1.1-0.3-1.9-0.7-2.5-1.2c-0.5-0.5-0.8-1.1-0.8-1.7c0-0.8,0.3-1.4,0.9-1.9s1.4-0.8,2.4-0.8
		c0.7,0,1.3,0.1,1.8,0.4s0.9,0.6,1.2,1.1c0.3,0.5,0.4,1,0.4,1.5h-1.3c0-0.6-0.2-1.1-0.6-1.4s-0.9-0.5-1.6-0.5
		c-0.6,0-1.2,0.1-1.5,0.4c-0.4,0.3-0.5,0.7-0.5,1.2c0,0.4,0.2,0.8,0.5,1c0.3,0.3,0.9,0.5,1.8,0.8c0.8,0.2,1.5,0.5,1.9,0.8
		c0.5,0.3,0.8,0.6,1,1c0.2,0.4,0.3,0.8,0.3,1.3c0,0.8-0.3,1.5-0.9,1.9c-0.6,0.5-1.5,0.7-2.5,0.7c-0.7,0-1.3-0.1-1.9-0.4
		s-1-0.6-1.4-1.1c-0.3-0.5-0.5-1-0.5-1.6h1.3c0,0.6,0.2,1.1,0.7,1.4c0.4,0.3,1,0.5,1.8,0.5c0.7,0,1.2-0.1,1.6-0.4s0.6-0.7,0.6-1.2
		s-0.2-0.9-0.5-1.1C385.3,32,384.7,31.8,383.8,31.5z"/>
	<path class="st0" d="M392.4,31.9c0-1,0.1-2,0.4-3c0.3-0.9,0.7-1.8,1.2-2.6s1.1-1.3,1.7-1.6l0.3,0.8c-0.7,0.5-1.2,1.3-1.6,2.3
		s-0.7,2.2-0.7,3.5v0.6c0,1.8,0.3,3.3,1,4.6c0.4,0.8,0.8,1.4,1.4,1.8l-0.3,0.8c-0.6-0.3-1.2-0.9-1.7-1.7
		C392.9,35.8,392.4,34.1,392.4,31.9z"/>
	<path class="st0" d="M403.3,31.6c0,1.5-0.3,2.6-0.8,3.3s-1.3,1.1-2.4,1.1s-1.8-0.4-2.4-1.1c-0.5-0.7-0.8-1.8-0.8-3.2V30
		c0-1.5,0.3-2.5,0.8-3.3s1.3-1.1,2.4-1.1s1.9,0.3,2.4,1s0.8,1.7,0.8,3.2V31.6z M402.1,30c0-1.1-0.2-1.9-0.5-2.3
		c-0.3-0.5-0.8-0.7-1.4-0.7s-1.1,0.2-1.4,0.7s-0.4,1.2-0.5,2.2v2c0,1.1,0.2,1.9,0.5,2.4s0.8,0.8,1.4,0.8s1.1-0.2,1.4-0.7
		s0.5-1.2,0.5-2.3V30z"/>
	<path class="st0" d="M408,32c0,1-0.1,2-0.4,2.9s-0.7,1.8-1.2,2.6s-1.1,1.3-1.7,1.7l-0.3-0.8c0.7-0.5,1.3-1.4,1.7-2.5
		c0.4-1.1,0.6-2.4,0.7-3.8v-0.2c0-1-0.1-1.8-0.3-2.7c-0.2-0.8-0.5-1.6-0.8-2.2c-0.4-0.7-0.8-1.2-1.2-1.5l0.3-0.8
		c0.6,0.3,1.2,0.9,1.7,1.7c0.5,0.8,1,1.6,1.2,2.6C407.9,29.9,408,30.9,408,32z"/>
</g>
<g>
	<path class="st0" d="M136.2,33.3H132l-0.9,2.6h-1.4l3.8-10h1.1l3.8,10h-1.3L136.2,33.3z M132.4,32.2h3.4l-1.7-4.7L132.4,32.2z"/>
	<path class="st0" d="M139.8,36V26h2.8c0.9,0,1.6,0.2,2.3,0.6s1.2,0.9,1.5,1.6s0.5,1.5,0.6,2.4v0.6c0,0.9-0.2,1.8-0.5,2.5
		s-0.9,1.2-1.6,1.6c-0.7,0.4-1.5,0.6-2.3,0.6h-2.8V36z M141.1,27.1v7.8h1.4c1,0,1.8-0.3,2.4-0.9c0.6-0.6,0.8-1.5,0.8-2.7v-0.6
		c0-1.1-0.3-2-0.8-2.6s-1.3-0.9-2.3-1C142.6,27.1,141.1,27.1,141.1,27.1z"/>
	<path class="st0" d="M149,36V26h2.8c0.9,0,1.6,0.2,2.3,0.6s1.2,0.9,1.5,1.6c0.4,0.7,0.5,1.5,0.6,2.4v0.6c0,0.9-0.2,1.8-0.5,2.5
		c-0.4,0.7-0.9,1.2-1.6,1.6c-0.7,0.4-1.5,0.6-2.3,0.6H149V36z M150.3,27.1v7.8h1.4c1,0,1.8-0.3,2.4-0.9c0.6-0.6,0.8-1.5,0.8-2.7
		v-0.6c0-1.1-0.3-2-0.8-2.6s-1.3-0.9-2.3-1C151.8,27.1,150.3,27.1,150.3,27.1z"/>
	<path class="st0" d="M159.6,36h-1.3V26h1.3V36z"/>
	<path class="st0" d="M168.7,27.1h-3.2V36h-1.3v-8.9H161V26h7.7V27.1z"/>
	<path class="st0" d="M171.5,36h-1.3V26h1.3V36z"/>
	<path class="st0" d="M181.6,31.3c0,1-0.2,1.8-0.5,2.6c-0.3,0.7-0.8,1.3-1.4,1.7s-1.3,0.6-2.1,0.6s-1.5-0.2-2.1-0.6
		c-0.6-0.4-1.1-0.9-1.4-1.6c-0.3-0.7-0.5-1.5-0.5-2.5v-0.7c0-1,0.2-1.8,0.5-2.5s0.8-1.3,1.4-1.7c0.6-0.4,1.3-0.6,2.1-0.6
		s1.5,0.2,2.1,0.6s1.1,0.9,1.4,1.7c0.3,0.7,0.5,1.6,0.5,2.6V31.3z M180.3,30.6c0-1.2-0.2-2.1-0.7-2.7s-1.1-0.9-2-0.9
		c-0.8,0-1.5,0.3-2,0.9s-0.7,1.5-0.7,2.6v0.7c0,1.1,0.2,2,0.7,2.7s1.1,1,2,1c0.8,0,1.5-0.3,2-0.9c0.5-0.6,0.7-1.5,0.7-2.7V30.6z"/>
	<path class="st0" d="M191.2,36h-1.3l-5-7.7V36h-1.3V26h1.3l5,7.7V26h1.3V36z"/>
	<path class="st0" d="M199.2,33.3H195l-0.9,2.6h-1.4l3.8-10h1.1l3.8,10h-1.3L199.2,33.3z M195.4,32.2h3.4l-1.7-4.7L195.4,32.2z"/>
	<path class="st0" d="M204.1,34.8h4.7v1.1h-6v-10h1.3V34.8z"/>
	<path class="st0" d="M215.2,36h-1.3V26h1.3V36z"/>
	<path class="st0" d="M225.3,36H224l-5-7.7V36h-1.3V26h1.3l5,7.7V26h1.3V36z"/>
	<path class="st0" d="M233.1,31.6h-4.2V36h-1.3V26h6.2v1.1h-4.9v3.4h4.2V31.6z"/>
	<path class="st0" d="M243,31.3c0,1-0.2,1.8-0.5,2.6c-0.3,0.7-0.8,1.3-1.4,1.7s-1.3,0.5-2.1,0.5s-1.5-0.2-2.1-0.6
		c-0.6-0.4-1.1-0.9-1.4-1.6c-0.3-0.7-0.5-1.5-0.5-2.5v-0.7c0-1,0.2-1.8,0.5-2.5s0.8-1.3,1.4-1.7c0.6-0.4,1.3-0.6,2.1-0.6
		s1.5,0.2,2.1,0.6s1.1,0.9,1.4,1.7c0.3,0.7,0.5,1.6,0.5,2.6V31.3z M241.7,30.6c0-1.2-0.2-2.1-0.7-2.7s-1.1-0.9-2-0.9
		c-0.8,0-1.5,0.3-2,0.9s-0.7,1.5-0.7,2.6v0.7c0,1.1,0.2,2,0.7,2.7s1.1,1,2,1c0.8,0,1.5-0.3,2-0.9c0.5-0.6,0.7-1.5,0.7-2.7V30.6z"/>
	<path class="st0" d="M248.6,31.9h-2.3v4H245v-10h3.3c1.1,0,2,0.3,2.6,0.8s0.9,1.3,0.9,2.2c0,0.6-0.2,1.2-0.5,1.6
		c-0.3,0.5-0.8,0.8-1.4,1l2.3,4.2v0.1h-1.4L248.6,31.9z M246.3,30.9h2c0.7,0,1.2-0.2,1.6-0.5c0.4-0.3,0.6-0.8,0.6-1.4
		s-0.2-1.1-0.6-1.4c-0.4-0.3-0.9-0.5-1.6-0.5h-2V30.9z"/>
	<path class="st0" d="M255.3,26l3.3,8.1l3.3-8.1h1.7v10h-1.3v-3.9l0.1-4.2l-3.3,8.1h-1l-3.3-8l0.1,4.2v3.9h-1.3v-10h1.7L255.3,26
		L255.3,26z"/>
	<path class="st0" d="M271.4,33.3h-4.2l-0.9,2.6H265l3.8-10h1.1l3.8,10h-1.3L271.4,33.3z M267.6,32.2h3.4l-1.7-4.7L267.6,32.2z"/>
	<path class="st0" d="M281.1,27.1h-3.2V36h-1.3v-8.9h-3.2V26h7.7V27.1z"/>
	<path class="st0" d="M283.9,36h-1.3V26h1.3V36z"/>
	<path class="st0" d="M294,31.3c0,1-0.2,1.8-0.5,2.6c-0.3,0.7-0.8,1.3-1.4,1.7s-1.3,0.5-2.1,0.5s-1.5-0.2-2.1-0.6
		c-0.6-0.4-1.1-0.9-1.4-1.6c-0.3-0.7-0.5-1.5-0.5-2.5v-0.7c0-1,0.2-1.8,0.5-2.5s0.8-1.3,1.4-1.7c0.6-0.4,1.3-0.6,2.1-0.6
		c0.8,0,1.5,0.2,2.1,0.6s1.1,0.9,1.4,1.7c0.3,0.7,0.5,1.6,0.5,2.6V31.3z M292.7,30.6c0-1.2-0.2-2.1-0.7-2.7s-1.1-0.9-2-0.9
		c-0.8,0-1.5,0.3-2,0.9s-0.7,1.5-0.7,2.6v0.7c0,1.1,0.2,2,0.7,2.7s1.1,1,2,1c0.8,0,1.5-0.3,2-0.9c0.5-0.6,0.7-1.5,0.7-2.7V30.6z"/>
	<path class="st0" d="M303.6,36h-1.3l-5-7.7V36H296V26h1.3l5,7.7V26h1.3L303.6,36L303.6,36z"/>
</g>
<g>
	<path class="st0" d="M22.2,36V26H25c0.9,0,1.6,0.2,2.3,0.6s1.2,0.9,1.5,1.6s0.5,1.5,0.6,2.4v0.6c0,0.9-0.2,1.8-0.5,2.5
		s-0.9,1.2-1.6,1.6c-0.7,0.4-1.5,0.6-2.3,0.6h-2.8V36z M23.5,27.1v7.8h1.4c1,0,1.8-0.3,2.4-0.9c0.6-0.6,0.8-1.5,0.8-2.7v-0.6
		c0-1.1-0.3-2-0.8-2.6c-0.6-0.7-1.3-1-2.3-1C25,27.1,23.5,27.1,23.5,27.1z"/>
	<path class="st0" d="M37,31.4h-4.3v3.5h5V36h-6.3V26h6.3v1.1h-4.9v3.2H37V31.4z"/>
	<path class="st0" d="M42.2,31.5c-1.1-0.3-1.9-0.7-2.5-1.2c-0.5-0.5-0.8-1.1-0.8-1.7c0-0.8,0.3-1.4,0.9-1.9c0.6-0.5,1.4-0.8,2.4-0.8
		c0.7,0,1.3,0.1,1.8,0.4s1,0.6,1.2,1.1s0.4,1,0.4,1.5h-1.3c0-0.6-0.2-1.1-0.6-1.4c-0.4-0.3-0.9-0.5-1.6-0.5c-0.6,0-1.2,0.1-1.5,0.4
		c-0.4,0.3-0.5,0.7-0.5,1.2c0,0.4,0.2,0.8,0.5,1c0.3,0.3,0.9,0.5,1.8,0.8c0.8,0.2,1.5,0.5,1.9,0.8c0.5,0.3,0.8,0.6,1,1
		c0.2,0.4,0.3,0.8,0.3,1.3c0,0.8-0.3,1.5-0.9,1.9c-0.6,0.5-1.5,0.7-2.5,0.7c-0.7,0-1.3-0.1-1.9-0.4c-0.6-0.3-1-0.6-1.4-1.1
		s-0.5-1-0.5-1.6H40c0,0.6,0.2,1.1,0.7,1.4c0.4,0.3,1,0.5,1.8,0.5c0.7,0,1.2-0.1,1.6-0.4s0.6-0.7,0.6-1.2s-0.2-0.9-0.5-1.1
		C43.7,32,43.1,31.8,42.2,31.5z"/>
	<path class="st0" d="M54.9,32.8c-0.1,1.1-0.5,1.9-1.2,2.4c-0.7,0.6-1.5,0.9-2.6,0.9c-1.2,0-2.1-0.4-2.8-1.3c-0.7-0.8-1.1-2-1.1-3.4
		v-1c0-0.9,0.2-1.7,0.5-2.4s0.8-1.2,1.4-1.6c0.6-0.4,1.3-0.6,2.1-0.6c1.1,0,1.9,0.3,2.5,0.9s1,1.4,1.1,2.5h-1.3
		c-0.1-0.8-0.4-1.4-0.7-1.7c-0.4-0.4-0.9-0.5-1.6-0.5c-0.8,0-1.5,0.3-2,0.9s-0.7,1.5-0.7,2.6v1c0,1.1,0.2,1.9,0.7,2.6s1.1,1,1.9,1
		c0.7,0,1.3-0.2,1.7-0.5s0.6-0.9,0.8-1.7L54.9,32.8L54.9,32.8z"/>
	<path class="st0" d="M60.4,31.9H58v4h-1.3v-10H60c1.1,0,2,0.3,2.6,0.8s0.9,1.3,0.9,2.2c0,0.6-0.2,1.2-0.5,1.6
		c-0.3,0.5-0.8,0.8-1.4,1l2.3,4.2v0.1h-1.4L60.4,31.9z M58,30.9h2c0.7,0,1.2-0.2,1.6-0.5c0.4-0.3,0.6-0.8,0.6-1.4s-0.2-1.1-0.6-1.4
		c-0.3-0.3-0.9-0.5-1.6-0.5h-2V30.9z"/>
	<path class="st0" d="M66.7,36h-1.3V26h1.3V36z"/>
	<path class="st0" d="M70.5,32.1V36h-1.3V26h3.7c1.1,0,1.9,0.3,2.6,0.8c0.6,0.6,0.9,1.3,0.9,2.2c0,1-0.3,1.7-0.9,2.2S74,32,72.9,32
		L70.5,32.1L70.5,32.1z M70.5,31h2.4c0.7,0,1.2-0.2,1.6-0.5s0.5-0.8,0.5-1.4s-0.2-1.1-0.6-1.4s-0.9-0.6-1.5-0.6h-2.4V31z"/>
	<path class="st0" d="M84.8,27.1h-3.2V36h-1.3v-8.9h-3.2V26h7.7V27.1z"/>
	<path class="st0" d="M87.7,36h-1.3V26h1.3V36z"/>
	<path class="st0" d="M97.8,31.3c0,1-0.2,1.8-0.5,2.6c-0.3,0.7-0.8,1.3-1.4,1.7s-1.3,0.5-2.1,0.5c-0.8,0-1.5-0.2-2.1-0.6
		c-0.6-0.4-1.1-0.9-1.4-1.6c-0.3-0.7-0.5-1.5-0.5-2.5v-0.7c0-1,0.2-1.8,0.5-2.5s0.8-1.3,1.4-1.7c0.6-0.4,1.3-0.6,2.1-0.6
		c0.8,0,1.5,0.2,2.1,0.6s1.1,0.9,1.4,1.7c0.3,0.7,0.5,1.6,0.5,2.6V31.3z M96.5,30.6c0-1.2-0.2-2.1-0.7-2.7s-1.1-0.9-2-0.9
		c-0.8,0-1.5,0.3-2,0.9s-0.7,1.5-0.7,2.6v0.7c0,1.1,0.2,2,0.7,2.7s1.1,1,2,1c0.8,0,1.5-0.3,2-0.9c0.5-0.6,0.7-1.5,0.7-2.7V30.6z"/>
	<path class="st0" d="M107.4,36h-1.3l-5-7.7V36h-1.3V26h1.3l5,7.7V26h1.3V36z"/>
</g>
<g>
	<rect x="22.1" y="44.3" class="st1" width="385.9" height="1"/>
</g>
<g>
	<rect x="22.1" y="43.3" class="st0" width="85.2" height="2"/>
</g>
</svg>
