<?xml version="1.0" encoding="utf-8"?>
<!-- Generator: Adobe Illustrator 21.0.0, SVG Export Plug-In . SVG Version: 6.00 Build 0)  -->
<svg version="1.1" id="Layer_1" xmlns="http://www.w3.org/2000/svg" width="100" height="100" xmlns:xlink="http://www.w3.org/1999/xlink" x="0px" y="0px"
	 viewBox="0 0 120 120" style="enable-background:new 0 0 120 120;" xml:space="preserve">
<style type="text/css">
	.st0{display:none;}
	.st1{display:inline;fill:#1089EF;}
	.st2{fill:#E1E1E1;}
	.st3{fill:#888888;}
	.st4{fill:#222222;}
</style>
<g class="st0">
	<rect id="Background" x="6.1" y="4.9" class="st1" width="107.8" height="23.8"/>
</g>
<g>
	<g>
		<g>
			<rect x="28.7" y="4.9" class="st2" width="18.6" height="19.8"/>
			<rect x="28.7" y="25.4" class="st2" width="9" height="0.7"/>
			<rect x="28.7" y="26.6" class="st2" width="13.8" height="0.7"/>
			<rect x="45.5" y="25.4" class="st2" width="1.8" height="1.8"/>
			<path class="st3" d="M39.8,13v3.4h-3.6V13H39.8 M39.8,12.5h-3.6c-0.3,0-0.4,0.3-0.4,0.4v3.4c0,0.3,0.3,0.4,0.4,0.4h3.4
				c0.3,0,0.6-0.3,0.6-0.4V13C40.2,12.7,40.1,12.5,39.8,12.5z M38.6,14.8l-0.7,1l-0.6-0.6l-0.7,1h3C39.5,16,38.6,14.8,38.6,14.8z"/>
		</g>
		<g>
			<rect x="50.9" y="4.9" class="st2" width="18.6" height="19.8"/>
			<rect x="50.9" y="25.4" class="st2" width="9" height="0.7"/>
			<rect x="50.9" y="26.6" class="st2" width="13.8" height="0.7"/>
			<rect x="67.7" y="25.4" class="st2" width="1.8" height="1.8"/>
			<path class="st3" d="M62,13v3.4h-3.4V13H62 M62,12.5h-3.4c-0.3,0-0.4,0.3-0.4,0.4v3.4c0,0.3,0.3,0.4,0.4,0.4H62
				c0.3,0,0.4-0.3,0.4-0.4V13C62.4,12.8,62.3,12.5,62,12.5z M60.8,14.8l-0.7,1l-0.6-0.6l-0.7,0.9h3C61.7,16,60.8,14.8,60.8,14.8z"/>
		</g>
		<g>
			<rect x="73.1" y="4.9" class="st2" width="18.6" height="19.8"/>
			<rect x="73.1" y="25.4" class="st2" width="9" height="0.7"/>
			<rect x="73.1" y="26.6" class="st2" width="13.8" height="0.7"/>
			<rect x="89.9" y="25.4" class="st2" width="1.8" height="1.8"/>
			<path class="st3" d="M84.2,13v3.4h-3.4V13H84.2 M84.2,12.5h-3.4c-0.3,0-0.4,0.3-0.4,0.4v3.4c0,0.3,0.3,0.4,0.4,0.4h3.4
				c0.3,0,0.4-0.3,0.4-0.4V13C84.6,12.8,84.5,12.5,84.2,12.5z M83,14.8l-0.7,1l-0.6-0.6l-0.7,1h3C83.9,16,83,14.8,83,14.8z"/>
		</g>
		<g>
			<rect x="95.3" y="4.9" class="st2" width="18.6" height="19.8"/>
			<rect x="95.3" y="25.4" class="st2" width="9" height="0.7"/>
			<rect x="95.3" y="26.6" class="st2" width="13.8" height="0.7"/>
			<rect x="112.1" y="25.4" class="st2" width="1.8" height="1.8"/>
			<path class="st3" d="M106.4,13v3.4h-3.4V13H106.4 M106.4,12.5h-3.4c-0.3,0-0.4,0.3-0.4,0.4v3.4c0,0.3,0.3,0.4,0.4,0.4h3.4
				c0.3,0,0.4-0.3,0.4-0.4V13C106.8,12.8,106.7,12.5,106.4,12.5z M105.2,14.8l-0.7,1l-0.6-0.6l-0.7,1h3
				C106.1,16,105.2,14.8,105.2,14.8z"/>
		</g>
		<g>
			<rect x="6.4" y="4.9" class="st2" width="18.6" height="19.8"/>
			<rect x="6.4" y="25.4" class="st2" width="9" height="0.7"/>
			<rect x="6.4" y="26.6" class="st2" width="13.8" height="0.7"/>
			<rect x="23.2" y="25.4" class="st2" width="1.8" height="1.8"/>
			<path class="st3" d="M17.5,13v3.4h-3.6V13H17.5 M17.5,12.5h-3.6c-0.3,0-0.4,0.3-0.4,0.4v3.4c0,0.3,0.3,0.4,0.4,0.4h3.4
				c0.3,0,0.6-0.3,0.6-0.4V13C18,12.7,17.8,12.5,17.5,12.5z M16.3,14.8l-0.7,1l-0.6-0.6l-0.7,1h3C17.2,16,16.3,14.8,16.3,14.8z"/>
		</g>
	</g>
	<g>
		<g>
			<rect x="28.7" y="30.4" class="st2" width="18.6" height="19.8"/>
			<rect x="28.7" y="51" class="st2" width="9" height="0.7"/>
			<rect x="28.7" y="52.2" class="st2" width="13.8" height="0.7"/>
			<rect x="45.5" y="51" class="st2" width="1.8" height="1.8"/>
			<path class="st3" d="M39.8,38.6V42h-3.6v-3.4H39.8 M39.8,38.1h-3.6c-0.3,0-0.4,0.3-0.4,0.4V42c0,0.3,0.3,0.4,0.4,0.4h3.4
				c0.3,0,0.6-0.3,0.6-0.4v-3.4C40.2,38.2,40.1,38.1,39.8,38.1z M38.6,40.4l-0.7,1l-0.6-0.6l-0.7,1h3C39.5,41.6,38.6,40.4,38.6,40.4
				z"/>
		</g>
		<g>
			<rect x="50.9" y="30.5" class="st2" width="18.6" height="19.8"/>
			<rect x="50.9" y="51" class="st2" width="9" height="0.7"/>
			<rect x="50.9" y="52.2" class="st2" width="13.8" height="0.7"/>
			<rect x="67.7" y="51" class="st2" width="1.8" height="1.8"/>
			<path class="st3" d="M62,38.6V42h-3.4v-3.4H62 M62,38.1h-3.4c-0.3,0-0.4,0.3-0.4,0.4V42c0,0.3,0.3,0.4,0.4,0.4H62
				c0.3,0,0.4-0.3,0.4-0.4v-3.4C62.4,38.4,62.3,38.1,62,38.1z M60.8,40.4l-0.7,1l-0.6-0.6l-0.7,0.9h3C61.7,41.6,60.8,40.4,60.8,40.4
				z"/>
		</g>
		<g>
			<rect x="73.1" y="30.5" class="st2" width="18.6" height="19.8"/>
			<rect x="73.1" y="51" class="st2" width="9" height="0.7"/>
			<rect x="73.1" y="52.2" class="st2" width="13.8" height="0.7"/>
			<rect x="89.9" y="51" class="st2" width="1.8" height="1.8"/>
			<path class="st3" d="M84.2,38.6V42h-3.4v-3.4H84.2 M84.2,38.1h-3.4c-0.3,0-0.4,0.3-0.4,0.4V42c0,0.3,0.3,0.4,0.4,0.4h3.4
				c0.3,0,0.4-0.3,0.4-0.4v-3.4C84.6,38.4,84.5,38.1,84.2,38.1z M83,40.4l-0.7,1l-0.6-0.6l-0.7,1h3C83.9,41.6,83,40.4,83,40.4z"/>
		</g>
		<g>
			<rect x="6.4" y="30.5" class="st2" width="18.6" height="19.8"/>
			<rect x="6.4" y="51" class="st2" width="9" height="0.7"/>
			<rect x="6.4" y="52.2" class="st2" width="13.8" height="0.7"/>
			<rect x="23.2" y="51" class="st2" width="1.8" height="1.8"/>
			<path class="st3" d="M17.5,38.6V42h-3.6v-3.4H17.5 M17.5,38.1h-3.6c-0.3,0-0.4,0.3-0.4,0.4V42c0,0.3,0.3,0.4,0.4,0.4h3.4
				c0.3,0,0.5-0.3,0.5-0.4v-3.4C17.9,38.3,17.8,38.1,17.5,38.1z M16.3,40.4l-0.7,1l-0.6-0.6l-0.7,1h3C17.2,41.6,16.3,40.4,16.3,40.4
				z"/>
		</g>
	</g>
</g>
<g>
	<g>
		<g>
			<rect x="28.7" y="55.8" class="st2" width="18.6" height="19.8"/>
			<rect x="28.7" y="76.4" class="st2" width="9" height="0.7"/>
			<rect x="28.7" y="77.6" class="st2" width="13.8" height="0.7"/>
			<rect x="45.5" y="76.4" class="st2" width="1.8" height="1.8"/>
			<path class="st3" d="M39.8,63.9v3.4h-3.6v-3.4H39.8 M39.8,63.5h-3.6c-0.3,0-0.4,0.3-0.4,0.4v3.4c0,0.3,0.3,0.4,0.4,0.4h3.4
				c0.3,0,0.6-0.3,0.6-0.4v-3.4C40.3,63.7,40.1,63.5,39.8,63.5z M38.6,65.7l-0.7,1l-0.6-0.6l-0.7,1h3C39.5,66.9,38.6,65.7,38.6,65.7
				z"/>
		</g>
		<g>
			<rect x="50.9" y="55.8" class="st2" width="18.6" height="19.8"/>
			<rect x="50.9" y="76.4" class="st2" width="9" height="0.7"/>
			<rect x="50.9" y="77.6" class="st2" width="13.8" height="0.7"/>
			<rect x="67.7" y="76.4" class="st2" width="1.8" height="1.8"/>
			<path class="st3" d="M62,63.9v3.4h-3.4v-3.4H62 M62,63.5h-3.4c-0.3,0-0.4,0.3-0.4,0.4v3.4c0,0.3,0.3,0.4,0.4,0.4H62
				c0.3,0,0.4-0.3,0.4-0.4v-3.4C62.5,63.8,62.3,63.5,62,63.5z M60.8,65.7l-0.7,1l-0.6-0.6l-0.7,0.9h3C61.7,66.9,60.8,65.7,60.8,65.7
				z"/>
		</g>
		<g>
			<rect x="6.4" y="55.8" class="st2" width="18.6" height="19.8"/>
			<rect x="6.4" y="76.4" class="st2" width="9" height="0.7"/>
			<rect x="6.4" y="77.6" class="st2" width="13.8" height="0.7"/>
			<rect x="23.2" y="76.4" class="st2" width="1.8" height="1.8"/>
			<path class="st3" d="M17.5,63.9v3.4h-3.6v-3.4H17.5 M17.5,63.5h-3.6c-0.3,0-0.4,0.3-0.4,0.4v3.4c0,0.3,0.3,0.4,0.4,0.4h3.4
				c0.3,0,0.6-0.3,0.6-0.4v-3.4C17.9,63.7,17.8,63.5,17.5,63.5z M16.3,65.7l-0.7,1L15,66.2l-0.7,1h3C17.2,66.9,16.3,65.7,16.3,65.7z
				"/>
		</g>
	</g>
</g>
<g>
	<path class="st4" d="M50.9,98.8h3.8v5.2c-0.6,0.2-1.2,0.3-1.8,0.4c-0.6,0.1-1.2,0.1-1.8,0.1c-1.6,0-2.8-0.5-3.6-1.4
		c-0.8-0.9-1.3-2.2-1.3-3.9c0-1.7,0.5-3,1.4-3.9c1-0.9,2.3-1.4,3.9-1.4c1.1,0,2.1,0.2,3.1,0.6L54,96c-0.8-0.4-1.7-0.6-2.5-0.6
		c-1.1,0-2,0.3-2.6,1c-0.6,0.7-1,1.6-1,2.8c0,1.3,0.3,2.2,0.9,2.9c0.6,0.7,1.4,1,2.5,1c0.5,0,1.1-0.1,1.7-0.2v-2.7h-2.1V98.8z"/>
	<path class="st4" d="M60.9,96.5c0.3,0,0.6,0,0.8,0.1l-0.2,1.5C61.3,98,61.1,98,60.8,98c-0.7,0-1.2,0.2-1.6,0.6
		c-0.4,0.4-0.6,1-0.6,1.7v4.1H57v-7.8h1.3l0.2,1.4h0.1c0.3-0.5,0.6-0.8,1-1.1C60,96.6,60.4,96.5,60.9,96.5z"/>
	<path class="st4" d="M63.1,94.6c0-0.3,0.1-0.5,0.2-0.7c0.2-0.2,0.4-0.2,0.7-0.2c0.3,0,0.5,0.1,0.7,0.2c0.2,0.2,0.2,0.4,0.2,0.7
		c0,0.3-0.1,0.5-0.2,0.7c-0.2,0.2-0.4,0.2-0.7,0.2c-0.3,0-0.5-0.1-0.7-0.2C63.2,95.1,63.1,94.8,63.1,94.6z M64.8,104.4h-1.7v-7.8
		h1.7V104.4z"/>
	<path class="st4" d="M69.8,104.5c-1,0-1.7-0.4-2.3-1.1c-0.5-0.7-0.8-1.7-0.8-3c0-1.3,0.3-2.3,0.8-3c0.5-0.7,1.3-1.1,2.3-1.1
		c1,0,1.8,0.4,2.3,1.1h0.1c-0.1-0.6-0.1-1-0.1-1.3v-2.8h1.7v10.9h-1.3l-0.3-1h-0.1C71.6,104.2,70.8,104.5,69.8,104.5z M70.3,103.2
		c0.7,0,1.2-0.2,1.5-0.6c0.3-0.4,0.5-1,0.5-1.9v-0.2c0-1-0.2-1.7-0.5-2.1c-0.3-0.4-0.8-0.6-1.5-0.6c-0.6,0-1,0.2-1.3,0.7
		c-0.3,0.5-0.5,1.1-0.5,2c0,0.9,0.2,1.5,0.5,2C69.2,103,69.7,103.2,70.3,103.2z"/>
</g>
</svg>
