<?xml version="1.0" encoding="utf-8"?>
<!-- Generator: Adobe Illustrator 21.0.0, SVG Export Plug-In . SVG Version: 6.00 Build 0)  -->
<svg version="1.1" id="Layer_1" xmlns="http://www.w3.org/2000/svg" width="100" height="100" xmlns:xlink="http://www.w3.org/1999/xlink" x="0px" y="0px"
	 viewBox="0 0 120 120" style="enable-background:new 0 0 120 120;" xml:space="preserve">
<style type="text/css">
	.st0{display:none;}
	.st1{display:inline;fill:#1089EF;}
	.st2{fill:#E1E1E1;}
	.st3{fill:#888888;}
	.st4{fill:#222222;}
</style>
<g class="st0">
	<rect id="Background" x="6.1" y="4.9" class="st1" width="107.8" height="23.8"/>
</g>
<g class="st0">
	<path class="st1" d="M39.8,93c-1,0-1.7,0.3-2.3,1c-0.6,0.7-0.8,1.6-0.8,2.8c0,1.3,0.3,2.2,0.8,2.9c0.5,0.6,1.3,1,2.3,1
		c0.4,0,0.9,0,1.3-0.1c0.4-0.1,0.8-0.2,1.3-0.3v1.4c-0.8,0.3-1.7,0.5-2.7,0.5c-1.5,0-2.7-0.5-3.5-1.4c-0.8-0.9-1.2-2.2-1.2-3.9
		c0-1.1,0.2-2,0.6-2.8s1-1.4,1.7-1.8c0.7-0.4,1.6-0.6,2.6-0.6c1,0,2,0.2,2.9,0.7l-0.6,1.4c-0.3-0.2-0.7-0.3-1.1-0.4
		C40.7,93.1,40.2,93,39.8,93z"/>
	<path class="st1" d="M49.3,102l-0.3-1.1h-0.1c-0.4,0.5-0.8,0.8-1.1,1c-0.4,0.2-0.9,0.3-1.5,0.3c-0.8,0-1.4-0.2-1.8-0.6
		c-0.4-0.4-0.6-1-0.6-1.8c0-0.8,0.3-1.4,0.9-1.8c0.6-0.4,1.5-0.6,2.7-0.7l1.3,0v-0.4c0-0.5-0.1-0.9-0.3-1.1
		c-0.2-0.2-0.6-0.4-1.1-0.4c-0.4,0-0.8,0.1-1.1,0.2c-0.4,0.1-0.7,0.3-1.1,0.4l-0.5-1.2c0.4-0.2,0.9-0.4,1.4-0.5
		c0.5-0.1,1-0.2,1.4-0.2c1,0,1.7,0.2,2.2,0.6c0.5,0.4,0.8,1.1,0.8,2v5.2H49.3z M46.8,100.9c0.6,0,1.1-0.2,1.4-0.5
		c0.4-0.3,0.5-0.8,0.5-1.4v-0.7l-1,0c-0.8,0-1.3,0.2-1.7,0.4c-0.4,0.2-0.5,0.6-0.5,1.1c0,0.3,0.1,0.6,0.3,0.8
		C46.1,100.8,46.4,100.9,46.8,100.9z"/>
	<path class="st1" d="M56.7,94.1c0.3,0,0.6,0,0.8,0.1l-0.2,1.5c-0.2-0.1-0.5-0.1-0.7-0.1c-0.7,0-1.2,0.2-1.6,0.6
		c-0.4,0.4-0.6,1-0.6,1.7v4.1h-1.7v-7.8H54l0.2,1.4h0.1c0.3-0.5,0.6-0.8,1-1.1C55.8,94.2,56.2,94.1,56.7,94.1z"/>
	<path class="st1" d="M64.4,102l-0.2-1h-0.1c-0.2,0.4-0.6,0.6-1,0.9c-0.4,0.2-0.9,0.3-1.5,0.3c-0.9,0-1.6-0.2-2.1-0.7
		s-0.7-1.2-0.7-2.1v-5.1h1.7V99c0,0.6,0.1,1,0.4,1.3s0.6,0.4,1.1,0.4c0.7,0,1.2-0.2,1.5-0.6c0.3-0.4,0.5-1.1,0.5-2.1v-3.9h1.7v7.8
		H64.4z"/>
	<path class="st1" d="M73.3,99.8c0,0.8-0.3,1.3-0.8,1.7c-0.6,0.4-1.3,0.6-2.4,0.6c-1,0-1.9-0.2-2.5-0.5v-1.4
		c0.9,0.4,1.8,0.6,2.5,0.6c1,0,1.5-0.3,1.5-0.9c0-0.2-0.1-0.4-0.2-0.5c-0.1-0.1-0.3-0.3-0.6-0.4s-0.6-0.3-1.1-0.5
		c-0.9-0.3-1.5-0.7-1.8-1c-0.3-0.3-0.5-0.8-0.5-1.3c0-0.7,0.3-1.2,0.8-1.5c0.5-0.4,1.3-0.6,2.2-0.6c0.9,0,1.8,0.2,2.6,0.6l-0.5,1.2
		c-0.8-0.3-1.5-0.5-2.1-0.5c-0.9,0-1.3,0.2-1.3,0.7c0,0.2,0.1,0.5,0.3,0.6c0.2,0.2,0.7,0.4,1.5,0.7c0.6,0.2,1.1,0.5,1.4,0.7
		c0.3,0.2,0.5,0.4,0.6,0.7C73.3,99.1,73.3,99.4,73.3,99.8z"/>
	<path class="st1" d="M78.5,102.1c-1.2,0-2.2-0.4-2.8-1.1c-0.7-0.7-1-1.7-1-2.9c0-1.3,0.3-2.3,1-3s1.5-1.1,2.6-1.1
		c1,0,1.8,0.3,2.4,0.9s0.9,1.5,0.9,2.6v0.9h-5.2c0,0.8,0.2,1.3,0.6,1.7c0.4,0.4,0.9,0.6,1.6,0.6c0.5,0,0.9,0,1.3-0.1
		c0.4-0.1,0.8-0.2,1.3-0.4v1.3c-0.4,0.2-0.8,0.3-1.2,0.4S79,102.1,78.5,102.1z M78.2,95.3c-0.5,0-0.9,0.2-1.3,0.5
		c-0.3,0.3-0.5,0.8-0.6,1.5h3.5c0-0.6-0.2-1.1-0.5-1.5C79.1,95.5,78.7,95.3,78.2,95.3z"/>
	<path class="st1" d="M85.1,102h-1.7V91.1h1.7V102z"/>
</g>
<g>
	<g>
		<rect x="14.4" y="37" class="st2" width="19.9" height="21.2"/>
		<rect x="14.4" y="59" class="st2" width="9.6" height="0.8"/>
		<rect x="14.4" y="60.3" class="st2" width="14.8" height="0.8"/>
		<rect x="32.4" y="59" class="st2" width="1.9" height="1.9"/>
		<path class="st3" d="M26.3,45.7v3.7h-3.8v-3.7H26.3 M26.3,45.2h-3.8c-0.3,0-0.5,0.3-0.5,0.5v3.7c0,0.3,0.3,0.5,0.5,0.5h3.7
			c0.3,0,0.6-0.3,0.6-0.5v-3.7C26.8,45.4,26.6,45.2,26.3,45.2z M25,47.6l-0.8,1.1l-0.6-0.6l-0.8,1.1H26C26,48.9,25,47.6,25,47.6z"/>
	</g>
	<g>
		<rect x="38.2" y="37" class="st2" width="19.9" height="21.2"/>
		<rect x="38.2" y="59" class="st2" width="9.6" height="0.8"/>
		<rect x="38.2" y="60.3" class="st2" width="14.8" height="0.8"/>
		<rect x="56.1" y="59" class="st2" width="1.9" height="1.9"/>
		<path class="st3" d="M50.1,45.7v3.7h-3.7v-3.7H50.1 M50.1,45.2h-3.7c-0.3,0-0.5,0.3-0.5,0.5v3.7c0,0.3,0.3,0.5,0.5,0.5h3.7
			c0.3,0,0.5-0.3,0.5-0.5v-3.7C50.5,45.5,50.4,45.2,50.1,45.2z M48.8,47.6L48,48.7l-0.6-0.6l-0.8,1h3.2
			C49.7,48.9,48.8,47.6,48.8,47.6z"/>
	</g>
	<g>
		<rect x="61.9" y="37" class="st2" width="19.9" height="21.2"/>
		<rect x="61.9" y="59" class="st2" width="9.6" height="0.8"/>
		<rect x="61.9" y="60.3" class="st2" width="14.8" height="0.8"/>
		<rect x="79.9" y="59" class="st2" width="1.9" height="1.9"/>
		<path class="st3" d="M73.8,45.7v3.7h-3.7v-3.7H73.8 M73.8,45.2h-3.7c-0.3,0-0.5,0.3-0.5,0.5v3.7c0,0.3,0.3,0.5,0.5,0.5h3.7
			c0.3,0,0.5-0.3,0.5-0.5v-3.7C74.3,45.5,74.1,45.2,73.8,45.2z M72.5,47.6l-0.8,1.1l-0.6-0.6l-0.8,1.1h3.2
			C73.5,48.9,72.5,47.6,72.5,47.6z"/>
	</g>
	<g>
		<rect x="85.7" y="37" class="st2" width="19.9" height="21.2"/>
		<rect x="85.7" y="59" class="st2" width="9.6" height="0.8"/>
		<rect x="85.7" y="60.3" class="st2" width="14.8" height="0.8"/>
		<rect x="103.6" y="59" class="st2" width="1.9" height="1.9"/>
		<path class="st3" d="M97.5,45.7v3.7h-3.7v-3.7H97.5 M97.5,45.2h-3.7c-0.3,0-0.5,0.3-0.5,0.5v3.7c0,0.3,0.3,0.5,0.5,0.5h3.7
			c0.3,0,0.5-0.3,0.5-0.5v-3.7C98,45.5,97.9,45.2,97.5,45.2z M96.3,47.6l-0.8,1.1l-0.6-0.6L94,49.2h3.2
			C97.2,48.9,96.3,47.6,96.3,47.6z"/>
	</g>
</g>
<g id="Arrows">
	<g>
		<polygon class="st2" points="113.9,49 110.4,45.5 109.7,46.2 112.5,49 109.7,51.9 110.4,52.5 113.9,49 113.9,49 		"/>
	</g>
	<g>
		<polygon class="st2" points="6.1,49 9.6,45.5 10.3,46.2 7.5,49 10.3,51.9 9.6,52.5 6.1,49 6.1,49 		"/>
	</g>
</g>
<g>
	<path class="st4" d="M36.4,92.9c0.4,0,0.9,0.1,1.2,0.2c0.4,0.1,0.8,0.3,1.1,0.4l0.6-1.4c-0.9-0.5-1.9-0.7-3-0.7
		c-1,0-1.9,0.2-2.7,0.7C33,92.6,32.4,93.2,32,94c-0.4,0.8-0.6,1.8-0.6,2.9c0,1.7,0.4,3.1,1.2,4c0.8,0.9,2,1.4,3.5,1.4
		c1,0,2-0.2,2.8-0.5v-1.5c-0.5,0.1-0.9,0.3-1.3,0.3c-0.4,0.1-0.8,0.1-1.3,0.1c-1,0-1.8-0.3-2.4-1c-0.5-0.7-0.8-1.6-0.8-2.9
		c0-1.2,0.3-2.2,0.8-2.9C34.6,93.3,35.4,92.9,36.4,92.9z"/>
	<path class="st4" d="M44.2,94c-0.5,0-0.9,0.1-1.5,0.2c-0.5,0.1-1,0.3-1.4,0.5l0.5,1.2c0.3-0.2,0.7-0.3,1.1-0.4
		c0.4-0.1,0.8-0.2,1.2-0.2c0.5,0,0.9,0.1,1.1,0.4c0.2,0.3,0.4,0.6,0.4,1.1v0.4l-1.4,0c-1.2,0-2.2,0.3-2.8,0.7
		c-0.6,0.4-0.9,1-0.9,1.9c0,0.8,0.2,1.4,0.7,1.8c0.4,0.4,1,0.6,1.8,0.6c0.6,0,1.1-0.1,1.5-0.3c0.4-0.2,0.8-0.5,1.2-1h0.1l0.3,1.1
		h1.2v-5.4c0-0.9-0.3-1.6-0.8-2.1C45.9,94.2,45.2,94,44.2,94z M45.5,99c0,0.6-0.2,1.1-0.6,1.4c-0.4,0.3-0.9,0.5-1.5,0.5
		c-0.4,0-0.7-0.1-0.9-0.3c-0.2-0.2-0.3-0.5-0.3-0.8c0-0.5,0.2-0.9,0.5-1.1c0.4-0.2,0.9-0.4,1.7-0.4l1,0V99z"/>
	<path class="st4" d="M52.3,94.4c-0.4,0.3-0.8,0.7-1,1.1h-0.1l-0.2-1.4h-1.3v7.9h1.7V98c0-0.7,0.2-1.3,0.6-1.7
		c0.4-0.4,1-0.7,1.6-0.7c0.3,0,0.5,0,0.7,0.1l0.2-1.6c-0.2,0-0.5-0.1-0.8-0.1C53.1,94,52.7,94.2,52.3,94.4z"/>
	<path class="st4" d="M59.2,94c-1.2,0-2.1,0.4-2.8,1.1c-0.7,0.7-1,1.7-1,3c0,0.8,0.2,1.6,0.5,2.2c0.3,0.6,0.7,1.1,1.3,1.4
		c0.6,0.3,1.2,0.5,2,0.5c1.2,0,2.1-0.4,2.8-1.1c0.7-0.7,1-1.7,1-3c0-1.3-0.3-2.3-1-3C61.3,94.4,60.4,94,59.2,94z M59.2,100.9
		c-1.4,0-2-0.9-2-2.8c0-0.9,0.2-1.5,0.5-2c0.3-0.5,0.8-0.7,1.5-0.7c1.4,0,2,0.9,2,2.7C61.2,100,60.6,100.9,59.2,100.9z"/>
	<path class="st4" d="M70.2,98.1c0,1-0.2,1.7-0.5,2.1c-0.3,0.4-0.9,0.6-1.6,0.6c-0.5,0-0.9-0.2-1.2-0.5c-0.2-0.3-0.4-0.8-0.4-1.4
		v-4.9h-1.7v5.2c0,1,0.2,1.7,0.7,2.2c0.5,0.5,1.2,0.7,2.2,0.7c0.6,0,1-0.1,1.5-0.3c0.4-0.2,0.8-0.5,1-0.9h0.1l0.2,1h1.3v-7.9h-1.7
		V98.1z"/>
	<path class="st4" d="M78.7,98.1c-0.3-0.2-0.8-0.4-1.4-0.7c-0.8-0.3-1.3-0.5-1.5-0.7c-0.2-0.2-0.3-0.4-0.3-0.6
		c0-0.5,0.4-0.8,1.3-0.8c0.6,0,1.3,0.2,2.2,0.5l0.5-1.3c-0.8-0.4-1.7-0.6-2.7-0.6c-0.9,0-1.7,0.2-2.2,0.6c-0.5,0.4-0.8,0.9-0.8,1.6
		c0,0.6,0.2,1,0.5,1.4c0.3,0.4,0.9,0.7,1.9,1.1c0.5,0.2,0.8,0.3,1.1,0.5c0.3,0.1,0.5,0.3,0.6,0.4c0.1,0.1,0.2,0.3,0.2,0.5
		c0,0.6-0.5,0.9-1.6,0.9c-0.8,0-1.7-0.2-2.6-0.6v1.5c0.6,0.3,1.5,0.5,2.5,0.5c1.1,0,1.9-0.2,2.4-0.6c0.6-0.4,0.8-1,0.8-1.8
		c0-0.4-0.1-0.7-0.2-1C79.2,98.6,79,98.3,78.7,98.1z"/>
	<path class="st4" d="M84.6,94c-1.1,0-2,0.4-2.7,1.1c-0.6,0.7-1,1.8-1,3.1c0,1.3,0.3,2.3,1,3c0.7,0.7,1.7,1.1,2.9,1.1
		c0.5,0,1,0,1.4-0.1c0.4-0.1,0.8-0.2,1.3-0.4v-1.4c-0.5,0.2-0.9,0.4-1.3,0.4c-0.4,0.1-0.8,0.1-1.3,0.1c-0.7,0-1.3-0.2-1.7-0.6
		c-0.4-0.4-0.6-1-0.6-1.8H88v-0.9c0-1.1-0.3-2-0.9-2.6C86.5,94.3,85.6,94,84.6,94z M82.7,97.3c0.1-0.6,0.3-1.1,0.6-1.5
		s0.8-0.5,1.3-0.5c0.5,0,1,0.2,1.3,0.5s0.5,0.8,0.5,1.5H82.7z"/>
	<rect x="89.9" y="90.9" class="st4" width="1.7" height="11.2"/>
</g>
</svg>
