<?xml version="1.0" encoding="utf-8"?>
<!-- Generator: Adobe Illustrator 21.0.0, SVG Export Plug-In . SVG Version: 6.00 Build 0)  -->
<svg version="1.1" id="Layer_1" xmlns="http://www.w3.org/2000/svg" width="100" height="100" xmlns:xlink="http://www.w3.org/1999/xlink" x="0px" y="0px"
	 viewBox="0 0 120 120" style="enable-background:new 0 0 120 120;" xml:space="preserve">
<style type="text/css">
	.st0{display:none;}
	.st1{display:inline;fill:#1089EF;}
	.st2{fill:#E1E1E1;}
	.st3{fill:#888888;}
	.st4{fill:#222222;}
</style>
<g class="st0">
	<rect id="Background" x="6.0999999" y="4.9000001" class="st1" width="107.8000031" height="23.7999992"/>
</g>
<g class="st0">
	<path class="st1" d="M39.7999992,93c-1,0-1.7000008,0.3000031-2.2999992,1s-0.7999992,1.5999985-0.7999992,2.8000031
		C36.7000008,98.1000061,37,99,37.5,99.7000046c0.5,0.5999985,1.2999992,1,2.2999992,1c0.4000015,0,0.9000015,0,1.2999992-0.0999985
		c0.4000015-0.0999985,0.7999992-0.1999969,1.2999992-0.3000031v1.4000015c-0.7999992,0.3000031-1.7000008,0.5-2.7000008,0.5
		c-1.5,0-2.7000008-0.5-3.5-1.4000015s-1.2000008-2.1999969-1.2000008-3.9000015c0-1.0999985,0.2000008-2,0.5999985-2.8000031
		s1-1.4000015,1.7000008-1.8000031s1.5999985-0.5999985,2.5999985-0.5999985s2,0.1999969,2.9000015,0.6999969l-0.5999985,1.4000015
		c-0.2999992-0.1999969-0.7000008-0.3000031-1.0999985-0.4000015C40.7000008,93.0999985,40.2000008,93,39.7999992,93z"/>
	<path class="st1" d="M49.2999992,102L49,100.9000015h-0.0999985c-0.4000015,0.5-0.7999992,0.8000031-1.0999985,1
		c-0.4000015,0.1999969-0.9000015,0.3000031-1.5,0.3000031c-0.7999992,0-1.4000015-0.1999969-1.7999992-0.5999985
		c-0.4000015-0.4000015-0.5999985-1-0.5999985-1.8000031S44.2000046,98.4000015,44.8000069,98
		c0.5999985-0.4000015,1.5-0.5999985,2.7000008-0.6999969h1.2999992v-0.4000015c0-0.5-0.0999985-0.9000015-0.2999992-1.0999985
		s-0.5999985-0.4000015-1.0999985-0.4000015c-0.4000015,0-0.7999992,0.0999985-1.0999985,0.1999969
		C45.9000092,95.6999969,45.6000099,95.9000015,45.2000122,96l-0.5-1.1999969
		c0.4000015-0.1999969,0.9000015-0.4000015,1.4000015-0.5s1-0.1999969,1.4000015-0.1999969
		c1,0,1.7000008,0.1999969,2.2000008,0.5999985s0.7999992,1.0999985,0.7999992,2v5.1999969h-1.200016V102z M46.7999992,100.9000015
		c0.5999985,0,1.0999985-0.1999969,1.4000015-0.5c0.4000015-0.3000031,0.5-0.8000031,0.5-1.4000015v-0.6999969h-1
		C46.9000015,98.3000031,46.4000015,98.5,46,98.7000046c-0.4000015,0.1999969-0.5,0.5999985-0.5,1.0999985
		c0,0.3000031,0.0999985,0.5999985,0.2999992,0.8000031C46.0999985,100.8000031,46.4000015,100.9000015,46.7999992,100.9000015z"/>
	<path class="st1" d="M56.7000008,94.0999985c0.2999992,0,0.5999985,0,0.7999992,0.0999985l-0.2000008,1.5
		c-0.2000008-0.0999985-0.5-0.0999985-0.7000008-0.0999985c-0.7000008,0-1.2000008,0.1999969-1.5999985,0.5999985
		c-0.4000015,0.4000015-0.5999985,1-0.5999985,1.6999969v4.0999985h-1.7000008v-7.8000031H54l0.2000008,1.4000015h0.0999985
		c0.2999992-0.5,0.5999985-0.8000031,1-1.0999985C55.7999992,94.1999969,56.2000008,94.0999985,56.7000008,94.0999985z"/>
	<path class="st1" d="M64.4000015,102l-0.1999969-1h-0.0999985c-0.2000008,0.4000015-0.5999985,0.5999985-1,0.9000015
		c-0.4000015,0.1999969-0.9000015,0.3000031-1.5,0.3000031c-0.9000015,0-1.5999985-0.1999969-2.0999985-0.6999969
		s-0.7000008-1.1999969-0.7000008-2.0999985v-5.0999985h1.7000008V99c0,0.5999985,0.0999985,1,0.4000015,1.3000031
		s0.5999985,0.4000015,1.0999985,0.4000015c0.7000008,0,1.2000008-0.1999969,1.5-0.5999985s0.5-1.0999985,0.5-2.0999985v-3.9000015
		h1.6999969v7.8000031h-1.3000031V102z"/>
	<path class="st1" d="M73.3000031,99.8000031C73.3000031,100.6000061,73,101.1000061,72.5,101.5
		c-0.5999985,0.4000015-1.3000031,0.5999985-2.4000015,0.5999985c-1,0-1.9000015-0.1999969-2.5-0.5v-1.4000015
		c0.9000015,0.4000015,1.8000031,0.5999985,2.5,0.5999985c1,0,1.5-0.3000031,1.5-0.9000015
		c0-0.1999969-0.0999985-0.4000015-0.1999969-0.5s-0.3000031-0.3000031-0.5999985-0.4000015s-0.5999985-0.3000031-1.0999985-0.5
		c-0.9000015-0.3000031-1.5-0.6999969-1.8000031-1s-0.5-0.8000031-0.5-1.3000031c0-0.6999969,0.3000031-1.1999969,0.8000031-1.5
		c0.5-0.4000015,1.3000031-0.5999985,2.1999969-0.5999985c0.9000015,0,1.8000031,0.1999969,2.5999985,0.5999985l-0.5,1.1999969
		c-0.8000031-0.3000031-1.5-0.5-2.0999985-0.5c-0.9000015,0-1.3000031,0.1999969-1.3000031,0.6999969
		c0,0.1999969,0.0999985,0.5,0.3000031,0.5999985c0.1999969,0.1999969,0.6999969,0.4000015,1.5,0.6999969
		C71.5,97.5999756,72,97.8999786,72.3000031,98.0999756s0.5,0.4000015,0.5999985,0.6999969
		C73.3000031,99.0999985,73.3000031,99.4000015,73.3000031,99.8000031z"/>
	<path class="st1" d="M78.5,102.0999985c-1.1999969,0-2.1999969-0.4000015-2.8000031-1.0999985
		c-0.6999969-0.6999969-1-1.6999969-1-2.9000015c0-1.3000031,0.3000031-2.3000031,1-3S77.1999969,94,78.2999954,94
		c1,0,1.8000031,0.3000031,2.4000015,0.9000015s0.9000015,1.5,0.9000015,2.5999985v0.9000015h-5.1999969
		c0,0.8000031,0.1999969,1.3000031,0.5999985,1.6999969c0.4000015,0.4000015,0.9000015,0.5999985,1.5999985,0.5999985
		c0.5,0,0.9000015,0,1.3000031-0.0999985s0.8000031-0.1999969,1.3000031-0.4000015V101.5
		c-0.4000015,0.1999969-0.8000031,0.3000031-1.1999969,0.4000015S79,102.0999985,78.5,102.0999985z M78.1999969,95.3000031
		c-0.5,0-0.9000015,0.1999969-1.3000031,0.5c-0.3000031,0.3000031-0.5,0.8000031-0.5999985,1.5h3.5
		c0-0.5999985-0.1999969-1.0999985-0.5-1.5C79.0999985,95.5,78.6999969,95.3000031,78.1999969,95.3000031z"/>
	<path class="st1" d="M85.0999985,102h-1.6999969V91.0999985h1.6999969V102z"/>
</g>
<g>
	<g>
		<rect x="10.3999996" y="12.375" class="st2" width="19.8999996" height="21.2000008"/>
		<rect x="33.3499985" y="16.4694901" class="st2" width="38.2750015" height="1.9000894"/>
		<rect x="33.3499985" y="21.3695793" class="st2" width="8.5666676" height="1.9000894"/>
		<path class="st3" d="M22.2999992,21.0750008v3.7000008H18.5v-3.7000008H22.2999992 M22.2999992,20.5750008H18.5
			c-0.2999992,0-0.5,0.2999992-0.5,0.5v3.7000008c0,0.2999992,0.2999992,0.5,0.5,0.5h3.7000008
			c0.2999992,0,0.6000004-0.2999992,0.6000004-0.5v-3.7000008C22.7999992,20.7750015,22.6000004,20.5750008,22.2999992,20.5750008z
			 M21,22.9749985l-0.7999992,1.0999985l-0.6000004-0.5999985l-0.7999992,1.0999985H22C22,24.2750015,21,22.9749985,21,22.9749985z"
			/>
	</g>
	<g>
		<rect x="10.3999996" y="37.375" class="st2" width="19.8999996" height="21.2000008"/>
		<rect x="33.3499985" y="41.4694901" class="st2" width="38.2750015" height="1.9000894"/>
		<rect x="33.3499985" y="46.3695793" class="st2" width="8.5666676" height="1.9000894"/>
		<path class="st3" d="M22.2999992,46.0750008v3.7000008H18.5v-3.7000008H22.2999992 M22.2999992,45.5750008H18.5
			c-0.2999992,0-0.5,0.2999992-0.5,0.5v3.7000008c0,0.2999992,0.2999992,0.5,0.5,0.5h3.7000008
			c0.2999992,0,0.6000004-0.2999992,0.6000004-0.5v-3.7000008C22.7999992,45.7750015,22.6000004,45.5750008,22.2999992,45.5750008z
			 M21,47.9749985l-0.7999992,1.0999985l-0.6000004-0.5999985l-0.7999992,1.0999985H22C22,49.2750015,21,47.9749985,21,47.9749985z"
			/>
	</g>
	<g>
		<rect x="10.3999996" y="62.7196236" class="st2" width="19.8999996" height="21.2000008"/>
		<rect x="33.3499985" y="66.8141174" class="st2" width="38.2750015" height="1.9000894"/>
		<rect x="33.3499985" y="71.7142029" class="st2" width="8.5666676" height="1.9000894"/>
		<path class="st3" d="M22.2999992,71.4196243v3.7000046H18.5v-3.7000046H22.2999992 M22.2999992,70.9196243H18.5
			c-0.2999992,0-0.5,0.3000031-0.5,0.5v3.7000046c0,0.2999954,0.2999992,0.5,0.5,0.5h3.7000008
			c0.2999992,0,0.6000004-0.3000031,0.6000004-0.5v-3.7000046C22.7999992,71.1196289,22.6000004,70.9196243,22.2999992,70.9196243z
			 M21,73.3196259l-0.7999992,1.0999985l-0.6000004-0.5999985l-0.7999992,1.0999985H22C22,74.6196289,21,73.3196259,21,73.3196259z"
			/>
	</g>
</g>
<g>
	<path class="st4" d="M45.6411133,97.5640564c-0.2783203,1.0791016-0.4541016,1.9677734-0.5273438,2.6660156
		c-0.1904297-1.1572266-0.3710938-2.0263672-0.5419922-2.6074219l-1.7871094-6.2841797h-1.7358398l-1.7431641,6.2548828
		c-0.0878906,0.3173828-0.1855469,0.7324219-0.2929688,1.2451172s-0.1879883,0.9765625-0.2416992,1.3916016
		c-0.1025391-0.7666016-0.2734375-1.6503906-0.5126953-2.6513672l-1.5307617-6.2402344h-1.7871094l1.40625,5.3466797
		l1.3842773,5.3613281h1.9042969l1.7724609-6.3574219c0.0732422-0.2441406,0.1645508-0.6152344,0.2749023-1.1132812
		c0.109375-0.4980469,0.1889648-0.9033203,0.237793-1.2158203c0.0244141,0.2050781,0.0952148,0.5703125,0.2124023,1.0947266
		c0.1171875,0.5253906,0.2148438,0.9267578,0.2929688,1.2050781l1.8164062,6.3867188h1.9042969l2.7905273-10.7080078h-1.7724609
		L45.6411133,97.5640564z"/>
	<rect x="50.2700195" y="93.9458923" class="st4" width="1.7211914" height="8.1005859"/>
	<path class="st4" d="M51.1416016,90.8404236c-0.3125,0-0.5532227,0.0830078-0.7211914,0.2490234
		c-0.1689453,0.1660156-0.2529297,0.4023438-0.2529297,0.7109375c0,0.2929688,0.0839844,0.5234375,0.2529297,0.6914062
		c0.1679688,0.1689453,0.4086914,0.2529297,0.7211914,0.2529297c0.3027344,0,0.5385742-0.0839844,0.706543-0.2529297
		c0.1689453-0.1679688,0.2529297-0.3984375,0.2529297-0.6914062c0-0.3085938-0.0839844-0.5449219-0.2529297-0.7109375
		C51.6801758,90.9234314,51.4443359,90.8404236,51.1416016,90.8404236z"/>
	<path class="st4" d="M59.6083984,93.6011658c0,0.3378906,0.0415039,0.796875,0.1245117,1.3769531h-0.0878906
		c-0.5566406-0.7851562-1.3671875-1.1787109-2.4316406-1.1787109c-1.015625,0-1.8105469,0.3701172-2.3842773,1.109375
		C54.2553711,95.6490173,53.96875,96.683197,53.96875,98.011322c0,1.3232422,0.2832031,2.3505859,0.8496094,3.0830078
		s1.3549805,1.0986328,2.3657227,1.0986328c1.0644531,0,1.8725586-0.4023438,2.4243164-1.2089844h0.0805664l0.300293,1.0625
		h1.3476562V90.6499939h-1.7285156V93.6011658z M59.6889648,98.2671814c-0.0097656,0.8935547-0.1757812,1.5390625-0.4980469,1.9375
		c-0.3222656,0.3974609-0.8374023,0.5966797-1.5454102,0.5966797c-0.6347656,0-1.1108398-0.2353516-1.4282227-0.7070312
		c-0.3173828-0.4707031-0.4760742-1.1552734-0.4760742-2.0537109c0-0.9082031,0.1635742-1.6083984,0.4907227-2.0986328
		c0.3271484-0.4912109,0.793457-0.7363281,1.3989258-0.7363281c0.7080078,0,1.2280273,0.2148438,1.5600586,0.6445312
		s0.4980469,1.1552734,0.4980469,2.1748047V98.2671814z"/>
	<path class="st4" d="M67.265625,93.8472595c-0.2514648-0.0322266-0.4916992-0.0478516-0.7211914-0.0478516
		c-1.0253906,0-1.8154297,0.2412109-2.3696289,0.7255859c-0.5541992,0.4824219-0.8310547,1.1640625-0.8310547,2.0429688
		c0,0.546875,0.1303711,1.0244141,0.3916016,1.4316406c0.2612305,0.4082031,0.6020508,0.7021484,1.0219727,0.8828125
		c-0.3369141,0.2050781-0.5908203,0.4130859-0.7617188,0.6230469s-0.2563477,0.4658203-0.2563477,0.7685547
		c0,0.2392578,0.0742188,0.4677734,0.2236328,0.6845703c0.1484375,0.2177734,0.3378906,0.375,0.5673828,0.4726562
		c-0.5664062,0.1318359-1.0068359,0.3671875-1.3222656,0.7070312c-0.3144531,0.3388672-0.472168,0.7578125-0.472168,1.2558594
		c0,0.7226562,0.2905273,1.2792969,0.871582,1.6699219s1.4233398,0.5859375,2.5268555,0.5859375
		c1.4306641,0,2.5244141-0.2490234,3.28125-0.7470703s1.1352539-1.2060547,1.1352539-2.1240234
		c0-0.7177734-0.2319336-1.2675781-0.6958008-1.6484375s-1.1425781-0.5703125-2.0361328-0.5703125h-1.4135742
		c-0.4638672,0-0.7827148-0.046875-0.9560547-0.1396484s-0.2597656-0.2314453-0.2597656-0.4169922
		c0-0.3085938,0.1855469-0.5761719,0.5566406-0.8066406c0.2099609,0.0400391,0.4443359,0.0585938,0.703125,0.0585938
		c1.0107422,0,1.8041992-0.2382812,2.3803711-0.7167969s0.8642578-1.1357422,0.8642578-1.9707031
		c0-0.2783203-0.0415039-0.5419922-0.1245117-0.7910156s-0.1879883-0.4589844-0.3149414-0.6298828l1.3842773-0.2568359v-0.9443359
		h-2.8051758C67.706543,93.9117126,67.5170898,93.8785095,67.265625,93.8472595z M65.8852539,102.0171814h1.3037109
		c0.6835938,0,1.1508789,0.0742188,1.402832,0.2236328c0.2509766,0.1484375,0.3769531,0.3994141,0.3769531,0.7509766
		c0,0.4433594-0.2294922,0.7998047-0.6884766,1.0683594s-1.1572266,0.4033203-2.0947266,0.4033203
		c-0.6054688,0-1.0756836-0.1005859-1.4101562-0.2998047c-0.3344727-0.2011719-0.5014648-0.4863281-0.5014648-0.8574219
		c0-0.3955078,0.1450195-0.7089844,0.4360352-0.9414062C65,102.1333923,65.3920898,102.0171814,65.8852539,102.0171814z
		 M66.5297852,98.1499939c-0.4882812,0-0.8632812-0.1367188-1.1245117-0.4101562s-0.3916016-0.6640625-0.3916016-1.171875
		c0-0.5419922,0.1279297-0.9541016,0.3847656-1.2382812c0.2558594-0.2822266,0.6333008-0.4238281,1.1313477-0.4238281
		c0.5029297,0,0.8774414,0.1425781,1.1245117,0.4277344c0.2460938,0.2861328,0.3696289,0.6923828,0.3696289,1.2197266
		C68.0239258,97.6177673,67.5258789,98.1499939,66.5297852,98.1499939z"/>
	<path class="st4" d="M75.362793,93.799408c-1.1523438,0-2.0581055,0.3789062-2.7172852,1.1357422
		s-0.9887695,1.796875-0.9887695,3.1191406c0,1.2890625,0.3554688,2.3017578,1.0654297,3.0361328
		c0.7109375,0.7353516,1.6958008,1.1025391,2.9555664,1.1025391c0.5517578,0,1.0424805-0.0419922,1.472168-0.125
		c0.4296875-0.0820312,0.8544922-0.2236328,1.2744141-0.4238281v-1.3994141
		c-0.4736328,0.2099609-0.9169922,0.3603516-1.3291016,0.4501953c-0.4130859,0.0908203-0.8583984,0.1357422-1.3369141,0.1357422
		c-0.7275391,0-1.2915039-0.2109375-1.6918945-0.6337891c-0.4003906-0.421875-0.612793-1.0263672-0.637207-1.8125h5.3979492
		v-0.9296875c0-1.1376953-0.3100586-2.03125-0.9301758-2.6816406C77.2768555,94.1246033,76.4321289,93.799408,75.362793,93.799408z
		 M73.4584961,97.1392517c0.0634766-0.6640625,0.2597656-1.1689453,0.5898438-1.5166016
		c0.3291016-0.3457031,0.7675781-0.5195312,1.3144531-0.5195312s0.9765625,0.171875,1.2890625,0.5166016
		c0.3125,0.34375,0.4736328,0.8505859,0.4833984,1.5195312H73.4584961z"/>
	<path class="st4" d="M83.7998047,100.8013611c-0.3359375,0-0.609375-0.0986328-0.8164062-0.296875
		c-0.2070312-0.1972656-0.3105469-0.5039062-0.3105469-0.9189453v-4.3359375h2.3066406v-1.3037109h-2.3066406v-1.8017578h-1.0625
		l-0.5859375,1.7138672l-1.1865234,0.6298828v0.7617188h1.105957v4.3652344c0,1.71875,0.8154297,2.578125,2.4458008,2.578125
		c0.3222656,0,0.6347656-0.0283203,0.9335938-0.0839844c0.3007812-0.0566406,0.546875-0.1259766,0.7363281-0.2089844v-1.296875
		C84.6396484,100.7359314,84.2197266,100.8013611,83.7998047,100.8013611z"/>
</g>
</svg>
