<?xml version="1.0" encoding="utf-8"?>
<!-- Generator: Adobe Illustrator 21.0.0, SVG Export Plug-In . SVG Version: 6.00 Build 0)  -->
<svg version="1.1" id="Layer_1" xmlns="http://www.w3.org/2000/svg" width="70" height="70" xmlns:xlink="http://www.w3.org/1999/xlink" x="0px" y="0px"
	 viewBox="0 0 50 50" style="enable-background:new 0 0 50 50;" xml:space="preserve">
<style type="text/css">
	.st0{fill:#E1E1E1;}
	.st1{fill:#888888;}
	.st2{fill:#C1C1C1;}
</style>
<g>
	<rect id="Image" x="3" y="2.9" class="st0" width="31.6" height="18.7"/>
	<g id="Icon">
		<path class="st1" d="M22.4,9v6.7h-7.3V9H22.4 M22.4,8h-7.3c-0.5,0-1,0.5-1,0.9v6.7c0,0.5,0.5,0.9,1,0.9h7.3c0.5,0,1-0.5,1-0.9V9
			C23.4,8.5,23.1,8,22.4,8z M20.1,12.2l-1.5,1.9l-1.2-1.2l-1.5,1.9h6.3C21.9,14.7,20.1,12.2,20.1,12.2z"/>
	</g>
	<rect x="3" y="27.8" class="st2" width="23.9" height="1.5"/>
	<rect x="3" y="24.5" class="st2" width="31.6" height="1.5"/>
	<rect x="3" y="32.1" class="st0" width="29.6" height="1.5"/>
	<rect x="36.7" y="2.9" class="st0" width="10.3" height="44.1"/>
	<rect x="3" y="38.8" class="st0" width="27.2" height="1.5"/>
	<rect x="3" y="35.4" class="st0" width="30.9" height="1.5"/>
	<rect x="3" y="45.5" class="st0" width="31.6" height="1.5"/>
	<rect x="3" y="42.2" class="st0" width="31.6" height="1.5"/>
</g>
</svg>
