<?xml version="1.0" encoding="utf-8"?>
<!-- Generator: Adobe Illustrator 21.0.0, SVG Export Plug-In . SVG Version: 6.00 Build 0)  -->
<svg version="1.1" id="Layer_1" xmlns="http://www.w3.org/2000/svg" width="70" height="70" xmlns:xlink="http://www.w3.org/1999/xlink" x="0px" y="0px"
	 viewBox="0 0 50 50" style="enable-background:new 0 0 50 50;" xml:space="preserve">
<style type="text/css">
	.st0{fill:#E1E1E1;}
	.st1{fill:#888888;}
	.st2{fill:#C1C1C1;}
</style>
<g>
	<rect id="Image" x="3" y="10.3" class="st0" width="44" height="22.1"/>
	<g id="Icon">
		<path class="st1" d="M28.6,18.1v6.7h-7.3v-6.7H28.6 M28.6,17.1h-7.3c-0.5,0-1,0.5-1,0.9v6.7c0,0.5,0.5,0.9,1,0.9h7.3
			c0.5,0,1-0.5,1-0.9v-6.7C29.6,17.6,29.3,17.1,28.6,17.1z M26.3,21.3l-1.5,1.9l-1.2-1.2L22,23.8h6.3C28.1,23.8,26.3,21.3,26.3,21.3
			z"/>
	</g>
	<rect x="3" y="6.3" class="st2" width="33.2" height="1.5"/>
	<rect x="3" y="2.9" class="st2" width="44" height="1.5"/>
	<rect x="36.7" y="35.4" class="st0" width="10.3" height="11.6"/>
	<rect x="3" y="38.8" class="st0" width="27.2" height="1.5"/>
	<rect x="3" y="35.4" class="st0" width="30.9" height="1.5"/>
	<rect x="3" y="45.5" class="st0" width="31.6" height="1.5"/>
	<rect x="3" y="42.2" class="st0" width="31.6" height="1.5"/>
</g>
</svg>
