<?xml version="1.0" encoding="utf-8"?>
<!-- Generator: Adobe Illustrator 21.0.0, SVG Export Plug-In . SVG Version: 6.00 Build 0)  -->
<svg version="1.1" id="Layer_1" xmlns="http://www.w3.org/2000/svg" width="70" height="70" xmlns:xlink="http://www.w3.org/1999/xlink" x="0px" y="0px"
	 viewBox="0 0 50 50" style="enable-background:new 0 0 50 50;" xml:space="preserve">
<style type="text/css">
	.st0{fill:#E1E1E1;}
	.st1{fill:#888888;}
	.st2{fill:#C1C1C1;}
</style>
<rect id="Image" y="2.9" class="st0" width="50" height="23"/>
<g id="Icon">
	<path class="st1" d="M28.6,7.4v6.7h-7.3V7.4H28.6 M28.6,6.5h-7.3c-0.5,0-1,0.5-1,0.9v6.7c0,0.5,0.5,0.9,1,0.9h7.3
		c0.5,0,1-0.5,1-0.9V7.4C29.6,7,29.3,6.5,28.6,6.5z M26.3,10.7l-1.5,1.9l-1.2-1.2L22,13.2h6.3C28.1,13.2,26.3,10.7,26.3,10.7z"/>
</g>
<rect x="7.6" y="21.7" class="st2" width="34.9" height="1.5"/>
<rect x="1.9" y="18.3" class="st2" width="46.1" height="1.5"/>
<rect y="32.1" class="st0" width="33.6" height="1.5"/>
<rect y="28.7" class="st0" width="35.9" height="1.5"/>
<rect x="37.9" y="28.7" class="st0" width="12.1" height="11.6"/>
<rect y="38.8" class="st0" width="30.9" height="1.5"/>
<rect y="35.4" class="st0" width="35.1" height="1.5"/>
<rect y="45.5" class="st0" width="50" height="1.5"/>
<rect y="42.2" class="st0" width="50" height="1.5"/>
</svg>
