<?xml version="1.0" encoding="utf-8"?>
<!-- Generator: Adobe Illustrator 21.0.0, SVG Export Plug-In . SVG Version: 6.00 Build 0)  -->
<svg version="1.1" id="Layer_1" xmlns="http://www.w3.org/2000/svg" width="70" height="70" xmlns:xlink="http://www.w3.org/1999/xlink" x="0px" y="0px"
	 viewBox="0 0 50 50" style="enable-background:new 0 0 50 50;" xml:space="preserve">
<style type="text/css">
	.st0{fill:#E1E1E1;}
	.st1{fill:#888888;}
	.st2{fill:#FFFFFF;}
	.st3{fill:#C1C1C1;}
</style>
<rect id="Image" x="3" y="2.9" class="st0" width="44" height="22.1"/>
<g id="Icon">
	<path class="st1" d="M28.6,10.6v6.7h-7.3v-6.7H28.6 M28.6,9.7h-7.3c-0.5,0-1,0.5-1,0.9v6.7c0,0.5,0.5,0.9,1,0.9h7.3
		c0.5,0,1-0.5,1-0.9v-6.7C29.6,10.2,29.3,9.7,28.6,9.7z M26.3,13.9l-1.5,1.9l-1.2-1.2L22,16.4h6.3C28.1,16.4,26.3,13.9,26.3,13.9z"
		/>
</g>
<rect x="5.6" y="19.3" class="st2" width="38.9" height="5.7"/>
<rect x="12" y="25.2" class="st3" width="26.1" height="1.5"/>
<rect x="7.8" y="21.9" class="st3" width="34.5" height="1.5"/>
<rect x="11.4" y="32.7" class="st0" width="27.2" height="1.5"/>
<rect x="9.6" y="29.3" class="st0" width="30.9" height="1.5"/>
<rect x="7.8" y="39.4" class="st0" width="34.5" height="1.5"/>
<rect x="7.8" y="36" class="st0" width="34.5" height="1.5"/>
<rect x="7.8" y="46.1" class="st0" width="34.5" height="1.5"/>
<rect x="7.8" y="42.8" class="st0" width="34.5" height="1.5"/>
</svg>
