<?xml version="1.0" encoding="utf-8"?>
<!-- Generator: Adobe Illustrator 21.0.0, SVG Export Plug-In . SVG Version: 6.00 Build 0)  -->
<svg version="1.1" id="Layer_1" xmlns="http://www.w3.org/2000/svg" width="70" height="70" xmlns:xlink="http://www.w3.org/1999/xlink" x="0px" y="0px"
	 viewBox="0 0 50 50" style="enable-background:new 0 0 50 50;" xml:space="preserve">
<style type="text/css">
	.st0{fill:#C2C1C1;}
	.st1{fill:#E1E2E1;}
	.st2{fill:#888888;}
</style>
<g id="_x31_">
	<rect x="22.5" y="7.2" class="st0" width="7.5" height="1.1"/>
	<rect x="22.5" y="11.9" class="st1" width="21.1" height="1.1"/>
	<rect x="22.5" y="9.6" class="st1" width="24.5" height="1.1"/>
	<rect x="22.5" y="4.9" class="st0" width="24.5" height="1.1"/>
	<rect id="Image" x="3" y="3.2" class="st1" width="17.5" height="11.6"/>
	<g id="Icon">
		<path class="st2" d="M13.6,7.3v3.3H9.9V7.3H13.6 M13.6,6.8H9.9C9.7,6.8,9.4,7,9.4,7.3v3.3c0,0.2,0.3,0.5,0.5,0.5h3.6
			c0.3,0,0.5-0.2,0.5-0.5V7.3C14.1,7,13.9,6.8,13.6,6.8z M12.4,8.9l-0.8,0.9L11,9.2l-0.8,0.9h3.1C13.3,10.1,12.4,8.9,12.4,8.9z"/>
	</g>
</g>
<g id="_x32_">
	<rect x="22.5" y="21.8" class="st0" width="7.5" height="1.1"/>
	<rect x="22.5" y="26.5" class="st1" width="21.1" height="1.1"/>
	<rect x="22.5" y="24.1" class="st1" width="24.5" height="1.1"/>
	<rect x="22.5" y="19.5" class="st0" width="24.5" height="1.1"/>
	<rect id="Image_4_" x="3" y="17.7" class="st1" width="17.5" height="11.6"/>
	<g id="Icon_1_">
		<path class="st2" d="M13.6,21.8v3.3H9.9v-3.3H13.6 M13.6,21.4H9.9c-0.3,0-0.5,0.2-0.5,0.5v3.3c0,0.2,0.3,0.5,0.5,0.5h3.6
			c0.3,0,0.5-0.2,0.5-0.5v-3.3C14.1,21.6,13.9,21.4,13.6,21.4z M12.4,23.5l-0.8,0.9L11,23.8l-0.8,0.9h3.1
			C13.3,24.7,12.4,23.5,12.4,23.5z"/>
	</g>
</g>
<g id="_x33_">
	<rect x="22.5" y="36.4" class="st0" width="7.5" height="1.1"/>
	<rect x="22.5" y="41" class="st1" width="21.1" height="1.1"/>
	<rect x="22.5" y="38.7" class="st1" width="24.5" height="1.1"/>
	<rect x="22.5" y="34" class="st0" width="24.5" height="1.1"/>
	<rect id="Image_3_" x="3" y="32.3" class="st1" width="17.5" height="11.6"/>
	<g id="Icon_3_">
		<path class="st2" d="M13.6,36.4v3.3H9.9v-3.3H13.6 M13.6,35.9H9.9c-0.3,0-0.5,0.2-0.5,0.5v3.3c0,0.2,0.3,0.5,0.5,0.5h3.6
			c0.3,0,0.5-0.2,0.5-0.5v-3.3C14.1,36.2,13.9,35.9,13.6,35.9z M12.4,38L11.6,39L11,38.3l-0.8,0.9h3.1C13.3,39.3,12.4,38,12.4,38z"
			/>
	</g>
</g>
<g id="_x34_">
	<rect x="22.5" y="48.6" class="st0" width="24.5" height="1.1"/>
	<rect id="Image_2_" x="3" y="46.8" class="st1" width="17.5" height="3.2"/>
</g>
</svg>
