<?xml version="1.0" encoding="utf-8"?>
<!-- Generator: Adobe Illustrator 21.0.0, SVG Export Plug-In . SVG Version: 6.00 Build 0)  -->
<svg version="1.1" id="Layer_1" xmlns="http://www.w3.org/2000/svg" width="70" height="70" xmlns:xlink="http://www.w3.org/1999/xlink" x="0px" y="0px"
	 viewBox="0 0 50 50" style="enable-background:new 0 0 50 50;" xml:space="preserve">
<style type="text/css">
	.st0{fill:#E1E1E1;}
	.st1{fill:#888888;}
	.st2{fill:#C1C1C1;}
</style>
<g id="_x31_">
	<rect id="Image" x="3" y="3.2" class="st0" width="21" height="11.6"/>
	<g id="Icon">
		<path class="st1" d="M15.3,7.3v3.3h-3.6V7.3H15.3 M15.3,6.8h-3.6c-0.3,0-0.5,0.2-0.5,0.5v3.3c0,0.2,0.3,0.5,0.5,0.5h3.6
			c0.3,0,0.5-0.2,0.5-0.5V7.3C15.8,7,15.7,6.8,15.3,6.8z M14.1,8.9l-0.8,0.9l-0.6-0.6L12,10.1h3.1C15.1,10.1,14.1,8.9,14.1,8.9z"/>
	</g>
	<rect x="3" y="16.8" class="st2" width="21" height="1.1"/>
	<rect x="3" y="21.4" class="st0" width="14.8" height="1.1"/>
	<rect x="3" y="19.1" class="st0" width="21" height="1.1"/>
</g>
<g id="_x32__1_">
	<rect id="Image_3_" x="26" y="3.2" class="st0" width="21" height="11.6"/>
	<g id="Icon_3_">
		<path class="st1" d="M38.3,7.3v3.3h-3.6V7.3H38.3 M38.3,6.8h-3.6c-0.3,0-0.5,0.2-0.5,0.5v3.3c0,0.2,0.3,0.5,0.5,0.5h3.6
			c0.3,0,0.5-0.2,0.5-0.5V7.3C38.8,7,38.7,6.8,38.3,6.8z M37.1,8.9l-0.8,0.9l-0.6-0.6L35,10.1h3.1C38.1,10.1,37.1,8.9,37.1,8.9z"/>
	</g>
	<rect x="26" y="16.8" class="st2" width="21" height="1.1"/>
	<rect x="26" y="21.4" class="st0" width="14.8" height="1.1"/>
	<rect x="26" y="19.1" class="st0" width="21" height="1.1"/>
</g>
<g id="_x31__1_">
	<rect id="Image_2_" x="3" y="27.5" class="st0" width="21" height="11.6"/>
	<g id="Icon_2_">
		<path class="st1" d="M15.3,31.6V35h-3.6v-3.3H15.3 M15.3,31.1h-3.6c-0.3,0-0.5,0.2-0.5,0.5V35c0,0.2,0.3,0.5,0.5,0.5h3.6
			c0.3,0,0.5-0.2,0.5-0.5v-3.3C15.8,31.4,15.7,31.1,15.3,31.1z M14.1,33.2l-0.8,0.9l-0.6-0.6L12,34.5h3.1
			C15.1,34.5,14.1,33.2,14.1,33.2z"/>
	</g>
	<rect x="3" y="41.1" class="st2" width="21" height="1.1"/>
	<rect x="3" y="45.8" class="st0" width="14.8" height="1.1"/>
	<rect x="3" y="43.4" class="st0" width="21" height="1.1"/>
</g>
<g id="_x32__2_">
	<rect id="Image_1_" x="26" y="27.5" class="st0" width="21" height="11.6"/>
	<g id="Icon_1_">
		<path class="st1" d="M38.3,31.6V35h-3.6v-3.3H38.3 M38.3,31.1h-3.6c-0.3,0-0.5,0.2-0.5,0.5V35c0,0.2,0.3,0.5,0.5,0.5h3.6
			c0.3,0,0.5-0.2,0.5-0.5v-3.3C38.8,31.4,38.7,31.1,38.3,31.1z M37.1,33.2l-0.8,0.9l-0.6-0.6L35,34.5h3.1
			C38.1,34.5,37.1,33.2,37.1,33.2z"/>
	</g>
	<rect x="26" y="41.1" class="st2" width="21" height="1.1"/>
	<rect x="26" y="45.8" class="st0" width="14.8" height="1.1"/>
	<rect x="26" y="43.4" class="st0" width="21" height="1.1"/>
</g>
</svg>
