<?xml version="1.0" encoding="utf-8"?>
<!-- Generator: Adobe Illustrator 21.0.0, SVG Export Plug-In . SVG Version: 6.00 Build 0)  -->
<svg version="1.1" id="Layer_1" xmlns="http://www.w3.org/2000/svg" width="70" height="70" xmlns:xlink="http://www.w3.org/1999/xlink" x="0px" y="0px"
	 viewBox="0 0 50 50" style="enable-background:new 0 0 50 50;" xml:space="preserve">
<style type="text/css">
	.st0{fill:#E1E1E1;}
	.st1{fill:#888888;}
	.st2{fill:#C1C1C1;}
</style>
<g id="_x31_">
	<rect id="Image" x="3" y="2.7" class="st0" width="21" height="11.6"/>
	<g id="Icon">
		<path class="st1" d="M15.3,6.8v3.3h-3.6V6.8H15.3 M15.3,6.3h-3.6c-0.3,0-0.5,0.2-0.5,0.5v3.3c0,0.2,0.3,0.5,0.5,0.5h3.6
			c0.3,0,0.5-0.2,0.5-0.5V6.8C15.8,6.5,15.7,6.3,15.3,6.3z M14.1,8.4l-0.8,0.9l-0.6-0.6L12,9.6h3.1C15.1,9.6,14.1,8.4,14.1,8.4z"/>
	</g>
	<rect x="26" y="6.6" class="st2" width="15.9" height="1.1"/>
	<rect x="26" y="4.3" class="st2" width="21" height="1.1"/>
	<rect x="26" y="11.6" class="st0" width="14.8" height="1.1"/>
	<rect x="26" y="9.2" class="st0" width="21" height="1.1"/>
</g>
<g id="_x32_">
	<rect id="Image_2_" x="26" y="19.2" class="st0" width="21" height="11.6"/>
	<g id="Icon_1_">
		<path class="st1" d="M38.3,23.3v3.3h-3.6v-3.3H38.3 M38.3,22.9h-3.6c-0.3,0-0.5,0.2-0.5,0.5v3.3c0,0.2,0.3,0.5,0.5,0.5h3.6
			c0.3,0,0.5-0.2,0.5-0.5v-3.3C38.8,23.1,38.7,22.9,38.3,22.9z M37.1,25l-0.8,0.9l-0.6-0.6L35,26.2h3.1C38.1,26.2,37.1,25,37.1,25z"
			/>
	</g>
	<rect x="3" y="23.2" class="st2" width="15.9" height="1.1"/>
	<rect x="3" y="20.8" class="st2" width="21" height="1.1"/>
	<rect x="3" y="28.1" class="st0" width="14.8" height="1.1"/>
	<rect x="3" y="25.8" class="st0" width="21" height="1.1"/>
</g>
<g id="_x33_">
	<rect id="Image_1_" x="3" y="35.8" class="st0" width="21" height="11.6"/>
	<g id="Icon_2_">
		<path class="st1" d="M15.3,39.9v3.3h-3.6v-3.3H15.3 M15.3,39.4h-3.6c-0.3,0-0.5,0.2-0.5,0.5v3.3c0,0.2,0.3,0.5,0.5,0.5h3.6
			c0.3,0,0.5-0.2,0.5-0.5v-3.3C15.8,39.7,15.7,39.4,15.3,39.4z M14.1,41.5l-0.8,0.9l-0.6-0.6L12,42.8h3.1
			C15.1,42.8,14.1,41.5,14.1,41.5z"/>
	</g>
	<rect x="26" y="39.7" class="st2" width="15.9" height="1.1"/>
	<rect x="26" y="37.4" class="st2" width="21" height="1.1"/>
	<rect x="26" y="44.7" class="st0" width="14.8" height="1.1"/>
	<rect x="26" y="42.4" class="st0" width="21" height="1.1"/>
</g>
</svg>
