<?xml version="1.0" encoding="utf-8"?>
<!-- Generator: Adobe Illustrator 21.0.0, SVG Export Plug-In . SVG Version: 6.00 Build 0)  -->
<svg version="1.1" id="Layer_1" xmlns="http://www.w3.org/2000/svg" width="70" height="70" xmlns:xlink="http://www.w3.org/1999/xlink" x="0px" y="0px"
	 viewBox="0 0 50 50" style="enable-background:new 0 0 50 50;" xml:space="preserve">
<style type="text/css">
	.st0{fill:#E1E1E1;}
	.st1{fill:#FFFFFF;}
	.st2{fill:#C1C1C1;}
	.st3{fill:#888888;}
</style>
<g id="_x31__1_">
	<rect id="Image_5_" x="3" y="3.2" class="st0" width="21" height="17"/>
	<rect x="3.7" y="12.6" class="st1" width="19.6" height="6.9"/>
	<g>
		<rect x="4.6" y="13.6" class="st2" width="17.8" height="0.9"/>
		<rect x="4.6" y="17.5" class="st0" width="12.6" height="0.9"/>
		<rect x="4.6" y="15.6" class="st0" width="17.8" height="0.9"/>
	</g>
	<g id="Icon_5_">
		<path class="st3" d="M15.3,7.3v3.3h-3.6V7.3H15.3 M15.3,6.8h-3.6c-0.3,0-0.5,0.2-0.5,0.5v3.3c0,0.2,0.3,0.5,0.5,0.5h3.6
			c0.3,0,0.5-0.2,0.5-0.5V7.3C15.8,7,15.7,6.8,15.3,6.8z M14.1,8.9l-0.8,0.9l-0.6-0.6L12,10.1h3.1C15.1,10.1,14.1,8.9,14.1,8.9z"/>
	</g>
</g>
<g id="_x32_">
	<rect id="Image_2_" x="26" y="3.2" class="st0" width="21" height="17"/>
	<rect x="26.7" y="12.6" class="st1" width="19.6" height="6.9"/>
	<g>
		<rect x="27.6" y="13.6" class="st2" width="17.8" height="0.9"/>
		<rect x="27.6" y="17.5" class="st0" width="12.6" height="0.9"/>
		<rect x="27.6" y="15.6" class="st0" width="17.8" height="0.9"/>
	</g>
	<g id="Icon_2_">
		<path class="st3" d="M38.3,7.3v3.3h-3.6V7.3H38.3 M38.3,6.8h-3.6c-0.3,0-0.5,0.2-0.5,0.5v3.3c0,0.2,0.3,0.5,0.5,0.5h3.6
			c0.3,0,0.5-0.2,0.5-0.5V7.3C38.8,7,38.7,6.8,38.3,6.8z M37.1,8.9l-0.8,0.9l-0.6-0.6L35,10.1h3.1C38.1,10.1,37.1,8.9,37.1,8.9z"/>
	</g>
</g>
<g id="_x33__1_">
	<rect id="Image_4_" x="3" y="23.2" class="st0" width="21" height="17"/>
	<rect x="3.7" y="32.6" class="st1" width="19.6" height="6.9"/>
	<g>
		<rect x="4.6" y="33.6" class="st2" width="17.8" height="0.9"/>
		<rect x="4.6" y="37.6" class="st0" width="12.6" height="0.9"/>
		<rect x="4.6" y="35.6" class="st0" width="17.8" height="0.9"/>
	</g>
	<g id="Icon_4_">
		<path class="st3" d="M15.3,27.3v3.3h-3.6v-3.3H15.3 M15.3,26.8h-3.6c-0.3,0-0.5,0.2-0.5,0.5v3.3c0,0.2,0.3,0.5,0.5,0.5h3.6
			c0.3,0,0.5-0.2,0.5-0.5v-3.3C15.8,27,15.7,26.8,15.3,26.8z M14.1,28.9l-0.8,0.9l-0.6-0.6L12,30.2h3.1
			C15.1,30.2,14.1,28.9,14.1,28.9z"/>
	</g>
</g>
<g id="_x34_">
	<rect id="Image_1_" x="26" y="23.2" class="st0" width="21" height="17"/>
	<rect x="26.7" y="32.6" class="st1" width="19.6" height="6.9"/>
	<g>
		<rect x="27.6" y="33.6" class="st2" width="17.8" height="0.9"/>
		<rect x="27.6" y="37.6" class="st0" width="12.6" height="0.9"/>
		<rect x="27.6" y="35.6" class="st0" width="17.8" height="0.9"/>
	</g>
	<g id="Icon_1_">
		<path class="st3" d="M38.3,27.3v3.3h-3.6v-3.3H38.3 M38.3,26.8h-3.6c-0.3,0-0.5,0.2-0.5,0.5v3.3c0,0.2,0.3,0.5,0.5,0.5h3.6
			c0.3,0,0.5-0.2,0.5-0.5v-3.3C38.8,27,38.7,26.8,38.3,26.8z M37.1,28.9l-0.8,0.9l-0.6-0.6L35,30.2h3.1
			C38.1,30.2,37.1,28.9,37.1,28.9z"/>
	</g>
</g>
<g id="_x33__2_">
	<rect id="Image_6_" x="3" y="43.2" class="st0" width="21" height="6.8"/>
	<g id="Icon_6_">
		<path class="st3" d="M14.1,48.9l-0.8,0.9l-0.6-0.6L12.2,50H15C14.7,49.7,14.1,48.9,14.1,48.9z M14.1,48.9l-0.8,0.9l-0.6-0.6
			L12.2,50H15C14.7,49.7,14.1,48.9,14.1,48.9z M14.1,48.9l-0.8,0.9l-0.6-0.6L12.2,50H15C14.7,49.7,14.1,48.9,14.1,48.9z M14.1,48.9
			l-0.8,0.9l-0.6-0.6L12.2,50H15C14.7,49.7,14.1,48.9,14.1,48.9z M14.1,48.9l-0.8,0.9l-0.6-0.6L12.2,50H15
			C14.7,49.7,14.1,48.9,14.1,48.9z M14.1,48.9l-0.8,0.9l-0.6-0.6L12.2,50H15C14.7,49.7,14.1,48.9,14.1,48.9z M14.1,48.9l-0.8,0.9
			l-0.6-0.6L12.2,50H15C14.7,49.7,14.1,48.9,14.1,48.9z M15.3,46.8h-3.6c-0.3,0-0.5,0.2-0.5,0.5V50h0.5v-2.7h3.6V50h0.5v-2.7
			C15.8,47,15.7,46.8,15.3,46.8z M13.4,49.8l-0.6-0.6L12.2,50H15c-0.3-0.3-0.8-1.1-0.8-1.1L13.4,49.8z M14.1,48.9l-0.8,0.9l-0.6-0.6
			L12.2,50H15C14.7,49.7,14.1,48.9,14.1,48.9z M14.1,48.9l-0.8,0.9l-0.6-0.6L12.2,50H15C14.7,49.7,14.1,48.9,14.1,48.9z M14.1,48.9
			l-0.8,0.9l-0.6-0.6L12.2,50H15C14.7,49.7,14.1,48.9,14.1,48.9z M14.1,48.9l-0.8,0.9l-0.6-0.6L12.2,50H15
			C14.7,49.7,14.1,48.9,14.1,48.9z M14.1,48.9l-0.8,0.9l-0.6-0.6L12.2,50H15C14.7,49.7,14.1,48.9,14.1,48.9z M14.1,48.9l-0.8,0.9
			l-0.6-0.6L12.2,50H15C14.7,49.7,14.1,48.9,14.1,48.9z M14.1,48.9l-0.8,0.9l-0.6-0.6L12.2,50H15C14.7,49.7,14.1,48.9,14.1,48.9z"/>
	</g>
</g>
<g id="_x34__1_">
	<rect id="Image_3_" x="26" y="43.2" class="st0" width="21" height="6.8"/>
	<g id="Icon_3_">
		<path class="st3" d="M37.1,48.9l-0.8,0.9l-0.6-0.6L35.2,50H38C37.7,49.7,37.1,48.9,37.1,48.9z M37.1,48.9l-0.8,0.9l-0.6-0.6
			L35.2,50H38C37.7,49.7,37.1,48.9,37.1,48.9z M37.1,48.9l-0.8,0.9l-0.6-0.6L35.2,50H38C37.7,49.7,37.1,48.9,37.1,48.9z M37.1,48.9
			l-0.8,0.9l-0.6-0.6L35.2,50H38C37.7,49.7,37.1,48.9,37.1,48.9z M38.3,46.8h-3.6c-0.3,0-0.5,0.2-0.5,0.5V50h0.5v-2.7h3.6V50h0.5
			v-2.7C38.8,47,38.7,46.8,38.3,46.8z M37.1,48.9l-0.8,0.9l-0.6-0.6L35.2,50H38C37.7,49.7,37.1,48.9,37.1,48.9z M37.1,48.9l-0.8,0.9
			l-0.6-0.6L35.2,50H38C37.7,49.7,37.1,48.9,37.1,48.9z M37.1,48.9l-0.8,0.9l-0.6-0.6L35.2,50H38C37.7,49.7,37.1,48.9,37.1,48.9z
			 M37.1,48.9l-0.8,0.9l-0.6-0.6L35.2,50H38C37.7,49.7,37.1,48.9,37.1,48.9z M37.1,48.9l-0.8,0.9l-0.6-0.6L35.2,50H38
			C37.7,49.7,37.1,48.9,37.1,48.9z"/>
	</g>
</g>
</svg>
