<?xml version="1.0" encoding="utf-8"?>
<!-- Generator: Adobe Illustrator 21.0.0, SVG Export Plug-In . SVG Version: 6.00 Build 0)  -->
<svg version="1.1" id="Layer_1" xmlns="http://www.w3.org/2000/svg" width="70" height="70" xmlns:xlink="http://www.w3.org/1999/xlink" x="0px" y="0px"
	 viewBox="0 0 50 50" style="enable-background:new 0 0 50 50;" xml:space="preserve">
<style type="text/css">
	.st0{fill:#E1E1E1;}
	.st1{fill:#FFFFFF;}
	.st2{fill:#C1C1C1;}
	.st3{display:none;}
	.st4{display:inline;fill:#FFFFFF;}
</style>
<g id="_x31_">
	<rect id="Image" x="3" y="3.2" class="st0" width="44" height="23"/>
	<rect id="Shape" x="4.1" y="11.8" class="st1" width="41.8" height="13.4"/>
	<g>
		<rect x="5.5" y="16.5" class="st2" width="29.5" height="1.1"/>
		<rect x="5.5" y="14.1" class="st2" width="39" height="1.1"/>
		<rect x="5.5" y="21.8" class="st0" width="25.3" height="1.1"/>
		<rect x="5.5" y="19.3" class="st0" width="35.8" height="1.1"/>
	</g>
	<g id="Icon" class="st3">
		<path class="st4" d="M28.6,11.3V18h-7.3v-6.7H28.6 M28.6,10.4h-7.3c-0.5,0-1,0.5-1,0.9V18c0,0.5,0.5,0.9,1,0.9h7.3
			c0.5,0,1-0.5,1-0.9v-6.7C29.6,10.9,29.3,10.4,28.6,10.4z M26.3,14.6l-1.5,1.9l-1.2-1.2L22,17.1h6.3C28.1,17.1,26.3,14.6,26.3,14.6
			z"/>
	</g>
</g>
<g id="_x31__1_">
	<rect id="Image_1_" x="3" y="29.2" class="st0" width="44" height="20.8"/>
	<rect id="Shape_1_" x="4.1" y="37.8" class="st1" width="41.8" height="12.2"/>
	<g>
		<rect x="5.5" y="42.6" class="st2" width="29.5" height="1.1"/>
		<rect x="5.5" y="40.1" class="st2" width="39" height="1.1"/>
		<rect x="5.5" y="47.8" class="st0" width="25.3" height="1.1"/>
		<rect x="5.5" y="45.3" class="st0" width="35.8" height="1.1"/>
	</g>
	<g id="Icon_1_" class="st3">
		<path class="st4" d="M28.6,37.3V44h-7.3v-6.7H28.6 M28.6,36.4h-7.3c-0.5,0-1,0.5-1,0.9V44c0,0.5,0.5,0.9,1,0.9h7.3
			c0.5,0,1-0.5,1-0.9v-6.7C29.6,36.9,29.3,36.4,28.6,36.4z M26.3,40.6l-1.5,1.9l-1.2-1.2L22,43.1h6.3C28.1,43.1,26.3,40.6,26.3,40.6
			z"/>
	</g>
</g>
<rect x="4.5" y="26.2" class="st0" width="1.3" height="3"/>
</svg>
