<?xml version="1.0" encoding="utf-8"?>
<!-- Generator: Adobe Illustrator 21.0.0, SVG Export Plug-In . SVG Version: 6.00 Build 0)  -->
<svg version="1.1" id="Layer_1" xmlns="http://www.w3.org/2000/svg" width="70" height="70" xmlns:xlink="http://www.w3.org/1999/xlink" x="0px" y="0px"
	 viewBox="0 0 50 50" style="enable-background:new 0 0 50 50;" xml:space="preserve">
<style type="text/css">
	.st0{fill:#E1E1E1;}
	.st1{fill:#888888;}
	.st2{fill:#C1C1C1;}
	.st3{fill:#FFFFFF;}
</style>
<g id="_x31_">
	<rect id="Image" x="3" y="6.9" class="st0" width="44" height="23"/>
	<g id="Icon">
		<path class="st1" d="M28.6,15.1v6.7h-7.3v-6.7H28.6 M28.6,14.2h-7.3c-0.5,0-1,0.5-1,0.9v6.7c0,0.5,0.5,0.9,1,0.9h7.3
			c0.5,0,1-0.5,1-0.9v-6.7C29.6,14.6,29.3,14.2,28.6,14.2z M26.3,18.4l-1.5,1.9L23.6,19L22,20.8h6.3C28.1,20.8,26.3,18.4,26.3,18.4z
			"/>
	</g>
	<rect x="13.8" y="3.4" class="st2" width="33.2" height="1.5"/>
	<rect x="3" y="35.7" class="st0" width="25.9" height="1.5"/>
	<rect x="3" y="32.3" class="st0" width="36.6" height="1.5"/>
	<circle class="st3" cx="7.8" cy="5.7" r="4.2"/>
	<circle class="st2" cx="7.8" cy="5.7" r="3.2"/>
</g>
<g id="_x31__1_">
	<rect x="3" y="46.8" class="st0" width="44" height="3.2"/>
	<rect x="13.8" y="43.3" class="st2" width="33.2" height="1.5"/>
	<circle class="st3" cx="7.8" cy="45.6" r="4.2"/>
	<circle class="st2" cx="7.8" cy="45.6" r="3.2"/>
</g>
</svg>
