<?xml version="1.0" encoding="utf-8"?>
<!-- Generator: Adobe Illustrator 21.0.0, SVG Export Plug-In . SVG Version: 6.00 Build 0)  -->
<svg version="1.1" id="Layer_1" xmlns="http://www.w3.org/2000/svg" width="70" height="70" xmlns:xlink="http://www.w3.org/1999/xlink" x="0px" y="0px"
	 viewBox="0 0 50 50" style="enable-background:new 0 0 50 50;" xml:space="preserve">
<style type="text/css">
	.st0{fill:#E1E1E1;}
	.st1{fill:#888888;}
	.st2{fill:#FFFFFF;}
	.st3{fill:#C1C1C1;}
</style>
<g id="_x31_">
	<rect id="Image" x="3" y="2.9" class="st0" width="44" height="23"/>
	<g id="Icon">
		<path class="st1" d="M28.6,11.1v6.7h-7.3v-6.7H28.6 M28.6,10.2h-7.3c-0.5,0-1,0.5-1,0.9v6.7c0,0.5,0.5,0.9,1,0.9h7.3
			c0.5,0,1-0.5,1-0.9v-6.7C29.6,10.6,29.3,10.2,28.6,10.2z M26.3,14.4l-1.5,1.9L23.6,15L22,16.8h6.3C28.1,16.8,26.3,14.4,26.3,14.4z
			"/>
	</g>
	<rect x="5.6" y="20.2" class="st2" width="38.9" height="5.7"/>
	<rect x="12" y="26" class="st3" width="26.1" height="1.5"/>
	<rect x="7.8" y="22.6" class="st3" width="34.5" height="1.5"/>
	<rect x="11.4" y="33.4" class="st0" width="27.2" height="1.5"/>
	<rect x="9.6" y="30" class="st0" width="30.9" height="1.5"/>
</g>
<path class="st0" d="M3,40v10h44V40H3z"/>
<g id="Icon_1_">
	<path class="st1" d="M28.6,47.2h-7.3c-0.5,0-1,0.5-1,0.9V50h1v-1.9h7.3V50h1v-1.9C29.7,47.7,29.3,47.2,28.6,47.2z"/>
</g>
</svg>
