<?xml version="1.0" encoding="utf-8"?>
<!-- Generator: Adobe Illustrator 21.0.0, SVG Export Plug-In . SVG Version: 6.00 Build 0)  -->
<svg version="1.1" id="Layer_1" xmlns="http://www.w3.org/2000/svg" width="70" height="70" xmlns:xlink="http://www.w3.org/1999/xlink" x="0px" y="0px"
	 viewBox="0 0 50 50" style="enable-background:new 0 0 50 50;" xml:space="preserve">
<style type="text/css">
	.st0{fill:#C2C1C1;}
	.st1{fill:#E1E2E1;}
	.st2{fill:#888888;}
	.st3{fill:#FFFFFF;stroke:#C1C1C1;stroke-width:0.451;stroke-miterlimit:10;}
</style>
<g id="_x31_">
	<rect x="28.7" y="7.2" class="st0" width="5.6" height="1.1"/>
	<rect x="28.7" y="11.9" class="st1" width="15.8" height="1.1"/>
	<rect x="28.7" y="9.6" class="st1" width="18.3" height="1.1"/>
	<rect x="28.7" y="4.9" class="st0" width="18.3" height="1.1"/>
	<rect id="Image" x="8.2" y="3.2" class="st1" width="17.5" height="11.6"/>
	<g id="Icon">
		<path class="st2" d="M18.7,7.3v3.3h-3.6V7.3H18.7 M18.7,6.8h-3.6c-0.3,0-0.5,0.2-0.5,0.5v3.3c0,0.2,0.3,0.5,0.5,0.5h3.6
			c0.3,0,0.5-0.2,0.5-0.5V7.3C19.2,7,19.1,6.8,18.7,6.8z M17.5,8.9l-0.8,0.9l-0.6-0.6l-0.8,0.9h3.1C18.5,10.1,17.5,8.9,17.5,8.9z"/>
	</g>
</g>
<g id="_x32_">
	<rect x="28.7" y="21.8" class="st0" width="5.6" height="1.1"/>
	<rect x="28.7" y="26.5" class="st1" width="15.8" height="1.1"/>
	<rect x="28.7" y="24.1" class="st1" width="18.3" height="1.1"/>
	<rect x="28.7" y="19.5" class="st0" width="18.3" height="1.1"/>
	<rect id="Image_4_" x="8.2" y="17.7" class="st1" width="17.5" height="11.6"/>
	<g id="Icon_1_">
		<path class="st2" d="M18.7,21.8v3.3h-3.6v-3.3H18.7 M18.7,21.4h-3.6c-0.3,0-0.5,0.2-0.5,0.5v3.3c0,0.2,0.3,0.5,0.5,0.5h3.6
			c0.3,0,0.5-0.2,0.5-0.5v-3.3C19.2,21.6,19.1,21.4,18.7,21.4z M17.5,23.5l-0.8,0.9l-0.6-0.6l-0.8,0.9h3.1
			C18.5,24.7,17.5,23.5,17.5,23.5z"/>
	</g>
</g>
<g id="_x33_">
	<rect x="28.7" y="36.4" class="st0" width="5.6" height="1.1"/>
	<rect x="28.7" y="41" class="st1" width="15.8" height="1.1"/>
	<rect x="28.7" y="38.7" class="st1" width="18.3" height="1.1"/>
	<rect x="28.7" y="34" class="st0" width="18.3" height="1.1"/>
	<rect id="Image_3_" x="8.2" y="32.3" class="st1" width="17.5" height="11.6"/>
	<g id="Icon_3_">
		<path class="st2" d="M18.7,36.4v3.3h-3.6v-3.3H18.7 M18.7,35.9h-3.6c-0.3,0-0.5,0.2-0.5,0.5v3.3c0,0.2,0.3,0.5,0.5,0.5h3.6
			c0.3,0,0.5-0.2,0.5-0.5v-3.3C19.2,36.2,19.1,35.9,18.7,35.9z M17.5,38L16.8,39l-0.6-0.6l-0.8,0.9h3.1C18.5,39.3,17.5,38,17.5,38z"
			/>
	</g>
</g>
<g id="_x34_">
	<rect x="28.7" y="48.6" class="st0" width="18.3" height="1.1"/>
	<rect id="Image_2_" x="8.2" y="46.8" class="st1" width="17.5" height="3.2"/>
</g>
<rect id="Line" x="4.2" y="3.2" class="st0" width="0.8" height="46.8"/>
<rect id="_x3C_Path_x3E__1" x="3.2" y="7.6" class="st3" width="2.7" height="2.7"/>
<rect id="_x3C_Path_x3E__2" x="3.2" y="22.1" class="st3" width="2.7" height="2.7"/>
<rect id="_x3C_Path_x3E__3" x="3.2" y="36.7" class="st3" width="2.7" height="2.7"/>
</svg>
