<svg width="150" height="150" viewBox="0 0 100 100" fill="none" xmlns="http://www.w3.org/2000/svg">
<rect width="100" height="100" fill="white"/>
<rect x="30" y="13" width="40" height="48.8889" fill="#E1E1E1"/>
<path d="M53.6938 34.7531L53.6938 41.4345H50.2519H46.8099L46.8099 34.7531H53.6938ZM53.6938 33.7407H46.8099C46.2025 33.7407 46 34.3481 46 34.5506V41.4345C46 42.042 46.6074 42.2444 46.8099 42.2444H53.6938C54.3012 42.2444 54.5037 41.637 54.5037 41.4345V34.7531C54.5037 34.3481 54.3012 33.7407 53.6938 33.7407ZM51.2642 38.3975L49.8469 40.4222L48.6321 39.2074L47.2148 41.0296H53.2889C53.0864 40.8271 51.2642 38.3975 51.2642 38.3975Z" fill="#888888"/>
<circle cx="31.5" cy="13.5" r="4.5" fill="#C4C4C4"/>
<path d="M29.0964 13.9404C29.0964 13.8574 29.0671 13.7939 29.0085 13.75C28.9499 13.7051 28.8444 13.6582 28.6921 13.6094C28.5397 13.5596 28.4191 13.5107 28.3303 13.4629C28.0881 13.332 27.967 13.1558 27.967 12.9341C27.967 12.8188 27.9992 12.7163 28.0637 12.6265C28.1291 12.5356 28.2224 12.4648 28.3435 12.4141C28.4655 12.3633 28.6022 12.3379 28.7536 12.3379C28.906 12.3379 29.0417 12.3657 29.1608 12.4214C29.28 12.4761 29.3723 12.5537 29.4377 12.6543C29.5041 12.7549 29.5373 12.8691 29.5373 12.9971H29.0979C29.0979 12.8994 29.0671 12.8237 29.0056 12.77C28.944 12.7153 28.8576 12.688 28.7463 12.688C28.6389 12.688 28.5554 12.7109 28.4958 12.7568C28.4362 12.8018 28.4064 12.8613 28.4064 12.9355C28.4064 13.0049 28.4411 13.063 28.5105 13.1099C28.5808 13.1567 28.6838 13.2007 28.8195 13.2417C29.0695 13.3169 29.2517 13.4102 29.3659 13.5215C29.4802 13.6328 29.5373 13.7715 29.5373 13.9375C29.5373 14.1221 29.4675 14.2671 29.3278 14.3726C29.1882 14.4771 29.0002 14.5293 28.7639 14.5293C28.5998 14.5293 28.4504 14.4995 28.3156 14.4399C28.1809 14.3794 28.0778 14.2969 28.0065 14.1924C27.9362 14.0879 27.9011 13.9668 27.9011 13.8291H28.342C28.342 14.0645 28.4826 14.1821 28.7639 14.1821C28.8684 14.1821 28.9499 14.1611 29.0085 14.1191C29.0671 14.0762 29.0964 14.0166 29.0964 13.9404ZM31.0402 14.0605H30.2697L30.1232 14.5H29.656L30.4499 12.3672H30.8571L31.6555 14.5H31.1882L31.0402 14.0605ZM30.3884 13.7046H30.9216L30.6535 12.9062L30.3884 13.7046ZM32.2941 14.147H33.2272V14.5H31.8547V12.3672H32.2941V14.147ZM34.7639 13.5757H33.9201V14.147H34.9104V14.5H33.4807V12.3672H34.9074V12.7231H33.9201V13.2314H34.7639V13.5757Z" fill="white"/>
<rect x="40" y="65" width="20" height="2" fill="#E1E1E1"/>
<rect x="36" y="69" width="29" height="2" fill="#888888"/>
<path d="M43.8707 74.4085L42.6716 74.226L42.1356 73.088C42.1209 73.0569 42.0968 73.0317 42.0671 73.0163C41.9925 72.9777 41.9018 73.0099 41.8645 73.088L41.3284 74.226L40.1293 74.4085C40.0962 74.4135 40.066 74.4298 40.0429 74.4545C40.0149 74.4846 39.9995 74.5251 40 74.5671C40.0005 74.6091 40.017 74.6492 40.0457 74.6785L40.9133 75.5643L40.7083 76.8151C40.7035 76.8441 40.7066 76.8741 40.7172 76.9014C40.7278 76.9288 40.7455 76.9525 40.7683 76.9698C40.7911 76.9872 40.8181 76.9975 40.8463 76.9996C40.8744 77.0017 40.9025 76.9955 40.9275 76.9817L42 76.3912L43.0726 76.9817C43.1018 76.998 43.1358 77.0035 43.1684 76.9975C43.2506 76.9827 43.3059 76.9011 43.2917 76.8151L43.0867 75.5643L43.9543 74.6785C43.9779 74.6543 43.9935 74.6227 43.9982 74.588C44.011 74.5015 43.9534 74.4214 43.8707 74.4085V74.4085Z" fill="#E1E1E1"/>
<path d="M47.8707 74.4085L46.6716 74.226L46.1356 73.088C46.1209 73.0569 46.0968 73.0317 46.0671 73.0163C45.9925 72.9777 45.9018 73.0099 45.8645 73.088L45.3284 74.226L44.1293 74.4085C44.0962 74.4135 44.066 74.4298 44.0429 74.4545C44.0149 74.4846 43.9995 74.5251 44 74.5671C44.0005 74.6091 44.017 74.6492 44.0457 74.6785L44.9133 75.5643L44.7083 76.8151C44.7035 76.8441 44.7066 76.8741 44.7172 76.9014C44.7278 76.9288 44.7455 76.9525 44.7683 76.9698C44.7911 76.9872 44.8181 76.9975 44.8463 76.9996C44.8744 77.0017 44.9025 76.9955 44.9275 76.9817L46 76.3912L47.0726 76.9817C47.1018 76.998 47.1358 77.0035 47.1684 76.9975C47.2506 76.9827 47.3059 76.9011 47.2917 76.8151L47.0867 75.5643L47.9543 74.6785C47.9779 74.6543 47.9935 74.6227 47.9982 74.588C48.011 74.5015 47.9534 74.4214 47.8707 74.4085V74.4085Z" fill="#E1E1E1"/>
<path d="M51.8707 74.4085L50.6716 74.226L50.1356 73.088C50.1209 73.0569 50.0968 73.0317 50.0671 73.0163C49.9925 72.9777 49.9018 73.0099 49.8645 73.088L49.3284 74.226L48.1293 74.4085C48.0962 74.4135 48.066 74.4298 48.0429 74.4545C48.0149 74.4846 47.9995 74.5251 48 74.5671C48.0005 74.6091 48.017 74.6492 48.0457 74.6785L48.9133 75.5643L48.7083 76.8151C48.7035 76.8441 48.7066 76.8741 48.7172 76.9014C48.7278 76.9288 48.7455 76.9525 48.7683 76.9698C48.7911 76.9872 48.8181 76.9975 48.8463 76.9996C48.8744 77.0017 48.9025 76.9955 48.9275 76.9817L50 76.3912L51.0726 76.9817C51.1018 76.998 51.1358 77.0035 51.1684 76.9975C51.2506 76.9827 51.3059 76.9011 51.2917 76.8151L51.0867 75.5643L51.9543 74.6785C51.9779 74.6543 51.9935 74.6227 51.9982 74.588C52.011 74.5015 51.9534 74.4214 51.8707 74.4085V74.4085Z" fill="#E1E1E1"/>
<path d="M55.8707 74.4085L54.6716 74.226L54.1356 73.088C54.1209 73.0569 54.0968 73.0317 54.0671 73.0163C53.9925 72.9777 53.9018 73.0099 53.8645 73.088L53.3284 74.226L52.1293 74.4085C52.0962 74.4135 52.066 74.4298 52.0429 74.4545C52.0149 74.4846 51.9995 74.5251 52 74.5671C52.0005 74.6091 52.017 74.6492 52.0457 74.6785L52.9133 75.5643L52.7083 76.8151C52.7035 76.8441 52.7066 76.8741 52.7172 76.9014C52.7278 76.9288 52.7455 76.9525 52.7683 76.9698C52.7911 76.9872 52.8181 76.9975 52.8463 76.9996C52.8744 77.0017 52.9025 76.9955 52.9275 76.9817L54 76.3912L55.0726 76.9817C55.1018 76.998 55.1358 77.0035 55.1684 76.9975C55.2506 76.9827 55.3059 76.9011 55.2917 76.8151L55.0867 75.5643L55.9543 74.6785C55.9779 74.6543 55.9935 74.6227 55.9982 74.588C56.011 74.5015 55.9534 74.4214 55.8707 74.4085V74.4085Z" fill="#E1E1E1"/>
<path d="M59.8707 74.4085L58.6716 74.226L58.1356 73.088C58.1209 73.0569 58.0968 73.0317 58.0671 73.0163C57.9925 72.9777 57.9018 73.0099 57.8645 73.088L57.3284 74.226L56.1293 74.4085C56.0962 74.4135 56.066 74.4298 56.0429 74.4545C56.0149 74.4846 55.9995 74.5251 56 74.5671C56.0005 74.6091 56.017 74.6492 56.0457 74.6785L56.9133 75.5643L56.7083 76.8151C56.7035 76.8441 56.7066 76.8741 56.7172 76.9014C56.7278 76.9288 56.7455 76.9525 56.7683 76.9698C56.7911 76.9872 56.8181 76.9975 56.8463 76.9996C56.8744 77.0017 56.9025 76.9955 56.9275 76.9817L58 76.3912L59.0726 76.9817C59.1018 76.998 59.1358 77.0035 59.1684 76.9975C59.2506 76.9827 59.3059 76.9011 59.2917 76.8151L59.0867 75.5643L59.9543 74.6785C59.9779 74.6543 59.9935 74.6227 59.9982 74.588C60.011 74.5015 59.9534 74.4214 59.8707 74.4085V74.4085Z" fill="#E1E1E1"/>
<rect x="50" y="80" width="7" height="2" fill="#E1E1E1"/>
<rect x="42" y="80" width="7" height="2" fill="#E1E1E1"/>
<path d="M29.6245 88H27.2954V87.6753L28.5259 86.3081C28.7082 86.1014 28.8335 85.9338 28.9019 85.8052C28.9718 85.675 29.0068 85.5407 29.0068 85.4023C29.0068 85.2168 28.9507 85.0646 28.8384 84.9458C28.7261 84.827 28.5763 84.7676 28.3892 84.7676C28.1646 84.7676 27.9896 84.8319 27.8643 84.9604C27.7406 85.0874 27.6787 85.2648 27.6787 85.4927H27.2271C27.2271 85.1655 27.332 84.901 27.542 84.6992C27.7536 84.4974 28.036 84.3965 28.3892 84.3965C28.7196 84.3965 28.9808 84.4836 29.1729 84.6577C29.3649 84.8302 29.4609 85.0605 29.4609 85.3486C29.4609 85.6986 29.238 86.1152 28.792 86.5986L27.8398 87.6313H29.6245V88ZM30.3105 86.2178L30.4912 84.4453H32.3125V84.8628H30.8745L30.7671 85.832C30.9412 85.7295 31.139 85.6782 31.3604 85.6782C31.6842 85.6782 31.9414 85.7856 32.1318 86.0005C32.3223 86.2137 32.4175 86.5026 32.4175 86.8672C32.4175 87.2334 32.3182 87.5223 32.1196 87.7339C31.9227 87.9438 31.6468 88.0488 31.292 88.0488C30.9779 88.0488 30.7215 87.9618 30.5229 87.7876C30.3244 87.6134 30.2113 87.3726 30.1836 87.0649H30.6108C30.6385 87.2684 30.7109 87.4222 30.8281 87.5264C30.9453 87.6289 31.0999 87.6802 31.292 87.6802C31.502 87.6802 31.6663 87.6086 31.7852 87.4653C31.9056 87.3221 31.9658 87.1243 31.9658 86.8721C31.9658 86.6344 31.9007 86.444 31.7705 86.3008C31.6419 86.1559 31.4702 86.0835 31.2554 86.0835C31.0584 86.0835 30.9038 86.1266 30.7915 86.2129L30.6719 86.3105L30.3105 86.2178ZM35.1396 86.4839C35.1396 87.0129 35.0493 87.4059 34.8687 87.6631C34.688 87.9202 34.4056 88.0488 34.0215 88.0488C33.6423 88.0488 33.3615 87.9235 33.1792 87.6729C32.9969 87.4206 32.9025 87.0446 32.896 86.5449V85.9419C32.896 85.4194 32.9863 85.0312 33.167 84.7773C33.3477 84.5234 33.6309 84.3965 34.0166 84.3965C34.3991 84.3965 34.6807 84.5194 34.8613 84.7651C35.042 85.0093 35.1348 85.3869 35.1396 85.8979V86.4839ZM34.688 85.8662C34.688 85.4837 34.6343 85.2054 34.5269 85.0312C34.4194 84.8555 34.2493 84.7676 34.0166 84.7676C33.7855 84.7676 33.617 84.8547 33.5112 85.0288C33.4054 85.203 33.3509 85.4707 33.3477 85.832V86.5547C33.3477 86.9388 33.403 87.2228 33.5137 87.4067C33.626 87.589 33.7952 87.6802 34.0215 87.6802C34.2445 87.6802 34.4097 87.5939 34.5171 87.4214C34.6261 87.2489 34.6831 86.9771 34.688 86.606V85.8662Z" fill="#222222"/>
<path d="M28.7266 91V89.5781H29.1279C29.2516 89.5781 29.361 89.6055 29.4561 89.6602C29.5511 89.7148 29.6243 89.7926 29.6758 89.8936C29.7279 89.9945 29.7542 90.1104 29.7549 90.2412V90.332C29.7549 90.4661 29.7288 90.5837 29.6768 90.6846C29.6253 90.7855 29.5514 90.863 29.4551 90.917C29.3594 90.971 29.2477 90.9987 29.1201 91H28.7266ZM28.9141 89.7324V90.8467H29.1113C29.2559 90.8467 29.3682 90.8018 29.4482 90.7119C29.529 90.6221 29.5693 90.4941 29.5693 90.3281V90.2451C29.5693 90.0837 29.5312 89.9583 29.4551 89.8691C29.3796 89.7793 29.2721 89.7337 29.1328 89.7324H28.9141ZM30.8027 90.6289H30.207L30.0732 91H29.8799L30.4229 89.5781H30.5869L31.1309 91H30.9385L30.8027 90.6289ZM30.2637 90.4746H30.7471L30.5049 89.8096L30.2637 90.4746ZM31.6641 90.292L32.0352 89.5781H32.248L31.7578 90.4697V91H31.5703V90.4697L31.0801 89.5781H31.2949L31.6641 90.292ZM32.835 90.3662C32.6742 90.32 32.557 90.2633 32.4834 90.1963C32.4105 90.1286 32.374 90.0452 32.374 89.9463C32.374 89.8343 32.4186 89.7419 32.5078 89.6689C32.5977 89.5954 32.7142 89.5586 32.8574 89.5586C32.9551 89.5586 33.042 89.5775 33.1182 89.6152C33.195 89.653 33.2542 89.7051 33.2959 89.7715C33.3382 89.8379 33.3594 89.9105 33.3594 89.9893H33.1709C33.1709 89.9033 33.1436 89.8359 33.0889 89.7871C33.0342 89.7376 32.957 89.7129 32.8574 89.7129C32.765 89.7129 32.6927 89.7334 32.6406 89.7744C32.5892 89.8148 32.5635 89.8711 32.5635 89.9434C32.5635 90.0013 32.5879 90.0505 32.6367 90.0908C32.6862 90.1305 32.7699 90.167 32.8877 90.2002C33.0062 90.2334 33.0986 90.2702 33.165 90.3105C33.2321 90.3503 33.2816 90.3968 33.3135 90.4502C33.346 90.5036 33.3623 90.5664 33.3623 90.6387C33.3623 90.7539 33.3174 90.8464 33.2275 90.916C33.1377 90.985 33.0176 91.0195 32.8672 91.0195C32.7695 91.0195 32.6784 91.001 32.5938 90.9639C32.5091 90.9261 32.4437 90.8747 32.3975 90.8096C32.3519 90.7445 32.3291 90.6706 32.3291 90.5879H32.5176C32.5176 90.6738 32.5492 90.7419 32.6123 90.792C32.6761 90.8415 32.7611 90.8662 32.8672 90.8662C32.9661 90.8662 33.042 90.846 33.0947 90.8057C33.1475 90.7653 33.1738 90.7103 33.1738 90.6406C33.1738 90.571 33.1494 90.5173 33.1006 90.4795C33.0518 90.4411 32.9632 90.4033 32.835 90.3662Z" fill="#888888"/>
<path d="M38.9976 87.875C39.1082 87.875 39.1937 87.9067 39.2539 87.9702C39.3141 88.0321 39.3442 88.1102 39.3442 88.2046C39.3442 88.2974 39.3141 88.3747 39.2539 88.4365C39.1937 88.4967 39.1082 88.5269 38.9976 88.5269C38.8918 88.5269 38.8079 88.4967 38.7461 88.4365C38.6842 88.3763 38.6533 88.299 38.6533 88.2046C38.6533 88.1102 38.6834 88.0321 38.7437 87.9702C38.8039 87.9067 38.8885 87.875 38.9976 87.875ZM38.9976 85.8022C39.1082 85.8022 39.1937 85.834 39.2539 85.8975C39.3141 85.9593 39.3442 86.0374 39.3442 86.1318C39.3442 86.2246 39.3141 86.3019 39.2539 86.3638C39.1937 86.424 39.1082 86.4541 38.9976 86.4541C38.8918 86.4541 38.8079 86.424 38.7461 86.3638C38.6842 86.3035 38.6533 86.2262 38.6533 86.1318C38.6533 86.0374 38.6834 85.9593 38.7437 85.8975C38.8039 85.834 38.8885 85.8022 38.9976 85.8022Z" fill="black"/>
<path d="M45.0244 86.4839C45.0244 87.0129 44.9341 87.4059 44.7534 87.6631C44.5728 87.9202 44.2904 88.0488 43.9062 88.0488C43.527 88.0488 43.2463 87.9235 43.064 87.6729C42.8817 87.4206 42.7873 87.0446 42.7808 86.5449V85.9419C42.7808 85.4194 42.8711 85.0312 43.0518 84.7773C43.2324 84.5234 43.5156 84.3965 43.9014 84.3965C44.2839 84.3965 44.5654 84.5194 44.7461 84.7651C44.9268 85.0093 45.0195 85.3869 45.0244 85.8979V86.4839ZM44.5728 85.8662C44.5728 85.4837 44.519 85.2054 44.4116 85.0312C44.3042 84.8555 44.1341 84.7676 43.9014 84.7676C43.6702 84.7676 43.5018 84.8547 43.396 85.0288C43.2902 85.203 43.2357 85.4707 43.2324 85.832V86.5547C43.2324 86.9388 43.2878 87.2228 43.3984 87.4067C43.5107 87.589 43.68 87.6802 43.9062 87.6802C44.1292 87.6802 44.2944 87.5939 44.4019 87.4214C44.5109 87.2489 44.5679 86.9771 44.5728 86.606V85.8662ZM47.3755 84.4429V84.8262H47.2925C46.9409 84.8327 46.661 84.9368 46.4526 85.1387C46.2443 85.3405 46.1239 85.6245 46.0913 85.9907C46.2785 85.7759 46.534 85.6685 46.8579 85.6685C47.1672 85.6685 47.4137 85.7775 47.5977 85.9956C47.7832 86.2137 47.876 86.4953 47.876 86.8403C47.876 87.2065 47.7759 87.4995 47.5757 87.7192C47.3771 87.939 47.1102 88.0488 46.7749 88.0488C46.4347 88.0488 46.1589 87.9186 45.9473 87.6582C45.7357 87.3962 45.6299 87.0592 45.6299 86.6475V86.4741C45.6299 85.8198 45.769 85.3201 46.0474 84.9751C46.3273 84.6284 46.7432 84.451 47.2949 84.4429H47.3755ZM46.7822 86.0444C46.6276 86.0444 46.4852 86.0908 46.355 86.1836C46.2248 86.2764 46.1344 86.3927 46.084 86.5327V86.6987C46.084 86.9917 46.1499 87.2277 46.2817 87.4067C46.4136 87.5858 46.578 87.6753 46.7749 87.6753C46.9784 87.6753 47.1379 87.6004 47.2534 87.4507C47.3706 87.3009 47.4292 87.1048 47.4292 86.8623C47.4292 86.6182 47.3698 86.4212 47.251 86.2715C47.1338 86.1201 46.9775 86.0444 46.7822 86.0444Z" fill="#222222"/>
<path d="M43.499 91H43.3105V90.3428H42.5938V91H42.4062V89.5781H42.5938V90.1895H43.3105V89.5781H43.499V91ZM44.9258 90.335C44.9258 90.4743 44.9023 90.596 44.8555 90.7002C44.8086 90.8037 44.7422 90.8828 44.6562 90.9375C44.5703 90.9922 44.4701 91.0195 44.3555 91.0195C44.2435 91.0195 44.1442 90.9922 44.0576 90.9375C43.971 90.8822 43.9036 90.8037 43.8555 90.7021C43.8079 90.5999 43.7835 90.4818 43.7822 90.3477V90.2451C43.7822 90.1084 43.806 89.9876 43.8535 89.8828C43.901 89.778 43.9681 89.6979 44.0547 89.6426C44.1419 89.5866 44.2415 89.5586 44.3535 89.5586C44.4674 89.5586 44.5677 89.5863 44.6543 89.6416C44.7415 89.6963 44.8086 89.776 44.8555 89.8809C44.9023 89.985 44.9258 90.1064 44.9258 90.2451V90.335ZM44.7393 90.2432C44.7393 90.0745 44.7054 89.9453 44.6377 89.8555C44.57 89.765 44.4753 89.7197 44.3535 89.7197C44.235 89.7197 44.1416 89.765 44.0732 89.8555C44.0055 89.9453 43.9707 90.0703 43.9688 90.2305V90.335C43.9688 90.4984 44.0029 90.627 44.0713 90.7207C44.1403 90.8138 44.235 90.8604 44.3555 90.8604C44.4766 90.8604 44.5703 90.8164 44.6367 90.7285C44.7031 90.64 44.7373 90.5133 44.7393 90.3486V90.2432ZM46.208 89.5781V90.5449C46.2074 90.679 46.165 90.7887 46.0811 90.874C45.9977 90.9593 45.8844 91.0072 45.7412 91.0176L45.6914 91.0195C45.5358 91.0195 45.4118 90.9775 45.3193 90.8936C45.2269 90.8096 45.18 90.694 45.1787 90.5469V89.5781H45.3643V90.541C45.3643 90.6439 45.3926 90.724 45.4492 90.7812C45.5059 90.8379 45.5866 90.8662 45.6914 90.8662C45.7975 90.8662 45.8786 90.8379 45.9346 90.7812C45.9912 90.7246 46.0195 90.6449 46.0195 90.542V89.5781H46.208ZM47.0254 90.4248H46.6914V91H46.5029V89.5781H46.9736C47.1338 89.5781 47.2568 89.6146 47.3428 89.6875C47.4294 89.7604 47.4727 89.8665 47.4727 90.0059C47.4727 90.0944 47.4486 90.1715 47.4004 90.2373C47.3529 90.3031 47.2865 90.3522 47.2012 90.3848L47.5352 90.9883V91H47.334L47.0254 90.4248ZM46.6914 90.2715H46.9795C47.0726 90.2715 47.1465 90.2474 47.2012 90.1992C47.2565 90.151 47.2842 90.0866 47.2842 90.0059C47.2842 89.918 47.2578 89.8506 47.2051 89.8037C47.153 89.7568 47.0775 89.7331 46.9785 89.7324H46.6914V90.2715ZM48.1553 90.3662C47.9945 90.32 47.8773 90.2633 47.8037 90.1963C47.7308 90.1286 47.6943 90.0452 47.6943 89.9463C47.6943 89.8343 47.7389 89.7419 47.8281 89.6689C47.918 89.5954 48.0345 89.5586 48.1777 89.5586C48.2754 89.5586 48.3623 89.5775 48.4385 89.6152C48.5153 89.653 48.5745 89.7051 48.6162 89.7715C48.6585 89.8379 48.6797 89.9105 48.6797 89.9893H48.4912C48.4912 89.9033 48.4639 89.8359 48.4092 89.7871C48.3545 89.7376 48.2773 89.7129 48.1777 89.7129C48.0853 89.7129 48.013 89.7334 47.9609 89.7744C47.9095 89.8148 47.8838 89.8711 47.8838 89.9434C47.8838 90.0013 47.9082 90.0505 47.957 90.0908C48.0065 90.1305 48.0902 90.167 48.208 90.2002C48.3265 90.2334 48.4189 90.2702 48.4854 90.3105C48.5524 90.3503 48.6019 90.3968 48.6338 90.4502C48.6663 90.5036 48.6826 90.5664 48.6826 90.6387C48.6826 90.7539 48.6377 90.8464 48.5479 90.916C48.458 90.985 48.3379 91.0195 48.1875 91.0195C48.0898 91.0195 47.9987 91.001 47.9141 90.9639C47.8294 90.9261 47.764 90.8747 47.7178 90.8096C47.6722 90.7445 47.6494 90.6706 47.6494 90.5879H47.8379C47.8379 90.6738 47.8695 90.7419 47.9326 90.792C47.9964 90.8415 48.0814 90.8662 48.1875 90.8662C48.2865 90.8662 48.3623 90.846 48.415 90.8057C48.4678 90.7653 48.4941 90.7103 48.4941 90.6406C48.4941 90.571 48.4697 90.5173 48.4209 90.4795C48.3721 90.4411 48.2835 90.4033 48.1553 90.3662Z" fill="#888888"/>
<path d="M51.9976 87.875C52.1082 87.875 52.1937 87.9067 52.2539 87.9702C52.3141 88.0321 52.3442 88.1102 52.3442 88.2046C52.3442 88.2974 52.3141 88.3747 52.2539 88.4365C52.1937 88.4967 52.1082 88.5269 51.9976 88.5269C51.8918 88.5269 51.8079 88.4967 51.7461 88.4365C51.6842 88.3763 51.6533 88.299 51.6533 88.2046C51.6533 88.1102 51.6834 88.0321 51.7437 87.9702C51.8039 87.9067 51.8885 87.875 51.9976 87.875ZM51.9976 85.8022C52.1082 85.8022 52.1937 85.834 52.2539 85.8975C52.3141 85.9593 52.3442 86.0374 52.3442 86.1318C52.3442 86.2246 52.3141 86.3019 52.2539 86.3638C52.1937 86.424 52.1082 86.4541 51.9976 86.4541C51.8918 86.4541 51.8079 86.424 51.7461 86.3638C51.6842 86.3035 51.6533 86.2262 51.6533 86.1318C51.6533 86.0374 51.6834 85.9593 51.7437 85.8975C51.8039 85.834 51.8885 85.8022 51.9976 85.8022Z" fill="black"/>
<path d="M56.0029 86.2178L56.1836 84.4453H58.0049V84.8628H56.5669L56.4595 85.832C56.6336 85.7295 56.8314 85.6782 57.0527 85.6782C57.3766 85.6782 57.6338 85.7856 57.8242 86.0005C58.0146 86.2137 58.1099 86.5026 58.1099 86.8672C58.1099 87.2334 58.0106 87.5223 57.812 87.7339C57.6151 87.9438 57.3392 88.0488 56.9844 88.0488C56.6702 88.0488 56.4139 87.9618 56.2153 87.7876C56.0168 87.6134 55.9036 87.3726 55.876 87.0649H56.3032C56.3309 87.2684 56.4033 87.4222 56.5205 87.5264C56.6377 87.6289 56.7923 87.6802 56.9844 87.6802C57.1943 87.6802 57.3587 87.6086 57.4775 87.4653C57.598 87.3221 57.6582 87.1243 57.6582 86.8721C57.6582 86.6344 57.5931 86.444 57.4629 86.3008C57.3343 86.1559 57.1626 86.0835 56.9478 86.0835C56.7508 86.0835 56.5962 86.1266 56.4839 86.2129L56.3643 86.3105L56.0029 86.2178ZM59.2598 86.0029H59.5991C59.8123 85.9997 59.98 85.9435 60.1021 85.8345C60.2241 85.7254 60.2852 85.5781 60.2852 85.3926C60.2852 84.9759 60.0776 84.7676 59.6626 84.7676C59.4673 84.7676 59.311 84.8237 59.1938 84.936C59.0783 85.0467 59.0205 85.194 59.0205 85.3779H58.5688C58.5688 85.0964 58.6714 84.8628 58.8765 84.6772C59.0832 84.4901 59.3452 84.3965 59.6626 84.3965C59.9979 84.3965 60.2607 84.4852 60.4512 84.6626C60.6416 84.84 60.7368 85.0866 60.7368 85.4023C60.7368 85.557 60.6864 85.7067 60.5854 85.8516C60.4862 85.9964 60.3503 86.1047 60.1777 86.1763C60.373 86.2381 60.5236 86.3407 60.6294 86.4839C60.7368 86.6271 60.7905 86.8021 60.7905 87.0088C60.7905 87.3278 60.6864 87.5809 60.478 87.7681C60.2697 87.9552 59.9987 88.0488 59.665 88.0488C59.3314 88.0488 59.0596 87.9585 58.8496 87.7778C58.6413 87.5972 58.5371 87.3587 58.5371 87.0625H58.9912C58.9912 87.2497 59.0522 87.3994 59.1743 87.5117C59.2964 87.624 59.46 87.6802 59.665 87.6802C59.8831 87.6802 60.05 87.6232 60.1655 87.5093C60.2811 87.3953 60.3389 87.2318 60.3389 87.0186C60.3389 86.8118 60.2754 86.6532 60.1484 86.5425C60.0215 86.4318 59.8384 86.3748 59.5991 86.3716H59.2598V86.0029Z" fill="#222222"/>
<path d="M56.4551 89.5781L56.9199 90.7383L57.3848 89.5781H57.6279V91H57.4404V90.4463L57.458 89.8486L56.9912 91H56.8477L56.3818 89.8516L56.4004 90.4463V91H56.2129V89.5781H56.4551ZM58.1602 91H57.9727V89.5781H58.1602V91ZM59.5967 91H59.4082L58.6924 89.9043V91H58.5039V89.5781H58.6924L59.4102 90.6787V89.5781H59.5967V91ZM60.3486 90.3662C60.1878 90.32 60.0706 90.2633 59.9971 90.1963C59.9242 90.1286 59.8877 90.0452 59.8877 89.9463C59.8877 89.8343 59.9323 89.7419 60.0215 89.6689C60.1113 89.5954 60.2279 89.5586 60.3711 89.5586C60.4688 89.5586 60.5557 89.5775 60.6318 89.6152C60.7087 89.653 60.7679 89.7051 60.8096 89.7715C60.8519 89.8379 60.873 89.9105 60.873 89.9893H60.6846C60.6846 89.9033 60.6572 89.8359 60.6025 89.7871C60.5479 89.7376 60.4707 89.7129 60.3711 89.7129C60.2786 89.7129 60.2064 89.7334 60.1543 89.7744C60.1029 89.8148 60.0771 89.8711 60.0771 89.9434C60.0771 90.0013 60.1016 90.0505 60.1504 90.0908C60.1999 90.1305 60.2835 90.167 60.4014 90.2002C60.5199 90.2334 60.6123 90.2702 60.6787 90.3105C60.7458 90.3503 60.7952 90.3968 60.8271 90.4502C60.8597 90.5036 60.876 90.5664 60.876 90.6387C60.876 90.7539 60.8311 90.8464 60.7412 90.916C60.6514 90.985 60.5312 91.0195 60.3809 91.0195C60.2832 91.0195 60.1921 91.001 60.1074 90.9639C60.0228 90.9261 59.9574 90.8747 59.9111 90.8096C59.8656 90.7445 59.8428 90.6706 59.8428 90.5879H60.0312C60.0312 90.6738 60.0628 90.7419 60.126 90.792C60.1898 90.8415 60.2747 90.8662 60.3809 90.8662C60.4798 90.8662 60.5557 90.846 60.6084 90.8057C60.6611 90.7653 60.6875 90.7103 60.6875 90.6406C60.6875 90.571 60.6631 90.5173 60.6143 90.4795C60.5654 90.4411 60.4769 90.4033 60.3486 90.3662Z" fill="#888888"/>
<path d="M64.9976 87.875C65.1082 87.875 65.1937 87.9067 65.2539 87.9702C65.3141 88.0321 65.3442 88.1102 65.3442 88.2046C65.3442 88.2974 65.3141 88.3747 65.2539 88.4365C65.1937 88.4967 65.1082 88.5269 64.9976 88.5269C64.8918 88.5269 64.8079 88.4967 64.7461 88.4365C64.6842 88.3763 64.6533 88.299 64.6533 88.2046C64.6533 88.1102 64.6834 88.0321 64.7437 87.9702C64.8039 87.9067 64.8885 87.875 64.9976 87.875ZM64.9976 85.8022C65.1082 85.8022 65.1937 85.834 65.2539 85.8975C65.3141 85.9593 65.3442 86.0374 65.3442 86.1318C65.3442 86.2246 65.3141 86.3019 65.2539 86.3638C65.1937 86.424 65.1082 86.4541 64.9976 86.4541C64.8918 86.4541 64.8079 86.424 64.7461 86.3638C64.6842 86.3035 64.6533 86.2262 64.6533 86.1318C64.6533 86.0374 64.6834 85.9593 64.7437 85.8975C64.8039 85.834 64.8885 85.8022 64.9976 85.8022Z" fill="black"/>
<path d="M70.6245 88H68.2954V87.6753L69.5259 86.3081C69.7082 86.1014 69.8335 85.9338 69.9019 85.8052C69.9718 85.675 70.0068 85.5407 70.0068 85.4023C70.0068 85.2168 69.9507 85.0646 69.8384 84.9458C69.7261 84.827 69.5763 84.7676 69.3892 84.7676C69.1646 84.7676 68.9896 84.8319 68.8643 84.9604C68.7406 85.0874 68.6787 85.2648 68.6787 85.4927H68.2271C68.2271 85.1655 68.332 84.901 68.542 84.6992C68.7536 84.4974 69.036 84.3965 69.3892 84.3965C69.7196 84.3965 69.9808 84.4836 70.1729 84.6577C70.3649 84.8302 70.4609 85.0605 70.4609 85.3486C70.4609 85.6986 70.238 86.1152 69.792 86.5986L68.8398 87.6313H70.6245V88ZM73.3979 84.6992L71.9258 88H71.4521L72.9194 84.8164H70.9956V84.4453H73.3979V84.6992Z" fill="#222222"/>
<path d="M68.9768 90.3662C68.816 90.32 68.6988 90.2633 68.6252 90.1963C68.5523 90.1286 68.5158 90.0452 68.5158 89.9463C68.5158 89.8343 68.5604 89.7419 68.6496 89.6689C68.7395 89.5954 68.856 89.5586 68.9992 89.5586C69.0969 89.5586 69.1838 89.5775 69.26 89.6152C69.3368 89.653 69.396 89.7051 69.4377 89.7715C69.48 89.8379 69.5012 89.9105 69.5012 89.9893H69.3127C69.3127 89.9033 69.2854 89.8359 69.2307 89.7871C69.176 89.7376 69.0988 89.7129 68.9992 89.7129C68.9068 89.7129 68.8345 89.7334 68.7824 89.7744C68.731 89.8148 68.7053 89.8711 68.7053 89.9434C68.7053 90.0013 68.7297 90.0505 68.7785 90.0908C68.828 90.1305 68.9117 90.167 69.0295 90.2002C69.148 90.2334 69.2404 90.2702 69.3068 90.3105C69.3739 90.3503 69.4234 90.3968 69.4553 90.4502C69.4878 90.5036 69.5041 90.5664 69.5041 90.6387C69.5041 90.7539 69.4592 90.8464 69.3693 90.916C69.2795 90.985 69.1594 91.0195 69.009 91.0195C68.9113 91.0195 68.8202 91.001 68.7355 90.9639C68.6509 90.9261 68.5855 90.8747 68.5393 90.8096C68.4937 90.7445 68.4709 90.6706 68.4709 90.5879H68.6594C68.6594 90.6738 68.691 90.7419 68.7541 90.792C68.8179 90.8415 68.9029 90.8662 69.009 90.8662C69.1079 90.8662 69.1838 90.846 69.2365 90.8057C69.2893 90.7653 69.3156 90.7103 69.3156 90.6406C69.3156 90.571 69.2912 90.5173 69.2424 90.4795C69.1936 90.4411 69.105 90.4033 68.9768 90.3662ZM70.549 90.3428H69.9328V90.8467H70.6486V91H69.7453V89.5781H70.6389V89.7324H69.9328V90.1895H70.549V90.3428ZM71.9279 90.5488C71.9104 90.6992 71.8547 90.8154 71.7609 90.8975C71.6678 90.9788 71.5438 91.0195 71.3889 91.0195C71.2209 91.0195 71.0861 90.9593 70.9846 90.8389C70.8837 90.7184 70.8332 90.5573 70.8332 90.3555V90.2188C70.8332 90.0866 70.8566 89.9704 70.9035 89.8701C70.951 89.7699 71.0181 89.693 71.1047 89.6396C71.1913 89.5856 71.2915 89.5586 71.4055 89.5586C71.5565 89.5586 71.6776 89.6009 71.7688 89.6855C71.8599 89.7695 71.913 89.8861 71.9279 90.0352H71.7395C71.7232 89.9219 71.6877 89.8398 71.633 89.7891C71.579 89.7383 71.5031 89.7129 71.4055 89.7129C71.2857 89.7129 71.1916 89.7572 71.1232 89.8457C71.0555 89.9342 71.0217 90.0602 71.0217 90.2236V90.3613C71.0217 90.5156 71.0539 90.6383 71.1184 90.7295C71.1828 90.8206 71.273 90.8662 71.3889 90.8662C71.493 90.8662 71.5728 90.8428 71.6281 90.7959C71.6841 90.7484 71.7212 90.666 71.7395 90.5488H71.9279ZM72.6037 90.3662C72.4429 90.32 72.3257 90.2633 72.2522 90.1963C72.1792 90.1286 72.1428 90.0452 72.1428 89.9463C72.1428 89.8343 72.1874 89.7419 72.2766 89.6689C72.3664 89.5954 72.4829 89.5586 72.6262 89.5586C72.7238 89.5586 72.8107 89.5775 72.8869 89.6152C72.9637 89.653 73.023 89.7051 73.0647 89.7715C73.107 89.8379 73.1281 89.9105 73.1281 89.9893H72.9397C72.9397 89.9033 72.9123 89.8359 72.8576 89.7871C72.8029 89.7376 72.7258 89.7129 72.6262 89.7129C72.5337 89.7129 72.4615 89.7334 72.4094 89.7744C72.3579 89.8148 72.3322 89.8711 72.3322 89.9434C72.3322 90.0013 72.3566 90.0505 72.4055 90.0908C72.455 90.1305 72.5386 90.167 72.6564 90.2002C72.7749 90.2334 72.8674 90.2702 72.9338 90.3105C73.0008 90.3503 73.0503 90.3968 73.0822 90.4502C73.1148 90.5036 73.1311 90.5664 73.1311 90.6387C73.1311 90.7539 73.0861 90.8464 72.9963 90.916C72.9064 90.985 72.7863 91.0195 72.6359 91.0195C72.5383 91.0195 72.4471 91.001 72.3625 90.9639C72.2779 90.9261 72.2124 90.8747 72.1662 90.8096C72.1206 90.7445 72.0979 90.6706 72.0979 90.5879H72.2863C72.2863 90.6738 72.3179 90.7419 72.3811 90.792C72.4449 90.8415 72.5298 90.8662 72.6359 90.8662C72.7349 90.8662 72.8107 90.846 72.8635 90.8057C72.9162 90.7653 72.9426 90.7103 72.9426 90.6406C72.9426 90.571 72.9182 90.5173 72.8693 90.4795C72.8205 90.4411 72.732 90.4033 72.6037 90.3662Z" fill="#888888"/>
</svg>
