<svg width="150" height="150" viewBox="0 0 100 100" fill="none" xmlns="http://www.w3.org/2000/svg">
<rect width="100" height="100" fill="white"/>
<rect x="30" y="21" width="40" height="48.8889" fill="#E1E1E1"/>
<path d="M53.6938 42.7531L53.6938 49.4345H50.2519H46.8099L46.8099 42.7531H53.6938ZM53.6938 41.7407H46.8099C46.2025 41.7407 46 42.3481 46 42.5506V49.4345C46 50.042 46.6074 50.2444 46.8099 50.2444H53.6938C54.3012 50.2444 54.5037 49.637 54.5037 49.4345V42.7531C54.5037 42.3481 54.3012 41.7407 53.6938 41.7407ZM51.2642 46.3975L49.8469 48.4222L48.6321 47.2074L47.2148 49.0296H53.2889C53.0864 48.8271 51.2642 46.3975 51.2642 46.3975Z" fill="#888888"/>
<rect x="50" y="73" width="7" height="2" fill="#888888"/>
<rect x="42" y="73" width="7" height="2" fill="#888888"/>
<rect x="6" y="7" width="20.2299" height="2" fill="#E1E1E1"/>
<rect x="6" y="11" width="29" height="2" fill="#888888"/>
<path d="M77.8707 8.40851L76.6716 8.22602L76.1356 7.08803C76.1209 7.05688 76.0968 7.03165 76.0671 7.01632C75.9925 6.97775 75.9018 7.00989 75.8645 7.08803L75.3284 8.22602L74.1293 8.40851C74.0962 8.41346 74.066 8.42978 74.0429 8.45451C74.0149 8.48462 73.9995 8.52513 74 8.56714C74.0005 8.60915 74.017 8.64922 74.0457 8.67854L74.9133 9.5643L74.7083 10.8151C74.7035 10.8441 74.7066 10.8741 74.7172 10.9014C74.7278 10.9288 74.7455 10.9525 74.7683 10.9698C74.7911 10.9872 74.8181 10.9975 74.8463 10.9996C74.8744 11.0017 74.9025 10.9955 74.9275 10.9817L76 10.3912L77.0726 10.9817C77.1018 10.998 77.1358 11.0035 77.1684 10.9975C77.2506 10.9827 77.3059 10.9011 77.2917 10.8151L77.0867 9.5643L77.9543 8.67854C77.9779 8.65431 77.9935 8.62266 77.9982 8.58804C78.011 8.50149 77.9534 8.42137 77.8707 8.40851Z" fill="#E1E1E1"/>
<path d="M81.8707 8.40851L80.6716 8.22602L80.1356 7.08803C80.1209 7.05688 80.0968 7.03165 80.0671 7.01632C79.9925 6.97775 79.9018 7.00989 79.8645 7.08803L79.3284 8.22602L78.1293 8.40851C78.0962 8.41346 78.066 8.42978 78.0429 8.45451C78.0149 8.48462 77.9995 8.52513 78 8.56714C78.0005 8.60915 78.017 8.64922 78.0457 8.67854L78.9133 9.5643L78.7083 10.8151C78.7035 10.8441 78.7066 10.8741 78.7172 10.9014C78.7278 10.9288 78.7455 10.9525 78.7683 10.9698C78.7911 10.9872 78.8181 10.9975 78.8463 10.9996C78.8744 11.0017 78.9025 10.9955 78.9275 10.9817L80 10.3912L81.0726 10.9817C81.1018 10.998 81.1358 11.0035 81.1684 10.9975C81.2506 10.9827 81.3059 10.9011 81.2917 10.8151L81.0867 9.5643L81.9543 8.67854C81.9779 8.65431 81.9935 8.62266 81.9982 8.58804C82.011 8.50149 81.9534 8.42137 81.8707 8.40851Z" fill="#E1E1E1"/>
<path d="M85.8707 8.40851L84.6716 8.22602L84.1356 7.08803C84.1209 7.05688 84.0968 7.03165 84.0671 7.01632C83.9925 6.97775 83.9018 7.00989 83.8645 7.08803L83.3284 8.22602L82.1293 8.40851C82.0962 8.41346 82.066 8.42978 82.0429 8.45451C82.0149 8.48462 81.9995 8.52513 82 8.56714C82.0005 8.60915 82.017 8.64922 82.0457 8.67854L82.9133 9.5643L82.7083 10.8151C82.7035 10.8441 82.7066 10.8741 82.7172 10.9014C82.7278 10.9288 82.7455 10.9525 82.7683 10.9698C82.7911 10.9872 82.8181 10.9975 82.8463 10.9996C82.8744 11.0017 82.9025 10.9955 82.9275 10.9817L84 10.3912L85.0726 10.9817C85.1018 10.998 85.1358 11.0035 85.1684 10.9975C85.2506 10.9827 85.3059 10.9011 85.2917 10.8151L85.0867 9.5643L85.9543 8.67854C85.9779 8.65431 85.9935 8.62266 85.9982 8.58804C86.011 8.50149 85.9534 8.42137 85.8707 8.40851Z" fill="#E1E1E1"/>
<path d="M89.8707 8.40851L88.6716 8.22602L88.1356 7.08803C88.1209 7.05688 88.0968 7.03165 88.0671 7.01632C87.9925 6.97775 87.9018 7.00989 87.8645 7.08803L87.3284 8.22602L86.1293 8.40851C86.0962 8.41346 86.066 8.42978 86.0429 8.45451C86.0149 8.48462 85.9995 8.52513 86 8.56714C86.0005 8.60915 86.017 8.64922 86.0457 8.67854L86.9133 9.5643L86.7083 10.8151C86.7035 10.8441 86.7066 10.8741 86.7172 10.9014C86.7278 10.9288 86.7455 10.9525 86.7683 10.9698C86.7911 10.9872 86.8181 10.9975 86.8463 10.9996C86.8744 11.0017 86.9025 10.9955 86.9275 10.9817L88 10.3912L89.0726 10.9817C89.1018 10.998 89.1358 11.0035 89.1684 10.9975C89.2506 10.9827 89.3059 10.9011 89.2917 10.8151L89.0867 9.5643L89.9543 8.67854C89.9779 8.65431 89.9935 8.62266 89.9982 8.58804C90.011 8.50149 89.9534 8.42137 89.8707 8.40851Z" fill="#E1E1E1"/>
<path d="M93.8707 8.40851L92.6716 8.22602L92.1356 7.08803C92.1209 7.05688 92.0968 7.03165 92.0671 7.01632C91.9925 6.97775 91.9018 7.00989 91.8645 7.08803L91.3284 8.22602L90.1293 8.40851C90.0962 8.41346 90.066 8.42978 90.0429 8.45451C90.0149 8.48462 89.9995 8.52513 90 8.56714C90.0005 8.60915 90.017 8.64922 90.0457 8.67854L90.9133 9.5643L90.7083 10.8151C90.7035 10.8441 90.7066 10.8741 90.7172 10.9014C90.7278 10.9288 90.7455 10.9525 90.7683 10.9698C90.7911 10.9872 90.8181 10.9975 90.8463 10.9996C90.8744 11.0017 90.9025 10.9955 90.9275 10.9817L92 10.3912L93.0726 10.9817C93.1018 10.998 93.1358 11.0035 93.1684 10.9975C93.2506 10.9827 93.3059 10.9011 93.2917 10.8151L93.0867 9.5643L93.9543 8.67854C93.9779 8.65431 93.9935 8.62266 93.9982 8.58804C94.011 8.50149 93.9534 8.42137 93.8707 8.40851Z" fill="#E1E1E1"/>
<circle cx="25.5" cy="86.5" r="6" fill="white" stroke="#E1E1E1"/>
<circle cx="41.5" cy="86.5" r="6" fill="white" stroke="#E1E1E1"/>
<circle cx="57.5" cy="86.5" r="6" fill="white" stroke="#E1E1E1"/>
<circle cx="73.5" cy="86.5" r="6" fill="white" stroke="#E1E1E1"/>
<rect width="3" height="4" transform="matrix(-1 0 0 1 28.5 79)" fill="white"/>
<rect width="4" height="6" transform="matrix(-1 0 0 1 45.5 79)" fill="white"/>
<rect width="4" height="6" transform="matrix(-0.472367 -0.881402 -0.881402 0.472367 49.5889 82.3457)" fill="white"/>
<rect width="4" height="6" transform="matrix(-1 8.74228e-08 8.74228e-08 1 61.5 79)" fill="white"/>
<rect width="3.89434" height="6" transform="matrix(0.389432 -0.921055 -0.921055 -0.389432 65.1658 89.7438)" fill="white"/>
<rect width="3.89434" height="6" transform="matrix(0.389432 -0.921055 -0.921055 -0.389432 65.1658 85.9235)" fill="white"/>
<rect width="3.89434" height="2" transform="matrix(-4.37114e-08 -1 -1 4.37114e-08 75.5 81.8943)" fill="white"/>
<rect width="3.89434" height="2" transform="matrix(0.363011 -0.931785 -0.931785 -0.363011 75.2249 82.1245)" fill="white"/>
<rect width="8" height="6" transform="matrix(1.19249e-08 -1 -1 -1.19249e-08 33 87)" fill="white"/>
</svg>
