<?xml version="1.0" encoding="utf-8"?>
<!-- Generator: Adobe Illustrator 16.0.0, SVG Export Plug-In . SVG Version: 6.00 Build 0)  -->
<!DOCTYPE svg PUBLIC "-//W3C//DTD SVG 1.1//EN" "http://www.w3.org/Graphics/SVG/1.1/DTD/svg11.dtd">
<svg version="1.1" id="Layer_1" xmlns="http://www.w3.org/2000/svg" xmlns:xlink="http://www.w3.org/1999/xlink" x="0px" y="0px"
	 width="612px" height="792px" viewBox="0 0 612 792" enable-background="new 0 0 612 792" xml:space="preserve">
<g>
	<path d="M98.251,298.769c-24.378,0-44.191,19.839-44.191,44.191v106.08c0,24.378,19.839,44.191,44.191,44.191h100.75
		l199.844,129.412V169.356L198.977,298.769H98.251z M195.483,475.586H98.251c-14.637,0-26.52-11.909-26.52-26.521v-106.08
		c0-14.637,11.909-26.52,26.52-26.52h97.257v159.12H195.483z M213.18,310.651l167.968-108.783v388.289L213.18,481.399V310.651z"/>
	<path d="M508.572,396.025l46.792-46.792c3.442-3.442,3.442-9.053,0-12.495s-9.052-3.442-12.495,0l-46.792,46.792l-46.793-46.792
		c-3.442-3.442-9.052-3.442-12.495,0c-3.442,3.442-3.442,9.053,0,12.495l46.793,46.792l-46.793,46.793
		c-3.442,3.442-3.442,9.053,0,12.495c1.734,1.733,3.979,2.601,6.248,2.601s4.514-0.867,6.247-2.601l46.793-46.793l46.792,46.793
		c1.734,1.733,3.979,2.601,6.248,2.601s4.514-0.867,6.247-2.601c3.442-3.442,3.442-9.053,0-12.495L508.572,396.025z"/>
</g>
</svg>
