<?xml version="1.0" encoding="utf-8"?>
<!-- Generator: Adobe Illustrator 16.0.0, SVG Export Plug-In . SVG Version: 6.00 Build 0)  -->
<!DOCTYPE svg PUBLIC "-//W3C//DTD SVG 1.1//EN" "http://www.w3.org/Graphics/SVG/1.1/DTD/svg11.dtd">
<svg version="1.1" id="Layer_1" xmlns="http://www.w3.org/2000/svg" xmlns:xlink="http://www.w3.org/1999/xlink" x="0px" y="0px"
	 width="612px" height="792px" viewBox="0 0 612 792" enable-background="new 0 0 612 792" xml:space="preserve">
<g>
	<path d="M125.205,315.165c-20.247,0-36.746,16.473-36.746,36.745v88.179c0,20.247,16.473,36.746,36.746,36.746h83.742
		L375.054,584.42V207.58L208.947,315.165H125.205z M206.04,462.146h-80.835c-12.164,0-22.058-9.894-22.058-22.058V351.91
		c0-12.163,9.894-22.058,22.058-22.058h80.835V462.146z M220.728,325.033l139.638-90.423V557.39l-139.638-90.424V325.033z"/>
	<path d="M434.877,339.466c-3.621-1.81-7.981-0.356-9.792,3.239c-1.836,3.595-0.408,8.007,3.188,9.868
		c0.867,0.459,20.986,11.297,20.986,43.427s-20.119,42.967-20.91,43.4c-3.621,1.811-5.1,6.223-3.289,9.869
		c1.301,2.575,3.876,4.055,6.579,4.055c1.097,0,2.219-0.256,3.289-0.766c1.173-0.586,29.045-14.994,29.045-56.533
		C463.922,354.46,436.075,340.053,434.877,339.466z"/>
	<path d="M471.699,292.725c-3.392-2.27-7.931-1.352-10.2,2.04c-2.244,3.366-1.326,7.931,2.04,10.2
		c0.459,0.306,45.313,30.906,45.313,91.061c0,59.849-43.478,89.811-45.313,91.061c-3.366,2.244-4.284,6.809-2.04,10.2
		c1.428,2.116,3.748,3.264,6.12,3.264c1.402,0,2.805-0.408,4.08-1.224c2.116-1.402,51.841-35.344,51.841-103.275
		C523.541,328.067,473.815,294.127,471.699,292.725z"/>
</g>
</svg>
