<?xml version="1.0" encoding="utf-8"?>
<!-- Generator: Adobe Illustrator 21.0.0, SVG Export Plug-In . SVG Version: 6.00 Build 0)  -->
<svg version="1.1" id="Layer_1" xmlns="http://www.w3.org/2000/svg" width="70" height="70" xmlns:xlink="http://www.w3.org/1999/xlink" x="0px" y="0px"
	 viewBox="0 0 50 50" style="enable-background:new 0 0 50 50;" xml:space="preserve">
<style type="text/css">
	.st0{fill:#F2F2F2;}
	.st1{fill:#222222;}
</style>
<rect id="Background" class="st0" width="50" height="50"/>
<g>
	<rect x="6.1972656" y="20.9335938" class="st1" width="1.4003906" height="8.5664062"/>
	<path class="st1" d="M13.0820312,22.9023438c-0.4375,0-0.8359375,0.0839844-1.1953125,0.2519531
		s-0.6367188,0.40625-0.8320312,0.7148438H10.984375l-0.1933594-0.8496094h-1.078125V29.5h1.3769531v-3.2285156
		c0-0.8085938,0.1347656-1.3847656,0.4042969-1.7285156s0.6953125-0.515625,1.2773438-0.515625
		c0.4375,0,0.7568359,0.1230469,0.9580078,0.3691406S14.03125,25.015625,14.03125,25.515625V29.5h1.3828125v-4.2246094
		C15.4140625,23.6933594,14.6367188,22.9023438,13.0820312,22.9023438z"/>
	<path class="st1" d="M20.6757812,22.9023438c-0.4453125,0-0.8349609,0.0859375-1.1689453,0.2578125
		s-0.5947266,0.4140625-0.7822266,0.7265625h-0.0878906c0.046875-0.421875,0.0703125-0.8183594,0.0703125-1.1894531v-2.3144531
		h-1.3769531V29.5h1.3769531v-3.2167969c0-0.8125,0.1357422-1.3916016,0.4072266-1.7373047s0.6962891-0.5185547,1.2744141-0.5185547
		c0.4375,0,0.7568359,0.1230469,0.9580078,0.3691406s0.3017578,0.6191406,0.3017578,1.1191406V29.5H23.03125v-4.2246094
		C23.03125,23.6933594,22.2460938,22.9023438,20.6757812,22.9023438z"/>
	<path class="st1" d="M27.5253906,22.9023438c-0.921875,0-1.6464844,0.3027344-2.1738281,0.9082031
		s-0.7910156,1.4375-0.7910156,2.4960938c0,1.03125,0.2841797,1.8408203,0.8525391,2.4287109
		s1.3564453,0.8818359,2.3642578,0.8818359c0.4414062,0,0.8339844-0.0332031,1.1777344-0.0996094
		s0.6835938-0.1796875,1.0195312-0.3398438v-1.1191406c-0.3789062,0.1679688-0.7333984,0.2880859-1.0634766,0.3603516
		s-0.6865234,0.1083984-1.0693359,0.1083984c-0.5820312,0-1.0332031-0.1689453-1.3535156-0.5068359
		s-0.4902344-0.8212891-0.5097656-1.4501953h4.3183594v-0.7441406c0-0.9101562-0.2480469-1.625-0.7441406-2.1445312
		S28.3808594,22.9023438,27.5253906,22.9023438z M26.0019531,25.5742188c0.0507812-0.53125,0.2080078-0.9355469,0.4716797-1.2128906
		s0.6142578-0.4160156,1.0517578-0.4160156s0.78125,0.1376953,1.03125,0.4130859s0.3789062,0.6806641,0.3867188,1.2158203
		H26.0019531z"/>
	<path class="st1" d="M34.0322266,23.2421875c-0.3457031,0.2265625-0.6259766,0.5332031-0.8408203,0.9199219h-0.0703125
		l-0.1816406-1.1425781h-1.078125V29.5h1.3769531v-3.3867188c0-0.5742188,0.1708984-1.0410156,0.5126953-1.4003906
		s0.7880859-0.5390625,1.3388672-0.5390625c0.2109375,0,0.4140625,0.0234375,0.609375,0.0703125l0.1347656-1.2832031
		c-0.1796875-0.0390625-0.4082031-0.0585938-0.6855469-0.0585938C34.75,22.9023438,34.3779297,23.015625,34.0322266,23.2421875z"/>
	<path class="st1" d="M37.7324219,20.5351562c-0.25,0-0.4423828,0.0664062-0.5771484,0.1992188
		s-0.2021484,0.3222656-0.2021484,0.5683594c0,0.234375,0.0673828,0.4189453,0.2021484,0.5537109
		s0.3271484,0.2021484,0.5771484,0.2021484c0.2421875,0,0.4306641-0.0673828,0.5654297-0.2021484S38.5,21.5371094,38.5,21.3027344
		c0-0.2460938-0.0673828-0.4355469-0.2021484-0.5683594S37.9746094,20.5351562,37.7324219,20.5351562z"/>
	<rect x="37.0351562" y="23.0195312" class="st1" width="1.3769531" height="6.4804688"/>
	<path class="st1" d="M42.7949219,28.5039062c-0.2695312,0-0.4873047-0.0791016-0.6533203-0.2373047
		s-0.2490234-0.4033203-0.2490234-0.7353516V24.0625h1.8457031v-1.0429688h-1.8457031V21.578125h-0.8496094l-0.46875,1.3710938
		L39.625,23.453125V24.0625h0.8847656v3.4921875c0,1.375,0.6523438,2.0625,1.9570312,2.0625
		c0.2578125,0,0.5068359-0.0224609,0.7470703-0.0673828s0.4365234-0.1005859,0.5888672-0.1669922v-1.0371094
		C43.4667969,28.4511719,43.1308594,28.5039062,42.7949219,28.5039062z"/>
</g>
</svg>
