<?xml version="1.0" encoding="utf-8"?>
<!-- Generator: Adobe Illustrator 24.2.0, SVG Export Plug-In . SVG Version: 6.00 Build 0)  -->
<svg version="1.1" id="Layer_1" xmlns="http://www.w3.org/2000/svg" width="70" height="70" xmlns:xlink="http://www.w3.org/1999/xlink" x="0px" y="0px"
	 viewBox="0 0 70 70" style="enable-background:new 0 0 70 70;" xml:space="preserve">
<style type="text/css">
	.st0{fill:#F2F2F2;}
	.st1{display:none;}
	.st2{display:inline;fill:#222222;}
	.st3{fill:#222222;}
</style>
<rect id="Background" class="st0" width="70" height="70"/>
<g class="st1">
	<rect x="8.6761713" y="29.3070316" class="st2" width="1.9605469" height="11.9929686"/>
	<path class="st2" d="M18.3148441,32.063282c-0.6125011,0-1.1703129,0.1175766-1.673439,0.3527336
		c-0.5031242,0.235157-0.8914051,0.5687485-1.1648426,1.000782h-0.0984373l-0.2707033-1.1894531h-1.5093756v9.0726547h1.9277344
		v-4.5199203c0-1.1320343,0.1886721-1.9386749,0.5660162-2.4199219c0.3773441-0.4812508,0.9734364-0.7218781,1.7882805-0.7218781
		c0.6125011,0,1.0595703,0.1722679,1.3412113,0.5167999c0.281641,0.3445282,0.4224606,0.8667946,0.4224606,1.5667953v5.578125
		h1.9359379v-5.9144516C21.5796871,33.1707039,20.4914055,32.063282,18.3148441,32.063282z"/>
	<path class="st2" d="M28.9460926,32.063282c-0.623436,0-1.1689453,0.1203117-1.6365223,0.3609352
		c-0.4675789,0.2406273-0.8326168,0.579689-1.0951176,1.017189h-0.1230469
		c0.0656242-0.5906258,0.0984383-1.1457024,0.0984383-1.6652355v-3.2402344h-1.9277344v12.7640629h1.9277344v-4.5035172
		c0-1.1374969,0.1900387-1.9482422,0.570116-2.4322243c0.3800793-0.4839859,0.9748058-0.7259789,1.7841797-0.7259789
		c0.6125011,0,1.0595703,0.1722679,1.3412113,0.5167999c0.281641,0.3445282,0.4224606,0.8667946,0.4224606,1.5667953v5.578125
		h1.935936v-5.9144516C32.2437477,33.1707039,31.1445312,32.063282,28.9460926,32.063282z"/>
	<path class="st2" d="M38.5355453,32.063282c-1.2906227,0-2.3050766,0.4238281-3.0433578,1.2714844
		s-1.1074219,2.0124969-1.1074219,3.4945297c0,1.4437485,0.39785,2.5771484,1.1935539,3.4001961
		s1.899025,1.2345695,3.3099594,1.2345695c0.6179695,0,1.1675797-0.0464859,1.6488304-0.1394539
		s0.9570312-0.2515602,1.4273415-0.4757805V39.282032c-0.530468,0.2351532-1.0267563,0.4033203-1.4888649,0.5044899
		c-0.4621086,0.1011734-0.961132,0.1517601-1.4970703,0.1517601c-0.814846,0-1.4464836-0.2365265-1.8949242-0.7095718
		c-0.4484367-0.4730453-0.6863251-1.1498032-0.7136688-2.0302734h6.0457001v-1.0417976
		c0-1.2742195-0.3472633-2.2749977-1.0417938-3.0023422C40.6792946,32.4269524,39.7332039,32.063282,38.5355453,32.063282z
		 M36.4027328,35.8039055c0.0710945-0.7437515,0.2912102-1.3097649,0.6603508-1.6980476
		c0.3691406-0.388279,0.8599625-0.5824203,1.4724617-0.5824203s1.09375,0.1927719,1.4437523,0.5783195
		c0.3499985,0.3855476,0.530468,0.9529305,0.5414047,1.7021484H36.4027328z"/>
	<path class="st2" d="M47.6451149,32.5390625c-0.4839821,0.3171883-0.8763657,0.7464828-1.1771469,1.2878914h-0.0984383
		l-0.2542953-1.5996094h-1.5093765v9.0726547h1.9277344v-4.7414055c0-0.8039055,0.2392578-1.4574242,0.7177734-1.9605484
		s1.1033211-0.7546883,1.8744164-0.7546883c0.295311,0,0.5796852,0.032814,0.8531227,0.0984383l0.1886711-1.7964821
		c-0.2515602-0.0546875-0.5714836-0.0820312-0.9597626-0.0820312C48.6499977,32.063282,48.1291008,32.2218742,47.6451149,32.5390625
		z"/>
	<path class="st2" d="M52.8253899,28.749218c-0.3499985,0-0.6193352,0.0929699-0.8080063,0.2789059
		c-0.1886749,0.1859379-0.2830086,0.4511719-0.2830086,0.7957039c0,0.328125,0.0943336,0.5865231,0.2830086,0.7751961
		c0.1886711,0.1886711,0.4580078,0.2830067,0.8080063,0.2830067c0.3390617,0,0.6029282-0.0943356,0.7916031-0.2830067
		c0.1886711-0.188673,0.2830048-0.4470711,0.2830048-0.7751961c0-0.344532-0.0943336-0.609766-0.2830048-0.7957039
		C53.428318,28.8421879,53.1644516,28.749218,52.8253899,28.749218z"/>
	<rect x="51.8492165" y="32.2273445" class="st2" width="1.9277344" height="9.0726557"/>
	<path class="st2" d="M59.9128914,39.905468c-0.377346,0-0.6822281-0.1107407-0.91465-0.3322258
		s-0.3486328-0.5646477-0.3486328-1.0294914V33.6875h2.5839844v-1.4601555h-2.5839844v-2.0179691h-1.1894531l-0.65625,1.9195309
		l-1.328907,0.7054672V33.6875h1.2386742v4.889061c0,1.9249992,0.9132805,2.8875008,2.7398415,2.8875008
		c0.360939,0,0.7095718-0.0314445,1.0458984-0.0943375c0.3363304-0.0628891,0.6111336-0.1408195,0.8244133-0.2337875v-1.4519539
		C60.8535156,39.8316383,60.3832016,39.905468,59.9128914,39.905468z"/>
</g>
<g>
	<path class="st3" d="M31.7788086,27.8364258c0,1.9755859-0.4936523,3.5112305-1.4819336,4.6069336
		c-0.9873047,1.0957031-2.3862305,1.6435547-4.1958008,1.6435547c-1.831543,0-3.2387695-0.5439453-4.2211914-1.6308594
		c-0.9819336-1.0878906-1.4731445-2.6328125-1.4731445-4.6362305s0.4936523-3.5415039,1.4819336-4.6152344
		c0.9873047-1.0737305,2.3974609-1.6103516,4.2290039-1.6103516c1.8041992,0,3.1987305,0.5449219,4.1835938,1.6352539
		S31.7788086,25.8554688,31.7788086,27.8364258z M22.5151367,27.8364258c0,1.4941406,0.3017578,2.6274414,0.9047852,3.3989258
		c0.6030273,0.7724609,1.4970703,1.1582031,2.6811523,1.1582031c1.1787109,0,2.0683594-0.3818359,2.668457-1.1455078
		c0.6005859-0.7636719,0.9008789-1.9008789,0.9008789-3.4116211c0-1.4887695-0.2973633-2.6176758-0.8920898-3.3867188
		c-0.5952148-0.769043-1.4819336-1.1538086-2.6606445-1.1538086c-1.1899414,0-2.0874023,0.3847656-2.6938477,1.1538086
		C22.8183594,25.21875,22.5151367,26.3476562,22.5151367,27.8364258z"/>
	<path class="st3" d="M38.7841797,26.2177734h-2.2412109v7.703125h-1.9584961v-7.703125h-1.5107422v-0.9130859l1.5107422-0.5976562
		V24.109375c0-1.0844727,0.2543945-1.8886719,0.7636719-2.4111328c0.5092773-0.5234375,1.2866211-0.784668,2.3325195-0.784668
		c0.6855469,0,1.3613281,0.1132812,2.0253906,0.340332l-0.5146484,1.4775391
		c-0.4814453-0.1547852-0.9414062-0.2324219-1.3779297-0.2324219c-0.4433594,0-0.765625,0.1367188-0.9667969,0.4111328
		c-0.2021484,0.2734375-0.3037109,0.6845703-0.3037109,1.2324219v0.5976562h2.2412109V26.2177734z M44.9521484,26.2177734
		h-2.2412109v7.703125h-1.9589844v-7.703125h-1.5107422v-0.9130859l1.5107422-0.5976562V24.109375
		c0-1.0844727,0.2539062-1.8886719,0.7636719-2.4111328c0.5087891-0.5234375,1.2861328-0.784668,2.3320312-0.784668
		c0.6865234,0,1.3613281,0.1132812,2.0253906,0.340332l-0.5136719,1.4775391
		c-0.4824219-0.1547852-0.9414062-0.2324219-1.3789062-0.2324219c-0.4423828,0-0.7646484,0.1367188-0.9667969,0.4111328
		c-0.2021484,0.2734375-0.3027344,0.6845703-0.3027344,1.2324219v0.5976562h2.2412109V26.2177734z"/>
	<path class="st3" d="M45.7236328,30.1938477v-1.6601562h4.2666016v1.6601562H45.7236328z"/>
	<path class="st3" d="M12.434082,38.3120117c-1.1401367,0-2.0366211,0.4042969-2.6894531,1.2119141
		c-0.652832,0.8085938-0.9794922,1.9228516-0.9794922,3.3457031c0,1.4882812,0.3139648,2.6142578,0.9418945,3.3779297
		c0.628418,0.7636719,1.5371094,1.1455078,2.7270508,1.1455078c0.5146484,0,1.0126953-0.0507812,1.4941406-0.1533203
		s0.9824219-0.2333984,1.5024414-0.3945312v1.7021484c-0.9516602,0.359375-2.0307617,0.5390625-3.2373047,0.5390625
		c-1.7763672,0-3.140625-0.5380859-4.0922852-1.6142578s-1.4277344-2.6162109-1.4277344-4.6191406
		c0-1.2617188,0.230957-2.3662109,0.6928711-3.3125c0.4624023-0.9462891,1.1303711-1.6708984,2.0048828-2.1743164
		s1.9008789-0.7553711,3.0795898-0.7553711c1.2397461,0,2.3852539,0.2602539,3.4365234,0.7802734l-0.7138672,1.6513672
		c-0.409668-0.1933594-0.8422852-0.3632812-1.2993164-0.5107422C13.4179688,38.3852539,12.9375,38.3120117,12.434082,38.3120117z"/>
	<path class="st3" d="M23.5820312,48.9204102l-0.3901367-1.2783203h-0.0664062
		c-0.4428711,0.5595703-0.8881836,0.9394531-1.3364258,1.1416016s-1.0239258,0.3027344-1.7265625,0.3027344
		c-0.9018555,0-1.6064453-0.2431641-2.1123047-0.7304688c-0.5068359-0.4863281-0.7597656-1.1757812-0.7597656-2.0664062
		c0-0.9462891,0.3515625-1.6601562,1.0541992-2.1416016s1.7734375-0.7441406,3.2124023-0.7890625l1.5854492-0.0498047v-0.4892578
		c0-0.5869141-0.137207-1.0253906-0.4106445-1.3164062c-0.2744141-0.2900391-0.6987305-0.4355469-1.2744141-0.4355469
		c-0.4702148,0-0.9213867,0.0693359-1.3530273,0.2080078c-0.4316406,0.1376953-0.8466797,0.3017578-1.2451172,0.4892578
		l-0.6308594-1.3945312c0.4980469-0.2597656,1.0429688-0.4580078,1.6352539-0.59375
		c0.5922852-0.1347656,1.1508789-0.203125,1.6767578-0.203125c1.1674805,0,2.0488281,0.2548828,2.6435547,0.7636719
		c0.5952148,0.5097656,0.8925781,1.3085938,0.8925781,2.3994141v6.1835938H23.5820312z M20.6767578,47.5922852
		c0.7084961,0,1.2768555-0.1972656,1.7060547-0.59375c0.4287109-0.3955078,0.6430664-0.9501953,0.6430664-1.6640625v-0.796875
		l-1.1787109,0.0498047c-0.918457,0.0332031-1.5869141,0.1865234-2.0043945,0.4609375
		c-0.4179688,0.2734375-0.6269531,0.6933594-0.6269531,1.2578125c0,0.4091797,0.121582,0.7255859,0.3652344,0.9501953
		C19.824707,47.4799805,20.1899414,47.5922852,20.6767578,47.5922852z"/>
	<path class="st3" d="M35.7758789,48.9204102h-1.9589844v-5.6445312c0-0.7080078-0.1425781-1.2363281-0.4272461-1.5849609
		c-0.2851562-0.3486328-0.737793-0.5234375-1.3574219-0.5234375c-0.824707,0-1.4277344,0.2441406-1.8095703,0.7304688
		c-0.3818359,0.4873047-0.5727539,1.3037109-0.5727539,2.4492188v4.5732422h-1.9506836v-9.1806641h1.5273438l0.2739258,1.2041016
		h0.0996094c0.2768555-0.4375,0.6694336-0.7753906,1.1787109-1.0126953
		c0.5092773-0.2382812,1.0737305-0.3574219,1.6933594-0.3574219c2.2026367,0,3.3037109,1.1210938,3.3037109,3.3623047V48.9204102z"
		/>
	<path class="st3" d="M40.5820312,48.9204102l-3.4863281-9.1806641h2.0585938l1.8671875,5.3378906
		c0.3212891,0.8964844,0.5146484,1.6210938,0.5810547,2.1748047h0.0664062
		C41.71875,46.8540039,41.9130859,46.128418,42.25,45.0776367l1.8681641-5.3378906h2.0751953l-3.5029297,9.1806641H40.5820312z"/>
	<path class="st3" d="M53.3320312,48.9204102l-0.390625-1.2783203H52.875
		c-0.4423828,0.5595703-0.8876953,0.9394531-1.3359375,1.1416016S50.515625,49.0864258,49.8125,49.0864258
		c-0.9023438,0-1.6064453-0.2431641-2.1123047-0.7304688c-0.5068359-0.4863281-0.7597656-1.1757812-0.7597656-2.0664062
		c0-0.9462891,0.3515625-1.6601562,1.0537109-2.1416016c0.703125-0.4814453,1.7744141-0.7441406,3.2128906-0.7890625
		l1.5859375-0.0498047v-0.4892578c0-0.5869141-0.1376953-1.0253906-0.4111328-1.3164062
		c-0.2744141-0.2900391-0.6992188-0.4355469-1.2744141-0.4355469c-0.4707031,0-0.921875,0.0693359-1.3535156,0.2080078
		c-0.4316406,0.1376953-0.8457031,0.3017578-1.2441406,0.4892578l-0.6308594-1.3945312
		c0.4980469-0.2597656,1.0429688-0.4580078,1.6347656-0.59375c0.5917969-0.1347656,1.1513672-0.203125,1.6767578-0.203125
		c1.1679688,0,2.0488281,0.2548828,2.6435547,0.7636719c0.5947266,0.5097656,0.8925781,1.3085938,0.8925781,2.3994141v6.1835938
		H53.3320312z M50.4267578,47.5922852c0.7080078,0,1.2773438-0.1972656,1.7060547-0.59375
		c0.4287109-0.3955078,0.6425781-0.9501953,0.6425781-1.6640625v-0.796875l-1.1777344,0.0498047
		c-0.9189453,0.0332031-1.5869141,0.1865234-2.0048828,0.4609375c-0.4179688,0.2734375-0.6269531,0.6933594-0.6269531,1.2578125
		c0,0.4091797,0.1220703,0.7255859,0.3652344,0.9501953C49.5742188,47.4799805,49.9394531,47.5922852,50.4267578,47.5922852z"/>
	<path class="st3" d="M63.6171875,46.3061523c0,0.8964844-0.3271484,1.5839844-0.9804688,2.0625
		c-0.6523438,0.4785156-1.5878906,0.7177734-2.8046875,0.7177734c-1.2236328,0-2.2060547-0.1855469-2.9472656-0.5556641v-1.6855469
		c1.0791016,0.4980469,2.0839844,0.7470703,3.0136719,0.7470703c1.2001953,0,1.8007812-0.3623047,1.8007812-1.0869141
		c0-0.2324219-0.0664062-0.4267578-0.1992188-0.5810547c-0.1328125-0.1552734-0.3515625-0.3154297-0.65625-0.4814453
		c-0.3037109-0.1660156-0.7275391-0.3544922-1.2695312-0.5644531c-1.0566406-0.4101562-1.7724609-0.8193359-2.1455078-1.2285156
		c-0.3740234-0.4101562-0.5605469-0.9414062-0.5605469-1.59375c0-0.7861328,0.3164062-1.3964844,0.9501953-1.8310547
		c0.6337891-0.4335938,1.4960938-0.6513672,2.5859375-0.6513672c1.0791016,0,2.0996094,0.21875,3.0625,0.65625l-0.6308594,1.46875
		c-0.9902344-0.4091797-1.8232422-0.6142578-2.4980469-0.6142578c-1.0292969,0-1.5439453,0.2939453-1.5439453,0.8798828
		c0,0.2880859,0.1337891,0.53125,0.4023438,0.7304688s0.8535156,0.4736328,1.7558594,0.8222656
		c0.7578125,0.2929688,1.3085938,0.5615234,1.6513672,0.8046875c0.34375,0.2441406,0.5976562,0.5244141,0.7636719,0.8427734
		S63.6171875,45.862793,63.6171875,46.3061523z"/>
</g>
</svg>
