<?xml version="1.0" encoding="utf-8"?>
<!-- Generator: Adobe Illustrator 21.0.0, SVG Export Plug-In . SVG Version: 6.00 Build 0)  -->
<svg version="1.1" id="Layer_1" xmlns="http://www.w3.org/2000/svg" width="120" height="120" xmlns:xlink="http://www.w3.org/1999/xlink" x="0px" y="0px"
	 viewBox="0 0 120 120" style="enable-background:new 0 0 120 120;" xml:space="preserve">
<style type="text/css">
	.st0{fill:#EFEFEF;}
	.st1{fill:#FFFFFF;}
	.st2{opacity:0.3;fill:#E1E1E1;enable-background:new    ;}
	.st3{fill:#222222;}
</style>
<title>Untitled-2</title>
<rect x="14.7" y="5.2" class="st0" width="90.5" height="96.4"/>
<path class="st1" d="M68.8,44.7v16.8H51.2V44.7H68.8 M68.8,42.5H51.2c-1.2,0.1-2.1,1-2.2,2.2v16.8c0.1,1.2,1,2.1,2.2,2.2H68
	c1.3-0.1,2.4-0.9,2.8-2.2V44.7c0.1-1.1-0.7-2.1-1.7-2.2C69,42.5,68.9,42.5,68.8,42.5z M62.9,53.4l-3.6,5.1l-2.9-2.9l-3.6,5.1h14.4
	C67.2,59.3,62.9,53.4,62.9,53.4z"/>
<rect x="14.7" y="105.3" class="st2" width="43.8" height="3.6"/>
<rect x="14.7" y="111.1" class="st2" width="67.2" height="3.6"/>
<rect x="96.5" y="105.3" class="st2" width="8.8" height="8.8"/>
<g>
	<path class="st3" d="M60,27.5c-8.5,0-16.3,3.3-22.2,8.7c-0.6,0.6-1.2,1.1-1.7,1.7c-5.4,5.8-8.7,13.6-8.7,22.2
		C27.5,78,42,92.5,60,92.5c8.5,0,16.3-3.3,22.2-8.7c0.6-0.6,1.2-1.1,1.7-1.7c5.4-5.8,8.7-13.6,8.7-22.2C92.5,42,78,27.5,60,27.5z
		 M82.2,80.4c-0.6,0.6-1.1,1.2-1.7,1.7c-5.4,4.9-12.6,8-20.4,8c-16.6,0-30.1-13.5-30.1-30.1c0-7.9,3-15.1,8-20.4
		c0.6-0.6,1.1-1.2,1.7-1.7c5.4-4.9,12.6-8,20.4-8c16.6,0,30.1,13.5,30.1,30.1C90.1,67.9,87.1,75.1,82.2,80.4z"/>
	<path class="st3" d="M83.9,82.2c-0.6,0.6-1.1,1.2-1.7,1.7l-1.7-1.7L37.8,39.6l-1.7-1.7c0.6-0.6,1.1-1.2,1.7-1.7l1.7,1.7l42.6,42.6
		L83.9,82.2z"/>
</g>
</svg>
