<?xml version="1.0" encoding="utf-8"?>
<!-- Generator: Adobe Illustrator 21.0.0, SVG Export Plug-In . SVG Version: 6.00 Build 0)  -->
<svg version="1.1" id="Layer_1" xmlns="http://www.w3.org/2000/svg" width="120" height="120" xmlns:xlink="http://www.w3.org/1999/xlink" x="0px" y="0px"
	 viewBox="0 0 120 120" style="enable-background:new 0 0 120 120;" xml:space="preserve">
<style type="text/css">
	.st0{fill:#E1E1E1;}
	.st1{fill:#888888;}
	.st2{fill:#222222;}
	.st3{enable-background:new    ;}
	.st4{fill:#FFFFFF;}
</style>
<title>Untitled-2</title>
<rect x="14.6" y="5.3" class="st0" width="90.5" height="96.5"/>
<path class="st1" d="M68.6,44.6v16.8H51.1V44.6H68.6 M68.6,42.5H51.1c-1.2,0-2.2,1-2.2,2.2v16.8c0,1.2,1,2.2,2.2,2.2h16.8
	c1.2,0,2.4-1,2.6-2.2V44.6c0.2-1.2-0.7-2.2-1.7-2.2C68.9,42.5,68.9,42.5,68.6,42.5z M62.9,53.5l-3.6,5l-2.9-2.9l-3.6,5h14.4
	C67.2,59.3,62.9,53.5,62.9,53.5z"/>
<rect x="14.6" y="105.4" class="st0" width="43.7" height="3.6"/>
<rect x="14.6" y="111.1" class="st0" width="67.2" height="3.6"/>
<rect x="96.5" y="105.4" class="st0" width="8.9" height="8.9"/>
<g>
	<circle class="st2" cx="88.3" cy="22.1" r="14.4"/>
	<g class="st3">
		<path class="st4" d="M82.6,23.8c0,0.6-0.2,1.1-0.7,1.4c-0.4,0.3-1.1,0.5-1.8,0.5s-1.4-0.1-1.9-0.4v-1.1c0.3,0.1,0.6,0.3,1,0.3
			c0.4,0.1,0.7,0.1,1,0.1c0.4,0,0.8-0.1,1-0.3c0.2-0.2,0.3-0.4,0.3-0.7c0-0.3-0.1-0.5-0.3-0.7C81,23,80.6,22.8,80,22.6
			c-0.6-0.3-1.1-0.5-1.3-0.9c-0.3-0.3-0.4-0.7-0.4-1.2c0-0.6,0.2-1,0.6-1.4c0.4-0.3,1-0.5,1.6-0.5c0.7,0,1.3,0.1,2,0.4l-0.4,1
			c-0.6-0.3-1.2-0.4-1.6-0.4s-0.6,0.1-0.8,0.2c-0.2,0.2-0.3,0.4-0.3,0.6s0,0.3,0.1,0.5s0.2,0.2,0.4,0.4c0.2,0.1,0.5,0.3,0.9,0.4
			c0.5,0.2,0.9,0.4,1.1,0.6s0.4,0.4,0.5,0.6C82.5,23.2,82.6,23.5,82.6,23.8z"/>
		<path class="st4" d="M88.1,25.6l-0.7-1.9h-2.6l-0.7,1.9H83l2.6-6.9h1.2l2.6,6.9H88.1z M87.2,22.8l-0.6-1.9c0-0.1-0.1-0.3-0.2-0.6
			s-0.1-0.5-0.2-0.6c-0.1,0.4-0.2,0.8-0.4,1.3l-0.6,1.8C85.2,22.8,87.2,22.8,87.2,22.8z"/>
		<path class="st4" d="M90.2,25.6v-6.9h1.1v5.9h2.9v1H90.2z"/>
		<path class="st4" d="M99.3,25.6h-3.9v-6.9h3.9v0.9h-2.8v1.9h2.6v0.9h-2.6v2.2h2.8V25.6z"/>
	</g>
</g>
</svg>
