<?xml version="1.0" encoding="utf-8"?>
<!-- Generator: Adobe Illustrator 21.0.0, SVG Export Plug-In . SVG Version: 6.00 Build 0)  -->
<svg version="1.1" id="Layer_1" xmlns="http://www.w3.org/2000/svg" width="50" height="50" xmlns:xlink="http://www.w3.org/1999/xlink" x="0px" y="0px"
	 viewBox="0 0 50 50" style="enable-background:new 0 0 50 50;" xml:space="preserve">
<style type="text/css">
	.st0{fill:#222222;}
</style>
<g id="surface1">
	<path class="st0" d="M20.3,24.7c2.5,0,4.5-1.5,4.5-3.4s-2-3.4-4.5-3.4s-4.5,1.5-4.5,3.4C15.8,23.2,17.8,24.7,20.3,24.7z M20.3,19.1
		c1.8,0,3.3,1,3.3,2.2s-1.5,2.2-3.3,2.2s-3.3-1-3.3-2.2S18.5,19.1,20.3,19.1L20.3,19.1z"/>
	<path class="st0" d="M39.4,27.6h-8.9v-6.3c0-4.1-4.6-7.5-10.2-7.5c-5.7,0-10.2,3.4-10.2,7.5v7.4c0,3.8,3.9,6.9,8.9,7.4h0
		c0.4,0,0.8,0.1,1.3,0.1h19.1c0.3,0,0.6-0.3,0.6-0.6v-7.4C40,27.8,39.7,27.6,39.4,27.6z M20.3,15c5,0,9,2.8,9,6.3s-4,6.3-9,6.3
		s-9-2.8-9-6.3C11.2,17.8,15.3,15,20.3,15z M29.3,24.8v2.8h-3.5C27.2,27,28.4,26,29.3,24.8L29.3,24.8z M38.8,35h-1.2v-3.1
		c0-0.3-0.3-0.6-0.6-0.6s-0.6,0.3-0.6,0.6V35H34v-1.7c0-0.3-0.3-0.6-0.6-0.6s-0.6,0.3-0.6,0.6V35h-2.4v-1.7c0-0.3-0.3-0.6-0.6-0.6
		s-0.6,0.3-0.6,0.6V35h-2.4v-3.1c0-0.3-0.3-0.6-0.6-0.6c-0.3,0-0.6,0.3-0.6,0.6V35h-2.3v-1.7c0-0.3-0.3-0.6-0.6-0.6
		c-0.3,0-0.6,0.3-0.6,0.6V35h-1.7c-0.2,0-0.5,0-0.7,0v-1.7c0-0.3-0.3-0.6-0.6-0.6s-0.6,0.3-0.6,0.6v1.5c-4.1-0.6-7.1-3.1-7.1-6.1
		v-3.9c1.7,2.4,5.1,4,9,4h18.5V35H38.8z"/>
</g>
</svg>
