<?xml version="1.0" encoding="utf-8"?>
<!-- Generator: Adobe Illustrator 21.0.0, SVG Export Plug-In . SVG Version: 6.00 Build 0)  -->
<svg version="1.1" id="Layer_1" xmlns="http://www.w3.org/2000/svg" width="50" height="50" xmlns:xlink="http://www.w3.org/1999/xlink" x="0px" y="0px"
	 viewBox="0 0 50 50" style="enable-background:new 0 0 50 50;" xml:space="preserve">
<style type="text/css">
	.st0{fill:#222222;}
</style>
<path class="st0" d="M41,17.4c-0.1-0.1-0.3-0.2-0.5-0.2h-5.3l0,0l0,0h-5.1l0,0l0,0H25l0,0l0,0h-5.1l0,0l0,0h-5.1l0,0l0,0H9.5
	c-0.4,0-0.6,0.3-0.6,0.6v14.3c0,0.2,0.1,0.3,0.2,0.5c0.1,0.1,0.3,0.2,0.5,0.2h31c0.4,0,0.7-0.3,0.7-0.7V17.8
	C41.2,17.7,41.1,17.5,41,17.4z M14.8,22c0.4,0,0.6-0.3,0.6-0.6v-2.8h3.8v5.1c0,0.4,0.3,0.7,0.6,0.7s0.6-0.3,0.6-0.7v-5.1h3.8v2.8
	c0,0.4,0.3,0.6,0.7,0.6s0.7-0.3,0.7-0.6v-2.8h3.8v5.1c0,0.4,0.3,0.7,0.7,0.7s0.7-0.3,0.7-0.7v-5.1h3.8v2.8c0,0.4,0.3,0.6,0.7,0.6
	s0.7-0.3,0.7-0.6v-2.8h4v13H10.1v-13h4v2.8C14.1,21.7,14.4,22,14.8,22z"/>
</svg>
