<svg xmlns="http://www.w3.org/2000/svg" width="18px" height="18px" viewBox="0 0 20 20"><defs><style>.cls-1{fill:#fff;}</style></defs><title>Asset 1</title><g id="Layer_2" data-name="Layer 2"><g id="Layer_1-2" data-name="Layer 1"><path class="cls-1" d="M17,0H3A3,3,0,0,0,0,3V17a3,3,0,0,0,3,3H17a3,3,0,0,0,3-3V3A3,3,0,0,0,17,0ZM11.77,15.76a.47.47,0,0,1-.32-.1.88.88,0,0,1-.19-.24L8.4,10.81a1.34,1.34,0,0,1-.07.18.89.89,0,0,1-.08.17L5.48,15.42a1.16,1.16,0,0,1-.2.24.39.39,0,0,1-.28.1H3.25L7.14,9.84,3.41,4.24H5.27a.55.55,0,0,1,.29.06.59.59,0,0,1,.17.18l2.8,4.4a1.54,1.54,0,0,1,.08-.19.93.93,0,0,1,.1-.2l2.61-4a.58.58,0,0,1,.17-.2.4.4,0,0,1,.24-.07h1.78L9.75,9.76l3.88,6Zm3.16,0-3.88-6,1.69-2.51,2-3h1.86L12.87,9.76l3.88,6Z"/></g></g></svg>