<?xml version="1.0" encoding="utf-8"?>
<!-- Generator: Adobe Illustrator 21.0.0, SVG Export Plug-In . SVG Version: 6.00 Build 0)  -->
<svg version="1.1" id="Layer_1" xmlns="http://www.w3.org/2000/svg" width="50" height="50" xmlns:xlink="http://www.w3.org/1999/xlink" x="0px" y="0px"
	 viewBox="0 0 50 50" style="enable-background:new 0 0 50 50;" xml:space="preserve">
<style type="text/css">
	.st0{fill:#222222;}
</style>
<path class="st0" d="M39.7999992,38.5L32,30.7999992c2-2.2999992,3.0999985-5.2000008,3.0999985-8.2000008
	c0-6.8999996-5.6000004-12.6000004-12.6000004-12.6000004C15.6000004,10,10,15.6000004,10,22.6000004
	s5.6000004,12.6000004,12.6000004,12.6000004c3,0,5.8999996-1.0999985,8.1999989-3.0999985L38.5,39.8000031
	c0.2000008,0.2000008,0.4000015,0.2999992,0.5999985,0.2999992c0.2000008,0,0.4000015-0.0999985,0.5999985-0.2000008
	c0.2000008-0.2000008,0.2999992-0.4000015,0.2999992-0.5999985C40,38.9000015,39.9000015,38.7000008,39.7999992,38.5z
	 M33.4000015,22.6000004c0,6-4.8999996,10.8000011-10.8999996,10.8000011s-10.8000002-4.8999996-10.8000002-10.8999996
	s4.9000006-10.8000002,10.9000006-10.8000002S33.4000015,16.6000004,33.4000015,22.6000004z"/>
</svg>
