<?xml version="1.0" encoding="utf-8"?>
<!-- Generator: Adobe Illustrator 21.0.0, SVG Export Plug-In . SVG Version: 6.00 Build 0)  -->
<svg version="1.1" id="Layer_1" xmlns="http://www.w3.org/2000/svg" width="430" height="80" xmlns:xlink="http://www.w3.org/1999/xlink" x="0px" y="0px"
	 viewBox="0 0 430 70" style="enable-background:new 0 0 430 70;" xml:space="preserve">
<style type="text/css">
	.st0{fill:#222222;}
	.st1{fill:#FFFFFF;}
	.st2{fill:#222222;stroke:#222222;stroke-miterlimit:10;}
	.st3{enable-background:new    ;}
</style>
<g id="Border">
	<path class="st0" d="M366.3999939,50.7999992H63V19.2000008h303.3999939V50.7999992z M65,48.7999992h299.3999939V21.2000008H65
		V48.7999992z"/>
</g>
<rect x="335.8999939" y="19.2000008" class="st0" width="30.5" height="31.5"/>
<path class="st1" d="M358.2999878,41.0999985l-3.3999939-3.4000015c0.8999939-1.0999985,1.2999878-2.5,1.2999878-3.7999992
	c0-3.3999996-2.7999878-6.2000008-6.2000122-6.2000008c-3.3999939,0-6.2000122,2.7999992-6.2000122,6.2000008
	s2.7999878,6.2000008,6.2000122,6.2000008c1.3999939,0,2.7000122-0.5,3.7999878-1.2999992l3.3999939,3.4000015
	c0.1000061,0.0999985,0.2999878,0.2000008,0.5,0.2000008s0.3999939-0.0999985,0.5-0.2000008
	c0.1000061-0.0999985,0.2000122-0.2999992,0.2999878-0.5C358.5,41.4000015,358.5,41.2999992,358.2999878,41.0999985z
	 M354.7999878,33.9000015c0,2.5999985-2.1000061,4.7999992-4.7999878,4.7999992
	c-2.6000061,0-4.7999878-2.0999985-4.7999878-4.7999992c0-2.6000004,2.1000061-4.7999992,4.7999878-4.7999992
	C352.7000122,29.1000004,354.7999878,31.2000008,354.7999878,33.9000015z"/>
<g>
	<g>
		<path class="st0" d="M79.0999985,31L79.0999985,31l-1-0.1000004l-3.5,8.8000011h1.1999969L77,37h3.3000031l1.0999985,2.5999985
			v0.0999985h1.1999969L79.0999985,31z M79.9000015,35.7999992h-2.5l0.9000015-2.5999985
			c0.0999985-0.2999992,0.1999969-0.5999985,0.3000031-0.7999992c0.0999985,0.2000008,0.0999985,0.4000015,0.1999969,0.5
			c0,0.0999985,0.0999985,0.2000008,0.0999985,0.2999992L79.9000015,35.7999992z"/>
		<rect x="83.3000031" y="30.3999996" class="st0" width="1.1999969" height="9.3000011"/>
		<rect x="86.4000015" y="30.3999996" class="st0" width="1.1999969" height="9.3000011"/>
	</g>
	<rect x="168.3999939" y="20.6000004" class="st2" width="1" height="28.8000011"/>
	<g>
		<g>
			<path class="st0" d="M156.1999969,33L153,29.8999996c-0.1000061-0.1000004-0.3999939-0.1000004-0.5,0L149.3000031,33
				c-0.1000061,0.0999985-0.1000061,0.0999985-0.1000061,0.2999992c0,0.0999985,0,0.2000008,0.1000061,0.2999992
				s0.1999969,0.0999985,0.3000031,0.0999985s0.1999969,0,0.3000031-0.0999985l2.8999939-2.7999992l2.8999939,2.7999992
				c0.1000061,0.0999985,0.3000031,0.0999985,0.5,0c0.1000061-0.0999985,0.1000061-0.2000008,0.1000061-0.2000008
				C156.3999939,33.2000008,156.3000031,33.0999985,156.1999969,33z"/>
			<path class="st0" d="M149.6000061,34c-0.1000061,0-0.3000031,0-0.5-0.2000008s-0.1999969-0.4000015-0.1999969-0.5
				c0-0.2999992,0-0.2999992,0.1999969-0.5l3.1999969-3.1000004c0.1000061-0.1000004,0.3000031-0.2000008,0.5-0.2000008
				s0.3000031,0,0.5,0.2000008L156.5,32.7999992c0.1000061,0.0999985,0.3000031,0.2999992,0.1999969,0.7000008
				c0,0.0999985-0.1000061,0.2000008-0.1999969,0.2999992l-0.1000061,0.0999985
				c-0.3000031,0.2000008-0.6999969,0.0999985-0.8000031-0.0999985l-2.6999969-2.6000004l-2.6999969,2.6000004
				C149.8999939,34,149.6999969,34,149.6000061,34z M149.5,33.2000008L149.5,33.2000008c0,0.0999985,0,0.2000008,0,0.2000008
				c0.1000061,0,0.1999969,0,0.1999969,0l3.1000061-3l3.1000061,3c0,0,0,0,0.1000061,0l0,0v-0.0999985c0,0,0,0,0-0.0999985
				l-3.1999969-3.1000004h-0.1000061L149.5,33.2000008L149.5,33.2000008z"/>
		</g>
		<g>
			<path class="st0" d="M156.1999969,36.4000015c-0.1999969-0.0999985-0.3999939-0.0999985-0.5,0l-2.8999939,2.7999992
				l-2.8999939-2.7999992c-0.1000061-0.0999985-0.1999969-0.0999985-0.3000031-0.0999985s-0.1999969,0-0.3000031,0.0999985
				s-0.1000061,0.2000008-0.1000061,0.2999992S149.3000031,36.9000015,149.3000031,37L152.5,40.0999985
				c0.1999969,0.0999985,0.3999939,0.0999985,0.5,0L156.1999969,37c0.1000061-0.0999985,0.1000061-0.2000008,0.1000061-0.2999992
				C156.3999939,36.5999985,156.3000031,36.5,156.1999969,36.4000015z"/>
			<path class="st0" d="M152.8000031,40.5c-0.1000061,0-0.3000031,0-0.3999939-0.0999985l-0.1000061-0.0999985L149,37.1000023V37
				c-0.1000061-0.0999985-0.1000061-0.2000008-0.1000061-0.2999992s0-0.2999992,0.1999969-0.5S149.4999847,36,149.5999908,36
				s0.3000031,0,0.5,0.2000008l2.6999969,2.5999985l2.6999969-2.5999985C155.6999817,36,155.9999847,36,156.2999878,36.1000023
				l0.1000061,0.0999985c0.3000031,0.2999992,0.3000031,0.5,0.1999969,0.5999985c0,0.0999985,0,0.2999992-0.1999969,0.4000015
				l-3.1999969,3.0999985C153.1000061,40.4000015,153,40.5,152.8000031,40.5z M152.6999969,39.7999992
				c0.1000061,0,0.1000061,0,0.1000061,0L156,36.7000008v-0.0999985v-0.0999985c-0.1000061,0-0.1000061,0-0.1000061,0l-3.1000061,3
				l-3.1000061-3c0,0-0.1000061,0-0.1999969,0v0.0999985l0.1000061,0.0999985L152.6999969,39.7999992z"/>
		</g>
	</g>
</g>
<g class="st3">
	<path class="st0" d="M185.4873047,37.1738281c0,0.7617188-0.2753906,1.359375-0.8261719,1.7929688
		s-1.3105469,0.6503906-2.2792969,0.6503906s-1.7617188-0.1503906-2.3789062-0.4511719v-1.3242188
		c0.390625,0.1835938,0.8056641,0.328125,1.2451172,0.4335938s0.8486328,0.1582031,1.2275391,0.1582031
		c0.5546875,0,0.9638672-0.1054688,1.2275391-0.3164062s0.3955078-0.4941406,0.3955078-0.8496094
		c0-0.3203125-0.1210938-0.5917969-0.3632812-0.8144531s-0.7421875-0.4863281-1.5-0.7910156
		c-0.78125-0.3164062-1.3320312-0.6777344-1.6523438-1.0839844s-0.4804688-0.8945312-0.4804688-1.4648438
		c0-0.7148438,0.2539062-1.2773438,0.7617188-1.6875s1.1894531-0.6152344,2.0449219-0.6152344
		c0.8203125,0,1.6367188,0.1796875,2.4492188,0.5390625l-0.4453125,1.1425781
		c-0.7617188-0.3203125-1.4414062-0.4804688-2.0390625-0.4804688c-0.453125,0-0.796875,0.0986328-1.03125,0.2958984
		s-0.3515625,0.4580078-0.3515625,0.7822266c0,0.2226562,0.046875,0.4130859,0.140625,0.5712891
		s0.2480469,0.3076172,0.4628906,0.4482422s0.6015625,0.3261719,1.1601562,0.5566406
		c0.6289062,0.2617188,1.0898438,0.5058594,1.3828125,0.7324219s0.5078125,0.4824219,0.6445312,0.7675781
		S185.4873047,36.7871094,185.4873047,37.1738281z"/>
	<path class="st0" d="M189.8291016,39.6171875c-1.0078125,0-1.7958984-0.2939453-2.3642578-0.8818359
		s-0.8525391-1.3974609-0.8525391-2.4287109c0-1.0585938,0.2636719-1.890625,0.7910156-2.4960938
		s1.2519531-0.9082031,2.1738281-0.9082031c0.8554688,0,1.53125,0.2597656,2.0273438,0.7792969
		s0.7441406,1.234375,0.7441406,2.1445312v0.7441406h-4.3183594c0.0195312,0.6289062,0.1894531,1.1123047,0.5097656,1.4501953
		s0.7714844,0.5068359,1.3535156,0.5068359c0.3828125,0,0.7392578-0.0361328,1.0693359-0.1083984
		s0.6845703-0.1923828,1.0634766-0.3603516v1.1191406c-0.3359375,0.1601562-0.6757812,0.2734375-1.0195312,0.3398438
		S190.2705078,39.6171875,189.8291016,39.6171875z M189.5771484,33.9453125c-0.4375,0-0.7880859,0.1386719-1.0517578,0.4160156
		s-0.4208984,0.6816406-0.4716797,1.2128906h2.9414062c-0.0078125-0.5351562-0.1367188-0.9404297-0.3867188-1.2158203
		S190.0146484,33.9453125,189.5771484,33.9453125z"/>
	<path class="st0" d="M197.9677734,39.5l-0.2753906-0.9023438h-0.046875c-0.3125,0.3945312-0.6269531,0.6630859-0.9433594,0.8056641
		s-0.7226562,0.2138672-1.21875,0.2138672c-0.6367188,0-1.1337891-0.171875-1.4912109-0.515625
		s-0.5361328-0.8300781-0.5361328-1.4589844c0-0.6679688,0.2480469-1.171875,0.7441406-1.5117188
		s1.2519531-0.5253906,2.2675781-0.5566406l1.1191406-0.0351562v-0.3457031c0-0.4140625-0.0966797-0.7236328-0.2900391-0.9287109
		s-0.4931641-0.3076172-0.8994141-0.3076172c-0.3320312,0-0.6503906,0.0488281-0.9550781,0.1464844
		s-0.5976562,0.2128906-0.8789062,0.3457031l-0.4453125-0.984375c0.3515625-0.1835938,0.7363281-0.3232422,1.1542969-0.4189453
		s0.8125-0.1435547,1.1835938-0.1435547c0.8242188,0,1.4462891,0.1796875,1.8662109,0.5390625
		s0.6298828,0.9238281,0.6298828,1.6933594V39.5H197.9677734z M195.9169922,38.5625c0.5,0,0.9013672-0.1396484,1.2041016-0.4189453
		s0.4541016-0.6708984,0.4541016-1.1748047v-0.5625l-0.8320312,0.0351562
		c-0.6484375,0.0234375-1.1201172,0.1318359-1.4150391,0.3251953s-0.4423828,0.4892578-0.4423828,0.8876953
		c0,0.2890625,0.0859375,0.5126953,0.2578125,0.6708984S195.5732422,38.5625,195.9169922,38.5625z"/>
	<path class="st0" d="M204.1611328,32.9023438c0.2773438,0,0.5058594,0.0195312,0.6855469,0.0585938l-0.1347656,1.2832031
		c-0.1953125-0.046875-0.3984375-0.0703125-0.609375-0.0703125c-0.5507812,0-0.9970703,0.1796875-1.3388672,0.5390625
		s-0.5126953,0.8261719-0.5126953,1.4003906V39.5h-1.3769531v-6.4804688h1.078125l0.1816406,1.1425781h0.0703125
		c0.2148438-0.3867188,0.4951172-0.6933594,0.8408203-0.9199219S203.7626953,32.9023438,204.1611328,32.9023438z"/>
	<path class="st0" d="M208.6611328,39.6171875c-0.9804688,0-1.7255859-0.2861328-2.2353516-0.8583984
		s-0.7646484-1.3935547-0.7646484-2.4638672c0-1.0898438,0.2666016-1.9277344,0.7998047-2.5136719
		s1.3037109-0.8789062,2.3115234-0.8789062c0.6835938,0,1.2988281,0.1269531,1.8457031,0.3808594l-0.4160156,1.1074219
		c-0.5820312-0.2265625-1.0625-0.3398438-1.4414062-0.3398438c-1.1210938,0-1.6816406,0.7441406-1.6816406,2.2324219
		c0,0.7265625,0.1396484,1.2724609,0.4189453,1.6376953s0.6884766,0.5478516,1.2275391,0.5478516
		c0.6132812,0,1.1933594-0.1523438,1.7402344-0.4570312v1.2011719c-0.2460938,0.1445312-0.5087891,0.2480469-0.7880859,0.3105469
		S209.0595703,39.6171875,208.6611328,39.6171875z"/>
	<path class="st0" d="M217.6904297,39.5h-1.3828125v-3.984375c0-0.5-0.1005859-0.8730469-0.3017578-1.1191406
		s-0.5205078-0.3691406-0.9580078-0.3691406c-0.578125,0-1.0029297,0.1728516-1.2744141,0.5185547
		s-0.4072266,0.9248047-0.4072266,1.7373047V39.5h-1.3769531v-9.1171875h1.3769531v2.3144531
		c0,0.3710938-0.0234375,0.7675781-0.0703125,1.1894531h0.0878906c0.1875-0.3125,0.4482422-0.5546875,0.7822266-0.7265625
		s0.7236328-0.2578125,1.1689453-0.2578125c1.5703125,0,2.3554688,0.7910156,2.3554688,2.3730469V39.5z"/>
	<path class="st0" d="M225.9755859,34.0625h-1.5820312V39.5h-1.3828125v-5.4375h-1.0664062v-0.6445312l1.0664062-0.421875v-0.421875
		c0-0.765625,0.1796875-1.3330078,0.5390625-1.7021484s0.9082031-0.5537109,1.6464844-0.5537109
		c0.484375,0,0.9609375,0.0800781,1.4296875,0.2402344l-0.3632812,1.0429688
		c-0.3398438-0.109375-0.6640625-0.1640625-0.9726562-0.1640625c-0.3125,0-0.5400391,0.0966797-0.6826172,0.2900391
		s-0.2138672,0.4833984-0.2138672,0.8701172v0.421875h1.5820312V34.0625z"/>
	<path class="st0" d="M232.8251953,36.2480469c0,1.0585938-0.2714844,1.8847656-0.8144531,2.4785156
		s-1.2988281,0.890625-2.2675781,0.890625c-0.6054688,0-1.140625-0.1367188-1.6054688-0.4101562
		s-0.8222656-0.6660156-1.0722656-1.1777344s-0.375-1.1054688-0.375-1.78125c0-1.0507812,0.2695312-1.8710938,0.8085938-2.4609375
		s1.2988281-0.8847656,2.2792969-0.8847656c0.9375,0,1.6796875,0.3017578,2.2265625,0.9052734
		S232.8251953,35.2246094,232.8251953,36.2480469z M228.1083984,36.2480469c0,1.4960938,0.5527344,2.2441406,1.6582031,2.2441406
		c1.09375,0,1.640625-0.7480469,1.640625-2.2441406c0-1.4804688-0.5507812-2.2207031-1.6523438-2.2207031
		c-0.578125,0-0.9970703,0.1914062-1.2568359,0.5742188S228.1083984,35.5332031,228.1083984,36.2480469z"/>
	<path class="st0" d="M237.6943359,32.9023438c0.2773438,0,0.5058594,0.0195312,0.6855469,0.0585938l-0.1347656,1.2832031
		c-0.1953125-0.046875-0.3984375-0.0703125-0.609375-0.0703125c-0.5507812,0-0.9970703,0.1796875-1.3388672,0.5390625
		s-0.5126953,0.8261719-0.5126953,1.4003906V39.5h-1.3769531v-6.4804688h1.078125l0.1816406,1.1425781h0.0703125
		c0.2148438-0.3867188,0.4951172-0.6933594,0.8408203-0.9199219S237.2958984,32.9023438,237.6943359,32.9023438z"/>
	<path class="st0" d="M239.3759766,38.7675781c0-0.2851562,0.0742188-0.5039062,0.2226562-0.65625
		s0.3632812-0.2285156,0.6445312-0.2285156c0.2851562,0,0.5019531,0.0791016,0.6503906,0.2373047
		s0.2226562,0.3740234,0.2226562,0.6474609c0,0.2773438-0.0751953,0.4970703-0.2255859,0.6591797
		s-0.3662109,0.2431641-0.6474609,0.2431641s-0.4960938-0.0800781-0.6445312-0.2402344
		S239.3759766,39.0488281,239.3759766,38.7675781z"/>
	<path class="st0" d="M242.6748047,38.7675781c0-0.2851562,0.0742188-0.5039062,0.2226562-0.65625
		s0.3632812-0.2285156,0.6445312-0.2285156c0.2851562,0,0.5019531,0.0791016,0.6503906,0.2373047
		s0.2226562,0.3740234,0.2226562,0.6474609c0,0.2773438-0.0751953,0.4970703-0.2255859,0.6591797
		s-0.3662109,0.2431641-0.6474609,0.2431641s-0.4960938-0.0800781-0.6445312-0.2402344
		S242.6748047,39.0488281,242.6748047,38.7675781z"/>
	<path class="st0" d="M245.9736328,38.7675781c0-0.2851562,0.0742188-0.5039062,0.2226562-0.65625
		s0.3632812-0.2285156,0.6445312-0.2285156c0.2851562,0,0.5019531,0.0791016,0.6503906,0.2373047
		s0.2226562,0.3740234,0.2226562,0.6474609c0,0.2773438-0.0751953,0.4970703-0.2255859,0.6591797
		s-0.3662109,0.2431641-0.6474609,0.2431641s-0.4960938-0.0800781-0.6445312-0.2402344
		S245.9736328,39.0488281,245.9736328,38.7675781z"/>
</g>
</svg>
