<?xml version="1.0" encoding="utf-8"?>
<!-- Generator: Adobe Illustrator 21.0.0, SVG Export Plug-In . SVG Version: 6.00 Build 0)  -->
<svg version="1.1" id="Layer_1" xmlns="http://www.w3.org/2000/svg" width="430" height="80" xmlns:xlink="http://www.w3.org/1999/xlink" x="0px" y="0px"
	 viewBox="0 0 430 70" style="enable-background:new 0 0 430 70;" xml:space="preserve">
<style type="text/css">
	.st0{fill:#222222;}
</style>
<g>
	<g>
		<path class="st0" d="M79.0999985,40H77.5v-4.5h-4.5999985V40h-1.5999985V30h1.5999985v4.0999985H77.5V30h1.5999985V40z"/>
		<path class="st0" d="M90.5999985,35c0,1.5999985-0.4000015,2.9000015-1.1999969,3.7999992
			c-0.8000031,0.9000015-2,1.4000015-3.5,1.4000015s-2.6999969-0.4000015-3.5-1.2999992
			C81.5999985,38,81.2000046,36.7000008,81.2000046,35.1000023s0.4000015-2.9000015,1.1999969-3.7999992
			c0.8000031-0.8999996,2-1.2999992,3.5-1.2999992S88.5,30.4000034,89.3000031,31.3000031
			C90.1000061,32.2000046,90.5999985,33.4000015,90.5999985,35z M83,35c0,1.2000008,0.1999969,2.2000008,0.6999969,2.7999992
			s1.1999969,1,2.1999969,1S87.5999908,38.5,88.0999908,37.8999977c0.5-0.5999985,0.6999969-1.5999985,0.6999969-2.7999992
			s-0.1999969-2.2000008-0.6999969-2.7999992c-0.5-0.6000004-1.1999969-1-2.1999969-1s-1.6999969,0.2999992-2.1999969,1
			C83.3000031,32.9000015,83,33.7999992,83,35z"/>
		<path class="st0" d="M97.0999985,40l-2.9000015-8.2999992h-0.0999985c0.0999985,1.2000008,0.0999985,2.4000015,0.0999985,3.5V40
			h-1.5V30H95l2.8000031,7.9000015l0,0l2.9000015-7.8999996h2.3000031V40h-1.5999985v-4.9000015c0-0.5,0-1.0999985,0-1.9000015
			c0-0.7999992,0-1.2999992,0.0999985-1.3999996h-0.0999985l-3,8.3000011h-1.3000107V40z"/>
		<path class="st0" d="M111.4000015,40h-5.6999969V30h5.6999969v1.3999996h-4v2.6999989h3.8000031V35.5h-3.8000031v3.0999985h4V40z"
			/>
		<path class="st0" d="M141.1000061,37.2999992c0,0.9000015-0.3000031,1.5999985-1,2.0999985s-1.5,0.7999992-2.6999969,0.7999992
			s-2.1000061-0.2000008-2.8000031-0.5v-1.5c0.5,0.2000008,0.8999939,0.4000015,1.5,0.5
			c0.5,0.0999985,1,0.2000008,1.3999939,0.2000008c0.6000061,0,1.1000061-0.0999985,1.3999939-0.4000015
			c0.3000031-0.2000008,0.5-0.5999985,0.5-1S139.2999878,36.7999954,139,36.5999947s-0.8999939-0.5999985-1.8000031-0.9000015
			c-0.8999939-0.4000015-1.6000061-0.7999992-1.8999939-1.2999992s-0.6000061-1-0.6000061-1.7000008
			c0-0.7999992,0.3000031-1.5,0.8999939-2s1.3999939-0.7000008,2.3999939-0.7000008s1.8999939,0.2000008,2.8999939,0.6000004
			l-0.5,1.2999992c-0.8999939-0.3999996-1.6999969-0.6000004-2.3999939-0.6000004c-0.5,0-0.8999939,0.1000004-1.1999969,0.2999992
			c-0.3000031,0.2000008-0.3999939,0.5-0.3999939,0.9000015c0,0.2999992,0.1000061,0.5,0.1999969,0.7000008
			c0.1000061,0.2000008,0.3000031,0.4000015,0.5,0.5s0.6999969,0.4000015,1.3999939,0.5999985
			c0.6999969,0.2999992,1.3000031,0.5999985,1.6000061,0.9000015c0.3000031,0.2999992,0.6000061,0.5999985,0.8000031,0.9000015
			C141,36.5,141.1000061,36.9000015,141.1000061,37.2999992z"/>
		<path class="st0" d="M150.8999939,40h-1.6000061v-4.5h-4.6000061V40H143V30h1.6000061v4.0999985h4.6000061V30h1.6000061v10
			H150.8999939z"/>
		<path class="st0" d="M162.3999939,35c0,1.5999985-0.3999939,2.9000015-1.1999969,3.7999992
			c-0.8000031,0.9000015-2,1.4000015-3.5,1.4000015s-2.6999969-0.4000015-3.5-1.2999992
			C153.3999939,38,153,36.7000008,153,35.1000023s0.3999939-2.9000015,1.1999969-3.7999992
			c0.8000031-0.8999996,2-1.2999992,3.5-1.2999992s2.6000061,0.3999996,3.3999939,1.2999992
			C161.8999786,32.2000046,162.3999939,33.4000015,162.3999939,35z M154.8000031,35
			c0,1.2000008,0.1999969,2.2000008,0.6999969,2.7999992s1.1999969,1,2.1999969,1s1.6999969-0.2999992,2.1999969-0.9000015
			c0.5-0.5999985,0.6999969-1.5999985,0.6999969-2.7999992s-0.1999969-2.2000008-0.6999969-2.7999992
			c-0.5-0.6000004-1.1999969-1-2.1999969-1S156,31.5999985,155.5,32.2999992
			C155.1000061,32.9000015,154.8000031,33.7999992,154.8000031,35z"/>
		<path class="st0" d="M171.1999969,33.0999985c0,1-0.3000031,1.7999992-1,2.4000015
			C169.5,36.0999985,168.5,36.2999992,167.3000031,36.2999992h-1V40h-1.6000061V30h2.8999939
			c1.1999969,0,2.1999969,0.2999992,2.8000031,0.7999992C170.8999939,31.2999992,171.1999969,32.0999985,171.1999969,33.0999985z
			 M166.1999969,34.9000015h0.8999939c0.8000031,0,1.5-0.0999985,1.8000031-0.4000015S169.5,33.7999992,169.5,33.0999985
			c0-0.5999985-0.1999969-1-0.5-1.2999992s-0.8999939-0.3999996-1.6000061-0.3999996h-1.1000061v3.5000019H166.1999969z"/>
		<path class="st0" d="M195,30h3c1.3999939,0,2.3999939,0.2000008,3,0.6000004s0.8999939,1,0.8999939,1.8999996
			c0,0.5999985-0.1999969,1.0999985-0.5,1.5s-0.6999969,0.5999985-1.3000031,0.7000008v0.0999985
			c0.6999969,0.0999985,1.1999969,0.4000015,1.5,0.7999992c0.3000031,0.4000015,0.5,0.9000015,0.5,1.5999985
			c0,0.9000015-0.3000031,1.5999985-0.8999939,2.0999985c-0.6000061,0.5-1.5,0.7999992-2.6000061,0.7999992H195V30z
			 M196.6000061,34.2000008h1.6000061c0.6999969,0,1.1999969-0.0999985,1.5-0.2999992s0.5-0.5999985,0.5-1.0999985
			s-0.1999969-0.7999992-0.5-1s-0.8999939-0.2999992-1.6000061-0.2999992h-1.3999939v2.6999969H196.6000061z M196.6000061,35.5
			v3.2000008h1.6999969c0.6999969,0,1.1999969-0.0999985,1.5-0.4000015c0.3000031-0.2999992,0.5-0.7000008,0.5-1.2000008
			s-0.1999969-0.9000015-0.5-1.2000008c-0.3999939-0.2000008-0.8999939-0.4000015-1.6000061-0.4000015
			C198.1999969,35.4999962,196.6000061,35.4999962,196.6000061,35.5z"/>
		<path class="st0" d="M204.3000031,40V30h1.6000061v8.5999985h4.1999969V40H204.3000031z"/>
		<path class="st0" d="M220.6999969,35c0,1.5999985-0.3999939,2.9000015-1.1999969,3.7999992
			c-0.8000031,0.9000015-2,1.4000015-3.5,1.4000015s-2.6999969-0.4000015-3.5-1.2999992
			c-0.8000031-0.9000015-1.1999969-2.2000008-1.1999969-3.7999992s0.3999939-2.9000015,1.1999969-3.7999992
			c0.8000031-0.8999996,2-1.2999992,3.5-1.2999992s2.6000061,0.3999996,3.3999939,1.2999992
			C220.1999817,32.2000046,220.6999969,33.4000015,220.6999969,35z M213.1000061,35
			c0,1.2000008,0.1999969,2.2000008,0.6999969,2.7999992s1.1999969,1,2.1999969,1s1.6999969-0.2999992,2.1999969-0.9000015
			c0.5-0.5999985,0.6999969-1.5999985,0.6999969-2.7999992s-0.1999969-2.2000008-0.6999969-2.7999992
			c-0.5-0.6000004-1.1999969-1-2.1999969-1s-1.6999969,0.2999992-2.1999969,1
			C213.3000031,32.9000015,213.1000061,33.7999992,213.1000061,35z"/>
		<path class="st0" d="M226.8999939,34.5999985h3.6999969v5c-0.6000061,0.2000008-1.1999969,0.2999992-1.6999969,0.4000015
			c-0.6000061,0.0999985-1.1999969,0.0999985-1.8000031,0.0999985c-1.5,0-2.6999969-0.4000015-3.5-1.2999992
			c-0.8000031-0.9000015-1.1999969-2.2000008-1.1999969-3.7999992s0.5-2.9000015,1.3999939-3.7999992
			c0.8999939-0.8999996,2.1999969-1.3999996,3.8000031-1.3999996c1,0,2,0.2000008,3,0.6000004l-0.6000061,1.3999996
			c-0.8000031-0.3999996-1.6000061-0.6000004-2.3999939-0.6000004c-1.1000061,0-1.8999939,0.2999992-2.5,1
			s-0.8999939,1.5999985-0.8999939,2.7000008c0,1.2000008,0.3000031,2.2000008,0.8000031,2.7999992
			c0.6000061,0.5999985,1.3999939,1,2.3999939,1c0.5,0,1.1000061-0.0999985,1.6999969-0.2000008V36h-2.1000061v-1.4000015
			H226.8999939z"/>
		<path class="st0" d="M259.1000061,31.2999992c-0.8999939,0-1.7000122,0.2999992-2.2000122,1
			s-0.7999878,1.5999985-0.7999878,2.7999992s0.2999878,2.2000008,0.7999878,2.7999992s1.2999878,0.9000015,2.2000122,0.9000015
			c0.3999939,0,0.7999878,0,1.2000122-0.0999985s0.7999878-0.2000008,1.2000122-0.2999992v1.4000015
			c-0.7999878,0.2999992-1.7000122,0.4000015-2.7000122,0.4000015c-1.5,0-2.6000061-0.4000015-3.3999939-1.2999992
			s-1.1999969-2.2000008-1.1999969-3.7999992c0-1,0.1999969-1.9000015,0.6000061-2.7000008
			c0.3999939-0.7999992,0.8999939-1.3999996,1.6999969-1.7999992c0.8000183-0.3999996,1.6000061-0.6000004,2.5-0.6000004
			c1,0,2,0.2000008,2.7999878,0.6000004l-0.6000061,1.4000015c-0.2999878-0.2000008-0.7000122-0.2999992-1.1000061-0.3999996
			C259.8999939,31.2999992,259.5,31.2999992,259.1000061,31.2999992z"/>
		<path class="st0" d="M272.6000061,35c0,1.5999985-0.3999939,2.9000015-1.2000122,3.7999992
			c-0.7999878,0.9000015-2,1.4000015-3.5,1.4000015s-2.7000122-0.4000015-3.5-1.2999992
			c-0.7999878-0.9000015-1.2000122-2.2000008-1.2000122-3.7999992s0.3999939-2.9000015,1.2000122-3.7999992
			c0.7999878-0.8999996,2-1.2999992,3.5-1.2999992s2.6000061,0.3999996,3.3999939,1.2999992
			C272.0999756,32.2000046,272.6000061,33.4000015,272.6000061,35z M265,35c0,1.2000008,0.2000122,2.2000008,0.7000122,2.7999992
			s1.2000122,1,2.2000122,1s1.7000122-0.2999992,2.2000122-0.9000015c0.5-0.5999985,0.7000122-1.5999985,0.7000122-2.7999992
			s-0.2000122-2.2000008-0.7000122-2.7999992c-0.5-0.6000004-1.2000122-1-2.2000122-1s-1.7000122,0.2999992-2.2000122,1
			C265.2000122,32.9000015,265,33.7999992,265,35z"/>
		<path class="st0" d="M283.1000061,40h-2l-4.8999939-8h-0.1000061v0.4000015
			c0.1000061,0.7999992,0.1000061,1.5999985,0.1000061,2.2999992V40h-1.5V30h2l4.8999939,7.9000015l0,0
			c0-0.0999985,0-0.5-0.1000061-1.0999985s0-1.2000008,0-1.5V30h1.5v10H283.1000061z"/>
		<path class="st0" d="M289.2000122,40h-1.6000061v-8.6000004h-2.8999939V30h7.5v1.3999996h-2.8999939V40H289.2000122z"/>
		<path class="st0" d="M299.7999878,40l-1-2.7999992H295L294,40h-1.7000122L296,30h1.7999878L301.5,40H299.7999878z
			 M298.3999939,35.7999992L297.5,33.0999985c-0.1000061-0.2000008-0.2000122-0.5-0.2999878-0.9000015
			C297.1000061,31.7999973,297,31.4999962,297,31.2999973c-0.1000061,0.6000004-0.2999878,1.1999989-0.5,1.8000011
			l-0.8999939,2.5999985h2.7999878V35.7999992z"/>
		<path class="st0" d="M307.1000061,31.2999992c-0.8999939,0-1.7000122,0.2999992-2.2000122,1
			s-0.7999878,1.5999985-0.7999878,2.7999992s0.2999878,2.2000008,0.7999878,2.7999992s1.2999878,0.9000015,2.2000122,0.9000015
			c0.3999939,0,0.7999878,0,1.2000122-0.0999985s0.7999878-0.2000008,1.2000122-0.2999992v1.4000015
			c-0.7999878,0.2999992-1.7000122,0.4000015-2.7000122,0.4000015c-1.5,0-2.6000061-0.4000015-3.3999939-1.2999992
			s-1.2000122-2.2000008-1.2000122-3.7999992c0-1,0.2000122-1.9000015,0.6000061-2.7000008s0.8999939-1.3999996,1.7000122-1.7999992
			s1.6000061-0.6000004,2.5-0.6000004c1,0,2,0.2000008,2.7999878,0.6000004l-0.6000061,1.4000015
			c-0.2999878-0.2000008-0.7000122-0.2999992-1.1000061-0.3999996C307.8999939,31.2999992,307.5,31.2999992,307.1000061,31.2999992z
			"/>
		<path class="st0" d="M315.2000122,40h-1.6000061v-8.6000004h-2.8999939V30h7.5v1.3999996h-2.8999939V40H315.2000122z"/>
		<path class="st0" d="M325.3999939,37.2999992c0,0.9000015-0.2999878,1.5999985-1,2.0999985s-1.5,0.7999992-2.7000122,0.7999992
			s-2.1000061-0.2000008-2.7999878-0.5v-1.5c0.5,0.2000008,0.8999939,0.4000015,1.5,0.5
			c0.5,0.0999985,1,0.2000008,1.3999939,0.2000008c0.6000061,0,1.1000061-0.0999985,1.3999939-0.4000015
			c0.2999878-0.2000008,0.5-0.5999985,0.5-1s-0.1000061-0.7000008-0.3999939-0.9000015S322.3999939,35.9999962,321.5,35.6999931
			c-0.8999939-0.4000015-1.6000061-0.7999992-1.8999939-1.2999992S319,33.3999939,319,32.6999931
			c0-0.7999992,0.2999878-1.5,0.8999939-2s1.3999939-0.7000008,2.3999939-0.7000008s1.8999939,0.2000008,2.8999939,0.6000004
			l-0.5,1.2999992c-0.8999939-0.3999996-1.7000122-0.6000004-2.3999939-0.6000004c-0.5,0-0.8999939,0.1000004-1.2000122,0.2999992
			c-0.2999878,0.2000008-0.3999939,0.5-0.3999939,0.9000015c0,0.2999992,0.1000061,0.5,0.2000122,0.7000008
			s0.2999878,0.4000015,0.5,0.5s0.7000122,0.4000015,1.3999939,0.5999985
			c0.7000122,0.2999992,1.2999878,0.5999985,1.6000061,0.9000015c0.2999878,0.2999992,0.6000061,0.5999985,0.7999878,0.9000015
			C325.3999939,36.5,325.3999939,36.9000015,325.3999939,37.2999992z"/>
	</g>
	<path class="st0" d="M359.8999939,41L356.5,37.5999985c0.8999939-1.0999985,1.2999878-2.5,1.2999878-3.7999992
		c0-3.3999996-2.7999878-6.2000008-6.2000122-6.2000008c-3.3999939,0-6.2000122,2.7999992-6.2000122,6.2000008
		S348.1999512,40,351.5999756,40c1.3999939,0,2.7000122-0.5,3.7999878-1.2999992l3.3999939,3.4000015
		c0.1000061,0.0999985,0.2999878,0.2000008,0.5,0.2000008s0.3999939-0.0999985,0.5-0.2000008
		c0.1000061-0.0999985,0.2000122-0.2999992,0.2999878-0.5C360.1000061,41.4000015,360.1000061,41.2000008,359.8999939,41z
		 M356.3999939,33.9000015c0,2.5999985-2.1000061,4.7999992-4.7999878,4.7999992
		c-2.6000061,0-4.7999878-2.0999985-4.7999878-4.7999992c0-2.6000004,2.1000061-4.7999992,4.7999878-4.7999992
		C354.2999878,29.1000004,356.3999939,31.2000008,356.3999939,33.9000015z"/>
</g>
</svg>
