<?xml version="1.0" encoding="utf-8"?>
<!-- Generator: Adobe Illustrator 24.2.0, SVG Export Plug-In . SVG Version: 6.00 Build 0)  -->
<svg version="1.1" id="Layer_1" xmlns="http://www.w3.org/2000/svg" width="430" height="80" xmlns:xlink="http://www.w3.org/1999/xlink" x="0px" y="0px"
	 viewBox="0 0 430 80" style="enable-background:new 0 0 430 80;" xml:space="preserve">
<style type="text/css">
	.st0{display:none;}
	.st1{display:inline;fill:#222222;}
	.st2{font-family:'OpenSans-SemiBold';}
	.st3{font-size:14px;}
	.st4{fill:#222222;}
</style>
<g class="st0">
	<text transform="matrix(1 0 0 1 157.3478394 44.3018188)" class="st1 st2 st3">Full-Width search</text>
	<path class="st1" d="M148.9316406,45.1474419l-3.3999939-3.4000015c0.8999939-1.0999985,1.2999878-2.5,1.2999878-3.7999992
		c0-3.3999977-2.7999878-6.2000008-6.2000122-6.2000008c-3.3999939,0-6.2000122,2.7999992-6.2000122,6.2000008
		s2.7999878,6.2000008,6.2000122,6.2000008c1.3999939,0,2.7000122-0.5,3.7999878-1.2999992l3.3999939,3.4000015
		c0.1000061,0.0999985,0.2999878,0.2000008,0.5,0.2000008s0.3999939-0.0999985,0.5-0.2000008
		c0.1000061-0.0999985,0.2000122-0.2999992,0.2999878-0.5C149.1316528,45.4474449,149.1316528,45.3474426,148.9316406,45.1474419z
		 M145.4316406,37.9474449c0,2.5999985-2.1000061,4.7999992-4.7999878,4.7999992
		c-2.6000061,0-4.7999878-2.0999985-4.7999878-4.7999992c0-2.5999985,2.1000061-4.7999992,4.7999878-4.7999992
		C143.331665,33.1474457,145.4316406,35.2474442,145.4316406,37.9474449z"/>
</g>
<g>
	<g>
		<g>
			<path class="st4" d="M150.9785156,56.7050781h-1.6201172v-9.9941406h5.6396484v1.3808594h-4.0195312v3.1240234h3.7666016
				v1.3876953h-3.7666016V56.7050781z"/>
			<path class="st4" d="M164.7836914,46.7109375v6.4667969c0,0.7382812-0.1582031,1.3847656-0.4750977,1.9384766
				s-0.7749023,0.9794922-1.3740234,1.2783203c-0.5991211,0.2978516-1.315918,0.4472656-2.1499023,0.4472656
				c-1.2397461,0-2.2036133-0.328125-2.8916016-0.984375s-1.0322266-1.5585938-1.0322266-2.7070312v-6.4394531h1.640625v6.3232422
				c0,0.8251953,0.1914062,1.4335938,0.5742188,1.8251953c0.3828125,0.3925781,0.9707031,0.5878906,1.7636719,0.5878906
				c1.5405273,0,2.3105469-0.8085938,2.3105469-2.4267578v-6.3095703H164.7836914z"/>
			<path class="st4" d="M167.4799805,56.7050781v-9.9941406h1.6337891v8.5927734h4.2314453v1.4013672H167.4799805z"/>
			<path class="st4" d="M175.2080078,56.7050781v-9.9941406h1.6337891v8.5927734h4.2319336v1.4013672H175.2080078z"/>
			<path class="st4" d="M182.1088867,53.6357422v-1.3671875h3.5136719v1.3671875H182.1088867z"/>
			<path class="st4" d="M196.8022461,56.7050781h-1.7773438l-1.6953125-5.9609375
				c-0.0732422-0.2597656-0.1640625-0.6347656-0.2734375-1.1240234c-0.109375-0.4902344-0.1757812-0.8310547-0.1982422-1.0224609
				c-0.0458984,0.2919922-0.1201172,0.6699219-0.2216797,1.1347656c-0.1035156,0.4648438-0.1884766,0.8115234-0.2568359,1.0390625
				l-1.6542969,5.9335938h-1.7773438l-1.2919922-5.0039062l-1.3125-4.9902344h1.6679688l1.4287109,5.8242188
				c0.2236328,0.9345703,0.3828125,1.7597656,0.4785156,2.4746094c0.0498047-0.3867188,0.125-0.8203125,0.2255859-1.2988281
				s0.1914062-0.8652344,0.2734375-1.1621094l1.6269531-5.8378906h1.6201172l1.6679688,5.8652344
				c0.1591797,0.5429688,0.328125,1.3535156,0.5058594,2.4335938c0.0683594-0.6513672,0.2324219-1.4804688,0.4921875-2.4882812
				l1.421875-5.8105469h1.6542969L196.8022461,56.7050781z"/>
			<path class="st4" d="M200.9624023,56.7050781v-9.9941406h1.6337891v9.9941406H200.9624023z"/>
			<path class="st4" d="M213.5024414,51.6123047c0,1.6503906-0.4580078,2.9111328-1.3740234,3.7841797
				c-0.9160156,0.8720703-2.2353516,1.3085938-3.9580078,1.3085938h-2.7958984v-9.9941406h3.0898438
				c1.5908203,0,2.828125,0.4287109,3.7119141,1.2851562C213.0600586,48.8535156,213.5024414,50.0585938,213.5024414,51.6123047z
				 M211.7797852,51.6669922c0-2.3925781-1.1191406-3.5888672-3.3564453-3.5888672h-1.4150391v7.2529297h1.1621094
				C210.5766602,55.3310547,211.7797852,54.1103516,211.7797852,51.6669922z"/>
			<path class="st4" d="M219.2402344,56.7050781h-1.6337891v-8.5927734h-2.9389648v-1.4013672h7.512207v1.4013672h-2.9394531
				V56.7050781z"/>
			<path class="st4" d="M231.7333984,56.7050781h-1.640625v-4.5048828h-4.6074219v4.5048828h-1.6337891v-9.9941406h1.6337891
				v4.0878906h4.6074219v-4.0878906h1.640625V56.7050781z"/>
			<path class="st4" d="M244.0439453,53.9912109c0,0.8886719-0.3212891,1.5859375-0.9638672,2.0917969
				s-1.5292969,0.7587891-2.6591797,0.7587891s-2.0556641-0.1748047-2.7753906-0.5263672v-1.5449219
				c0.4560547,0.2148438,0.9394531,0.3828125,1.453125,0.5058594c0.5117188,0.1230469,0.9892578,0.1845703,1.4316406,0.1845703
				c0.6474609,0,1.125-0.1230469,1.4316406-0.3691406c0.3085938-0.2460938,0.4619141-0.5761719,0.4619141-0.9912109
				c0-0.3730469-0.1416016-0.6904297-0.4238281-0.9501953s-0.8662109-0.5673828-1.75-0.9228516
				c-0.9111328-0.3691406-1.5537109-0.7900391-1.9277344-1.2646484c-0.3740234-0.4736328-0.5605469-1.0429688-0.5605469-1.7089844
				c0-0.8339844,0.2958984-1.4902344,0.8886719-1.96875s1.3876953-0.7177734,2.3857422-0.7177734
				c0.9570312,0,1.9091797,0.2099609,2.8574219,0.6289062l-0.5195312,1.3330078
				c-0.8886719-0.3730469-1.6816406-0.5605469-2.3789062-0.5605469c-0.5283203,0-0.9296875,0.1152344-1.203125,0.3457031
				c-0.2734375,0.2294922-0.4101562,0.5341797-0.4101562,0.9121094c0,0.2597656,0.0546875,0.4824219,0.1640625,0.6669922
				s0.2890625,0.3583984,0.5400391,0.5224609s0.7021484,0.3808594,1.3535156,0.6494141
				c0.7333984,0.3056641,1.2714844,0.5908203,1.6132812,0.8544922c0.3417969,0.2646484,0.5927734,0.5634766,0.7519531,0.8955078
				C243.9638672,53.1484375,244.0439453,53.5400391,244.0439453,53.9912109z"/>
			<path class="st4" d="M251.7724609,56.7050781h-5.6533203v-9.9941406h5.6533203v1.3808594h-4.0195312V50.8125h3.7666016v1.3671875
				h-3.7666016v3.1376953h4.0195312V56.7050781z"/>
			<path class="st4" d="M260.2724609,56.7050781l-0.9980469-2.7753906h-3.8212891l-0.9775391,2.7753906h-1.7226562
				l3.7392578-10.0351562h1.7773438l3.7392578,10.0351562H260.2724609z M258.84375,52.5214844l-0.9365234-2.7207031
				c-0.0683594-0.1816406-0.1630859-0.46875-0.2832031-0.8613281c-0.1210938-0.3916016-0.2041016-0.6787109-0.25-0.8613281
				c-0.1230469,0.5605469-0.3027344,1.1738281-0.5400391,1.8388672l-0.9023438,2.6044922H258.84375z"/>
			<path class="st4" d="M265.1025391,52.7128906v3.9921875H263.46875v-9.9941406h2.8232422
				c1.2900391,0,2.2441406,0.2421875,2.8642578,0.7246094c0.6201172,0.4833984,0.9296875,1.2128906,0.9296875,2.1875
				c0,1.2441406-0.6474609,2.1308594-1.9414062,2.6591797l2.8232422,4.4228516h-1.859375l-2.3925781-3.9921875H265.1025391z
				 M265.1025391,51.359375h1.1347656c0.7607422,0,1.3125-0.140625,1.6542969-0.4238281
				c0.3417969-0.2822266,0.5126953-0.7011719,0.5126953-1.2578125c0-0.5644531-0.1845703-0.9707031-0.5537109-1.2167969
				s-0.9248047-0.3691406-1.6679688-0.3691406h-1.0800781V51.359375z"/>
			<path class="st4" d="M276.8085938,47.96875c-0.9384766,0-1.6767578,0.3330078-2.2148438,0.9980469
				c-0.5380859,0.6660156-0.8066406,1.5839844-0.8066406,2.7548828c0,1.2265625,0.2587891,2.1533203,0.7763672,2.7822266
				c0.5166016,0.6289062,1.265625,0.9433594,2.2451172,0.9433594c0.4238281,0,0.8339844-0.0419922,1.2304688-0.1259766
				c0.3964844-0.0849609,0.8085938-0.1923828,1.2373047-0.3251953v1.4013672
				c-0.7841797,0.296875-1.6728516,0.4443359-2.6660156,0.4443359c-1.4628906,0-2.5859375-0.4433594-3.3701172-1.3291016
				c-0.7841797-0.8867188-1.1757812-2.1542969-1.1757812-3.8046875c0-1.0390625,0.1904297-1.9482422,0.5712891-2.7275391
				c0.3798828-0.7792969,0.9306641-1.3759766,1.6503906-1.7910156c0.7197266-0.4140625,1.5654297-0.6220703,2.5361328-0.6220703
				c1.0205078,0,1.9638672,0.2148438,2.8300781,0.6425781l-0.5878906,1.3603516
				c-0.3369141-0.1591797-0.6943359-0.2998047-1.0693359-0.4199219
				C277.6181641,48.0292969,277.2236328,47.96875,276.8085938,47.96875z"/>
			<path class="st4" d="M289.4511719,56.7050781h-1.640625v-4.5048828h-4.6074219v4.5048828h-1.6337891v-9.9941406h1.6337891
				v4.0878906h4.6074219v-4.0878906h1.640625V56.7050781z"/>
		</g>
	</g>
	<g>
		<path class="st4" d="M206.7057343,27.4790173h-20.8079987l6.6239929-6.960001
			c0.1200104-0.1199989,0.1920013-0.3119984,0.1920013-0.5039997c0-0.1919994-0.095993-0.3599987-0.2159882-0.4799995
			c-0.1200104-0.1200008-0.3120117-0.1919994-0.480011-0.1919994c-0.1920013,0-0.3600006,0.0719986-0.5039978,0.2159996
			l-7.7519989,8.184c-0.0240021,0.0240002-0.0480042,0.0719986-0.071991,0.0959988l-0.0240021,0.0480003
			c-0.0720062,0.1680012-0.0960083,0.3600006-0.0240021,0.5279999c0.0240021,0.0240002,0.0240021,0.0720005,0.0480042,0.0960007
			c0.0239868,0.0480003,0.0479889,0.0719986,0.071991,0.0959988l0.0480042,0.0480003l0,0l7.7279968,8.1120014
			c0.1439972,0.144001,0.3119965,0.2159996,0.5039978,0.2159996c0.2640076,0,0.4080048-0.1199989,0.480011-0.2159996
			c0.2399902-0.2639999,0.2639923-0.6720009,0.0239868-0.9599991l-6.647995-6.9359989h20.8079987
			c0.3840027,0,0.6959991-0.3120003,0.6959991-0.6960011C207.4017334,27.7910194,207.0897369,27.4790192,206.7057343,27.4790173z"/>
		<path class="st4" d="M205.7213898,28.1750183c0,0.3840008,0.3119965,0.6960011,0.6959991,0.6960011h37.6848755
			l-6.647995,6.9359989c-0.2400055,0.2879982-0.2160034,0.6959991,0.0239868,0.9599991
			c0.0720062,0.0960007,0.2160034,0.2159996,0.480011,0.2159996c0.1920013,0,0.3600006-0.0719986,0.5039978-0.2159996
			l7.7279968-8.1120014l0,0l0.0480042-0.0480003c0.0240021-0.0240002,0.0480042-0.0479984,0.071991-0.0959988
			c0.0240021-0.0240002,0.0240021-0.0720005,0.0480042-0.0960007c0.0720062-0.1679993,0.0480042-0.3599987-0.0240021-0.5279999
			l-0.0240021-0.0480003c-0.0239868-0.0240002-0.0479889-0.0719986-0.071991-0.0959988l-7.7519989-8.184
			c-0.1439972-0.144001-0.3119965-0.2159996-0.5039978-0.2159996c-0.1679993,0-0.3600006,0.0719986-0.480011,0.1919994
			c-0.1199951,0.1200008-0.2159882,0.2880001-0.2159882,0.4799995c0,0.1920013,0.071991,0.3840008,0.1920013,0.5039997
			l6.6239929,6.960001h-37.6848755C206.0333862,27.4790192,205.7213898,27.7910194,205.7213898,28.1750183z"/>
	</g>
</g>
</svg>
