<svg width="50" height="50" viewBox="0 0 50 50" fill="none" xmlns="http://www.w3.org/2000/svg">
<path fill-rule="evenodd" clip-rule="evenodd" d="M24.5 12C17.5964 12 12 17.5964 12 24.5C12 25.8317 12.0792 26.3925 12.4533 27.5729C12.6201 28.0994 12.3286 28.6614 11.8021 28.8283C11.2756 28.9951 10.7136 28.7036 10.5467 28.1771C10.1044 26.7813 10 26.0147 10 24.5C10 16.4919 16.4919 10 24.5 10C28.8826 10 32.8224 11.8206 35.4876 14.885L35.9046 12.7605C36.011 12.2185 36.5366 11.8654 37.0785 11.9718C37.6205 12.0782 37.9736 12.6038 37.8672 13.1457L36.8467 18.3448L30.9951 18.3163C30.4429 18.3137 29.9973 17.8638 30 17.3115C30.0027 16.7592 30.4526 16.3137 31.0049 16.3164L34.093 16.3314C31.8125 13.6303 28.3787 12 24.5 12ZM37.0541 19.4257C37.5801 19.2572 38.143 19.5471 38.3115 20.073C38.4089 20.377 38.4965 20.6854 38.574 20.9978C38.8525 22.1203 39 23.2936 39 24.5C39 32.5081 32.5081 39 24.5 39C19.9096 39 16.0026 37.1811 13.4002 33.898L12.9813 36.0324C12.8749 36.5743 12.3493 36.9274 11.8074 36.821C11.2654 36.7147 10.9123 36.1891 11.0187 35.6471L12.0392 30.4481L17.8908 30.4765C18.4431 30.4792 18.8886 30.9291 18.8859 31.4814C18.8832 32.0337 18.4333 32.4792 17.8811 32.4765L14.8174 32.4616C17.0236 35.3672 20.3988 37 24.5 37C31.4036 37 37 31.4036 37 24.5C37 23.4572 36.8725 22.4456 36.6328 21.4793C36.5661 21.2104 36.4906 20.9448 36.4068 20.6831C36.2383 20.1571 36.5282 19.5942 37.0541 19.4257Z" fill="#222222"/>
</svg>
