<svg width="430" height="80" viewBox="0 0 430 80" fill="none" xmlns="http://www.w3.org/2000/svg">
<path d="M20.6631 41.9316C20.54 42.9844 20.1504 43.7979 19.4941 44.3721C18.8424 44.9417 17.9743 45.2266 16.8896 45.2266C15.7139 45.2266 14.7705 44.805 14.0596 43.9619C13.3532 43.1188 13 41.9909 13 40.5781V39.6211C13 38.696 13.1641 37.8825 13.4922 37.1807C13.8249 36.4788 14.2943 35.9411 14.9004 35.5674C15.5065 35.1891 16.2083 35 17.0059 35C18.0632 35 18.9108 35.2962 19.5488 35.8887C20.1868 36.4766 20.5583 37.2923 20.6631 38.3359H19.3438C19.2298 37.543 18.9814 36.9688 18.5986 36.6133C18.2204 36.2578 17.6895 36.0801 17.0059 36.0801C16.1673 36.0801 15.5088 36.39 15.0303 37.0098C14.5563 37.6296 14.3193 38.5114 14.3193 39.6553V40.6191C14.3193 41.6992 14.5449 42.5583 14.9961 43.1963C15.4473 43.8343 16.0785 44.1533 16.8896 44.1533C17.6188 44.1533 18.1771 43.9893 18.5645 43.6611C18.9564 43.3285 19.2161 42.752 19.3438 41.9316H20.6631Z" fill="#222222"/>
<path d="M21.9277 41.3232C21.9277 40.5986 22.069 39.9469 22.3516 39.3682C22.6387 38.7894 23.0352 38.3428 23.541 38.0283C24.0514 37.7139 24.6325 37.5566 25.2842 37.5566C26.2913 37.5566 27.1048 37.9053 27.7246 38.6025C28.349 39.2998 28.6611 40.2272 28.6611 41.3848V41.4736C28.6611 42.1937 28.5221 42.8408 28.2441 43.415C27.9707 43.9847 27.5765 44.429 27.0615 44.748C26.5511 45.0671 25.9632 45.2266 25.2979 45.2266C24.2952 45.2266 23.4818 44.8779 22.8574 44.1807C22.2376 43.4834 21.9277 42.5605 21.9277 41.4121V41.3232ZM23.1992 41.4736C23.1992 42.2939 23.3883 42.9525 23.7666 43.4492C24.1494 43.946 24.6598 44.1943 25.2979 44.1943C25.9404 44.1943 26.4508 43.9437 26.8291 43.4424C27.2074 42.9365 27.3965 42.2301 27.3965 41.3232C27.3965 40.512 27.2028 39.8558 26.8154 39.3545C26.4326 38.8486 25.9222 38.5957 25.2842 38.5957C24.6598 38.5957 24.1562 38.8441 23.7734 39.3408C23.3906 39.8376 23.1992 40.5485 23.1992 41.4736Z" fill="#222222"/>
<path d="M31.4365 37.6934L31.4707 38.5137C32.013 37.8757 32.7445 37.5566 33.665 37.5566C34.6995 37.5566 35.4036 37.9531 35.7773 38.7461C36.0234 38.3906 36.3424 38.1035 36.7344 37.8848C37.1309 37.666 37.598 37.5566 38.1357 37.5566C39.7581 37.5566 40.583 38.4157 40.6104 40.1338V45.0898H39.3457V40.209C39.3457 39.6803 39.2249 39.2861 38.9834 39.0264C38.7419 38.762 38.3363 38.6299 37.7666 38.6299C37.2972 38.6299 36.9076 38.7712 36.5977 39.0537C36.2878 39.3317 36.1077 39.7077 36.0576 40.1816V45.0898H34.7861V40.2432C34.7861 39.1676 34.2598 38.6299 33.207 38.6299C32.3776 38.6299 31.8102 38.9831 31.5049 39.6895V45.0898H30.2402V37.6934H31.4365Z" fill="#222222"/>
<path d="M48.7725 41.4736C48.7725 42.5993 48.515 43.5062 48 44.1943C47.485 44.8825 46.7878 45.2266 45.9082 45.2266C45.0104 45.2266 44.304 44.9417 43.7891 44.3721V47.9336H42.5244V37.6934H43.6797L43.7412 38.5137C44.2562 37.8757 44.9717 37.5566 45.8877 37.5566C46.7764 37.5566 47.4782 37.8916 47.9932 38.5615C48.5127 39.2314 48.7725 40.1634 48.7725 41.3574V41.4736ZM47.5078 41.3301C47.5078 40.4961 47.3301 39.8376 46.9746 39.3545C46.6191 38.8714 46.1315 38.6299 45.5117 38.6299C44.7461 38.6299 44.1719 38.9694 43.7891 39.6484V43.1826C44.1673 43.8571 44.7461 44.1943 45.5254 44.1943C46.1315 44.1943 46.6123 43.9551 46.9678 43.4766C47.3278 42.9935 47.5078 42.278 47.5078 41.3301Z" fill="#222222"/>
<path d="M54.9521 45.0898C54.8792 44.944 54.82 44.6842 54.7744 44.3105C54.1865 44.9212 53.4847 45.2266 52.6689 45.2266C51.9398 45.2266 51.3405 45.0215 50.8711 44.6113C50.4062 44.1966 50.1738 43.6725 50.1738 43.0391C50.1738 42.2689 50.4655 41.6719 51.0488 41.248C51.6367 40.8197 52.4616 40.6055 53.5234 40.6055H54.7539V40.0244C54.7539 39.5824 54.6217 39.2314 54.3574 38.9717C54.0931 38.7074 53.7035 38.5752 53.1885 38.5752C52.7373 38.5752 52.359 38.6891 52.0537 38.917C51.7484 39.1449 51.5957 39.4206 51.5957 39.7441H50.3242C50.3242 39.375 50.4541 39.0195 50.7139 38.6777C50.9782 38.3314 51.3337 38.0579 51.7803 37.8574C52.2314 37.6569 52.7259 37.5566 53.2637 37.5566C54.1159 37.5566 54.7835 37.7708 55.2666 38.1992C55.7497 38.623 56.0003 39.2087 56.0186 39.9561V43.3604C56.0186 44.0394 56.1051 44.5794 56.2783 44.9805V45.0898H54.9521ZM52.8535 44.126C53.25 44.126 53.626 44.0234 53.9814 43.8184C54.3369 43.6133 54.5944 43.3467 54.7539 43.0186V41.501H53.7627C52.2132 41.501 51.4385 41.9544 51.4385 42.8613C51.4385 43.2578 51.5706 43.5677 51.835 43.791C52.0993 44.0143 52.4388 44.126 52.8535 44.126Z" fill="#222222"/>
<path d="M61.5762 38.8281C61.3848 38.7962 61.1774 38.7803 60.9541 38.7803C60.1247 38.7803 59.5618 39.1335 59.2656 39.8398V45.0898H58.001V37.6934H59.2314L59.252 38.5479C59.6667 37.887 60.2546 37.5566 61.0156 37.5566C61.2617 37.5566 61.4486 37.5885 61.5762 37.6523V38.8281Z" fill="#222222"/>
<path d="M65.6777 45.2266C64.6751 45.2266 63.8594 44.8984 63.2305 44.2422C62.6016 43.5814 62.2871 42.6995 62.2871 41.5967V41.3643C62.2871 40.6305 62.4261 39.9766 62.7041 39.4023C62.9867 38.8236 63.3786 38.3724 63.8799 38.0488C64.3857 37.7207 64.9326 37.5566 65.5205 37.5566C66.4821 37.5566 67.2295 37.8734 67.7627 38.5068C68.2959 39.1403 68.5625 40.0472 68.5625 41.2275V41.7539H63.5518C63.57 42.4831 63.7819 43.0732 64.1875 43.5244C64.5977 43.971 65.1172 44.1943 65.7461 44.1943C66.1927 44.1943 66.571 44.1032 66.8809 43.9209C67.1908 43.7386 67.4619 43.4971 67.6943 43.1963L68.4668 43.7979C67.847 44.7503 66.9173 45.2266 65.6777 45.2266ZM65.5205 38.5957C65.0101 38.5957 64.5817 38.7826 64.2354 39.1562C63.889 39.5254 63.6748 40.0449 63.5928 40.7148H67.2979V40.6191C67.2614 39.9766 67.0882 39.4798 66.7783 39.1289C66.4684 38.7734 66.0492 38.5957 65.5205 38.5957Z" fill="#222222"/>
<path d="M80 33.9656C76.6672 33.9656 73.9655 36.6673 73.9655 40.0001C73.9655 40.6488 74.0053 40.9788 74.1843 41.5439C74.2649 41.798 74.1242 42.0694 73.87 42.1499C73.6158 42.2305 73.3445 42.0897 73.2639 41.8356C73.0489 41.1569 73 40.7254 73 40.0001C73 36.1341 76.134 33.0001 80 33.0001C82.1158 33.0001 84.0179 33.8791 85.3046 35.3586L85.5049 34.3378C85.5563 34.0761 85.8104 33.9033 86.0724 33.9518C86.3345 34.0003 86.5053 34.2518 86.4539 34.5135L86.0431 36.6065C86.0138 36.8443 85.8109 37.0275 85.5645 37.0263L83.1388 37.0145C82.872 37.0132 82.6554 36.7962 82.6549 36.5297C82.6544 36.2633 82.8703 36.0484 83.1371 36.0496L84.6314 36.0569C83.5304 34.7528 81.8726 33.9656 80 33.9656Z" fill="#222222"/>
<path d="M86.1161 37.6896C86.372 37.6147 86.6401 37.7614 86.7151 38.0172L86.7227 38.0433C86.7483 38.1314 86.7721 38.2199 86.7943 38.3093C86.9288 38.8513 87 39.4177 87 40.0001C87 43.8661 83.866 47.0001 80 47.0001C77.7838 47.0001 75.8976 46.1219 74.6413 44.5368L74.44 45.5623C74.3886 45.824 74.1346 45.9969 73.8725 45.9483C73.6104 45.8998 73.4396 45.6483 73.491 45.3866L73.9018 43.2936C73.9311 43.0558 74.134 42.8726 74.3804 42.8738L76.8061 42.8856C77.0729 42.8869 77.2896 43.1039 77.2901 43.3704C77.2905 43.6368 77.0747 43.8518 76.8079 43.8505L75.3254 43.8433C76.3905 45.2462 78.0199 46.0345 80 46.0345C83.3328 46.0345 86.0345 43.3328 86.0345 40.0001C86.0345 39.4967 85.9729 39.0083 85.8572 38.5418C85.8381 38.4647 85.8176 38.3886 85.7956 38.3129L85.7885 38.2886C85.7136 38.0328 85.8602 37.7646 86.1161 37.6896Z" fill="#222222"/>
<path d="M156.663 41.9316C156.54 42.9844 156.15 43.7979 155.494 44.3721C154.842 44.9417 153.974 45.2266 152.89 45.2266C151.714 45.2266 150.771 44.805 150.06 43.9619C149.353 43.1188 149 41.9909 149 40.5781V39.6211C149 38.696 149.164 37.8825 149.492 37.1807C149.825 36.4788 150.294 35.9411 150.9 35.5674C151.507 35.1891 152.208 35 153.006 35C154.063 35 154.911 35.2962 155.549 35.8887C156.187 36.4766 156.558 37.2923 156.663 38.3359H155.344C155.23 37.543 154.981 36.9688 154.599 36.6133C154.22 36.2578 153.689 36.0801 153.006 36.0801C152.167 36.0801 151.509 36.39 151.03 37.0098C150.556 37.6296 150.319 38.5114 150.319 39.6553V40.6191C150.319 41.6992 150.545 42.5583 150.996 43.1963C151.447 43.8343 152.078 44.1533 152.89 44.1533C153.619 44.1533 154.177 43.9893 154.564 43.6611C154.956 43.3285 155.216 42.752 155.344 41.9316H156.663Z" fill="#222222"/>
<path d="M157.928 41.3232C157.928 40.5986 158.069 39.9469 158.352 39.3682C158.639 38.7894 159.035 38.3428 159.541 38.0283C160.051 37.7139 160.632 37.5566 161.284 37.5566C162.291 37.5566 163.105 37.9053 163.725 38.6025C164.349 39.2998 164.661 40.2272 164.661 41.3848V41.4736C164.661 42.1937 164.522 42.8408 164.244 43.415C163.971 43.9847 163.576 44.429 163.062 44.748C162.551 45.0671 161.963 45.2266 161.298 45.2266C160.295 45.2266 159.482 44.8779 158.857 44.1807C158.238 43.4834 157.928 42.5605 157.928 41.4121V41.3232ZM159.199 41.4736C159.199 42.2939 159.388 42.9525 159.767 43.4492C160.149 43.946 160.66 44.1943 161.298 44.1943C161.94 44.1943 162.451 43.9437 162.829 43.4424C163.207 42.9365 163.396 42.2301 163.396 41.3232C163.396 40.512 163.203 39.8558 162.815 39.3545C162.433 38.8486 161.922 38.5957 161.284 38.5957C160.66 38.5957 160.156 38.8441 159.773 39.3408C159.391 39.8376 159.199 40.5485 159.199 41.4736Z" fill="#222222"/>
<path d="M167.437 37.6934L167.471 38.5137C168.013 37.8757 168.744 37.5566 169.665 37.5566C170.7 37.5566 171.404 37.9531 171.777 38.7461C172.023 38.3906 172.342 38.1035 172.734 37.8848C173.131 37.666 173.598 37.5566 174.136 37.5566C175.758 37.5566 176.583 38.4157 176.61 40.1338V45.0898H175.346V40.209C175.346 39.6803 175.225 39.2861 174.983 39.0264C174.742 38.762 174.336 38.6299 173.767 38.6299C173.297 38.6299 172.908 38.7712 172.598 39.0537C172.288 39.3317 172.108 39.7077 172.058 40.1816V45.0898H170.786V40.2432C170.786 39.1676 170.26 38.6299 169.207 38.6299C168.378 38.6299 167.81 38.9831 167.505 39.6895V45.0898H166.24V37.6934H167.437Z" fill="#222222"/>
<path d="M184.772 41.4736C184.772 42.5993 184.515 43.5062 184 44.1943C183.485 44.8825 182.788 45.2266 181.908 45.2266C181.01 45.2266 180.304 44.9417 179.789 44.3721V47.9336H178.524V37.6934H179.68L179.741 38.5137C180.256 37.8757 180.972 37.5566 181.888 37.5566C182.776 37.5566 183.478 37.8916 183.993 38.5615C184.513 39.2314 184.772 40.1634 184.772 41.3574V41.4736ZM183.508 41.3301C183.508 40.4961 183.33 39.8376 182.975 39.3545C182.619 38.8714 182.132 38.6299 181.512 38.6299C180.746 38.6299 180.172 38.9694 179.789 39.6484V43.1826C180.167 43.8571 180.746 44.1943 181.525 44.1943C182.132 44.1943 182.612 43.9551 182.968 43.4766C183.328 42.9935 183.508 42.278 183.508 41.3301Z" fill="#222222"/>
<path d="M190.952 45.0898C190.879 44.944 190.82 44.6842 190.774 44.3105C190.187 44.9212 189.485 45.2266 188.669 45.2266C187.94 45.2266 187.34 45.0215 186.871 44.6113C186.406 44.1966 186.174 43.6725 186.174 43.0391C186.174 42.2689 186.465 41.6719 187.049 41.248C187.637 40.8197 188.462 40.6055 189.523 40.6055H190.754V40.0244C190.754 39.5824 190.622 39.2314 190.357 38.9717C190.093 38.7074 189.703 38.5752 189.188 38.5752C188.737 38.5752 188.359 38.6891 188.054 38.917C187.748 39.1449 187.596 39.4206 187.596 39.7441H186.324C186.324 39.375 186.454 39.0195 186.714 38.6777C186.978 38.3314 187.334 38.0579 187.78 37.8574C188.231 37.6569 188.726 37.5566 189.264 37.5566C190.116 37.5566 190.784 37.7708 191.267 38.1992C191.75 38.623 192 39.2087 192.019 39.9561V43.3604C192.019 44.0394 192.105 44.5794 192.278 44.9805V45.0898H190.952ZM188.854 44.126C189.25 44.126 189.626 44.0234 189.981 43.8184C190.337 43.6133 190.594 43.3467 190.754 43.0186V41.501H189.763C188.213 41.501 187.438 41.9544 187.438 42.8613C187.438 43.2578 187.571 43.5677 187.835 43.791C188.099 44.0143 188.439 44.126 188.854 44.126Z" fill="#222222"/>
<path d="M197.576 38.8281C197.385 38.7962 197.177 38.7803 196.954 38.7803C196.125 38.7803 195.562 39.1335 195.266 39.8398V45.0898H194.001V37.6934H195.231L195.252 38.5479C195.667 37.887 196.255 37.5566 197.016 37.5566C197.262 37.5566 197.449 37.5885 197.576 37.6523V38.8281Z" fill="#222222"/>
<path d="M201.678 45.2266C200.675 45.2266 199.859 44.8984 199.23 44.2422C198.602 43.5814 198.287 42.6995 198.287 41.5967V41.3643C198.287 40.6305 198.426 39.9766 198.704 39.4023C198.987 38.8236 199.379 38.3724 199.88 38.0488C200.386 37.7207 200.933 37.5566 201.521 37.5566C202.482 37.5566 203.229 37.8734 203.763 38.5068C204.296 39.1403 204.562 40.0472 204.562 41.2275V41.7539H199.552C199.57 42.4831 199.782 43.0732 200.188 43.5244C200.598 43.971 201.117 44.1943 201.746 44.1943C202.193 44.1943 202.571 44.1032 202.881 43.9209C203.191 43.7386 203.462 43.4971 203.694 43.1963L204.467 43.7979C203.847 44.7503 202.917 45.2266 201.678 45.2266ZM201.521 38.5957C201.01 38.5957 200.582 38.7826 200.235 39.1562C199.889 39.5254 199.675 40.0449 199.593 40.7148H203.298V40.6191C203.261 39.9766 203.088 39.4798 202.778 39.1289C202.468 38.7734 202.049 38.5957 201.521 38.5957Z" fill="#222222"/>
<path d="M216 33.9655C212.667 33.9655 209.966 36.6673 209.966 40C209.966 40.6488 210.005 40.9788 210.184 41.5438C210.265 41.798 210.124 42.0693 209.87 42.1499C209.616 42.2304 209.344 42.0897 209.264 41.8355C209.049 41.1569 209 40.7254 209 40C209 36.134 212.134 33 216 33C218.116 33 220.018 33.879 221.305 35.3585L221.505 34.3378C221.556 34.0761 221.81 33.9032 222.072 33.9517C222.334 34.0003 222.505 34.2518 222.454 34.5135L222.043 36.6064C222.014 36.8443 221.811 37.0275 221.565 37.0263L219.139 37.0145C218.872 37.0132 218.655 36.7962 218.655 36.5297C218.654 36.2633 218.87 36.0483 219.137 36.0496L220.631 36.0569C219.53 34.7527 217.873 33.9655 216 33.9655Z" fill="#222222"/>
<path d="M222.116 37.6896C222.372 37.6147 222.64 37.7613 222.715 38.0172L222.723 38.0432C222.748 38.1314 222.772 38.2198 222.794 38.3093C222.929 38.8512 223 39.4176 223 40C223 43.866 219.866 47 216 47C213.784 47 211.898 46.1219 210.641 44.5368L210.44 45.5622C210.389 45.824 210.135 45.9968 209.872 45.9483C209.61 45.8998 209.44 45.6483 209.491 45.3865L209.902 43.2936C209.931 43.0558 210.134 42.8726 210.38 42.8738L212.806 42.8856C213.073 42.8869 213.29 43.1039 213.29 43.3704C213.291 43.6368 213.075 43.8518 212.808 43.8505L211.325 43.8433C212.39 45.2461 214.02 46.0345 216 46.0345C219.333 46.0345 222.034 43.3328 222.034 40C222.034 39.4966 221.973 39.0083 221.857 38.5418C221.838 38.4646 221.818 38.3886 221.796 38.3129L221.788 38.2886C221.714 38.0327 221.86 37.7646 222.116 37.6896Z" fill="#222222"/>
<path d="M236.583 24.2C245.283 24.2 252.483 31.1 252.583 39.6C252.583 48.1 245.383 55 236.583 55H135.183C126.383 55 119.183 48.1 119.183 39.6C119.183 31.1 126.383 24.2 135.183 24.2H236.583ZM236.583 23H135.183C125.783 23 117.983 30.4 117.983 39.6C117.983 48.7 125.683 56.2 135.183 56.2H236.583C245.983 56.2 253.783 48.8 253.783 39.6C253.583 30.4 245.983 23 236.583 23Z" fill="#222222"/>
<path d="M421.483 23H285.683V56.2H421.483V23Z" fill="#222222"/>
<path d="M323.663 41.9316C323.54 42.9844 323.15 43.7979 322.494 44.3721C321.842 44.9417 320.974 45.2266 319.89 45.2266C318.714 45.2266 317.771 44.805 317.06 43.9619C316.353 43.1188 316 41.9909 316 40.5781V39.6211C316 38.696 316.164 37.8825 316.492 37.1807C316.825 36.4788 317.294 35.9411 317.9 35.5674C318.507 35.1891 319.208 35 320.006 35C321.063 35 321.911 35.2962 322.549 35.8887C323.187 36.4766 323.558 37.2923 323.663 38.3359H322.344C322.23 37.543 321.981 36.9688 321.599 36.6133C321.22 36.2578 320.689 36.0801 320.006 36.0801C319.167 36.0801 318.509 36.39 318.03 37.0098C317.556 37.6296 317.319 38.5114 317.319 39.6553V40.6191C317.319 41.6992 317.545 42.5583 317.996 43.1963C318.447 43.8343 319.078 44.1533 319.89 44.1533C320.619 44.1533 321.177 43.9893 321.564 43.6611C321.956 43.3285 322.216 42.752 322.344 41.9316H323.663Z" fill="white"/>
<path d="M324.928 41.3232C324.928 40.5986 325.069 39.9469 325.352 39.3682C325.639 38.7894 326.035 38.3428 326.541 38.0283C327.051 37.7139 327.632 37.5566 328.284 37.5566C329.291 37.5566 330.105 37.9053 330.725 38.6025C331.349 39.2998 331.661 40.2272 331.661 41.3848V41.4736C331.661 42.1937 331.522 42.8408 331.244 43.415C330.971 43.9847 330.576 44.429 330.062 44.748C329.551 45.0671 328.963 45.2266 328.298 45.2266C327.295 45.2266 326.482 44.8779 325.857 44.1807C325.238 43.4834 324.928 42.5605 324.928 41.4121V41.3232ZM326.199 41.4736C326.199 42.2939 326.388 42.9525 326.767 43.4492C327.149 43.946 327.66 44.1943 328.298 44.1943C328.94 44.1943 329.451 43.9437 329.829 43.4424C330.207 42.9365 330.396 42.2301 330.396 41.3232C330.396 40.512 330.203 39.8558 329.815 39.3545C329.433 38.8486 328.922 38.5957 328.284 38.5957C327.66 38.5957 327.156 38.8441 326.773 39.3408C326.391 39.8376 326.199 40.5485 326.199 41.4736Z" fill="white"/>
<path d="M334.437 37.6934L334.471 38.5137C335.013 37.8757 335.744 37.5566 336.665 37.5566C337.7 37.5566 338.404 37.9531 338.777 38.7461C339.023 38.3906 339.342 38.1035 339.734 37.8848C340.131 37.666 340.598 37.5566 341.136 37.5566C342.758 37.5566 343.583 38.4157 343.61 40.1338V45.0898H342.346V40.209C342.346 39.6803 342.225 39.2861 341.983 39.0264C341.742 38.762 341.336 38.6299 340.767 38.6299C340.297 38.6299 339.908 38.7712 339.598 39.0537C339.288 39.3317 339.108 39.7077 339.058 40.1816V45.0898H337.786V40.2432C337.786 39.1676 337.26 38.6299 336.207 38.6299C335.378 38.6299 334.81 38.9831 334.505 39.6895V45.0898H333.24V37.6934H334.437Z" fill="white"/>
<path d="M351.772 41.4736C351.772 42.5993 351.515 43.5062 351 44.1943C350.485 44.8825 349.788 45.2266 348.908 45.2266C348.01 45.2266 347.304 44.9417 346.789 44.3721V47.9336H345.524V37.6934H346.68L346.741 38.5137C347.256 37.8757 347.972 37.5566 348.888 37.5566C349.776 37.5566 350.478 37.8916 350.993 38.5615C351.513 39.2314 351.772 40.1634 351.772 41.3574V41.4736ZM350.508 41.3301C350.508 40.4961 350.33 39.8376 349.975 39.3545C349.619 38.8714 349.132 38.6299 348.512 38.6299C347.746 38.6299 347.172 38.9694 346.789 39.6484V43.1826C347.167 43.8571 347.746 44.1943 348.525 44.1943C349.132 44.1943 349.612 43.9551 349.968 43.4766C350.328 42.9935 350.508 42.278 350.508 41.3301Z" fill="white"/>
<path d="M357.952 45.0898C357.879 44.944 357.82 44.6842 357.774 44.3105C357.187 44.9212 356.485 45.2266 355.669 45.2266C354.94 45.2266 354.34 45.0215 353.871 44.6113C353.406 44.1966 353.174 43.6725 353.174 43.0391C353.174 42.2689 353.465 41.6719 354.049 41.248C354.637 40.8197 355.462 40.6055 356.523 40.6055H357.754V40.0244C357.754 39.5824 357.622 39.2314 357.357 38.9717C357.093 38.7074 356.703 38.5752 356.188 38.5752C355.737 38.5752 355.359 38.6891 355.054 38.917C354.748 39.1449 354.596 39.4206 354.596 39.7441H353.324C353.324 39.375 353.454 39.0195 353.714 38.6777C353.978 38.3314 354.334 38.0579 354.78 37.8574C355.231 37.6569 355.726 37.5566 356.264 37.5566C357.116 37.5566 357.784 37.7708 358.267 38.1992C358.75 38.623 359 39.2087 359.019 39.9561V43.3604C359.019 44.0394 359.105 44.5794 359.278 44.9805V45.0898H357.952ZM355.854 44.126C356.25 44.126 356.626 44.0234 356.981 43.8184C357.337 43.6133 357.594 43.3467 357.754 43.0186V41.501H356.763C355.213 41.501 354.438 41.9544 354.438 42.8613C354.438 43.2578 354.571 43.5677 354.835 43.791C355.099 44.0143 355.439 44.126 355.854 44.126Z" fill="white"/>
<path d="M364.576 38.8281C364.385 38.7962 364.177 38.7803 363.954 38.7803C363.125 38.7803 362.562 39.1335 362.266 39.8398V45.0898H361.001V37.6934H362.231L362.252 38.5479C362.667 37.887 363.255 37.5566 364.016 37.5566C364.262 37.5566 364.449 37.5885 364.576 37.6523V38.8281Z" fill="white"/>
<path d="M368.678 45.2266C367.675 45.2266 366.859 44.8984 366.23 44.2422C365.602 43.5814 365.287 42.6995 365.287 41.5967V41.3643C365.287 40.6305 365.426 39.9766 365.704 39.4023C365.987 38.8236 366.379 38.3724 366.88 38.0488C367.386 37.7207 367.933 37.5566 368.521 37.5566C369.482 37.5566 370.229 37.8734 370.763 38.5068C371.296 39.1403 371.562 40.0472 371.562 41.2275V41.7539H366.552C366.57 42.4831 366.782 43.0732 367.188 43.5244C367.598 43.971 368.117 44.1943 368.746 44.1943C369.193 44.1943 369.571 44.1032 369.881 43.9209C370.191 43.7386 370.462 43.4971 370.694 43.1963L371.467 43.7979C370.847 44.7503 369.917 45.2266 368.678 45.2266ZM368.521 38.5957C368.01 38.5957 367.582 38.7826 367.235 39.1562C366.889 39.5254 366.675 40.0449 366.593 40.7148H370.298V40.6191C370.261 39.9766 370.088 39.4798 369.778 39.1289C369.468 38.7734 369.049 38.5957 368.521 38.5957Z" fill="white"/>
<path d="M383 33.9655C379.667 33.9655 376.966 36.6672 376.966 40C376.966 40.6488 377.005 40.9787 377.184 41.5438C377.265 41.798 377.124 42.0693 376.87 42.1499C376.616 42.2304 376.344 42.0897 376.264 41.8355C376.049 41.1569 376 40.7253 376 40C376 36.134 379.134 33 383 33C385.116 33 387.018 33.879 388.305 35.3585L388.505 34.3378C388.556 34.076 388.81 33.9032 389.072 33.9517C389.334 34.0002 389.505 34.2517 389.454 34.5135L389.043 36.6064C389.014 36.8443 388.811 37.0275 388.565 37.0263L386.139 37.0145C385.872 37.0132 385.655 36.7961 385.655 36.5297C385.654 36.2632 385.87 36.0483 386.137 36.0496L387.631 36.0568C386.53 34.7527 384.873 33.9655 383 33.9655Z" fill="white"/>
<path d="M389.116 37.6896C389.372 37.6146 389.64 37.7613 389.715 38.0172L389.723 38.0432C389.748 38.1313 389.772 38.2198 389.794 38.3093C389.929 38.8512 390 39.4176 390 40C390 43.866 386.866 47 383 47C380.784 47 378.898 46.1218 377.641 44.5367L377.44 45.5622C377.389 45.824 377.135 45.9968 376.872 45.9483C376.61 45.8998 376.44 45.6482 376.491 45.3865L376.902 43.2936C376.931 43.0557 377.134 42.8725 377.38 42.8737L379.806 42.8855C380.073 42.8868 380.29 43.1039 380.29 43.3703C380.291 43.6368 380.075 43.8517 379.808 43.8504L378.325 43.8432C379.39 45.2461 381.02 46.0345 383 46.0345C386.333 46.0345 389.034 43.3328 389.034 40C389.034 39.4966 388.973 39.0082 388.857 38.5417C388.838 38.4646 388.818 38.3885 388.796 38.3129L388.788 38.2886C388.714 38.0327 388.86 37.7645 389.116 37.6896Z" fill="white"/>
</svg>
