<svg width="430" height="80" viewBox="0 0 430 80" fill="none" xmlns="http://www.w3.org/2000/svg">
<path fill-rule="evenodd" clip-rule="evenodd" d="M15.9655 41C15.9655 37.6672 18.6672 34.9655 22 34.9655C23.8726 34.9655 25.5304 35.7527 26.6314 37.0568L25.1371 37.0496C24.8703 37.0483 24.6544 37.2632 24.6549 37.5297C24.6554 37.7961 24.872 38.0132 25.1388 38.0145L27.5645 38.0263C27.8109 38.0275 28.0138 37.8443 28.0431 37.6064L28.4539 35.5135C28.5053 35.2517 28.3345 35.0002 28.0724 34.9517C27.8104 34.9032 27.5563 35.076 27.5049 35.3378L27.3046 36.3585C26.0179 34.879 24.1158 34 22 34C18.134 34 15 37.134 15 41C15 41.7253 15.0489 42.1569 15.2639 42.8355C15.3445 43.0897 15.6158 43.2304 15.87 43.1499C16.1242 43.0693 16.2649 42.798 16.1843 42.5438C16.0053 41.9787 15.9655 41.6488 15.9655 41ZM28.7151 39.0172C28.6401 38.7613 28.372 38.6146 28.1161 38.6896C27.8602 38.7645 27.7136 39.0327 27.7885 39.2886L27.7956 39.3129C27.8176 39.3885 27.8381 39.4646 27.8572 39.5417C27.9729 40.0082 28.0345 40.4966 28.0345 41C28.0345 44.3328 25.3328 47.0345 22 47.0345C20.0199 47.0345 18.3905 46.2461 17.3254 44.8432L18.8079 44.8504C19.0747 44.8517 19.2905 44.6368 19.2901 44.3703C19.2896 44.1039 19.0729 43.8868 18.8061 43.8855L16.3804 43.8737C16.134 43.8725 15.9311 44.0557 15.9018 44.2936L15.491 46.3865C15.4396 46.6482 15.6104 46.8998 15.8725 46.9483C16.1346 46.9968 16.3886 46.824 16.44 46.5622L16.6413 45.5367C17.8976 47.1218 19.7838 48 22 48C25.866 48 29 44.866 29 41C29 40.4176 28.9288 39.8512 28.7943 39.3093C28.7721 39.2198 28.7483 39.1313 28.7227 39.0432L28.7151 39.0172ZM41.6631 42.9316C41.54 43.9844 41.1504 44.7979 40.4941 45.3721C39.8424 45.9417 38.9743 46.2266 37.8896 46.2266C36.7139 46.2266 35.7705 45.805 35.0596 44.9619C34.3532 44.1188 34 42.9909 34 41.5781V40.6211C34 39.696 34.1641 38.8825 34.4922 38.1807C34.8249 37.4788 35.2943 36.9411 35.9004 36.5674C36.5065 36.1891 37.2083 36 38.0059 36C39.0632 36 39.9108 36.2962 40.5488 36.8887C41.1868 37.4766 41.5583 38.2923 41.6631 39.3359H40.3438C40.2298 38.543 39.9814 37.9688 39.5986 37.6133C39.2204 37.2578 38.6895 37.0801 38.0059 37.0801C37.1673 37.0801 36.5088 37.39 36.0303 38.0098C35.5563 38.6296 35.3193 39.5114 35.3193 40.6553V41.6191C35.3193 42.6992 35.5449 43.5583 35.9961 44.1963C36.4473 44.8343 37.0785 45.1533 37.8896 45.1533C38.6188 45.1533 39.1771 44.9893 39.5645 44.6611C39.9564 44.3285 40.2161 43.752 40.3438 42.9316H41.6631ZM42.9277 42.3232C42.9277 41.5986 43.069 40.9469 43.3516 40.3682C43.6387 39.7894 44.0352 39.3428 44.541 39.0283C45.0514 38.7139 45.6325 38.5566 46.2842 38.5566C47.2913 38.5566 48.1048 38.9053 48.7246 39.6025C49.349 40.2998 49.6611 41.2272 49.6611 42.3848V42.4736C49.6611 43.1937 49.5221 43.8408 49.2441 44.415C48.9707 44.9847 48.5765 45.429 48.0615 45.748C47.5511 46.0671 46.9632 46.2266 46.2979 46.2266C45.2952 46.2266 44.4818 45.8779 43.8574 45.1807C43.2376 44.4834 42.9277 43.5605 42.9277 42.4121V42.3232ZM44.1992 42.4736C44.1992 43.2939 44.3883 43.9525 44.7666 44.4492C45.1494 44.946 45.6598 45.1943 46.2979 45.1943C46.9404 45.1943 47.4508 44.9437 47.8291 44.4424C48.2074 43.9365 48.3965 43.2301 48.3965 42.3232C48.3965 41.512 48.2028 40.8558 47.8154 40.3545C47.4326 39.8486 46.9222 39.5957 46.2842 39.5957C45.6598 39.5957 45.1562 39.8441 44.7734 40.3408C44.3906 40.8376 44.1992 41.5485 44.1992 42.4736ZM52.4707 39.5137L52.4365 38.6934H51.2402V46.0898H52.5049V40.6895C52.8102 39.9831 53.3776 39.6299 54.207 39.6299C55.2598 39.6299 55.7861 40.1676 55.7861 41.2432V46.0898H57.0576V41.1816C57.1077 40.7077 57.2878 40.3317 57.5977 40.0537C57.9076 39.7712 58.2972 39.6299 58.7666 39.6299C59.3363 39.6299 59.7419 39.762 59.9834 40.0264C60.2249 40.2861 60.3457 40.6803 60.3457 41.209V46.0898H61.6104V41.1338C61.583 39.4157 60.7581 38.5566 59.1357 38.5566C58.598 38.5566 58.1309 38.666 57.7344 38.8848C57.3424 39.1035 57.0234 39.3906 56.7773 39.7461C56.4036 38.9531 55.6995 38.5566 54.665 38.5566C53.7445 38.5566 53.013 38.8757 52.4707 39.5137ZM69.7725 42.4736C69.7725 43.5993 69.515 44.5062 69 45.1943C68.485 45.8825 67.7878 46.2266 66.9082 46.2266C66.0104 46.2266 65.304 45.9417 64.7891 45.3721V48.9336H63.5244V38.6934H64.6797L64.7412 39.5137C65.2562 38.8757 65.9717 38.5566 66.8877 38.5566C67.7764 38.5566 68.4782 38.8916 68.9932 39.5615C69.5127 40.2314 69.7725 41.1634 69.7725 42.3574V42.4736ZM68.5078 42.3301C68.5078 41.4961 68.3301 40.8376 67.9746 40.3545C67.6191 39.8714 67.1315 39.6299 66.5117 39.6299C65.7461 39.6299 65.1719 39.9694 64.7891 40.6484V44.1826C65.1673 44.8571 65.7461 45.1943 66.5254 45.1943C67.1315 45.1943 67.6123 44.9551 67.9678 44.4766C68.3278 43.9935 68.5078 43.278 68.5078 42.3301ZM75.7744 45.3105C75.82 45.6842 75.8792 45.944 75.9521 46.0898H77.2783V45.9805C77.1051 45.5794 77.0186 45.0394 77.0186 44.3604V40.9561C77.0003 40.2087 76.7497 39.623 76.2666 39.1992C75.7835 38.7708 75.1159 38.5566 74.2637 38.5566C73.7259 38.5566 73.2314 38.6569 72.7803 38.8574C72.3337 39.0579 71.9782 39.3314 71.7139 39.6777C71.4541 40.0195 71.3242 40.375 71.3242 40.7441H72.5957C72.5957 40.4206 72.7484 40.1449 73.0537 39.917C73.3591 39.6891 73.7373 39.5752 74.1885 39.5752C74.7034 39.5752 75.0931 39.7074 75.3574 39.9717C75.6217 40.2314 75.7539 40.5824 75.7539 41.0244V41.6055H74.5234C73.4616 41.6055 72.6367 41.8197 72.0488 42.248C71.4655 42.6719 71.1738 43.2689 71.1738 44.0391C71.1738 44.6725 71.4062 45.1966 71.8711 45.6113C72.3405 46.0215 72.9398 46.2266 73.6689 46.2266C74.4847 46.2266 75.1865 45.9212 75.7744 45.3105ZM74.9814 44.8184C74.626 45.0234 74.25 45.126 73.8535 45.126C73.4388 45.126 73.0993 45.0143 72.835 44.791C72.5706 44.5677 72.4385 44.2578 72.4385 43.8613C72.4385 42.9544 73.2132 42.501 74.7627 42.501H75.7539V44.0186C75.5944 44.3467 75.3369 44.6133 74.9814 44.8184ZM82.5762 39.8281C82.3848 39.7962 82.1774 39.7803 81.9541 39.7803C81.1247 39.7803 80.5619 40.1335 80.2656 40.8398V46.0898H79.001V38.6934H80.2314L80.252 39.5479C80.6667 38.887 81.2546 38.5566 82.0156 38.5566C82.2617 38.5566 82.4486 38.5885 82.5762 38.6523V39.8281ZM84.2305 45.2422C84.8594 45.8984 85.6751 46.2266 86.6777 46.2266C87.9173 46.2266 88.847 45.7503 89.4668 44.7979L88.6943 44.1963C88.4619 44.4971 88.1908 44.7386 87.8809 44.9209C87.571 45.1032 87.1927 45.1943 86.7461 45.1943C86.1172 45.1943 85.5977 44.971 85.1875 44.5244C84.7819 44.0732 84.57 43.4831 84.5518 42.7539H89.5625V42.2275C89.5625 41.0472 89.2959 40.1403 88.7627 39.5068C88.2295 38.8734 87.4821 38.5566 86.5205 38.5566C85.9326 38.5566 85.3857 38.7207 84.8799 39.0488C84.3786 39.3724 83.9867 39.8236 83.7041 40.4023C83.4261 40.9766 83.2871 41.6305 83.2871 42.3643V42.5967C83.2871 43.6995 83.6016 44.5814 84.2305 45.2422ZM85.2354 40.1562C85.5817 39.7826 86.0101 39.5957 86.5205 39.5957C87.0492 39.5957 87.4684 39.7734 87.7783 40.1289C88.0882 40.4798 88.2614 40.9766 88.2979 41.6191V41.7148H84.5928C84.6748 41.0449 84.889 40.5254 85.2354 40.1562Z" fill="#222222"/>
<path fill-rule="evenodd" clip-rule="evenodd" d="M249.5 40.6C249.4 32.1 242.2 25.2 233.5 25.2H132.1C123.3 25.2 116.1 32.1 116.1 40.6C116.1 49.1 123.3 56 132.1 56H233.5C242.3 56 249.5 49.1 249.5 40.6ZM132.1 24H233.5C242.9 24 250.5 31.4 250.7 40.6C250.7 49.8 242.9 57.2 233.5 57.2H132.1C122.6 57.2 114.9 49.7 114.9 40.6C114.9 31.4 122.7 24 132.1 24ZM145.966 41C145.966 37.6672 148.667 34.9655 152 34.9655C153.873 34.9655 155.53 35.7527 156.631 37.0568L155.137 37.0496C154.87 37.0483 154.654 37.2632 154.655 37.5297C154.655 37.7961 154.872 38.0132 155.139 38.0145L157.565 38.0263C157.811 38.0275 158.014 37.8443 158.043 37.6064L158.454 35.5135C158.505 35.2517 158.334 35.0002 158.072 34.9517C157.81 34.9032 157.556 35.076 157.505 35.3378L157.305 36.3585C156.018 34.879 154.116 34 152 34C148.134 34 145 37.134 145 41C145 41.7253 145.049 42.1569 145.264 42.8355C145.344 43.0897 145.616 43.2304 145.87 43.1499C146.124 43.0693 146.265 42.798 146.184 42.5438C146.005 41.9787 145.966 41.6488 145.966 41ZM158.715 39.0172C158.64 38.7613 158.372 38.6146 158.116 38.6896C157.86 38.7645 157.714 39.0327 157.788 39.2886L157.796 39.3129C157.818 39.3885 157.838 39.4646 157.857 39.5417C157.973 40.0082 158.034 40.4966 158.034 41C158.034 44.3328 155.333 47.0345 152 47.0345C150.02 47.0345 148.39 46.2461 147.325 44.8432L148.808 44.8504C149.075 44.8517 149.291 44.6368 149.29 44.3703C149.29 44.1039 149.073 43.8868 148.806 43.8855L146.38 43.8737C146.134 43.8725 145.931 44.0557 145.902 44.2936L145.491 46.3865C145.44 46.6482 145.61 46.8998 145.872 46.9483C146.135 46.9968 146.389 46.824 146.44 46.5622L146.641 45.5367C147.898 47.1218 149.784 48 152 48C155.866 48 159 44.866 159 41C159 40.4176 158.929 39.8512 158.794 39.3093C158.772 39.2198 158.748 39.1313 158.723 39.0432L158.715 39.0172Z" fill="#222222"/>
<path d="M171.663 42.9316C171.54 43.9844 171.15 44.7979 170.494 45.3721C169.842 45.9417 168.974 46.2266 167.89 46.2266C166.714 46.2266 165.771 45.805 165.06 44.9619C164.353 44.1188 164 42.9909 164 41.5781V40.6211C164 39.696 164.164 38.8825 164.492 38.1807C164.825 37.4788 165.294 36.9411 165.9 36.5674C166.507 36.1891 167.208 36 168.006 36C169.063 36 169.911 36.2962 170.549 36.8887C171.187 37.4766 171.558 38.2923 171.663 39.3359H170.344C170.23 38.543 169.981 37.9688 169.599 37.6133C169.22 37.2578 168.689 37.0801 168.006 37.0801C167.167 37.0801 166.509 37.39 166.03 38.0098C165.556 38.6296 165.319 39.5114 165.319 40.6553V41.6191C165.319 42.6992 165.545 43.5583 165.996 44.1963C166.447 44.8343 167.078 45.1533 167.89 45.1533C168.619 45.1533 169.177 44.9893 169.564 44.6611C169.956 44.3285 170.216 43.752 170.344 42.9316H171.663Z" fill="#222222"/>
<path d="M172.928 42.3232C172.928 41.5986 173.069 40.9469 173.352 40.3682C173.639 39.7894 174.035 39.3428 174.541 39.0283C175.051 38.7139 175.632 38.5566 176.284 38.5566C177.291 38.5566 178.105 38.9053 178.725 39.6025C179.349 40.2998 179.661 41.2272 179.661 42.3848V42.4736C179.661 43.1937 179.522 43.8408 179.244 44.415C178.971 44.9847 178.576 45.429 178.062 45.748C177.551 46.0671 176.963 46.2266 176.298 46.2266C175.295 46.2266 174.482 45.8779 173.857 45.1807C173.238 44.4834 172.928 43.5605 172.928 42.4121V42.3232ZM174.199 42.4736C174.199 43.2939 174.388 43.9525 174.767 44.4492C175.149 44.946 175.66 45.1943 176.298 45.1943C176.94 45.1943 177.451 44.9437 177.829 44.4424C178.207 43.9365 178.396 43.2301 178.396 42.3232C178.396 41.512 178.203 40.8558 177.815 40.3545C177.433 39.8486 176.922 39.5957 176.284 39.5957C175.66 39.5957 175.156 39.8441 174.773 40.3408C174.391 40.8376 174.199 41.5485 174.199 42.4736Z" fill="#222222"/>
<path d="M182.437 38.6934L182.471 39.5137C183.013 38.8757 183.744 38.5566 184.665 38.5566C185.7 38.5566 186.404 38.9531 186.777 39.7461C187.023 39.3906 187.342 39.1035 187.734 38.8848C188.131 38.666 188.598 38.5566 189.136 38.5566C190.758 38.5566 191.583 39.4157 191.61 41.1338V46.0898H190.346V41.209C190.346 40.6803 190.225 40.2861 189.983 40.0264C189.742 39.762 189.336 39.6299 188.767 39.6299C188.297 39.6299 187.908 39.7712 187.598 40.0537C187.288 40.3317 187.108 40.7077 187.058 41.1816V46.0898H185.786V41.2432C185.786 40.1676 185.26 39.6299 184.207 39.6299C183.378 39.6299 182.81 39.9831 182.505 40.6895V46.0898H181.24V38.6934H182.437Z" fill="#222222"/>
<path d="M199.772 42.4736C199.772 43.5993 199.515 44.5062 199 45.1943C198.485 45.8825 197.788 46.2266 196.908 46.2266C196.01 46.2266 195.304 45.9417 194.789 45.3721V48.9336H193.524V38.6934H194.68L194.741 39.5137C195.256 38.8757 195.972 38.5566 196.888 38.5566C197.776 38.5566 198.478 38.8916 198.993 39.5615C199.513 40.2314 199.772 41.1634 199.772 42.3574V42.4736ZM198.508 42.3301C198.508 41.4961 198.33 40.8376 197.975 40.3545C197.619 39.8714 197.132 39.6299 196.512 39.6299C195.746 39.6299 195.172 39.9694 194.789 40.6484V44.1826C195.167 44.8571 195.746 45.1943 196.525 45.1943C197.132 45.1943 197.612 44.9551 197.968 44.4766C198.328 43.9935 198.508 43.278 198.508 42.3301Z" fill="#222222"/>
<path d="M205.952 46.0898C205.879 45.944 205.82 45.6842 205.774 45.3105C205.187 45.9212 204.485 46.2266 203.669 46.2266C202.94 46.2266 202.34 46.0215 201.871 45.6113C201.406 45.1966 201.174 44.6725 201.174 44.0391C201.174 43.2689 201.465 42.6719 202.049 42.248C202.637 41.8197 203.462 41.6055 204.523 41.6055H205.754V41.0244C205.754 40.5824 205.622 40.2314 205.357 39.9717C205.093 39.7074 204.703 39.5752 204.188 39.5752C203.737 39.5752 203.359 39.6891 203.054 39.917C202.748 40.1449 202.596 40.4206 202.596 40.7441H201.324C201.324 40.375 201.454 40.0195 201.714 39.6777C201.978 39.3314 202.334 39.0579 202.78 38.8574C203.231 38.6569 203.726 38.5566 204.264 38.5566C205.116 38.5566 205.784 38.7708 206.267 39.1992C206.75 39.623 207 40.2087 207.019 40.9561V44.3604C207.019 45.0394 207.105 45.5794 207.278 45.9805V46.0898H205.952ZM203.854 45.126C204.25 45.126 204.626 45.0234 204.981 44.8184C205.337 44.6133 205.594 44.3467 205.754 44.0186V42.501H204.763C203.213 42.501 202.438 42.9544 202.438 43.8613C202.438 44.2578 202.571 44.5677 202.835 44.791C203.099 45.0143 203.439 45.126 203.854 45.126Z" fill="#222222"/>
<path d="M212.576 39.8281C212.385 39.7962 212.177 39.7803 211.954 39.7803C211.125 39.7803 210.562 40.1335 210.266 40.8398V46.0898H209.001V38.6934H210.231L210.252 39.5479C210.667 38.887 211.255 38.5566 212.016 38.5566C212.262 38.5566 212.449 38.5885 212.576 38.6523V39.8281Z" fill="#222222"/>
<path d="M216.678 46.2266C215.675 46.2266 214.859 45.8984 214.23 45.2422C213.602 44.5814 213.287 43.6995 213.287 42.5967V42.3643C213.287 41.6305 213.426 40.9766 213.704 40.4023C213.987 39.8236 214.379 39.3724 214.88 39.0488C215.386 38.7207 215.933 38.5566 216.521 38.5566C217.482 38.5566 218.229 38.8734 218.763 39.5068C219.296 40.1403 219.562 41.0472 219.562 42.2275V42.7539H214.552C214.57 43.4831 214.782 44.0732 215.188 44.5244C215.598 44.971 216.117 45.1943 216.746 45.1943C217.193 45.1943 217.571 45.1032 217.881 44.9209C218.191 44.7386 218.462 44.4971 218.694 44.1963L219.467 44.7979C218.847 45.7503 217.917 46.2266 216.678 46.2266ZM216.521 39.5957C216.01 39.5957 215.582 39.7826 215.235 40.1562C214.889 40.5254 214.675 41.0449 214.593 41.7148H218.298V41.6191C218.261 40.9766 218.088 40.4798 217.778 40.1289C217.468 39.7734 217.049 39.5957 216.521 39.5957Z" fill="#222222"/>
<path d="M418.4 24H282.6V57.2H418.4V24Z" fill="#222222"/>
<path d="M319 34.9655C315.667 34.9655 312.966 37.6672 312.966 41C312.966 41.6488 313.005 41.9787 313.184 42.5438C313.265 42.798 313.124 43.0693 312.87 43.1499C312.616 43.2304 312.344 43.0897 312.264 42.8355C312.049 42.1569 312 41.7253 312 41C312 37.134 315.134 34 319 34C321.116 34 323.018 34.879 324.305 36.3585L324.505 35.3378C324.556 35.076 324.81 34.9032 325.072 34.9517C325.334 35.0002 325.505 35.2517 325.454 35.5135L325.043 37.6064C325.014 37.8443 324.811 38.0275 324.565 38.0263L322.139 38.0145C321.872 38.0132 321.655 37.7961 321.655 37.5297C321.654 37.2632 321.87 37.0483 322.137 37.0496L323.631 37.0568C322.53 35.7527 320.873 34.9655 319 34.9655Z" fill="white"/>
<path d="M325.116 38.6896C325.372 38.6146 325.64 38.7613 325.715 39.0172L325.723 39.0432C325.748 39.1313 325.772 39.2198 325.794 39.3093C325.929 39.8512 326 40.4176 326 41C326 44.866 322.866 48 319 48C316.784 48 314.898 47.1218 313.641 45.5367L313.44 46.5622C313.389 46.824 313.135 46.9968 312.872 46.9483C312.61 46.8998 312.44 46.6482 312.491 46.3865L312.902 44.2936C312.931 44.0557 313.134 43.8725 313.38 43.8737L315.806 43.8855C316.073 43.8868 316.29 44.1039 316.29 44.3703C316.291 44.6368 316.075 44.8517 315.808 44.8504L314.325 44.8432C315.39 46.2461 317.02 47.0345 319 47.0345C322.333 47.0345 325.034 44.3328 325.034 41C325.034 40.4966 324.973 40.0082 324.857 39.5417C324.838 39.4646 324.818 39.3885 324.796 39.3129L324.788 39.2886C324.714 39.0327 324.86 38.7645 325.116 38.6896Z" fill="white"/>
<path d="M338.663 42.9316C338.54 43.9844 338.15 44.7979 337.494 45.3721C336.842 45.9417 335.974 46.2266 334.89 46.2266C333.714 46.2266 332.771 45.805 332.06 44.9619C331.353 44.1188 331 42.9909 331 41.5781V40.6211C331 39.696 331.164 38.8825 331.492 38.1807C331.825 37.4788 332.294 36.9411 332.9 36.5674C333.507 36.1891 334.208 36 335.006 36C336.063 36 336.911 36.2962 337.549 36.8887C338.187 37.4766 338.558 38.2923 338.663 39.3359H337.344C337.23 38.543 336.981 37.9688 336.599 37.6133C336.22 37.2578 335.689 37.0801 335.006 37.0801C334.167 37.0801 333.509 37.39 333.03 38.0098C332.556 38.6296 332.319 39.5114 332.319 40.6553V41.6191C332.319 42.6992 332.545 43.5583 332.996 44.1963C333.447 44.8343 334.078 45.1533 334.89 45.1533C335.619 45.1533 336.177 44.9893 336.564 44.6611C336.956 44.3285 337.216 43.752 337.344 42.9316H338.663Z" fill="white"/>
<path d="M339.928 42.3232C339.928 41.5986 340.069 40.9469 340.352 40.3682C340.639 39.7894 341.035 39.3428 341.541 39.0283C342.051 38.7139 342.632 38.5566 343.284 38.5566C344.291 38.5566 345.105 38.9053 345.725 39.6025C346.349 40.2998 346.661 41.2272 346.661 42.3848V42.4736C346.661 43.1937 346.522 43.8408 346.244 44.415C345.971 44.9847 345.576 45.429 345.062 45.748C344.551 46.0671 343.963 46.2266 343.298 46.2266C342.295 46.2266 341.482 45.8779 340.857 45.1807C340.238 44.4834 339.928 43.5605 339.928 42.4121V42.3232ZM341.199 42.4736C341.199 43.2939 341.388 43.9525 341.767 44.4492C342.149 44.946 342.66 45.1943 343.298 45.1943C343.94 45.1943 344.451 44.9437 344.829 44.4424C345.207 43.9365 345.396 43.2301 345.396 42.3232C345.396 41.512 345.203 40.8558 344.815 40.3545C344.433 39.8486 343.922 39.5957 343.284 39.5957C342.66 39.5957 342.156 39.8441 341.773 40.3408C341.391 40.8376 341.199 41.5485 341.199 42.4736Z" fill="white"/>
<path d="M349.437 38.6934L349.471 39.5137C350.013 38.8757 350.744 38.5566 351.665 38.5566C352.7 38.5566 353.404 38.9531 353.777 39.7461C354.023 39.3906 354.342 39.1035 354.734 38.8848C355.131 38.666 355.598 38.5566 356.136 38.5566C357.758 38.5566 358.583 39.4157 358.61 41.1338V46.0898H357.346V41.209C357.346 40.6803 357.225 40.2861 356.983 40.0264C356.742 39.762 356.336 39.6299 355.767 39.6299C355.297 39.6299 354.908 39.7712 354.598 40.0537C354.288 40.3317 354.108 40.7077 354.058 41.1816V46.0898H352.786V41.2432C352.786 40.1676 352.26 39.6299 351.207 39.6299C350.378 39.6299 349.81 39.9831 349.505 40.6895V46.0898H348.24V38.6934H349.437Z" fill="white"/>
<path d="M366.772 42.4736C366.772 43.5993 366.515 44.5062 366 45.1943C365.485 45.8825 364.788 46.2266 363.908 46.2266C363.01 46.2266 362.304 45.9417 361.789 45.3721V48.9336H360.524V38.6934H361.68L361.741 39.5137C362.256 38.8757 362.972 38.5566 363.888 38.5566C364.776 38.5566 365.478 38.8916 365.993 39.5615C366.513 40.2314 366.772 41.1634 366.772 42.3574V42.4736ZM365.508 42.3301C365.508 41.4961 365.33 40.8376 364.975 40.3545C364.619 39.8714 364.132 39.6299 363.512 39.6299C362.746 39.6299 362.172 39.9694 361.789 40.6484V44.1826C362.167 44.8571 362.746 45.1943 363.525 45.1943C364.132 45.1943 364.612 44.9551 364.968 44.4766C365.328 43.9935 365.508 43.278 365.508 42.3301Z" fill="white"/>
<path d="M372.952 46.0898C372.879 45.944 372.82 45.6842 372.774 45.3105C372.187 45.9212 371.485 46.2266 370.669 46.2266C369.94 46.2266 369.34 46.0215 368.871 45.6113C368.406 45.1966 368.174 44.6725 368.174 44.0391C368.174 43.2689 368.465 42.6719 369.049 42.248C369.637 41.8197 370.462 41.6055 371.523 41.6055H372.754V41.0244C372.754 40.5824 372.622 40.2314 372.357 39.9717C372.093 39.7074 371.703 39.5752 371.188 39.5752C370.737 39.5752 370.359 39.6891 370.054 39.917C369.748 40.1449 369.596 40.4206 369.596 40.7441H368.324C368.324 40.375 368.454 40.0195 368.714 39.6777C368.978 39.3314 369.334 39.0579 369.78 38.8574C370.231 38.6569 370.726 38.5566 371.264 38.5566C372.116 38.5566 372.784 38.7708 373.267 39.1992C373.75 39.623 374 40.2087 374.019 40.9561V44.3604C374.019 45.0394 374.105 45.5794 374.278 45.9805V46.0898H372.952ZM370.854 45.126C371.25 45.126 371.626 45.0234 371.981 44.8184C372.337 44.6133 372.594 44.3467 372.754 44.0186V42.501H371.763C370.213 42.501 369.438 42.9544 369.438 43.8613C369.438 44.2578 369.571 44.5677 369.835 44.791C370.099 45.0143 370.439 45.126 370.854 45.126Z" fill="white"/>
<path d="M379.576 39.8281C379.385 39.7962 379.177 39.7803 378.954 39.7803C378.125 39.7803 377.562 40.1335 377.266 40.8398V46.0898H376.001V38.6934H377.231L377.252 39.5479C377.667 38.887 378.255 38.5566 379.016 38.5566C379.262 38.5566 379.449 38.5885 379.576 38.6523V39.8281Z" fill="white"/>
<path d="M383.678 46.2266C382.675 46.2266 381.859 45.8984 381.23 45.2422C380.602 44.5814 380.287 43.6995 380.287 42.5967V42.3643C380.287 41.6305 380.426 40.9766 380.704 40.4023C380.987 39.8236 381.379 39.3724 381.88 39.0488C382.386 38.7207 382.933 38.5566 383.521 38.5566C384.482 38.5566 385.229 38.8734 385.763 39.5068C386.296 40.1403 386.562 41.0472 386.562 42.2275V42.7539H381.552C381.57 43.4831 381.782 44.0732 382.188 44.5244C382.598 44.971 383.117 45.1943 383.746 45.1943C384.193 45.1943 384.571 45.1032 384.881 44.9209C385.191 44.7386 385.462 44.4971 385.694 44.1963L386.467 44.7979C385.847 45.7503 384.917 46.2266 383.678 46.2266ZM383.521 39.5957C383.01 39.5957 382.582 39.7826 382.235 40.1562C381.889 40.5254 381.675 41.0449 381.593 41.7148H385.298V41.6191C385.261 40.9766 385.088 40.4798 384.778 40.1289C384.468 39.7734 384.049 39.5957 383.521 39.5957Z" fill="white"/>
</svg>
