<svg width="430" height="80" viewBox="0 0 430 80" fill="none" xmlns="http://www.w3.org/2000/svg">
<path d="M33.6631 49.9316C33.54 50.9844 33.1504 51.7979 32.4941 52.3721C31.8424 52.9417 30.9743 53.2266 29.8896 53.2266C28.7139 53.2266 27.7705 52.805 27.0596 51.9619C26.3532 51.1188 26 49.9909 26 48.5781V47.6211C26 46.696 26.1641 45.8825 26.4922 45.1807C26.8249 44.4788 27.2943 43.9411 27.9004 43.5674C28.5065 43.1891 29.2083 43 30.0059 43C31.0632 43 31.9108 43.2962 32.5488 43.8887C33.1868 44.4766 33.5583 45.2923 33.6631 46.3359H32.3438C32.2298 45.543 31.9814 44.9688 31.5986 44.6133C31.2204 44.2578 30.6895 44.0801 30.0059 44.0801C29.1673 44.0801 28.5088 44.39 28.0303 45.0098C27.5563 45.6296 27.3193 46.5114 27.3193 47.6553V48.6191C27.3193 49.6992 27.5449 50.5583 27.9961 51.1963C28.4473 51.8343 29.0785 52.1533 29.8896 52.1533C30.6188 52.1533 31.1771 51.9893 31.5645 51.6611C31.9564 51.3285 32.2161 50.752 32.3438 49.9316H33.6631Z" fill="#222222"/>
<path d="M34.9277 49.3232C34.9277 48.5986 35.069 47.9469 35.3516 47.3682C35.6387 46.7894 36.0352 46.3428 36.541 46.0283C37.0514 45.7139 37.6325 45.5566 38.2842 45.5566C39.2913 45.5566 40.1048 45.9053 40.7246 46.6025C41.349 47.2998 41.6611 48.2272 41.6611 49.3848V49.4736C41.6611 50.1937 41.5221 50.8408 41.2441 51.415C40.9707 51.9847 40.5765 52.429 40.0615 52.748C39.5511 53.0671 38.9632 53.2266 38.2979 53.2266C37.2952 53.2266 36.4818 52.8779 35.8574 52.1807C35.2376 51.4834 34.9277 50.5605 34.9277 49.4121V49.3232ZM36.1992 49.4736C36.1992 50.2939 36.3883 50.9525 36.7666 51.4492C37.1494 51.946 37.6598 52.1943 38.2979 52.1943C38.9404 52.1943 39.4508 51.9437 39.8291 51.4424C40.2074 50.9365 40.3965 50.2301 40.3965 49.3232C40.3965 48.512 40.2028 47.8558 39.8154 47.3545C39.4326 46.8486 38.9222 46.5957 38.2842 46.5957C37.6598 46.5957 37.1562 46.8441 36.7734 47.3408C36.3906 47.8376 36.1992 48.5485 36.1992 49.4736Z" fill="#222222"/>
<path d="M44.4365 45.6934L44.4707 46.5137C45.013 45.8757 45.7445 45.5566 46.665 45.5566C47.6995 45.5566 48.4036 45.9531 48.7773 46.7461C49.0234 46.3906 49.3424 46.1035 49.7344 45.8848C50.1309 45.666 50.598 45.5566 51.1357 45.5566C52.7581 45.5566 53.583 46.4157 53.6104 48.1338V53.0898H52.3457V48.209C52.3457 47.6803 52.2249 47.2861 51.9834 47.0264C51.7419 46.762 51.3363 46.6299 50.7666 46.6299C50.2972 46.6299 49.9076 46.7712 49.5977 47.0537C49.2878 47.3317 49.1077 47.7077 49.0576 48.1816V53.0898H47.7861V48.2432C47.7861 47.1676 47.2598 46.6299 46.207 46.6299C45.3776 46.6299 44.8102 46.9831 44.5049 47.6895V53.0898H43.2402V45.6934H44.4365Z" fill="#222222"/>
<path d="M61.7725 49.4736C61.7725 50.5993 61.515 51.5062 61 52.1943C60.485 52.8825 59.7878 53.2266 58.9082 53.2266C58.0104 53.2266 57.304 52.9417 56.7891 52.3721V55.9336H55.5244V45.6934H56.6797L56.7412 46.5137C57.2562 45.8757 57.9717 45.5566 58.8877 45.5566C59.7764 45.5566 60.4782 45.8916 60.9932 46.5615C61.5127 47.2314 61.7725 48.1634 61.7725 49.3574V49.4736ZM60.5078 49.3301C60.5078 48.4961 60.3301 47.8376 59.9746 47.3545C59.6191 46.8714 59.1315 46.6299 58.5117 46.6299C57.7461 46.6299 57.1719 46.9694 56.7891 47.6484V51.1826C57.1673 51.8571 57.7461 52.1943 58.5254 52.1943C59.1315 52.1943 59.6123 51.9551 59.9678 51.4766C60.3278 50.9935 60.5078 50.278 60.5078 49.3301Z" fill="#222222"/>
<path d="M67.9521 53.0898C67.8792 52.944 67.82 52.6842 67.7744 52.3105C67.1865 52.9212 66.4847 53.2266 65.6689 53.2266C64.9398 53.2266 64.3405 53.0215 63.8711 52.6113C63.4062 52.1966 63.1738 51.6725 63.1738 51.0391C63.1738 50.2689 63.4655 49.6719 64.0488 49.248C64.6367 48.8197 65.4616 48.6055 66.5234 48.6055H67.7539V48.0244C67.7539 47.5824 67.6217 47.2314 67.3574 46.9717C67.0931 46.7074 66.7035 46.5752 66.1885 46.5752C65.7373 46.5752 65.359 46.6891 65.0537 46.917C64.7484 47.1449 64.5957 47.4206 64.5957 47.7441H63.3242C63.3242 47.375 63.4541 47.0195 63.7139 46.6777C63.9782 46.3314 64.3337 46.0579 64.7803 45.8574C65.2314 45.6569 65.7259 45.5566 66.2637 45.5566C67.1159 45.5566 67.7835 45.7708 68.2666 46.1992C68.7497 46.623 69.0003 47.2087 69.0186 47.9561V51.3604C69.0186 52.0394 69.1051 52.5794 69.2783 52.9805V53.0898H67.9521ZM65.8535 52.126C66.25 52.126 66.626 52.0234 66.9814 51.8184C67.3369 51.6133 67.5944 51.3467 67.7539 51.0186V49.501H66.7627C65.2132 49.501 64.4385 49.9544 64.4385 50.8613C64.4385 51.2578 64.5706 51.5677 64.835 51.791C65.0993 52.0143 65.4388 52.126 65.8535 52.126Z" fill="#222222"/>
<path d="M74.5762 46.8281C74.3848 46.7962 74.1774 46.7803 73.9541 46.7803C73.1247 46.7803 72.5618 47.1335 72.2656 47.8398V53.0898H71.001V45.6934H72.2314L72.252 46.5479C72.6667 45.887 73.2546 45.5566 74.0156 45.5566C74.2617 45.5566 74.4486 45.5885 74.5762 45.6523V46.8281Z" fill="#222222"/>
<path d="M78.6777 53.2266C77.6751 53.2266 76.8594 52.8984 76.2305 52.2422C75.6016 51.5814 75.2871 50.6995 75.2871 49.5967V49.3643C75.2871 48.6305 75.4261 47.9766 75.7041 47.4023C75.9867 46.8236 76.3786 46.3724 76.8799 46.0488C77.3857 45.7207 77.9326 45.5566 78.5205 45.5566C79.4821 45.5566 80.2295 45.8734 80.7627 46.5068C81.2959 47.1403 81.5625 48.0472 81.5625 49.2275V49.7539H76.5518C76.57 50.4831 76.7819 51.0732 77.1875 51.5244C77.5977 51.971 78.1172 52.1943 78.7461 52.1943C79.1927 52.1943 79.571 52.1032 79.8809 51.9209C80.1908 51.7386 80.4619 51.4971 80.6943 51.1963L81.4668 51.7979C80.847 52.7503 79.9173 53.2266 78.6777 53.2266ZM78.5205 46.5957C78.0101 46.5957 77.5817 46.7826 77.2354 47.1562C76.889 47.5254 76.6748 48.0449 76.5928 48.7148H80.2979V48.6191C80.2614 47.9766 80.0882 47.4798 79.7783 47.1289C79.4684 46.7734 79.0492 46.5957 78.5205 46.5957Z" fill="#222222"/>
<path d="M53 23.9655C49.6672 23.9655 46.9655 26.6672 46.9655 30C46.9655 30.6488 47.0053 30.9787 47.1843 31.5438C47.2649 31.798 47.1242 32.0693 46.87 32.1499C46.6158 32.2304 46.3445 32.0897 46.2639 31.8355C46.0489 31.1569 46 30.7253 46 30C46 26.134 49.134 23 53 23C55.1158 23 57.0179 23.879 58.3046 25.3585L58.5049 24.3378C58.5563 24.076 58.8104 23.9032 59.0724 23.9517C59.3345 24.0002 59.5053 24.2517 59.4539 24.5135L59.0431 26.6064C59.0138 26.8443 58.8109 27.0275 58.5645 27.0263L56.1388 27.0145C55.872 27.0132 55.6554 26.7961 55.6549 26.5297C55.6544 26.2632 55.8703 26.0483 56.1371 26.0496L57.6314 26.0568C56.5304 24.7527 54.8726 23.9655 53 23.9655Z" fill="#222222"/>
<path d="M59.1161 27.6896C59.372 27.6146 59.6401 27.7613 59.7151 28.0172L59.7227 28.0432C59.7483 28.1313 59.7721 28.2198 59.7943 28.3093C59.9288 28.8512 60 29.4176 60 30C60 33.866 56.866 37 53 37C50.7838 37 48.8976 36.1218 47.6413 34.5367L47.44 35.5622C47.3886 35.824 47.1346 35.9968 46.8725 35.9483C46.6104 35.8998 46.4396 35.6482 46.491 35.3865L46.9018 33.2936C46.9311 33.0557 47.134 32.8725 47.3804 32.8737L49.8061 32.8855C50.0729 32.8868 50.2896 33.1039 50.2901 33.3703C50.2905 33.6368 50.0747 33.8517 49.8079 33.8504L48.3254 33.8432C49.3905 35.2461 51.0199 36.0345 53 36.0345C56.3328 36.0345 59.0345 33.3328 59.0345 30C59.0345 29.4966 58.9729 29.0082 58.8572 28.5417C58.8381 28.4646 58.8176 28.3885 58.7956 28.3129L58.7885 28.2886C58.7136 28.0327 58.8602 27.7645 59.1161 27.6896Z" fill="#222222"/>
<path d="M189 23.9655C185.667 23.9655 182.966 26.6672 182.966 30C182.966 30.6488 183.005 30.9787 183.184 31.5438C183.265 31.798 183.124 32.0693 182.87 32.1499C182.616 32.2304 182.344 32.0897 182.264 31.8355C182.049 31.1569 182 30.7253 182 30C182 26.134 185.134 23 189 23C191.116 23 193.018 23.879 194.305 25.3585L194.505 24.3378C194.556 24.076 194.81 23.9032 195.072 23.9517C195.334 24.0002 195.505 24.2517 195.454 24.5135L195.043 26.6064C195.014 26.8443 194.811 27.0275 194.565 27.0263L192.139 27.0145C191.872 27.0132 191.655 26.7961 191.655 26.5297C191.654 26.2632 191.87 26.0483 192.137 26.0496L193.631 26.0568C192.53 24.7527 190.873 23.9655 189 23.9655Z" fill="#222222"/>
<path d="M195.116 27.6896C195.372 27.6146 195.64 27.7613 195.715 28.0172L195.723 28.0432C195.748 28.1313 195.772 28.2198 195.794 28.3093C195.929 28.8512 196 29.4176 196 30C196 33.866 192.866 37 189 37C186.784 37 184.898 36.1218 183.641 34.5367L183.44 35.5622C183.389 35.824 183.135 35.9968 182.872 35.9483C182.61 35.8998 182.44 35.6482 182.491 35.3865L182.902 33.2936C182.931 33.0557 183.134 32.8725 183.38 32.8737L185.806 32.8855C186.073 32.8868 186.29 33.1039 186.29 33.3703C186.291 33.6368 186.075 33.8517 185.808 33.8504L184.325 33.8432C185.39 35.2461 187.02 36.0345 189 36.0345C192.333 36.0345 195.034 33.3328 195.034 30C195.034 29.4966 194.973 29.0082 194.857 28.5417C194.838 28.4646 194.818 28.3885 194.796 28.3129L194.788 28.2886C194.714 28.0327 194.86 27.7645 195.116 27.6896Z" fill="#222222"/>
<path d="M229.5 67H147.7C132.8 67 120.7 54.9 120.7 40C120.7 25.1 132.8 13 147.7 13H229.5C244.4 13 256.5 25.1 256.5 40C256.5 54.9 244.4 67 229.5 67Z" stroke="#222222" stroke-width="1.2" stroke-miterlimit="10"/>
<path d="M418 12.9H282.2V66.9H418V12.9Z" fill="#222222"/>
<path d="M330.663 49.9316C330.54 50.9844 330.15 51.7979 329.494 52.3721C328.842 52.9417 327.974 53.2266 326.89 53.2266C325.714 53.2266 324.771 52.805 324.06 51.9619C323.353 51.1188 323 49.9909 323 48.5781V47.6211C323 46.696 323.164 45.8825 323.492 45.1807C323.825 44.4788 324.294 43.9411 324.9 43.5674C325.507 43.1891 326.208 43 327.006 43C328.063 43 328.911 43.2962 329.549 43.8887C330.187 44.4766 330.558 45.2923 330.663 46.3359H329.344C329.23 45.543 328.981 44.9688 328.599 44.6133C328.22 44.2578 327.689 44.0801 327.006 44.0801C326.167 44.0801 325.509 44.39 325.03 45.0098C324.556 45.6296 324.319 46.5114 324.319 47.6553V48.6191C324.319 49.6992 324.545 50.5583 324.996 51.1963C325.447 51.8343 326.078 52.1533 326.89 52.1533C327.619 52.1533 328.177 51.9893 328.564 51.6611C328.956 51.3285 329.216 50.752 329.344 49.9316H330.663Z" fill="white"/>
<path d="M331.928 49.3232C331.928 48.5986 332.069 47.9469 332.352 47.3682C332.639 46.7894 333.035 46.3428 333.541 46.0283C334.051 45.7139 334.632 45.5566 335.284 45.5566C336.291 45.5566 337.105 45.9053 337.725 46.6025C338.349 47.2998 338.661 48.2272 338.661 49.3848V49.4736C338.661 50.1937 338.522 50.8408 338.244 51.415C337.971 51.9847 337.576 52.429 337.062 52.748C336.551 53.0671 335.963 53.2266 335.298 53.2266C334.295 53.2266 333.482 52.8779 332.857 52.1807C332.238 51.4834 331.928 50.5605 331.928 49.4121V49.3232ZM333.199 49.4736C333.199 50.2939 333.388 50.9525 333.767 51.4492C334.149 51.946 334.66 52.1943 335.298 52.1943C335.94 52.1943 336.451 51.9437 336.829 51.4424C337.207 50.9365 337.396 50.2301 337.396 49.3232C337.396 48.512 337.203 47.8558 336.815 47.3545C336.433 46.8486 335.922 46.5957 335.284 46.5957C334.66 46.5957 334.156 46.8441 333.773 47.3408C333.391 47.8376 333.199 48.5485 333.199 49.4736Z" fill="white"/>
<path d="M341.437 45.6934L341.471 46.5137C342.013 45.8757 342.744 45.5566 343.665 45.5566C344.7 45.5566 345.404 45.9531 345.777 46.7461C346.023 46.3906 346.342 46.1035 346.734 45.8848C347.131 45.666 347.598 45.5566 348.136 45.5566C349.758 45.5566 350.583 46.4157 350.61 48.1338V53.0898H349.346V48.209C349.346 47.6803 349.225 47.2861 348.983 47.0264C348.742 46.762 348.336 46.6299 347.767 46.6299C347.297 46.6299 346.908 46.7712 346.598 47.0537C346.288 47.3317 346.108 47.7077 346.058 48.1816V53.0898H344.786V48.2432C344.786 47.1676 344.26 46.6299 343.207 46.6299C342.378 46.6299 341.81 46.9831 341.505 47.6895V53.0898H340.24V45.6934H341.437Z" fill="white"/>
<path d="M358.772 49.4736C358.772 50.5993 358.515 51.5062 358 52.1943C357.485 52.8825 356.788 53.2266 355.908 53.2266C355.01 53.2266 354.304 52.9417 353.789 52.3721V55.9336H352.524V45.6934H353.68L353.741 46.5137C354.256 45.8757 354.972 45.5566 355.888 45.5566C356.776 45.5566 357.478 45.8916 357.993 46.5615C358.513 47.2314 358.772 48.1634 358.772 49.3574V49.4736ZM357.508 49.3301C357.508 48.4961 357.33 47.8376 356.975 47.3545C356.619 46.8714 356.132 46.6299 355.512 46.6299C354.746 46.6299 354.172 46.9694 353.789 47.6484V51.1826C354.167 51.8571 354.746 52.1943 355.525 52.1943C356.132 52.1943 356.612 51.9551 356.968 51.4766C357.328 50.9935 357.508 50.278 357.508 49.3301Z" fill="white"/>
<path d="M364.952 53.0898C364.879 52.944 364.82 52.6842 364.774 52.3105C364.187 52.9212 363.485 53.2266 362.669 53.2266C361.94 53.2266 361.34 53.0215 360.871 52.6113C360.406 52.1966 360.174 51.6725 360.174 51.0391C360.174 50.2689 360.465 49.6719 361.049 49.248C361.637 48.8197 362.462 48.6055 363.523 48.6055H364.754V48.0244C364.754 47.5824 364.622 47.2314 364.357 46.9717C364.093 46.7074 363.703 46.5752 363.188 46.5752C362.737 46.5752 362.359 46.6891 362.054 46.917C361.748 47.1449 361.596 47.4206 361.596 47.7441H360.324C360.324 47.375 360.454 47.0195 360.714 46.6777C360.978 46.3314 361.334 46.0579 361.78 45.8574C362.231 45.6569 362.726 45.5566 363.264 45.5566C364.116 45.5566 364.784 45.7708 365.267 46.1992C365.75 46.623 366 47.2087 366.019 47.9561V51.3604C366.019 52.0394 366.105 52.5794 366.278 52.9805V53.0898H364.952ZM362.854 52.126C363.25 52.126 363.626 52.0234 363.981 51.8184C364.337 51.6133 364.594 51.3467 364.754 51.0186V49.501H363.763C362.213 49.501 361.438 49.9544 361.438 50.8613C361.438 51.2578 361.571 51.5677 361.835 51.791C362.099 52.0143 362.439 52.126 362.854 52.126Z" fill="white"/>
<path d="M371.576 46.8281C371.385 46.7962 371.177 46.7803 370.954 46.7803C370.125 46.7803 369.562 47.1335 369.266 47.8398V53.0898H368.001V45.6934H369.231L369.252 46.5479C369.667 45.887 370.255 45.5566 371.016 45.5566C371.262 45.5566 371.449 45.5885 371.576 45.6523V46.8281Z" fill="white"/>
<path d="M375.678 53.2266C374.675 53.2266 373.859 52.8984 373.23 52.2422C372.602 51.5814 372.287 50.6995 372.287 49.5967V49.3643C372.287 48.6305 372.426 47.9766 372.704 47.4023C372.987 46.8236 373.379 46.3724 373.88 46.0488C374.386 45.7207 374.933 45.5566 375.521 45.5566C376.482 45.5566 377.229 45.8734 377.763 46.5068C378.296 47.1403 378.562 48.0472 378.562 49.2275V49.7539H373.552C373.57 50.4831 373.782 51.0732 374.188 51.5244C374.598 51.971 375.117 52.1943 375.746 52.1943C376.193 52.1943 376.571 52.1032 376.881 51.9209C377.191 51.7386 377.462 51.4971 377.694 51.1963L378.467 51.7979C377.847 52.7503 376.917 53.2266 375.678 53.2266ZM375.521 46.5957C375.01 46.5957 374.582 46.7826 374.235 47.1562C373.889 47.5254 373.675 48.0449 373.593 48.7148H377.298V48.6191C377.261 47.9766 377.088 47.4798 376.778 47.1289C376.468 46.7734 376.049 46.5957 375.521 46.5957Z" fill="white"/>
<path d="M350 23.9655C346.667 23.9655 343.966 26.6672 343.966 30C343.966 30.6488 344.005 30.9787 344.184 31.5438C344.265 31.798 344.124 32.0693 343.87 32.1499C343.616 32.2304 343.344 32.0897 343.264 31.8355C343.049 31.1569 343 30.7253 343 30C343 26.134 346.134 23 350 23C352.116 23 354.018 23.879 355.305 25.3585L355.505 24.3378C355.556 24.076 355.81 23.9032 356.072 23.9517C356.334 24.0002 356.505 24.2517 356.454 24.5135L356.043 26.6064C356.014 26.8443 355.811 27.0275 355.565 27.0263L353.139 27.0145C352.872 27.0132 352.655 26.7961 352.655 26.5297C352.654 26.2632 352.87 26.0483 353.137 26.0496L354.631 26.0568C353.53 24.7527 351.873 23.9655 350 23.9655Z" fill="white"/>
<path d="M356.116 27.6896C356.372 27.6146 356.64 27.7613 356.715 28.0172L356.723 28.0432C356.748 28.1313 356.772 28.2198 356.794 28.3093C356.929 28.8512 357 29.4176 357 30C357 33.866 353.866 37 350 37C347.784 37 345.898 36.1218 344.641 34.5367L344.44 35.5622C344.389 35.824 344.135 35.9968 343.872 35.9483C343.61 35.8998 343.44 35.6482 343.491 35.3865L343.902 33.2936C343.931 33.0557 344.134 32.8725 344.38 32.8737L346.806 32.8855C347.073 32.8868 347.29 33.1039 347.29 33.3703C347.291 33.6368 347.075 33.8517 346.808 33.8504L345.325 33.8432C346.39 35.2461 348.02 36.0345 350 36.0345C353.333 36.0345 356.034 33.3328 356.034 30C356.034 29.4966 355.973 29.0082 355.857 28.5417C355.838 28.4646 355.818 28.3885 355.796 28.3129L355.788 28.2886C355.714 28.0327 355.86 27.7645 356.116 27.6896Z" fill="white"/>
<path d="M169.663 49.9316C169.54 50.9844 169.15 51.7979 168.494 52.3721C167.842 52.9417 166.974 53.2266 165.89 53.2266C164.714 53.2266 163.771 52.805 163.06 51.9619C162.353 51.1188 162 49.9909 162 48.5781V47.6211C162 46.696 162.164 45.8825 162.492 45.1807C162.825 44.4788 163.294 43.9411 163.9 43.5674C164.507 43.1891 165.208 43 166.006 43C167.063 43 167.911 43.2962 168.549 43.8887C169.187 44.4766 169.558 45.2923 169.663 46.3359H168.344C168.23 45.543 167.981 44.9688 167.599 44.6133C167.22 44.2578 166.689 44.0801 166.006 44.0801C165.167 44.0801 164.509 44.39 164.03 45.0098C163.556 45.6296 163.319 46.5114 163.319 47.6553V48.6191C163.319 49.6992 163.545 50.5583 163.996 51.1963C164.447 51.8343 165.078 52.1533 165.89 52.1533C166.619 52.1533 167.177 51.9893 167.564 51.6611C167.956 51.3285 168.216 50.752 168.344 49.9316H169.663Z" fill="#222222"/>
<path d="M170.928 49.3232C170.928 48.5986 171.069 47.9469 171.352 47.3682C171.639 46.7894 172.035 46.3428 172.541 46.0283C173.051 45.7139 173.632 45.5566 174.284 45.5566C175.291 45.5566 176.105 45.9053 176.725 46.6025C177.349 47.2998 177.661 48.2272 177.661 49.3848V49.4736C177.661 50.1937 177.522 50.8408 177.244 51.415C176.971 51.9847 176.576 52.429 176.062 52.748C175.551 53.0671 174.963 53.2266 174.298 53.2266C173.295 53.2266 172.482 52.8779 171.857 52.1807C171.238 51.4834 170.928 50.5605 170.928 49.4121V49.3232ZM172.199 49.4736C172.199 50.2939 172.388 50.9525 172.767 51.4492C173.149 51.946 173.66 52.1943 174.298 52.1943C174.94 52.1943 175.451 51.9437 175.829 51.4424C176.207 50.9365 176.396 50.2301 176.396 49.3232C176.396 48.512 176.203 47.8558 175.815 47.3545C175.433 46.8486 174.922 46.5957 174.284 46.5957C173.66 46.5957 173.156 46.8441 172.773 47.3408C172.391 47.8376 172.199 48.5485 172.199 49.4736Z" fill="#222222"/>
<path d="M180.437 45.6934L180.471 46.5137C181.013 45.8757 181.744 45.5566 182.665 45.5566C183.7 45.5566 184.404 45.9531 184.777 46.7461C185.023 46.3906 185.342 46.1035 185.734 45.8848C186.131 45.666 186.598 45.5566 187.136 45.5566C188.758 45.5566 189.583 46.4157 189.61 48.1338V53.0898H188.346V48.209C188.346 47.6803 188.225 47.2861 187.983 47.0264C187.742 46.762 187.336 46.6299 186.767 46.6299C186.297 46.6299 185.908 46.7712 185.598 47.0537C185.288 47.3317 185.108 47.7077 185.058 48.1816V53.0898H183.786V48.2432C183.786 47.1676 183.26 46.6299 182.207 46.6299C181.378 46.6299 180.81 46.9831 180.505 47.6895V53.0898H179.24V45.6934H180.437Z" fill="#222222"/>
<path d="M197.772 49.4736C197.772 50.5993 197.515 51.5062 197 52.1943C196.485 52.8825 195.788 53.2266 194.908 53.2266C194.01 53.2266 193.304 52.9417 192.789 52.3721V55.9336H191.524V45.6934H192.68L192.741 46.5137C193.256 45.8757 193.972 45.5566 194.888 45.5566C195.776 45.5566 196.478 45.8916 196.993 46.5615C197.513 47.2314 197.772 48.1634 197.772 49.3574V49.4736ZM196.508 49.3301C196.508 48.4961 196.33 47.8376 195.975 47.3545C195.619 46.8714 195.132 46.6299 194.512 46.6299C193.746 46.6299 193.172 46.9694 192.789 47.6484V51.1826C193.167 51.8571 193.746 52.1943 194.525 52.1943C195.132 52.1943 195.612 51.9551 195.968 51.4766C196.328 50.9935 196.508 50.278 196.508 49.3301Z" fill="#222222"/>
<path d="M203.952 53.0898C203.879 52.944 203.82 52.6842 203.774 52.3105C203.187 52.9212 202.485 53.2266 201.669 53.2266C200.94 53.2266 200.34 53.0215 199.871 52.6113C199.406 52.1966 199.174 51.6725 199.174 51.0391C199.174 50.2689 199.465 49.6719 200.049 49.248C200.637 48.8197 201.462 48.6055 202.523 48.6055H203.754V48.0244C203.754 47.5824 203.622 47.2314 203.357 46.9717C203.093 46.7074 202.703 46.5752 202.188 46.5752C201.737 46.5752 201.359 46.6891 201.054 46.917C200.748 47.1449 200.596 47.4206 200.596 47.7441H199.324C199.324 47.375 199.454 47.0195 199.714 46.6777C199.978 46.3314 200.334 46.0579 200.78 45.8574C201.231 45.6569 201.726 45.5566 202.264 45.5566C203.116 45.5566 203.784 45.7708 204.267 46.1992C204.75 46.623 205 47.2087 205.019 47.9561V51.3604C205.019 52.0394 205.105 52.5794 205.278 52.9805V53.0898H203.952ZM201.854 52.126C202.25 52.126 202.626 52.0234 202.981 51.8184C203.337 51.6133 203.594 51.3467 203.754 51.0186V49.501H202.763C201.213 49.501 200.438 49.9544 200.438 50.8613C200.438 51.2578 200.571 51.5677 200.835 51.791C201.099 52.0143 201.439 52.126 201.854 52.126Z" fill="#222222"/>
<path d="M210.576 46.8281C210.385 46.7962 210.177 46.7803 209.954 46.7803C209.125 46.7803 208.562 47.1335 208.266 47.8398V53.0898H207.001V45.6934H208.231L208.252 46.5479C208.667 45.887 209.255 45.5566 210.016 45.5566C210.262 45.5566 210.449 45.5885 210.576 45.6523V46.8281Z" fill="#222222"/>
<path d="M214.678 53.2266C213.675 53.2266 212.859 52.8984 212.23 52.2422C211.602 51.5814 211.287 50.6995 211.287 49.5967V49.3643C211.287 48.6305 211.426 47.9766 211.704 47.4023C211.987 46.8236 212.379 46.3724 212.88 46.0488C213.386 45.7207 213.933 45.5566 214.521 45.5566C215.482 45.5566 216.229 45.8734 216.763 46.5068C217.296 47.1403 217.562 48.0472 217.562 49.2275V49.7539H212.552C212.57 50.4831 212.782 51.0732 213.188 51.5244C213.598 51.971 214.117 52.1943 214.746 52.1943C215.193 52.1943 215.571 52.1032 215.881 51.9209C216.191 51.7386 216.462 51.4971 216.694 51.1963L217.467 51.7979C216.847 52.7503 215.917 53.2266 214.678 53.2266ZM214.521 46.5957C214.01 46.5957 213.582 46.7826 213.235 47.1562C212.889 47.5254 212.675 48.0449 212.593 48.7148H216.298V48.6191C216.261 47.9766 216.088 47.4798 215.778 47.1289C215.468 46.7734 215.049 46.5957 214.521 46.5957Z" fill="#222222"/>
</svg>
