<?xml version="1.0" encoding="utf-8"?>
<!-- Generator: Adobe Illustrator 21.0.0, SVG Export Plug-In . SVG Version: 6.00 Build 0)  -->
<svg version="1.1" id="Layer_1" xmlns="http://www.w3.org/2000/svg" width="430" height="80" xmlns:xlink="http://www.w3.org/1999/xlink" x="0px" y="0px"
	 viewBox="0 0 430 70" style="enable-background:new 0 0 430 70;" xml:space="preserve">
<style type="text/css">
	.st0{enable-background:new    ;}
	.st1{fill:#222222;stroke:#000000;stroke-width:0.2;stroke-miterlimit:10;}
	.st2{fill:#222222;}
	.st3{fill:#222222;stroke:#222222;stroke-width:0.4;stroke-miterlimit:10;}
</style>
<g>
	<g class="st0">
		<path class="st1" d="M69.065918,35.2485352c0,1.6118164-0.4072266,2.878418-1.222168,3.8012695
			s-1.9472656,1.3837891-3.3979492,1.3837891c-1.4824219,0-2.6264648-0.453125-3.4321289-1.359375
			c-0.8056641-0.9072266-1.2080078-2.1865234-1.2080078-3.8393555c0-1.6386719,0.4038086-2.9091797,1.2114258-3.8105469
			c0.8081055-0.9023438,1.9555664-1.3535156,3.4428711-1.3535156c1.4458008,0,2.574707,0.4589844,3.387207,1.3769531
			S69.065918,33.6333008,69.065918,35.2485352z M61.0449219,35.2485352c0,1.3637695,0.2900391,2.3979492,0.8706055,3.1020508
			c0.5805664,0.7050781,1.4243164,1.0576172,2.5302734,1.0576172c1.1157227,0,1.9580078-0.3515625,2.5268555-1.0537109
			c0.5693359-0.7021484,0.8540039-1.7373047,0.8540039-3.105957c0-1.3535156-0.2836914-2.3808594-0.8505859-3.0810547
			s-1.4057617-1.0498047-2.5161133-1.0498047c-1.1157227,0-1.9638672,0.3525391-2.5444336,1.0566406
			C61.3349609,32.8793945,61.0449219,33.9038086,61.0449219,35.2485352z"/>
		<path class="st1" d="M74.6494141,40.4335938c-0.4912109,0-0.9399414-0.0908203-1.3461914-0.2714844
			c-0.40625-0.1816406-0.7470703-0.4609375-1.0224609-0.8369141h-0.0825195
			c0.0551758,0.4404297,0.0825195,0.8583984,0.0825195,1.2529297v3.1054688h-1.1425781v-10.934082h0.9291992l0.1586914,1.0322266
			h0.0546875c0.2939453-0.4130859,0.6357422-0.7109375,1.0258789-0.8945312s0.8378906-0.2753906,1.3427734-0.2753906
			c1.0004883,0,1.7729492,0.3417969,2.3168945,1.0253906c0.5439453,0.6845703,0.815918,1.6435547,0.815918,2.878418
			c0,1.2392578-0.2768555,2.2021484-0.8295898,2.8886719C76.3994141,40.0908203,75.6318359,40.4335938,74.6494141,40.4335938z
			 M74.484375,33.5825195c-0.7714844,0-1.3291016,0.2138672-1.6733398,0.640625s-0.5209961,1.1054688-0.5302734,2.0385742v0.2539062
			c0,1.0605469,0.1767578,1.8193359,0.5302734,2.2763672c0.3535156,0.4560547,0.9204102,0.6845703,1.7006836,0.6845703
			c0.6518555,0,1.1625977-0.2636719,1.5317383-0.7919922c0.3696289-0.5273438,0.5541992-1.2548828,0.5541992-2.1826172
			c0-0.940918-0.1845703-1.6625977-0.5541992-2.1655273C75.6743164,33.8334961,75.1542969,33.5825195,74.484375,33.5825195z"/>
		<path class="st1" d="M82.9667969,40.4335938c-1.1152344,0-1.9956055-0.3398438-2.6401367-1.0185547
			c-0.6450195-0.6796875-0.9672852-1.6230469-0.9672852-2.8300781c0-1.2172852,0.2993164-2.1831055,0.8984375-2.8989258
			c0.5986328-0.7167969,1.4033203-1.0742188,2.4130859-1.0742188c0.9453125,0,1.6938477,0.3105469,2.2446289,0.9326172
			s0.8261719,1.4423828,0.8261719,2.4624023v0.7226562H80.543457c0.0229492,0.8857422,0.246582,1.5585938,0.6713867,2.0175781
			c0.4243164,0.4589844,1.0224609,0.6884766,1.793457,0.6884766c0.8125,0,1.6157227-0.1699219,2.409668-0.5097656v1.0185547
			c-0.4038086,0.1748047-0.7861328,0.2998047-1.1464844,0.3759766
			C83.9111328,40.3955078,83.4765625,40.4335938,82.9667969,40.4335938z M82.6572266,33.5688477
			c-0.605957,0-1.0893555,0.1972656-1.4492188,0.5917969c-0.3603516,0.3945312-0.5727539,0.9414062-0.637207,1.6386719h3.9453125
			c0-0.7207031-0.1606445-1.2724609-0.4819336-1.6552734C83.7128906,33.7602539,83.2539062,33.5688477,82.6572266,33.5688477z"/>
		<path class="st1" d="M92.8535156,40.2958984v-4.8823242c0-0.6142578-0.1401367-1.0742188-0.4199219-1.3769531
			s-0.7182617-0.4541016-1.3149414-0.4541016c-0.7895508,0-1.3681641,0.2138672-1.7353516,0.640625
			s-0.5507812,1.1308594-0.5507812,2.1137695v3.9589844h-1.1425781v-7.5463867h0.9291992l0.1860352,1.0322266h0.0551758
			c0.2338867-0.3710938,0.5620117-0.6591797,0.984375-0.8632812s0.8925781-0.3066406,1.4116211-0.3066406
			c0.9086914,0,1.5927734,0.21875,2.0517578,0.6572266s0.6884766,1.1396484,0.6884766,2.1035156v4.9233398H92.8535156z"/>
		<path class="st1" d="M105.1708984,40.2958984v-4.8823242c0-0.6142578-0.1401367-1.0742188-0.4199219-1.3769531
			s-0.7182617-0.4541016-1.3149414-0.4541016c-0.7944336,0-1.3735352,0.2158203-1.7387695,0.6474609
			c-0.3647461,0.4316406-0.5473633,1.1376953-0.5473633,2.1206055v3.9453125h-1.1425781V29.5825195h1.1425781v3.2421875
			c0,0.390625-0.0180664,0.7138672-0.0546875,0.9716797h0.0688477c0.2246094-0.3632812,0.5449219-0.6484375,0.9604492-0.8574219
			c0.4150391-0.2089844,0.8891602-0.3134766,1.4213867-0.3134766c0.9228516,0,1.6147461,0.21875,2.0761719,0.6572266
			c0.4609375,0.4384766,0.6918945,1.1347656,0.6918945,2.0898438v4.9233398H105.1708984z"/>
		<path class="st1" d="M115.175293,36.515625c0,1.2304688-0.3100586,2.1914062-0.9296875,2.8818359
			s-1.4755859,1.0361328-2.5678711,1.0361328c-0.6748047,0-1.2739258-0.1582031-1.796875-0.4746094
			c-0.5234375-0.3173828-0.9272461-0.7714844-1.2119141-1.3632812c-0.284668-0.5927734-0.4267578-1.2851562-0.4267578-2.0800781
			c0-1.2299805,0.3071289-2.1879883,0.9223633-2.8745117s1.46875-1.0292969,2.5610352-1.0292969
			c1.0556641,0,1.8945312,0.3505859,2.5166016,1.0537109C114.8642578,34.3676758,115.175293,35.3178711,115.175293,36.515625z
			 M109.4262695,36.515625c0,0.9638672,0.1928711,1.6982422,0.578125,2.203125
			c0.3857422,0.5058594,0.9526367,0.7578125,1.7006836,0.7578125s1.3164062-0.2509766,1.7041016-0.7539062
			s0.5820312-1.2382812,0.5820312-2.2070312c0-0.9594727-0.1943359-1.6879883-0.5820312-2.1860352
			s-0.9604492-0.7470703-1.7177734-0.7470703c-0.7480469,0-1.3129883,0.2451172-1.6938477,0.7363281
			S109.4262695,35.5424805,109.4262695,36.515625z"/>
		<path class="st1" d="M118.2524414,32.7495117v4.8959961c0,0.6152344,0.1401367,1.0732422,0.4204102,1.3769531
			c0.2797852,0.3027344,0.7182617,0.4541016,1.3149414,0.4541016c0.7890625,0,1.3666992-0.2158203,1.7314453-0.6474609
			c0.3647461-0.4306641,0.5473633-1.1357422,0.5473633-2.1132812v-3.9663086h1.1430664v7.5463867h-0.9433594l-0.1650391-1.0117188
			h-0.0620117c-0.234375,0.3710938-0.559082,0.65625-0.9746094,0.8535156
			c-0.4150391,0.1972656-0.8891602,0.2958984-1.4213867,0.2958984c-0.918457,0-1.6054688-0.2177734-2.0620117-0.6542969
			c-0.4570312-0.4355469-0.6855469-1.1337891-0.6855469-2.0927734v-4.9370117H118.2524414z"/>
		<path class="st1" d="M129.2758789,32.6118164c0.3349609,0,0.6357422,0.0273438,0.9018555,0.0820312l-0.1582031,1.0605469
			c-0.3125-0.0683594-0.5878906-0.1035156-0.8261719-0.1035156c-0.6108398,0-1.1328125,0.2480469-1.5664062,0.7441406
			s-0.6508789,1.1132812-0.6508789,1.8520508v4.0488281h-1.1425781v-7.5463867h0.9428711l0.1308594,1.3974609h0.0551758
			c0.2797852-0.4912109,0.6171875-0.8701172,1.012207-1.1357422
			C128.3691406,32.7446289,128.8032227,32.6118164,129.2758789,32.6118164z"/>
		<path class="st1" d="M136.4570312,38.2373047c0,0.7021484-0.2617188,1.2441406-0.7851562,1.625
			c-0.5229492,0.3808594-1.2573242,0.5712891-2.203125,0.5712891c-1.0004883,0-1.7807617-0.1582031-2.3408203-0.4746094v-1.0605469
			c0.3623047,0.1835938,0.7514648,0.328125,1.1669922,0.4335938s0.815918,0.1582031,1.2016602,0.1582031
			c0.5961914,0,1.0556641-0.0947266,1.3769531-0.2851562s0.4819336-0.4814453,0.4819336-0.8710938
			c0-0.2939453-0.1274414-0.5449219-0.3823242-0.7539062s-0.7514648-0.4560547-1.4907227-0.7402344
			c-0.7021484-0.2617188-1.2011719-0.4902344-1.4975586-0.6855469c-0.2958984-0.1948242-0.5161133-0.4165039-0.6606445-0.6645508
			s-0.2167969-0.5439453-0.2167969-0.8886719c0-0.6142578,0.25-1.0996094,0.7504883-1.4560547
			c0.5-0.3554688,1.1865234-0.5332031,2.0585938-0.5332031c0.8125,0,1.6064453,0.1650391,2.3823242,0.4951172l-0.40625,0.9296875
			c-0.7573242-0.3115234-1.4438477-0.4677734-2.0585938-0.4677734c-0.5419922,0-0.9501953,0.0849609-1.2255859,0.2548828
			s-0.4130859,0.4033203-0.4130859,0.7021484c0,0.2021484,0.0512695,0.3740234,0.1547852,0.5166016
			c0.1030273,0.1416016,0.2695312,0.2773438,0.4990234,0.40625c0.2294922,0.1279297,0.6704102,0.3144531,1.3217773,0.5581055
			c0.8955078,0.3251953,1.5,0.6533203,1.8144531,0.984375C136.2998047,37.3212891,136.4570312,37.7373047,136.4570312,38.2373047z"
			/>
	</g>
	<g>
		<path class="st2" d="M53.9000015,29.2999992c0-0.2000008-0.2000008-0.3999996-0.5-0.3999996H52v-0.5
			c0-0.2000008-0.2000008-0.5-0.5-0.5h-1.7000008c-0.2000008,0-0.5,0.2000008-0.5,0.5v0.5h-4.9000015v-0.5
			c0-0.2000008-0.2000008-0.5-0.5-0.5h-1.7000008c-0.2000008,0-0.5,0.2000008-0.5,0.5v0.5h-1.4000015
			c-0.2000008,0-0.4000015,0.2000008-0.4000015,0.5v13.0000019c0,0.2000008,0.2000008,0.5,0.5,0.5h13
			c0.2000008,0,0.5-0.2000008,0.5-0.5L53.9000015,29.2999992z M53,32.4000015v9.5H40.9000015v-9.5H53z M42.7999992,29.8999996
			v-1.1000004h0.7999992v1.1000004H42.7999992z M50.2999992,29.8999996v-1.1000004h0.7999992v1.1000004H50.2999992z
			 M49.9000015,30.7999992h1.7000008c0.2000008,0,0.5-0.2000008,0.5-0.5v-0.5h1v1.7999992H40.9000015v-1.7999992H42v0.5
			c0,0.1000004,0,0.2000008,0.0999985,0.2999992c0.0999985,0.1000004,0.2000008,0.1000004,0.2999992,0.1000004h1.7000008
			c0.2000008,0,0.5-0.2000008,0.5-0.5v-0.5H49.5v0.5C49.4000015,30.5,49.5999985,30.7999992,49.9000015,30.7999992z"/>
		<path class="st2" d="M51.7000008,33.5h-9.6000023v7.4000015h9.5999985C51.7000008,40.9000015,51.7000008,33.5,51.7000008,33.5z
			 M50.7999992,38.7000008V40H49.5v-1.2999992H50.7999992z M50.7999992,36.5v1.2999992H49.5V36.5H50.7999992z
			 M50.7999992,34.2999992v1.2999992H49.5v-1.2999992H50.7999992z M48.7000008,38.7000008V40h-1.2999992v-1.2999992H48.7000008z
			 M48.7000008,36.5v1.2999992h-1.2999992V36.5H48.7000008z M48.7000008,34.2999992v1.2999992h-1.2999992v-1.2999992H48.7000008z
			 M46.5,38.7000008V40h-1.2999992v-1.2999992H46.5z M46.5,36.5v1.2999992h-1.2999992V36.5H46.5z M46.5,34.2999992v1.2999992
			h-1.2999992v-1.2999992H46.5z M44.2999992,38.7000008V40H43v-1.2999992H44.2999992z M44.2999992,36.5v1.2999992H43V36.5
			H44.2999992z M44.2999992,34.2999992v1.2999992H43v-1.2999992H44.2999992z"/>
	</g>
</g>
<g>
	<g class="st0">
		<path class="st1" d="M199.6357422,31.1313477c-1.105957,0-1.9794922,0.3681641-2.6196289,1.1054688
			c-0.6401367,0.7363281-0.9604492,1.7451172-0.9604492,3.0253906c0,1.3178711,0.3085938,2.3354492,0.9257812,3.0541992
			c0.6176758,0.71875,1.4975586,1.0771484,2.640625,1.0771484c0.7021484,0,1.503418-0.1259766,2.402832-0.3779297v1.0253906
			c-0.6977539,0.2617188-1.5581055,0.3925781-2.5820312,0.3925781c-1.4824219,0-2.6264648-0.4501953-3.4321289-1.3496094
			s-1.2080078-2.1777344-1.2080078-3.8354492c0-1.0371094,0.1938477-1.9462891,0.581543-2.7265625
			s0.9477539-1.3808594,1.6801758-1.8037109c0.7319336-0.421875,1.59375-0.6337891,2.5849609-0.6337891
			c1.0556641,0,1.9785156,0.1933594,2.7680664,0.5791016l-0.4956055,1.0048828
			C201.159668,31.3100586,200.3979492,31.1313477,199.6357422,31.1313477z"/>
		<path class="st1" d="M208.6899414,40.2958984l-0.2275391-1.0742188h-0.0551758
			c-0.3764648,0.4726562-0.7514648,0.7929688-1.1254883,0.9609375c-0.3740234,0.1669922-0.8413086,0.2509766-1.4013672,0.2509766
			c-0.7480469,0-1.3344727-0.1923828-1.7587891-0.578125c-0.4248047-0.3857422-0.637207-0.9345703-0.637207-1.6455078
			c0-1.5244141,1.21875-2.3237305,3.65625-2.3969727l1.2807617-0.0410156v-0.4677734
			c0-0.5927734-0.1274414-1.0292969-0.3823242-1.3125c-0.2548828-0.2822266-0.6621094-0.4228516-1.222168-0.4228516
			c-0.6289062,0-1.340332,0.1923828-2.1342773,0.578125l-0.3510742-0.8740234
			c0.371582-0.2021484,0.7788086-0.3603516,1.222168-0.4755859c0.4428711-0.1142578,0.8867188-0.171875,1.3320312-0.171875
			c0.8994141,0,1.5664062,0.1992188,2,0.5986328c0.434082,0.3994141,0.6508789,1.0400391,0.6508789,1.9208984v5.1508789H208.6899414
			z M206.1079102,39.4902344c0.7114258,0,1.2700195-0.1953125,1.6762695-0.5849609
			c0.40625-0.390625,0.609375-0.9365234,0.609375-1.6386719v-0.6816406l-1.1430664,0.0478516
			c-0.9086914,0.0322266-1.5639648,0.1738281-1.965332,0.4238281c-0.4018555,0.25-0.6025391,0.6386719-0.6025391,1.1669922
			c0,0.4130859,0.125,0.7275391,0.375,0.9433594C205.3081055,39.3828125,205.6577148,39.4902344,206.1079102,39.4902344z"/>
		<path class="st1" d="M213.0341797,40.2958984h-1.1425781V29.5825195h1.1425781V40.2958984z"/>
		<path class="st1" d="M216.6005859,40.2958984h-1.1425781V29.5825195h1.1425781V40.2958984z"/>
		<path class="st1" d="M225.1240234,39.4902344c0.2021484,0,0.3964844-0.0146484,0.5849609-0.0449219
			c0.1884766-0.0292969,0.3378906-0.0605469,0.4472656-0.0927734v0.8740234
			c-0.1230469,0.0605469-0.3056641,0.109375-0.546875,0.1484375s-0.4580078,0.0585938-0.6503906,0.0585938
			c-1.4599609,0-2.1894531-0.7685547-2.1894531-2.3066406V33.637207h-1.0810547v-0.5507812l1.0810547-0.4746094l0.4814453-1.6113281
			h0.6611328v1.7490234h2.1894531v0.8876953h-2.1894531v4.4418945c0,0.4541016,0.1074219,0.8027344,0.3232422,1.0458984
			C224.4511719,39.3691406,224.7470703,39.4902344,225.1240234,39.4902344z"/>
		<path class="st1" d="M234.1777344,36.515625c0,1.2304688-0.3095703,2.1914062-0.9296875,2.8818359
			c-0.6191406,0.6904297-1.4755859,1.0361328-2.5673828,1.0361328c-0.6748047,0-1.2744141-0.1582031-1.796875-0.4746094
			c-0.5234375-0.3173828-0.9277344-0.7714844-1.2119141-1.3632812c-0.2851562-0.5927734-0.4267578-1.2851562-0.4267578-2.0800781
			c0-1.2299805,0.3066406-2.1879883,0.921875-2.8745117s1.46875-1.0292969,2.5615234-1.0292969
			c1.0556641,0,1.8945312,0.3505859,2.5166016,1.0537109C233.8671875,34.3676758,234.1777344,35.3178711,234.1777344,36.515625z
			 M228.4287109,36.515625c0,0.9638672,0.1933594,1.6982422,0.578125,2.203125
			c0.3857422,0.5058594,0.953125,0.7578125,1.7011719,0.7578125s1.3164062-0.2509766,1.7041016-0.7539062
			s0.5820312-1.2382812,0.5820312-2.2070312c0-0.9594727-0.1943359-1.6879883-0.5820312-2.1860352
			s-0.9609375-0.7470703-1.7177734-0.7470703c-0.7480469,0-1.3134766,0.2451172-1.6943359,0.7363281
			S228.4287109,35.5424805,228.4287109,36.515625z"/>
		<path class="st1" d="M240.9179688,32.7495117v4.8959961c0,0.6152344,0.140625,1.0732422,0.4208984,1.3769531
			c0.2792969,0.3027344,0.7177734,0.4541016,1.3144531,0.4541016c0.7890625,0,1.3671875-0.2158203,1.7314453-0.6474609
			c0.3652344-0.4306641,0.5478516-1.1357422,0.5478516-2.1132812v-3.9663086h1.1425781v7.5463867h-0.9433594l-0.1650391-1.0117188
			h-0.0615234c-0.234375,0.3710938-0.5595703,0.65625-0.9746094,0.8535156s-0.8896484,0.2958984-1.421875,0.2958984
			c-0.9179688,0-1.6054688-0.2177734-2.0615234-0.6542969c-0.4570312-0.4355469-0.6855469-1.1337891-0.6855469-2.0927734v-4.9370117
			H240.9179688z"/>
		<path class="st1" d="M253.3662109,38.2373047c0,0.7021484-0.2617188,1.2441406-0.7851562,1.625
			c-0.5224609,0.3808594-1.2568359,0.5712891-2.203125,0.5712891c-1,0-1.7802734-0.1582031-2.3408203-0.4746094v-1.0605469
			c0.3623047,0.1835938,0.7519531,0.328125,1.1669922,0.4335938c0.4160156,0.1054688,0.8164062,0.1582031,1.2021484,0.1582031
			c0.5957031,0,1.0556641-0.0947266,1.3769531-0.2851562s0.4814453-0.4814453,0.4814453-0.8710938
			c0-0.2939453-0.1269531-0.5449219-0.3818359-0.7539062s-0.7519531-0.4560547-1.4912109-0.7402344
			c-0.7021484-0.2617188-1.2011719-0.4902344-1.4970703-0.6855469c-0.2958984-0.1948242-0.5166016-0.4165039-0.6611328-0.6645508
			s-0.2167969-0.5439453-0.2167969-0.8886719c0-0.6142578,0.25-1.0996094,0.7509766-1.4560547
			c0.5-0.3554688,1.1865234-0.5332031,2.0585938-0.5332031c0.8125,0,1.6064453,0.1650391,2.3818359,0.4951172l-0.40625,0.9296875
			c-0.7568359-0.3115234-1.4433594-0.4677734-2.0585938-0.4677734c-0.5419922,0-0.9501953,0.0849609-1.2255859,0.2548828
			s-0.4130859,0.4033203-0.4130859,0.7021484c0,0.2021484,0.0517578,0.3740234,0.1552734,0.5166016
			c0.1025391,0.1416016,0.2695312,0.2773438,0.4990234,0.40625c0.2294922,0.1279297,0.6699219,0.3144531,1.3212891,0.5581055
			c0.8955078,0.3251953,1.5,0.6533203,1.8144531,0.984375C253.2089844,37.3212891,253.3662109,37.7373047,253.3662109,38.2373047z"
			/>
	</g>
	<g>
		<path class="st3" d="M187.8999939,37.5c-2.1000061-1.7000008-2.8000031-0.7999992-3.6000061,0l-0.1000061,0.0999985
			c-0.1000061,0.0999985-0.6000061,0-1-0.2999992c-0.5-0.4000015-1.1999969-0.9000015-1.8999939-1.7000008
			c-2.3999939-2.4000015-2-3-2-3L179.3999939,32.5c0.8000031-0.7999992,1.6000061-1.6000004,0-3.6000004
			c-0.6000061-0.7000008-1.1000061-1-1.6999969-1c-0.8000031-0.1000004-1.5,0.6000004-2,1.2000008
			C175.5999908,29.2000008,175.5,29.3000011,175.5,29.3999996c-0.6000061,0.6000004-0.6000061,1.8999996,0,3.3999996
			C176.1000061,34.5,177.3999939,36.2999992,179,38c1.6000061,1.5999985,3.5,2.9000015,5.1999969,3.5
			c0.8000031,0.2999992,1.5,0.4000015,2.1000061,0.4000015s1.1000061-0.2000008,1.3999939-0.4000015
			c0.1000061-0.0999985,0.1999969-0.2000008,0.3000031-0.2999992c0.5-0.5,1.1999969-1.0999985,1.1999969-2
			C188.8999939,38.7000008,188.6000061,38.0999985,187.8999939,37.5z M178.8000031,32.0999985l-0.1000061,0.0999985
			c-0.6999969,0.7000008-0.1000061,1.9000015,2,3.9000015c0.8000031,0.7999992,1.5,1.4000015,2.1000061,1.7999992
			c0.8000031,0.5999985,1.5,0.5999985,1.8999939,0.2000008l0.1999969-0.2000008
			c0.8000031-0.7999992,1.1000061-1.0999985,2.6999969,0.0999985c0.5,0.4000015,0.8000031,0.7999992,0.8000031,1.2000008
			c0,0.5-0.6000061,1.0999985-1,1.4000015c-0.1000061,0.0999985-0.1999969,0.2000008-0.3000031,0.2999992
			c-0.3999939,0.4000015-1.5,0.2999992-2.6999969-0.0999985C182.7999878,40.2000008,181.0999908,39,179.5,37.3999977
			c-1.6000061-1.5-2.8000031-3.2999992-3.3999939-4.9000015c-0.5-1.2999992-0.5-2.3999996-0.1000061-2.7000008l0.1000061-0.1000004
			l0.1000061-0.1000004c0.3999939-0.5,0.8999939-1,1.3999939-1l0,0c0.3999939,0,0.8000031,0.2999992,1.1999969,0.7999992
			C180,30.8999996,179.6000061,31.2999992,178.8000031,32.0999985z"/>
		<path class="st3" d="M186.1000061,33.7999992c0.1000061,0,0.1000061,0,0.1000061,0
			c0.1000061,0,0.3000031-0.0999985,0.3000031-0.2000008c0.3999939-0.9000015,0.1999969-2-0.6000061-2.7000008
			c-0.6999969-0.7000008-1.8999939-0.8999996-2.8000031-0.5c-0.1000061,0-0.1999969,0.1000004-0.1999969,0.2000008
			s0,0.2000008,0,0.2999992c0,0.1000004,0.1000061,0.2000008,0.1999969,0.2000008c0.1000061,0,0.1999969,0,0.3000031,0
			c0.6999969-0.2999992,1.5-0.2000008,2.1000061,0.3999996c0.5,0.5,0.6999969,1.3000011,0.3999939,2.0000019
			C185.8000031,33.5,185.8999939,33.7000008,186.1000061,33.7999992z"/>
		<path class="st3" d="M182.1999969,28.8999996c0.1000061,0,0.1999969,0,0.3000031,0
			c1.5-0.7000008,3.3999939-0.3999996,4.6000061,0.7999992c1.1999969,1.2000008,1.5,2.8999996,0.8999939,4.3999996
			C187.8999939,34.2999992,188,34.5,188.1999969,34.5c0.1000061,0,0.1000061,0,0.1000061,0
			c0.1000061,0,0.3000031-0.0999985,0.3000031-0.2000008c0.6999969-1.7999992,0.3000031-3.7999992-1-5.2000008
			c-1.3999939-1.3999996-3.5-1.7999992-5.3000031-1c-0.1000061,0-0.1999969,0.1000004-0.1999969,0.2000008s0,0.2000008,0,0.2999992
			C182.1000061,28.7999992,182.1999969,28.8999996,182.1999969,28.8999996z"/>
	</g>
</g>
<g>
	<g class="st0">
		<path class="st1" d="M315.59375,35.0209961h3.421875v4.8959961c-0.5332031,0.1699219-1.0742188,0.2988281-1.625,0.3857422
			s-1.1894531,0.1308594-1.9140625,0.1308594c-1.5244141,0-2.7109375-0.453125-3.5595703-1.359375
			c-0.8496094-0.9072266-1.2734375-2.1767578-1.2734375-3.8120117c0-1.0458984,0.2099609-1.9628906,0.6298828-2.75
			s1.0244141-1.3886719,1.8134766-1.8046875c0.7900391-0.4150391,1.7148438-0.6230469,2.7753906-0.6230469
			c1.0742188,0,2.0742188,0.1982422,3.0019531,0.5927734l-0.4550781,1.0322266
			c-0.9082031-0.3857422-1.7832031-0.578125-2.6230469-0.578125c-1.2255859,0-2.1826172,0.3652344-2.8710938,1.0947266
			s-1.0322266,1.7421875-1.0322266,3.0361328c0,1.3598633,0.3310547,2.3901367,0.9941406,3.0922852
			c0.6640625,0.7021484,1.6376953,1.0537109,2.9228516,1.0537109c0.6982422,0,1.3798828-0.0810547,2.0449219-0.2412109v-3.0986328
			H315.59375V35.0209961z"/>
		<path class="st1" d="M324.4472656,40.4335938c-1.1152344,0-1.9951172-0.3398438-2.6396484-1.0185547
			c-0.6455078-0.6796875-0.9677734-1.6230469-0.9677734-2.8300781c0-1.2172852,0.2998047-2.1831055,0.8984375-2.8989258
			c0.5986328-0.7167969,1.4033203-1.0742188,2.4130859-1.0742188c0.9453125,0,1.6943359,0.3105469,2.2451172,0.9326172
			s0.8261719,1.4423828,0.8261719,2.4624023v0.7226562h-5.1982422c0.0224609,0.8857422,0.2460938,1.5585938,0.6708984,2.0175781
			s1.0224609,0.6884766,1.7939453,0.6884766c0.8125,0,1.6152344-0.1699219,2.4091797-0.5097656v1.0185547
			c-0.4033203,0.1748047-0.7861328,0.2998047-1.1464844,0.3759766
			C325.3916016,40.3955078,324.9570312,40.4335938,324.4472656,40.4335938z M324.1376953,33.5688477
			c-0.6054688,0-1.0888672,0.1972656-1.4492188,0.5917969s-0.5722656,0.9414062-0.6367188,1.6386719h3.9453125
			c0-0.7207031-0.1611328-1.2724609-0.4824219-1.6552734C325.1933594,33.7602539,324.734375,33.5688477,324.1376953,33.5688477z"/>
		<path class="st1" d="M331.6083984,39.4902344c0.2021484,0,0.3964844-0.0146484,0.5849609-0.0449219
			c0.1884766-0.0292969,0.3378906-0.0605469,0.4472656-0.0927734v0.8740234
			c-0.1230469,0.0605469-0.3056641,0.109375-0.546875,0.1484375s-0.4580078,0.0585938-0.6503906,0.0585938
			c-1.4599609,0-2.1894531-0.7685547-2.1894531-2.3066406V33.637207h-1.0810547v-0.5507812l1.0810547-0.4746094l0.4814453-1.6113281
			h0.6611328v1.7490234h2.1894531v0.8876953h-2.1894531v4.4418945c0,0.4541016,0.1074219,0.8027344,0.3232422,1.0458984
			C330.9355469,39.3691406,331.2314453,39.4902344,331.6083984,39.4902344z"/>
		<path class="st1" d="M337.7148438,30.7045898c0-0.2617188,0.0644531-0.453125,0.1933594-0.5751953
			c0.1279297-0.1210938,0.2890625-0.1826172,0.4814453-0.1826172c0.1835938,0,0.3417969,0.0625,0.4755859,0.1865234
			c0.1328125,0.1240234,0.1992188,0.3144531,0.1992188,0.5712891s-0.0664062,0.4482422-0.1992188,0.5751953
			c-0.1337891,0.1259766-0.2919922,0.1894531-0.4755859,0.1894531c-0.1923828,0-0.3535156-0.0634766-0.4814453-0.1894531
			C337.7792969,31.152832,337.7148438,30.9614258,337.7148438,30.7045898z M338.9541016,40.2958984h-1.1425781v-7.5463867h1.1425781
			V40.2958984z"/>
		<path class="st1" d="M346.5419922,40.2958984v-4.8823242c0-0.6142578-0.140625-1.0742188-0.4199219-1.3769531
			c-0.2802734-0.3027344-0.71875-0.4541016-1.3154297-0.4541016c-0.7890625,0-1.3681641,0.2138672-1.7353516,0.640625
			s-0.5507812,1.1308594-0.5507812,2.1137695v3.9589844h-1.1425781v-7.5463867h0.9296875l0.1855469,1.0322266h0.0556641
			c0.2333984-0.3710938,0.5615234-0.6591797,0.984375-0.8632812c0.421875-0.2041016,0.8925781-0.3066406,1.4111328-0.3066406
			c0.9091797,0,1.5927734,0.21875,2.0517578,0.6572266s0.6884766,1.1396484,0.6884766,2.1035156v4.9233398H346.5419922z"/>
		<path class="st1" d="M356.1328125,39.4902344c0.2021484,0,0.3964844-0.0146484,0.5849609-0.0449219
			c0.1884766-0.0292969,0.3378906-0.0605469,0.4472656-0.0927734v0.8740234
			c-0.1230469,0.0605469-0.3056641,0.109375-0.546875,0.1484375s-0.4580078,0.0585938-0.6503906,0.0585938
			c-1.4599609,0-2.1894531-0.7685547-2.1894531-2.3066406V33.637207h-1.0810547v-0.5507812l1.0810547-0.4746094l0.4814453-1.6113281
			h0.6611328v1.7490234h2.1894531v0.8876953h-2.1894531v4.4418945c0,0.4541016,0.1074219,0.8027344,0.3232422,1.0458984
			C355.4599609,39.3691406,355.7558594,39.4902344,356.1328125,39.4902344z"/>
		<path class="st1" d="M365.1865234,36.515625c0,1.2304688-0.3105469,2.1914062-0.9296875,2.8818359
			c-0.6201172,0.6904297-1.4755859,1.0361328-2.5683594,1.0361328c-0.6748047,0-1.2734375-0.1582031-1.796875-0.4746094
			c-0.5234375-0.3173828-0.9267578-0.7714844-1.2119141-1.3632812c-0.2841797-0.5927734-0.4267578-1.2851562-0.4267578-2.0800781
			c0-1.2299805,0.3076172-2.1879883,0.9228516-2.8745117s1.46875-1.0292969,2.5605469-1.0292969
			c1.0556641,0,1.8945312,0.3505859,2.5166016,1.0537109C364.875,34.3676758,365.1865234,35.3178711,365.1865234,36.515625z
			 M359.4375,36.515625c0,0.9638672,0.1923828,1.6982422,0.578125,2.203125
			c0.3857422,0.5058594,0.9521484,0.7578125,1.7001953,0.7578125s1.3164062-0.2509766,1.7041016-0.7539062
			s0.5820312-1.2382812,0.5820312-2.2070312c0-0.9594727-0.1943359-1.6879883-0.5820312-2.1860352
			s-0.9599609-0.7470703-1.7177734-0.7470703c-0.7480469,0-1.3125,0.2451172-1.6933594,0.7363281
			S359.4375,35.5424805,359.4375,36.515625z"/>
		<path class="st1" d="M368.2636719,32.7495117v4.8959961c0,0.6152344,0.140625,1.0732422,0.4208984,1.3769531
			c0.2792969,0.3027344,0.7177734,0.4541016,1.3144531,0.4541016c0.7890625,0,1.3671875-0.2158203,1.7314453-0.6474609
			c0.3652344-0.4306641,0.5478516-1.1357422,0.5478516-2.1132812v-3.9663086h1.1425781v7.5463867h-0.9433594L372.3125,39.2841797
			h-0.0615234c-0.234375,0.3710938-0.5595703,0.65625-0.9746094,0.8535156s-0.8896484,0.2958984-1.421875,0.2958984
			c-0.9179688,0-1.6054688-0.2177734-2.0615234-0.6542969c-0.4570312-0.4355469-0.6855469-1.1337891-0.6855469-2.0927734v-4.9370117
			H368.2636719z"/>
		<path class="st1" d="M378.8603516,40.4335938c-1.0927734,0-1.9384766-0.3359375-2.5371094-1.0087891
			c-0.5996094-0.671875-0.8984375-1.6240234-0.8984375-2.8535156c0-1.2631836,0.3037109-2.2387695,0.9121094-2.9272461
			c0.6074219-0.6884766,1.4746094-1.0322266,2.5986328-1.0322266c0.3623047,0,0.7255859,0.0390625,1.0878906,0.1171875
			s0.6474609,0.1699219,0.8535156,0.2753906l-0.3505859,0.9707031c-0.2529297-0.1015625-0.5283203-0.1845703-0.8261719-0.2519531
			c-0.2988281-0.0664062-0.5625-0.0996094-0.7919922-0.0996094c-1.5332031,0-2.2998047,0.9775391-2.2998047,2.934082
			c0,0.9267578,0.1875,1.6386719,0.5615234,2.1337891c0.3740234,0.4960938,0.9277344,0.7441406,1.6621094,0.7441406
			c0.6289062,0,1.2744141-0.1357422,1.9355469-0.40625v1.0117188
			C380.2617188,40.3027344,379.6269531,40.4335938,378.8603516,40.4335938z"/>
		<path class="st1" d="M387.7207031,40.2958984v-4.8823242c0-0.6142578-0.1396484-1.0742188-0.4199219-1.3769531
			c-0.2792969-0.3027344-0.7177734-0.4541016-1.3144531-0.4541016c-0.7949219,0-1.3740234,0.2158203-1.7392578,0.6474609
			c-0.3642578,0.4316406-0.546875,1.1376953-0.546875,2.1206055v3.9453125h-1.1425781V29.5825195h1.1425781v3.2421875
			c0,0.390625-0.0185547,0.7138672-0.0546875,0.9716797h0.0683594c0.2246094-0.3632812,0.5449219-0.6484375,0.9609375-0.8574219
			c0.4150391-0.2089844,0.8886719-0.3134766,1.4208984-0.3134766c0.9228516,0,1.6152344,0.21875,2.0761719,0.6572266
			s0.6923828,1.1347656,0.6923828,2.0898438v4.9233398H387.7207031z"/>
	</g>
	<path class="st2" d="M304.1000061,31.2000008H291.5c-0.3999939,0-0.7999878,0.3999996-0.7999878,0.7999992v7.7000008
		C290.7000122,40.1000023,291.1000061,40.5,291.5,40.5h12.6000061c0.3999939,0,0.7999878-0.4000015,0.7999878-0.7999992V32
		C304.7999878,31.5,304.5,31.2000008,304.1000061,31.2000008z M291.6000061,38.5v-5.7000008l4,2.5L291.6000061,38.5z
		 M296.3999939,35.7999992L297.5,36.5c0.1000061,0.0999985,0.2999878,0.0999985,0.5,0l1.1000061-0.7000008L303.8000183,39.5
		h-12.2000122L296.3999939,35.7999992z M299.8999939,35.2999992l4-2.5V38.5L299.8999939,35.2999992z M303.6000061,32
		l-5.7999878,3.5999985L292,32H303.6000061z"/>
</g>
</svg>
