<?xml version="1.0" encoding="utf-8"?>
<!-- Generator: Adobe Illustrator 21.0.0, SVG Export Plug-In . SVG Version: 6.00 Build 0)  -->
<svg version="1.1" id="Layer_1" xmlns="http://www.w3.org/2000/svg" width="430" height="80" xmlns:xlink="http://www.w3.org/1999/xlink" x="0px" y="0px"
	 viewBox="0 0 430 70" style="enable-background:new 0 0 430 70;" xml:space="preserve">
<style type="text/css">
	.st0{fill:#222222;}
	.st1{fill:#222222;stroke:#000000;stroke-width:0.2;stroke-miterlimit:10;}
</style>
<g>
	<path class="st0" d="M95,20.1000004c0-0.2000008-0.1999969-0.3999996-0.5-0.3999996H93v-0.5c0-0.2000008-0.1999969-0.5-0.5-0.5
		h-1.6999969c-0.1999969,0-0.5,0.2000008-0.5,0.5v0.5h-4.9000015v-0.5c0-0.2000008-0.1999969-0.5-0.5-0.5h-1.6999969
		c-0.1999969,0-0.5,0.2000008-0.5,0.5v0.5h-1.4000015c-0.1999969,0-0.4000015,0.2000008-0.4000015,0.5v13
		c0,0.2000008,0.1999969,0.5,0.5,0.5h13c0.1999969,0,0.5-0.2000008,0.5-0.5L95,20.1000004z M94.0999985,23.2000008v9.5H81.9000015
		v-9.5H94.0999985z M84,20.7000008v-1.1000004h0.8000031v1.1000004H84z M91.4000015,20.7000008v-1.1000004h0.8000031v1.1000004
		H91.4000015z M90.9000015,21.6000004h1.6999969c0.1999969,0,0.5-0.2000008,0.5-0.5v-0.5h1v1.7999992H81.9000015v-1.7999992H83v0.5
		c0,0.1000004,0,0.2000008,0.0999985,0.2999992C83.1999969,21.5,83.2999954,21.5,83.4000015,21.5h1.6999969
		c0.1999969,0,0.5-0.2000008,0.5-0.5v-0.5H90.5V21C90.5,21.2999992,90.6999969,21.6000004,90.9000015,21.6000004z"/>
	<path class="st0" d="M92.9000015,24.2999992h-9.5999985v7.3999996h9.5999985V24.2999992z M92,29.5v1.2999992h-1.3000031V29.5H92z
		 M92,27.2999992v1.2999992h-1.3000031v-1.2999992H92z M92,25.1000004v1.2999992h-1.3000031v-1.2999992H92z M89.8000031,29.5
		v1.2999992H88.5V29.5H89.8000031z M89.8000031,27.2999992v1.2999992H88.5v-1.2999992H89.8000031z M89.8000031,25.1000004v1.2999992
		H88.5v-1.2999992H89.8000031z M87.5999985,29.5v1.2999992h-1.3000031V29.5H87.5999985z M87.5999985,27.2999992v1.2999992
		h-1.3000031v-1.2999992H87.5999985z M87.5999985,25.1000004v1.2999992h-1.3000031v-1.2999992H87.5999985z M85.5,29.5v1.2999992
		h-1.3000031V29.5H85.5z M85.5,27.2999992v1.2999992h-1.3000031v-1.2999992H85.5z M85.5,25.1000004v1.2999992h-1.3000031v-1.2999992
		H85.5z"/>
</g>
<g>
	<path class="st0" d="M220.1999969,28.5L220.1999969,28.5c-2.1000061-1.7000008-2.8999939-0.7999992-3.6999969,0
		l-0.1000061,0.1000004c-0.1000061,0.1000004-0.3999939,0-0.8999939-0.2999992s-1.1999969-0.8999996-1.8999939-1.6000004
		c-2.1999969-2.2000008-2-2.7999992-2-2.7999992l0.1000061-0.1000004c0.8000031-0.7999992,1.6999969-1.6000004,0-3.7000008
		c-0.6000061-0.7000008-1.1000061-1-1.6999969-1.1000004c-0.8999939-0.1000004-1.5,0.7000008-2,1.2000008
		c-0.1000061,0.1000004-0.1999969,0.2000008-0.1999969,0.2000008c-0.6000061,0.6000004-0.6999969,1.8999996-0.1000061,3.5
		c0.6000061,1.7000008,1.8999939,3.5,3.5,5.2000008c1.6000061,1.6000004,3.5,2.9000015,5.1999969,3.5
		c0.8000031,0.2999992,1.5,0.4000015,2.1000061,0.4000015s1.1000061-0.2000008,1.3999939-0.5
		c0.1000061-0.0999985,0.1999969-0.2000008,0.3000031-0.2999992c0.5-0.5,1.1999969-1.2000008,1.1999969-2
		C221.1999969,29.6000004,220.8999939,29,220.1999969,28.5z M209.921875,19.90625L209.921875,19.90625
		c0.3999939,0,0.578125,0.09375,0.9781342,0.4937515c1.1999969,1.5,0.8000031,1.8999996,0.1000061,2.6000004l-0.1000061,0.1000004
		c-0.6999969,0.7000008-0.1000061,2,2,4c0.8000031,0.7999992,1.5,1.3999996,2.1000061,1.7999992
		c0.8999939,0.6000004,1.6000061,0.6000004,2,0.2000008l0.1999969-0.2000008
		c0.6999969-0.7000008,1.1000061-1.1000004,2.6000061,0.1000004c0.5,0.3999996,0.8000031,0.7999992,0.8000031,1.1000004
		c0,0.5-0.5,1-0.8999939,1.3999996c-0.1000061,0.1000004-0.0843811,0.0843906-0.1999969,0.2000008l-0.1000061,0.1000004
		c-0.3999939,0.2999992-1.3999939,0.2999992-2.6000061-0.2000008c-1.6000061-0.6000004-3.3000031-1.7999992-4.8000031-3.2999992
		s-2.6999969-3.2000008-3.3000031-4.7999992c-0.3999939-1.2000008-0.5-2.2999992-0.1000061-2.6000004c0,0,0,0,0.1000061-0.1000004
		c0,0,0,0,0.1000061-0.1000004l0.1000061-0.1000004C209.1875,20.328125,209.5218658,19.90625,209.921875,19.90625z"/>
	<path class="st0" d="M218.3000031,24.8999996c0.1000061,0,0.1000061,0,0.1999969,0
		c0.1999969,0,0.3000031-0.1000004,0.3999939-0.2999992c0.3999939-1,0.1999969-2.1000004-0.6000061-2.7999992
		c-0.8000031-0.7999992-1.8999939-1-2.8999939-0.5c-0.1000061,0-0.1999969,0.1000004-0.1999969,0.2000008s0,0.2000008,0,0.2999992
		c0,0.1000004,0.1000061,0.2000008,0.1999969,0.2000008c0.1000061,0,0.1999969,0,0.3000031,0
		c0.6999969-0.2999992,1.3999939-0.2000008,1.8999939,0.2999992s0.6000061,1.2000008,0.3999939,1.8999996
		C217.8999939,24.6000004,218.1000061,24.7999992,218.3000031,24.8999996z"/>
	<path class="st0" d="M214.4617615,20.0764713L214.4617615,20.0764713c0.1000061,0,0.2058868,0.0352936,0.3382263,0.0235291
		c1.5-0.7000008,3.3000031-0.2999992,4.3999939,0.7999992c1.1000061,1.1000004,1.5,2.7999992,0.8999939,4.3000011
		c0,0.1000004,0,0.2000008,0,0.2999992c0,0.1000004,0.1000061,0.2000008,0.1999969,0.2000008c0.1000061,0,0.1000061,0,0.1999969,0
		c0.1999969,0,0.3999939-0.1000004,0.3999939-0.2999992c0.6999969-1.7999992,0.3000031-3.8999996-1-5.2000008
		c-1.3999939-1.3999996-3.6000061-1.7999992-5.3999939-1c-0.1000061,0-0.1586761,0.0832214-0.2146759,0.1764698
		c-0.0449371,0.0748158-0.0676422,0.1411781-0.0676422,0.2411766
		C214.2176514,19.9318695,214.3686371,19.9841995,214.4617615,20.0764713z"/>
</g>
<g>
	<g>
		<path class="st1" d="M54.5605469,37.2460938c-1.4873047,0-2.6347656,0.4511719-3.4428711,1.3535156
			c-0.8076172,0.9013672-1.2114258,2.171875-1.2114258,3.8105469c0,1.6523438,0.4023438,2.9316406,1.2080078,3.8388672
			c0.8056641,0.90625,1.949707,1.359375,3.4321289,1.359375c1.4506836,0,2.5830078-0.4609375,3.3979492-1.3837891
			s1.222168-2.1894531,1.222168-3.8007812c0-1.6152344-0.40625-2.8828125-1.21875-3.8007812
			S56.0063477,37.2460938,54.5605469,37.2460938z M57.0732422,45.5292969
			c-0.5688477,0.7021484-1.4111328,1.0537109-2.5268555,1.0537109c-1.105957,0-1.949707-0.3525391-2.5302734-1.0576172
			c-0.5805664-0.7041016-0.8706055-1.7382812-0.8706055-3.1015625c0-1.3447266,0.2900391-2.3691406,0.8706055-3.0742188
			c0.5805664-0.7041016,1.4287109-1.0566406,2.5444336-1.0566406c1.1103516,0,1.9492188,0.3496094,2.5161133,1.0498047
			s0.8505859,1.7275391,0.8505859,3.0810547C57.9272461,43.7919922,57.6425781,44.8271484,57.0732422,45.5292969z"/>
		<path class="st1" d="M64.75,39.7871094c-0.5048828,0-0.9526367,0.0917969-1.3427734,0.2753906
			s-0.7319336,0.4814453-1.0258789,0.8945312h-0.0546875l-0.1586914-1.0322266h-0.9291992v10.9335938h1.1425781v-3.1054688
			c0-0.3945312-0.0273438-0.8125-0.0825195-1.2529297h0.0825195c0.2753906,0.3759766,0.6162109,0.6552734,1.0224609,0.8369141
			c0.40625,0.1806641,0.8549805,0.2714844,1.3461914,0.2714844c0.9824219,0,1.75-0.3427734,2.3032227-1.0292969
			c0.5527344-0.6865234,0.8295898-1.6494141,0.8295898-2.8886719c0-1.234375-0.2719727-2.1933594-0.815918-2.8779297
			C66.5229492,40.1289062,65.7504883,39.7871094,64.75,39.7871094z M66.144043,45.859375
			c-0.3691406,0.5283203-0.8798828,0.7919922-1.5317383,0.7919922c-0.7802734,0-1.347168-0.2285156-1.7006836-0.6845703
			c-0.3535156-0.4570312-0.5302734-1.2158203-0.5302734-2.2763672v-0.2539062
			c0.0092773-0.9326172,0.1860352-1.6113281,0.5302734-2.0380859s0.9018555-0.640625,1.6733398-0.640625
			c0.6699219,0,1.1899414,0.2509766,1.559082,0.7539062c0.3696289,0.5029297,0.5541992,1.2246094,0.5541992,2.1650391
			C66.6982422,44.6044922,66.5136719,45.3320312,66.144043,45.859375z"/>
		<path class="st1" d="M72.7714844,39.7871094c-1.0097656,0-1.8144531,0.3574219-2.4130859,1.0742188
			c-0.5991211,0.7158203-0.8984375,1.6816406-0.8984375,2.8984375c0,1.2070312,0.3222656,2.1503906,0.9672852,2.8300781
			c0.6445312,0.6787109,1.5249023,1.0185547,2.6401367,1.0185547c0.5097656,0,0.9443359-0.0380859,1.3046875-0.1132812
			c0.3603516-0.0761719,0.7426758-0.2011719,1.1464844-0.3759766v-1.0185547
			c-0.7939453,0.3398438-1.597168,0.5097656-2.409668,0.5097656c-0.7709961,0-1.3691406-0.2294922-1.793457-0.6884766
			c-0.4248047-0.4589844-0.6484375-1.1318359-0.6713867-2.0175781h5.1982422v-0.7226562
			c0-1.0195312-0.2753906-1.8398438-0.8261719-2.4619141S73.7167969,39.7871094,72.7714844,39.7871094z M70.6713867,42.9746094
			c0.0644531-0.6972656,0.2768555-1.2441406,0.637207-1.6386719c0.3598633-0.3945312,0.8432617-0.5917969,1.4492188-0.5917969
			c0.5966797,0,1.0556641,0.1914062,1.3769531,0.5751953c0.3212891,0.3828125,0.4819336,0.9345703,0.4819336,1.6552734H70.6713867z"
			/>
		<path class="st1" d="M81.3569336,39.7871094c-0.519043,0-0.9892578,0.1025391-1.4116211,0.3066406
			s-0.7504883,0.4921875-0.984375,0.8632812h-0.0551758l-0.1860352-1.0322266h-0.9291992v7.5458984h1.1425781v-3.9589844
			c0-0.9824219,0.1835938-1.6865234,0.5507812-2.1132812s0.9458008-0.640625,1.7353516-0.640625
			c0.5966797,0,1.0351562,0.1513672,1.3149414,0.4541016s0.4199219,0.7626953,0.4199219,1.3769531v4.8818359h1.1430664v-4.9228516
			c0-0.9638672-0.2294922-1.6650391-0.6884766-2.1035156S82.265625,39.7871094,81.3569336,39.7871094z"/>
		<path class="st1" d="M93.6464844,39.8007812c-0.5322266,0-1.0063477,0.1044922-1.4213867,0.3134766
			c-0.4155273,0.2089844-0.7358398,0.4941406-0.9604492,0.8574219h-0.0688477
			C91.2324219,40.7138672,91.2504883,40.390625,91.2504883,40v-3.2421875h-1.1425781v10.7128906h1.1425781v-3.9453125
			c0-0.9824219,0.1826172-1.6884766,0.5473633-2.1201172c0.3652344-0.4316406,0.9443359-0.6474609,1.7387695-0.6474609
			c0.5966797,0,1.0351562,0.1513672,1.3149414,0.4541016s0.4199219,0.7626953,0.4199219,1.3769531v4.8818359h1.1430664v-4.9228516
			c0-0.9550781-0.230957-1.6513672-0.6918945-2.0898438C95.2612305,40.0195312,94.5693359,39.8007812,93.6464844,39.8007812z"/>
		<path class="st1" d="M101.8261719,39.7871094c-1.0922852,0-1.9458008,0.3427734-2.5610352,1.0292969
			s-0.9223633,1.6445312-0.9223633,2.8740234c0,0.7949219,0.1420898,1.4873047,0.4267578,2.0800781
			c0.284668,0.5917969,0.6884766,1.0458984,1.2119141,1.3632812c0.5229492,0.3164062,1.1220703,0.4746094,1.796875,0.4746094
			c1.0922852,0,1.9482422-0.3457031,2.5678711-1.0361328s0.9296875-1.6513672,0.9296875-2.8818359
			c0-1.1972656-0.3110352-2.1474609-0.9331055-2.8496094C103.7207031,40.1376953,102.8818359,39.7871094,101.8261719,39.7871094z
			 M103.5097656,45.8974609c-0.3876953,0.5029297-0.9560547,0.7539062-1.7041016,0.7539062
			s-1.3149414-0.2519531-1.7006836-0.7578125c-0.3852539-0.5048828-0.578125-1.2392578-0.578125-2.203125
			c0-0.9726562,0.1904297-1.7050781,0.5712891-2.1962891s0.9458008-0.7363281,1.6938477-0.7363281
			c0.7573242,0,1.3300781,0.2490234,1.7177734,0.7470703s0.5820312,1.2265625,0.5820312,2.1855469
			C104.0917969,44.6591797,103.8974609,45.3945312,103.5097656,45.8974609z"/>
		<path class="st1" d="M112.3671875,43.890625c0,0.9775391-0.1826172,1.6826172-0.5473633,2.1132812
			c-0.3647461,0.4316406-0.9423828,0.6474609-1.7314453,0.6474609c-0.5966797,0-1.0351562-0.1513672-1.3149414-0.4541016
			c-0.2802734-0.3037109-0.4204102-0.7617188-0.4204102-1.3769531v-4.8955078h-1.1567383v4.9365234
			c0,0.9589844,0.2285156,1.6572266,0.6855469,2.0927734c0.456543,0.4365234,1.1435547,0.6542969,2.0620117,0.6542969
			c0.5322266,0,1.0063477-0.0986328,1.4213867-0.2958984c0.4155273-0.1972656,0.7402344-0.4824219,0.9746094-0.8535156h0.0620117
			l0.1650391,1.0117188h0.9433594v-7.5458984h-1.1430664V43.890625z"/>
		<path class="st1" d="M118.0751953,40.1865234c-0.3950195,0.265625-0.7324219,0.6445312-1.012207,1.1357422h-0.0551758
			l-0.1308594-1.3974609h-0.9428711v7.5458984h1.1425781V43.421875c0-0.7382812,0.2172852-1.3554688,0.6508789-1.8515625
			s0.9555664-0.7441406,1.5664062-0.7441406c0.2382812,0,0.5136719,0.0351562,0.8261719,0.1035156l0.1582031-1.0605469
			c-0.2661133-0.0546875-0.5668945-0.0820312-0.9018555-0.0820312
			C118.9038086,39.7871094,118.4697266,39.9199219,118.0751953,40.1865234z"/>
		<path class="st1" d="M124.2714844,43.1816406c-0.6513672-0.2431641-1.0922852-0.4296875-1.3217773-0.5576172
			c-0.2294922-0.1289062-0.3959961-0.2646484-0.4990234-0.40625c-0.1035156-0.1425781-0.1547852-0.3144531-0.1547852-0.5166016
			c0-0.2988281,0.1376953-0.5322266,0.4130859-0.7021484s0.6835938-0.2548828,1.2255859-0.2548828
			c0.6147461,0,1.3012695,0.15625,2.0585938,0.4677734l0.40625-0.9296875
			c-0.7758789-0.3300781-1.5698242-0.4951172-2.3823242-0.4951172c-0.8720703,0-1.5585938,0.1777344-2.0585938,0.5332031
			c-0.5004883,0.3564453-0.7504883,0.8417969-0.7504883,1.4560547c0,0.3447266,0.0722656,0.640625,0.2167969,0.8886719
			s0.3647461,0.4697266,0.6606445,0.6640625c0.2963867,0.1953125,0.7954102,0.4238281,1.4975586,0.6855469
			c0.7392578,0.2841797,1.2358398,0.53125,1.4907227,0.7402344s0.3823242,0.4599609,0.3823242,0.7539062
			c0,0.3896484-0.1606445,0.6806641-0.4819336,0.8710938s-0.7807617,0.2851562-1.3769531,0.2851562
			c-0.3857422,0-0.7861328-0.0527344-1.2016602-0.1582031s-0.8046875-0.25-1.1669922-0.4335938v1.0605469
			c0.5600586,0.3164062,1.340332,0.4746094,2.3408203,0.4746094c0.9458008,0,1.6801758-0.1904297,2.203125-0.5712891
			c0.5234375-0.3808594,0.7851562-0.9228516,0.7851562-1.625c0-0.5-0.1572266-0.9160156-0.4716797-1.2460938
			C125.7714844,43.8349609,125.1669922,43.5068359,124.2714844,43.1816406z"/>
		<path class="st1" d="M190.6577148,38.1738281c0.762207,0,1.5239258,0.1787109,2.2861328,0.5371094l0.4956055-1.0048828
			c-0.7895508-0.3857422-1.7124023-0.5791016-2.7680664-0.5791016c-0.9912109,0-1.8530273,0.2119141-2.5849609,0.6337891
			c-0.7324219,0.4228516-1.2924805,1.0234375-1.6801758,1.8037109s-0.581543,1.6894531-0.581543,2.7265625
			c0,1.6572266,0.4023438,2.9355469,1.2080078,3.8349609s1.949707,1.3496094,3.4321289,1.3496094
			c1.0239258,0,1.8842773-0.1308594,2.5820312-0.3925781v-1.0253906c-0.8994141,0.2519531-1.7006836,0.3779297-2.402832,0.3779297
			c-1.1430664,0-2.0229492-0.3583984-2.640625-1.0771484c-0.6171875-0.71875-0.9257812-1.7363281-0.9257812-3.0537109
			c0-1.2802734,0.3203125-2.2890625,0.9604492-3.0253906C188.6782227,38.5419922,189.5517578,38.1738281,190.6577148,38.1738281z"/>
		<path class="st1" d="M197.9077148,39.6679688c-0.4453125,0-0.8891602,0.0576172-1.3320312,0.171875
			c-0.4433594,0.1152344-0.8505859,0.2734375-1.222168,0.4755859l0.3510742,0.8740234
			c0.7939453-0.3857422,1.5053711-0.578125,2.1342773-0.578125c0.5600586,0,0.9672852,0.140625,1.222168,0.4228516
			c0.2548828,0.2832031,0.3823242,0.7197266,0.3823242,1.3125v0.4677734l-1.2807617,0.0410156
			c-2.4375,0.0732422-3.65625,0.8720703-3.65625,2.3964844c0,0.7109375,0.2124023,1.2597656,0.637207,1.6455078
			c0.4243164,0.3857422,1.0107422,0.578125,1.7587891,0.578125c0.5600586,0,1.0273438-0.0839844,1.4013672-0.2509766
			c0.3740234-0.1679688,0.7490234-0.4882812,1.1254883-0.9609375h0.0551758l0.2275391,1.0742188h0.8466797V42.1875
			c0-0.8808594-0.2167969-1.5214844-0.6508789-1.9208984C199.4741211,39.8671875,198.8071289,39.6679688,197.9077148,39.6679688z
			 M199.4155273,44.3085938c0,0.7021484-0.203125,1.2480469-0.609375,1.6386719
			c-0.40625,0.3896484-0.9648438,0.5849609-1.6762695,0.5849609c-0.4501953,0-0.7998047-0.1074219-1.050293-0.3232422
			c-0.25-0.2158203-0.375-0.5302734-0.375-0.9433594c0-0.5283203,0.2006836-0.9169922,0.6025391-1.1669922
			c0.4013672-0.25,1.0566406-0.3916016,1.965332-0.4238281l1.1430664-0.0478516V44.3085938z"/>
		<rect x="202.9135742" y="36.625" class="st1" width="1.1425781" height="10.7128906"/>
		<rect x="206.4799805" y="36.625" class="st1" width="1.1425781" height="10.7128906"/>
		<path class="st1" d="M216.1464844,46.5322266c-0.3769531,0-0.6728516-0.1210938-0.8886719-0.3652344
			c-0.2158203-0.2431641-0.3232422-0.5917969-0.3232422-1.0458984v-4.4414062h2.1894531v-0.8876953h-2.1894531v-1.7490234
			h-0.6611328l-0.4819336,1.6113281l-1.0810547,0.4746094v0.5507812h1.0810547v4.4892578
			c0,1.5380859,0.7299805,2.3066406,2.1894531,2.3066406c0.1928711,0,0.409668-0.0195312,0.6508789-0.0585938
			s0.4238281-0.0878906,0.546875-0.1484375v-0.8740234c-0.109375,0.0322266-0.2587891,0.0634766-0.4472656,0.0927734
			C216.5429688,46.5175781,216.3486328,46.5322266,216.1464844,46.5322266z"/>
		<path class="st1" d="M221.7509766,39.6542969c-1.0927734,0-1.9462891,0.3427734-2.5615234,1.0292969
			s-0.921875,1.6445312-0.921875,2.8740234c0,0.7949219,0.1416016,1.4873047,0.4267578,2.0800781
			c0.2841797,0.5917969,0.6884766,1.0458984,1.2119141,1.3632812c0.5224609,0.3164062,1.1220703,0.4746094,1.796875,0.4746094
			c1.0917969,0,1.9482422-0.3457031,2.5673828-1.0361328c0.6201172-0.6904297,0.9296875-1.6513672,0.9296875-2.8818359
			c0-1.1972656-0.3105469-2.1474609-0.9326172-2.8496094C223.6455078,40.0048828,222.8066406,39.6542969,221.7509766,39.6542969z
			 M223.4345703,45.7646484c-0.3876953,0.5029297-0.9560547,0.7539062-1.7041016,0.7539062
			s-1.3154297-0.2519531-1.7011719-0.7578125c-0.3847656-0.5048828-0.578125-1.2392578-0.578125-2.203125
			c0-0.9726562,0.1904297-1.7050781,0.5712891-2.1962891S220.96875,40.625,221.7167969,40.625
			c0.7568359,0,1.3300781,0.2490234,1.7177734,0.7470703s0.5820312,1.2265625,0.5820312,2.1855469
			C224.0166016,44.5263672,223.8222656,45.2617188,223.4345703,45.7646484z"/>
		<path class="st1" d="M235.9550781,43.7578125c0,0.9775391-0.1826172,1.6826172-0.5478516,2.1132812
			c-0.3642578,0.4316406-0.9423828,0.6474609-1.7314453,0.6474609c-0.5966797,0-1.0351562-0.1513672-1.3144531-0.4541016
			c-0.2802734-0.3037109-0.4208984-0.7617188-0.4208984-1.3769531v-4.8955078h-1.15625v4.9365234
			c0,0.9589844,0.2285156,1.6572266,0.6855469,2.0927734c0.4560547,0.4365234,1.1435547,0.6542969,2.0615234,0.6542969
			c0.5322266,0,1.0068359-0.0986328,1.421875-0.2958984s0.7402344-0.4824219,0.9746094-0.8535156h0.0615234l0.1650391,1.0117188
			h0.9433594v-7.5458984h-1.1425781V43.7578125z"/>
		<path class="st1" d="M242.1025391,43.0488281c-0.6513672-0.2431641-1.0917969-0.4296875-1.3212891-0.5576172
			c-0.2294922-0.1289062-0.3964844-0.2646484-0.4990234-0.40625c-0.1035156-0.1425781-0.1552734-0.3144531-0.1552734-0.5166016
			c0-0.2988281,0.1376953-0.5322266,0.4130859-0.7021484s0.6835938-0.2548828,1.2255859-0.2548828
			c0.6152344,0,1.3017578,0.15625,2.0585938,0.4677734l0.40625-0.9296875
			c-0.7753906-0.3300781-1.5693359-0.4951172-2.3818359-0.4951172c-0.8720703,0-1.5585938,0.1777344-2.0585938,0.5332031
			c-0.5009766,0.3564453-0.7509766,0.8417969-0.7509766,1.4560547c0,0.3447266,0.0722656,0.640625,0.2167969,0.8886719
			s0.3652344,0.4697266,0.6611328,0.6640625c0.2958984,0.1953125,0.7949219,0.4238281,1.4970703,0.6855469
			c0.7392578,0.2841797,1.2363281,0.53125,1.4912109,0.7402344s0.3818359,0.4599609,0.3818359,0.7539062
			c0,0.3896484-0.1601562,0.6806641-0.4814453,0.8710938s-0.78125,0.2851562-1.3769531,0.2851562
			c-0.3857422,0-0.7861328-0.0527344-1.2021484-0.1582031c-0.4150391-0.1054688-0.8046875-0.25-1.1669922-0.4335938v1.0605469
			c0.5605469,0.3164062,1.3408203,0.4746094,2.3408203,0.4746094c0.9462891,0,1.6806641-0.1904297,2.203125-0.5712891
			c0.5234375-0.3808594,0.7851562-0.9228516,0.7851562-1.625c0-0.5-0.1572266-0.9160156-0.4716797-1.2460938
			C243.6025391,43.7021484,242.9980469,43.3740234,242.1025391,43.0488281z"/>
		<path class="st1" d="M305.4990234,40.4013672h2.2519531V43.5c-0.6660156,0.1601562-1.3476562,0.2412109-2.0449219,0.2412109
			c-1.2851562,0-2.2597656-0.3515625-2.9228516-1.0537109s-0.9951172-1.7324219-0.9951172-3.0917969
			c0-1.2939453,0.3447266-2.3066406,1.0332031-3.0361328c0.6884766-0.7299805,1.6455078-1.0952148,2.8710938-1.0952148
			c0.8398438,0,1.7138672,0.1923828,2.6230469,0.5786133l0.4541016-1.0327148
			c-0.9267578-0.3945312-1.9277344-0.5927734-3.0019531-0.5927734c-1.0605469,0-1.9853516,0.2080078-2.7744141,0.6230469
			c-0.7900391,0.4160156-1.3945312,1.0180664-1.8144531,1.8051758s-0.6298828,1.7041016-0.6298828,2.75
			c0,1.6347656,0.4248047,2.9042969,1.2734375,3.8115234c0.8496094,0.90625,2.0361328,1.359375,3.5595703,1.359375
			c0.7255859,0,1.3632812-0.0439453,1.9140625-0.1308594s1.0927734-0.2158203,1.625-0.3857422v-4.8955078h-3.421875V40.4013672z"/>
		<path class="st1" d="M314.0576172,36.9453125c-1.0097656,0-1.8144531,0.3574219-2.4130859,1.0742188
			c-0.5996094,0.7158203-0.8984375,1.6816406-0.8984375,2.8984375c0,1.2070312,0.3222656,2.1503906,0.9667969,2.8300781
			c0.6445312,0.6787109,1.5253906,1.0185547,2.640625,1.0185547c0.5097656,0,0.9443359-0.0380859,1.3046875-0.1132812
			c0.3603516-0.0761719,0.7421875-0.2011719,1.1464844-0.3759766v-1.0185547
			c-0.7939453,0.3398438-1.5976562,0.5097656-2.4101562,0.5097656c-0.7705078,0-1.3691406-0.2294922-1.7929688-0.6884766
			c-0.4248047-0.4589844-0.6484375-1.1318359-0.671875-2.0175781h5.1982422v-0.7226562
			c0-1.0195312-0.2753906-1.8398438-0.8261719-2.4619141S315.0029297,36.9453125,314.0576172,36.9453125z M311.9570312,40.1328125
			c0.0644531-0.6972656,0.2773438-1.2441406,0.6376953-1.6386719c0.359375-0.3945312,0.8427734-0.5917969,1.4492188-0.5917969
			c0.5966797,0,1.0556641,0.1914062,1.3769531,0.5751953c0.3212891,0.3828125,0.4814453,0.9345703,0.4814453,1.6552734H311.9570312z
			"/>
		<path class="st1" d="M321.5136719,43.8232422c-0.3759766,0-0.671875-0.1210938-0.8876953-0.3652344
			c-0.2158203-0.2431641-0.3232422-0.5917969-0.3232422-1.0458984v-4.4414062h2.1894531v-0.8876953h-2.1894531v-1.7495117
			h-0.6611328l-0.4824219,1.6118164l-1.0810547,0.4746094v0.5507812h1.0810547v4.4892578
			c0,1.5380859,0.7304688,2.3066406,2.1894531,2.3066406c0.1933594,0,0.4101562-0.0195312,0.6503906-0.0585938
			c0.2412109-0.0390625,0.4238281-0.0878906,0.5478516-0.1484375v-0.8740234
			c-0.1103516,0.0322266-0.2597656,0.0634766-0.4472656,0.0927734
			C321.9111328,43.8085938,321.7158203,43.8232422,321.5136719,43.8232422z"/>
		<rect x="327.7177734" y="37.0830078" class="st1" width="1.1425781" height="7.5458984"/>
		<path class="st1" d="M328.2958984,34.2797852c-0.1933594,0-0.3535156,0.0615234-0.4824219,0.1826172
			c-0.1279297,0.1220703-0.1923828,0.3134766-0.1923828,0.5751953c0,0.2568359,0.0644531,0.4482422,0.1923828,0.5751953
			c0.1289062,0.1259766,0.2890625,0.1894531,0.4824219,0.1894531c0.1835938,0,0.3417969-0.0634766,0.4746094-0.1894531
			c0.1337891-0.1269531,0.2001953-0.3183594,0.2001953-0.5751953s-0.0664062-0.4472656-0.2001953-0.5712891
			C328.6376953,34.3422852,328.4794922,34.2797852,328.2958984,34.2797852z"/>
		<path class="st1" d="M334.8505859,36.9453125c-0.5195312,0-0.9892578,0.1025391-1.4121094,0.3066406
			c-0.421875,0.2041016-0.75,0.4921875-0.984375,0.8632812h-0.0546875l-0.1865234-1.0322266h-0.9287109v7.5458984h1.1425781
			v-3.9589844c0-0.9824219,0.1835938-1.6865234,0.5507812-2.1132812s0.9453125-0.640625,1.7353516-0.640625
			c0.5966797,0,1.0351562,0.1513672,1.3144531,0.4541016c0.2802734,0.3027344,0.4199219,0.7626953,0.4199219,1.3769531v4.8818359
			h1.1435547v-4.9228516c0-0.9638672-0.2294922-1.6650391-0.6884766-2.1035156S335.7587891,36.9453125,334.8505859,36.9453125z"/>
		<path class="st1" d="M346.0380859,43.8232422c-0.3759766,0-0.671875-0.1210938-0.8876953-0.3652344
			c-0.2158203-0.2431641-0.3232422-0.5917969-0.3232422-1.0458984v-4.4414062h2.1894531v-0.8876953h-2.1894531v-1.7495117
			h-0.6611328l-0.4824219,1.6118164l-1.0810547,0.4746094v0.5507812h1.0810547v4.4892578
			c0,1.5380859,0.7304688,2.3066406,2.1894531,2.3066406c0.1933594,0,0.4101562-0.0195312,0.6503906-0.0585938
			c0.2412109-0.0390625,0.4238281-0.0878906,0.5478516-0.1484375v-0.8740234
			c-0.1103516,0.0322266-0.2597656,0.0634766-0.4472656,0.0927734
			C346.4355469,43.8085938,346.2402344,43.8232422,346.0380859,43.8232422z"/>
		<path class="st1" d="M351.6425781,36.9453125c-1.0927734,0-1.9462891,0.3427734-2.5615234,1.0292969
			s-0.921875,1.6445312-0.921875,2.8740234c0,0.7949219,0.1416016,1.4873047,0.4267578,2.0800781
			c0.2841797,0.5917969,0.6884766,1.0458984,1.2119141,1.3632812c0.5224609,0.3164062,1.1220703,0.4746094,1.796875,0.4746094
			c1.0917969,0,1.9482422-0.3457031,2.5673828-1.0361328c0.6201172-0.6904297,0.9296875-1.6513672,0.9296875-2.8818359
			c0-1.1972656-0.3105469-2.1474609-0.9326172-2.8496094C353.5371094,37.2958984,352.6982422,36.9453125,351.6425781,36.9453125z
			 M353.3261719,43.0556641c-0.3876953,0.5029297-0.9560547,0.7539062-1.7041016,0.7539062
			s-1.3154297-0.2519531-1.7011719-0.7578125c-0.3847656-0.5048828-0.578125-1.2392578-0.578125-2.203125
			c0-0.9726562,0.1904297-1.7050781,0.5712891-2.1962891s0.9462891-0.7363281,1.6943359-0.7363281
			c0.7568359,0,1.3300781,0.2490234,1.7177734,0.7470703s0.5820312,1.2265625,0.5820312,2.1855469
			C353.9082031,41.8173828,353.7138672,42.5527344,353.3261719,43.0556641z"/>
		<path class="st1" d="M362.1835938,41.0488281c0,0.9775391-0.1826172,1.6826172-0.546875,2.1132812
			c-0.3652344,0.4316406-0.9423828,0.6474609-1.7314453,0.6474609c-0.5966797,0-1.0351562-0.1513672-1.3154297-0.4541016
			c-0.2802734-0.3037109-0.4199219-0.7617188-0.4199219-1.3769531v-4.8955078h-1.1572266v4.9365234
			c0,0.9589844,0.2285156,1.6572266,0.6855469,2.0927734c0.4570312,0.4365234,1.1435547,0.6542969,2.0625,0.6542969
			c0.5322266,0,1.0058594-0.0986328,1.4208984-0.2958984c0.4160156-0.1972656,0.7402344-0.4824219,0.9746094-0.8535156h0.0625
			l0.1650391,1.0117188h0.9433594v-7.5458984h-1.1435547V41.0488281z"/>
		<path class="st1" d="M368.8134766,37.9570312c0.2294922,0,0.4941406,0.0332031,0.7919922,0.0996094
			c0.2988281,0.0673828,0.5742188,0.1503906,0.8261719,0.2519531l0.3515625-0.9707031
			c-0.2070312-0.1054688-0.4912109-0.1972656-0.8535156-0.2753906c-0.3632812-0.078125-0.7255859-0.1171875-1.0878906-0.1171875
			c-1.125,0-1.9912109,0.34375-2.5996094,1.0322266s-0.9121094,1.6640625-0.9121094,2.9267578
			c0,1.2294922,0.2998047,2.1816406,0.8984375,2.8535156c0.5986328,0.6728516,1.4443359,1.0087891,2.5371094,1.0087891
			c0.7666016,0,1.4023438-0.1308594,1.9072266-0.3925781v-1.0117188c-0.6611328,0.2705078-1.3056641,0.40625-1.9345703,0.40625
			c-0.734375,0-1.2890625-0.2480469-1.6630859-0.7441406c-0.3740234-0.4951172-0.5605469-1.2070312-0.5605469-2.1337891
			C366.5146484,38.9345703,367.28125,37.9570312,368.8134766,37.9570312z"/>
		<path class="st1" d="M378.078125,37.6162109c-0.4619141-0.4384766-1.1533203-0.6572266-2.0761719-0.6572266
			c-0.5322266,0-1.0068359,0.1044922-1.421875,0.3134766s-0.7353516,0.4941406-0.9599609,0.8574219h-0.0693359
			c0.0371094-0.2578125,0.0546875-0.5810547,0.0546875-0.9716797v-3.2426758h-1.1425781v10.7133789h1.1425781v-3.9453125
			c0-0.9824219,0.1826172-1.6884766,0.5478516-2.1201172s0.9443359-0.6474609,1.7382812-0.6474609
			c0.5966797,0,1.0351562,0.1513672,1.3154297,0.4541016c0.2792969,0.3027344,0.4199219,0.7626953,0.4199219,1.3769531v4.8818359
			h1.1425781v-4.9228516C378.7695312,38.7509766,378.5390625,38.0546875,378.078125,37.6162109z"/>
	</g>
	<path class="st0" d="M346,21.6000004h-12.6000061c-0.3999939,0-0.7999878,0.3999996-0.7999878,0.7999992V30
		c0,0.3999996,0.3999939,0.7999992,0.7999878,0.7999992H346c0.3999939,0,0.7999878-0.3999996,0.7999878-0.7999992v-7.7000008
		C346.7000122,21.8999996,346.3999939,21.6000004,346,21.6000004z M333.5,28.8999996v-5.6999989l4,2.5L333.5,28.8999996z
		 M338.2999878,26.2000008l1.1000061,0.7000008c0.1000061,0.1000004,0.2999878,0.1000004,0.5,0L341,26.2000008l4.7000122,3.7000008
		H333.5L338.2999878,26.2000008z M341.7999878,25.7000008l4-2.5v5.7000008L341.7999878,25.7000008z M345.5,22.3999996
		L339.7000122,26l-5.7999878-3.6000004H345.5z"/>
</g>
</svg>
