<?xml version="1.0" encoding="utf-8"?>
<!-- Generator: Adobe Illustrator 21.0.0, SVG Export Plug-In . SVG Version: 6.00 Build 0)  -->
<svg version="1.1" id="Layer_1" xmlns="http://www.w3.org/2000/svg" width="430" height="80" xmlns:xlink="http://www.w3.org/1999/xlink" x="0px" y="0px"
	 viewBox="0 0 430 70" style="enable-background:new 0 0 430 70;" xml:space="preserve">
<style type="text/css">
	.st0{enable-background:new    ;}
	.st1{fill:#222222;}
	.st2{fill:#E1E1E1;}
	.st3{fill:#222222;stroke:#222222;stroke-width:0.4;stroke-miterlimit:10;}
	.st4{font-family:'OpenSans-Semibold';}
	.st5{font-size:2.6737001px;}
	.st6{fill:#222222;stroke:#222222;stroke-width:0.467;stroke-miterlimit:10;}
</style>
<g class="st0">
	<path class="st1" d="M188.1000061,34.2000008V19.8999996h2.3000031v12.3000011h6v2H188.1000061z"/>
	<path class="st1" d="M211.6000061,27c0,2.2999992-0.6000061,4.1000004-1.6999969,5.4000015
		c-1.1000061,1.2999992-2.8000031,1.9000015-4.8999939,1.9000015c-2.1999969,0-3.8000031-0.5999985-5-1.9000015
		s-1.6999969-3.1000004-1.6999969-5.5s0.6000061-4.2000008,1.6999969-5.3999996
		c1.1000061-1.2000008,2.8000031-1.8999996,5-1.8999996c2.1000061,0,3.8000031,0.6000004,4.8999939,1.8999996
		C211.1000061,22.7999992,211.6000061,24.7000008,211.6000061,27z M200.8000031,27c0,1.7999992,0.3999939,3.1000004,1.1000061,4
		c0.6999969,0.8999996,1.8000031,1.4000015,3.1999969,1.4000015S207.5,32,208.2000122,31.1000023
		c0.6999969-0.8999996,1.1000061-2.2000008,1.1000061-4s-0.3999939-3.1000004-1-4s-1.6999969-1.3999996-3.1000061-1.3999996
		s-2.5,0.5-3.1999969,1.3999996C201.1999969,24,200.8000031,25.2000008,200.8000031,27z"/>
	<path class="st1" d="M220.6000061,26.3999996h5.3000031v7.1999989c-0.8999939,0.2999992-1.6999969,0.5-2.5,0.5999985
		s-1.6000061,0.2000008-2.6000061,0.2000008c-2.1999969,0-3.8000031-0.5999985-5-1.9000015
		C214.6000061,31.1999969,214,29.3999958,214,27.0999966s0.6999969-4.1000004,2-5.3999996s3.1000061-1.8999996,5.5-1.8999996
		c1.5,0,2.8999939,0.2999992,4.1999969,0.8999996l-0.8000031,1.8999996c-1.1999969-0.5-2.3000031-0.7999992-3.5-0.7999992
		c-1.5,0-2.6999969,0.5-3.6000061,1.3999996c-0.8999939,1-1.3000031,2.2999992-1.3000031,3.8999996
		c0,1.7000008,0.3999939,3.1000004,1.1999969,4s1.8999939,1.3999996,3.3999939,1.3999996
		c0.8000031,0,1.6000061-0.0999985,2.3999939-0.2999992v-3.7000008h-3L220.6000061,26.3999996L220.6000061,26.3999996z"/>
	<path class="st1" d="M241.8999939,27c0,2.2999992-0.6000061,4.1000004-1.6999969,5.4000015
		c-1.1000061,1.2999992-2.8000031,1.9000015-4.8999939,1.9000015c-2.1999969,0-3.8000031-0.5999985-5-1.9000015
		s-1.6999969-3.1000004-1.6999969-5.5s0.6000061-4.2000008,1.6999969-5.3999996s2.8000031-1.8999996,5-1.8999996
		c2.1000061,0,3.8000031,0.6000004,4.8999939,1.8999996C241.3999939,22.8999996,241.8999939,24.7000008,241.8999939,27z M231,27
		c0,1.7999992,0.3999939,3.1000004,1.1000061,4s1.8000031,1.4000015,3.1999969,1.4000015S237.6999969,32,238.4000092,31.1000023
		c0.6999969-0.8999996,1.1000061-2.2000008,1.1000061-4s-0.3000031-3.1000004-1-4s-1.6999969-1.3999996-3.1000061-1.3999996
		c-1.3999939,0-2.5,0.5-3.1999969,1.3999996C231.5,24,231,25.2000008,231,27z"/>
</g>
<g class="st0">
	<path class="st1" d="M106.1999969,59H105v-3.2000008h-3.3000031V59H100.5v-7.0999985h1.1999969v2.9000015H105v-2.9000015h1.1999969
		V59z"/>
	<path class="st1" d="M114.4000015,55.4000015c0,1.2000008-0.3000031,2.0999985-0.9000015,2.7000008s-1.4000015,1-2.5,1
		s-1.9000015-0.2999992-2.5-1c-0.5999985-0.5999985-0.9000015-1.5-0.9000015-2.7000008s0.3000031-2.0999985,0.9000015-2.7000008
		s1.4000015-0.9000015,2.5-0.9000015s1.9000015,0.2999992,2.5,1S114.4000015,54.2999992,114.4000015,55.4000015z M109,55.4000015
		c0,0.9000015,0.1999969,1.5,0.5,2c0.4000015,0.5,0.9000015,0.7000008,1.5999985,0.7000008s1.1999969-0.2000008,1.5999985-0.7000008
		s0.5-1.0999985,0.5-2s-0.1999969-1.5-0.5-2s-0.9000015-0.7000008-1.5999985-0.7000008S109.9000015,52.9000015,109.5,53.4000015
		S109,54.5,109,55.4000015z"/>
	<path class="st1" d="M119,59l-2.0999985-6l0,0C117,53.9000015,117,54.7000008,117,55.5V59h-1v-7.0999985h1.5999985l2,5.7000008l0,0
		l2-5.7000008h1.6999969V59h-1.0999985v-3.5c0-0.4000015,0-0.7999992,0-1.4000015s0-0.9000015,0-1l0,0l-2.0999985,6L119,59L119,59z"
		/>
	<path class="st1" d="M129.1999969,59h-4v-7.0999985h4v1h-2.9000015v1.9000015H129v1h-2.6999969V58h2.8999939V59z"/>
	<path class="st2" d="M147.8999939,57.0999985c0,0.5999985-0.1999969,1.0999985-0.6999969,1.5s-1.1000061,0.5-1.8999939,0.5
		s-1.5-0.0999985-2-0.4000015v-1.0999985c0.3000031,0.2000008,0.6999969,0.2999992,1,0.4000015s0.6999969,0.0999985,1,0.0999985
		c0.5,0,0.8000031-0.0999985,1-0.2999992s0.3000031-0.4000015,0.3000031-0.7000008s-0.1000061-0.5-0.3000031-0.7000008
		s-0.6000061-0.4000015-1.1999969-0.7000008c-0.6999969-0.2999992-1.1000061-0.5999985-1.3999939-0.9000015
		s-0.3999939-0.7000008-0.3999939-1.2000008c0-0.5999985,0.1999969-1.0999985,0.6000061-1.4000015s1-0.5,1.6999969-0.5
		s1.3999939,0.0999985,2,0.4000015l-0.3999939,1c-0.6000061-0.2999992-1.1999969-0.4000015-1.6999969-0.4000015
		c-0.3999939,0-0.6999969,0.0999985-0.8999939,0.2000008c-0.1999969,0.2000008-0.3000031,0.4000015-0.3000031,0.7000008
		c0,0.2000008,0,0.2999992,0.1000061,0.5c0.1000061,0.0999985,0.1999969,0.2999992,0.3999939,0.4000015s0.5,0.2999992,1,0.5
		s0.8999939,0.4000015,1.1999969,0.5999985s0.3999939,0.4000015,0.5,0.5999985S147.8999939,56.7000008,147.8999939,57.0999985z"/>
	<path class="st2" d="M154.8999939,59h-1.1999969v-3.2000008h-3.3000031V59h-1.1999969v-7.0999985h1.1999969v2.9000015h3.3000031
		v-2.9000015h1.1999969V59z"/>
	<path class="st2" d="M163.1000061,55.4000015c0,1.2000008-0.3000031,2.0999985-0.8999939,2.7000008s-1.3999939,1-2.5,1
		s-1.8999939-0.2999992-2.5-1c-0.6000061-0.5999985-0.8999939-1.5-0.8999939-2.7000008s0.3000031-2.0999985,0.8999939-2.7000008
		s1.3999939-0.9000015,2.5-0.9000015s1.8999939,0.2999992,2.5,1S163.1000061,54.2999992,163.1000061,55.4000015z
		 M157.6000061,55.4000015c0,0.9000015,0.1999969,1.5,0.5,2c0.3999939,0.5,0.8999939,0.7000008,1.6000061,0.7000008
		c0.6999969,0,1.1999969-0.2000008,1.6000061-0.7000008s0.5-1.0999985,0.5-2s-0.1999969-1.5-0.5-2
		s-0.8999939-0.7000008-1.6000061-0.7000008c-0.6999969,0-1.1999969,0.2000008-1.6000061,0.7000008
		S157.6000061,54.5,157.6000061,55.4000015z"/>
	<path class="st2" d="M169.3999939,54c0,0.7000008-0.1999969,1.2999992-0.6999969,1.7000008
		S167.5,56.2999992,166.5999908,56.2999992h-0.6999969V59h-1.1999969v-7.0999985h2.1000061c0.8999939,0,1.6000061,0.2000008,2,0.5
		S169.3999939,53.2999992,169.3999939,54z M165.8000031,55.2999992h0.6000061c0.6000061,0,1-0.0999985,1.3000031-0.2999992
		s0.3999939-0.5,0.3999939-1c0-0.4000015-0.1000061-0.7000008-0.3999939-0.9000015s-0.6000061-0.2999992-1.1999969-0.2999992
		h-0.8000031L165.8000031,55.2999992L165.8000031,55.2999992z"/>
	<path class="st1" d="M186.6999969,55.0999985h2.6000061v3.5999985c-0.3999939,0.0999985-0.8000031,0.2000008-1.1999969,0.2999992
		s-0.8000031,0.0999985-1.3000031,0.0999985c-1.1000061,0-1.8999939-0.2999992-2.5-1
		c-0.6000061-0.5999985-0.8999939-1.5-0.8999939-2.7000008c0-1.0999985,0.3000031-2,1-2.7000008
		c0.6999969-0.5999985,1.6000061-1,2.6999969-1c0.6999969,0,1.5,0.0999985,2.1000061,0.4000015l-0.3999939,1
		c-0.6000061-0.2999992-1.1999969-0.4000015-1.6999969-0.4000015c-0.8000031,0-1.3999939,0.2000008-1.8000031,0.7000008
		s-0.6999969,1.0999985-0.6999969,2s0.1999969,1.5,0.6000061,2c0.3999939,0.5,1,0.7000008,1.6999969,0.7000008
		c0.3999939,0,0.8000031,0,1.1999969-0.0999985v-1.7999992h-1.5L186.6999969,55.0999985L186.6999969,55.0999985z"/>
	<path class="st1" d="M195.5,59l-0.6999969-2H192l-0.6999969,2h-1.1999969l2.6999969-7.2000008h1.3000031L196.8000031,59H195.5z
		 M194.3999939,56l-0.6999969-1.9000015C193.6999969,54,193.5999908,53.7999992,193.5,53.5s-0.1000061-0.5-0.1999969-0.5999985
		c-0.1000061,0.4000015-0.1999969,0.7999992-0.3999939,1.2999992l-0.6000061,1.9000015h2.1000061L194.3999939,56L194.3999939,56z"/>
	<path class="st1" d="M197.6000061,59v-7.0999985h1.1999969V58h3v1H197.6000061z"/>
	<path class="st1" d="M203.1000061,59v-7.0999985h1.1999969V58h3v1H203.1000061z"/>
	<path class="st1" d="M212.5,59h-4v-7.0999985h4v1h-2.8999939v1.9000015h2.6999969v1h-2.6999969V58H212.5V59z"/>
	<path class="st1" d="M215.1999969,56.0999985V59H214v-7.0999985h2c0.8999939,0,1.6000061,0.2000008,2,0.5
		S218.6999969,53.3000031,218.6999969,54c0,0.9000015-0.5,1.5-1.3999939,1.9000015l2,3.2000008H218l-1.6999969-2.9000015h-1.1000061
		V56.0999985z M215.1999969,55.2000008H216c0.5,0,0.8999939-0.0999985,1.1999969-0.2999992s0.3999939-0.5,0.3999939-0.9000015
		s-0.1000061-0.7000008-0.3999939-0.9000015S216.5,52.7999992,216,52.7999992h-0.8000031V55.2000008z"/>
	<path class="st1" d="M222.5,55.0999985l1.6999969-3.2999992H225.5l-2.3999939,4.4000015V59h-1.1999969v-2.7000008
		l-2.3999939-4.4000015h1.3000031L222.5,55.0999985z"/>
	<path class="st1" d="M239.3999939,51.9000015H241.5c1,0,1.6999969,0.0999985,2.1000061,0.4000015
		s0.6999969,0.7000008,0.6999969,1.4000015c0,0.4000015-0.1000061,0.7999992-0.3000031,1s-0.5,0.5-0.8999939,0.5l0,0
		c0.5,0.0999985,0.8999939,0.2999992,1.1000061,0.5999985c0.1999969,0.2999992,0.3999939,0.7000008,0.3999939,1.0999985
		c0,0.5999985-0.1999969,1.0999985-0.6999969,1.5c-0.3999939,0.4000015-1.1000061,0.5-1.8999939,0.5h-2.6000061
		L239.3999939,51.9000015L239.3999939,51.9000015z M240.5,54.7999992h1.1000061c0.5,0,0.8000031-0.0999985,1.1000061-0.2000008
		c0.1999969-0.2000008,0.3000031-0.4000015,0.3000031-0.7999992c0-0.2999992-0.1000061-0.5999985-0.3999939-0.7000008
		s-0.6000061-0.2000008-1.1999969-0.2000008h-1L240.5,54.7999992L240.5,54.7999992z M240.5,55.7999992V58h1.1999969
		c0.5,0,0.8999939-0.0999985,1.1000061-0.2999992c0.1999969-0.2000008,0.3999939-0.5,0.3999939-0.9000015
		S243.0999908,56.2000008,242.8000031,56s-0.6000061-0.2999992-1.1999969-0.2999992L240.5,55.7999992L240.5,55.7999992z"/>
	<path class="st1" d="M246,59v-7.0999985h1.1999969V58h3v1H246z"/>
	<path class="st1" d="M257.7000122,55.4000015c0,1.2000008-0.2999878,2.0999985-0.8999939,2.7000008
		c-0.6000061,0.5999985-1.3999939,1-2.5,1s-1.8999939-0.2999992-2.5-1c-0.6000061-0.5999985-0.8999939-1.5-0.8999939-2.7000008
		s0.3000031-2.0999985,0.8999939-2.7000008c0.6000061-0.5999985,1.3999939-0.9000015,2.5-0.9000015s1.8999939,0.2999992,2.5,1
		S257.7000122,54.2999992,257.7000122,55.4000015z M252.3000031,55.4000015c0,0.9000015,0.1999969,1.5,0.5,2
		c0.3999939,0.5,0.8999939,0.7000008,1.6000061,0.7000008c0.6999969,0,1.1999969-0.2000008,1.5999908-0.7000008
		c0.3999939-0.4000015,0.5-1.0999985,0.5-2s-0.2000122-1.5-0.5-2c-0.3999939-0.5-0.8999939-0.7000008-1.6000061-0.7000008
		c-0.6999969,0-1.1999969,0.2000008-1.6000061,0.7000008C252.5,53.9000015,252.3000031,54.5,252.3000031,55.4000015z"/>
	<path class="st1" d="M262.2000122,55.0999985h2.6000061v3.5999985c-0.3999939,0.0999985-0.7999878,0.2000008-1.2000122,0.2999992
		c-0.3999939,0.0999985-0.7999878,0.0999985-1.2999878,0.0999985c-1.1000061,0-1.8999939-0.2999992-2.5-1
		c-0.6000061-0.5999985-0.8999939-1.5-0.8999939-2.7000008c0-1.0999985,0.2999878-2,1-2.7000008
		c0.7000122-0.5999985,1.6000061-1,2.7000122-1c0.7000122,0,1.5,0.0999985,2.1000061,0.4000015l-0.3999939,1
		c-0.6000061-0.2999992-1.2000122-0.4000015-1.7000122-0.4000015c-0.7999878,0-1.3999939,0.2000008-1.7999878,0.7000008
		s-0.7000122,1.0999985-0.7000122,2s0.2000122,1.5,0.6000061,2s1,0.7000008,1.7000122,0.7000008
		c0.3999939,0,0.7999878,0,1.2000122-0.0999985v-1.7999992h-1.5L262.2000122,55.0999985L262.2000122,55.0999985z"/>
	<path class="st1" d="M282.5,52.7999992c-0.7000122,0-1.2000122,0.2000008-1.6000061,0.7000008s-0.6000061,1.0999985-0.6000061,2
		s0.2000122,1.5,0.6000061,2c0.3999939,0.4000015,0.8999939,0.7000008,1.6000061,0.7000008
		c0.2999878,0,0.6000061,0,0.8999939-0.0999985S284,58.0000038,284.2999878,57.9000015v1
		c-0.6000061,0.2000008-1.2000122,0.2999992-1.8999939,0.2999992c-1,0-1.7999878-0.2999992-2.3999939-0.9000015
		c-0.6000061-0.5999985-0.7999878-1.5-0.7999878-2.7000008c0-0.7000008,0.1000061-1.4000015,0.3999939-1.9000015
		c0.2999878-0.5999985,0.7000122-1,1.2000122-1.2999992s1.1000061-0.4000015,1.7999878-0.4000015
		c0.7000122,0,1.3999939,0.2000008,2,0.5l-0.3999939,1c-0.2000122-0.0999985-0.2999878-0.2999992-0.6000061-0.5
		C282.7999878,52.7999992,282.7999878,52.7999992,282.5,52.7999992z"/>
	<path class="st1" d="M292.2000122,55.4000015c0,1.2000008-0.2999878,2.0999985-0.8999939,2.7000008
		c-0.6000061,0.5999985-1.3999939,1-2.5,1s-1.8999939-0.2999992-2.5-1c-0.6000061-0.5999985-0.8999939-1.5-0.8999939-2.7000008
		s0.2999878-2.0999985,0.8999939-2.7000008c0.6000061-0.5999985,1.3999939-0.9000015,2.5-0.9000015s1.8999939,0.2999992,2.5,1
		S292.2000122,54.2999992,292.2000122,55.4000015z M286.7000122,55.4000015c0,0.9000015,0.2000122,1.5,0.5,2
		c0.3999939,0.5,0.8999939,0.7000008,1.6000061,0.7000008s1.2000122-0.2000008,1.6000061-0.7000008
		c0.3999939-0.4000015,0.5-1.0999985,0.5-2s-0.2000122-1.5-0.5-2c-0.3999939-0.5-0.8999939-0.7000008-1.6000061-0.7000008
		s-1.2000122,0.2000008-1.6000061,0.7000008C286.8999939,53.9000015,286.7000122,54.5,286.7000122,55.4000015z"/>
	<path class="st1" d="M299.7000122,59h-1.3999939l-3.5-5.7000008l0,0v0.2999992
		c0,0.5999985,0.1000061,1.2000008,0.1000061,1.7000008V59h-1.1000061v-7.0999985h1.3999939l3.5,5.7000008l0,0
		c0-0.0999985,0-0.2999992,0-0.7999992s0-0.7999992,0-1.0999985V52h1.1000061v7H299.7000122z"/>
	<path class="st1" d="M304,59h-1.2000122v-6.0999985h-2.1000061v-1h5.3999939v1H304V59z"/>
	<path class="st1" d="M311.6000061,59l-0.7000122-2h-2.7000122l-0.7000122,2h-1.2000122l2.7000122-7.2000008h1.2999878L313,59
		H311.6000061z M310.6000061,56l-0.7000122-1.9000015c0-0.0999985-0.1000061-0.2999992-0.2000122-0.5999985
		s-0.1000061-0.5-0.2000122-0.5999985c-0.1000061,0.4000015-0.2000122,0.7999992-0.3999939,1.2999992l-0.6000061,1.9000015
		h2.1000061L310.6000061,56L310.6000061,56z"/>
	<path class="st1" d="M316.8999939,52.7999992c-0.7000122,0-1.2000122,0.2000008-1.6000061,0.7000008
		s-0.6000061,1.0999985-0.6000061,2s0.2000122,1.5,0.6000061,2c0.3999939,0.4000015,0.8999939,0.7000008,1.6000061,0.7000008
		c0.2999878,0,0.6000061,0,0.8999939-0.0999985s0.6000061-0.0999985,0.8999939-0.2000008v1
		c-0.6000061,0.2000008-1.2000122,0.2999992-1.8999939,0.2999992c-1,0-1.7999878-0.2999992-2.3999939-0.9000015
		c-0.6000061-0.5999985-0.7999878-1.5-0.7999878-2.7000008c0-0.7000008,0.1000061-1.4000015,0.3999939-1.9000015
		c0.2999878-0.5999985,0.7000122-1,1.2000122-1.2999992S316.3000183,51.9999962,317,51.9999962
		c0.7000122,0,1.3999939,0.2000008,2,0.5l-0.3999939,1c-0.2000122-0.0999985-0.2999878-0.2000008-0.6000061-0.4000015
		C317.2999878,52.7999992,317.1000061,52.7999992,316.8999939,52.7999992z"/>
	<path class="st1" d="M322.6000061,59h-1.2000122v-6.0999985h-2.1000061v-1h5.3999939v1h-2.1000061L322.6000061,59L322.6000061,59z"
		/>
	<path class="st1" d="M329.8999939,57.0999985c0,0.5999985-0.2000122,1.0999985-0.7000122,1.5s-1.1000061,0.5-1.8999939,0.5
		s-1.5-0.0999985-2-0.4000015v-1.0999985c0.2999878,0.2000008,0.7000122,0.2999992,1,0.4000015
		c0.3999939,0.0999985,0.7000122,0.0999985,1,0.0999985c0.5,0,0.7999878-0.0999985,1-0.2999992
		s0.2999878-0.4000015,0.2999878-0.7000008s-0.1000061-0.5-0.2999878-0.7000008s-0.6000061-0.4000015-1.2000122-0.7000008
		c-0.7000122-0.2999992-1.1000061-0.5999985-1.3999939-0.9000015s-0.3999939-0.7000008-0.3999939-1.2000008
		c0-0.5999985,0.2000122-1.0999985,0.6000061-1.4000015s1-0.5,1.7000122-0.5s1.3999939,0.0999985,2,0.4000015l-0.3999939,1
		C328.6000061,52.7999954,328,52.6999931,327.5,52.6999931c-0.3999939,0-0.7000122,0.0999985-0.8999939,0.2000008
		c-0.2000122,0.2000008-0.2999878,0.4000015-0.2999878,0.7000008c0,0.2000008,0,0.2999992,0.1000061,0.5
		c0.1000061,0.0999985,0.2000122,0.2999992,0.3999939,0.4000015s0.5,0.2999992,1,0.5s0.8999939,0.4000015,1.2000122,0.5999985
		s0.3999939,0.4000015,0.5,0.5999985S329.8999939,56.7000008,329.8999939,57.0999985z"/>
</g>
<g>
	<path class="st1" d="M295.3999939,32v-7.1000004h1.2000122V31h3v1H295.3999939z"/>
	<path class="st1" d="M307.1000061,28.3999996c0,1.2000008-0.2999878,2.1000004-0.8999939,2.7000008
		s-1.3999939,0.9999981-2.5,0.9999981s-1.8999939-0.2999992-2.5-1c-0.6000061-0.6000004-0.8999939-1.5-0.8999939-2.7000008
		s0.2999878-2.1000004,0.8999939-2.7000008s1.3999939-0.8999996,2.5-0.8999996s1.8999939,0.2999992,2.3999939,1
		C306.7999878,26.3999996,307.1000061,27.2999992,307.1000061,28.3999996z M301.7000122,28.3999996c0,0.8999996,0.2000122,1.5,0.5,2
		s0.8999939,0.7000008,1.6000061,0.7000008s1.2000122-0.2000008,1.6000061-0.7000008c0.3999939-0.3999996,0.5-1.1000004,0.5-2
		s-0.2000122-1.5-0.5-2c-0.2999878-0.3999996-0.8999939-0.7000008-1.6000061-0.7000008s-1.2000122,0.2000008-1.6000061,0.7000008
		C301.8999939,26.8999996,301.7000122,27.6000004,301.7000122,28.3999996z"/>
	<path class="st1" d="M311.5,28.2000008h2.6000061v3.6000004c-0.3999939,0.1000004-0.7999878,0.1999989-1.2000122,0.3000011
		c-0.3999939,0.0999985-0.7999878,0.0999985-1.2999878,0.0999985c-1.1000061,0-1.8999939-0.2999992-2.5-1
		c-0.6000061-0.6000004-0.8999939-1.5-0.8999939-2.7000008c0-1.1000004,0.2999878-2,1-2.7000008
		c0.7000122-0.6000004,1.6000061-1,2.7000122-1c0.7000122,0,1.3999939,0.1000004,2.1000061,0.3999996l-0.3999939,1
		c-0.6000061-0.2999992-1.2000122-0.3999996-1.7000122-0.3999996c-0.7999878,0-1.3999939,0.2000008-1.7999878,0.7000008
		s-0.7000122,1.1000004-0.7000122,2s0.2000122,1.5,0.6000061,2s1,0.7000008,1.7000122,0.7000008
		c0.3999939,0,0.7999878,0,1.2000122-0.1000004v-1.7999992h-1.5v-1.1000004H311.5z"/>
	<path class="st1" d="M318.3999939,32v-7.1000004h1.2000122V32H318.3999939z"/>
	<path class="st1" d="M327.3999939,32H326l-3.5-5.7000008l0,0v0.2999992c0,0.6000004,0.1000061,1.2000008,0.1000061,1.7000008V32
		H321.5v-7.1000004h1.3999939l3.5,5.6000004l0,0c0-0.1000004,0-0.2999992,0-0.7999992s0-0.7999992,0-1.1000004v-3.7000008H327.5V32
		H327.3999939z"/>
	<path class="st1" d="M334.7000122,24.8999996L332,32h-1l2.6000061-7.1000004H334.7000122z"/>
	<path class="st1" d="M342.3999939,30.1000004c0,0.6000004-0.2000122,1.1000004-0.7000122,1.5
		s-1.1000061,0.4999981-1.8999939,0.4999981s-1.5-0.1000004-2-0.3999996v-1.1000004
		c0.2999878,0.2000008,0.7000122,0.2999992,1,0.3999996c0.3999939,0.1000004,0.7000122,0.1000004,1,0.1000004
		c0.5,0,0.7999878-0.1000004,1-0.2999992s0.2999878-0.3999996,0.2999878-0.7000008c0-0.2999992-0.1000061-0.5-0.2999878-0.7000008
		c-0.2000122-0.2000008-0.6000061-0.3999996-1.2000122-0.7000008c-0.6000061-0.2999992-1.1000061-0.6000004-1.3999939-0.8999996
		s-0.3999939-0.7000008-0.3999939-1.2000008c0-0.6000004,0.2000122-1.1000004,0.6000061-1.3999996s1-0.5,1.7000122-0.5
		s1.3999939,0.1000004,2,0.3999996l-0.3999939,0.8999996C341.1000061,25.6999969,340.5,25.5999966,340,25.5999966
		c-0.3999939,0-0.7000122,0.1000004-0.8999939,0.2000008c-0.2000122,0.2000008-0.2999878,0.3999996-0.2999878,0.6000004
		s0,0.2999992,0.1000061,0.5c0.1000061,0.1000004,0.2000122,0.2999992,0.3999939,0.3999996c0.2000122,0.1000004,0.5,0.2999992,1,0.5
		s0.8999939,0.3999996,1.1000061,0.6000004s0.3999939,0.3999996,0.5,0.6000004S342.3999939,29.7999992,342.3999939,30.1000004z"/>
	<path class="st1" d="M343.7999878,32v-7.1000004H345V32H343.7999878z"/>
	<path class="st1" d="M349.7000122,28.2000008h2.6000061v3.6000004c-0.3999939,0.1000004-0.7999878,0.1999989-1.2000122,0.3000011
		c-0.3999939,0.0999985-0.7999878,0.0999985-1.2999878,0.0999985c-1.1000061,0-1.8999939-0.2999992-2.5-1
		c-0.6000061-0.6000004-0.8999939-1.5-0.8999939-2.7000008c0-1.1000004,0.2999878-2,1-2.7000008
		c0.7000122-0.6000004,1.6000061-1,2.7000122-1c0.7000122,0,1.3999939,0.1000004,2.1000061,0.3999996l-0.3999939,1
		c-0.6000061-0.2999992-1.2000122-0.3999996-1.7000122-0.3999996c-0.7999878,0-1.3999939,0.2000008-1.7999878,0.7000008
		s-0.7000122,1.1000004-0.7000122,2s0.2000122,1.5,0.6000061,2s1,0.7000008,1.7000122,0.7000008
		c0.3999939,0,0.7999878,0,1.2000122-0.1000004v-1.7999992h-1.5v-1.1000004H349.7000122z"/>
	<path class="st1" d="M359.8999939,32H358.5l-3.5-5.7000008l0,0v0.2999992c0,0.6000004,0.1000061,1.2000008,0.1000061,1.7000008V32
		H354v-7.1000004h1.3999939l3.5,5.6000004l0,0c0-0.1000004,0-0.2999992,0-0.7999992s0-0.7999992,0-1.1000004v-3.7000008H360V32
		H359.8999939z"/>
	<path class="st1" d="M369.8999939,24.8999996V29.5c0,0.5-0.1000061,1-0.2999878,1.3999996
		c-0.2000122,0.3999996-0.5,0.7000008-1,0.8999996c-0.3999939,0.2000008-0.8999939,0.2999992-1.5,0.2999992
		c-0.8999939,0-1.6000061-0.2000008-2.1000061-0.7000008s-0.7000122-1.1000004-0.7000122-1.8999996v-4.6000004H365.5v4.5
		c0,0.6000004,0.1000061,1,0.3999939,1.2999992s0.7000122,0.3999996,1.2999878,0.3999996
		c1.1000061,0,1.6000061-0.6000004,1.6000061-1.7000008v-4.5C368.7999878,24.8999958,369.8999939,24.8999958,369.8999939,24.8999996
		z"/>
	<path class="st1" d="M376.5,27c0,0.7000008-0.2000122,1.2999992-0.7000122,1.7000008
		c-0.5,0.3999996-1.2000122,0.6000004-2.1000061,0.6000004h-0.7000122V32h-1.2000122v-7.1000004h2
		c0.8999939,0,1.6000061,0.2000008,2,0.5C376.2000122,25.7999992,376.5,26.2999992,376.5,27z M372.8999939,28.3999996H373.5
		c0.6000061,0,1-0.1000004,1.2999878-0.2999992s0.3999939-0.5,0.3999939-1c0-0.3999996-0.1000061-0.7000008-0.3999939-0.8999996
		c-0.2000122-0.2000008-0.6000061-0.2999992-1.2000122-0.2999992h-0.7999878v2.4999981H372.8999939z"/>
</g>
<g id="Icons">
	<path class="st3" d="M405.3999939,24.5c0-0.2000008-0.2000122-0.3999996-0.3999939-0.3999996h-1
		c0-1-0.7999878-1.7000008-1.7999878-1.7000008S400.5,23.1000004,400.4000244,24.1000004h-1
		c-0.2000122,0-0.3999939,0.2000008-0.3999939,0.3999996l-0.2000122,6.2999992c0,0.2000008,0.1000061,0.3999996,0.2000122,0.6000004
		c0.1000061,0.1000004,0.2999878,0.2999992,0.6000061,0.2999992h5.2000122c0.2000122,0,0.3999939-0.1000004,0.6000061-0.2999992
		c0.1000061-0.1000004,0.2000122-0.3999996,0.2000122-0.6000004L405.3999939,24.5z M402.2999878,22.8999996
		C403,22.8999996,403.5,23.5,403.5999756,24.1000004H401C401,23.3999996,401.6000061,22.8999996,402.2999878,22.8999996z
		 M400.5,24.6000004v0.7999992c0,0.1000004,0.1000061,0.2000008,0.2000122,0.2000008s0.2000122-0.1000004,0.2000122-0.2000008
		v-0.7999992h2.6000061v0.7999992c0,0.1000004,0.1000061,0.2000008,0.2000122,0.2000008s0.2000122-0.1000004,0.2000122-0.2000008
		v-0.7999992h1l0.2999878,6.1999989c0,0.1000004,0,0.2000008-0.1000061,0.2999992s-0.1000061,0.1000004-0.2000122,0.1000004
		h-5.2000122c-0.1000061,0-0.2000122,0-0.2999878-0.1000004s-0.1000061-0.1000004-0.1000061-0.2999992l0.2999878-6.2000008
		C399.6000061,24.6000004,400.5,24.6000004,400.5,24.6000004z"/>
	<g>
		<circle class="st2" cx="406.2000122" cy="23.8999996" r="2"/>
		<text transform="matrix(1 0 0 1 405.4130859 24.8164978)" class="st1 st4 st5">2</text>
	</g>
	<path class="st3" d="M392.2000122,26.2000008c-0.1000061-1.2999992-1.2000122-2.3999996-2.6000061-2.3999996
		c-0.7999878,0-1.5,0.2999992-2,0.8999996c-0.5-0.6000004-1.2999878-0.8999996-2-0.8999996
		c-1.2999878,0-2.5,1.1000004-2.6000061,2.3999996c0,0.1000004,0,0.2000008,0,0.2999992c0,0.5,0.2000122,1,0.6000061,1.2999992
		l3.7000122,4C387.4000244,31.8999996,387.6000061,32,387.7000122,32S388,31.8999996,388.1000061,31.7999992l3.6000061-4
		c0.2999878-0.3999996,0.3999939-0.7000008,0.5-1.2000008C392.2999878,26.3999996,392.2000122,26.2999992,392.2000122,26.2000008z
		 M387.5,31.5l-3.6000061-4C383.6000061,27.2000008,383.5,26.7999992,383.5,26.5c0-0.1000004,0-0.2000008,0-0.2999992
		c0.1000061-1.1000004,1-1.8999996,2.1000061-2c0,0,0,0,0.1000061,0c0.7000122,0,1.3999939,0.2999992,1.7999878,0.8999996
		c0,0.1000004,0.1000061,0.1000004,0.2000122,0.1000004s0.2000122,0,0.2000122-0.1000004
		c0.3999939-0.6000004,1.1000061-0.8999996,1.7999878-0.8999996c1.1000061,0,2,0.8999996,2.1000061,2
		c0,0.1000004,0,0.2000008,0,0.2999992l0,0c0,0.3999996-0.2000122,0.7000008-0.3999939,1L387.5,31.5
		C387.6000061,31.6000004,387.6000061,31.6000004,387.5,31.5z"/>
	<g>
		<circle class="st2" cx="392.5" cy="23.8999996" r="2"/>
		<g>
			<text transform="matrix(1 0 0 1 391.7207031 24.8164978)" class="st1 st4 st5">7</text>
		</g>
	</g>
</g>
<g id="Search">
	<g>
		<path class="st1" d="M126,20v14H23.1000004V20H126 M127,19H22.1000004v16H127V19L127,19z"/>
	</g>
	<g class="st0">
		<path class="st2" d="M29.7000008,28.2000008h-0.6000004v-3.1000004h-1v-0.5h2.7000008v0.5h-1v3.1000004H29.7000008z"/>
		<path class="st2" d="M30.8999996,25.5H31.5L32,27c0.0999985,0.2000008,0.0999985,0.3999996,0.2000008,0.6000004l0,0
			c0-0.1000004,0-0.2000008,0.0999985-0.2999992S32.5,26.6000004,32.8999977,25.5000019h0.5999985l-1.2000008,3.1000004
			c-0.2000008,0.6000004-0.6000004,0.7999992-1,0.7999992c-0.1000004,0-0.2999992,0-0.3999996,0V29
			c0.1000004,0,0.2000008,0,0.2999992,0c0.2999992,0,0.5-0.2000008,0.6000004-0.5l0.1000004-0.2999992L30.8999996,25.5z"/>
		<path class="st2" d="M35.2999992,28.2999992C35,28.2999992,34.7000008,28.1999989,34.5,27.8999996l0,0
			c0,0.2000008,0,0.3999996,0,0.3999996v1.1000004h-0.5999985V25.5h0.5c0,0.1000004,0,0.2000008,0.0999985,0.3999996l0,0
			C34.7000008,25.6000004,34.9000015,25.5,35.2999992,25.5c0.2999992,0,0.5999985,0.1000004,0.7999992,0.3999996
			c0.2000008,0.2000008,0.2999992,0.6000004,0.2999992,1s-0.0999985,0.7999992-0.2999992,1
			C35.9000015,28.2000008,35.7000008,28.2999992,35.2999992,28.2999992z M35.2000008,26
			c-0.2000008,0-0.4000015,0.1000004-0.5,0.2000008S34.5,26.5,34.5,26.8000011v0.1000004
			c0,0.2999992,0.0999985,0.6000004,0.2000008,0.7000008s0.2999992,0.2000008,0.5,0.2000008s0.4000015-0.1000004,0.5-0.2000008
			s0.2000008-0.3999996,0.2000008-0.7000008c0-0.2999992-0.0999985-0.5-0.2000008-0.7000008C35.5,26,35.4000015,26,35.2000008,26z"
			/>
		<path class="st2" d="M38.2000008,28.2999992c-0.4000015,0-0.7000008-0.1000004-1-0.3999996
			c-0.2000008-0.2000008-0.4000015-0.6000004-0.4000015-1s0.0999985-0.7999992,0.2999992-1
			C37.2999992,25.6000004,37.5999985,25.5,38,25.5s0.5999985,0.1000004,0.7999992,0.2999992
			C39,26,39.0999985,26.2999992,39.0999985,26.6999989V27h-1.7999992c0,0.2999992,0.0999985,0.5,0.2000008,0.6000004
			s0.2999992,0.2000008,0.5999985,0.2000008c0.2000008,0,0.2999992,0,0.4000015,0
			c0.0999985,0,0.2999992-0.1000004,0.4000015-0.2000008v0.5C38.8000031,28.2000008,38.6000023,28.2000008,38.5,28.2000008
			C38.5999985,28.2999992,38.4000015,28.2999992,38.2000008,28.2999992z M38.0999985,25.8999996
			c-0.2000008,0-0.2999992,0.1000004-0.4000015,0.2000008c-0.0999985,0.1000004-0.2000008,0.2999992-0.2000008,0.5h1.2000008
			c0-0.2000008-0.0999985-0.3999996-0.2000008-0.5C38.5,26,38.2999992,25.8999996,38.0999985,25.8999996z"/>
		<path class="st2" d="M43.5999985,28.2000008H43V26.5c0-0.2000008,0-0.3999996-0.0999985-0.5C42.8000031,26,42.7000008,26,42.5,26
			s-0.4000015,0.1000004-0.5,0.2000008s-0.2000008,0.3999996-0.2000008,0.7000008v1.2999992h-0.5999985v-3.7999992h0.5999985v1
			c0,0.2000008,0,0.2999992,0,0.5l0,0C41.8999977,25.8000011,42,25.7000008,42.0999985,25.6000023
			c0.0999985-0.1000004,0.2999992-0.1000004,0.5-0.1000004c0.7000008,0,1,0.2999992,1,1V28.2000008z"/>
		<path class="st2" d="M45.5999985,28.2999992c-0.4000015,0-0.7000008-0.1000004-1-0.3999996
			c-0.2000008-0.2000008-0.4000015-0.6000004-0.4000015-1s0.0999985-0.7999992,0.2999992-1
			c0.2000008-0.2999992,0.5-0.3999996,0.9000015-0.3999996s0.5999985,0.1000004,0.7999992,0.2999992
			c0.2000008,0.2000008,0.2999992,0.5,0.2999992,0.8999996V27h-1.7999992c0,0.2999992,0.0999985,0.5,0.2000008,0.6000004
			s0.2999992,0.2000008,0.5999985,0.2000008c0.2000008,0,0.2999992,0,0.4000015,0
			c0.0999985,0,0.2999992-0.1000004,0.4000015-0.2000008v0.5C46.2000008,28.2000008,46,28.2000008,45.8999977,28.2000008
			C45.9000015,28.2999992,45.7999992,28.2999992,45.5999985,28.2999992z M45.5,25.8999996
			c-0.2000008,0-0.2999992,0.1000004-0.4000015,0.2000008c-0.0999985,0.1000004-0.2000008,0.2999992-0.2000008,0.5h1.2000008
			c0-0.2000008-0.0999985-0.3999996-0.2000008-0.5C45.7999992,26,45.7000008,25.8999996,45.5,25.8999996z"/>
		<path class="st2" d="M48.7000008,25.5c0.0999985,0,0.2000008,0,0.2999992,0L48.9000015,26c-0.0999985,0-0.2000008,0-0.2999992,0
			c-0.2000008,0-0.4000015,0.1000004-0.5999985,0.2000008C47.9000053,26.3000011,47.8000031,26.5,47.8000031,26.8000011v1.3999996
			h-0.5999985V25.5h0.4000015l0.0999985,0.5l0,0c0.0999985-0.2000008,0.2000008-0.2999992,0.4000015-0.3999996
			C48.2999992,25.5,48.5,25.5,48.7000008,25.5z"/>
		<path class="st2" d="M50.5999985,28.2999992c-0.4000015,0-0.7000008-0.1000004-1-0.3999996
			c-0.2000008-0.2000008-0.4000015-0.6000004-0.4000015-1s0.0999985-0.7999992,0.2999992-1
			c0.2000008-0.2999992,0.5-0.3999996,0.9000015-0.3999996s0.5999985,0.1000004,0.7999992,0.2999992
			c0.2000008,0.2000008,0.2999992,0.5,0.2999992,0.8999996V27h-1.7999992c0,0.2999992,0.0999985,0.5,0.2000008,0.6000004
			s0.2999992,0.2000008,0.5999985,0.2000008c0.2000008,0,0.2999992,0,0.4000015,0
			c0.0999985,0,0.2999992-0.1000004,0.4000015-0.2000008v0.5C51.2000008,28.2000008,51,28.2000008,50.8999977,28.2000008
			C51,28.2999992,50.7999992,28.2999992,50.5999985,28.2999992z M50.5,25.8999996
			c-0.2000008,0-0.2999992,0.1000004-0.4000015,0.2000008c-0.0999985,0.1000004-0.2000008,0.2999992-0.2000008,0.5h1.2000008
			c0-0.2000008-0.0999985-0.3999996-0.2000008-0.5C50.9000015,26,50.7000008,25.8999996,50.5,25.8999996z"/>
		<path class="st2" d="M52.2999992,27.8999996c0-0.1000004,0-0.2000008,0.0999985-0.2999992
			C52.4999962,27.5,52.5999985,27.5,52.6999969,27.5s0.2000008,0,0.2999992,0.1000004s0.0999985,0.2000008,0.0999985,0.2999992
			c0,0.1000004,0,0.2000008-0.0999985,0.2999992c-0.0999985,0.1000004-0.2000008,0.1000004-0.2999992,0.1000004
			s-0.2000008,0-0.2999992-0.1000004S52.2999992,28.1000004,52.2999992,27.8999996z"/>
		<path class="st2" d="M53.5999985,27.8999996c0-0.1000004,0-0.2000008,0.0999985-0.2999992
			C53.7999954,27.5,53.8999977,27.5,53.9999962,27.5s0.2000008,0,0.2999992,0.1000004s0.0999985,0.2000008,0.0999985,0.2999992
			c0,0.1000004,0,0.2000008-0.0999985,0.2999992s-0.2000008,0.1000004-0.2999992,0.1000004s-0.2000008,0-0.2999992-0.1000004
			C53.7000008,28.2000008,53.5999985,28.1000004,53.5999985,27.8999996z"/>
		<path class="st2" d="M55,27.8999996c0-0.1000004,0-0.2000008,0.0999985-0.2999992
			C55.1999969,27.5,55.2999992,27.5,55.3999977,27.5s0.2000008,0,0.2999992,0.1000004s0.0999985,0.2000008,0.0999985,0.2999992
			c0,0.1000004,0,0.2000008-0.0999985,0.2999992s-0.2000008,0.1000004-0.2999992,0.1000004s-0.2000008,0-0.2999992-0.1000004
			C55,28.2000008,55,28.1000004,55,27.8999996z"/>
	</g>
	<path class="st6" d="M121.4000015,30.2000008l-1.8000031-1.7999992c0.5-0.5,0.6999969-1.2000008,0.6999969-1.8999996
		c0-1.6000004-1.3000031-2.8999996-2.9000015-2.8999996s-2.9000015,1.2999992-2.9000015,2.8999996
		s1.3000031,2.8999996,2.9000015,2.8999996c0.6999969,0,1.4000015-0.2999992,1.9000015-0.7000008L121.0999985,30.5
		l0.0999985,0.1000004c0,0,0.0999985,0,0.0999985-0.1000004l0.0999985-0.1000004
		C121.5,30.2000008,121.4000015,30.2000008,121.4000015,30.2000008z M119.9000015,26.3999996c0,1.3999996-1.0999985,2.5-2.5,2.5
		s-2.5-1.1000004-2.5-2.5s1.0999985-2.5,2.5-2.5S119.9000015,25,119.9000015,26.3999996z"/>
</g>
<rect x="143.3000031" y="68" class="st1" width="26.1000061" height="2"/>
</svg>
