<?xml version="1.0" encoding="utf-8"?>
<!-- Generator: Adobe Illustrator 21.0.0, SVG Export Plug-In . SVG Version: 6.00 Build 0)  -->
<svg version="1.1" id="Layer_1" xmlns="http://www.w3.org/2000/svg" width="430" height="80" xmlns:xlink="http://www.w3.org/1999/xlink" x="0px" y="0px"
	 viewBox="0 0 430 70" style="enable-background:new 0 0 430 70;" xml:space="preserve">
<style type="text/css">
	.st0{enable-background:new    ;}
	.st1{fill:#222222;}
	.st2{fill:#222222;stroke:#222222;stroke-width:0.5616;stroke-miterlimit:10;}
	.st3{fill:#222222;stroke:#222222;stroke-width:0.5534;stroke-miterlimit:10;}
</style>
<g class="st0">
	<path class="st1" d="M188.5,42.2000008V27.8999996h2.3000031v12.3000011h6v2H188.5z"/>
	<path class="st1" d="M212,35c0,2.2999992-0.6000061,4.0999985-1.6999969,5.4000015S207.5,42.3000031,205.4000092,42.3000031
		c-2.1999969,0-3.8000031-0.5999985-5-1.9000015s-1.6999969-3.0999985-1.6999969-5.5s0.6000061-4.2000008,1.6999969-5.3999996
		s2.8000031-1.8999996,5-1.8999996c2.1000061,0,3.8000031,0.6000004,4.8999939,1.8999996S212,32.7000008,212,35z M201.1000061,35
		c0,1.7999992,0.3999939,3.0999985,1.1000061,4s1.8000031,1.4000015,3.1999969,1.4000015S207.8000031,40,208.5000153,39.1000023
		s1.1000061-2.2000008,1.1000061-4s-0.3999939-3.0999985-1-4s-1.6999969-1.3999996-3.1000061-1.3999996
		c-1.3999939,0-2.5,0.5-3.1999969,1.3999996C201.6000061,32,201.1000061,33.2000008,201.1000061,35z"/>
	<path class="st1" d="M220.8999939,34.4000015h5.3000031v7.2000008c-0.8999939,0.2999992-1.6999969,0.5-2.5,0.5999985
		s-1.6000061,0.2000008-2.6000061,0.2000008c-2.1999969,0-3.8000031-0.5999985-5-1.9000015
		s-1.8000031-3.0999985-1.8000031-5.4000015c0-2.2999992,0.6999969-4.1000004,2-5.3999996s3.1000061-1.8999996,5.5-1.8999996
		c1.5,0,2.8999939,0.2999992,4.1999969,0.8999996l-0.8000031,1.8999996c-1.1999969-0.5-2.3000031-0.7999992-3.5-0.7999992
		c-1.5,0-2.6999969,0.5-3.6000061,1.3999996c-0.8999939,0.9999981-1.3000031,2.3000011-1.3000031,3.8999996
		c0,1.7000008,0.3999939,3.0999985,1.1999969,4S219.8999634,40.5,221.3999634,40.5
		c0.8000031,0,1.6000061-0.0999985,2.3999939-0.2999992V36.5h-3v-2.0999985H220.8999939z"/>
	<path class="st1" d="M242.1999969,35c0,2.2999992-0.6000061,4.0999985-1.6999969,5.4000015
		s-2.8000031,1.9000015-4.8999939,1.9000015c-2.1999969,0-3.8000031-0.5999985-5-1.9000015
		c-1.1999969-1.2999992-1.6999969-3.0999985-1.6999969-5.5s0.6000061-4.2000008,1.6999969-5.3999996
		s2.8000031-1.8999996,5-1.8999996c2.1000061,0,3.8000031,0.6000004,4.8999939,1.8999996
		C241.6999969,30.8999996,242.1999969,32.7000008,242.1999969,35z M231.3000031,35c0,1.7999992,0.3999939,3.0999985,1.1000061,4
		c0.6999969,0.9000015,1.8000031,1.4000015,3.1999969,1.4000015S238,40,238.7000122,39.1000023
		c0.6999969-0.9000015,1.1000061-2.2000008,1.1000061-4s-0.3000031-3.0999985-1-4
		c-0.6999969-0.8999996-1.6999969-1.3999996-3.1000061-1.3999996c-1.3999939,0-2.5,0.5-3.1999969,1.3999996
		C231.8000031,32,231.3000031,33.2000008,231.3000031,35z"/>
</g>
<g>
	<path class="st2" d="M22.7999992,28.7999992h22.5C45.7000008,28.7999992,46,28.5,46,28.0999985
		s-0.2999992-0.7000008-0.7000008-0.7000008h-22.5c-0.3999996,0-0.7000008,0.2999992-0.7000008,0.7000008
		S22.3999996,28.7999992,22.7999992,28.7999992z"/>
	<path class="st2" d="M45.4000015,34.2999992H22.7999992c-0.3999996,0-0.7000008,0.2999992-0.7000008,0.7000008
		s0.2999992,0.7000008,0.7000008,0.7000008h22.5C45.7000008,35.7000008,46,35.4000015,46,35
		S45.7999992,34.2999992,45.4000015,34.2999992z"/>
	<path class="st2" d="M45.4000015,41.2000008H22.7999992c-0.3999996,0-0.7000008,0.2999992-0.7000008,0.7000008
		s0.2999992,0.7000008,0.7000008,0.7000008h22.5C45.7000008,42.6000023,46,42.3000031,46,41.9000015
		C46.0999985,41.5,45.7999992,41.2000008,45.4000015,41.2000008z"/>
</g>
<g>
	<path class="st3" d="M409.1000061,32.5999985c0.2000122-0.2999992-0.1000061-0.6000004-0.2999878-0.8999996
		c-0.2000122-0.2000008-0.6000061-0.3999996-0.8999939-0.3999996h-3.6000061l-4.6000061-6.2000008
		c-0.1000061-0.2000008-0.2000122-0.2000008-0.3999939-0.2000008s-0.2999878,0.1000004-0.3999939,0.2000008l-4.6000061,6.2000008
		h-3.7000122c-0.7000122,0-1.2999878,0.6000004-1.2999878,1.2999992v1.5999985c0,0.7000008,0.6000061,1.2999992,1.2999878,1.2999992
		H391l1.2999878,7.7000008c0.2000122,1,1,1.7000008,2.1000061,1.7000008h10c1,0,1.8999939-0.7000008,2.1000061-1.7000008
		l1.2999878-7.7000008h0.3999939c0.7000122,0,1-0.9000015,1.2999878-1.2999992L409.1000061,32.5999985L409.1000061,32.5999985z
		 M390.2000122,32.5999985c0-0.2000008,0.2000122-0.2999992,0.2999878-0.2999992h3L393.2999878,32.5h-0.1000061
		c-0.5,0-0.8999939,0.4000015-0.8999939,0.9000015s0.3999939,0.9000015,0.8999939,0.9000015
		s0.8999939-0.4000015,0.8999939-0.9000015c0-0.0999985,0-0.2000008-0.1000061-0.2999992l0.6000061-0.7999992h9l0.6000061,0.7999992
		c-0.1000061,0.0999985-0.1000061,0.2000008-0.1000061,0.2999992c0,0.5,0.3999939,0.9000015,0.8999939,0.9000015
		s0.8999939-0.4000015,0.8999939-0.9000015S405.4999695,32.5,404.9999695,32.5h-0.1000061l-0.2000122-0.2000008h3
		c0.2000122,0,0.2999878,0.2000008,0.2999878,0.2999992v1.5999985c0,0.2000008-0.2000122,0.2999992-0.2999878,0.2999992h-17.3999939
		c-0.2000122,0-0.2999878-0.2000008-0.2999878-0.2999992L390.2000122,32.5999985L390.2000122,32.5999985z M395.5,31.3999996
		l3.7999878-5.1000004l3.7999878,5.1000004H395.5z M391.8999939,35.5h14.7000122l-1.2999878,7.5999985
		C405.2000122,43.6999969,404.7000122,44,404.2000122,44h-10c-0.6000061,0-1-0.4000015-1.1000061-0.9000015L391.8999939,35.5z
		 M399.2000122,25.2999992L399.2000122,25.2999992L399.2000122,25.2999992L399.2000122,25.2999992z"/>
	<path class="st3" d="M402.3999939,43.4000015c0.2000122,0,0.5-0.2000008,0.5-0.5v-6.2999992c0-0.2000008-0.2000122-0.5-0.5-0.5
		c-0.2000122,0-0.5,0.2000008-0.5,0.5v6.2999992C401.8999939,43.2000008,402.2000122,43.4000015,402.3999939,43.4000015z"/>
	<path class="st3" d="M396.1000061,43.4000015c0.2000122,0,0.5-0.2000008,0.5-0.5v-6.2999992c0-0.2000008-0.2000122-0.5-0.5-0.5
		c-0.2000122,0-0.5,0.2000008-0.5,0.5v6.2999992C395.6000061,43.2000008,395.7999878,43.4000015,396.1000061,43.4000015z"/>
	<path class="st3" d="M399.2000122,43.4000015c0.2000122,0,0.5-0.2000008,0.5-0.5v-6.2999992c0-0.2000008-0.2000122-0.5-0.5-0.5
		c-0.2000122,0-0.5,0.2000008-0.5,0.5v6.2999992C398.7999878,43.2000008,399,43.4000015,399.2000122,43.4000015z"/>
</g>
</svg>
