<?xml version="1.0" encoding="utf-8"?>
<!-- Generator: Adobe Illustrator 21.0.0, SVG Export Plug-In . SVG Version: 6.00 Build 0)  -->
<svg version="1.1" id="Layer_1" xmlns="http://www.w3.org/2000/svg" width="430" height="80" xmlns:xlink="http://www.w3.org/1999/xlink" x="0px" y="0px"
	 viewBox="0 0 430 70" style="enable-background:new 0 0 430 70;" xml:space="preserve">
<style type="text/css">
	.st0{fill:#222222;}
	.st1{display:none;fill:#FFFFFF;}
	.st2{opacity:0.7;fill:#FFFFFF;enable-background:new    ;}
	.st3{font-family:'OpenSans-Semibold';}
	.st4{font-size:5px;}
	.st5{fill:#FFFFFF;}
	.st6{fill:#222222;stroke:#222222;stroke-width:0.479;stroke-linecap:round;stroke-miterlimit:10;}
	.st7{enable-background:new    ;}
	.st8{fill:#595959;}
	.st9{fill:#E1E1E1;}
	.st10{fill:#222222;stroke:#222222;stroke-width:0.4792;stroke-miterlimit:10;}
	.st11{fill:#222222;stroke:#222222;stroke-width:0.4;stroke-miterlimit:10;}
</style>
<g id="Bottom">
	<rect y="48.4000015" class="st0" width="430" height="21.5999985"/>
	<g id="Search">
		<circle class="st1" cx="386.8999939" cy="59.2000008" r="7.999999"/>
		<text transform="matrix(1 0 0 1 282.5155945 60.6867981)" class="st2 st3 st4">Type here...</text>
		<g>
			<path class="st5" d="M405,52.0999985v14.3000031H276.3999939V52.0999985H405 M405.7999878,51.2000008H275.5v15.9999962
				h130.2999878V51.2000008L405.7999878,51.2000008z"/>
		</g>
		<g>
			<rect x="387.5" y="51.2000008" class="st5" width="18.2999878" height="15.9999962"/>
		</g>
		<path class="st6" d="M400.5,62.2999992l-1.7000122-1.7000008c0.3999939-0.5,0.7000122-1.2000008,0.7000122-1.9000015
			c0-1.5999985-1.2999878-2.7999992-2.7999878-2.7999992c-1.6000061,0-2.7999878,1.2999992-2.7999878,2.7999992
			c0,1.5999985,1.2999878,2.7999992,2.7999878,2.7999992c0.7000122,0,1.2999878-0.2000008,1.8999939-0.7000008l1.7000122,1.7000008
			l0.1000061,0.0999985c0,0,0,0,0.1000061-0.0999985l0.1000061-0.0999985C400.5,62.2999992,400.5,62.2999992,400.5,62.2999992z
			 M399.1000061,58.7000008c0,1.2999992-1.1000061,2.4000015-2.5,2.4000015c-1.2999878,0-2.3999939-1.0999985-2.3999939-2.5
			c0-1.2999992,1.1000061-2.4000015,2.5-2.4000015C398,56.2000008,399.1000061,57.2999992,399.1000061,58.7000008z"/>
	</g>
	<g id="Menu" class="st7">
		<path class="st5" d="M28,62.7999992h-1.2000008v-3.2000008H23.5v3.2000008h-1.2000008v-7.0999985H23.5v2.9000015h3.2999992
			v-2.9000015H28V62.7999992z"/>
		<path class="st5" d="M36.2000008,59.2000008c0,1.2000008-0.2999992,2.0999985-0.9000015,2.7000008s-1.4000015,1-2.5,1
			s-1.8999996-0.2999992-2.5-1c-0.6000004-0.5999985-0.8999996-1.5-0.8999996-2.7000008S29.6999989,57.1000023,30.2999992,56.5
			s1.3999996-0.9000015,2.5-0.9000015c1.0999985,0,1.9000015,0.2999992,2.5,1S36.2000008,58,36.2000008,59.2000008z
			 M30.7000008,59.2000008c0,0.9000015,0.2000008,1.5,0.5,2c0.3999996,0.5,0.9000015,0.7000008,1.5999985,0.7000008
			S34,61.7000008,34.3999977,61.2000008s0.5-1.0999985,0.5-2s-0.2000008-1.5-0.5-2S33.4999962,56.5,32.7999992,56.5
			s-1.2000008,0.2000008-1.6000004,0.7000008S30.7000008,58.2999992,30.7000008,59.2000008z"/>
		<path class="st5" d="M40.7999992,62.7999992l-2.0999985-6l0,0c0.0999985,0.9000015,0.0999985,1.7000008,0.0999985,2.5v3.5
			h-1.0999985v-7.0999985h1.5999985l2,5.7000008l0,0l2-5.7000008H45v7.0999985h-1.0999985v-3.5c0-0.4000015,0-0.7999992,0-1.4000015
			s0-0.9000015,0-1l0,0l-2.0999985,6L40.7999992,62.7999992L40.7999992,62.7999992z"/>
		<path class="st5" d="M51,62.7999992h-4v-7.0999985h4v1h-2.9000015v1.9000015h2.7000008v1h-2.7000008v2.2000008H51V62.7999992z"/>
		<path class="st8" d="M69.5999985,60.7999992c0,0.5999985-0.1999969,1.0999985-0.6999969,1.5s-1.0999985,0.5-1.9000015,0.5
			s-1.5-0.0999985-2-0.4000015v-1.0999985c0.3000031,0.2000008,0.6999969,0.2999992,1,0.4000015s0.6999969,0.0999985,1,0.0999985
			c0.5,0,0.8000031-0.0999985,1-0.2999992s0.3000031-0.4000015,0.3000031-0.7000008s-0.0999985-0.5-0.3000031-0.7000008
			s-0.5999985-0.4000015-1.1999969-0.7000008c-0.6999969-0.2999992-1.0999985-0.5999985-1.4000015-0.9000015
			S65,57.7999992,65,57.2999992c0-0.5999985,0.1999969-1.0999985,0.5999985-1.4000015s1-0.5,1.6999969-0.5
			s1.4000015,0.0999985,2,0.4000015l-0.4000015,1C68.2999954,56.5,67.6999969,56.3999977,67.1999969,56.3999977
			c-0.4000015,0-0.6999969,0.0999985-0.9000015,0.2000008C66.0999985,56.7999992,66,57,66,57.2999992
			c0,0.2000008,0,0.2999992,0.0999985,0.5c0.0999985,0.0999985,0.1999969,0.2999992,0.4000015,0.4000015s0.5,0.2999992,1,0.5
			s0.9000015,0.4000015,1.1999969,0.5999985s0.4000015,0.4000015,0.5,0.5999985S69.5999985,60.5,69.5999985,60.7999992z"/>
		<path class="st8" d="M76.5999985,62.7999992h-1.1999969v-3.2000008h-3.3000031v3.2000008H71v-7.0999985h1.1999969v2.9000015H75.5
			v-2.9000015h1.1999969L76.5999985,62.7999992L76.5999985,62.7999992z"/>
		<path class="st8" d="M84.8000031,59.2000008c0,1.2000008-0.3000031,2.0999985-0.9000015,2.7000008s-1.4000015,1-2.5,1
			s-1.9000015-0.2999992-2.5-1C78.3000031,61.3000031,78,60.4000015,78,59.2000008S78.3000031,57.1000023,78.9000015,56.5
			s1.4000015-0.9000015,2.5-0.9000015s1.9000015,0.2999992,2.5,1S84.8000031,58,84.8000031,59.2000008z M79.4000015,59.2000008
			c0,0.9000015,0.1999969,1.5,0.5,2c0.4000015,0.5,0.9000015,0.7000008,1.5999985,0.7000008
			s1.1999969-0.2000008,1.5999985-0.7000008s0.5-1.0999985,0.5-2s-0.1999969-1.5-0.5-2S82.1999969,56.5,81.5,56.5
			s-1.1999969,0.2000008-1.5999985,0.7000008S79.4000015,58.2999992,79.4000015,59.2000008z"/>
		<path class="st8" d="M91.0999985,57.7999992c0,0.7000008-0.1999969,1.2999992-0.6999969,1.7000008
			s-1.1999969,0.5999985-2.0999985,0.5999985h-0.6999969v2.7000008h-1.1999969v-7.0999985h2.0999985
			c0.9000015,0,1.5999985,0.2000008,2,0.5S91.0999985,57.0999985,91.0999985,57.7999992z M87.5,59.0999985h0.5999985
			c0.5999985,0,1-0.0999985,1.3000031-0.2999992s0.4000015-0.5,0.4000015-1c0-0.4000015-0.0999985-0.7000008-0.4000015-0.9000015
			s-0.5999985-0.2999992-1.1999969-0.2999992h-0.8000031L87.5,59.0999985L87.5,59.0999985z"/>
		<path class="st5" d="M108.4000015,58.9000015H111V62.5c-0.4000015,0.0999985-0.8000031,0.2000008-1.1999969,0.2999992
			S109,62.8999977,108.5,62.8999977c-1.0999985,0-1.9000015-0.2999992-2.5-1
			c-0.5999985-0.5999985-0.9000015-1.5-0.9000015-2.7000008c0-1.0999985,0.3000031-2,1-2.7000008
			c0.6999969-0.5999985,1.5999985-1,2.6999969-1c0.6999969,0,1.5,0.0999985,2.0999985,0.4000015l-0.4000015,1
			c-0.5999985-0.2999992-1.1999969-0.4000015-1.6999969-0.4000015c-0.8000031,0-1.4000015,0.2000008-1.8000031,0.7000008
			s-0.6999969,1.0999985-0.6999969,2s0.1999969,1.5,0.5999985,2s1,0.7000008,1.6999969,0.7000008
			c0.4000015,0,0.8000031,0,1.1999969-0.0999985V60h-1.5L108.4000015,58.9000015L108.4000015,58.9000015z"/>
		<path class="st5" d="M117.1999969,62.7999992l-0.6999969-2h-2.6999969l-0.6999969,2h-1.1999969l2.6999969-7.2000008h1.3000031
			l2.6999969,7.2000008H117.1999969z M116.1999969,59.7999992L115.5,57.8999977
			c0-0.0999985-0.0999985-0.2999992-0.1999969-0.5999985s-0.0999985-0.5-0.1999969-0.5999985
			C115.0000076,57.1000023,114.9000092,57.5,114.7000046,58l-0.5999985,1.9000015h2.0999985L116.1999969,59.7999992
			L116.1999969,59.7999992z"/>
		<path class="st5" d="M119.4000015,62.7999992v-7.0999985h1.1999969v6.0999985h3v1H119.4000015z"/>
		<path class="st5" d="M124.8000031,62.7999992v-7.0999985H126v6.0999985h3v1H124.8000031z"/>
		<path class="st5" d="M134.3000031,62.7999992h-4v-7.0999985h4v1h-2.8999939v1.9000015h2.6999969v1h-2.6999969v2.2000008h2.8999939
			V62.7999992z"/>
		<path class="st5" d="M137,59.9000015v2.9000015h-1.1999969v-7.0999985h2c0.8999939,0,1.6000061,0.2000008,2,0.5
			S140.5,57.1000061,140.5,57.8000031c0,0.9000015-0.5,1.5-1.3999939,1.9000015l2,3.2000008h-1.3000031l-1.6999969-2.9000015H137
			V59.9000015z M137,58.9000015h0.8000031c0.5,0,0.8999939-0.0999985,1.1999969-0.2999992s0.3999939-0.5,0.3999939-0.9000015
			S139.2999878,57,139,56.7999992S138.3000031,56.5,137.8000031,56.5H137V58.9000015z"/>
		<path class="st5" d="M144.1999969,58.9000015l1.6999969-3.2999992h1.3000031l-2.3999939,4.4000015v2.7999992h-1.1999969V60
			l-2.3999939-4.4000015h1.3000031L144.1999969,58.9000015z"/>
		<path class="st5" d="M161.1000061,55.5999985h2.1000061c1,0,1.6999969,0.0999985,2.1000061,0.4000015
			s0.6999969,0.7000008,0.6999969,1.4000015c0,0.4000015-0.1000061,0.7999992-0.3000031,1s-0.5,0.5-0.8999939,0.5l0,0
			c0.5,0.0999985,0.8999939,0.2999992,1.1000061,0.5999985c0.1999969,0.2999992,0.3999939,0.7000008,0.3999939,1.0999985
			c0,0.5999985-0.1999969,1.0999985-0.6999969,1.5c-0.3999939,0.4000015-1.1000061,0.5-1.8999939,0.5h-2.6000061
			L161.1000061,55.5999985L161.1000061,55.5999985z M162.3000031,58.5999985h1.1000061
			c0.5,0,0.8000031-0.0999985,1.1000061-0.2000008c0.1999969-0.2000008,0.3000031-0.4000015,0.3000031-0.7999992
			c0-0.2999992-0.1000061-0.5999985-0.3999939-0.7000008s-0.6000061-0.2000008-1.1999969-0.2000008h-1L162.3000031,58.5999985
			L162.3000031,58.5999985z M162.3000031,59.5v2.2999992H163.5c0.5,0,0.8999939-0.0999985,1.1000061-0.2999992
			C164.8000031,61.2999992,165,61,165,60.5999985S164.8999939,60,164.6000061,59.7999992S164,59.5,163.4000092,59.5H162.3000031z"/>
		<path class="st5" d="M167.6999969,62.7999992v-7.0999985h1.1999969v6.0999985h3v1H167.6999969z"/>
		<path class="st5" d="M179.5,59.2000008c0,1.2000008-0.3000031,2.0999985-0.8999939,2.7000008
			c-0.6000061,0.5999985-1.3999939,1-2.5,1s-1.8999939-0.2999992-2.5-1c-0.6000061-0.5999985-0.8999939-1.5-0.8999939-2.7000008
			s0.3000031-2.0999985,0.8999939-2.7000008c0.6000061-0.5999985,1.3999939-0.9000015,2.5-0.9000015s1.8999939,0.2999992,2.5,1
			S179.5,58,179.5,59.2000008z M174,59.2000008c0,0.9000015,0.1999969,1.5,0.5,2
			c0.3999939,0.5,0.8999939,0.7000008,1.6000061,0.7000008c0.6999969,0,1.1999969-0.2000008,1.6000061-0.7000008
			c0.3999939-0.4000015,0.5-1.0999985,0.5-2s-0.1999969-1.5-0.5-2c-0.3999939-0.5-0.8999939-0.7000008-1.6000061-0.7000008
			c-0.6999969,0-1.1999969,0.2000008-1.6000061,0.7000008C174.1999969,57.5999985,174,58.2999992,174,59.2000008z"/>
		<path class="st5" d="M183.8999939,58.9000015H186.5V62.5c-0.3999939,0.0999985-0.8000031,0.2000008-1.1999969,0.2999992
			S184.5,62.8999977,184,62.8999977c-1.1000061,0-1.8999939-0.2999992-2.5-1
			c-0.6000061-0.5999985-0.8999939-1.5-0.8999939-2.7000008c0-1.0999985,0.3000031-2,1-2.7000008
			c0.6999969-0.5999985,1.6000061-1,2.6999969-1c0.6999969,0,1.5,0.0999985,2.1000061,0.4000015l-0.3999939,1
			c-0.6000061-0.2999992-1.1999969-0.4000015-1.6999969-0.4000015c-0.8000031,0-1.3999939,0.2000008-1.8000031,0.7000008
			s-0.6999969,1.0999985-0.6999969,2s0.1999969,1.5,0.6000061,2s1,0.7000008,1.6999969,0.7000008
			c0.3999939,0,0.8000031,0,1.1999969-0.0999985V60h-1.5L183.8999939,58.9000015L183.8999939,58.9000015z"/>
	</g>
</g>
<g id="Middle">
	<g>
		<path class="st0" d="M22.1000004,37.2000008V22.8999996h2.2999992v12.3000011h6v2H22.1000004z"/>
		<path class="st0" d="M45.5999985,30c0,2.2999992-0.5999985,4.0999985-1.7000008,5.4000015
			c-1.0999985,1.2999992-2.7999992,1.9000015-4.9000015,1.9000015c-2.2000008,0-3.7999992-0.5999985-5-1.9000015
			c-1.2000008-1.2999992-1.7000008-3.0999985-1.7000008-5.5s0.5999985-4.2000008,1.7000008-5.3999996
			c1.0999985-1.2000008,2.7999992-1.8999996,5-1.8999996c2.0999985,0,3.7999992,0.6000004,4.9000015,1.8999996
			C45,25.7999992,45.5999985,27.7000008,45.5999985,30z M34.7000008,30c0,1.7999992,0.4000015,3.0999985,1.0999985,4
			S37.5999985,35.4000015,39,35.4000015S41.4000015,35,42.0999985,34.1000023c0.7000008-0.9000015,1.0999985-2.2000008,1.0999985-4
			s-0.4000015-3.1000004-1-4s-1.7000008-1.3999996-3.0999985-1.3999996c-1.4000015,0-2.5,0.5-3.2000008,1.3999996
			C35.2000008,27,34.7000008,28.2000008,34.7000008,30z"/>
		<path class="st0" d="M54.5,29.3999996h5.2999992v7.1999989c-0.9000015,0.2999992-1.7000008,0.5-2.5,0.5999985
			s-1.5999985,0.2000008-2.5999985,0.2000008c-2.2000008,0-3.7999992-0.5999985-5-1.9000015
			C48.5,34.1999969,47.9000015,32.3999977,47.9000015,30.0999966s0.7000008-4.1000004,2-5.3999996
			s3.0999985-1.8999996,5.5-1.8999996c1.5,0,2.9000015,0.2999992,4.2000008,0.8999996l-0.7999992,1.8999996
			c-1.2000008-0.5-2.2999992-0.7999992-3.5-0.7999992c-1.5,0-2.7000008,0.5-3.5999985,1.3999996
			c-0.9000015,1-1.2999992,2.2999992-1.2999992,3.8999996c0,1.7000008,0.4000015,3.1000004,1.2000008,4.0000019
			S53.5000076,35.5,55.0000076,35.5c0.7999992,0,1.5999985-0.0999985,2.4000015-0.2999992V31.5h-3L54.5,29.3999996L54.5,29.3999996z
			"/>
		<path class="st0" d="M75.8000031,30c0,2.2999992-0.5999985,4.0999985-1.6999969,5.4000015
			c-1.0999985,1.2999992-2.8000031,1.9000015-4.9000015,1.9000015c-2.1999969,0-3.8000031-0.5999985-5-1.9000015
			s-1.7000008-3.0999985-1.7000008-5.5s0.5999985-4.2000008,1.7000008-5.3999996
			c1.0999985-1.2000008,2.8000031-1.8999996,5-1.8999996c2.0999985,0,3.8000031,0.6000004,4.9000015,1.8999996
			C75.3000031,25.8999996,75.8000031,27.7000008,75.8000031,30z M64.9000015,30c0,1.7999992,0.4000015,3.0999985,1.0999985,4
			s1.8000031,1.4000015,3.1999969,1.4000015S71.5999985,35,72.2999954,34.1000023s1.0999985-2.2000008,1.0999985-4
			s-0.3000031-3.1000004-1-4s-1.6999969-1.3999996-3.0999985-1.3999996s-2.5,0.5-3.1999969,1.3999996
			C65.4000015,27,64.9000015,28.2000008,64.9000015,30z"/>
	</g>
	<g>
		<rect x="146.1000061" y="22.8999996" class="st0" width="40" height="1.7999992"/>
		<rect x="131.1000061" y="28.6000004" class="st9" width="70" height="1.7999992"/>
		<rect x="131.1000061" y="32.4000015" class="st9" width="70" height="1.7999992"/>
		<rect x="141.1000061" y="36.0999985" class="st9" width="50" height="1.7999992"/>
	</g>
	<g>
		<rect x="245.8999939" y="22.8999996" class="st0" width="40" height="1.7999992"/>
		<rect x="230.8999939" y="28.6000004" class="st9" width="70" height="1.7999992"/>
		<rect x="230.8999939" y="32.4000015" class="st9" width="70" height="1.7999992"/>
		<rect x="240.8999939" y="36.0999985" class="st9" width="50" height="1.7999992"/>
	</g>
	<g id="Icons">
		<path class="st10" d="M404.7999878,25c0-0.2000008-0.2000122-0.5-0.5-0.5h-1.2000122c0-1.2000008-1-2-2.2000122-2
			s-2,0.7999992-2.2000122,2h-1.2000122c-0.2000122,0-0.5,0.2000008-0.5,0.5l-0.2000122,7.5
			c0,0.2000008,0.1000061,0.5,0.2000122,0.7000008c0.1000061,0.0999985,0.3999939,0.4000015,0.7000122,0.4000015h6.2000122
			c0.2000122,0,0.5-0.0999985,0.7000122-0.4000015c0.1000061-0.0999985,0.2000122-0.5,0.2000122-0.7000008V25z
			 M401.1000061,23.1000004c0.7999878,0,1.3999939,0.7000008,1.6000061,1.3999996h-3.1000061
			C399.6000061,23.7000008,400.2999878,23.1000004,401.1000061,23.1000004z M399,25.1000004v1
			c0,0.1000004,0.1000061,0.2000008,0.2000122,0.2000008s0.2000122-0.1000004,0.2000122-0.2000008v-1h3.1000061v1
			c0,0.1000004,0.1000061,0.2000008,0.2000122,0.2000008s0.2000122-0.1000004,0.2000122-0.2000008v-1h1.2000122L404.3000793,32.5
			c0,0.0999985,0,0.2000008-0.1000061,0.4000015S404.1000061,33,404,33h-5.7000122c-0.1000061,0-0.3999939,0-0.7000122,0
			c-0.1000061-0.0999985-0.2000122-0.2000008-0.2000122-0.5l0.1000061-7.3999996H399z"/>
		<g>
			<circle class="st9" cx="405.7999878" cy="24.2999992" r="2.3999968"/>
			<g class="st7">
				<path class="st0" d="M406.6000061,25.3999996H405V25l0.6000061-0.6000004
					c0.2000122-0.2000008,0.2999878-0.2999992,0.2999878-0.2999992C406,24,406,24,406,23.8999996v-0.1000004
					c0-0.1000004-0.1000061-0.2000008-0.1000061-0.2000008s-0.1000061,0-0.2000122,0s-0.1000061,0-0.2000122,0.1000004
					s-0.2000122,0.1000004-0.2000122,0.2000008L404.9999695,23.5c0.1000061-0.1000004,0.2999878-0.2000008,0.3999939-0.2000008
					s0.1000061,0,0.2000122-0.1000004c0.1000061,0,0.2000122,0,0.2999878,0c0.1000061,0,0.2999878,0,0.3999939,0.1000004
					s0.2000122,0.1000004,0.2999878,0.2000008c0.1000061,0.1000004,0.1000061,0.2000008,0.1000061,0.2999992
					c0,0.1000004,0,0.2000008,0,0.2000008l-0.1000061,0.2000008c0,0-0.1000061,0.1000004-0.2000122,0.2000008
					s-0.2000122,0.2000008-0.5,0.5l0,0h0.8999939v0.5C406.7999268,25.4000015,406.6000061,25.4000015,406.6000061,25.3999996z"/>
			</g>
		</g>
		<path class="st10" d="M389,27.1000004c-0.1000061-1.6000004-1.3999939-2.8999996-3.1000061-2.8999996
			c-1,0-1.7999878,0.3999996-2.3999939,1.1000004c-0.6000061-0.7000008-1.6000061-1.1000004-2.3999939-1.1000004
			c-1.6000061,0-3,1.2999992-3.1000061,2.8999996c0,0.1000004,0,0.2000008,0,0.3999996
			c0,0.6000004,0.2000122,1.2000008,0.7000122,1.6000004l4.3999939,4.8000011
			c0.1000061,0.0999985,0.3999939,0.2000008,0.5,0.2000008s0.3999939-0.0999985,0.5-0.2000008l4.2999878-4.7999992
			c0.3999939-0.5,0.5-1,0.6000061-1.6000004C389,27.2999992,389,27.2000008,389,27.1000004z M383.5,33.5l-4.3999939-4.8999996
			c-0.3999939-0.3999996-0.5-0.7999992-0.5-1.2000008c0-0.1000004,0-0.2000008,0-0.3999996
			c0.1000061-1.2999992,1.2000122-2.2999992,2.5-2.3999996c0,0,0,0,0.1000061,0
			c0.7999878,0,1.7000122,0.3999996,2.2000122,1.1000004c0,0.1000004,0.1000061,0.1000004,0.2000122,0.1000004
			s0.2000122,0,0.2000122-0.1000004c0.5-0.7000008,1.2999878-1.1000004,2.2000122-1.1000004
			c1.2999878,0,2.3999939,1.1000004,2.5,2.3999996c0,0.1000004,0,0.2000008,0,0.3999996l0,0
			c0,0.5-0.2000122,0.7999992-0.5,1.2000008L383.5,33.5C383.6000061,33.5999985,383.6000061,33.5999985,383.5,33.5z"/>
		<g>
			<circle class="st9" cx="389.3999939" cy="24.2999992" r="2.3999968"/>
			<g>
				<g class="st7">
					<path class="st0" d="M388.7999878,25.3999996l0.7999878-1.7999992h-1v-0.5h1.6000061V23.5l-0.7999878,1.8999996H388.7999878z"
						/>
				</g>
			</g>
		</g>
	</g>
</g>
<g id="Top_header">
	<rect x="-0.1" class="st9" width="430" height="12"/>
	<g id="Social">
		<g>
			<g>
				<path class="st0" d="M404.1000061,3.3c-1.5,0-2.2999878,0.8999999-2.2999878,2.0000002
					c0,0.5,0.2999878,1.0999999,0.7000122,1.3000002c0.1000061,0,0.1000061,0,0.1000061,0s0.1000061-0.3000002,0.1000061-0.4000001
					V6.0999999c-0.1000061-0.1999998-0.2999878-0.5-0.2999878-0.6999998c0-0.6999998,0.6000061-1.4000001,1.5-1.4000001
					c0.7999878,0,1.3999939,0.5,1.3999939,1.3000002c0,0.9000001-0.5,1.5-1.1000061,1.5
					c-0.2999878,0-0.6000061-0.3000002-0.5-0.5999999c0.1000061-0.4000001,0.2999878-0.8000002,0.2999878-1.0999999
					c0-0.3000002-0.1000061-0.5-0.3999939-0.5S403,4.9000001,403,5.4000001c0,0.3000002,0.1000061,0.5,0.1000061,0.5
					S402.8000183,7.3000002,402.7000122,7.5c-0.1000061,0.4000001,0,1.1000004,0,1.1999998c0,0,0,0,0.1000061,0
					c0,0,0.3999939-0.6000004,0.6000061-1.0999999c0-0.1999998,0.2000122-0.8000002,0.2000122-0.8000002
					c0.1000061,0.1999998,0.3999939,0.4000001,0.7999878,0.4000001c1,0,1.7999878-0.9000001,1.7999878-2
					S405.2999878,3.3,404.1000061,3.3z"/>
			</g>
		</g>
		<g>
			<g>
				<path class="st0" d="M393.2999878,5.5v1.0999999h1.5c-0.2000122,0.5999999-0.7999878,1.0999999-1.5,1.0999999
					c-0.8999939,0-1.6000061-0.6999998-1.6000061-1.5999999S392.3999939,4.5,393.2999878,4.5
					c0.3999939,0,0.7999878,0.0999999,1,0.4000001L395,4c-0.5-0.4000001-1.1000061-0.7-1.7000122-0.7
					c-1.5,0-2.7000122,1.2-2.7000122,2.7s1.2000122,2.6999998,2.7000122,2.6999998S396,7.5,396,6V5.5H393.2999878L393.2999878,5.5z"
					/>
			</g>
		</g>
		<g>
			<g>
				<g>
					<path class="st0" d="M383,3.3h-2c-0.8999939,0-1.7000122,0.8-1.7000122,1.7v2
						c0,0.9000001,0.7999878,1.6999998,1.7000122,1.6999998h2c0.8999939,0,1.7000122-0.8000002,1.7000122-1.6999998V5
						C384.7000122,4.0999999,384,3.3,383,3.3z M384.2000122,7c0,0.6999998-0.5,1.1999998-1.2000122,1.1999998h-2
						c-0.7000122,0-1.2000122-0.5-1.2000122-1.1999998V5c0-0.6999998,0.5-1.2,1.2000122-1.2h2
						c0.7000122,0,1.2000122,0.5000002,1.2000122,1.2V7z"/>
				</g>
			</g>
			<g>
				<g>
					<path class="st0" d="M382,4.6999998c-0.7000122,0-1.2999878,0.5999999-1.2999878,1.3000002
						S381.3000183,7.3000002,382,7.3000002S383.2999878,6.7000003,383.2999878,6S382.7999878,4.6999998,382,4.6999998z
						 M382,6.8000002c-0.5,0-0.7999878-0.4000001-0.7999878-0.8000002S381.6000061,5.1999998,382,5.1999998
						c0.5,0,0.7999878,0.4000001,0.7999878,0.8000002S382.5,6.8000002,382,6.8000002z"/>
				</g>
			</g>
			<g>
				<g>
					<circle class="st0" cx="383.5" cy="4.5" r="0.200006"/>
				</g>
			</g>
		</g>
		<g>
			<g>
				<path class="st0" d="M373.7000122,4.3000002C373.5,4.4000001,373.3000183,4.4000001,373.1000061,4.5
					c0.2000122-0.0999999,0.3999939-0.4000001,0.5-0.5999999C373.3999939,4,373.2000122,4.0999999,372.8999939,4.2000003
					c-0.2000122-0.1999998-0.5-0.4000001-0.7999878-0.4000001C371.5,3.8000002,371,4.3000002,371,4.9000001
					C371,5,371,5.0999999,371,5.2000003c-0.8999939,0-1.7000122-0.5-2.2999878-1.2000003
					C368.6000061,4.1999998,368.5,4.4000001,368.5,4.5999999C368.5,5,368.7000122,5.2999997,369,5.5
					c-0.2000122,0-0.3999939-0.0999999-0.5-0.0999999l0,0c0,0.5,0.3999939,1,0.8999939,1.0999999
					c-0.1000061,0-0.2000122,0-0.2999878,0C369,6.5,369,6.5,368.8999939,6.5c0.1000061,0.4000001,0.5,0.8000002,1,0.8000002
					C369.5,7.6000004,369,7.8000002,368.5,7.8000002c-0.1000061,0-0.2000122,0-0.2999878,0
					c0.5,0.3000002,1.1000061,0.5,1.7000122,0.5c2,0,3.1000061-1.6999998,3.1000061-3.0999999V5.0999999
					C373.3999939,4.6999998,373.6000061,4.5,373.7000122,4.3000002z"/>
			</g>
		</g>
		<g>
			<g>
				<path class="st0" d="M361.2999878,5.1999998V4.5c0-0.1999998,0.2000122-0.3000002,0.2999878-0.3000002h0.2999878V3.3h-0.7000122
					c-0.6000061,0-1,0.5-1,1.0000002v0.8000002h-0.7000122V6h0.7000122v2.6999998h1V6h0.7000122l0.2999878-0.8000002H361.2999878z"
					/>
			</g>
		</g>
	</g>
	<rect x="22.1000004" y="5.0999999" class="st0" width="23.4999981" height="1.7999997"/>
	<rect x="55.5999985" y="5.0999999" class="st0" width="23.5" height="1.7999997"/>
</g>
<path class="st11" d="M368.7000122,29.2000008c0.7000122-0.6000004,1.1000061-1.5,1.1000061-2.3999996
	c0-1.7000008-1.3999939-3.2000008-3.2000122-3.2000008S363.3999939,25,363.3999939,26.8000011
	c0,0.8999996,0.3999939,1.7999992,1.1000061,2.3999996c-1.8999939,0.7999992-3.1000061,2.9000015-3.1000061,5.0999985
	c0,0.2000008,0.1000061,0.2999992,0.2999878,0.2999992h9.7000122c0.2000122,0,0.2999878-0.0999985,0.2999878-0.2999992
	C371.8999939,32.0999985,370.6000061,30,368.7000122,29.2000008z M366.7000122,24.2999992c1.3999939,0,2.5,1.1000004,2.5,2.5
	c0,0.8999996-0.5,1.7000008-1.2999878,2.2000008l0,0l0,0c0,0,0,0-0.1000061,0l0,0
	c-0.3999939,0.2000008-0.7999878,0.2999992-1.2000122,0.2999992c-1.3999939,0-2.5-1.1000004-2.5-2.5
	S365.2999878,24.2999992,366.7000122,24.2999992z M365.2999878,29.6000004
	c0.3999939,0.2000008,0.8999939,0.2999992,1.3999939,0.2999992s1-0.1000004,1.3999939-0.2999992
	c1.7000122,0.5,3,2.2999992,3.1000061,4.3999996h-9.1000061C362.2999878,32,363.6000061,30.2000008,365.2999878,29.6000004z"/>
</svg>
