<?xml version="1.0" encoding="utf-8"?>
<!-- Generator: Adobe Illustrator 21.0.0, SVG Export Plug-In . SVG Version: 6.00 Build 0)  -->
<svg version="1.1" id="Layer_1" xmlns="http://www.w3.org/2000/svg" width="430" height="80" xmlns:xlink="http://www.w3.org/1999/xlink" x="0px" y="0px"
	 viewBox="0 0 430 70" style="enable-background:new 0 0 430 70;" xml:space="preserve">
<style type="text/css">
	.st0{fill:#222222;}
	.st1{enable-background:new    ;}
	.st2{fill:#FFFFFF;}
	.st3{fill:#3F3F3F;}
	.st4{fill:#222222;stroke:#222222;stroke-width:0.4792;stroke-miterlimit:10;}
	.st5{fill:#E1E1E1;}
	.st6{fill:#222222;stroke:#222222;stroke-width:0.4;stroke-miterlimit:10;}
	.st7{fill:#FFFFFF;stroke:#FFFFFF;stroke-width:0.4;stroke-miterlimit:10;}
	.st8{fill:none;stroke:#222222;stroke-linecap:square;stroke-linejoin:round;stroke-miterlimit:10;}
</style>
<g id="Bottom">
	<rect y="48.4000015" class="st0" width="430" height="21.5999985"/>
	<g id="Menu" class="st1">
		<g>
			<path class="st2" d="M96.1999969,62.7999992H95v-3.2000008h-3.3000031v3.2000008H90.5v-7.0999985h1.1999969v2.9000015H95
				v-2.9000015h1.1999969V62.7999992z"/>
			<path class="st2" d="M104.4000015,59.2000008c0,1.2000008-0.3000031,2.0999985-0.9000015,2.7000008s-1.4000015,1-2.5,1
				s-1.9000015-0.2999992-2.5-1c-0.5999985-0.5999985-0.9000015-1.5-0.9000015-2.7000008S97.9000015,57.1000023,98.5,56.5
				s1.4000015-0.9000015,2.5-0.9000015s1.9000015,0.2999992,2.5,1S104.4000015,58,104.4000015,59.2000008z M98.9000015,59.2000008
				c0,0.9000015,0.1999969,1.5,0.5,2c0.4000015,0.5,0.9000015,0.7000008,1.5999985,0.7000008
				s1.1999969-0.2000008,1.5999985-0.7000008s0.5-1.0999985,0.5-2s-0.1999969-1.5-0.5-2S101.6999969,56.5,101,56.5
				s-1.1999969,0.2000008-1.5999985,0.7000008S98.9000015,58.2999992,98.9000015,59.2000008z"/>
			<path class="st2" d="M109,62.7999992l-2.0999985-6l0,0C107,57.7000008,107,58.5,107,59.2999992v3.5h-1.0999985v-7.0999985H107.5
				l2,5.7000008l0,0l2-5.7000008h1.6999969v7.0999985h-1.0999985v-3.5c0-0.4000015,0-0.7999992,0-1.4000015s0-0.9000015,0-1l0,0
				l-2.0999985,6L109,62.7999992L109,62.7999992z"/>
			<path class="st2" d="M119.1999969,62.7999992h-4v-7.0999985h4v1h-2.9000015v1.9000015h2.6999969v1h-2.6999969v2.2000008
				h2.9000015V62.7999992z"/>
		</g>
		<circle class="st2" cx="128.6999969" cy="59.2000008" r="1.5"/>
		<g>
			<path class="st3" d="M142.8000031,60.7999992c0,0.5999985-0.1999969,1.0999985-0.6999969,1.5s-1.1000061,0.5-1.8999939,0.5
				s-1.5-0.0999985-2-0.4000015v-1.0999985c0.3000031,0.2000008,0.6999969,0.2999992,1,0.4000015s0.6999969,0.0999985,1,0.0999985
				c0.5,0,0.8000031-0.0999985,1-0.2999992s0.3000031-0.4000015,0.3000031-0.7000008s-0.1000061-0.5-0.3000031-0.7000008
				s-0.6000061-0.4000015-1.1999969-0.7000008c-0.6999969-0.2999992-1.1000061-0.5999985-1.3999939-0.9000015
				s-0.3999939-0.7000008-0.3999939-1.2000008c0-0.5999985,0.1999969-1.0999985,0.6000061-1.4000015s1-0.5,1.6999969-0.5
				s1.3999939,0.0999985,2,0.4000015l-0.3999939,1c-0.6000061-0.2999992-1.1999969-0.4000015-1.6999969-0.4000015
				c-0.3999939,0-0.6999969,0.0999985-0.8999939,0.2000008c-0.1999969,0.2000008-0.3000031,0.4000015-0.3000031,0.7000008
				c0,0.2000008,0,0.2999992,0.1000061,0.5c0.1000061,0.0999985,0.1999969,0.2999992,0.3999939,0.4000015s0.5,0.2999992,1,0.5
				s0.8999939,0.4000015,1.1999969,0.5999985s0.5,0.4000015,0.6000061,0.5999985S142.8000031,60.5,142.8000031,60.7999992z"/>
			<path class="st3" d="M149.8000031,62.7999992h-1.1999969v-3.2000008h-3.3000031v3.2000008h-1.1000061v-7.0999985h1.1999969
				v2.9000015h3.3000031v-2.9000015h1.1999969L149.8000031,62.7999992L149.8000031,62.7999992z"/>
			<path class="st3" d="M158,59.2000008c0,1.2000008-0.3000031,2.0999985-0.8999939,2.7000008s-1.3999939,1-2.5,1
				s-1.8999939-0.2999992-2.5-1c-0.6000061-0.5999985-0.8999939-1.5-0.8999939-2.7000008s0.3000031-2.0999985,0.8999939-2.7000008
				s1.3999939-0.9000015,2.5-0.9000015s1.8999939,0.2999992,2.5,1S158,58,158,59.2000008z M152.6000061,59.2000008
				c0,0.9000015,0.1999969,1.5,0.5,2c0.3999939,0.5,0.8999939,0.7000008,1.6000061,0.7000008
				c0.6999969,0,1.1999969-0.2000008,1.6000061-0.7000008s0.5-1.0999985,0.5-2s-0.1999969-1.5-0.5-2
				S155.4000244,56.5,154.7000122,56.5c-0.6999969,0-1.1999969,0.2000008-1.6000061,0.7000008
				S152.6000061,58.2999992,152.6000061,59.2000008z"/>
			<path class="st3" d="M164.3000031,57.7999992c0,0.7000008-0.1999969,1.2999992-0.6999969,1.7000008
				S162.4000092,60.0999985,161.5,60.0999985h-0.6999969v2.7000008h-1.1999969v-7.0999985h2.1000061
				c0.8999939,0,1.6000061,0.2000008,2,0.5S164.3000031,57.0999985,164.3000031,57.7999992z M160.6999969,59.0999985h0.6000061
				c0.6000061,0,1-0.0999985,1.3000031-0.2999992s0.3999939-0.5,0.3999939-1c0-0.4000015-0.1000061-0.7000008-0.3999939-0.9000015
				S162,56.5999985,161.4000092,56.5999985h-0.8000031L160.6999969,59.0999985L160.6999969,59.0999985z"/>
		</g>
		<circle class="st2" cx="173.8000031" cy="59.2000008" r="1.5"/>
		<g>
			<path class="st2" d="M186.6000061,58.9000015h2.6000061V62.5c-0.3999939,0.0999985-0.8000031,0.2000008-1.1999969,0.2999992
				s-0.8000031,0.0999985-1.3000031,0.0999985c-1.1000061,0-1.8999939-0.2999992-2.5-1
				c-0.6000061-0.5999985-0.8999939-1.5-0.8999939-2.7000008c0-1.0999985,0.3000031-2,1-2.7000008
				c0.6999969-0.5999985,1.6000061-1,2.6999969-1c0.6999969,0,1.5,0.0999985,2.1000061,0.4000015l-0.3999939,1
				c-0.6000061-0.2999992-1.1999969-0.4000015-1.6999969-0.4000015c-0.8000031,0-1.3999939,0.2000008-1.8000031,0.7000008
				s-0.6999969,1.0999985-0.6999969,2s0.1999969,1.5,0.6000061,2c0.3999939,0.5,1,0.7000008,1.6999969,0.7000008
				c0.3999939,0,0.8000031,0,1.1999969-0.0999985V60h-1.5L186.6000061,58.9000015L186.6000061,58.9000015z"/>
			<path class="st2" d="M195.3999939,62.7999992l-0.6999969-2H192l-0.6999969,2h-1.1999969l2.6999969-7.2000008h1.3000031
				l2.6999969,7.2000008H195.3999939z M194.3999939,59.7999992l-0.6999969-1.9000015
				c0-0.0999985-0.1000061-0.2999992-0.1999969-0.5999985s-0.1000061-0.5-0.1999969-0.5999985
				C193.1999969,57.1000023,193.1000061,57.5,192.9000092,58l-0.6000061,1.9000015h2.1000061L194.3999939,59.7999992
				L194.3999939,59.7999992z"/>
			<path class="st2" d="M197.6000061,62.7999992v-7.0999985h1.1999969v6.0999985h3v1H197.6000061z"/>
			<path class="st2" d="M203,62.7999992v-7.0999985h1.1999969v6.0999985h3v1H203z"/>
			<path class="st2" d="M212.5,62.7999992h-4v-7.0999985h4v1h-2.8999939v1.9000015h2.6999969v1h-2.6999969v2.2000008H212.5
				V62.7999992z"/>
			<path class="st2" d="M215.1999969,59.9000015v2.9000015H214v-7.0999985h2c0.8999939,0,1.6000061,0.2000008,2,0.5
				s0.6999969,0.9000015,0.6999969,1.5999985c0,0.9000015-0.5,1.5-1.3999939,1.9000015l2,3.2000008H218l-1.6999969-2.9000015
				h-1.1000061V59.9000015z M215.1999969,58.9000015H216c0.5,0,0.8999939-0.0999985,1.1999969-0.2999992
				s0.3999939-0.5,0.3999939-0.9000015S217.4999847,57,217.1999969,56.7999992S216.5,56.5,216,56.5h-0.8000031V58.9000015z"/>
			<path class="st2" d="M222.3999939,58.9000015l1.6999969-3.2999992h1.3000031L223,60v2.7999992h-1.1999969V60
				l-2.3999939-4.4000015h1.3000031L222.3999939,58.9000015z"/>
		</g>
		<circle class="st2" cx="234.8999939" cy="59.2000008" r="1.5"/>
		<g>
			<path class="st2" d="M244.3999939,55.5999985H246.5c1,0,1.6999969,0.0999985,2.1000061,0.4000015
				s0.6999969,0.7000008,0.6999969,1.4000015c0,0.4000015-0.1000061,0.7999992-0.3000031,1s-0.5,0.5-0.8999939,0.5l0,0
				C248.6000061,59,249,59.2000008,249.2000122,59.5c0.1999969,0.2999992,0.3999939,0.7000008,0.3999939,1.0999985
				c0,0.5999985-0.1999969,1.0999985-0.6999969,1.5c-0.3999939,0.4000015-1.1000061,0.5-1.8999939,0.5h-2.6000061
				L244.3999939,55.5999985L244.3999939,55.5999985z M245.6000061,58.5999985h1.1000061
				c0.5,0,0.8000031-0.0999985,1.1000061-0.2000008c0.1999969-0.2000008,0.3000031-0.4000015,0.3000031-0.7999992
				c0-0.2999992-0.1000061-0.5-0.3999939-0.7000008c-0.3000031-0.0999985-0.6000061-0.2000008-1.1999969-0.2000008h-0.8999939
				L245.6000061,58.5999985L245.6000061,58.5999985z M245.6000061,59.5v2.2999992h1.1999969
				c0.5,0,0.8999939-0.0999985,1.1000061-0.2999992c0.1999969-0.2000008,0.3999939-0.5,0.3999939-0.9000015
				S248.1999969,60,247.9000092,59.7999992S247.3000031,59.5,246.7000122,59.5H245.6000061z"/>
			<path class="st2" d="M251,62.7999992v-7.0999985h1.1999969v6.0999985h3v1H251z"/>
			<path class="st2" d="M262.7999878,59.2000008c0,1.2000008-0.2999878,2.0999985-0.8999939,2.7000008
				c-0.6000061,0.5999985-1.3999939,1-2.5,1s-1.8999939-0.2999992-2.5-1C256.2999878,61.3000031,256,60.4000015,256,59.2000008
				s0.2999878-2.0999985,0.8999939-2.7000008c0.6000061-0.5999985,1.3999939-0.9000015,2.5-0.9000015s1.8999939,0.2999992,2.5,1
				S262.7999878,58,262.7999878,59.2000008z M257.2999878,59.2000008c0,0.9000015,0.2000122,1.5,0.5,2
				c0.3999939,0.5,0.8999939,0.7000008,1.6000061,0.7000008S260.6000061,61.7000008,261,61.2000008
				c0.3999939-0.4000015,0.5-1.0999985,0.5-2s-0.2000122-1.5-0.5-2c-0.3999939-0.5-0.8999939-0.7000008-1.6000061-0.7000008
				s-1.2000122,0.2000008-1.6000061,0.7000008C257.5,57.5999985,257.2999878,58.2999992,257.2999878,59.2000008z"/>
			<path class="st2" d="M267.2000122,58.9000015h2.6000061V62.5c-0.3999939,0.0999985-0.7999878,0.2000008-1.2000122,0.2999992
				c-0.3999939,0.0999985-0.7999878,0.0999985-1.2999878,0.0999985c-1.1000061,0-1.8999939-0.2999992-2.5-1
				c-0.6000061-0.5999985-0.8999939-1.5-0.8999939-2.7000008c0-1.0999985,0.2999878-2,1-2.7000008
				c0.7000122-0.5999985,1.6000061-1,2.7000122-1c0.7000122,0,1.5,0.0999985,2.1000061,0.4000015l-0.3999939,1
				c-0.6000061-0.2999992-1.2000122-0.4000015-1.7000122-0.4000015c-0.7999878,0-1.3999939,0.2000008-1.7999878,0.7000008
				s-0.7000122,1.0999985-0.7000122,2s0.2000122,1.5,0.6000061,2s1,0.7000008,1.7000122,0.7000008
				c0.3999939,0,0.7999878,0,1.2000122-0.0999985V60h-1.5L267.2000122,58.9000015L267.2000122,58.9000015z"/>
		</g>
		<circle class="st2" cx="279.2999878" cy="59.2000008" r="1.5"/>
		<g>
			<path class="st2" d="M292.1000061,56.5c-0.7000122,0-1.2000122,0.2000008-1.6000061,0.7000008s-0.6000061,1.0999985-0.6000061,2
				s0.2000122,1.5,0.6000061,2c0.3999939,0.4000015,0.8999939,0.7000008,1.6000061,0.7000008
				c0.2999878,0,0.6000061,0,0.8999939-0.0999985s0.6000061-0.0999985,0.8999939-0.2000008v1
				c-0.6000061,0.2000008-1.2000122,0.2999992-1.8999939,0.2999992c-1,0-1.7999878-0.2999992-2.3999939-0.9000015
				c-0.6000061-0.5999985-0.7999878-1.5-0.7999878-2.7000008c0-0.7000008,0.1000061-1.4000015,0.3999939-1.9000015
				c0.2999878-0.5999985,0.7000122-1,1.2000122-1.2999992s1.1000061-0.4000015,1.7999878-0.4000015
				c0.7000122,0,1.3999939,0.2000008,2,0.5l-0.3999939,1c-0.2000122-0.0999985-0.3999939-0.2999992-0.6000061-0.4000015
				C292.7000122,56.5,292.3999939,56.5,292.1000061,56.5z"/>
			<path class="st2" d="M301.7000122,59.2000008c0,1.2000008-0.2999878,2.0999985-0.8999939,2.7000008
				c-0.6000061,0.5999985-1.3999939,1-2.5,1s-1.8999939-0.2999992-2.5-1c-0.6000061-0.5999985-0.8999939-1.5-0.8999939-2.7000008
				s0.2999878-2.0999985,0.8999939-2.7000008c0.6000061-0.5999985,1.3999939-0.9000015,2.5-0.9000015s1.8999939,0.2999992,2.5,1
				S301.7000122,58,301.7000122,59.2000008z M296.2999878,59.2000008c0,0.9000015,0.2000122,1.5,0.5,2
				c0.3999939,0.5,0.8999939,0.7000008,1.6000061,0.7000008S299.6000061,61.7000008,300,61.2000008
				c0.3999939-0.4000015,0.5-1.0999985,0.5-2s-0.2000122-1.5-0.5-2c-0.3999939-0.5-0.8999939-0.7000008-1.6000061-0.7000008
				s-1.2000122,0.2000008-1.6000061,0.7000008C296.5,57.5999985,296.2999878,58.2999992,296.2999878,59.2000008z"/>
			<path class="st2" d="M309.2000122,62.7999992h-1.3999939l-3.5-5.7000008l0,0v0.2999992
				c0,0.5999985,0.1000061,1.2000008,0.1000061,1.7000008v3.7000008h-1.1000061v-7.0999985h1.3999939l3.5,5.7000008l0,0
				c0-0.0999985,0-0.2999992,0-0.7999992s0-0.7999992,0-1.0999985v-3.7000008h1.1000061v7
				C309.2999878,62.7999992,309.2000122,62.7999992,309.2000122,62.7999992z"/>
			<path class="st2" d="M313.6000061,62.7999992h-1.2000122v-6.0999985h-2.1000061v-1h5.3999939v1h-2.1000061
				L313.6000061,62.7999992L313.6000061,62.7999992z"/>
			<path class="st2" d="M321.2000122,62.7999992l-0.7000122-2h-2.7000122l-0.7000122,2h-1.2999878L318.5,55.5999985h1.2999878
				L322.5,62.7999992H321.2000122z M320.2000122,59.7999992L319.5,57.8999977c0-0.0999985-0.1000061-0.2999992-0.2000122-0.5999985
				s-0.1000061-0.5-0.2000122-0.5999985C318.9999695,57.1000023,318.8999634,57.5,318.6999817,58l-0.6000061,1.9000015h2.1000061
				L320.2000122,59.7999992L320.2000122,59.7999992z"/>
			<path class="st2" d="M326.3999939,56.5c-0.7000122,0-1.2000122,0.2000008-1.6000061,0.7000008s-0.6000061,1.0999985-0.6000061,2
				s0.2000122,1.5,0.6000061,2c0.3999939,0.4000015,0.8999939,0.7000008,1.6000061,0.7000008
				c0.2999878,0,0.6000061,0,0.8999939-0.0999985s0.6000061-0.0999985,0.8999939-0.2000008v1
				c-0.6000061,0.2000008-1.2000122,0.2999992-1.8999939,0.2999992c-1,0-1.7999878-0.2999992-2.3999939-0.9000015
				c-0.6000061-0.5999985-0.7999878-1.5-0.7999878-2.7000008c0-0.7000008,0.1000061-1.4000015,0.3999939-1.9000015
				c0.2999878-0.5999985,0.7000122-1,1.2000122-1.2999992s1.1000061-0.4000015,1.7999878-0.4000015
				c0.7000122,0,1.3999939,0.2000008,2,0.5l-0.3999939,1c-0.2000122-0.0999985-0.3999939-0.2999992-0.7000122-0.4000015
				C327,56.5,326.7000122,56.5,326.3999939,56.5z"/>
			<path class="st2" d="M332.2000122,62.7999992H331v-6.0999985h-2.1000061v-1h5.3999939v1h-2.1000061L332.2000122,62.7999992
				L332.2000122,62.7999992z"/>
			<path class="st2" d="M339.5,60.7999992c0,0.5999985-0.2000122,1.0999985-0.7000122,1.5s-1.1000061,0.5-1.8999939,0.5
				s-1.5-0.0999985-2-0.4000015v-1.0999985c0.2999878,0.2000008,0.7000122,0.2999992,1,0.4000015
				c0.3999939,0.0999985,0.7000122,0.0999985,1,0.0999985c0.5,0,0.7999878-0.0999985,1-0.2999992
				s0.2999878-0.4000015,0.2999878-0.7000008s-0.1000061-0.5-0.2999878-0.7000008s-0.6000061-0.4000015-1.2000122-0.7000008
				c-0.7000122-0.2999992-1.1000061-0.5999985-1.3999939-0.9000015s-0.3999939-0.7000008-0.3999939-1.2000008
				c0-0.5999985,0.2000122-1.0999985,0.6000061-1.4000015s1-0.5,1.7000122-0.5s1.3999939,0.0999985,2,0.4000015l-0.3999939,1
				c-0.6000061-0.2999992-1.2000122-0.4000015-1.7000122-0.4000015c-0.3999939,0-0.7000122,0.0999985-0.8999939,0.2000008
				c-0.2000122,0.2000008-0.2999878,0.4000015-0.2999878,0.7000008c0,0.2000008,0,0.2999992,0.1000061,0.5
				c0.1000061,0.0999985,0.2000122,0.2999992,0.3999939,0.4000015s0.5,0.2999992,1,0.5s0.8999939,0.4000015,1.2000122,0.5999985
				s0.5,0.4000015,0.6000061,0.5999985C339.2999878,60.0999985,339.5,60.5,339.5,60.7999992z"/>
		</g>
	</g>
</g>
<g id="Middle">
	<g>
		<path class="st0" d="M22.1000004,36.2000008V21.8999996h2.2999992v12.3000011h6v2H22.1000004z"/>
		<path class="st0" d="M45.5999985,29c0,2.2999992-0.5999985,4.0999985-1.7000008,5.4000015
			c-1.0999985,1.2999992-2.7999992,1.9000015-4.9000015,1.9000015c-2.2000008,0-3.7999992-0.5999985-5-1.9000015
			c-1.2000008-1.2999992-1.7000008-3.1000004-1.7000008-5.5s0.5999985-4.2000008,1.7000008-5.3999996
			c1.0999985-1.2000008,2.7999992-1.8999996,5-1.8999996c2.0999985,0,3.7999992,0.6000004,4.9000015,1.8999996
			C45,24.7999992,45.5999985,26.7000008,45.5999985,29z M34.7000008,29c0,1.7999992,0.4000015,3.0999985,1.0999985,4
			S37.5999985,34.4000015,39,34.4000015S41.4000015,34,42.0999985,33.1000023c0.7000008-0.9000015,1.0999985-2.2000008,1.0999985-4
			s-0.4000015-3.1000004-1-4s-1.7000008-1.3999996-3.0999985-1.3999996c-1.4000015,0-2.5,0.5-3.2000008,1.3999996
			C35.2000008,26,34.7000008,27.2000008,34.7000008,29z"/>
		<path class="st0" d="M54.5,28.3999996h5.2999992v7.1999989c-0.9000015,0.2999992-1.7000008,0.5-2.5,0.5999985
			s-1.5999985,0.2000008-2.5999985,0.2000008c-2.2000008,0-3.7999992-0.5999985-5-1.9000015
			C48.5,33.1999969,47.9000015,31.3999958,47.9000015,29.0999966s0.7000008-4.1000004,2-5.3999996
			s3.0999985-1.8999996,5.5-1.8999996c1.5,0,2.9000015,0.2999992,4.2000008,0.8999996l-0.7999992,1.8999996
			c-1.2000008-0.5-2.2999992-0.7999992-3.5-0.7999992c-1.5,0-2.7000008,0.5-3.5999985,1.3999996
			c-0.9000015,1-1.2999992,2.2999992-1.2999992,3.8999996c0,1.7000008,0.4000015,3.1000004,1.2000008,4.0000019
			S53.5000076,34.5,55.0000076,34.5c0.7999992,0,1.5999985-0.0999985,2.4000015-0.2999992V30.5h-3L54.5,28.3999996L54.5,28.3999996z
			"/>
		<path class="st0" d="M75.8000031,29c0,2.2999992-0.5999985,4.0999985-1.6999969,5.4000015
			c-1.0999985,1.2999992-2.8000031,1.9000015-4.9000015,1.9000015c-2.1999969,0-3.8000031-0.5999985-5-1.9000015
			s-1.7000008-3.1000004-1.7000008-5.5s0.5999985-4.2000008,1.7000008-5.3999996
			c1.0999985-1.2000008,2.8000031-1.8999996,5-1.8999996c2.0999985,0,3.8000031,0.6000004,4.9000015,1.8999996
			C75.3000031,24.8999996,75.8000031,26.7000008,75.8000031,29z M64.9000015,29c0,1.7999992,0.4000015,3.0999985,1.0999985,4
			s1.8000031,1.4000015,3.1999969,1.4000015S71.5999985,34,72.2999954,33.1000023s1.0999985-2.2000008,1.0999985-4
			s-0.3000031-3.1000004-1-4s-1.6999969-1.3999996-3.0999985-1.3999996s-2.5,0.5-3.1999969,1.3999996
			C65.4000015,26,64.9000015,27.2000008,64.9000015,29z"/>
	</g>
	<g id="Icons">
		<path class="st4" d="M404.7999878,25c0-0.2000008-0.2000122-0.5-0.5-0.5h-1.2000122c0-1.2000008-1-2-2.2000122-2
			s-2,0.7999992-2.2000122,2h-1.2000122c-0.2000122,0-0.5,0.2000008-0.5,0.5l-0.2000122,7.5
			c0,0.2000008,0.1000061,0.5,0.2000122,0.7000008c0.1000061,0.0999985,0.3999939,0.4000015,0.7000122,0.4000015h6.2000122
			c0.2000122,0,0.5-0.0999985,0.7000122-0.4000015c0.1000061-0.0999985,0.2000122-0.5,0.2000122-0.7000008V25z
			 M401.1000061,23.1000004c0.7999878,0,1.3999939,0.7000008,1.6000061,1.3999996h-3.1000061
			C399.6000061,23.7000008,400.2999878,23.1000004,401.1000061,23.1000004z M399,25.1000004v1
			c0,0.1000004,0.1000061,0.2000008,0.2000122,0.2000008s0.2000122-0.1000004,0.2000122-0.2000008v-1h3.1000061v1
			c0,0.1000004,0.1000061,0.2000008,0.2000122,0.2000008s0.2000122-0.1000004,0.2000122-0.2000008v-1h1.2000122L404.500061,32.5
			c0,0.0999985,0,0.2000008-0.1000061,0.4000015S404.3000488,33,404.2000427,33h-6.2999878c-0.1000061,0-0.2999878,0-0.5-0.0999985
			c-0.1000061-0.0999985-0.1000061-0.0999985-0.1000061-0.4000015l0.3999939-7.3999996H399z"/>
		<g>
			<circle class="st5" cx="405.7999878" cy="24.2999992" r="2.3999968"/>
			<g>
				<path class="st0" d="M406.3999939,25.3999996h-1.5v-0.2999992L405.5,24.5
					c0.2000122-0.2000008,0.2999878-0.2999992,0.2999878-0.3999996C405.8999939,24,405.8999939,24,405.8999939,23.8999996
					s0-0.1000004,0-0.2000008s0-0.2000008-0.1000061-0.2000008s-0.1000061-0.1000004-0.2000122-0.1000004s-0.2000122,0-0.2000122,0
					c-0.1000061,0-0.2000122,0.1000004-0.2999878,0.2000008l-0.2000122-0.2000008
					c0.1000061-0.1000004,0.2000122-0.2000008,0.3999939-0.2000008c0.1000061,0,0.2000122-0.1000004,0.3999939-0.1000004
					c0.2000122,0,0.3999939,0.1000004,0.5,0.2000008s0.2000122,0.2999992,0.2000122,0.3999996s0,0.2000008-0.1000061,0.2999992
					s-0.1000061,0.2000008-0.2000122,0.2999992c-0.1000061,0.1000004-0.2000122,0.2000008-0.3999939,0.3999996l-0.3999939,0.3999996
					l0,0h1.1000061L406.3999939,25.3999996L406.3999939,25.3999996z"/>
			</g>
		</g>
		<path class="st4" d="M389,26.6000004c-0.1000061-1.6000004-1.3999939-2.8999996-3.1000061-2.8999996
			c-1,0-1.7999878,0.3999996-2.3999939,1.1000004c-0.6000061-0.7000008-1.6000061-1.1000004-2.3999939-1.1000004
			c-1.6000061,0-3,1.2999992-3.1000061,2.8999996c0,0.1000004,0,0.2000008,0,0.3999996
			c0,0.6000004,0.2000122,1.2000008,0.7000122,1.6000004l4.3999939,4.8000011
			c0.1000061,0.0999985,0.3999939,0.2000008,0.5,0.2000008s0.3999939-0.0999985,0.5-0.2000008l4.2999878-4.7999992
			c0.3999939-0.5,0.5-1,0.6000061-1.6000004C389,26.7999992,389,26.7000008,389,26.6000004z M383.3999939,32.9000015
			l-4.2999878-4.7999992c-0.3999939-0.3999996-0.5-0.7999992-0.5-1.2000008c0-0.1000004,0-0.2000008,0-0.3999996
			c0.1000061-1.2999992,1.2000122-2.2999992,2.5-2.3999996c0,0,0,0,0.1000061,0
			c0.7999878,0,1.7000122,0.3999996,2.2000122,1.1000004c0,0.1000004,0.1000061,0.1000004,0.2000122,0.1000004
			s0.2000122,0,0.2000122-0.1000004c0.5-0.7000008,1.2999878-1.1000004,2.2000122-1.1000004
			c1.2999878,0,2.3999939,1.1000004,2.5,2.3999996c0,0.1000004,0,0.2000008,0,0.3999996l0,0
			c0,0.5-0.2000122,0.7999992-0.5,1.2000008L383.3999939,32.9000015C383.5,33,383.5,33,383.3999939,32.9000015z"/>
		<g>
			<circle class="st5" cx="389.3999939" cy="23.7999992" r="2.3999968"/>
			<g>
				<g class="st1">
					<path class="st0" d="M388.7999878,24.8999996L389.6999817,23h-1.1000061v-0.3999996h1.6000061v0.2999992l-0.8999939,2
						H388.7999878z"/>
				</g>
			</g>
		</g>
		<path class="st6" d="M366.8999939,28.2000008C367.6000061,27.6000004,368,26.7000008,368,25.8000011
			c0-1.7000008-1.3999939-3.2000008-3.2000122-3.2000008c-1.7000122,0-3.2000122,1.3999996-3.2000122,3.2000008
			c0,0.8999996,0.3999939,1.7999992,1.1000061,2.3999996c-1.8999939,0.7999992-3.1000061,2.8999996-3.1000061,5.0999985
			c0,0.2000008,0.1000061,0.2999992,0.2999878,0.2999992h9.7000122c0.2000122,0,0.2999878-0.0999985,0.2999878-0.2999992
			C370.1000061,31.1000004,368.7999878,29,366.8999939,28.2000008z M364.8999939,23.2999992c1.3999939,0,2.5,1.1000004,2.5,2.5
			c0,0.8999996-0.5,1.7000008-1.2999878,2.2000008l0,0l0,0c0,0,0,0-0.1000061,0l0,0
			c-0.3999939,0.2000008-0.7999878,0.2999992-1.2000122,0.2999992c-1.3999939,0-2.5-1.1000004-2.5-2.5
			S363.5,23.2999992,364.8999939,23.2999992z M363.5,28.6000004c0.3999939,0.2000008,0.8999939,0.2999992,1.3999939,0.2999992
			s1-0.1000004,1.3999939-0.2999992c1.7000122,0.5,3,2.2999992,3.1000061,4.3999996h-9.1000061
			C360.5,31,361.7999878,29.2000008,363.5,28.6000004z"/>
	</g>
	<g id="Search">
		<circle class="st0" cx="304.1000061" cy="30" r="8"/>
		<path class="st7" d="M307.7000122,33.0999985L306,31.3999977c0.3999939-0.5,0.7000122-1.2000008,0.7000122-1.8999996
			c0-1.6000004-1.2999878-2.7999992-2.7999878-2.7999992c-1.6000061,0-2.7999878,1.2999992-2.7999878,2.7999992
			c0,1.6000004,1.2999878,2.8000011,2.7999878,2.8000011c0.7000122,0,1.2999878-0.2000008,1.8999939-0.7000008l1.7000122,1.7000008
			l0.1000061,0.0999985c0,0,0.1000061,0,0.1000061-0.0999985l0.1000061-0.0999985
			C307.7000122,33.2000008,307.7000122,33.0999985,307.7000122,33.0999985z M306.2000122,29.5
			c0,1.2999992-1.1000061,2.3999996-2.5,2.3999996c-1.2999878,0-2.3999939-1.1000004-2.3999939-2.5
			c0-1.2999992,1.1000061-2.3999996,2.5-2.3999996C305.1000061,27,306.2000122,28.1000004,306.2000122,29.5z"/>
		<g>
			<path class="st0" d="M304.1000061,23c3.8999939,0,7,3.1000004,7,7s-3.1000061,7-7,7H125.9000015c-3.9000015,0-7-3.0999985-7-7
				s3.0999985-7,7-7H304.1000061 M304.1000061,22H125.9000015c-4.4000015,0-8,3.6000004-8,8s3.5999985,8,8,8H304
				c4.3999939,0,8-3.5999985,8-8S308.5,22,304.1000061,22L304.1000061,22z"/>
		</g>
		<g>
			<line class="st8" x1="167.8999939" y1="22.5" x2="167.8999939" y2="37.5"/>
		</g>
		<g>
			<g>
				<path class="st0" d="M126.1999969,28.2000008L126.1999969,28.2000008l-0.5-0.1000004l-1.8000031,4.4999981h0.5999985
					l0.5999985-1.3999996h1.6999969L127.3999863,32.5v0.0999985h0.5999985L126.1999969,28.2000008z M126.5999985,30.7000008
					h-1.3000031l0.5-1.2999992c0.0999985-0.2000008,0.0999985-0.2999992,0.1999969-0.3999996
					c0.0999985,0.1000004,0.0999985,0.2000008,0.0999985,0.2999992c0,0.1000004,0.0999985,0.1000004,0.0999985,0.2000008
					L126.5999985,30.7000008z"/>
				<rect x="128.3999939" y="27.8999996" class="st0" width="0.6000061" height="4.8000011"/>
				<rect x="129.8999939" y="27.8999996" class="st0" width="0.6000061" height="4.8000011"/>
			</g>
			<g>
				<g>
					<path class="st0" d="M163,29.2000008l-1.6999969-1.6000004C161.1999969,27.5,161.1000061,27.5,161,27.6000004
						l-1.6999969,1.6000004c-0.1000061,0.1000004-0.1000061,0.1000004-0.1000061,0.2000008s0,0.1000004,0.1000061,0.2000008
						s0.1000061,0.1000004,0.1999969,0.1000004c0.1000061,0,0.1000061,0,0.1999969-0.1000004l1.5-1.3999996l1.5,1.3999996
						c0.1000061,0.1000004,0.1999969,0.1000004,0.3000031,0s0.1000061-0.1000004,0.1000061-0.1000004
						C163.1000061,29.2999992,163,29.2999992,163,29.2000008z"/>
					<path class="st0" d="M159.6000061,29.7999992c-0.1000061,0-0.1999969,0-0.3000031-0.1000004
						s-0.1000061-0.2000008-0.1000061-0.2999992c0-0.2000008,0-0.2000008,0.1000061-0.2999992L161,27.5
						c0.1000061-0.1000004,0.1999969-0.1000004,0.3000031-0.1000004s0.1999969,0,0.3000031,0.1000004l1.6999969,1.6000004
						C163.4000092,29.2000008,163.5,29.3000011,163.4000092,29.5c0,0.1000004-0.1000061,0.1000004-0.1000061,0.2000008
						l-0.1000061,0.1000004c-0.1999969,0.1000004-0.3999939,0.1000004-0.3999939-0.1000004l-1.3999939-1.2999992
						l-1.3999939,1.2999992C159.6999969,29.7999992,159.6000061,29.7999992,159.6000061,29.7999992z M159.5,29.2999992
						L159.5,29.2999992c0,0.1000004,0,0.1000004,0,0.1000004c0.1000061,0,0.1000061,0,0.1000061,0l1.6000061-1.5l1.6000061,1.5
						c0,0,0,0,0.1000061,0l0,0v-0.1000004c0,0,0,0,0-0.1000004l-1.6999969-1.6000004h-0.1000061L159.5,29.2999992L159.5,29.2999992z
						"/>
				</g>
				<g>
					<path class="st0" d="M163,31c-0.1000061-0.1000004-0.1999969-0.1000004-0.3000031,0l-1.5,1.4000015l-1.5-1.3999996
						c-0.1000061-0.1000004-0.1000061-0.1000004-0.1999969-0.1000004c-0.1000061,0-0.1000061,0-0.1999969,0.1000004
						c-0.1000061,0.1000004-0.1000061,0.1000004-0.1000061,0.2000008s0.1000061,0.1000004,0.1000061,0.2000008L161,33
						c0.1000061,0.0999985,0.1999969,0.0999985,0.3000031,0L163,31.3999996
						c0.1000061-0.1000004,0.1000061-0.1000004,0.1000061-0.2000008S163,31,163,31z"/>
					<path class="st0" d="M161.1999969,33.0999985c-0.1000061,0-0.1999969,0-0.1999969-0.0999985l-0.1000061-0.0999985
						l-1.6999969-1.7000008v-0.1000004C159.0999908,31,159.0999908,31,159.0999908,30.8999996s0-0.2000008,0.1000061-0.2999992
						C159.3000031,30.5,159.3999939,30.5,159.5,30.5s0.1999969,0,0.3000031,0.1000004l1.3999939,1.2999992l1.3999939-1.2999992
						C162.6999969,30.5,162.8999939,30.5,162.9999847,30.5l0.1000061,0.1000004
						c0.1999969,0.2000008,0.1999969,0.2999992,0.1000061,0.2999992c0,0.1000004,0,0.2000008-0.1000061,0.2000008
						l-1.6999969,1.6000004C161.3999939,33.0999985,161.3000031,33.0999985,161.1999969,33.0999985z M161.1999969,32.7000008
						L161.1999969,32.7000008l1.6999969-1.6000004V31l0,0c-0.1000061,0-0.1000061,0-0.1000061,0l-1.6000061,1.5l-1.6000061-1.5
						h-0.1000061v0.1000004l0.1000061,0.1000004L161.1999969,32.7000008z"/>
				</g>
			</g>
		</g>
	</g>
	<g class="st1">
		<path class="st5" d="M174.6000061,30.8999996H174v-3.1000004h-1v-0.5h2.6999969v0.5h-1L174.6000061,30.8999996
			L174.6000061,30.8999996z"/>
		<path class="st5" d="M175.6999969,28.2000008h0.6000061l0.5,1.5c0.1000061,0.2000008,0.1000061,0.3999996,0.1999969,0.6000004l0,0
			c0-0.1000004,0-0.2000008,0.1000061-0.2999992s0.1999969-0.7000008,0.6000061-1.7999992h0.6000061l-1.1999969,3.1000004
			c-0.1999969,0.6000004-0.6000061,0.7999992-1,0.7999992c-0.1000061,0-0.3000031,0-0.3999939,0v-0.5
			c0.1000061,0,0.1999969,0,0.3000031,0c0.3000031,0,0.5-0.2000008,0.6000061-0.5l0.1000061-0.2999992L175.6999969,28.2000008z"/>
		<path class="st5" d="M180.1999969,31c-0.3000031,0-0.6000061-0.1000004-0.8000031-0.3999996l0,0
			c0,0.2000008,0,0.3999996,0,0.3999996v1.0999985h-0.6000061v-3.8999996h0.5c0,0.1000004,0,0.2000008,0.1000061,0.3999996l0,0
			c0.1999969-0.2999992,0.3999939-0.3999996,0.8000031-0.3999996c0.3000031,0,0.6000061,0.1000004,0.8000031,0.3999996
			c0.1999969,0.2000008,0.3000031,0.6000004,0.3000031,1s-0.1000061,0.7999992-0.3000031,1
			C180.8000031,30.8999996,180.5,31,180.1999969,31z M180,28.7000008c-0.1999969,0-0.3999939,0.1000004-0.5,0.2000008
			s-0.1999969,0.2999992-0.1999969,0.6000004v0.1000004c0,0.2999992,0.1000061,0.6000004,0.1999969,0.7000008
			s0.3000031,0.2000008,0.5,0.2000008s0.3999939-0.1000004,0.5-0.2000008s0.1999969-0.3999996,0.1999969-0.7000008
			c0-0.2999992-0.1000061-0.5-0.1999969-0.7000008C180.3999939,28.7000008,180.1999969,28.7000008,180,28.7000008z"/>
		<path class="st5" d="M183.1000061,31c-0.3999939,0-0.6999969-0.1000004-1-0.3999996
			c-0.1999969-0.2000008-0.3999939-0.6000004-0.3999939-1s0.1000061-0.7999992,0.3000031-1
			c0.1999969-0.2999992,0.5-0.3999996,0.8999939-0.3999996s0.6000061,0.1000004,0.8000031,0.2999992
			c0.1999969,0.2000008,0.3000031,0.5,0.3000031,0.8999996v0.2999992h-1.8000031c0,0.2999992,0.1000061,0.5,0.1999969,0.6000004
			S182.7000122,30.5,183.0000153,30.5c0.1999969,0,0.3000031,0,0.3999939,0c0.1000061,0,0.3000031-0.1000004,0.3999939-0.2000008
			v0.5c-0.1000061,0.1000004-0.3000031,0.1000004-0.3999939,0.1000004C183.3999939,31,183.3000031,31,183.1000061,31z
			 M183,28.6000004c-0.1999969,0-0.3000031,0.1000004-0.3999939,0.2000008c-0.1000061,0.1000004-0.1999969,0.2999992-0.1999969,0.5
			h1.1999969c0-0.2000008-0.1000061-0.3999996-0.1999969-0.5C183.3000031,28.7000008,183.1999969,28.6000004,183,28.6000004z"/>
		<path class="st5" d="M188.5,30.8999996h-0.6000061v-1.7000008c0-0.2000008,0-0.3999996-0.1000061-0.5
			s-0.1999969-0.2000008-0.3999939-0.2000008s-0.3999939,0.1000004-0.5,0.2000008s-0.1999969,0.3999996-0.1999969,0.7000008
			v1.2999992h-0.6000061v-3.7999992h0.6000061v1c0,0.2000008,0,0.2999992,0,0.5l0,0
			c0.1000061-0.1000004,0.1999969-0.2000008,0.3000031-0.2999992C187.1000061,28,187.3000031,28,187.5,28
			c0.6999969,0,1,0.2999992,1,1V30.8999996z"/>
		<path class="st5" d="M190.3999939,31c-0.3999939,0-0.6999969-0.1000004-1-0.3999996C189.1999969,30.3999996,189,30,189,29.6000004
			s0.1000061-0.7999992,0.3000031-1c0.1999969-0.2999992,0.5-0.3999996,0.8999939-0.3999996S190.8000031,28.3000011,191,28.5
			c0.1999969,0.2000008,0.3000031,0.5,0.3000031,0.8999996v0.2999992H189.5c0,0.2999992,0.1000061,0.5,0.1999969,0.6000004
			S190,30.5,190.3000031,30.5c0.1999969,0,0.3000031,0,0.3999939,0c0.1000061,0,0.3000031-0.1000004,0.3999939-0.2000008v0.5
			c-0.1000061,0.1000004-0.3000031,0.1000004-0.3999939,0.1000004C190.8000031,31,190.6000061,31,190.3999939,31z
			 M190.3000031,28.6000004c-0.1999969,0-0.3000031,0.1000004-0.3999939,0.2000008
			c-0.1000061,0.1000004-0.1999969,0.2999992-0.1999969,0.5h1.1999969c0-0.2000008-0.1000061-0.3999996-0.1999969-0.5
			C190.6999969,28.7000008,190.5,28.6000004,190.3000031,28.6000004z"/>
		<path class="st5" d="M193.5,28.2000008c0.1000061,0,0.1999969,0,0.3000031,0l-0.1000061,0.5c-0.1000061,0-0.1999969,0-0.3000031,0
			c-0.1999969,0-0.3999939,0.1000004-0.6000061,0.2000008c-0.1000061,0.1000004-0.1999969,0.2999992-0.1999969,0.6000004v1.3999996
			H192v-2.7000008h0.3999939l0.1000061,0.5l0,0c0.1000061-0.2000008,0.1999969-0.2999992,0.3999939-0.3999996
			C193.1999969,28.2000008,193.3000031,28.2000008,193.5,28.2000008z"/>
		<path class="st5" d="M195.5,31c-0.3999939,0-0.6999969-0.1000004-1-0.3999996
			c-0.1999969-0.2000008-0.3999939-0.6000004-0.3999939-1s0.1000061-0.7999992,0.3000031-1
			c0.1999969-0.2999992,0.5-0.3999996,0.8999939-0.3999996s0.6000061,0.1000004,0.8000031,0.2999992
			c0.1999969,0.2000008,0.3000031,0.5,0.3000031,0.8999996v0.2999992h-1.8000031c0,0.2999992,0.1000061,0.5,0.1999969,0.6000004
			S195.1000061,30.5,195.4000092,30.5c0.1999969,0,0.3000031,0,0.3999939,0c0.1000061,0,0.3000031-0.1000004,0.3999939-0.2000008
			v0.5c-0.1000061,0.1000004-0.3000031,0.1000004-0.3999939,0.1000004C195.8000031,31,195.6999969,31,195.5,31z
			 M195.3999939,28.6000004c-0.1999969,0-0.3000031,0.1000004-0.3999939,0.2000008
			c-0.1000061,0.1000004-0.1999969,0.2999992-0.1999969,0.5H196c0-0.2000008-0.1000061-0.3999996-0.1999969-0.5
			C195.6999969,28.7000008,195.5,28.6000004,195.3999939,28.6000004z"/>
		<path class="st5" d="M197.1000061,30.6000004c0-0.1000004,0-0.2000008,0.1000061-0.2999992
			c0.1000061-0.1000004,0.1999969-0.1000004,0.3000031-0.1000004s0.1999969,0,0.3000031,0.1000004
			s0.1000061,0.2000008,0.1000061,0.2999992c0,0.1000004,0,0.2000008-0.1000061,0.2999992
			C197.7000122,31,197.6000214,31,197.5000153,31s-0.1999969,0-0.3000031-0.1000004S197.1000061,30.7999992,197.1000061,30.6000004z
			"/>
		<path class="st5" d="M198.5,30.6000004c0-0.1000004,0-0.2000008,0.1000061-0.2999992
			c0.1000061-0.1000004,0.1999969-0.1000004,0.3000031-0.1000004s0.1999969,0,0.3000031,0.1000004
			s0.1000061,0.2000008,0.1000061,0.2999992c0,0.1000004,0,0.2000008-0.1000061,0.2999992S199,31,198.8999939,31
			s-0.1999969,0-0.3000031-0.1000004S198.5,30.7999992,198.5,30.6000004z"/>
		<path class="st5" d="M199.8000031,30.6000004c0-0.1000004,0-0.2000008,0.1000061-0.2999992
			c0.1000061-0.1000004,0.1999969-0.1000004,0.3000031-0.1000004s0.1999969,0,0.3000031,0.1000004
			s0.1000061,0.2000008,0.1000061,0.2999992c0,0.1000004,0,0.2000008-0.1000061,0.2999992S200.3000183,31,200.2000122,31
			s-0.1999969,0-0.3000031-0.1000004C199.8999939,30.7999992,199.8000031,30.7999992,199.8000031,30.6000004z"/>
	</g>
</g>
<g id="Top_header">
	<rect x="-0.1" class="st5" width="430" height="12"/>
	<g id="Social">
		<g>
			<g>
				<path class="st0" d="M403.5,3.3c-1.5,0-2.2999878,0.8999999-2.2999878,2.0000002c0,0.5,0.2999878,1.0999999,0.7000122,1.3000002
					c0.1000061,0,0.1000061,0,0.1000061,0s0.1000061-0.3000002,0.1000061-0.4000001V6.0999999
					c-0.1000061-0.1999998-0.2999878-0.5-0.2999878-0.6999998c0-0.6999998,0.6000061-1.4000001,1.5-1.4000001
					c0.7999878,0,1.3999939,0.5,1.3999939,1.3000002c0,0.9000001-0.5,1.5-1.1000061,1.5
					c-0.2999878,0-0.6000061-0.3000002-0.5-0.5999999c0.1000061-0.4000001,0.2999878-0.8000002,0.2999878-1.0999999
					c0-0.3000002-0.1000061-0.5-0.3999939-0.5s-0.6000061,0.3000002-0.6000061,0.8000002c0,0.3000002,0.1000061,0.5,0.1000061,0.5
					s-0.2999878,1.4000001-0.3999939,1.5999999c-0.1000061,0.4000001,0,1.0999999,0,1.2000003c0,0,0,0,0.1000061,0
					c0,0,0.3999939-0.6000004,0.6000061-1.0999999c0-0.1999998,0.2000122-0.8000002,0.2000122-0.8000002
					c0.1000061,0.1999998,0.3999939,0.4000001,0.7999878,0.4000001c1,0,1.7999878-0.9000001,1.7999878-2S404.7000122,3.3,403.5,3.3z
					"/>
			</g>
		</g>
		<g>
			<g>
				<path class="st0" d="M392.7000122,5.5v1.0999999h1.5c-0.2000122,0.5999999-0.7999878,1.0999999-1.5,1.0999999
					c-0.8999939,0-1.6000061-0.6999998-1.6000061-1.5999999S391.8000183,4.5,392.7000122,4.5
					c0.3999939,0,0.7999878,0.0999999,1,0.4000001L394.4000244,4c-0.5-0.4000001-1.1000061-0.7-1.7000122-0.7
					C391.2000122,3.3,390,4.5,390,6s1.2000122,2.6999998,2.7000122,2.6999998S395.4000244,7.5,395.4000244,6V5.5H392.7000122
					L392.7000122,5.5z"/>
			</g>
		</g>
		<g>
			<g>
				<g>
					<path class="st0" d="M382.3999939,3.3h-2c-0.8999939,0-1.7000122,0.8-1.7000122,1.7v2
						c0,0.9000001,0.7999878,1.6999998,1.7000122,1.6999998h2c0.8999939,0,1.7000122-0.8000002,1.7000122-1.6999998V5
						C384.1000061,4.0999999,383.3999939,3.3,382.3999939,3.3z M383.6000061,7c0,0.6999998-0.5,1.1999998-1.2000122,1.1999998h-2
						c-0.7000122,0-1.2000122-0.5-1.2000122-1.1999998V5c0-0.6999998,0.5-1.2,1.2000122-1.2h2
						c0.7000122,0,1.2000122,0.5000002,1.2000122,1.2V7z"/>
				</g>
			</g>
			<g>
				<g>
					<path class="st0" d="M381.3999939,4.6999998c-0.7000122,0-1.2999878,0.5999999-1.2999878,1.3000002
						s0.6000061,1.3000002,1.2999878,1.3000002S382.6999817,6.7000003,382.6999817,6S382.2000122,4.6999998,381.3999939,4.6999998z
						 M381.3999939,6.8000002c-0.5,0-0.7999878-0.4000001-0.7999878-0.8000002S381,5.1999998,381.3999939,5.1999998
						c0.5,0,0.7999878,0.4000001,0.7999878,0.8000002S381.8999939,6.8000002,381.3999939,6.8000002z"/>
				</g>
			</g>
			<g>
				<g>
					<circle class="st0" cx="382.8999939" cy="4.5" r="0.200006"/>
				</g>
			</g>
		</g>
		<g>
			<g>
				<path class="st0" d="M373.1000061,4.3000002C372.8999939,4.4000001,372.7000122,4.4000001,372.5,4.5
					c0.2000122-0.0999999,0.3999939-0.4000001,0.5-0.5999999C372.7999878,4,372.6000061,4.0999999,372.2999878,4.2000003
					c-0.2000122-0.1999998-0.5-0.4000001-0.7999878-0.4000001c-0.6000061,0-1.1000061,0.5-1.1000061,1.0999999
					c0,0.0999999,0,0.1999998,0,0.3000002c-0.8999939,0-1.7000122-0.5-2.2999878-1.2000003
					C368,4.1999998,367.8999939,4.4000001,367.8999939,4.5999999c0,0.4000001,0.2000122,0.6999998,0.5,0.9000001
					c-0.2000122,0-0.3999939-0.0999999-0.5-0.0999999l0,0c0,0.5,0.3999939,1,0.8999939,1.0999999
					c-0.1000061,0-0.2000122,0-0.2999878,0c-0.1000061,0-0.1000061,0-0.2000122,0c0.1000061,0.4000001,0.5,0.8000002,1,0.8000002
					c-0.3999939,0.3000002-0.8999939,0.5-1.3999939,0.5c-0.1000061,0-0.2000122,0-0.2999878,0
					c0.5,0.3000002,1.1000061,0.5,1.7000122,0.5c2,0,3.1000061-1.6999998,3.1000061-3.0999999V5.0999999
					C372.7999878,4.6999998,373,4.5,373.1000061,4.3000002z"/>
			</g>
		</g>
		<g>
			<g>
				<path class="st0" d="M360.7000122,5.1999998V4.5c0-0.1999998,0.2000122-0.3000002,0.2999878-0.3000002h0.2999878V3.3h-0.7000122
					c-0.6000061,0-1,0.5-1,1.0000002v0.8000002h-0.7000122V6h0.7000122v2.6999998h1V6h0.7000122l0.2999878-0.8000002H360.7000122z"
					/>
			</g>
		</g>
	</g>
	<rect x="22.1000004" y="5.0999999" class="st0" width="23.4999981" height="1.7999997"/>
	<rect x="55.5999985" y="5.0999999" class="st0" width="23.5" height="1.7999997"/>
	<rect x="89.0999985" y="5.0999999" class="st0" width="23.5" height="1.7999997"/>
</g>
</svg>
