<?xml version="1.0" encoding="utf-8"?>
<!-- Generator: Adobe Illustrator 21.0.0, SVG Export Plug-In . SVG Version: 6.00 Build 0)  -->
<svg version="1.1" id="Layer_1" xmlns="http://www.w3.org/2000/svg" width="420" height="80" xmlns:xlink="http://www.w3.org/1999/xlink" x="0px" y="0px"
	 viewBox="0 0 420 80" style="enable-background:new 0 0 420 80;" xml:space="preserve">
<style type="text/css">
	.st0{fill:#222222;}
	.st1{fill:#E1E1E1;}
	.st2{fill:#32AB2F;}
	.st3{enable-background:new    ;}
	.st4{fill:#FFFFFF;}
</style>
<g id="Middle">
	<g>
		<path class="st0" d="M175.7118225,63.3632584V45.1017647h2.937149v15.7074356h7.6621704v2.5540581H175.7118225z"/>
		<path class="st0" d="M205.7219543,54.1686592c0,2.9371605-0.7662201,5.2358093-2.1709442,6.8959503
			c-1.4047241,1.6601334-3.5756836,2.4263535-6.257431,2.4263535c-2.8094635,0-4.8527069-0.7662163-6.3851471-2.4263535
			c-1.5324249-1.6601372-2.1709442-3.958786-2.1709442-7.0236511s0.7662201-5.3635139,2.1709442-6.8959465
			s3.5756836-2.4263496,6.3851471-2.4263496c2.6817474,0,4.8526917,0.7662163,6.257431,2.4263496
			C204.9557343,48.8051453,205.7219543,51.2314987,205.7219543,54.1686592z M191.8023529,54.1686592
			c0,2.2986488,0.5108185,3.9587822,1.4047394,5.1081085c0.8939056,1.1493263,2.298645,1.7878418,4.0864868,1.7878418
			s3.0648651-0.5108147,3.958786-1.6601372c0.8939209-1.1493263,1.4047241-2.8094597,1.4047241-5.1081085
			s-0.5108185-3.9587822-1.2770233-5.1081085c-0.7662201-1.1493225-2.1709595-1.787838-3.958786-1.787838
			c-1.7878418,0-3.1925659,0.6385155-4.0864868,1.787838S191.8023529,51.8700104,191.8023529,54.1686592z"/>
		<path class="st0" d="M217.0874939,53.4024429h6.7682495v9.1945953c-1.1493225,0.3831062-2.1709442,0.6385117-3.1925659,0.7662125
			s-2.0432434,0.2554054-3.3202667,0.2554054c-2.8094635,0-4.8527069-0.7662125-6.3851471-2.4263535
			c-1.5324249-1.6601334-2.298645-3.9587822-2.298645-6.8959465c0-2.9371605,0.8939209-5.2358093,2.5540619-6.8959465
			c1.6601257-1.6601334,3.9587708-2.4263496,7.0236511-2.4263496c1.9155273,0,3.7033691,0.3831062,5.3635101,1.1493225
			l-1.0216217,2.4263535c-1.5324402-0.6385155-2.9371643-1.0216217-4.4695892-1.0216217
			c-1.9155426,0-3.4479828,0.6385117-4.5973053,1.787838c-1.1493225,1.2770271-1.6601257,2.9371605-1.6601257,4.9804039
			c0,2.170948,0.5108032,3.958786,1.5324249,5.1081123s2.4263611,1.7878418,4.3419037,1.7878418
			c1.0216217,0,2.0432281-0.1277008,3.0648651-0.38311v-4.7249985h-3.8310852L217.0874939,53.4024429L217.0874939,53.4024429z"/>
		<path class="st0" d="M244.2881775,54.1686592c0,2.9371605-0.7662048,5.2358093-2.170929,6.8959503
			c-1.4047394,1.6601334-3.5756836,2.4263535-6.2574463,2.4263535c-2.8094482,0-4.8527069-0.7662163-6.3851318-2.4263535
			c-1.5324249-1.660141-2.1709442-3.958786-2.1709442-7.0236511s0.7662048-5.3635139,2.1709442-6.8959465
			c1.4047241-1.5324326,3.5756836-2.4263496,6.3851318-2.4263496c2.6817627,0,4.8527069,0.7662163,6.2574463,2.4263496
			C243.6496735,48.9328461,244.2881775,51.2314987,244.2881775,54.1686592z M230.3685913,54.1686592
			c0,2.2986488,0.5108032,3.9587822,1.4047241,5.1081085c0.8939056,1.1493263,2.298645,1.7878418,4.0864868,1.7878418
			c1.7878265,0,3.0648651-0.5108147,3.9587708-1.6601372c0.8939209-1.1493187,1.4047394-2.8094597,1.4047394-5.1081085
			s-0.3831177-3.9587822-1.2770386-5.1081085c-0.8939056-1.1493225-2.1709442-1.787838-3.9587708-1.787838
			c-1.7878418,0-3.1925812,0.6385155-4.0864868,1.787838C231.0070953,50.3375778,230.3685913,51.8700104,230.3685913,54.1686592z"/>
	</g>
	<g id="Icons">
		<path d="M379.7119141,48.4794502v-0.0029297c-0.0292969-0.6484375-0.5556641-1.1567383-1.1962891-1.1567383h-1.9638672
			c-0.2890625-2.140625-2.0908203-3.7382812-4.2441406-3.7382812c-2.1728516,0-3.9755859,1.5976562-4.2480469,3.7382812h-1.9404297
			c-0.6591797,0-1.1962891,0.5317383-1.1953125,1.1801758l-0.5517578,14.0087891
			c-0.0253906,0.5869141,0.1855469,1.1611328,0.578125,1.5771446c0.4042969,0.4306641,0.9355469,0.6582031,1.5371094,0.6582031
			h11.640625c0.5761719,0,1.1083984-0.2285156,1.5458984-0.6660156c0.3671875-0.4169884,0.5703125-0.9638634,0.5693359-1.5468712
			L379.7119141,48.4794502z M368.9375,51.3056221c0.5107422,0,0.9111328-0.4003906,0.9111328-0.9111328v-1.2734375h4.9785156
			v1.2734375c0,0.5107422,0.4003906,0.9111328,0.9111328,0.9111328s0.9111328-0.4003906,0.9111328-0.9111328v-1.2734375h1.3183594
			l0.5175781,13.3652344c-0.0117188,0.1240234-0.0605469,0.2392578-0.1308594,0.3095703
			c-0.0654297,0.0664062-0.1503906,0.1054688-0.2265625,0.1054688h-11.640625c-0.0947266,0-0.1777344-0.0351562-0.2480469-0.1074219
			c-0.0429688-0.0419922-0.0800781-0.0976562-0.0673828-0.2314453l0.515625-13.4414062h1.3388672v1.2734375
			C368.0263672,50.9052315,368.4267578,51.3056221,368.9375,51.3056221z M369.8720703,47.3007393
			c0.2714844-1.1054688,1.2880859-1.918457,2.4355469-1.918457c1.1679688,0,2.1660156,0.8041992,2.4355469,1.9355469
			L369.8720703,47.3007393z"/>
		<g>
			<circle class="st1" cx="388.7189331" cy="55.6611443" r="6.0893879"/>
			<path class="st0" d="M390.1646729,53.3650322c-0.3277283-0.4991417-0.8110046-0.7490921-1.4483643-0.7490921
				c-0.6524353,0-1.1387329,0.2386246-1.4573975,0.7166214c-0.3186646,0.4772453-0.4787598,1.2195435-0.4787598,2.2261353
				c0,0.9605293,0.1646423,1.6892319,0.4923706,2.1861115c0.3276978,0.4968758,0.8094788,0.7453156,1.4437866,0.7453156
				c0.6569824,0,1.14328-0.2401314,1.4619446-0.7219086c0.3186646-0.4810181,0.4787598-1.218029,0.4787598-2.2095184
				C390.6570129,54.5966568,390.4924011,53.864933,390.1646729,53.3650322z M389.4880676,57.2177238
				c-0.1631165,0.3382988-0.4198608,0.5074501-0.771759,0.5074501c-0.3503723,0-0.6071167-0.1661301-0.7672119-0.4991417
				c-0.1585693-0.3330154-0.2386169-0.8887939-0.2386169-1.6673355c0-0.7777863,0.0800476-1.3343201,0.2386169-1.6703568
				c0.1600952-0.3352776,0.4168396-0.5036736,0.7672119-0.5036736c0.3518982,0,0.6086426,0.1714172,0.771759,0.5134926
				c0.1615906,0.3420753,0.2431641,0.8955879,0.2431641,1.6605377
				C389.7312317,56.3266678,389.6496582,56.879425,389.4880676,57.2177238z"/>
		</g>
		<path d="M333.0869141,51.9325752c-0.2324219-2.9980469-2.7744141-5.4116211-5.7861328-5.4951172
			c-1.5429688-0.0483398-3.1367188,0.5527344-4.3007812,1.6347656c-1.1201172-1.0493164-2.5927734-1.6386719-4.0878906-1.6386719
			c-0.0693359,0-0.1396484,0.0014648-0.2099609,0.0039062c-3.015625,0.0834961-5.5585938,2.4980469-5.7900391,5.4951172
			c-0.0214844,0.2470703-0.0214844,0.5117188-0.0205078,0.7724609c0.0419922,1.0888672,0.5029297,2.1728516,1.296875,3.0527344
			l7.6748047,8.4960899c0.2871094,0.3134766,0.7119141,0.5019531,1.1367188,0.5019531
			c0.4169922,0,0.8369141-0.1826172,1.1582031-0.5048828l7.6523438-8.4931602
			c0.7832031-0.8681641,1.2324219-1.9257812,1.2978516-3.0683594
			C333.1083984,52.4511299,333.1083984,52.1806221,333.0869141,51.9325752z M322.2246094,50.0253487
			c0.1630859,0.2294922,0.4433594,0.3662109,0.7509766,0.3681641c0.0009766,0,0.0019531,0,0.0039062,0
			c0.3076172,0,0.5908203-0.1376953,0.7568359-0.3681641c0.7978516-1.1162109,2.1123047-1.7724609,3.4970703-1.7304688
			c2.0634766,0.0703125,3.8212891,1.7333984,4,3.7880859c0.0175781,0.1806641,0.0175781,0.3603516,0.0185547,0.5273438
			c-0.0361328,0.6904297-0.3251953,1.3603516-0.8173828,1.8867188L323,62.749958l-7.4345703-8.2539062
			c-0.4921875-0.5439453-0.7822266-1.2089844-0.8164062-1.8652344c0-0.1894531,0-0.3681641,0.0175781-0.5556641
			c0.1621094-2.0664062,1.90625-3.7265625,3.9658203-3.7802734h0.1376953
			C320.2070312,48.2948799,321.4609375,48.9413643,322.2246094,50.0253487z"/>
		<g>
			<circle class="st2" cx="341.5277405" cy="55.6611443" r="6.0893879"/>
			<g>
				<g class="st3">
					<path class="st4" d="M340.0053711,58.4521217l2.2835083-4.8207779h-2.7909851v-1.0149002h4.0596313v0.7611771
						l-2.2835388,5.074501H340.0053711z"/>
				</g>
			</g>
		</g>
	</g>
	<g id="Mob_menu">
		<path class="st0" d="M26.0180492,48.2646523h22.7089901c0.5654449,0,1.0248032-0.4598885,1.0248032-1.0253334
			s-0.4593582-1.0253296-1.0248032-1.0253296H26.0180492c-0.5654449,0-1.0258617,0.4598846-1.0258617,1.0253296
			S25.4526043,48.2646523,26.0180492,48.2646523z"/>
		<path class="st0" d="M48.7270393,53.1435928H26.0180492c-0.5654449,0-1.0258617,0.4598885-1.0258617,1.0253334
			c0,0.5654411,0.4604168,1.0253296,1.0258617,1.0253296h22.7089901c0.5654449,0,1.0248032-0.4598885,1.0248032-1.0253296
			C49.7518425,53.6034813,49.2924843,53.1435928,48.7270393,53.1435928z"/>
		<path class="st0" d="M48.7270393,60.0726662H26.0180492c-0.5654449,0-1.0258617,0.4604187-1.0258617,1.0258636
			s0.4604168,1.0247993,1.0258617,1.0247993h22.7089901c0.5654449,0,1.0248032-0.4593544,1.0248032-1.0247993
			S49.2924843,60.0726662,48.7270393,60.0726662z"/>
	</g>
</g>
<g id="Top_header">
	<rect x="-0.0078431" y="0.0208321" class="st0" width="420.0494995" height="28.3125"/>
	<g id="Social">
		<g>
			<g>
				<path class="st4" d="M274.619751,7.624999c-3.6574097,0-5.6080017,2.1944437-5.6080017,4.8765421
					c0,1.2191362,0.7314453,2.6820984,1.7068176,3.1697531c0.2438354,0,0.2438354,0,0.2438354,0
					s0.243866-0.7314816,0.243866-0.9753084V14.452158c-0.243866-0.4876537-0.7314758-1.2191362-0.7314758-1.70679
					c0-1.706789,1.4629822-3.413579,3.6574097-3.413579c1.950592,0,3.4135742,1.2191353,3.4135742,3.1697521
					c0,2.1944447-1.2191467,3.6574078-2.6820984,3.6574078c-0.7314758,0-1.4629822-0.7314825-1.2191467-1.4629631
					c0.2438354-0.9753084,0.7314453-1.9506178,0.7314453-2.6820984c0-0.7314816-0.2438354-1.2191353-0.9752808-1.2191353
					c-0.7314758,0-1.4629822,0.7314816-1.4629822,1.9506178c0,0.7314816,0.2438354,1.2191353,0.2438354,1.2191353
					s-0.7314453,3.4135809-0.9752808,3.9012346c-0.243866,0.9753075,0,2.6820984,0,2.9259262c0,0,0,0,0.2438354,0
					c0,0,0.9752808-1.4629631,1.4629822-2.6820984c0-0.4876537,0.4876709-1.9506168,0.4876709-1.9506168
					c0.2438354,0.4876537,0.9753113,0.9753075,1.950592,0.9753075c2.4382629,0,4.388855-2.1944447,4.388855-4.8765421
					S277.5457153,7.624999,274.619751,7.624999z"/>
			</g>
		</g>
		<g>
			<g>
				<path class="st4" d="M241.8832092,12.9891949v2.6820984h3.6574097c-0.4876862,1.4629631-1.950592,2.6820984-3.6574097,2.6820984
					c-2.1944275,0-3.9012451-1.706789-3.9012451-3.9012337s1.7068176-3.9012337,3.9012451-3.9012337
					c0.975296,0,1.9505768,0.2438269,2.4382629,0.9753084l1.7068176-2.1944437
					c-1.2191315-0.9753094-2.6821136-1.70679-4.1450806-1.70679c-3.6574097,0-6.5833588,2.9259253-6.5833588,6.5833321
					s2.9259491,6.583333,6.5833588,6.583333s6.5833588-2.9259262,6.5833588-6.583333v-1.2191362H241.8832092L241.8832092,12.9891949
					z"/>
			</g>
		</g>
		<g>
			<g>
				<g>
					<path class="st4" d="M210.3657227,7.624999h-4.8765411c-2.1944275,0-4.1450958,1.9506168-4.1450958,4.1450605v4.876543
						c0,2.1944447,1.950592,4.1450615,4.1450958,4.1450615h4.8765411c2.1944275,0,4.1450958-1.9506187,4.1450958-4.1450615
						v-4.876543C214.5108185,9.5756159,212.8040009,7.624999,210.3657227,7.624999z M213.291687,16.6466026
						c0,1.706789-1.2191467,2.9259262-2.9259644,2.9259262h-4.8765411c-1.7068176,0-2.9259491-1.2191372-2.9259491-2.9259262
						v-4.876543c0-1.706789,1.2191315-2.9259253,2.9259491-2.9259253h4.8765411
						c1.7068176,0,2.9259644,1.2191362,2.9259644,2.9259253V16.6466026z"/>
				</g>
			</g>
			<g>
				<g>
					<path class="st4" d="M207.9274597,11.038578c-1.7068176,0-3.1697235,1.4629622-3.1697235,3.1697531
						s1.4629669,3.1697531,3.1697235,3.1697531c1.7067413,0,3.1697235-1.4629631,3.1697235-3.1697531
						S209.8781128,11.038578,207.9274597,11.038578z M207.9274597,16.1589489c-1.2191467,0-1.950592-0.9753094-1.950592-1.9506178
						s0.975296-1.9506178,1.950592-1.9506178c1.2191315,0,1.9505768,0.9753084,1.9505768,1.9506178
						S209.1465912,16.1589489,207.9274597,16.1589489z"/>
				</g>
			</g>
			<g>
				<g>
					<circle class="st4" cx="211.5848541" cy="10.5509243" r="0.4876723"/>
				</g>
			</g>
		</g>
		<g>
			<g>
				<path class="st4" d="M181.2865906,10.0632706c-0.4876862,0.2438269-0.975296,0.2438269-1.4629822,0.4876537
					c0.4876862-0.2438269,0.975296-0.9753084,1.2191467-1.4629622c-0.4876862,0.2438269-0.975296,0.4876537-1.7068176,0.7314816
					c-0.4876862-0.4876537-1.2191467-0.9753084-1.950592-0.9753084c-1.4629822,0-2.6821136,1.2191353-2.6821136,2.6820974
					c0,0.2438269,0,0.4876537,0,0.7314816c-2.1944275,0-4.1450958-1.2191353-5.6080017-2.9259253
					c-0.2438354,0.4876537-0.4876862,0.9753084-0.4876862,1.4629622c0,0.9753084,0.4876862,1.706789,1.2191467,2.1944437
					c-0.4876862,0-0.975296-0.2438269-1.2191467-0.2438269l0,0c0,1.2191362,0.975296,2.4382715,2.1944427,2.6820984
					c-0.2438507,0-0.4876862,0-0.7314606,0c-0.2438354,0-0.2438354,0-0.4876862,0
					c0.2438507,0.9753084,1.2191467,1.9506178,2.4382782,1.9506178c-0.975296,0.7314816-2.1944275,1.2191353-3.4135742,1.2191353
					c-0.2438354,0-0.4876709,0-0.7314453,0c1.2191315,0.7314835,2.6821136,1.2191372,4.1450958,1.2191372
					c4.8765411,0,7.5586548-4.1450624,7.5586548-7.5586424v-0.2438278
					C180.555069,11.038578,181.0427551,10.5509243,181.2865906,10.0632706z"/>
			</g>
		</g>
		<g>
			<g>
				<path class="st4" d="M144.6488037,12.2577133v-1.706789c0-0.4876537,0.4876862-0.7314816,0.7314453-0.7314816h0.7314606
					V7.624999h-1.7068176c-1.4629822,0-2.4382782,1.2191353-2.4382782,2.4382715v1.9506168h-1.7068176v2.1944437h1.7068176v6.583333
					h2.4382782v-6.583333h1.7068176l0.7314453-1.9506178H144.6488037z"/>
			</g>
		</g>
	</g>
</g>
</svg>
