<?xml version="1.0" encoding="utf-8"?>
<!-- Generator: Adobe Illustrator 21.0.0, SVG Export Plug-In . SVG Version: 6.00 Build 0)  -->
<svg version="1.1" id="Layer_1" xmlns="http://www.w3.org/2000/svg" width="420" height="80" xmlns:xlink="http://www.w3.org/1999/xlink" x="0px" y="0px"
	 viewBox="0 0 420 80" style="enable-background:new 0 0 420 80;" xml:space="preserve">
<style type="text/css">
	.st0{fill:#222222;}
	.st1{fill:#FFFFFF;}
	.st2{fill:#888888;}
</style>
<g id="Bottom">
	<g>
		<path class="st0" d="M175.7118225,74.302536V56.0410423h2.937149v15.7074318h7.6621704v2.5540619H175.7118225z"/>
		<path class="st0" d="M205.7219543,65.1079407c0,2.9371643-0.7662201,5.2358093-2.1709442,6.8959503
			c-1.4047241,1.6601257-3.5756836,2.4263458-6.257431,2.4263458c-2.8094635,0-4.8527069-0.7662048-6.3851471-2.4263458
			c-1.5324249-1.660141-2.1709442-3.958786-2.1709442-7.0236511c0-3.0648689,0.7662201-5.3635139,2.1709442-6.8959465
			s3.5756836-2.4263535,6.3851471-2.4263535c2.6817474,0,4.8526917,0.7662201,6.257431,2.4263535
			C204.9557343,59.7444267,205.7219543,62.1707802,205.7219543,65.1079407z M191.8023529,65.1079407
			c0,2.298645,0.5108185,3.958786,1.4047394,5.1081085c0.8939056,1.1493225,2.298645,1.7878418,4.0864868,1.7878418
			s3.0648651-0.5108185,3.958786-1.660141s1.4047241-2.8094635,1.4047241-5.1081085
			c0-2.2986488-0.5108185-3.9587822-1.2770233-5.1081047c-0.7662201-1.1493225-2.1709595-1.7878418-3.958786-1.7878418
			c-1.7878418,0-3.1925659,0.6385193-4.0864868,1.7878418S191.8023529,62.8092918,191.8023529,65.1079407z"/>
		<path class="st0" d="M217.0874939,64.3417206h6.7682495v9.1945953c-1.1493225,0.3831024-2.1709442,0.6385193-3.1925659,0.7662201
			s-2.0432434,0.2554016-3.3202667,0.2554016c-2.8094635,0-4.8527069-0.7662201-6.3851471-2.4263611
			c-1.5324249-1.6601257-2.298645-3.9587708-2.298645-6.8959351c0-2.9371681,0.8939209-5.2358131,2.5540619-6.8959541
			c1.6601257-1.6601334,3.9587708-2.4263458,7.0236511-2.4263458c1.9155273,0,3.7033691,0.3831024,5.3635101,1.1493225
			l-1.0216217,2.4263535c-1.5324402-0.6385193-2.9371643-1.0216217-4.4695892-1.0216217
			c-1.9155426,0-3.4479828,0.6385117-4.5973053,1.7878342c-1.1493225,1.2770309-1.6601257,2.9371643-1.6601257,4.9804115
			c0,2.1709442,0.5108032,3.958786,1.5324249,5.1081085s2.4263611,1.7878418,4.3419037,1.7878418
			c1.0216217,0,2.0432281-0.1277008,3.0648651-0.3831177v-4.7249908h-3.8310852L217.0874939,64.3417206L217.0874939,64.3417206z"/>
		<path class="st0" d="M244.2881775,65.1079407c0,2.9371643-0.7662048,5.2358093-2.170929,6.8959503
			c-1.4047394,1.6601257-3.5756836,2.4263458-6.2574463,2.4263458c-2.8094482,0-4.8527069-0.7662048-6.3851318-2.4263458
			s-2.1709442-3.958786-2.1709442-7.0236511c0-3.0648689,0.7662048-5.3635139,2.1709442-6.8959465
			c1.4047241-1.5324326,3.5756836-2.4263535,6.3851318-2.4263535c2.6817627,0,4.8527069,0.7662201,6.2574463,2.4263535
			C243.6496735,59.8721275,244.2881775,62.1707802,244.2881775,65.1079407z M230.3685913,65.1079407
			c0,2.298645,0.5108032,3.958786,1.4047241,5.1081085c0.8939056,1.1493225,2.298645,1.7878418,4.0864868,1.7878418
			c1.7878265,0,3.0648651-0.5108185,3.9587708-1.660141c0.8939209-1.1493225,1.4047394-2.8094635,1.4047394-5.1081085
			c0-2.2986488-0.3831177-3.9587822-1.2770386-5.1081047c-0.8939056-1.1493225-2.1709442-1.7878418-3.9587708-1.7878418
			c-1.7878418,0-3.1925812,0.6385193-4.0864868,1.7878418C231.0070953,61.2768593,230.3685913,62.8092918,230.3685913,65.1079407z"
			/>
	</g>
</g>
<g id="Middle">
	<rect x="-0.003125" y="21.9895821" class="st0" width="420.0062561" height="27.7292461"/>
	<g>
		<path class="st1" d="M394.1842957,31.8935966v-0.002079c-0.020813-0.46031-0.3944397-0.8211403-0.8491516-0.8211403h-1.3940125
			c-0.2051697-1.5195732-1.4841003-2.6537094-3.0125732-2.6537094c-1.5423584,0-2.8219604,1.1341362-3.0153809,2.6537094h-1.3773499
			c-0.4678955,0-0.8491516,0.3774681-0.8484497,0.8377781l-0.3916626,9.944479
			c-0.0180359,0.4166374,0.1317139,0.8242607,0.4103699,1.1195793c0.2869873,0.3057175,0.6640625,0.4672394,1.0910645,0.4672394
			h8.2627869c0.4089966,0,0.7867737-0.1622162,1.0973206-0.4727859c0.2606506-0.2960129,0.4048157-0.6842232,0.4041138-1.0980873
			L394.1842957,31.8935966z M386.5363464,33.8998222c0.3625488,0,0.646759-0.2842255,0.646759-0.6467896v-0.9039803h3.5338745
			v0.9039803c0,0.3625641,0.2842102,0.6467896,0.6467285,0.6467896c0.3625488,0,0.646759-0.2842255,0.646759-0.6467896v-0.9039803
			h0.935791l0.3674011,9.4876404c-0.0083313,0.0880394-0.0429993,0.1698418-0.0928955,0.2197533
			c-0.0464478,0.047142-0.1067505,0.0748711-0.1608276,0.0748711h-8.2627869c-0.0672302,0-0.1261597-0.0249557-0.1760559-0.0762558
			c-0.0305176-0.029808-0.0568542-0.0693245-0.0478516-0.164299l0.3660278-9.5417099h0.9503479v0.9039803
			C385.8896179,33.6155968,386.1738281,33.8998222,386.5363464,33.8998222z M387.1997375,31.05686
			c0.1927185-0.7847443,0.9143066-1.3618641,1.7288208-1.3618641c0.8290405,0,1.5374756,0.5708809,1.7287903,1.3739948
			L387.1997375,31.05686z"/>
		<path class="st1" d="M307.3547058,33.3284225c-0.164978-2.1282368-1.9693604-3.8415699-4.1071472-3.9008427
			c-1.0952148-0.0343151-2.2265015,0.3923721-3.0527954,1.1604786c-0.7950745-0.7448826-1.8403931-1.1632519-2.9016724-1.1632519
			c-0.0492249,0-0.0991211,0.0010414-0.1490479,0.0027733c-2.1405334,0.0592728-3.9456177,1.7733002-4.1098938,3.9008427
			c-0.0152588,0.1753883-0.0152588,0.3632584-0.0145569,0.5483513c0.0298157,0.7729607,0.3569946,1.54245,0.9205627,2.167057
			l5.4477539,6.0311584c0.2037964,0.2225304,0.5053406,0.3563271,0.8068542,0.3563271
			c0.29599,0,0.5940857-0.1296349,0.8221436-0.3584061l5.4317932-6.0290794
			c0.5559387-0.6162872,0.8748169-1.3670616,0.9212646-2.1781502
			C307.3699646,33.6965332,307.3699646,33.5045052,307.3547058,33.3284225z M299.6443787,31.9745312
			c0.1157532,0.1629124,0.3146973,0.2599659,0.5330505,0.2613506c0.0007019,0,0.0014038,0,0.0027771,0
			c0.2183533,0,0.4193726-0.097744,0.5372314-0.2613506c0.5663452-0.7923679,1.4993591-1.2582245,2.4822998-1.2284145
			c1.4646912,0.0499134,2.7124329,1.2304955,2.8392944,2.689064c0.0124817,0.1282501,0.0124817,0.255806,0.0131836,0.3743477
			c-0.0256653,0.4901199-0.230835,0.9656792-0.5802002,1.3393364l-5.2772522,5.8585434l-5.2772217-5.8592377
			c-0.3493652-0.3861351-0.5552368-0.8582268-0.5794983-1.3240814c0-0.134491,0-0.2613525,0.0124817-0.3944511
			c0.1150513-1.4668903,1.3530884-2.6453934,2.815033-2.6835213h0.0977173
			C298.2122498,30.7461166,299.1022949,31.20504,299.6443787,31.9745312z"/>
		<path class="st1" d="M213.2232513,35.9336052c0.8103333-0.8249512,1.2678375-1.9265022,1.2678375-3.0807419
			c0-2.424942-1.9728088-4.3985882-4.397583-4.3985882c-2.4330902,0-4.4121246,1.9736462-4.4121246,4.3985882
			c0,1.1542397,0.457489,2.2551003,1.2671356,3.0800514c-2.3401947,1.1979103-3.8867035,3.8710327-3.8867035,6.790947
			c0,0.3736534,0.3043213,0.6779861,0.677948,0.6779861h12.7068024c0.3743286,0,0.6786346-0.3043327,0.6786346-0.6793747
			C217.1106415,39.8067207,215.5585938,37.1342926,213.2232513,35.9336052z M211.6393127,35.4899368l-0.0658569,0.029808
			c-0.0214844,0.0110931-0.0519867,0.0263443-0.0852509,0.0499115l-0.0145569,0.0076256
			c-0.4519653,0.2329292-0.9129333,0.3459282-1.409256,0.3459282c-1.6851349,0-3.0555725-1.3705292-3.0555725-3.0557899
			c0-1.685257,1.3773651-3.0557861,3.0701294-3.0557861c1.6851349,0,3.0555725,1.3705292,3.0555725,3.0557861
			C213.1345215,33.9356995,212.5681915,34.9325714,211.6393127,35.4899368z M211.922821,36.836895
			c2.0372772,0.6876907,3.5615997,2.7840385,3.7958984,5.1937294h-11.2774506
			c0.247467-2.4138489,1.7710876-4.5095062,3.793808-5.1937294C209.4051666,37.3859367,210.7527313,37.3859367,211.922821,36.836895
			z"/>
		<path class="st1" d="M130.2307892,41.9910698l-3.3876877-3.375c0.8481445-1.0986328,1.3120041-2.4448242,1.3120041-3.8251953
			c0-3.4321289-2.7919846-6.2241211-6.2241135-6.2241211c-3.4243164,0-6.2099609,2.7856445-6.2099609,6.2099609
			c0,3.4321289,2.7919922,6.2241211,6.2241211,6.2241211c1.3867188,0,2.7338867-0.46875,3.8286133-1.3256836l3.3857346,3.3730469
			c0.1479492,0.1474609,0.3354492,0.2290039,0.5288086,0.2290039c0.190918,0,0.3789062-0.0786133,0.4907227-0.1933594
			c0.1015625-0.0849609,0.2304688-0.2416992,0.2666016-0.550293
			C130.4456329,42.3284721,130.3650665,42.1258354,130.2307892,41.9910698z M126.6541367,34.7908745
			c0,2.5961914-2.1186523,4.7084961-4.7231445,4.7084961c-2.5961914,0-4.7084961-2.1186523-4.7084961-4.7226562
			c0-2.5966797,2.1186523-4.7089844,4.7226562-4.7089844C124.541832,30.0677299,126.6541367,32.1863823,126.6541367,34.7908745z"/>
		<g id="Mob_menu_1_">
			<path class="st1" d="M26.1969929,31.7369576h16.1193752c0.4013596,0,0.7274246-0.3264599,0.7274246-0.7278557
				c0-0.4013939-0.3260651-0.7278538-0.7274246-0.7278538H26.1969929c-0.4013634,0-0.7281799,0.3264599-0.7281799,0.7278538
				C25.4688129,31.4104977,25.7956295,31.7369576,26.1969929,31.7369576z"/>
			<path class="st1" d="M42.3163681,35.2003937H26.1969929c-0.4013634,0-0.7281799,0.3264618-0.7281799,0.7278557
				c0,0.4013977,0.3268166,0.7278557,0.7281799,0.7278557h16.1193752c0.4013596,0,0.7274246-0.326458,0.7274246-0.7278557
				C43.0437927,35.5268555,42.7177277,35.2003937,42.3163681,35.2003937z"/>
			<path class="st1" d="M42.3163681,40.1191711H26.1969929c-0.4013634,0-0.7281799,0.3268318-0.7281799,0.7282295
				c0,0.4013939,0.3268166,0.727478,0.7281799,0.727478h16.1193752c0.4013596,0,0.7274246-0.3260841,0.7274246-0.727478
				C43.0437927,40.446003,42.7177277,40.1191711,42.3163681,40.1191711z"/>
		</g>
	</g>
</g>
<g id="Top">
	<g id="Promo_text">
		<g>
			<polygon class="st0" points="111.171875,15.2212715 112.6113281,15.2212715 112.6113281,11.5767403 115.9584961,11.5767403 
				115.9584961,10.3438301 112.6113281,10.3438301 112.6113281,7.5679512 116.1831055,7.5679512 116.1831055,6.3409004 
				111.171875,6.3409004 			"/>
			<path class="st0" d="M119.8916016,8.7339668c-0.3583984,0.2348633-0.6489258,0.5527344-0.871582,0.9536133h-0.0727539
				l-0.1884766-1.1845703h-1.1176758v6.7182617h1.4272461v-3.5107422c0-0.5952148,0.1772461-1.0791016,0.5317383-1.4516602
				c0.3540039-0.3725586,0.8168945-0.559082,1.3876953-0.559082c0.21875,0,0.4291992,0.0244141,0.6318359,0.0727539
				l0.1396484-1.3300781c-0.1860352-0.0405273-0.4228516-0.0605469-0.7104492-0.0605469
				C120.6357422,8.381916,120.25,8.4991035,119.8916016,8.7339668z"/>
			<path class="st0" d="M125.6772461,8.381916c-0.9560547,0-1.7070312,0.3134766-2.2539062,0.9414062
				c-0.5463867,0.6274414-0.8198242,1.4902344-0.8198242,2.5874023c0,1.0693359,0.2944336,1.9082031,0.8837891,2.5180664
				c0.5893555,0.609375,1.40625,0.9140625,2.4506836,0.9140625c0.4580078,0,0.8647461-0.034668,1.2211914-0.1035156
				s0.7084961-0.1860352,1.0566406-0.3520508v-1.1601562c-0.3925781,0.1738281-0.7602539,0.2983398-1.1020508,0.3735352
				c-0.3422852,0.074707-0.7119141,0.1123047-1.1088867,0.1123047c-0.6035156,0-1.0708008-0.175293-1.402832-0.5253906
				s-0.5083008-0.8515625-0.5288086-1.503418h4.4770508v-0.7714844c0-0.9433594-0.2573242-1.6845703-0.7714844-2.2231445
				C127.2641602,8.650959,126.5639648,8.381916,125.6772461,8.381916z M124.0976562,11.1514473
				c0.0527344-0.5507812,0.2158203-0.9697266,0.4892578-1.2573242c0.2729492-0.2875977,0.6367188-0.4311523,1.090332-0.4311523
				c0.453125,0,0.8095703,0.1425781,1.0688477,0.4282227s0.3925781,0.7055664,0.4008789,1.2602539H124.0976562z"/>
			<path class="st0" d="M132.8447266,8.381916c-0.9560547,0-1.7070312,0.3134766-2.2539062,0.9414062
				c-0.5463867,0.6274414-0.8198242,1.4902344-0.8198242,2.5874023c0,1.0693359,0.2944336,1.9082031,0.8837891,2.5180664
				c0.5893555,0.609375,1.40625,0.9140625,2.4506836,0.9140625c0.4580078,0,0.8647461-0.034668,1.2211914-0.1035156
				s0.7084961-0.1860352,1.0566406-0.3520508v-1.1601562c-0.3925781,0.1738281-0.7602539,0.2983398-1.1020508,0.3735352
				c-0.3422852,0.074707-0.7119141,0.1123047-1.1088867,0.1123047c-0.6035156,0-1.0708008-0.175293-1.402832-0.5253906
				s-0.5083008-0.8515625-0.5288086-1.503418h4.4770508v-0.7714844c0-0.9433594-0.2573242-1.6845703-0.7714844-2.2231445
				C134.4316406,8.650959,133.7314453,8.381916,132.8447266,8.381916z M131.2651367,11.1514473
				c0.0527344-0.5507812,0.2158203-0.9697266,0.4892578-1.2573242c0.2729492-0.2875977,0.6367188-0.4311523,1.090332-0.4311523
				c0.453125,0,0.8095703,0.1425781,1.0688477,0.4282227s0.3925781,0.7055664,0.4008789,1.2602539H131.2651367z"/>
			<path class="st0" d="M144.3432617,11.8560371c-0.2509766-0.1782227-0.6538086-0.3745117-1.2084961-0.5888672
				c-0.6601562-0.2553711-1.0883789-0.4555664-1.284668-0.6015625c-0.1967773-0.1459961-0.2949219-0.3237305-0.2949219-0.534668
				c0-0.4291992,0.3764648-0.6435547,1.1298828-0.6435547c0.4941406,0,1.1035156,0.1499023,1.828125,0.4492188l0.4619141-1.0751953
				c-0.7045898-0.3198242-1.4516602-0.4794922-2.2412109-0.4794922c-0.7978516,0-1.4287109,0.1586914-1.8920898,0.4765625
				c-0.4638672,0.3178711-0.6958008,0.7646484-0.6958008,1.3393555c0,0.4780273,0.1367188,0.8666992,0.4101562,1.1665039
				c0.2734375,0.2993164,0.7963867,0.5991211,1.5703125,0.8989258c0.3964844,0.1538086,0.706543,0.2915039,0.9291992,0.4130859
				c0.2226562,0.1210938,0.3828125,0.2387695,0.4799805,0.3520508s0.1455078,0.2553711,0.1455078,0.425293
				c0,0.5307617-0.4394531,0.7958984-1.3178711,0.7958984c-0.6806641,0-1.4155273-0.1826172-2.2050781-0.546875v1.2329102
				c0.5424805,0.2714844,1.2612305,0.4072266,2.15625,0.4072266c0.8911133,0,1.5751953-0.175293,2.0532227-0.5253906
				c0.4775391-0.3505859,0.7167969-0.8535156,0.7167969-1.5097656c0-0.3237305-0.0610352-0.6020508-0.1821289-0.8349609
				C144.7807617,12.2398262,144.5942383,12.0342598,144.3432617,11.8560371z"/>
			<path class="st0" d="M150.0952148,8.381916c-0.4614258,0-0.8657227,0.0888672-1.2119141,0.2670898
				s-0.6162109,0.4291992-0.8105469,0.7529297h-0.0913086c0.0488281-0.4370117,0.0727539-0.8481445,0.0727539-1.2329102V5.7696114
				h-1.4272461v9.4516602h1.4272461v-3.3349609c0-0.8417969,0.140625-1.4423828,0.4223633-1.8007812
				c0.28125-0.3583984,0.7216797-0.5375977,1.3212891-0.5375977c0.453125,0,0.7841797,0.1274414,0.9931641,0.3828125
				c0.2084961,0.2548828,0.3125,0.6416016,0.3125,1.1601562v4.1303711h1.4335938V10.841877
				C152.5371094,9.2017403,151.7231445,8.381916,150.0952148,8.381916z"/>
			<path class="st0" d="M155.2460938,5.9278145c-0.2592773,0-0.4584961,0.0688477-0.5981445,0.206543
				s-0.2094727,0.3339844-0.2094727,0.5888672c0,0.2431641,0.0698242,0.4345703,0.2094727,0.5742188
				s0.3388672,0.2094727,0.5981445,0.2094727c0.2509766,0,0.4467773-0.0698242,0.5864258-0.2094727
				s0.2094727-0.3310547,0.2094727-0.5742188c0-0.2548828-0.0698242-0.4511719-0.2094727-0.5888672
				S155.4970703,5.9278145,155.2460938,5.9278145z"/>
			<rect x="154.5234375" y="8.5030098" class="st0" width="1.4272461" height="6.7182617"/>
			<path class="st0" d="M161.4243164,8.381916c-0.8911133,0-1.559082,0.3398438-2.0048828,1.0200195h-0.0727539
				c-0.1010742-0.4736328-0.1679688-0.7734375-0.2001953-0.8989258h-1.1542969v9.706543h1.4272461v-2.7514648
				c0-0.121582-0.0283203-0.465332-0.0849609-1.0327148h0.0849609c0.4697266,0.6118164,1.1298828,0.9174805,1.9804688,0.9174805
				c0.8378906,0,1.4951172-0.3076172,1.9711914-0.9233398c0.4755859-0.6157227,0.7133789-1.472168,0.7133789-2.5693359
				c0-1.0976562-0.2338867-1.949707-0.7016602-2.5571289C162.9155273,8.685627,162.262207,8.381916,161.4243164,8.381916z
				 M162.2197266,13.5689278c-0.2670898,0.4052734-0.6479492,0.6074219-1.1420898,0.6074219
				c-0.5869141,0-1.0102539-0.1831055-1.2695312-0.5498047c-0.2587891-0.3662109-0.3886719-0.9584961-0.3886719-1.7763672
				v-0.2128906c0-0.7285156,0.1308594-1.2592773,0.3920898-1.5913086s0.6748047-0.4980469,1.2421875-0.4980469
				c0.5141602,0,0.9038086,0.1933594,1.1689453,0.5800781s0.3979492,0.956543,0.3979492,1.7099609
				C162.6206055,12.5869942,162.4873047,13.1641426,162.2197266,13.5689278z"/>
			<path class="st0" d="M169.1748047,8.381916c-0.8911133,0-1.559082,0.3398438-2.0048828,1.0200195h-0.0727539
				c-0.1010742-0.4736328-0.1679688-0.7734375-0.2001953-0.8989258h-1.1542969v9.706543h1.4272461v-2.7514648
				c0-0.121582-0.0283203-0.465332-0.0849609-1.0327148h0.0849609c0.4697266,0.6118164,1.1298828,0.9174805,1.9804688,0.9174805
				c0.8378906,0,1.4951172-0.3076172,1.9711914-0.9233398c0.4755859-0.6157227,0.7133789-1.472168,0.7133789-2.5693359
				c0-1.0976562-0.2338867-1.949707-0.7016602-2.5571289C170.6660156,8.685627,170.0126953,8.381916,169.1748047,8.381916z
				 M169.9702148,13.5689278c-0.2670898,0.4052734-0.6479492,0.6074219-1.1420898,0.6074219
				c-0.5869141,0-1.0102539-0.1831055-1.2695312-0.5498047c-0.2587891-0.3662109-0.3886719-0.9584961-0.3886719-1.7763672
				v-0.2128906c0-0.7285156,0.1308594-1.2592773,0.3920898-1.5913086s0.6748047-0.4980469,1.2421875-0.4980469
				c0.5141602,0,0.9038086,0.1933594,1.1689453,0.5800781s0.3979492,0.956543,0.3979492,1.7099609
				C170.3710938,12.5869942,170.237793,13.1641426,169.9702148,13.5689278z"/>
			<path class="st0" d="M174.2158203,5.9278145c-0.2592773,0-0.4584961,0.0688477-0.5981445,0.206543
				s-0.2094727,0.3339844-0.2094727,0.5888672c0,0.2431641,0.0698242,0.4345703,0.2094727,0.5742188
				s0.3388672,0.2094727,0.5981445,0.2094727c0.2509766,0,0.4467773-0.0698242,0.5864258-0.2094727
				s0.2094727-0.3310547,0.2094727-0.5742188c0-0.2548828-0.0698242-0.4511719-0.2094727-0.5888672
				S174.4667969,5.9278145,174.2158203,5.9278145z"/>
			<rect x="173.4931641" y="8.5030098" class="st0" width="1.4272461" height="6.7182617"/>
			<path class="st0" d="M180.4545898,8.381916c-0.4536133,0-0.8666992,0.0869141-1.2392578,0.2607422
				c-0.3725586,0.1743164-0.6601562,0.4213867-0.8623047,0.7412109h-0.0732422l-0.2001953-0.8808594h-1.1176758v6.7182617h1.4272461
				v-3.3466797c0-0.8383789,0.1396484-1.4355469,0.4194336-1.7919922c0.2792969-0.3564453,0.7207031-0.534668,1.3242188-0.534668
				c0.453125,0,0.7841797,0.1274414,0.9931641,0.3828125c0.2084961,0.2548828,0.3125,0.6416016,0.3125,1.1601562v4.1303711
				h1.4335938V10.841877C182.8720703,9.2017403,182.0664062,8.381916,180.4545898,8.381916z"/>
			<path class="st0" d="M187.734375,8.4209785c-0.2084961-0.0258789-0.4077148-0.0390625-0.5981445-0.0390625
				c-0.8505859,0-1.5053711,0.2001953-1.9648438,0.6010742c-0.4599609,0.4008789-0.6894531,0.9658203-0.6894531,1.6948242
				c0,0.4536133,0.1079102,0.8496094,0.324707,1.1875s0.4990234,0.5820312,0.8476562,0.7319336
				c-0.2797852,0.1699219-0.4902344,0.3422852-0.6318359,0.5161133c-0.1420898,0.1743164-0.2128906,0.3867188-0.2128906,0.6381836
				c0,0.1982422,0.0620117,0.3876953,0.1855469,0.5678711s0.2802734,0.3105469,0.4707031,0.3916016
				c-0.4697266,0.109375-0.8354492,0.3046875-1.0961914,0.5864258c-0.2612305,0.28125-0.3920898,0.628418-0.3920898,1.0415039
				c0,0.5991211,0.2407227,1.0610352,0.7226562,1.3847656c0.4819336,0.3242188,1.1806641,0.4858398,2.0957031,0.4858398
				c1.1865234,0,2.09375-0.2060547,2.7211914-0.6191406c0.6279297-0.4130859,0.9418945-1.0004883,0.9418945-1.7617188
				c0-0.5952148-0.1923828-1.0507812-0.5771484-1.3666992s-0.9477539-0.4736328-1.6889648-0.4736328h-1.171875
				c-0.3847656,0-0.6494141-0.0385742-0.7929688-0.1157227c-0.1435547-0.0766602-0.215332-0.1918945-0.215332-0.3461914
				c0-0.2548828,0.1538086-0.4775391,0.4614258-0.6679688c0.1738281,0.0322266,0.3686523,0.0483398,0.5830078,0.0483398
				c0.8383789,0,1.496582-0.1982422,1.9741211-0.5952148c0.4780273-0.3964844,0.7167969-0.9414062,0.7167969-1.6337891
				c0-0.230957-0.0341797-0.449707-0.1030273-0.65625s-0.15625-0.3803711-0.2612305-0.5219727l1.1479492-0.2128906V8.5030098
				h-2.3266602C188.1000977,8.4746895,187.9428711,8.4473457,187.734375,8.4209785z M186.5893555,15.1968575h1.081543
				c0.5668945,0,0.9545898,0.0620117,1.1630859,0.1855469s0.3129883,0.3310547,0.3129883,0.6225586
				c0,0.3681641-0.1904297,0.6640625-0.5712891,0.8867188c-0.3803711,0.2226562-0.9594727,0.3339844-1.7373047,0.3339844
				c-0.5019531,0-0.8916016-0.0830078-1.1689453-0.2490234s-0.4160156-0.402832-0.4160156-0.7104492
				c0-0.328125,0.1201172-0.5883789,0.3613281-0.7807617C185.8554688,15.2930489,186.1806641,15.1968575,186.5893555,15.1968575z
				 M187.1240234,11.9898262c-0.4047852,0-0.7158203-0.1132812-0.9321289-0.340332
				c-0.2167969-0.2265625-0.3251953-0.550293-0.3251953-0.9716797c0-0.449707,0.1064453-0.7915039,0.3188477-1.0263672
				s0.5253906-0.3525391,0.9384766-0.3525391c0.4169922,0,0.7280273,0.1186523,0.9326172,0.3554688
				c0.2041016,0.2368164,0.3066406,0.5737305,0.3066406,1.0112305
				C188.3632812,11.54842,187.9501953,11.9898262,187.1240234,11.9898262z"/>
			<path class="st0" d="M197.8085938,8.381916c-1.0166016,0-1.8041992,0.3056641-2.362793,0.9169922
				c-0.559082,0.6113281-0.8383789,1.4619141-0.8383789,2.5512695c0,0.7006836,0.1293945,1.315918,0.3886719,1.8466797
				c0.2592773,0.5302734,0.6298828,0.9375,1.1118164,1.2207031c0.4814453,0.2836914,1.0366211,0.425293,1.6640625,0.425293
				c1.0043945,0,1.7880859-0.3076172,2.3505859-0.9233398c0.5629883-0.6157227,0.8447266-1.472168,0.8447266-2.5693359
				c0-1.0610352-0.2836914-1.9042969-0.8505859-2.5297852C199.5498047,8.694416,198.7802734,8.381916,197.8085938,8.381916z
				 M197.7963867,14.1763496c-1.1459961,0-1.7192383-0.7753906-1.7192383-2.3261719
				c0-0.7412109,0.1347656-1.3100586,0.4042969-1.7070312c0.269043-0.3969727,0.7036133-0.5952148,1.3027344-0.5952148
				c1.1420898,0,1.7128906,0.7675781,1.7128906,2.3022461C199.4970703,13.400959,198.9301758,14.1763496,197.7963867,14.1763496z"/>
			<path class="st0" d="M206.0996094,8.381916c-0.4536133,0-0.8666992,0.0869141-1.2392578,0.2607422
				c-0.3725586,0.1743164-0.6601562,0.4213867-0.8623047,0.7412109h-0.0732422l-0.2001953-0.8808594h-1.1176758v6.7182617h1.4272461
				v-3.3466797c0-0.8383789,0.1396484-1.4355469,0.4194336-1.7919922c0.2792969-0.3564453,0.7207031-0.534668,1.3242188-0.534668
				c0.453125,0,0.7841797,0.1274414,0.9931641,0.3828125c0.2084961,0.2548828,0.3125,0.6416016,0.3125,1.1601562v4.1303711
				h1.4335938V10.841877C208.5170898,9.2017403,207.7114258,8.381916,206.0996094,8.381916z"/>
			<path class="st0" d="M216.5351562,8.381916c-1.015625,0-1.8037109,0.3056641-2.3623047,0.9169922
				s-0.8388672,1.4619141-0.8388672,2.5512695c0,0.7006836,0.1298828,1.315918,0.3896484,1.8466797
				c0.2587891,0.5302734,0.6289062,0.9375,1.1113281,1.2207031c0.4814453,0.2836914,1.0361328,0.425293,1.6640625,0.425293
				c1.0039062,0,1.7880859-0.3076172,2.3505859-0.9233398c0.5634766-0.6157227,0.8447266-1.472168,0.8447266-2.5693359
				c0-1.0610352-0.2841797-1.9042969-0.8505859-2.5297852C218.2763672,8.694416,217.5078125,8.381916,216.5351562,8.381916z
				 M216.5234375,14.1763496c-1.1464844,0-1.71875-0.7753906-1.71875-2.3261719
				c0-0.7412109,0.1337891-1.3100586,0.4033203-1.7070312s0.7041016-0.5952148,1.3037109-0.5952148
				c1.1416016,0,1.7128906,0.7675781,1.7128906,2.3022461C218.2246094,13.400959,217.6572266,14.1763496,216.5234375,14.1763496z"/>
			<path class="st0" d="M223.5839844,8.7339668c-0.3583984,0.2348633-0.6484375,0.5527344-0.8710938,0.9536133h-0.0732422
				l-0.1884766-1.1845703h-1.1171875v6.7182617h1.4277344v-3.5107422c0-0.5952148,0.1767578-1.0791016,0.53125-1.4516602
				s0.8173828-0.559082,1.3876953-0.559082c0.21875,0,0.4296875,0.0244141,0.6318359,0.0727539l0.1396484-1.3300781
				c-0.1865234-0.0405273-0.4228516-0.0605469-0.7109375-0.0605469
				C224.328125,8.381916,223.9423828,8.4991035,223.5839844,8.7339668z"/>
			<path class="st0" d="M230.9736328,8.2178535c0,0.2792969,0.0341797,0.6601562,0.1035156,1.1416016h-0.0732422
				c-0.4619141-0.6518555-1.1337891-0.9775391-2.0166016-0.9775391c-0.8427734,0-1.5019531,0.3066406-1.9775391,0.9199219
				c-0.4755859,0.6137695-0.7138672,1.4711914-0.7138672,2.5727539c0,1.097168,0.2353516,1.949707,0.7050781,2.5571289
				s1.1240234,0.9111328,1.9619141,0.9111328c0.8828125,0,1.5527344-0.3339844,2.0107422-1.0024414h0.0664062l0.2490234,0.8808594
				h1.1181641V5.7696114h-1.4335938V8.2178535z M231.0400391,12.0869942
				c-0.0078125,0.7412109-0.1455078,1.2763672-0.4130859,1.6064453c-0.2666016,0.3300781-0.6943359,0.4951172-1.28125,0.4951172
				c-0.5263672,0-0.921875-0.1953125-1.1845703-0.5859375c-0.2636719-0.3911133-0.3945312-0.9589844-0.3945312-1.7041016
				c0-0.7529297,0.1357422-1.3330078,0.40625-1.7402344c0.2714844-0.4067383,0.6582031-0.6103516,1.1601562-0.6103516
				c0.5878906,0,1.0185547,0.1782227,1.2939453,0.534668s0.4130859,0.9575195,0.4130859,1.8037109V12.0869942z"/>
			<path class="st0" d="M237.1210938,8.381916c-0.9560547,0-1.7070312,0.3134766-2.2539062,0.9414062
				c-0.546875,0.6274414-0.8203125,1.4902344-0.8203125,2.5874023c0,1.0693359,0.2949219,1.9082031,0.8837891,2.5180664
				c0.5898438,0.609375,1.40625,0.9140625,2.4511719,0.9140625c0.4580078,0,0.8652344-0.034668,1.2207031-0.1035156
				c0.3564453-0.0688477,0.7089844-0.1860352,1.0576172-0.3520508v-1.1601562
				c-0.3935547,0.1738281-0.7607422,0.2983398-1.1025391,0.3735352c-0.3427734,0.074707-0.7119141,0.1123047-1.1083984,0.1123047
				c-0.6035156,0-1.0712891-0.175293-1.4033203-0.5253906s-0.5087891-0.8515625-0.5283203-1.503418h4.4765625v-0.7714844
				c0-0.9433594-0.2578125-1.6845703-0.7714844-2.2231445C238.7080078,8.650959,238.0078125,8.381916,237.1210938,8.381916z
				 M235.5419922,11.1514473c0.0517578-0.5507812,0.2148438-0.9697266,0.4882812-1.2573242s0.6367188-0.4311523,1.0908203-0.4311523
				c0.453125,0,0.8095703,0.1425781,1.0683594,0.4282227c0.2597656,0.2856445,0.3935547,0.7055664,0.4013672,1.2602539H235.5419922z
				"/>
			<path class="st0" d="M243.8662109,8.7339668c-0.3583984,0.2348633-0.6484375,0.5527344-0.8710938,0.9536133h-0.0732422
				l-0.1884766-1.1845703h-1.1171875v6.7182617h1.4277344v-3.5107422c0-0.5952148,0.1767578-1.0791016,0.53125-1.4516602
				s0.8173828-0.559082,1.3876953-0.559082c0.21875,0,0.4296875,0.0244141,0.6318359,0.0727539l0.1396484-1.3300781
				c-0.1865234-0.0405273-0.4228516-0.0605469-0.7109375-0.0605469
				C244.6103516,8.381916,244.2246094,8.4991035,243.8662109,8.7339668z"/>
			<path class="st0" d="M250.7519531,11.8560371c-0.2519531-0.1782227-0.6542969-0.3745117-1.2089844-0.5888672
				c-0.6601562-0.2553711-1.0888672-0.4555664-1.2851562-0.6015625s-0.2939453-0.3237305-0.2939453-0.534668
				c0-0.4291992,0.3759766-0.6435547,1.1298828-0.6435547c0.4931641,0,1.1025391,0.1499023,1.828125,0.4492188l0.4609375-1.0751953
				c-0.7041016-0.3198242-1.4511719-0.4794922-2.2412109-0.4794922c-0.7978516,0-1.4277344,0.1586914-1.8916016,0.4765625
				s-0.6953125,0.7646484-0.6953125,1.3393555c0,0.4780273,0.1367188,0.8666992,0.4091797,1.1665039
				c0.2734375,0.2993164,0.796875,0.5991211,1.5703125,0.8989258c0.3974609,0.1538086,0.7070312,0.2915039,0.9296875,0.4130859
				c0.2226562,0.1210938,0.3828125,0.2387695,0.4794922,0.3520508c0.0976562,0.1132812,0.1464844,0.2553711,0.1464844,0.425293
				c0,0.5307617-0.4394531,0.7958984-1.3183594,0.7958984c-0.6806641,0-1.4150391-0.1826172-2.2050781-0.546875v1.2329102
				c0.5429688,0.2714844,1.2617188,0.4072266,2.15625,0.4072266c0.890625,0,1.5751953-0.175293,2.0527344-0.5253906
				c0.4785156-0.3505859,0.7167969-0.8535156,0.7167969-1.5097656c0-0.3237305-0.0605469-0.6020508-0.1816406-0.8349609
				C251.1884766,12.2398262,251.0029297,12.0342598,250.7519531,11.8560371z"/>
			<path class="st0" d="M259.0664062,8.381916c-1.015625,0-1.8037109,0.3056641-2.3623047,0.9169922
				s-0.8388672,1.4619141-0.8388672,2.5512695c0,0.7006836,0.1298828,1.315918,0.3896484,1.8466797
				c0.2587891,0.5302734,0.6289062,0.9375,1.1113281,1.2207031c0.4814453,0.2836914,1.0361328,0.425293,1.6640625,0.425293
				c1.0039062,0,1.7880859-0.3076172,2.3505859-0.9233398c0.5634766-0.6157227,0.8447266-1.472168,0.8447266-2.5693359
				c0-1.0610352-0.2841797-1.9042969-0.8505859-2.5297852C260.8076172,8.694416,260.0390625,8.381916,259.0664062,8.381916z
				 M259.0546875,14.1763496c-1.1464844,0-1.71875-0.7753906-1.71875-2.3261719
				c0-0.7412109,0.1337891-1.3100586,0.4033203-1.7070312s0.7041016-0.5952148,1.3037109-0.5952148
				c1.1416016,0,1.7128906,0.7675781,1.7128906,2.3022461C260.7558594,13.400959,260.1884766,14.1763496,259.0546875,14.1763496z"/>
			<path class="st0" d="M266.6171875,12.4087715c-0.2470703,0.7695312-0.3886719,1.2998047-0.4257812,1.5917969h-0.0488281
				c-0.0478516-0.4052734-0.1894531-0.9355469-0.4248047-1.5917969l-1.3662109-3.9057617h-1.5068359l2.5507812,6.7182617h1.5429688
				l2.5634766-6.7182617h-1.5185547L266.6171875,12.4087715z"/>
			<path class="st0" d="M273.1953125,8.381916c-0.9560547,0-1.7070312,0.3134766-2.2539062,0.9414062
				c-0.546875,0.6274414-0.8203125,1.4902344-0.8203125,2.5874023c0,1.0693359,0.2949219,1.9082031,0.8837891,2.5180664
				c0.5898438,0.609375,1.40625,0.9140625,2.4511719,0.9140625c0.4580078,0,0.8652344-0.034668,1.2207031-0.1035156
				c0.3564453-0.0688477,0.7089844-0.1860352,1.0576172-0.3520508v-1.1601562
				c-0.3935547,0.1738281-0.7607422,0.2983398-1.1025391,0.3735352c-0.3427734,0.074707-0.7119141,0.1123047-1.1083984,0.1123047
				c-0.6035156,0-1.0712891-0.175293-1.4033203-0.5253906s-0.5087891-0.8515625-0.5283203-1.503418h4.4765625v-0.7714844
				c0-0.9433594-0.2578125-1.6845703-0.7714844-2.2231445C274.7822266,8.650959,274.0820312,8.381916,273.1953125,8.381916z
				 M271.6162109,11.1514473c0.0517578-0.5507812,0.2148438-0.9697266,0.4882812-1.2573242s0.6367188-0.4311523,1.0908203-0.4311523
				c0.453125,0,0.8095703,0.1425781,1.0683594,0.4282227c0.2597656,0.2856445,0.3935547,0.7055664,0.4013672,1.2602539H271.6162109z
				"/>
			<path class="st0" d="M279.9404297,8.7339668c-0.3583984,0.2348633-0.6484375,0.5527344-0.8710938,0.9536133h-0.0732422
				l-0.1884766-1.1845703h-1.1171875v6.7182617h1.4277344v-3.5107422c0-0.5952148,0.1767578-1.0791016,0.53125-1.4516602
				s0.8173828-0.559082,1.3876953-0.559082c0.21875,0,0.4296875,0.0244141,0.6318359,0.0727539l0.1396484-1.3300781
				c-0.1865234-0.0405273-0.4228516-0.0605469-0.7109375-0.0605469
				C280.6845703,8.381916,280.2988281,8.4991035,279.9404297,8.7339668z"/>
			<path class="st0" d="M289.6806641,10.3316231l-0.4619141-0.1762695V7.944416
				c0.6279297,0.0483398,1.2597656,0.1982422,1.8955078,0.4492188l0.4433594-1.1113281
				c-0.7373047-0.3037109-1.5166016-0.4697266-2.3388672-0.4980469V5.7818184h-0.8076172v1.0205078
				c-0.7451172,0.0771484-1.3349609,0.2958984-1.7705078,0.65625s-0.6533203,0.8198242-0.6533203,1.3789062
				c0,0.5219727,0.1533203,0.9604492,0.4589844,1.3149414s0.7900391,0.6591797,1.4541016,0.9140625l0.5107422,0.1884766v2.2714844
				c-0.3681641-0.0039062-0.7861328-0.0634766-1.2509766-0.1791992c-0.4658203-0.1152344-0.8730469-0.2578125-1.2216797-0.4282227
				v1.2817383c0.6445312,0.2915039,1.46875,0.4453125,2.4726562,0.4619141v1.28125h0.8076172v-1.3178711
				c0.8105469-0.0888672,1.4296875-0.3242188,1.859375-0.7045898c0.4287109-0.3808594,0.6435547-0.8647461,0.6435547-1.4516602
				c0-0.4741211-0.1484375-0.875-0.4433594-1.2026367C290.9824219,10.939045,290.4501953,10.6270332,289.6806641,10.3316231z
				 M288.4111328,9.857502c-0.3769531-0.1494141-0.6367188-0.3012695-0.7802734-0.4555664
				c-0.1445312-0.1538086-0.2158203-0.3461914-0.2158203-0.5766602c0-0.2226562,0.0849609-0.4091797,0.2548828-0.559082
				s0.4169922-0.2490234,0.7412109-0.2973633V9.857502z M289.21875,13.4781075v-1.9379883
				c0.3847656,0.1420898,0.6591797,0.2885742,0.8232422,0.4404297s0.2460938,0.3452148,0.2460938,0.5800781
				C290.2880859,13.0630684,289.9316406,13.3687325,289.21875,13.4781075z"/>
			<path class="st0" d="M295.9257812,9.6753731c-0.2958984,0-0.5458984,0.0161133-0.75,0.0488281
				c-0.2050781,0.0322266-0.3779297,0.0605469-0.5195312,0.0849609l0.2001953-2.1987305h3.359375V6.3409004h-4.6162109
				l-0.3408203,4.3369141l0.6376953,0.3764648c0.2109375-0.0483398,0.4560547-0.0917969,0.7353516-0.1303711
				s0.5146484-0.0576172,0.7050781-0.0576172c1.3525391,0,2.0283203,0.5302734,2.0283203,1.5913086
				c0,0.5546875-0.1679688,0.9760742-0.5039062,1.2631836c-0.3359375,0.2875977-0.8261719,0.4316406-1.4697266,0.4316406
				c-0.3652344,0-0.7597656-0.0507812-1.1845703-0.1518555c-0.4257812-0.1015625-0.8017578-0.2451172-1.1298828-0.4316406v1.2939453
				c0.5664062,0.3198242,1.3457031,0.4799805,2.3378906,0.4799805c1.09375,0,1.9375-0.2661133,2.5302734-0.7988281
				c0.59375-0.5327148,0.8896484-1.2724609,0.8896484-2.2202148c0-0.8178711-0.2607422-1.4638672-0.7832031-1.9375
				C297.5292969,9.9121895,296.8203125,9.6753731,295.9257812,9.6753731z"/>
			<path class="st0" d="M303.0136719,6.201252c-1.015625,0-1.7724609,0.371582-2.2685547,1.1142578
				c-0.4960938,0.7431641-0.7441406,1.8984375-0.7441406,3.465332c0,1.4946289,0.2558594,2.628418,0.765625,3.4018555
				c0.5107422,0.7734375,1.2597656,1.1601562,2.2470703,1.1601562c1.0205078,0,1.7792969-0.3745117,2.2753906-1.1240234
				c0.4960938-0.7490234,0.7441406-1.8950195,0.7441406-3.4379883c0-1.4980469-0.2548828-2.6362305-0.765625-3.4135742
				C304.7578125,6.5899239,304.0058594,6.201252,303.0136719,6.201252z M304.2138672,13.3623848
				c-0.2529297,0.5268555-0.6533203,0.7900391-1.2001953,0.7900391c-0.5458984,0-0.9443359-0.2592773-1.1933594-0.777832
				c-0.2490234-0.5180664-0.3730469-1.3828125-0.3730469-2.59375c0-1.2104492,0.1240234-2.0771484,0.3730469-2.5996094
				s0.6474609-0.7836914,1.1933594-0.7836914c0.546875,0,0.9472656,0.2666016,1.2001953,0.7988281
				c0.2529297,0.5327148,0.3798828,1.394043,0.3798828,2.5844727
				C304.59375,11.975666,304.4667969,12.8360176,304.2138672,13.3623848z"/>
			<polygon class="st0" points="308.8212891,12.5244942 309.1308594,6.3409004 307.4482422,6.3409004 307.7636719,12.5244942 			"/>
			<path class="st0" d="M308.9482422,13.7876778c-0.1533203-0.1616211-0.3740234-0.2426758-0.6621094-0.2426758
				c-0.2910156,0-0.515625,0.0776367-0.6738281,0.2333984c-0.1582031,0.15625-0.2373047,0.3837891-0.2373047,0.6835938
				s0.0800781,0.5307617,0.2402344,0.6923828c0.1601562,0.1621094,0.3837891,0.2431641,0.6708984,0.2431641
				c0.2832031,0,0.5029297-0.0839844,0.6591797-0.2524414c0.15625-0.1679688,0.234375-0.3955078,0.234375-0.6831055
				S309.1025391,13.9497871,308.9482422,13.7876778z"/>
		</g>
	</g>
	<path class="st2" d="M31.0921707,15.5323133l-4.3923874-4.5436668l4.4145336-4.5773525
		c0.1824703-0.2186527,0.1684341-0.5446038-0.0237064-0.719276c-0.0917015-0.0917029-0.224577-0.1453524-0.3649387-0.1475358
		c-0.129446,0.0087333-0.2829075,0.0511541-0.3824081,0.1506548l-4.7495308,4.9266977
		c-0.1980648,0.1980658-0.2033672,0.5053024-0.0024948,0.7420454l4.7548332,4.9114151
		c0.1041794,0.1041794,0.2348709,0.1593857,0.3774166,0.1593857c0.1322517,0,0.2623196-0.0545845,0.3412342-0.1353683
		c0.1019974-0.0845299,0.1653156-0.2068024,0.1852779-0.380538C31.25,15.767808,31.1969738,15.6377401,31.0921707,15.5323133z"/>
	<path class="st2" d="M388.8576355,6.4468522L393.25,10.9905186l-4.4145203,4.5773516
		c-0.1824646,0.2186527-0.1684265,0.5446062,0.0237122,0.7192774c0.0917053,0.0917015,0.2245789,0.1453514,0.3649292,0.1475334
		c0.1294556-0.0087318,0.2828979-0.0511513,0.3824158-0.1506538l4.7495117-4.9266968
		c0.1980896-0.1980658,0.2033691-0.5053024,0.0025024-0.7420464l-4.7548218-4.9114132
		c-0.104187-0.1041799-0.2348633-0.1593885-0.3774109-0.1593885c-0.1322632,0-0.2623291,0.054585-0.3412476,0.1353712
		c-0.1019897,0.0845289-0.1653137,0.2067995-0.1852722,0.3805361
		C388.6997986,6.2113562,388.7528076,6.3414249,388.8576355,6.4468522z"/>
</g>
</svg>
