<?xml version="1.0" encoding="utf-8"?>
<!-- Generator: Adobe Illustrator 21.0.0, SVG Export Plug-In . SVG Version: 6.00 Build 0)  -->
<svg version="1.1" id="Layer_1" xmlns="http://www.w3.org/2000/svg" width="430" height="80" xmlns:xlink="http://www.w3.org/1999/xlink" x="0px" y="0px"
	 viewBox="0 0 430 70" style="enable-background:new 0 0 430 70;" xml:space="preserve">
<style type="text/css">
	.st0{enable-background:new    ;}
	.st1{fill:#222222;}
	.st2{display:none;}
	.st3{display:inline;fill:#1089EF;stroke:#1089EF;stroke-width:0.7;stroke-miterlimit:10;}
	.st4{display:none;fill:#1089EF;stroke:#1089EF;stroke-width:0.7;stroke-miterlimit:10;}
	.st5{fill:#E1E1E1;}
</style>
<g class="st0">
	<path class="st1" d="M188.5,42.2000008V27.8999996h2.3000031v12.3000011h6v2H188.5z"/>
	<path class="st1" d="M212,35c0,2.2999992-0.6000061,4.0999985-1.6999969,5.4000015S207.5,42.3000031,205.4000092,42.3000031
		c-2.1999969,0-3.8000031-0.5999985-5-1.9000015s-1.6999969-3.0999985-1.6999969-5.5s0.6000061-4.2000008,1.6999969-5.3999996
		s2.8000031-1.8999996,5-1.8999996c2.1000061,0,3.8000031,0.6000004,4.8999939,1.8999996S212,32.7000008,212,35z M201.1000061,35
		c0,1.7999992,0.3999939,3.0999985,1.1000061,4s1.8000031,1.4000015,3.1999969,1.4000015S207.8000031,40,208.5000153,39.1000023
		s1.1000061-2.2000008,1.1000061-4s-0.3999939-3.0999985-1-4s-1.6999969-1.3999996-3.1000061-1.3999996
		c-1.3999939,0-2.5,0.5-3.1999969,1.3999996C201.6000061,32,201.1000061,33.2000008,201.1000061,35z"/>
	<path class="st1" d="M220.8999939,34.4000015h5.3000031v7.2000008c-0.8999939,0.2999992-1.6999969,0.5-2.5,0.5999985
		s-1.6000061,0.2000008-2.6000061,0.2000008c-2.1999969,0-3.8000031-0.5999985-5-1.9000015
		s-1.8000031-3.0999985-1.8000031-5.4000015c0-2.2999992,0.6999969-4.1000004,2-5.3999996s3.1000061-1.8999996,5.5-1.8999996
		c1.5,0,2.8999939,0.2999992,4.1999969,0.8999996l-0.8000031,1.8999996c-1.1999969-0.5-2.3000031-0.7999992-3.5-0.7999992
		c-1.5,0-2.6999969,0.5-3.6000061,1.3999996c-0.8999939,0.9999981-1.3000031,2.3000011-1.3000031,3.8999996
		c0,1.7000008,0.3999939,3.0999985,1.1999969,4S219.8999634,40.5,221.3999634,40.5
		c0.8000031,0,1.6000061-0.0999985,2.3999939-0.2999992V36.5h-3v-2.0999985H220.8999939z"/>
	<path class="st1" d="M242.1999969,35c0,2.2999992-0.6000061,4.0999985-1.6999969,5.4000015
		s-2.8000031,1.9000015-4.8999939,1.9000015c-2.1999969,0-3.8000031-0.5999985-5-1.9000015
		c-1.1999969-1.2999992-1.6999969-3.0999985-1.6999969-5.5s0.6000061-4.2000008,1.6999969-5.3999996
		s2.8000031-1.8999996,5-1.8999996c2.1000061,0,3.8000031,0.6000004,4.8999939,1.8999996
		C241.6999969,30.8999996,242.1999969,32.7000008,242.1999969,35z M231.3000031,35c0,1.7999992,0.3999939,3.0999985,1.1000061,4
		c0.6999969,0.9000015,1.8000031,1.4000015,3.1999969,1.4000015S238,40,238.7000122,39.1000023
		c0.6999969-0.9000015,1.1000061-2.2000008,1.1000061-4s-0.3000031-3.0999985-1-4
		c-0.6999969-0.8999996-1.6999969-1.3999996-3.1000061-1.3999996c-1.3999939,0-2.5,0.5-3.1999969,1.3999996
		C231.8000031,32,231.3000031,33.2000008,231.3000031,35z"/>
</g>
<g class="st2">
	<path class="st3" d="M23,27.2999992h28.0999985c0.5,0,0.9000015-0.3999996,0.9000015-0.8999996S51.5999985,25.5,51.0999985,25.5H23
		c-0.5,0-0.8999996,0.3999996-0.8999996,0.8999996S22.5,27.2999992,23,27.2999992z"/>
	<path class="st3" d="M51.2000008,34.0999985H23C22.5,34.0999985,22.1000004,34.5,22.1000004,35S22.5,35.9000015,23,35.9000015
		h28.0999985C51.5999985,35.9000015,52,35.5,52,35S51.7000008,34.0999985,51.2000008,34.0999985z"/>
	<path class="st3" d="M51.2000008,42.7000008H23c-0.5,0-0.8999996,0.4000015-0.8999996,0.9000015S22.5,44.5000038,23,44.5000038
		h28.0999985c0.5,0,0.9000015-0.4000015,0.9000015-0.9000015C52.0999985,43.0999985,51.7000008,42.7000008,51.2000008,42.7000008z"
		/>
</g>
<path class="st4" d="M407.8999939,28c0-0.6000004-0.5-1-1-1H404c-0.1000061-2.6000004-2.2000122-4.6000004-4.7999878-4.6000004
	S394.5,24.3999996,394.4000244,27h-2.7999878c-0.6000061,0-1,0.5-1,1L390,45.2999992
	c0,0.5999985,0.2000122,1.2000008,0.6000061,1.5999985c0.3999939,0.4000015,0.8999939,0.7000008,1.5,0.7000008h14.2999878
	c0.6000061,0,1.1000061-0.2000008,1.5-0.7000008c0.3999939-0.4000015,0.6000061-1,0.6000061-1.5999985L407.8999939,28z
	 M399.2999878,23.7000008c1.8999939,0,3.3999939,1.5,3.6000061,3.3999996h-7.1000061
	C395.7999878,25.2000008,397.3999939,23.7000008,399.2999878,23.7000008z M394.5,28.2999992v2.1000004
	C394.5,30.7999992,394.7999878,31,395.1000061,31c0.3999939,0,0.6000061-0.2999992,0.6000061-0.6000004v-2.1000004h7.1000061
	v2.1000004c0,0.3999996,0.2999878,0.6000004,0.6000061,0.6000004c0.3999939,0,0.6000061-0.2999992,0.6000061-0.6000004v-2.1000004
	h2.6000061l0.7000122,17c0,0.2999992-0.1000061,0.5-0.2999878,0.7000008
	c-0.2000122,0.2000008-0.3999939,0.2999992-0.6000061,0.2999992h-14.2999878c-0.2999878,0-0.5-0.0999985-0.7000122-0.2999992
	s-0.2999878-0.4000015-0.2000122-0.7000008l0.7000122-17C391.8999939,28.2999992,394.5,28.2999992,394.5,28.2999992z"/>
<g>
	<path class="st1" d="M27.6000004,40h-1.2000008v-3.2000008h-3.2999992V40h-1.2000008v-7.0999985h1.2000008v2.9000015h3.2999992
		v-2.9000015h1.2000008V40z"/>
	<path class="st1" d="M35.7999992,36.4000015c0,1.2000008-0.2999992,2.0999985-0.9000015,2.7000008s-1.4000015,1-2.5,1
		c-1.1000004,0-1.8999996-0.2999992-2.5-1c-0.6000004-0.5999985-0.8999996-1.5-0.8999996-2.7000008
		s0.2999992-2.0999985,0.8999996-2.7000008s1.3999996-0.9000015,2.5-0.9000015c1.0999985,0,1.9000015,0.2999992,2.5,1
		C35.5,34.4000015,35.7999992,35.2999992,35.7999992,36.4000015z M30.2999992,36.4000015c0,0.9000015,0.2000008,1.5,0.5,2
		c0.3999996,0.5,0.8999996,0.7000008,1.5999985,0.7000008c0.7000008,0,1.2000008-0.2000008,1.5999985-0.7000008
		c0.4000015-0.4000015,0.5-1.0999985,0.5-2s-0.2000008-1.5-0.5-2s-0.9000015-0.7000008-1.5999985-0.7000008
		c-0.7000008,0-1.2000008,0.2000008-1.6000004,0.7000008S30.2999992,35.5,30.2999992,36.4000015z"/>
	<path class="st1" d="M40.4000015,40l-2.0999985-6l0,0c0.0999985,0.9000015,0.0999985,1.7000008,0.0999985,2.5V40h-1.0999985
		v-7.0999985h1.5999985l2,5.7000008l0,0l2-5.7000008h1.7000008V40h-1.0999985v-3.5c0-0.4000015,0-0.7999992,0-1.4000015
		c0-0.5999985,0-0.9000015,0-1l0,0l-2.0999985,6L40.4000015,40L40.4000015,40z"/>
	<path class="st1" d="M50.5999985,40h-4v-7.0999985h4v1h-2.9000015v1.9000015h2.7000008v1h-2.7000008V39h2.9000015V40z"/>
	<path class="st5" d="M69.1999969,38.0999985c0,0.5999985-0.1999969,1.0999985-0.6999969,1.5s-1.0999985,0.5-1.9000015,0.5
		s-1.5-0.0999985-2-0.4000015v-1.0999985c0.3000031,0.2000008,0.6999969,0.2999992,1,0.4000015s0.6999969,0.0999985,1,0.0999985
		c0.5,0,0.8000031-0.0999985,1-0.2999992s0.3000031-0.4000015,0.3000031-0.7000008s-0.0999985-0.5-0.3000031-0.7000008
		C67.4000015,37.1999969,67,36.9999962,66.4000015,36.6999969C65.7000046,36.3999977,65.3000031,36.0999985,65,35.7999954
		c-0.3000031-0.2999992-0.4000015-0.7000008-0.4000015-1.2000008c0-0.5999985,0.1999969-1.0999985,0.5999985-1.4000015
		c0.4000015-0.2999992,1-0.5,1.6999969-0.5s1.4000015,0.0999985,2,0.4000015l-0.4000015,1
		c-0.5999985-0.2999992-1.1999969-0.4000015-1.6999969-0.4000015c-0.4000015,0-0.6999969,0.0999985-0.9000015,0.2000008
		s-0.3000031,0.4000015-0.3000031,0.7000008c0,0.2000008,0,0.2999992,0.0999985,0.5
		c0.0999985,0.0999985,0.1999969,0.2999992,0.4000015,0.4000015c0.1999969,0.0999985,0.5,0.2999992,1,0.5
		s0.9000015,0.4000015,1.1999969,0.5999985s0.4000015,0.4000015,0.5,0.5999985
		C69.1999969,37.5,69.1999969,37.7000008,69.1999969,38.0999985z"/>
	<path class="st5" d="M76.1999969,40H75v-3.2000008h-3.3000031V40H70.5v-7.0999985h1.1999969v2.9000015H75v-2.9000015h1.1999969V40z
		"/>
	<path class="st5" d="M84.4000015,36.4000015c0,1.2000008-0.3000031,2.0999985-0.9000015,2.7000008s-1.4000015,1-2.5,1
		s-1.9000015-0.2999992-2.5-1c-0.5999985-0.5999985-0.9000015-1.5-0.9000015-2.7000008S77.9000015,34.3000031,78.5,33.7000008
		s1.4000015-0.9000015,2.5-0.9000015s1.9000015,0.2999992,2.5,1C84.1999969,34.4000015,84.4000015,35.2999992,84.4000015,36.4000015
		z M79,36.4000015c0,0.9000015,0.1999969,1.5,0.5,2c0.4000015,0.5,0.9000015,0.7000008,1.5999985,0.7000008
		s1.1999969-0.2000008,1.5999985-0.7000008c0.4000015-0.4000015,0.5-1.0999985,0.5-2s-0.1999969-1.5-0.5-2
		s-0.9000015-0.7000008-1.5999985-0.7000008S79.9000015,33.9000015,79.5,34.4000015S79,35.5,79,36.4000015z"/>
	<path class="st5" d="M90.6999969,35c0,0.7000008-0.1999969,1.2999992-0.6999969,1.7000008
		s-1.1999969,0.5999985-2.0999985,0.5999985h-0.6999969V40H86v-7.0999985h2c0.9000015,0,1.5999985,0.2000008,2,0.5
		S90.6999969,34.2999992,90.6999969,35z M87.0999985,36.2999992h0.5999985c0.5999985,0,1-0.0999985,1.3000031-0.2999992
		s0.4000015-0.5,0.4000015-1c0-0.4000015-0.0999985-0.7000008-0.4000015-0.9000015s-0.5999985-0.2999992-1.1999969-0.2999992H87
		L87.0999985,36.2999992L87.0999985,36.2999992z"/>
	<path class="st1" d="M108,36.0999985h2.5999985v3.5999985c-0.4000015,0.0999985-0.8000031,0.2000008-1.1999969,0.2999992
		s-0.8000031,0.0999985-1.3000031,0.0999985c-1.0999985,0-1.9000015-0.2999992-2.5-1
		c-0.5999985-0.5999985-0.9000015-1.5-0.9000015-2.7000008c0-1.0999985,0.3000031-2,1-2.7000008
		c0.6999969-0.5999985,1.5999985-1,2.6999969-1c0.6999969,0,1.5,0.0999985,2.0999985,0.4000015l-0.4000015,1
		c-0.5999985-0.2999992-1.1999969-0.4000015-1.6999969-0.4000015c-0.8000031,0-1.4000015,0.2000008-1.8000031,0.7000008
		s-0.6999969,1.0999985-0.6999969,2s0.1999969,1.5,0.5999985,2s1,0.7000008,1.6999969,0.7000008
		c0.4000015,0,0.8000031,0,1.1999969-0.0999985v-1.7999992H108V36.0999985z"/>
	<path class="st1" d="M116.8000031,40l-0.6999969-2h-2.6999969l-0.6999969,2h-1.1999969l2.6999969-7.2000008h1.3000031
		L118.2000122,40H116.8000031z M115.8000031,37l-0.6999969-1.9000015c0-0.0999985-0.0999985-0.2999992-0.1999969-0.5999985
		s-0.0999985-0.5-0.1999969-0.5999985c-0.0999985,0.4000015-0.1999969,0.7999992-0.4000015,1.2999992l-0.5999985,1.9000015
		h2.0999985C115.8000107,37.1000023,115.8000107,37,115.8000031,37z"/>
	<path class="st1" d="M119,40v-7.0999985h1.1999969V39h3v1H119z"/>
	<path class="st1" d="M124.4000015,40v-7.0999985h1.1999969V39h3.0000076v1H124.4000015z"/>
	<path class="st1" d="M133.8999939,40h-4v-7.0999985h4v1H131v1.9000015h2.6999969v1H131V39h2.8999939V40z"/>
	<path class="st1" d="M136.6000061,37.0999985V40h-1.1999969v-7.0999985h2c0.8999939,0,1.6000061,0.2000008,2,0.5
		S140.1000061,34.3000031,140.1000061,35c0,0.9000015-0.5,1.5-1.3999939,1.9000015l2,3.2000008h-1.3000031l-1.6999969-2.9000015
		h-1.1000061V37.0999985z M136.6000061,36.2000008h0.8000031c0.5,0,0.8999939-0.0999985,1.1999969-0.2999992S139,35.4000015,139,35
		s-0.1000061-0.7000008-0.3999939-0.9000015s-0.6999969-0.2999992-1.1999969-0.2999992h-0.8000031V36.2000008z"/>
	<path class="st1" d="M143.8000031,36.0999985L145.5,32.7999992h1.3000031l-2.3999939,4.4000015V40h-1.1999969v-2.7000008
		l-2.3999939-4.4000015h1.3000031L143.8000031,36.0999985z"/>
	<path class="st1" d="M278.6000061,35c0,0.7000008-0.2000122,1.2999992-0.7000122,1.7000008
		s-1.2000122,0.5999985-2.1000061,0.5999985h-0.7000122V40h-1.2000122v-7.0999985h2.1000061c0.8999939,0,1.6000061,0.2000008,2,0.5
		S278.6000061,34.2999992,278.6000061,35z M275.1000061,36.2999992h0.6000061c0.6000061,0,1-0.0999985,1.2999878-0.2999992
		s0.3999939-0.5,0.3999939-1c0-0.4000015-0.1000061-0.7000008-0.3999939-0.9000015s-0.6000061-0.2999992-1.2000122-0.2999992H275
		v2.5H275.1000061z"/>
	<path class="st1" d="M284.5,40l-0.7000122-2h-2.7000122l-0.7000122,2h-1.2000122l2.7000122-7.2000008h1.2999878L285.8999634,40
		H284.5z M283.5,37l-0.7000122-1.9000015c0-0.0999985-0.1000061-0.2999992-0.2000122-0.5999985s-0.1000061-0.5-0.2000122-0.5999985
		c-0.1000061,0.4000015-0.2000122,0.7999992-0.3999939,1.2999992l-0.6000061,1.9000015h2.1000061V37H283.5z"/>
	<path class="st1" d="M289.6000061,36.0999985h2.6000061v3.5999985c-0.3999939,0.0999985-0.7999878,0.2000008-1.2000122,0.2999992
		s-0.7999878,0.0999985-1.2999878,0.0999985c-1.1000061,0-1.8999939-0.2999992-2.5-1
		c-0.6000061-0.5999985-0.8999939-1.5-0.8999939-2.7000008c0-1.0999985,0.2999878-2,1-2.7000008
		c0.7000122-0.5999985,1.6000061-1,2.7000122-1c0.7000122,0,1.5,0.0999985,2.1000061,0.4000015l-0.3999939,1
		c-0.6000061-0.2999992-1.2000122-0.4000015-1.7000122-0.4000015c-0.7999878,0-1.3999939,0.2000008-1.7999878,0.7000008
		s-0.7000122,1.0999985-0.7000122,2s0.2000122,1.5,0.6000061,2s1,0.7000008,1.7000122,0.7000008
		c0.3999939,0,0.7999878,0,1.2000122-0.0999985v-1.7999992h-1.5L289.6000061,36.0999985L289.6000061,36.0999985z"/>
	<path class="st1" d="M298,40h-4v-7.0999985h4v1h-2.8999939v1.9000015h2.7000122v1h-2.7000122V39H298V40z"/>
	<path class="st1" d="M303.6000061,38.0999985c0,0.5999985-0.2000122,1.0999985-0.7000122,1.5s-1.1000061,0.5-1.8999939,0.5
		S299.5,40,299,39.6999969v-1.0999985c0.2999878,0.2000008,0.7000122,0.2999992,1,0.4000015s0.7000122,0.0999985,1,0.0999985
		c0.5,0,0.7999878-0.0999985,1-0.2999992s0.2999878-0.4000015,0.2999878-0.7000008s-0.1000061-0.5-0.2999878-0.7000008
		c-0.2000122-0.2000008-0.6000061-0.4000015-1.2000122-0.7000008c-0.7000122-0.2999992-1.1000061-0.5999985-1.3999939-0.9000015
		C299.1000061,35.4999962,299,35.0999947,299,34.5999947c0-0.5999985,0.2000122-1.0999985,0.6000061-1.4000015
		c0.3999939-0.2999992,1-0.5,1.7000122-0.5s1.3999939,0.0999985,2,0.4000015l-0.3999939,1
		c-0.6000061-0.2999992-1.2000122-0.4000015-1.7000122-0.4000015c-0.3999939,0-0.7000122,0.0999985-0.8999939,0.2000008
		s-0.2999878,0.4000015-0.2999878,0.7000008c0,0.2000008,0,0.2999992,0.1000061,0.5
		c0.1000061,0.0999985,0.2000122,0.2999992,0.3999939,0.4000015c0.2000122,0.0999985,0.5,0.2999992,1,0.5
		s0.8999939,0.4000015,1.2000122,0.5999985s0.3999939,0.4000015,0.5,0.5999985
		C303.6000061,37.5,303.6000061,37.7000008,303.6000061,38.0999985z"/>
	<path class="st1" d="M318,32.9000015h2.1000061c1,0,1.7000122,0.0999985,2.1000061,0.4000015
		c0.3999939,0.2999992,0.7000122,0.7000008,0.7000122,1.4000015c0,0.4000015-0.1000061,0.7999992-0.2999878,1
		s-0.5,0.5-0.8999939,0.5l0,0c0.5,0.0999985,0.8999939,0.2999992,1.1000061,0.5999985s0.3999939,0.7000008,0.3999939,1.0999985
		c0,0.5999985-0.2000122,1.0999985-0.7000122,1.5c-0.3999939,0.4000015-1.1000061,0.5-1.8999939,0.5H318V32.9000015z
		 M319.2000122,35.7999992h1.1000061c0.5,0,0.7999878-0.0999985,1.1000061-0.2000008
		c0.2000122-0.2000008,0.2999878-0.4000015,0.2999878-0.7999992c0-0.2999992-0.1000061-0.5999985-0.3999939-0.7000008
		c-0.2000122-0.0999985-0.6000061-0.2000008-1.2000122-0.2000008h-1v1.9000015H319.2000122z M319.2000122,36.7999992V39h1.2000122
		c0.5,0,0.8999939-0.0999985,1.1000061-0.2999992s0.3999939-0.5,0.3999939-0.9000015S321.8000183,37.2000008,321.5000305,37
		s-0.6000061-0.2999992-1.2000122-0.2999992L319.2000122,36.7999992L319.2000122,36.7999992z"/>
	<path class="st1" d="M324.6000061,40v-7.0999985h1.2000122V39h3v1H324.6000061z"/>
	<path class="st1" d="M336.3999939,36.4000015c0,1.2000008-0.2999878,2.0999985-0.8999939,2.7000008s-1.3999939,1-2.5,1
		s-1.8999939-0.2999992-2.5-1c-0.6000061-0.5999985-0.8999939-1.5-0.8999939-2.7000008s0.2999878-2.0999985,0.8999939-2.7000008
		s1.3999939-0.9000015,2.5-0.9000015s1.8999939,0.2999992,2.5,1
		C336.1000061,34.4000015,336.3999939,35.2999992,336.3999939,36.4000015z M330.8999939,36.4000015c0,0.9000015,0.2000122,1.5,0.5,2
		c0.3999939,0.5,0.8999939,0.7000008,1.6000061,0.7000008s1.2000122-0.2000008,1.6000061-0.7000008
		c0.3999939-0.4000015,0.5-1.0999985,0.5-2s-0.2000122-1.5-0.5-2S333.7000122,33.7000008,333,33.7000008
		s-1.2000122,0.2000008-1.6000061,0.7000008S330.8999939,35.5,330.8999939,36.4000015z"/>
	<path class="st1" d="M340.7999878,36.0999985h2.6000061v3.5999985c-0.3999939,0.0999985-0.7999878,0.2000008-1.2000122,0.2999992
		s-0.7999878,0.0999985-1.2999878,0.0999985c-1.1000061,0-1.8999939-0.2999992-2.5-1
		c-0.6000061-0.5999985-0.8999939-1.5-0.8999939-2.7000008c0-1.0999985,0.2999878-2,1-2.7000008
		c0.7000122-0.5999985,1.6000061-1,2.7000122-1c0.7000122,0,1.5,0.0999985,2.1000061,0.4000015l-0.3999939,1
		c-0.6000061-0.2999992-1.2000122-0.4000015-1.7000122-0.4000015c-0.7999878,0-1.3999939,0.2000008-1.7999878,0.7000008
		s-0.7000122,1.0999985-0.7000122,2s0.2000122,1.5,0.6000061,2s1,0.7000008,1.7000122,0.7000008
		c0.3999939,0,0.7999878,0,1.2000122-0.0999985v-1.7999992h-1.5L340.7999878,36.0999985L340.7999878,36.0999985z"/>
	<path class="st1" d="M361.2000122,33.7999992C360.5,33.7999992,360,34,359.6000061,34.5S359,35.5999985,359,36.5
		s0.2000122,1.5,0.6000061,2C360,38.9000015,360.5,39.2000008,361.2000122,39.2000008c0.2999878,0,0.6000061,0,0.8999939-0.0999985
		S362.7000122,39.0000038,363,38.9000015v1c-0.6000061,0.2000008-1.2000122,0.2999992-1.8999939,0.2999992
		c-1,0-1.7999878-0.2999992-2.3999939-0.9000015c-0.6000061-0.5999985-0.7999878-1.5-0.7999878-2.7000008
		c0-0.7000008,0.1000061-1.4000015,0.3999939-1.9000015c0.2999878-0.5999985,0.7000122-1,1.2000122-1.2999992
		s1.1000061-0.4000015,1.7999878-0.4000015c0.7000122,0,1.3999939,0.2000008,2,0.5l-0.3999939,1
		c-0.2000122-0.0999985-0.5-0.2000008-0.7999878-0.2999992S361.5,33.7999992,361.2000122,33.7999992z"/>
	<path class="st1" d="M370.7999878,36.4000015c0,1.2000008-0.2999878,2.0999985-0.8999939,2.7000008
		c-0.6000061,0.5999985-1.3999939,1-2.5,1s-1.8999939-0.2999992-2.5-1C364.2999878,38.5000038,364,37.6000023,364,36.4000015
		s0.2999878-2.0999985,0.8999939-2.7000008c0.6000061-0.5999985,1.3999939-0.9000015,2.5-0.9000015s1.8999939,0.2999992,2.5,1
		S370.7999878,35.2999992,370.7999878,36.4000015z M365.3999939,36.4000015c0,0.9000015,0.2000122,1.5,0.5,2
		c0.3999939,0.5,0.8999939,0.7000008,1.6000061,0.7000008s1.2000122-0.2000008,1.6000061-0.7000008
		c0.3999939-0.4000015,0.5-1.0999985,0.5-2s-0.2000122-1.5-0.5-2c-0.3999939-0.5-0.8999939-0.7000008-1.6000061-0.7000008
		s-1.2000122,0.2000008-1.6000061,0.7000008C365.6000061,34.9000015,365.3999939,35.5,365.3999939,36.4000015z"/>
	<path class="st1" d="M378.2999878,40h-1.3999939l-3.5-5.7000008l0,0v0.2999992
		c0,0.5999985,0.1000061,1.2000008,0.1000061,1.7000008V40h-1.1000061v-7.0999985h1.3999939l3.5,5.7000008l0,0
		c0-0.0999985,0-0.2999992,0-0.7999992s0-0.7999992,0-1.0999985V33h1.1000061v7H378.2999878z"/>
	<path class="st1" d="M382.7000122,40H381.5v-6.0999985h-2.1000061v-1h5.3999939v1h-2.1000061L382.7000122,40L382.7000122,40z"/>
	<path class="st1" d="M390.2999878,40l-0.7000122-2h-2.7000122l-0.7000122,2H385l2.7000122-7.2000008H389L391.7000122,40
		H390.2999878z M389.2999878,37l-0.7000122-1.9000015c0-0.0999985-0.1000061-0.2999992-0.2000122-0.5999985
		s-0.1000061-0.5-0.2000122-0.5999985c-0.1000061,0.4000015-0.2000122,0.7999992-0.3999939,1.2999992l-0.6000061,1.9000015
		h2.1000061V37H389.2999878z"/>
	<path class="st1" d="M395.5,33.7999992c-0.7000122,0-1.2000122,0.2000008-1.6000061,0.7000008s-0.6000061,1.0999985-0.6000061,2
		s0.2000122,1.5,0.6000061,2c0.3999939,0.4000015,0.8999939,0.7000008,1.6000061,0.7000008
		c0.2999878,0,0.6000061,0,0.8999939-0.0999985S397,39.0000038,397.2999878,38.9000015v1
		c-0.6000061,0.2000008-1.2000122,0.2999992-1.8999939,0.2999992c-1,0-1.7999878-0.2999992-2.3999939-0.9000015
		c-0.6000061-0.5999985-0.7999878-1.5-0.7999878-2.7000008c0-0.7000008,0.1000061-1.4000015,0.3999939-1.9000015
		c0.2999878-0.5999985,0.7000122-1,1.2000122-1.2999992s1.1000061-0.4000015,1.7999878-0.4000015
		c0.7000122,0,1.3999939,0.2000008,2,0.5l-0.3999939,1c-0.2000122-0.0999985-0.5-0.2000008-0.7999878-0.2999992
		C396.1000061,33.7999992,395.7999878,33.7999992,395.5,33.7999992z"/>
	<path class="st1" d="M401.2999878,40h-1.2000122v-6.0999985H398v-1h5.3999939v1h-2.1000061V40z"/>
	<path class="st1" d="M408.6000061,38.0999985c0,0.5999985-0.2000122,1.0999985-0.7000122,1.5s-1.1000061,0.5-1.8999939,0.5
		S404.5,40,404,39.6999969v-1.0999985c0.2999878,0.2000008,0.7000122,0.2999992,1,0.4000015
		c0.3999939,0.0999985,0.7000122,0.0999985,1,0.0999985c0.5,0,0.7999878-0.0999985,1-0.2999992
		s0.2999878-0.4000015,0.2999878-0.7000008s-0.1000061-0.5-0.2999878-0.7000008s-0.6000061-0.4000015-1.2000122-0.7000008
		c-0.7000122-0.2999992-1.1000061-0.5999985-1.3999939-0.9000015S404,35.0999947,404,34.5999947
		c0-0.5999985,0.2000122-1.0999985,0.6000061-1.4000015s1-0.5,1.7000122-0.5s1.3999939,0.0999985,2,0.4000015l-0.3999939,1
		c-0.6000061-0.2999992-1.2000122-0.4000015-1.7000122-0.4000015c-0.3999939,0-0.7000122,0.0999985-0.8999939,0.2000008
		s-0.2999878,0.4000015-0.2999878,0.7000008c0,0.2000008,0,0.2999992,0.1000061,0.5
		c0.1000061,0.0999985,0.2000122,0.2999992,0.3999939,0.4000015s0.5,0.2999992,1,0.5s0.8999939,0.4000015,1.2000122,0.5999985
		s0.3999939,0.4000015,0.5,0.5999985S408.6000061,37.7000008,408.6000061,38.0999985z"/>
</g>
</svg>
