<?xml version="1.0" encoding="utf-8"?>
<!-- Generator: Adobe Illustrator 21.0.0, SVG Export Plug-In . SVG Version: 6.00 Build 0)  -->
<svg version="1.1" id="Layer_1" xmlns="http://www.w3.org/2000/svg" width="420" height="80" xmlns:xlink="http://www.w3.org/1999/xlink" x="0px" y="0px"
	 viewBox="0 0 420 80" style="enable-background:new 0 0 420 80;" xml:space="preserve">
<style type="text/css">
	.st0{display:none;}
	.st1{display:inline;fill:#E1E1E1;}
	.st2{display:inline;fill:#222222;}
	.st3{display:inline;fill:#32AB2F;}
	.st4{display:inline;}
	.st5{enable-background:new    ;}
	.st6{fill:#FFFFFF;}
	.st7{fill:#222222;}
</style>
<g id="Bottom">
	<g id="Icons">
		<g class="st0">
			<circle class="st1" cx="394.7189331" cy="41.492485" r="6.0893879"/>
			<path class="st2" d="M396.1646729,39.1963768c-0.3277283-0.4991455-0.8110046-0.7490921-1.4483643-0.7490921
				c-0.6524353,0-1.1387329,0.2386208-1.4573975,0.7166214c-0.3186646,0.4772415-0.4787598,1.2195396-0.4787598,2.2261314
				c0,0.9605293,0.1646423,1.6892357,0.4923706,2.1861115c0.3276978,0.4968796,0.8094788,0.7453194,1.4437866,0.7453194
				c0.6569824,0,1.14328-0.2401352,1.4619446-0.7219086c0.3186646-0.4810219,0.4787598-1.2180328,0.4787598-2.2095222
				C396.6570129,40.4279976,396.4924011,39.6962738,396.1646729,39.1963768z M395.4880676,43.0490685
				c-0.1631165,0.3382988-0.4198608,0.5074463-0.771759,0.5074463c-0.3503723,0-0.6071167-0.1661263-0.7672119-0.4991417
				c-0.1585693-0.3330154-0.2386169-0.8887901-0.2386169-1.6673355c0-0.7777863,0.0800476-1.3343201,0.2386169-1.6703529
				c0.1600952-0.3352814,0.4168396-0.5036774,0.7672119-0.5036774c0.3518982,0,0.6086426,0.1714172,0.771759,0.5134926
				c0.1615906,0.3420753,0.2431641,0.8955879,0.2431641,1.6605377
				C395.7312317,42.1580086,395.6496582,42.7107658,395.4880676,43.0490685z"/>
		</g>
		<g class="st0">
			<circle class="st3" cx="347.5277405" cy="41.492485" r="6.0893879"/>
			<g class="st4">
				<g class="st5">
					<path class="st6" d="M346.0053711,44.2834625l2.2835083-4.8207741h-2.7909851v-1.0149002h4.0596313v0.7611732
						l-2.2835388,5.074501H346.0053711z"/>
				</g>
			</g>
		</g>
	</g>
	<g>
		<path class="st7" d="M394.2420044,65.1436005v-0.0020828c-0.020813-0.4603119-0.3944702-0.8211365-0.8492126-0.8211365h-1.394104
			c-0.2052002-1.519577-1.4842224-2.6537132-3.0128174-2.6537132c-1.54245,0-2.8221741,1.1341362-3.015564,2.6537132h-1.3774719
			c-0.467926,0-0.8492126,0.3774643-0.8485107,0.8377762l-0.3916931,9.9444809
			c-0.0180359,0.4166336,0.1317139,0.8242569,0.4104004,1.1195755c0.2869873,0.3057175,0.6641235,0.4672394,1.091156,0.4672394
			h8.2633667c0.4090271,0,0.7868347-0.1622162,1.0974121-0.4727859c0.2606506-0.2960129,0.4048462-0.684227,0.4041443-1.0980835
			L394.2420044,65.1436005z M386.5935059,67.149826c0.3625793,0,0.6467896-0.2842331,0.6467896-0.6467896v-0.9039841h3.5341187
			v0.9039841c0,0.3625565,0.2842407,0.6467896,0.6467896,0.6467896c0.3625793,0,0.6467896-0.2842331,0.6467896-0.6467896v-0.9039841
			h0.9358826l0.3674011,9.4876404c-0.0083008,0.0880356-0.0429688,0.169838-0.0928955,0.2197571
			c-0.0464478,0.0471344-0.1067505,0.0748672-0.1608276,0.0748672h-8.2633667c-0.0672607,0-0.1261597-0.0249557-0.1760864-0.0762558
			c-0.0305176-0.029808-0.0568542-0.0693207-0.047821-0.164299l0.3660278-9.5417099h0.9504089v0.9039841
			C385.9467163,66.865593,386.230957,67.149826,386.5935059,67.149826z M387.2569275,64.3068619
			c0.1927185-0.7847443,0.9143982-1.361866,1.7289429-1.361866c0.8291016,0,1.5375977,0.5708809,1.7289429,1.3739967
			L387.2569275,64.3068619z"/>
		<path d="M277.8339539,66.5784225c-0.1650085-2.1282349-1.9694824-3.8415718-4.1074219-3.9008408
			c-1.0953369-0.034317-2.2266846,0.3923721-3.0530396,1.1604767c-0.7951355-0.7448845-1.8405457-1.16325-2.901886-1.16325
			c-0.0492249,0-0.0991211,0.0010376-0.1490479,0.0027733c-2.1407166,0.059269-3.9458923,1.7733002-4.110199,3.9008408
			c-0.0152283,0.1753922-0.0152283,0.3632584-0.0145569,0.5483475c0.0298157,0.7729645,0.3570251,1.5424576,0.9206238,2.1670609
			l5.4481506,6.0311584c0.2037964,0.2225342,0.5053711,0.3563232,0.8069153,0.3563232
			c0.2960205,0,0.5941162-0.129631,0.8222046-0.3583984l5.4321899-6.0290833
			c0.5559692-0.6162872,0.8748779-1.3670654,0.9212952-2.1781464
			C277.8491821,66.9465332,277.8491821,66.754509,277.8339539,66.5784225z M270.1230774,65.2245331
			c0.1157532,0.1629105,0.3147278,0.259964,0.5330811,0.2613525c0.0007019,0,0.0014038,0,0.0027771,0
			c0.2183838,0,0.4194031-0.0977478,0.537262-0.2613525c0.5663757-0.7923737,1.4994812-1.2582245,2.4824829-1.2284164
			c1.4648132,0.0499115,2.7126465,1.2304916,2.8395081,2.689064c0.0124817,0.1282501,0.0124817,0.255806,0.0131531,0.3743515
			c-0.0256348,0.4901123-0.230835,0.9656754-0.5802307,1.3393326l-5.2776184,5.8585434l-5.2775879-5.8592377
			c-0.3493958-0.3861313-0.5552979-0.8582306-0.5795593-1.3240814c0-0.134491,0-0.2613525,0.0124817-0.394455
			c0.1150818-1.4668884,1.3532104-2.6453857,2.8152466-2.6835175h0.0977173
			C268.6908569,63.9961166,269.5809631,64.45504,270.1230774,65.2245331z"/>
		<path d="M155.6107178,69.183609c0.8103943-0.8249512,1.2679291-1.926506,1.2679291-3.0807495
			c0-2.4249382-1.9729462-4.3985825-4.3978882-4.3985825c-2.4332581,0-4.4124603,1.9736443-4.4124603,4.3985825
			c0,1.1542435,0.45755,2.2551041,1.2672424,3.0800552c-2.3403625,1.1979141-3.8869781,3.8710327-3.8869781,6.790947
			c0,0.3736572,0.3043365,0.6779861,0.6779938,0.6779861h12.7077179c0.3743439,0,0.6786804-0.3043289,0.6786804-0.6793747
			C159.4983978,73.0567169,157.946228,70.3842926,155.6107178,69.183609z M154.0266724,68.7399368l-0.0658569,0.029808
			c-0.0214844,0.0110931-0.0519867,0.0263443-0.0852661,0.0499115l-0.0145569,0.0076294
			c-0.4519958,0.2329254-0.9129944,0.3459244-1.4093475,0.3459244c-1.685257,0-3.0557861-1.3705292-3.0557861-3.0557861
			c0-1.6852646,1.3774567-3.0557899,3.070343-3.0557899c1.685257,0,3.0557861,1.3705254,3.0557861,3.0557899
			C155.5219879,67.1856995,154.9556122,68.1825714,154.0266724,68.7399368z M154.3102112,70.0868912
			c2.0374146,0.6876907,3.5618439,2.7840424,3.7961578,5.1937332h-11.2782593
			c0.2474823-2.4138489,1.7712097-4.5095062,3.7940826-5.1937332
			C151.7923737,70.6359406,153.1400299,70.6359406,154.3102112,70.0868912z"/>
		<g id="Mob_menu">
			<path class="st7" d="M26.2282314,64.9869614h16.1205349c0.4013901,0,0.727478-0.3264618,0.727478-0.7278595
				c0-0.4013939-0.326088-0.7278557-0.727478-0.7278557H26.2282314c-0.401392,0-0.7282314,0.3264618-0.7282314,0.7278557
				C25.5,64.6604996,25.8268394,64.9869614,26.2282314,64.9869614z"/>
			<path class="st7" d="M42.3487663,68.4503937H26.2282314c-0.401392,0-0.7282314,0.3264618-0.7282314,0.7278595
				c0,0.4013901,0.3268394,0.7278519,0.7282314,0.7278519h16.1205349c0.4013901,0,0.727478-0.3264618,0.727478-0.7278519
				C43.0762444,68.7768555,42.7501564,68.4503937,42.3487663,68.4503937z"/>
			<path class="st7" d="M42.3487663,73.3691711H26.2282314c-0.401392,0-0.7282314,0.3268356-0.7282314,0.7282257
				c0,0.4013977,0.3268394,0.7274857,0.7282314,0.7274857h16.1205349c0.4013901,0,0.727478-0.326088,0.727478-0.7274857
				C43.0762444,73.6960068,42.7501564,73.3691711,42.3487663,73.3691711z"/>
		</g>
	</g>
</g>
<g id="Middle">
	<rect x="-0.0117647" y="27.0000019" class="st7" width="420.0180054" height="30.6875744"/>
	<g>
		<polygon class="st6" points="178.6422272,33.2220879 175.7050171,33.2220879 175.7050171,51.4835625 186.3046112,51.4835625 
			186.3046112,48.9294853 178.6422272,48.9294853 		"/>
		<path class="st6" d="M197.2873383,32.8389702c-2.8095245,0-4.980545,0.8939209-6.3853149,2.4263306
			c-1.4047546,1.5324707-2.1710205,3.8311157-2.1710205,6.8959351c0,3.0648804,0.6385803,5.3635254,2.1710205,7.0236816
			c1.5324554,1.6601562,3.5757904,2.4263306,6.3853149,2.4263306c2.681839,0,4.8528595-0.7661743,6.2576294-2.4263306
			c1.4047546-1.6601562,2.1710205-3.9588013,2.1710205-6.8959351c0-2.9371948-0.7662659-5.3635254-2.1710205-7.0236816
			C202.1401978,33.6052055,199.9691772,32.8389702,197.2873383,32.8389702z M201.2462463,47.5247612
			c-0.8939362,1.149353-2.1710205,1.6601562-3.9589081,1.6601562s-3.1926575-0.6384888-4.0865936-1.7878418
			c-0.8939514-1.149353-1.4047699-2.8094482-1.4047699-5.1080933s0.638504-3.8311157,1.5324554-4.9804077
			c0.8939514-1.149353,2.2987061-1.7878418,4.0865936-1.7878418c1.7879028,0,3.1926575,0.6384888,3.9589233,1.7878418
			c0.7662506,1.149292,1.2770691,2.8094482,1.2770691,5.1080933S202.1401978,46.3754692,201.2462463,47.5247612z"/>
		<path class="st6" d="M216.9541473,44.2045097h3.8311615v4.7249756c-1.021637,0.2554321-2.0432587,0.3831177-3.0649567,0.3831177
			c-1.9155884,0-3.320343-0.6384888-4.34198-1.7878418c-1.021698-1.149292-1.5325165-2.9371338-1.5325165-5.1080933
			c0-2.0432739,0.5108185-3.7033691,1.660202-4.9804077c1.1493225-1.149353,2.681839-1.7878418,4.5974121-1.7878418
			c1.5324554,0,2.9372253,0.3831177,4.4697418,1.0216064l1.0216217-2.4263306
			c-1.660202-0.7662354-3.4480896-1.149353-5.3636627-1.149353c-3.0649719,0-5.363678,0.7662354-7.023819,2.4263916
			c-1.660202,1.6600952-2.5541534,3.9587402-2.5541534,6.8959351c0,2.9371338,0.7662506,5.2357788,2.2987061,6.8959351
			c1.5325165,1.6601562,3.5757904,2.4263306,6.3853149,2.4263306c1.2770691,0,2.2987061-0.1276855,3.3204041-0.2553711
			c1.021637-0.1276855,2.0432739-0.3831177,3.1926575-0.7662354V41.522747h-6.7684479L216.9541473,44.2045097z"/>
		<path class="st6" d="M242.1122589,35.2653008c-1.4047546-1.6600952-3.5757751-2.4263306-6.2576141-2.4263306
			c-2.8095245,0-4.980545,0.8939209-6.3853149,2.4263306c-1.4047546,1.5324707-2.1710205,3.8311157-2.1710205,6.8959351
			c0,3.0648804,0.6385651,5.3635254,2.1710205,7.0236816s3.5757904,2.4263306,6.3853149,2.4263306
			c2.681839,0,4.8528595-0.7661743,6.2576141-2.4263306c1.4047699-1.6601562,2.1710205-3.9588013,2.1710205-6.8959351
			C244.2832794,39.3517876,243.6447144,37.0531425,242.1122589,35.2653008z M239.8135529,47.5247612
			c-0.8939362,1.149353-2.1710205,1.6601562-3.9589081,1.6601562s-3.1926575-0.6384888-4.0866089-1.7878418
			c-0.8939362-1.149353-1.4047546-2.8094482-1.4047546-5.1080933s0.638504-3.8311157,1.5324554-4.9804077
			c0.8939362-1.149353,2.2987061-1.7878418,4.0865936-1.7878418s3.0649719,0.6384888,3.9589081,1.7878418
			c0.8939514,1.149292,1.2770844,2.8094482,1.2770844,5.1080933S240.7075043,46.3754692,239.8135529,47.5247612z"/>
	</g>
</g>
<g id="Top">
	<g>
		<g>
			<g>
				<g>
					<path class="st6" d="M393.6617432,22.333334H26.3382607v-18h367.3234863V22.333334z"/>
					<path class="st7" d="M394.625,23.3331718H25.375v-20h369.25V23.3331718z M27.3015213,21.3331718h365.3969727v-16H27.3015213
						V21.3331718z"/>
				</g>
			</g>
		</g>
		<g>
			<path class="st7" d="M40.8212891,13.2511177c-0.2607422-0.2011719-0.6713867-0.4189453-1.2314453-0.6513672
				c-0.4975586-0.2060547-0.8417969-0.3710938-1.0332031-0.4960938s-0.3286133-0.2587891-0.4121094-0.3994141
				s-0.1254883-0.3105469-0.1254883-0.5087891c0-0.2890625,0.1044922-0.5205078,0.3134766-0.6962891
				c0.2084961-0.1757812,0.5146484-0.2636719,0.9179688-0.2636719c0.5327148,0,1.1376953,0.1425781,1.8164062,0.4277344
				l0.3964844-1.0175781c-0.7236328-0.3203125-1.4506836-0.4804688-2.1811523-0.4804688
				c-0.762207,0-1.3691406,0.1826172-1.8212891,0.5478516c-0.4526367,0.3662109-0.6787109,0.8671875-0.6787109,1.5029297
				c0,0.5087891,0.1425781,0.9433594,0.4282227,1.3046875c0.2851562,0.3623047,0.7753906,0.6835938,1.4716797,0.9658203
				c0.6748047,0.2714844,1.1201172,0.5058594,1.3354492,0.7041016c0.2158203,0.1982422,0.3237305,0.4404297,0.3237305,0.7255859
				c0,0.3164062-0.1171875,0.5693359-0.3520508,0.7568359s-0.5996094,0.28125-1.0932617,0.28125
				c-0.3374023,0-0.7021484-0.046875-1.0932617-0.140625c-0.3916016-0.09375-0.7612305-0.2226562-1.1088867-0.3857422v1.1787109
				c0.5493164,0.2685547,1.2558594,0.4023438,2.1186523,0.4023438s1.5390625-0.1933594,2.0297852-0.5791016
				c0.4907227-0.3867188,0.7358398-0.9189453,0.7358398-1.5966797c0-0.3447266-0.0610352-0.6435547-0.1826172-0.8984375
				C41.2734375,13.6808052,41.0825195,13.4532661,40.8212891,13.2511177z"/>
			<path class="st7" d="M45.2207031,11.0284615c-0.8212891,0-1.4663086,0.2695312-1.9360352,0.8085938
				c-0.4697266,0.5400391-0.7045898,1.2802734-0.7045898,2.2236328c0,0.9179688,0.2529297,1.6396484,0.7592773,2.1630859
				s1.2080078,0.7851562,2.1054688,0.7851562c0.3930664,0,0.7426758-0.0292969,1.0493164-0.0888672
				c0.3056641-0.0595703,0.6083984-0.1601562,0.9077148-0.3027344v-0.9970703
				c-0.3374023,0.1503906-0.6533203,0.2568359-0.9472656,0.3212891s-0.6113281,0.0966797-0.9521484,0.0966797
				c-0.5185547,0-0.9204102-0.1503906-1.2055664-0.4511719s-0.4365234-0.7314453-0.4541016-1.2919922h3.8461914v-0.6621094
				c0-0.8105469-0.2211914-1.4472656-0.6625977-1.9101562C46.5844727,11.2599068,45.9824219,11.0284615,45.2207031,11.0284615z
				 M43.8637695,13.4083443c0.0454102-0.4736328,0.1855469-0.8330078,0.4199219-1.0800781
				c0.2348633-0.2470703,0.5473633-0.3710938,0.9370117-0.3710938s0.6958008,0.1230469,0.918457,0.3681641
				s0.3374023,0.6064453,0.3442383,1.0830078H43.8637695z"/>
			<path class="st7" d="M51.347168,11.0284615c-0.3305664,0-0.6821289,0.0429688-1.0541992,0.1279297
				c-0.3725586,0.0849609-0.7148438,0.2099609-1.027832,0.3730469l0.3964844,0.8769531
				c0.2504883-0.1181641,0.5112305-0.2207031,0.7827148-0.3076172s0.5546875-0.1308594,0.8505859-0.1308594
				c0.3618164,0,0.6289062,0.0908203,0.8007812,0.2734375c0.1723633,0.1835938,0.2583008,0.4589844,0.2583008,0.8271484v0.3085938
				l-0.996582,0.03125c-0.9042969,0.0273438-1.5776367,0.1923828-2.0195312,0.4951172s-0.6625977,0.7519531-0.6625977,1.3466797
				c0,0.5605469,0.1591797,0.9931641,0.4775391,1.2998047c0.3183594,0.3056641,0.7607422,0.4589844,1.328125,0.4589844
				c0.4414062,0,0.8032227-0.0634766,1.0854492-0.1904297c0.2817383-0.1269531,0.5615234-0.3662109,0.8398438-0.7177734h0.0419922
				l0.2451172,0.8037109h0.8764648v-3.8876953c0-0.6855469-0.1870117-1.1884766-0.5605469-1.5078125
				C52.6352539,11.1886177,52.0810547,11.0284615,51.347168,11.0284615z M52.34375,14.6505318
				c0,0.4482422-0.1347656,0.796875-0.4042969,1.0458984c-0.2700195,0.2490234-0.6274414,0.3730469-1.0727539,0.3730469
				c-0.3061523,0-0.5356445-0.0703125-0.6884766-0.2109375c-0.1533203-0.1416016-0.2294922-0.3408203-0.2294922-0.5976562
				c0-0.3554688,0.1308594-0.6181641,0.3935547-0.7910156c0.2626953-0.171875,0.6831055-0.2685547,1.2602539-0.2890625
				l0.7412109-0.03125V14.6505318z"/>
			<path class="st7" d="M57.2148438,11.3311958c-0.3076172,0.2021484-0.5576172,0.4746094-0.7490234,0.8193359h-0.0625
				l-0.1616211-1.0175781H55.28125v5.7714844h1.2265625v-3.0166016c0-0.5107422,0.1523438-0.9267578,0.456543-1.2470703
				c0.3041992-0.3193359,0.7021484-0.4794922,1.1923828-0.4794922c0.1879883,0,0.3686523,0.0205078,0.5429688,0.0625
				l0.1196289-1.1425781c-0.159668-0.0351562-0.3632812-0.0527344-0.6103516-0.0527344
				C57.8540039,11.0284615,57.5229492,11.1290474,57.2148438,11.3311958z"/>
			<path class="st7" d="M62.3056641,12.0509224c0.3374023,0,0.7651367,0.1015625,1.2836914,0.3027344l0.3706055-0.9863281
				c-0.4873047-0.2255859-1.0351562-0.3388672-1.644043-0.3388672c-0.8974609,0-1.5839844,0.2607422-2.0585938,0.7832031
				c-0.4750977,0.5214844-0.7124023,1.2675781-0.7124023,2.2382812c0,0.953125,0.2270508,1.6845703,0.6811523,2.1943359
				s1.1176758,0.7646484,1.9907227,0.7646484c0.3549805,0,0.6567383-0.0283203,0.9052734-0.0839844
				c0.2490234-0.0556641,0.4829102-0.1474609,0.7021484-0.2763672v-1.0693359
				c-0.4873047,0.2714844-1.0039062,0.4072266-1.5498047,0.4072266c-0.4804688,0-0.8447266-0.1630859-1.0932617-0.4882812
				c-0.2490234-0.3251953-0.3735352-0.8115234-0.3735352-1.4589844
				C60.8076172,12.7140083,61.3071289,12.0509224,62.3056641,12.0509224z"/>
			<path class="st7" d="M68.1606445,11.0284615c-0.3964844,0-0.7436523,0.0761719-1.0410156,0.2294922
				s-0.5297852,0.3691406-0.6967773,0.6474609h-0.078125c0.0415039-0.3759766,0.0625-0.7285156,0.0625-1.0595703V8.7843208
				h-1.2265625v8.1201172h1.2265625v-2.8652344c0-0.7236328,0.1206055-1.2392578,0.362793-1.546875
				c0.2416992-0.3076172,0.6201172-0.4619141,1.1347656-0.4619141c0.3896484,0,0.6743164,0.109375,0.8535156,0.3291016
				c0.1787109,0.21875,0.2685547,0.5507812,0.2685547,0.9960938v3.5488281h1.2314453v-3.7626953
				C70.2583008,11.732563,69.559082,11.0284615,68.1606445,11.0284615z"/>
			<path class="st7" d="M75.4765625,9.2208443c-0.3198242,0.328125-0.4799805,0.8339844-0.4799805,1.515625v0.3759766
				l-0.949707,0.375v0.5742188h0.949707v4.8427734h1.2314453v-4.8427734h1.4091797v-0.9287109h-1.4091797v-0.3759766
				c0-0.34375,0.0634766-0.6025391,0.1904297-0.7744141c0.1269531-0.1728516,0.3295898-0.2587891,0.6079102-0.2587891
				c0.2749023,0,0.5639648,0.0488281,0.8666992,0.1464844l0.3232422-0.9287109
				c-0.4174805-0.1425781-0.8417969-0.2138672-1.2734375-0.2138672C76.2856445,8.7276802,75.796875,8.8917427,75.4765625,9.2208443z
				"/>
			<path class="st7" d="M81.0234375,11.0284615c-0.8730469,0-1.5498047,0.2626953-2.0297852,0.7880859
				s-0.7202148,1.2558594-0.7202148,2.1914062c0,0.6025391,0.1113281,1.1308594,0.3339844,1.5869141
				c0.2226562,0.4550781,0.5410156,0.8056641,0.9550781,1.0488281s0.890625,0.3652344,1.4296875,0.3652344
				c0.862793,0,1.5361328-0.2646484,2.0195312-0.7929688c0.4833984-0.5292969,0.7255859-1.2646484,0.7255859-2.2080078
				c0-0.9111328-0.2436523-1.6357422-0.730957-2.1728516C82.5195312,11.2970161,81.8583984,11.0284615,81.0234375,11.0284615z
				 M81.0131836,16.0069771c-0.984375,0-1.4770508-0.6660156-1.4770508-1.9990234c0-0.6367188,0.1157227-1.125,0.347168-1.4658203
				s0.6044922-0.5117188,1.1196289-0.5117188c0.980957,0,1.4711914,0.6591797,1.4711914,1.9775391
				C82.4741211,15.3409615,81.9873047,16.0069771,81.0131836,16.0069771z"/>
			<path class="st7" d="M87.0795898,11.3311958c-0.3076172,0.2021484-0.5576172,0.4746094-0.7490234,0.8193359h-0.0625
				l-0.1616211-1.0175781h-0.9604492v5.7714844h1.2265625v-3.0166016c0-0.5107422,0.1523438-0.9267578,0.456543-1.2470703
				c0.3041992-0.3193359,0.7021484-0.4794922,1.1923828-0.4794922c0.1879883,0,0.3686523,0.0205078,0.5429688,0.0625
				l0.1196289-1.1425781c-0.159668-0.0351562-0.3632812-0.0527344-0.6103516-0.0527344
				C87.71875,11.0284615,87.3876953,11.1290474,87.0795898,11.3311958z"/>
			<path class="st7" d="M90.34375,15.4640083c-0.2504883,0-0.4418945,0.0683594-0.5737305,0.2041016
				c-0.1323242,0.1347656-0.1987305,0.3300781-0.1987305,0.5839844c0,0.2509766,0.0664062,0.4472656,0.1987305,0.5898438
				c0.1318359,0.1425781,0.3232422,0.2138672,0.5737305,0.2138672s0.4428711-0.0722656,0.5766602-0.2167969
				s0.2011719-0.3398438,0.2011719-0.5869141c0-0.2431641-0.0664062-0.4355469-0.1987305-0.5761719
				C90.7910156,15.5343208,90.5976562,15.4640083,90.34375,15.4640083z"/>
			<path class="st7" d="M93.2817383,15.4640083c-0.2504883,0-0.4418945,0.0683594-0.5737305,0.2041016
				c-0.1323242,0.1347656-0.1987305,0.3300781-0.1987305,0.5839844c0,0.2509766,0.0664062,0.4472656,0.1987305,0.5898438
				c0.1318359,0.1425781,0.3232422,0.2138672,0.5737305,0.2138672s0.4428711-0.0722656,0.5766602-0.2167969
				s0.2011719-0.3398438,0.2011719-0.5869141c0-0.2431641-0.0664062-0.4355469-0.1987305-0.5761719
				C93.7290039,15.5343208,93.5356445,15.4640083,93.2817383,15.4640083z"/>
			<path class="st7" d="M96.7988281,15.6759224c-0.1318359-0.1416016-0.3251953-0.2119141-0.5791016-0.2119141
				c-0.2504883,0-0.4418945,0.0683594-0.5737305,0.2041016c-0.1323242,0.1347656-0.1987305,0.3300781-0.1987305,0.5839844
				c0,0.2509766,0.0664062,0.4472656,0.1987305,0.5898438c0.1318359,0.1425781,0.3232422,0.2138672,0.5737305,0.2138672
				s0.4428711-0.0722656,0.5766602-0.2167969s0.2011719-0.3398438,0.2011719-0.5869141
				C96.9975586,16.0089302,96.9311523,15.8165474,96.7988281,15.6759224z"/>
		</g>
		<path class="st7" d="M381.4054871,15.8367205c0.6921387-0.9900293,1.0985107-2.2013054,1.0985107-3.3101358
			c0-3.3321466-3.0554199-5.9639168-6.5109863-5.2388883c-2.0222778,0.4242892-3.6572876,2.0588765-4.0833435,4.0807385
			c-0.7285767,3.4578056,1.9031982,6.5163498,5.2361145,6.5163498c1.2517395,0,2.3157959-0.3477993,3.3178711-1.0916119
			l3.2077026,3.2068291l0.9504089-0.9512882L381.4054871,15.8367205z M377.1457825,8.5415077
			c2.1005554,0,3.8940735,1.8834829,3.8940735,4.0813446c0,2.1005802-1.7889709,3.809454-3.9859619,3.809454
			c-2.1005859,0-3.894043-1.8843451-3.894043-4.0822048C373.1598511,10.2495203,374.948761,8.5415077,377.1457825,8.5415077z"/>
	</g>
</g>
</svg>
