<?xml version="1.0" encoding="utf-8"?>
<!-- Generator: Adobe Illustrator 21.0.0, SVG Export Plug-In . SVG Version: 6.00 Build 0)  -->
<svg version="1.1" id="Layer_1" xmlns="http://www.w3.org/2000/svg" width="420" height="80" xmlns:xlink="http://www.w3.org/1999/xlink" x="0px" y="0px"
	 viewBox="0 0 420 80" style="enable-background:new 0 0 420 80;" xml:space="preserve">
<style type="text/css">
	.st0{fill:#222222;}
	.st1{fill:#FFFFFF;}
</style>
<g id="Bottom">
	<g>
		<g>
			<g>
				<g>
					<path class="st0" d="M394.625,73.8331757H25.375V46.3333321h369.25V73.8331757z M27.3015213,71.8331757h365.3969727V48.3333321
						H27.3015213V71.8331757z"/>
				</g>
			</g>
		</g>
		<g>
			<path class="st0" d="M42.5325623,60.591629c-0.3688469-0.2845802-0.949749-0.5926437-1.742012-0.9214325
				c-0.7038536-0.2914848-1.190815-0.5249519-1.4615784-0.7017784c-0.2707672-0.1768265-0.464859-0.3660851-0.5829735-0.5650139
				s-0.1775169-0.4393005-0.1775169-0.719738c0-0.4089088,0.1478157-0.7363129,0.4434471-0.9849739
				c0.2949371-0.2486649,0.7280235-0.3729935,1.2985649-0.3729935c0.753582,0,1.6093941,0.2016907,2.5695038,0.6050758
				l0.5608711-1.439476c-1.0236588-0.4531136-2.0521507-0.6796722-3.0854759-0.6796722
				c-1.078228,0-1.9367981,0.2583313-2.5764122,0.7749939c-0.6403046,0.5180435-0.9601097,1.2267303-0.9601097,2.1260567
				c0,0.719738,0.2016907,1.3344841,0.6057663,1.845623c0.4033852,0.5125198,1.0968742,0.9670181,2.081852,1.3662567
				c0.9545822,0.3840446,1.5845261,0.7155952,1.8891373,0.9960289c0.3053017,0.2804375,0.4579506,0.6230354,0.4579506,1.0264206
				c0,0.4475899-0.1657753,0.8053894-0.4980125,1.0706253c-0.3322411,0.2652435-0.8482132,0.3978577-1.5465393,0.3978577
				c-0.4772911,0-0.9932632-0.0663071-1.5465355-0.1989288c-0.5539627-0.1326141-1.0768433-0.3149681-1.5686417-0.5456734v1.6674156
				c0.7770691,0.3798981,1.7765503,0.5691605,2.9970627,0.5691605c1.2205162,0,2.1771736-0.2735291,2.8713531-0.8192062
				c0.6941795-0.5470505,1.0409241-1.2999458,1.0409241-2.2586746c0-0.4876518-0.086338-0.9103775-0.2583313-1.2709389
				C43.1721764,61.1994667,42.9020996,60.8775902,42.5325623,60.591629z"/>
			<path class="st0" d="M48.756012,57.4474373c-1.1618042,0-2.0742531,0.3812828-2.7387314,1.1438446
				c-0.6644821,0.7639427-0.9967194,1.8110847-0.9967194,3.1455727c0,1.2985649,0.3577957,2.319458,1.0740776,3.0599213
				c0.7162857,0.7404556,1.7088585,1.1106873,2.9784164,1.1106873c0.5560341,0,1.0505943-0.0414429,1.4843712-0.1257172
				c0.4323959-0.0842667,0.8606453-0.2265549,1.2840614-0.4282455v-1.4104652
				c-0.4772911,0.2127419-0.9241905,0.3633232-1.3400116,0.4544945c-0.4158173,0.0911789-0.8647881,0.1367645-1.3469162,0.1367645
				c-0.733551,0-1.302021-0.212738-1.7054024-0.6382294c-0.4033852-0.4254875-0.6175117-1.0347099-0.6423759-1.8276634h5.4408531
				v-0.9366264c0-1.1466064-0.3128967-2.0473137-0.9373169-2.7021217
				C50.6852112,57.7748451,49.8335457,57.4474373,48.756012,57.4474373z M46.836483,60.8140411
				c0.0642357-0.6700058,0.2624741-1.1783791,0.5940247-1.5278893C47.7627449,58.9366455,48.2048111,58.7612,48.756012,58.7612
				s0.9842834,0.1740646,1.2992554,0.5208092s0.4772949,0.8578835,0.4869652,1.532032H46.836483z"/>
			<path class="st0" d="M57.4225616,57.4474373c-0.4676208,0-0.9649467,0.0607872-1.4912796,0.1809731
				c-0.5270233,0.1201859-1.0112228,0.2970123-1.4539795,0.5277138l0.5608711,1.2405472
				c0.3543434-0.1671562,0.7231903-0.3122101,1.107235-0.4351578c0.3840446-0.1229515,0.7846642-0.1851158,1.2032471-0.1851158
				c0.5118256,0,0.8896561,0.1284752,1.1327896,0.3868065c0.2438278,0.2597122,0.3653946,0.6492844,0.3653946,1.1700897v0.4365425
				l-1.4097748,0.0442047c-1.2792244,0.038681-2.2317352,0.2721481-2.8568459,0.7003975
				c-0.6251068,0.4282494-0.9373169,1.0637207-0.9373169,1.9050255c0,0.7929535,0.2251778,1.4049377,0.6755333,1.8387146
				c0.4503517,0.4323959,1.0761528,0.6492844,1.8787766,0.6492844c0.6244164,0,1.1362457-0.089798,1.5354843-0.2693863
				c0.3985519-0.1795883,0.7943382-0.5180435,1.1880531-1.0153656h0.0594025l0.3467445,1.1369324h1.2398529v-5.4995651
				c0-0.96978-0.2645493-1.6812286-0.7929535-2.1329651C59.2446976,57.673996,58.4607239,57.4474373,57.4225616,57.4474373z
				 M58.8323364,62.5712509c0,0.6340866-0.1906433,1.1272659-0.5719223,1.479538
				c-0.3819733,0.352272-0.8875847,0.5277176-1.5175285,0.5277176c-0.4330864,0-0.7577248-0.0994644-0.9739227-0.2984009
				c-0.2168884-0.2003098-0.3246422-0.4821243-0.3246422-0.8454475c0-0.5028496,0.1851158-0.8744583,0.5567245-1.1189766
				c0.3716125-0.2431335,0.9663277-0.3798981,1.7827682-0.4089088l1.0485229-0.0442085V62.5712509z"/>
			<path class="st0" d="M65.7230301,57.8756905c-0.4351578,0.2859612-0.7888107,0.6713867-1.0595779,1.1590385h-0.0884171
				l-0.2286301-1.439476h-1.3586578v8.1643906h1.7351074v-4.2673073c0-0.7224998,0.2155075-1.3110008,0.6458282-1.7641182
				c0.4303207-0.4517326,0.9932632-0.6782913,1.6867523-0.6782913c0.2659302,0,0.5214996,0.0290108,0.7680893,0.0884132
				l0.1692276-1.6163025c-0.2258682-0.0497322-0.5139008-0.0746002-0.8634033-0.0746002
				C66.6271896,57.4474373,66.1588745,57.5897293,65.7230301,57.8756905z"/>
			<path class="st0" d="M72.9245453,58.8938217c0.4772949,0,1.0823669,0.1436691,1.815918,0.4282494l0.5242615-1.3952675
				c-0.6893387-0.3191147-1.4643402-0.4793663-2.325676-0.4793663c-1.2695541,0-2.240715,0.3688507-2.9121017,1.1079292
				c-0.672081,0.7376938-1.0077744,1.7931252-1.0077744,3.1662903c0,1.3482971,0.3211899,2.3830109,0.9635696,3.104126
				c0.6423721,0.7211227,1.5810699,1.0816803,2.8160934,1.0816803c0.5021591,0,0.9290237-0.040062,1.2806015-0.1188049
				c0.352272-0.078743,0.683136-0.2086029,0.9932709-0.3909531v-1.5126915
				c-0.6893463,0.3840446-1.4201355,0.5760689-2.1923676,0.5760689c-0.6796799,0-1.1949615-0.2307053-1.5465393-0.690731
				c-0.352272-0.460022-0.5284042-1.1479874-0.5284042-2.0638924C70.805397,59.8318291,71.5120087,58.8938217,72.9245453,58.8938217
				z"/>
			<path class="st0" d="M81.2070541,57.4474373c-0.5608749,0-1.0519791,0.1077538-1.4726334,0.3246422
				s-0.7494354,0.5221901-0.9856644,0.915905H78.638237c0.0587158-0.5318604,0.0884171-1.0305634,0.0884171-1.4988785v-2.9162483
				h-1.7351074v11.4867859h1.7351074V61.706459c0-1.0236549,0.1706085-1.7530632,0.5132065-2.188221
				c0.3419113-0.4351578,0.8772202-0.6534271,1.6052475-0.6534271c0.5512009,0,0.9538956,0.1547241,1.2073898,0.4655495
				c0.2528076,0.3094444,0.3799057,0.7791405,0.3799057,1.4090843v5.0201988h1.742012v-5.3227386
				C84.1744156,58.4434662,83.1852951,57.4474373,81.2070541,57.4474373z"/>
			<path class="st0" d="M91.5562134,54.8903694c-0.4524307,0.4641685-0.6789856,1.17976-0.6789856,2.1440163v0.5318565
				l-1.3434601,0.5304794v0.812294h1.3434601v6.8506279h1.742012v-6.8506279h1.9934387V57.595253h-1.9934387v-0.5318565
				c0-0.4862747,0.089798-0.8523598,0.2693863-1.0954933c0.1795883-0.2445183,0.4662399-0.3660851,0.8599548-0.3660851
				c0.3888779,0,0.7977905,0.0690727,1.2260361,0.2072182l0.4572601-1.3137627
				c-0.5905685-0.2016945-1.1908112-0.3025398-1.8014145-0.3025398
				C92.7007446,54.1927338,92.0093307,54.4248161,91.5562134,54.8903694z"/>
			<path class="st0" d="M99.4028702,57.4474373c-1.2350235,0-2.1923676,0.3716125-2.8713531,1.1148338
				s-1.0188217,1.7765503-1.0188217,3.0999832c0,0.852356,0.157486,1.5997238,0.4724579,2.2448616
				c0.3149719,0.6437569,0.7653275,1.139698,1.351059,1.4836845c0.5857391,0.3439789,1.2598877,0.5166626,2.0224533,0.5166626
				c1.2205124,0,2.173027-0.3743744,2.856842-1.1217422c0.6838226-0.7487488,1.0264206-1.7889824,1.0264206-3.1234665
				c0-1.2888947-0.3446732-2.3139343-1.0340195-3.0737343C101.5192566,57.8273392,100.5840149,57.4474373,99.4028702,57.4474373z
				 M99.3883667,64.4900894c-1.3925095,0-2.0894547-0.9421501-2.0894547-2.8278351
				c0-0.9007072,0.1637039-1.5914345,0.4911118-2.0735626c0.3274002-0.4821281,0.8551178-0.7238808,1.5838318-0.7238808
				c1.3876724,0,2.0811615,0.9324799,2.0811615,2.7974434C101.4550171,63.5479393,100.7663651,64.4900894,99.3883667,64.4900894z"/>
			<path class="st0" d="M107.9699554,57.8756905c-0.4351578,0.2859612-0.7888107,0.6713867-1.0595779,1.1590385h-0.0884094
				l-0.2286301-1.439476h-1.3586578v8.1643906h1.7350998v-4.2673073c0-0.7224998,0.2155075-1.3110008,0.6458359-1.7641182
				c0.4303207-0.4517326,0.9932632-0.6782913,1.6867523-0.6782913c0.2659302,0,0.5214996,0.0290108,0.7680893,0.0884132
				l0.1692276-1.6163025c-0.2258682-0.0497322-0.5139008-0.0746002-0.8634109-0.0746002
				C108.874115,57.4474373,108.4058075,57.5897293,107.9699554,57.8756905z"/>
			<path class="st0" d="M112.5874634,63.7220001c-0.3543396,0-0.6251068,0.0967026-0.8115997,0.2887268
				c-0.1871872,0.1906357-0.2811279,0.4669266-0.2811279,0.8261108c0,0.3550339,0.0939407,0.6327057,0.2811279,0.8343964
				c0.1864929,0.2016907,0.4572601,0.302536,0.8115997,0.302536c0.3543472,0,0.6264877-0.1022263,0.8157501-0.3066788
				c0.1892624-0.2044601,0.2845764-0.480751,0.2845764-0.8302536c0-0.3439865-0.0939331-0.6161346-0.2811203-0.8150635
				C113.2201691,63.8214684,112.94664,63.7220001,112.5874634,63.7220001z"/>
			<path class="st0" d="M116.7435684,63.7220001c-0.3543396,0-0.6251068,0.0967026-0.8116074,0.2887268
				c-0.1871872,0.1906357-0.2811203,0.4669266-0.2811203,0.8261108c0,0.3550339,0.0939331,0.6327057,0.2811203,0.8343964
				c0.1865005,0.2016907,0.4572678,0.302536,0.8116074,0.302536s0.6264877-0.1022263,0.8157501-0.3066788
				c0.1892548-0.2044601,0.2845764-0.480751,0.2845764-0.8302536c0-0.3439865-0.0939407-0.6161346-0.2811279-0.8150635
				C117.3762741,63.8214684,117.1027451,63.7220001,116.7435684,63.7220001z"/>
			<path class="st0" d="M121.7188721,64.0217743c-0.1864929-0.2003059-0.460022-0.2997742-0.8191986-0.2997742
				c-0.3543472,0-0.6251068,0.0967026-0.8116074,0.2887268c-0.1871872,0.1906357-0.2811203,0.4669266-0.2811203,0.8261108
				c0,0.3550339,0.0939331,0.6327057,0.2811203,0.8343964c0.1865005,0.2016907,0.4572601,0.302536,0.8116074,0.302536
				c0.3543396,0,0.6264877-0.1022263,0.8157501-0.3066788C121.9046783,65.4626312,122,65.1863403,122,64.8368378
				C122,64.4928513,121.9060593,64.2207031,121.7188721,64.0217743z"/>
		</g>
		<path class="st0" d="M381.8757324,63.3748016c1.0110474-1.4461479,1.6046143-3.2154732,1.6046143-4.8351555
			c0-4.8673058-4.4630432-8.7115669-9.5106812-7.6525078c-2.9539185,0.6197624-5.3422546,3.0074234-5.9645691,5.9607849
			c-1.0642395,5.0508575,2.7800293,9.5185089,7.648468,9.5185089c1.8283997,0,3.3827209-0.5080338,4.8464355-1.5945282
			l4.6855164,4.6842499l1.3883057-1.3895569L381.8757324,63.3748016z M375.6535645,52.7185936
			c3.0682983,0,5.6881104,2.7512283,5.6881104,5.9616699c0,3.0683441-2.6131592,5.564518-5.8223267,5.564518
			c-3.0683594,0-5.6881104-2.7524872-5.6881104-5.9629288C369.8312378,55.2135086,372.4443665,52.7185936,375.6535645,52.7185936z"
			/>
	</g>
</g>
<g id="Middle">
	<rect x="-0.0333293" y="2.5209129" class="st1" width="420.0333252" height="39.645752"/>
	<g>
		<path class="st0" d="M25.4487419,31.5383873V13.2768955h2.9371605V28.984333h7.6621628v2.5540543H25.4487419z"/>
		<path class="st0" d="M55.4588814,22.3437901c0,2.9371624-0.7662163,5.2358093-2.170948,6.8959484
			c-1.4047279,1.6601353-3.575676,2.4263535-6.2574348,2.4263535c-2.8094635,0-4.8527031-0.7662144-6.3851395-2.4263535
			c-1.5324326-1.6601334-2.1709442-3.9587841-2.1709442-7.0236492s0.7662125-5.3635159,2.1709442-6.8959465
			c1.4047279-1.5324345,3.575676-2.4263515,6.3851395-2.4263515c2.6817551,0,4.8526993,0.7662163,6.2574348,2.4263515
			C54.6926651,16.9802742,55.4588814,19.4066277,55.4588814,22.3437901z M41.5392838,22.3437901
			c0,2.2986469,0.5108147,3.9587822,1.4047279,5.1081085c0.8939171,1.1493263,2.2986488,1.7878399,4.0864906,1.7878399
			c1.787838,0,3.0648651-0.5108128,3.9587822-1.6601334c0.8939209-1.1493263,1.4047279-2.8094616,1.4047279-5.1081104
			s-0.5108147-3.9587841-1.2770271-5.1081085c-0.7662163-1.1493244-2.170948-1.787837-3.9587822-1.787837
			c-1.7878418,0-3.1925697,0.6385126-4.0864906,1.787837C42.1777992,18.5127087,41.5392838,20.0451412,41.5392838,22.3437901z"/>
		<path class="st0" d="M66.8244247,21.5775738h6.7682419v9.1945934c-1.1493225,0.3831081-2.1709442,0.6385136-3.1925659,0.7662144
			s-2.0432434,0.2554073-3.3202667,0.2554073c-2.8094635,0-4.8527069-0.7662144-6.3851395-2.4263535
			c-1.5324326-1.6601353-2.2986488-3.958786-2.2986488-6.8959465s0.8939209-5.2358131,2.5540543-6.8959475
			c1.6601372-1.6601343,3.9587822-2.4263515,7.0236473-2.4263515c1.9155426,0,3.7033844,0.3831072,5.3635178,1.1493244
			l-1.0216217,2.4263506c-1.5324326-0.6385136-2.9371567-1.0216208-4.4695969-1.0216208
			c-1.915535,0-3.4479752,0.6385145-4.5972939,1.787837c-1.1493263,1.277029-1.6601334,2.9371624-1.6601334,4.9804077
			c0,2.1709461,0.5108147,3.9587841,1.5324326,5.1081104s2.4263573,1.7878399,4.3418922,1.7878399
			c1.0216217,0,2.0432434-0.1277008,3.0648727-0.3831062v-4.7250023h-3.8310852L66.8244247,21.5775738L66.8244247,21.5775738z"/>
		<path class="st0" d="M94.0251083,22.3437901c0,2.9371624-0.7662125,5.2358093-2.1709442,6.8959484
			c-1.4047241,1.6601353-3.575676,2.4263535-6.257431,2.4263535c-2.8094559,0-4.8527069-0.7662144-6.3851395-2.4263535
			c-1.5324249-1.6601391-2.1709442-3.9587841-2.1709442-7.0236492s0.7662125-5.3635159,2.1709442-6.8959465
			c1.4047318-1.5324345,3.5756836-2.4263515,6.3851395-2.4263515c2.6817551,0,4.8527069,0.7662163,6.257431,2.4263515
			C93.3865967,17.1079788,94.0251083,19.4066277,94.0251083,22.3437901z M80.1055069,22.3437901
			c0,2.2986469,0.5108185,3.9587822,1.4047318,5.1081085s2.2986526,1.7878399,4.0864792,1.7878399
			c1.7878342,0,3.0648727-0.5108128,3.958786-1.6601334c0.8939133-1.1493225,1.4047318-2.8094616,1.4047318-5.1081104
			s-0.3831177-3.9587841-1.2770309-5.1081085s-2.1709442-1.787837-3.958786-1.787837
			c-1.7878342,0-3.1925659,0.6385126-4.0864792,1.787837S80.1055069,20.0451412,80.1055069,22.3437901z"/>
	</g>
	<path class="st0" d="M218.9154358,22.3516026c1.1416016-1.1621094,1.7861328-2.7138672,1.7861328-4.3398438
		c0-3.4160156-2.7792969-6.1962891-6.1953125-6.1962891c-3.4277344,0-6.2158203,2.7802734-6.2158203,6.1962891
		c0,1.6259766,0.6445312,3.1767578,1.7851562,4.3388672c-3.296875,1.6875-5.4755859,5.453125-5.4755859,9.5664062
		c0,0.5263653,0.4287109,0.9550762,0.9550781,0.9550762h17.9013672c0.5273438,0,0.9560547-0.4287109,0.9560547-0.9570293
		C224.3919983,27.8076572,222.2054749,24.0430088,218.9154358,22.3516026z M216.6839905,21.7266026l-0.0927734,0.0419922
		c-0.0302734,0.015625-0.0732422,0.0371094-0.1201172,0.0703125l-0.0205078,0.0107422
		c-0.6367188,0.328125-1.2861328,0.4873047-1.9853516,0.4873047c-2.3740234,0-4.3046875-1.9306641-4.3046875-4.3046875
		s1.9404297-4.3046875,4.3251953-4.3046875c2.3740234,0,4.3046875,1.9306641,4.3046875,4.3046875
		C218.7904358,19.5371494,217.9925842,20.9414463,216.6839905,21.7266026z M217.0834045,23.6240635
		c2.8701172,0.96875,5.0175781,3.921875,5.3476562,7.3164062h-15.8876953
		c0.3486328-3.4003906,2.4951172-6.3525391,5.3447266-7.3164062C213.5365295,24.397501,215.434967,24.397501,217.0834045,23.6240635
		z"/>
	<path class="st0" d="M281.1201782,18.6816807c-0.2324219-2.9980469-2.7744141-5.4116211-5.7861328-5.4951172
		c-1.5429688-0.0483398-3.1367188,0.5527344-4.3007812,1.6347656c-1.1201172-1.0493164-2.5927734-1.6386719-4.0878906-1.6386719
		c-0.0693359,0-0.1396484,0.0014648-0.2099609,0.0039062c-3.015625,0.0834961-5.5585938,2.4980469-5.7900391,5.4951172
		c-0.0214844,0.2470703-0.0214844,0.5117188-0.0205078,0.7724609c0.0419922,1.0888672,0.5029297,2.1728516,1.296875,3.0527344
		l7.6748047,8.4960938c0.2871094,0.3134766,0.7119141,0.5019531,1.1367188,0.5019531
		c0.4169922,0,0.8369141-0.1826172,1.1582031-0.5048828l7.6523438-8.4931641
		c0.7832031-0.8681641,1.2324219-1.9257812,1.2978516-3.0683594
		C281.1416626,19.2002354,281.1416626,18.9297276,281.1201782,18.6816807z M270.2578735,16.7744541
		c0.1630859,0.2294922,0.4433594,0.3662109,0.7509766,0.3681641c0.0009766,0,0.0019531,0,0.0039062,0
		c0.3076172,0,0.5908203-0.1376953,0.7568359-0.3681641c0.7978516-1.1162109,2.1123047-1.7724609,3.4970703-1.7304688
		c2.0634766,0.0703125,3.8212891,1.7333984,4,3.7880859c0.0175781,0.1806641,0.0175781,0.3603516,0.0185547,0.5273438
		c-0.0361328,0.6904297-0.3251953,1.3603516-0.8173828,1.8867188l-7.4345703,8.2529297l-7.4345703-8.2539062
		c-0.4921875-0.5439453-0.7822266-1.2089844-0.8164062-1.8652344c0-0.1894531,0-0.3681641,0.0175781-0.5556641
		c0.1621094-2.0664062,1.90625-3.7265625,3.9658203-3.7802734h0.1376953
		C268.2402954,15.0439854,269.4942017,15.6904697,270.2578735,16.7744541z"/>
	<path class="st0" d="M337.3395691,16.6604404v-0.0029297c-0.0292969-0.6484375-0.5556641-1.1567383-1.1962891-1.1567383h-1.9638672
		c-0.2890625-2.140625-2.0908203-3.7382812-4.2441406-3.7382812c-2.1728516,0-3.9755859,1.5976562-4.2480469,3.7382812h-1.9404297
		c-0.6591797,0-1.1962891,0.5317383-1.1953125,1.1801758l-0.5517578,14.0087891
		c-0.0253906,0.5869141,0.1855469,1.1611328,0.578125,1.5771465c0.4042969,0.4306641,0.9355469,0.6582031,1.5371094,0.6582031
		h11.640625c0.5761719,0,1.1083984-0.2285156,1.5458984-0.6660156c0.3671875-0.4169903,0.5703125-0.9638653,0.5693359-1.5468731
		L337.3395691,16.6604404z M326.565155,19.4866123c0.5107422,0,0.9111328-0.4003906,0.9111328-0.9111328V17.302042h4.9785156
		v1.2734375c0,0.5107422,0.4003906,0.9111328,0.9111328,0.9111328s0.9111328-0.4003906,0.9111328-0.9111328V17.302042h1.3183594
		l0.5175781,13.3652344c-0.0117188,0.1240234-0.0605469,0.2392578-0.1308594,0.3095703
		c-0.0654297,0.0664062-0.1503906,0.1054688-0.2265625,0.1054688h-11.640625c-0.0947266,0-0.1777344-0.0351562-0.2480469-0.1074219
		c-0.0429688-0.0419922-0.0800781-0.0976562-0.0673828-0.2314453l0.515625-13.4414062h1.3388672v1.2734375
		C325.6540222,19.0862217,326.0544128,19.4866123,326.565155,19.4866123z M327.4997253,15.4817295
		c0.2714844-1.1054688,1.2880859-1.918457,2.4355469-1.918457c1.1679688,0,2.1660156,0.8041992,2.4355469,1.9355469
		L327.4997253,15.4817295z"/>
	<g id="Mob_menu">
		<path class="st0" d="M370.8662109,16.4397812h22.7089844c0.5654602,0,1.0248108-0.4598875,1.0248108-1.0253315
			s-0.4593506-1.0253315-1.0248108-1.0253315h-22.7089844c-0.5654602,0-1.0258789,0.4598875-1.0258789,1.0253315
			S370.3007507,16.4397812,370.8662109,16.4397812z"/>
		<path class="st0" d="M393.5751953,21.3187237h-22.7089844c-0.5654602,0-1.0258789,0.4598866-1.0258789,1.0253315
			c0,0.565443,0.4604187,1.0253315,1.0258789,1.0253315h22.7089844c0.5654602,0,1.0248108-0.4598885,1.0248108-1.0253315
			C394.6000061,21.7786102,394.1406555,21.3187237,393.5751953,21.3187237z"/>
		<path class="st0" d="M393.5751953,28.2477989h-22.7089844c-0.5654602,0-1.0258789,0.4604168-1.0258789,1.0258617
			c0,0.565443,0.4604187,1.0248013,1.0258789,1.0248013h22.7089844c0.5654602,0,1.0248108-0.4593582,1.0248108-1.0248013
			C394.6000061,28.7082157,394.1406555,28.2477989,393.5751953,28.2477989z"/>
	</g>
</g>
</svg>
