<?xml version="1.0" encoding="utf-8"?>
<!-- Generator: Adobe Illustrator 21.0.0, SVG Export Plug-In . SVG Version: 6.00 Build 0)  -->
<svg version="1.1" id="Layer_1" xmlns="http://www.w3.org/2000/svg" width="430" height="80" xmlns:xlink="http://www.w3.org/1999/xlink" x="0px" y="0px"
	 viewBox="0 0 430 70" style="enable-background:new 0 0 430 70;" xml:space="preserve">
<style type="text/css">
	.st0{fill:#222222;}
	.st1{fill:#E1E1E1;}
	.st2{fill:#222222;stroke:#222222;stroke-width:0.3191;stroke-miterlimit:10;}
</style>
<g id="Middle">
	<g>
		<path class="st0" d="M22.1000004,47.2000008V32.9000015h2.2999992v12.2999992h6v2H22.1000004z"/>
		<path class="st0" d="M45.5999985,40c0,2.2999992-0.5999985,4.0999985-1.7000008,5.4000015
			c-1.0999985,1.2999992-2.7999992,1.9000015-4.9000015,1.9000015c-2.2000008,0-3.7999992-0.5999985-5-1.9000015
			c-1.2000008-1.2999992-1.7000008-3.0999985-1.7000008-5.5S32.8999939,35.7000008,33.9999962,34.5
			c1.0999985-1.2000008,2.7999992-1.9000015,5-1.9000015c2.0999985,0,3.7999992,0.5999985,4.9000015,1.9000015
			C45,35.7999992,45.5999985,37.7000008,45.5999985,40z M34.7000008,40c0,1.7999992,0.4000015,3.0999985,1.0999985,4
			S37.5999985,45.4000015,39,45.4000015S41.4000015,45,42.0999985,44.1000023c0.7000008-0.9000015,1.0999985-2.2000008,1.0999985-4
			s-0.4000015-3.0999985-1-4s-1.7000008-1.4000015-3.0999985-1.4000015c-1.4000015,0-2.5,0.5-3.2000008,1.4000015
			C35.2000008,37,34.7000008,38.2000008,34.7000008,40z"/>
		<path class="st0" d="M54.5,39.4000015h5.2999992v7.2000008c-0.9000015,0.2999992-1.7000008,0.5-2.5,0.5999985
			s-1.5999985,0.2000008-2.5999985,0.2000008c-2.2000008,0-3.7999992-0.5999985-5-1.9000015
			C48.5,44.2000008,47.9000015,42.4000015,47.9000015,40.0999985c0-2.2999992,0.7000008-4.0999985,2-5.4000015
			s3.0999985-1.9000015,5.5-1.9000015c1.5,0,2.9000015,0.2999992,4.2000008,0.9000015l-0.7999992,1.9000015
			c-1.2000008-0.5-2.2999992-0.7999992-3.5-0.7999992c-1.5,0-2.7000008,0.5-3.5999985,1.4000015
			c-0.9000015,1-1.2999992,2.2999992-1.2999992,3.9000015c0,1.7000008,0.4000015,3.0999985,1.2000008,4
			s1.9000015,1.4000015,3.4000015,1.4000015c0.7999992,0,1.5999985-0.0999985,2.4000015-0.2999992v-3.7000008h-3L54.5,39.4000015
			L54.5,39.4000015z"/>
		<path class="st0" d="M75.8000031,40c0,2.2999992-0.5999985,4.0999985-1.6999969,5.4000015
			c-1.0999985,1.2999992-2.8000031,1.9000015-4.9000015,1.9000015c-2.1999969,0-3.8000031-0.5999985-5-1.9000015
			s-1.7000008-3.0999985-1.7000008-5.5S63.1000023,35.7000008,64.2000046,34.5c1.0999985-1.2000008,2.8000031-1.9000015,5-1.9000015
			c2.0999985,0,3.8000031,0.5999985,4.9000015,1.9000015C75.3000031,35.9000015,75.8000031,37.7000008,75.8000031,40z
			 M64.9000015,40c0,1.7999992,0.4000015,3.0999985,1.0999985,4s1.8000031,1.4000015,3.1999969,1.4000015
			S71.5999985,45,72.2999954,44.1000023s1.0999985-2.2000008,1.0999985-4s-0.3000031-3.0999985-1-4
			s-1.6999969-1.4000015-3.0999985-1.4000015s-2.5,0.5-3.1999969,1.4000015S64.9000015,38.2000008,64.9000015,40z"/>
	</g>
	<g id="Menu">
		<g>
			<path class="st0" d="M211.8000031,32.2000008c4.3999939,0,7.8999939,3.5999985,7.8999939,7.9000015
				c0,4.4000015-3.6000061,7.9000015-7.8999939,7.9000015h-27c-4.3999939,0-7.8999939-3.5999985-7.8999939-7.9000015
				c0-4.4000015,3.6000061-7.9000015,7.8999939-7.9000015H211.8000031 M211.8000031,31.1000004h-27c-5,0-9,3.9999981-9,8.9999981
				l0,0c0,5,4,9,9,9h27c5,0,9-4,9-9l0,0C220.8000031,35.0999985,216.6999969,31.1000004,211.8000031,31.1000004
				L211.8000031,31.1000004z"/>
		</g>
		<g>
			<path class="st0" d="M189.6000061,43.7000008h-1.1999969V40.5h-3.3000031v3.2000008h-1.1999969v-7.0999985h1.1999969v2.9000015
				h3.3000031v-2.9000015h1.1999969V43.7000008z"/>
			<path class="st0" d="M197.8000031,40.0999985c0,1.2000008-0.3000031,2.0999985-0.8999939,2.7000008
				c-0.6000061,0.5999985-1.3999939,1-2.5,1s-1.8999939-0.2999992-2.5-1c-0.6000061-0.5999985-0.8999939-1.5-0.8999939-2.7000008
				S191.3000183,38,191.9000092,37.3999977c0.6000061-0.5999985,1.3999939-0.9000015,2.5-0.9000015s1.8999939,0.2999992,2.5,1
				C197.5,38.2000008,197.8000031,38.7999992,197.8000031,40.0999985z M192.3000031,40.0999985c0,0.9000015,0.1999969,1.5,0.5,2
				c0.3999939,0.5,0.8999939,0.7000008,1.6000061,0.7000008s1.1999969-0.2000008,1.6000061-0.7000008
				c0.3999939-0.5,0.5-1.0999985,0.5-2s-0.1999969-1.5-0.5-2s-0.8999939-0.7000008-1.6000061-0.7000008
				s-1.1999969,0.2000008-1.6000061,0.7000008S192.3000031,39.2000008,192.3000031,40.0999985z"/>
			<path class="st0" d="M202.3999939,43.7000008l-2.1000061-6l0,0c0.1000061,0.9000015,0.1000061,1.7000008,0.1000061,2.5v3.5
				h-1.1000061v-7.0999985h1.6000061l2,5.7000008l0,0l2-5.7000008h1.6999969v7.0999985h-1.1000061v-3.5
				c0-0.4000015,0-0.7999992,0-1.4000015c0-0.5999985,0-0.9000015,0-1l0,0l-2.1000061,6L202.3999939,43.7000008
				L202.3999939,43.7000008z"/>
			<path class="st0" d="M212.6000061,43.7000008h-4v-7.0999985h4v1h-2.8999939v1.9000015h2.6999969v1h-2.6999969v2.2000008
				h2.8999939V43.7000008z"/>
		</g>
		<path class="st0" d="M231.1999969,41.7000008c0,0.5999985-0.1999969,1.0999985-0.6999969,1.5s-1.1000061,0.5-1.8999939,0.5
			s-1.5-0.0999985-2-0.4000015v-1.0999985c0.3000031,0.2000008,0.6999969,0.2999992,1,0.4000015
			c0.3000031,0.0999985,0.6999969,0.0999985,1,0.0999985c0.5,0,0.8000031-0.0999985,1-0.2999992
			S229.9000092,42,229.9000092,41.7000008s-0.1000061-0.5-0.3000031-0.7000008S229,40.5999985,228.4000092,40.2999992
			c-0.6999969-0.2999992-1.1000061-0.5999985-1.3999939-0.9000015s-0.3999939-0.7000008-0.3999939-1.2000008
			c0-0.5999985,0.1999969-1.0999985,0.6000061-1.4000015c0.3999939-0.2999992,1-0.5,1.6999969-0.5s1.3999939,0.0999985,2,0.4000015
			l-0.3999939,1c-0.6000061-0.2999992-1.1999969-0.4000015-1.6999969-0.4000015
			c-0.3999939,0-0.6999969,0.0999985-0.8999939,0.2000008c-0.1999969,0.2000008-0.3000031,0.4000015-0.3000031,0.7000008
			c0,0.2000008,0,0.2999992,0.1000061,0.5c0.1000061,0.0999985,0.1999969,0.2999992,0.3999939,0.4000015
			c0.1999969,0.0999985,0.5,0.2999992,1,0.5S230.0000305,40,230.3000336,40.1999969
			c0.3000031,0.2000008,0.3999939,0.4000015,0.5,0.5999985S231.1999969,41.2999992,231.1999969,41.7000008z"/>
		<path class="st0" d="M238.1999969,43.7000008H237V40.5h-3.3000031v3.2000008h-1.1000061v-7.0999985h1.1999969v2.9000015h3.3000031
			v-2.9000015h1.1999969L238.1999969,43.7000008L238.1999969,43.7000008z"/>
		<path class="st0" d="M246.3999939,40.0999985c0,1.2000008-0.3000031,2.0999985-0.8999939,2.7000008
			c-0.6000061,0.5999985-1.3999939,1-2.5,1s-1.8999939-0.2999992-2.5-1c-0.6000061-0.5999985-0.8999939-1.5-0.8999939-2.7000008
			S239.9000092,38,240.5,37.3999977c0.6000061-0.5999985,1.3999939-0.9000015,2.5-0.9000015s1.8999939,0.2999992,2.5,1
			C246.1000061,38.2000008,246.3999939,38.7999992,246.3999939,40.0999985z M241,40.0999985c0,0.9000015,0.1999969,1.5,0.5,2
			c0.3999939,0.5,0.8999939,0.7000008,1.6000061,0.7000008c0.6999969,0,1.1999969-0.2000008,1.6000061-0.7000008
			c0.3999939-0.5,0.5-1.0999985,0.5-2s-0.1999969-1.5-0.5-2s-0.8999939-0.7000008-1.6000061-0.7000008
			S241.9000092,37.5999985,241.5,38.0999985C241.1000061,38.5999985,241,39.2000008,241,40.0999985z"/>
		<path class="st0" d="M252.6999969,38.7000008C252.6999969,39.4000015,252.5,40,252,40.4000015S250.8000031,41,249.8999939,41
			h-0.6999969v2.7000008H248v-7.0999985h2.1000061c0.8999939,0,1.6000061,0.2000008,2,0.5
			C252.5,37.2999992,252.6999969,37.9000015,252.6999969,38.7000008z M249.1000061,39.9000015h0.6000061
			c0.6000061,0,1-0.0999985,1.3000031-0.2999992s0.3999939-0.5,0.3999939-1c0-0.4000015-0.1000061-0.7000008-0.3999939-0.9000015
			c-0.3000031-0.2000008-0.6000061-0.2999992-1.1999969-0.2999992H249L249.1000061,39.9000015L249.1000061,39.9000015z"/>
		<path class="st0" d="M270,39.7999992h2.6000061v3.5999985c-0.3999939,0.0999985-0.7999878,0.2000008-1.2000122,0.2999992
			s-0.7999878,0.0999985-1.2999878,0.0999985c-1.1000061,0-1.8999939-0.2999992-2.5-1
			c-0.6000061-0.5999985-0.8999939-1.5-0.8999939-2.7000008c0-1.0999985,0.2999878-2,1-2.7000008
			c0.7000122-0.5999985,1.6000061-1,2.7000122-1c0.7000122,0,1.5,0.0999985,2.1000061,0.4000015l-0.3999939,1
			c-0.6000061-0.2999992-1.2000122-0.4000015-1.7000122-0.4000015c-0.7999878,0-1.3999939,0.2000008-1.7999878,0.7000008
			s-0.7000122,1.0999985-0.7000122,2s0.2000122,1.5,0.6000061,2s1,0.7000008,1.7000122,0.7000008
			c0.3999939,0,0.7999878,0,1.2000122-0.0999985v-1.7999992h-1.5L270,39.7999992L270,39.7999992z"/>
		<path class="st0" d="M278.7999878,43.7000008l-0.7000122-2h-2.7000122l-0.7000122,2h-1.2000122L276.1999512,36.5h1.2999878
			l2.7000122,7.2000008H278.7999878z M277.7999878,40.7000008l-0.7000122-1.9000015
			c0-0.0999985-0.1000061-0.2999992-0.2000122-0.5999985s-0.1000061-0.5-0.2000122-0.5999985
			c-0.1000061,0.4000015-0.2000122,0.7999992-0.3999939,1.2999992l-0.6000061,1.9000015L277.7999878,40.7000008
			L277.7999878,40.7000008L277.7999878,40.7000008z"/>
		<path class="st0" d="M281,43.7000008v-7.0999985h1.2000122v6.0999985h3v1H281z"/>
		<path class="st0" d="M286.3999939,43.7000008v-7.0999985h1.2000122v6.0999985h3v1H286.3999939z"/>
		<path class="st0" d="M295.8999939,43.7000008h-4v-7.0999985h4v1H293v1.9000015h2.7000122v1H293v2.2000008h2.8999939V43.7000008z"
			/>
		<path class="st0" d="M298.6000061,40.7999992v2.9000015h-1.2000122v-7.0999985h2c0.8999939,0,1.6000061,0.2000008,2,0.5
			s0.7000122,0.9000015,0.7000122,1.5999985c0,0.9000015-0.5,1.5-1.3999939,1.9000015l2,3.2000008h-1.2999878l-1.7000122-2.9000015
			h-1.1000061V40.7999992z M298.6000061,39.7999992h0.7999878c0.5,0,0.8999939-0.0999985,1.2000122-0.2999992
			C300.8999939,39.2999992,301,39,301,38.5999985s-0.1000061-0.7000008-0.3999939-0.9000015
			s-0.7000122-0.2999992-1.2000122-0.2999992h-0.7999878V39.7999992z"/>
		<path class="st0" d="M305.7999878,39.7999992L307.5,36.5h1.2999878l-2.3999939,4.4000015v2.7999992h-1.2000122v-2.7999992
			L302.7999878,36.5h1.2999878L305.7999878,39.7999992z"/>
		<path class="st0" d="M322.7000122,36.4000015h2.1000061c1,0,1.7000122,0.0999985,2.1000061,0.4000015
			c0.3999939,0.2999992,0.7000122,0.7000008,0.7000122,1.4000015c0,0.4000015-0.1000061,0.7999992-0.2999878,1
			c-0.2000122,0.2000008-0.5,0.5-0.8999939,0.5l0,0c0.5,0.0999985,0.8999939,0.2999992,1.1000061,0.5999985
			s0.3999939,0.7000008,0.3999939,1.0999985c0,0.5999985-0.2000122,1.0999985-0.7000122,1.5
			c-0.3999939,0.4000015-1.1000061,0.5-1.8999939,0.5h-2.6000061L322.7000122,36.4000015L322.7000122,36.4000015z
			 M323.8999939,39.4000015H325c0.5,0,0.7999878-0.0999985,1.1000061-0.2000008
			c0.2000122-0.2000008,0.2999878-0.4000015,0.2999878-0.7999992c0-0.2999992-0.1000061-0.5999985-0.3999939-0.7000008
			C325.7000122,37.6000023,325.3999939,37.5,324.7999878,37.5h-1L323.8999939,39.4000015L323.8999939,39.4000015z
			 M323.8999939,40.2999992v2.2999992h1.2000122c0.5,0,0.8999939-0.0999985,1.1000061-0.2999992s0.3999939-0.5,0.3999939-0.9000015
			S326.5,40.7999992,326.2000122,40.5999985S325.6000061,40.2999992,325,40.2999992H323.8999939z"/>
		<path class="st0" d="M329.2999878,43.7000008v-7.0999985H330.5v6.0999985h3v1H329.2999878z"/>
		<path class="st0" d="M341.1000061,40.0999985c0,1.2000008-0.2999878,2.0999985-0.8999939,2.7000008s-1.3999939,1-2.5,1
			s-1.8999939-0.2999992-2.5-1c-0.6000061-0.5999985-0.8999939-1.5-0.8999939-2.7000008S334.6000061,38,335.2000122,37.3999977
			c0.6000061-0.5999985,1.3999939-0.9000015,2.5-0.9000015s1.8999939,0.2999992,2.5,1
			C340.7999878,38.2000008,341.1000061,38.7999992,341.1000061,40.0999985z M335.6000061,40.0999985
			c0,0.9000015,0.2000122,1.5,0.5,2c0.3999939,0.5,0.8999939,0.7000008,1.6000061,0.7000008
			s1.2000122-0.2000008,1.6000061-0.7000008c0.3999939-0.4000015,0.5-1.0999985,0.5-2s-0.2000122-1.5-0.5-2
			c-0.3999939-0.5-0.8999939-0.7000008-1.6000061-0.7000008S336.5,37.5999985,336.1000061,38.0999985
			C335.7999878,38.4000015,335.6000061,39.2000008,335.6000061,40.0999985z"/>
		<path class="st0" d="M345.5,39.7999992h2.6000061v3.5999985c-0.3999939,0.0999985-0.7999878,0.2000008-1.2000122,0.2999992
			c-0.3999939,0.0999985-0.7999878,0.0999985-1.2999878,0.0999985c-1.1000061,0-1.8999939-0.2999992-2.5-1
			c-0.6000061-0.5999985-0.8999939-1.5-0.8999939-2.7000008c0-1.0999985,0.2999878-2,1-2.7000008
			c0.7000122-0.5999985,1.6000061-1,2.7000122-1c0.7000122,0,1.5,0.0999985,2.1000061,0.4000015l-0.3999939,1
			c-0.6000061-0.2999992-1.2000122-0.4000015-1.7000122-0.4000015c-0.7999878,0-1.3999939,0.2000008-1.7999878,0.7000008
			s-0.7000122,1.0999985-0.7000122,2s0.2000122,1.5,0.6000061,2s1,0.7000008,1.7000122,0.7000008
			c0.3999939,0,0.7999878,0,1.2000122-0.0999985v-1.7999992h-1.5L345.5,39.7999992L345.5,39.7999992z"/>
	</g>
	<g id="Social_1_">
		<g>
			<path class="st0" d="M365.8999939,35c-2.7999878,0-5.1000061,2.2999992-5.1000061,5.0999985
				s2.2999878,5.0999985,5.1000061,5.0999985c2.7999878,0,5.1000061-2.2999992,5.1000061-5.0999985S368.7999878,35,365.8999939,35z
				 M369,38.9000015L369,38.9000015c0,2.2999992-1.7000122,4.5-4.3999939,4.5c-0.7999878,0-1.7000122-0.2999992-2.2999878-0.7000008
				l0,0l0,0c0.1000061,0,0.2999878,0,0.3999939,0c0.7000122,0,1.2000122-0.0999985,1.7999878-0.5999985
				c-0.7000122-0.0999985-1.2000122-0.5999985-1.3999939-1.0999985l0,0l0,0c0.1000061,0,0.3999939,0,0.6000061,0
				c-0.7000122-0.0999985-1.1000061-0.7999992-1.1000061-1.5l0,0l0,0l0,0
				c0.1000061,0.0999985,0.3999939,0.0999985,0.6000061,0.0999985c-0.3999939-0.2999992-0.6000061-0.7000008-0.6000061-1.2000008
				c0-0.2999992,0.1000061-0.5999985,0.2999878-0.7999992l0,0l0,0c0.7999878,1,1.8999939,1.5,3.2000122,1.7000008
				c0-0.0999985,0-0.0999985,0-0.2999992c0-0.7999992,0.7000122-1.5,1.5-1.5c0.3999939,0,0.7999878,0.0999985,1.1000061,0.4000015
				c0.2999878-0.0999985,0.7000122-0.0999985,1-0.4000015l0,0l0,0c-0.1000061,0.2999992-0.2999878,0.5999985-0.6000061,0.7999992
				c0.2999878,0,0.6000061-0.0999985,0.7000122-0.2999992l0,0l0,0C369.6000061,38.2999992,369.2999878,38.5999985,369,38.9000015z"
				/>
		</g>
		<g>
			<g>
				<ellipse class="st0" cx="383.2000122" cy="40.0999985" rx="1.5" ry="1.5"/>
				<path class="st0" d="M385.6000061,40.2000008c0,1.2000008-1.1000061,2.2000008-2.2999878,2.2000008
					s-2.2999878-1-2.2999878-2.2000008c0-0.2999992,0-0.4000015,0.1000061-0.7000008h-0.7000122v3.2000008
					c0,0.0999985,0.1000061,0.2999992,0.2999878,0.2999992h5.2000122c0.1000061,0,0.2999878-0.0999985,0.2999878-0.2999992V39.5
					H385.5C385.6000061,39.7999992,385.6000061,40,385.6000061,40.2000008z"/>
				<path class="st0" d="M385,38.7000008h0.7999878c0.1000061,0,0.2999878-0.0999985,0.2999878-0.2999992v-0.7999992
					c0-0.0999985-0.1000061-0.2999992-0.2999878-0.2999992H385c-0.1000061,0-0.2999878,0.0999985-0.2999878,0.2999992v0.7999992
					C384.6000061,38.5999985,384.7000122,38.7000008,385,38.7000008z"/>
				<path class="st0" d="M383.2000122,35c-2.7999878,0-5.1000061,2.2999992-5.1000061,5.0999985
					s2.2999878,5.0999985,5.1000061,5.0999985s5.1000061-2.2999992,5.1000061-5.0999985S386.1000061,35,383.2000122,35z M386,44
					h-5.7000122c-0.6000061,0-1-0.4000015-1-1v-5.5c0-0.5999985,0.3999939-1,1-1H386c0.6000061,0,1,0.4000015,1,1v5.7000008
					C387,43.5,386.5,44,386,44z"/>
			</g>
		</g>
		<g>
			<path class="st0" d="M400.6000061,35C397.8000183,35,395.5,37.2999992,395.5,40.0999985s2.2999878,5.0999985,5.1000061,5.0999985
				c2.7999878,0,5.1000061-2.2999992,5.1000061-5.0999985S403.3999939,35,400.6000061,35z M401.2000122,41.9000015
				c-0.3999939,0-1-0.2999992-1.1000061-0.5999985c0,0-0.2999878,1-0.2999878,1.2000008
				c-0.1000061,0.7000008-0.7000122,1.4000015-0.7999878,1.4000015h-0.1000061c0-0.0999985-0.1000061-1,0-1.7000008
				c0.1000061-0.4000015,0.6000061-2.2999992,0.6000061-2.2999992s-0.1000061-0.2999992-0.1000061-0.7000008
				c0-0.7000008,0.3999939-1.0999985,0.7999878-1.0999985s0.6000061,0.2999992,0.6000061,0.7000008s-0.2999878,1-0.3999939,1.5
				c-0.1000061,0.4000015,0.2999878,0.7999992,0.7000122,0.7999992c0.7999878,0,1.3999939-1.0999985,1.3999939-2.2999992
				c0-1-0.7000122-1.7000008-1.7999878-1.7000008c-1.3999939,0-2.2000122,1-2.2000122,2.0999985
				c0,0.4000015,0.1000061,0.7000008,0.2999878,0.7999992c0.1000061,0.0999985,0.1000061,0.0999985,0,0.2999992
				c0,0.0999985-0.1000061,0.2999992-0.1000061,0.4000015s-0.1000061,0.0999985-0.2999878,0.0999985
				c-0.6000061-0.2999992-1-1-1-1.7000008c0-1.2000008,1.1000061-2.7999992,3.2000122-2.7999992
				c1.7000122,0,2.7999878,1.2000008,2.7999878,2.5C403.5,40.7000008,402.5,41.9000015,401.2000122,41.9000015z"/>
		</g>
	</g>
</g>
<g id="Top_header">
	<rect x="-0.1" class="st1" width="430" height="12"/>
	<g id="Icons">
		<g id="Cart">
			<g>
				<path d="M362.1943359,4.6313477c-0.3212891,0-0.5712891,0.1210938-0.7470703,0.362793
					c-0.1767578,0.2416992-0.2646484,0.5786133-0.2646484,1.0107422c0,0.8989258,0.3369141,1.3481445,1.0117188,1.3481445
					c0.2832031,0,0.6259766-0.0708008,1.0283203-0.2124023v0.7167969c-0.3310547,0.1381836-0.7001953,0.2070312-1.1083984,0.2070312
					c-0.5859375,0-1.0351562-0.1777344-1.3457031-0.5336914c-0.3105469-0.3554688-0.4658203-0.8662109-0.4658203-1.5317383
					c0-0.4189453,0.0761719-0.7861328,0.2285156-1.1015625c0.1533203-0.3149414,0.3720703-0.5566406,0.6582031-0.7250977
					c0.2851562-0.1679688,0.6210938-0.2524414,1.0048828-0.2524414c0.3916016,0,0.7851562,0.0947266,1.1796875,0.2841797
					l-0.2753906,0.6948242c-0.1503906-0.0717773-0.3027344-0.1342773-0.4550781-0.1875S362.3417969,4.6313477,362.1943359,4.6313477
					z"/>
				<path d="M366.5488281,8.0092773l-0.2929688-0.9594727h-1.4697266l-0.2919922,0.9594727h-0.9208984l1.4228516-4.0478516
					h1.0449219l1.4287109,4.0478516H366.5488281z M366.0517578,6.3330078
					c-0.2695312-0.8696289-0.421875-1.3613281-0.4560547-1.4755859c-0.0341797-0.1137695-0.0585938-0.2041016-0.0732422-0.2700195
					c-0.0605469,0.2353516-0.234375,0.8168945-0.5205078,1.7456055H366.0517578z"/>
				<path d="M368.8310547,6.4624023v1.546875h-0.8544922v-4.03125h1.1738281c0.5478516,0,0.953125,0.0996094,1.2167969,0.2993164
					c0.2626953,0.1992188,0.3935547,0.5019531,0.3935547,0.9082031c0,0.2373047-0.0654297,0.4482422-0.1953125,0.6328125
					C370.4345703,6.003418,370.25,6.1479492,370.0107422,6.2529297c0.6064453,0.90625,1.0019531,1.4916992,1.1855469,1.7563477
					h-0.9482422l-0.9619141-1.546875H368.8310547z M368.8310547,5.7675781h0.2753906
					c0.2705078,0,0.4697266-0.0449219,0.5986328-0.1352539c0.1289062-0.0898438,0.1933594-0.2314453,0.1933594-0.4243164
					c0-0.1914062-0.0664062-0.3276367-0.1972656-0.4082031c-0.1318359-0.0810547-0.3349609-0.121582-0.6113281-0.121582h-0.2587891
					V5.7675781z"/>
				<path d="M373.2597656,8.0092773h-0.8544922V4.6894531h-1.0947266V3.9780273h3.0439453v0.7114258h-1.0947266V8.0092773z"/>
				<path d="M376.1611328,6.4624023c0-0.4873047,0.0703125-0.9428711,0.2128906-1.3676758s0.3486328-0.796875,0.6162109-1.1166992
					h0.6894531c-0.2587891,0.3549805-0.4550781,0.7446289-0.5869141,1.1689453
					c-0.1328125,0.4248047-0.1982422,0.8613281-0.1982422,1.3100586c0,0.4501953,0.0673828,0.8852539,0.2021484,1.3056641
					c0.1347656,0.4199219,0.328125,0.7998047,0.578125,1.1401367h-0.6845703
					c-0.2695312-0.3125-0.4755859-0.6777344-0.6171875-1.0947266C376.2314453,7.390625,376.1611328,6.9423828,376.1611328,6.4624023
					z"/>
				<path d="M380.8583984,6.7490234c0,0.2924805-0.1054688,0.5273438-0.3164062,0.7045898
					c-0.2119141,0.1772461-0.5078125,0.2836914-0.8886719,0.3183594v0.5654297h-0.3769531V7.7832031
					c-0.4492188-0.0092773-0.8427734-0.0883789-1.1806641-0.2373047V6.8178711
					c0.1601562,0.0791016,0.3525391,0.1489258,0.578125,0.2099609c0.2246094,0.0605469,0.4257812,0.0961914,0.6025391,0.1074219
					V6.2802734l-0.1855469-0.0717773c-0.3632812-0.1430664-0.6210938-0.2988281-0.7734375-0.4672852
					c-0.1513672-0.1679688-0.2275391-0.3764648-0.2275391-0.6245117c0-0.2666016,0.1044922-0.4858398,0.3134766-0.6577148
					s0.4990234-0.2758789,0.8730469-0.3129883v-0.421875h0.3769531v0.4111328
					c0.4208984,0.0185547,0.8017578,0.1030273,1.1416016,0.253418l-0.2587891,0.6455078
					c-0.2871094-0.1176758-0.5810547-0.1894531-0.8828125-0.215332v0.8134766
					c0.3583984,0.1381836,0.6142578,0.2573242,0.765625,0.3583984s0.2626953,0.2124023,0.3339844,0.3339844
					C380.8232422,6.4458008,380.8583984,6.5874023,380.8583984,6.7490234z M378.9199219,5.1166992
					c0,0.0810547,0.0283203,0.1474609,0.0839844,0.2001953c0.0566406,0.0522461,0.1474609,0.105957,0.2724609,0.1611328V4.8300781
					C379.0390625,4.8647461,378.9199219,4.9604492,378.9199219,5.1166992z M380.0283203,6.7905273
					c0-0.0771484-0.03125-0.1425781-0.09375-0.1958008s-0.15625-0.1083984-0.28125-0.1655273v0.6865234
					C379.9033203,7.0737305,380.0283203,6.965332,380.0283203,6.7905273z"/>
				<path d="M383.9580078,4.8798828c0,0.2514648-0.0761719,0.4658203-0.2285156,0.6420898
					c-0.1523438,0.1767578-0.3671875,0.2978516-0.6425781,0.3642578V5.902832
					c0.3251953,0.0400391,0.5712891,0.1391602,0.7392578,0.2963867c0.1669922,0.1572266,0.2509766,0.3691406,0.2509766,0.6352539
					c0,0.3881836-0.140625,0.6899414-0.421875,0.9057617c-0.28125,0.2163086-0.6835938,0.3242188-1.2050781,0.3242188
					c-0.4375,0-0.8251953-0.0727539-1.1640625-0.2177734V7.121582c0.15625,0.0791016,0.328125,0.1430664,0.515625,0.1928711
					s0.3730469,0.0742188,0.5576172,0.0742188c0.28125,0,0.4882812-0.0473633,0.6230469-0.1430664
					c0.1337891-0.0957031,0.2011719-0.2490234,0.2011719-0.4604492c0-0.1894531-0.0771484-0.3237305-0.2314453-0.402832
					s-0.4013672-0.1186523-0.7392578-0.1186523h-0.3056641V5.6103516h0.3115234c0.3125,0,0.5400391-0.0410156,0.6845703-0.1225586
					c0.1445312-0.0820312,0.2167969-0.222168,0.2167969-0.4204102c0-0.3051758-0.1914062-0.4580078-0.5732422-0.4580078
					c-0.1328125,0-0.2675781,0.0219727-0.4042969,0.0664062c-0.1367188,0.0439453-0.2890625,0.1201172-0.4560547,0.2285156
					l-0.3945312-0.5869141c0.3671875-0.2651367,0.8056641-0.3974609,1.3154297-0.3974609
					c0.4169922,0,0.7460938,0.0849609,0.9882812,0.2539062C383.8369141,4.3427734,383.9580078,4.578125,383.9580078,4.8798828z"/>
				<path d="M385.5605469,7.4165039c-0.0957031,0.3710938-0.2578125,0.8115234-0.4853516,1.3208008H384.46875
					c0.1191406-0.4892578,0.2119141-0.9501953,0.2783203-1.3842773h0.7724609L385.5605469,7.4165039z"/>
				<path d="M388.265625,8.0092773h-0.8525391V5.6767578l0.0087891-0.3833008l0.0136719-0.4194336
					c-0.1416016,0.1416016-0.2402344,0.234375-0.2949219,0.2788086l-0.4638672,0.3720703l-0.4101562-0.5126953l1.2988281-1.0341797
					h0.7001953V8.0092773z"/>
				<path d="M392.2001953,8.0092773h-2.8173828V7.4165039l1.0117188-1.0229492
					c0.2998047-0.3071289,0.4951172-0.5200195,0.5869141-0.6381836c0.0917969-0.1186523,0.1582031-0.2285156,0.1982422-0.3295898
					c0.0410156-0.1010742,0.0615234-0.2060547,0.0615234-0.3144531c0-0.1616211-0.0449219-0.2822266-0.1337891-0.3613281
					c-0.0898438-0.0791016-0.2089844-0.1186523-0.3574219-0.1186523c-0.15625,0-0.3076172,0.0361328-0.4550781,0.1079102
					c-0.1464844,0.0712891-0.3007812,0.1733398-0.4599609,0.3056641l-0.4638672-0.5483398
					c0.1992188-0.1694336,0.3632812-0.2885742,0.4941406-0.3588867c0.1298828-0.0698242,0.2724609-0.1235352,0.4267578-0.1611328
					s0.3271484-0.0566406,0.5185547-0.0566406c0.2519531,0,0.4746094,0.0463867,0.6669922,0.1381836
					c0.1933594,0.0917969,0.3427734,0.2202148,0.4501953,0.3857422c0.1064453,0.1655273,0.1591797,0.3549805,0.1591797,0.5683594
					c0,0.1855469-0.0322266,0.3598633-0.0976562,0.5224609s-0.1660156,0.3295898-0.3027344,0.5004883
					c-0.1376953,0.1708984-0.3789062,0.4145508-0.7246094,0.7304688l-0.5175781,0.4882812v0.0385742h1.7558594V8.0092773z"/>
				<path d="M395.4013672,5.9936523c0,0.7041016-0.1162109,1.2250977-0.3466797,1.5634766s-0.5859375,0.5073242-1.0654297,0.5073242
					c-0.4648438,0-0.8154297-0.1748047-1.0517578-0.5239258s-0.3544922-0.8647461-0.3544922-1.546875
					c0-0.7114258,0.1152344-1.2358398,0.3447266-1.5732422c0.2294922-0.3369141,0.5839844-0.5058594,1.0615234-0.5058594
					c0.4648438,0,0.8164062,0.1762695,1.0546875,0.5292969S395.4013672,5.3134766,395.4013672,5.9936523z M393.4296875,5.9936523
					c0,0.4946289,0.0429688,0.8486328,0.1279297,1.0629883c0.0859375,0.2143555,0.2294922,0.3212891,0.4316406,0.3212891
					c0.1982422,0,0.3417969-0.1083984,0.4296875-0.3256836c0.0888672-0.2167969,0.1328125-0.5698242,0.1328125-1.0585938
					c0-0.4946289-0.0449219-0.8496094-0.1337891-1.065918c-0.0888672-0.2158203-0.2324219-0.3237305-0.4287109-0.3237305
					c-0.2001953,0-0.34375,0.1079102-0.4306641,0.3237305C393.4726562,5.144043,393.4296875,5.4990234,393.4296875,5.9936523z"/>
				<path d="M395.9248047,7.6147461c0-0.1542969,0.0419922-0.2709961,0.1240234-0.3500977
					c0.0830078-0.0791016,0.203125-0.1186523,0.3613281-0.1186523c0.1533203,0,0.2705078,0.0405273,0.3544922,0.121582
					s0.1259766,0.1967773,0.1259766,0.347168c0,0.1455078-0.0429688,0.2597656-0.1269531,0.34375
					c-0.0849609,0.0834961-0.2021484,0.125-0.3535156,0.125c-0.1542969,0-0.2734375-0.0405273-0.3583984-0.1225586
					C395.9677734,7.8793945,395.9248047,7.7636719,395.9248047,7.6147461z"/>
				<path d="M400.2353516,5.9936523c0,0.7041016-0.1162109,1.2250977-0.3466797,1.5634766s-0.5859375,0.5073242-1.0654297,0.5073242
					c-0.4648438,0-0.8154297-0.1748047-1.0517578-0.5239258s-0.3544922-0.8647461-0.3544922-1.546875
					c0-0.7114258,0.1152344-1.2358398,0.3447266-1.5732422c0.2294922-0.3369141,0.5839844-0.5058594,1.0615234-0.5058594
					c0.4648438,0,0.8164062,0.1762695,1.0546875,0.5292969S400.2353516,5.3134766,400.2353516,5.9936523z M398.2636719,5.9936523
					c0,0.4946289,0.0429688,0.8486328,0.1279297,1.0629883c0.0859375,0.2143555,0.2294922,0.3212891,0.4316406,0.3212891
					c0.1982422,0,0.3417969-0.1083984,0.4296875-0.3256836c0.0888672-0.2167969,0.1328125-0.5698242,0.1328125-1.0585938
					c0-0.4946289-0.0449219-0.8496094-0.1337891-1.065918c-0.0888672-0.2158203-0.2324219-0.3237305-0.4287109-0.3237305
					c-0.2001953,0-0.34375,0.1079102-0.4306641,0.3237305C398.3066406,5.144043,398.2636719,5.4990234,398.2636719,5.9936523z"/>
				<path d="M403.4589844,5.9936523c0,0.7041016-0.1162109,1.2250977-0.3466797,1.5634766s-0.5859375,0.5073242-1.0654297,0.5073242
					c-0.4648438,0-0.8154297-0.1748047-1.0517578-0.5239258s-0.3544922-0.8647461-0.3544922-1.546875
					c0-0.7114258,0.1152344-1.2358398,0.3447266-1.5732422c0.2294922-0.3369141,0.5839844-0.5058594,1.0615234-0.5058594
					c0.4648438,0,0.8164062,0.1762695,1.0546875,0.5292969S403.4589844,5.3134766,403.4589844,5.9936523z M401.4873047,5.9936523
					c0,0.4946289,0.0429688,0.8486328,0.1279297,1.0629883c0.0859375,0.2143555,0.2294922,0.3212891,0.4316406,0.3212891
					c0.1982422,0,0.3417969-0.1083984,0.4296875-0.3256836c0.0888672-0.2167969,0.1328125-0.5698242,0.1328125-1.0585938
					c0-0.4946289-0.0449219-0.8496094-0.1337891-1.065918c-0.0888672-0.2158203-0.2324219-0.3237305-0.4287109-0.3237305
					c-0.2001953,0-0.34375,0.1079102-0.4306641,0.3237305C401.5302734,5.144043,401.4873047,5.4990234,401.4873047,5.9936523z"/>
				<path d="M405.3466797,6.4624023c0,0.4833984-0.0712891,0.9335938-0.2138672,1.3510742s-0.3476562,0.7802734-0.6162109,1.0893555
					h-0.6835938c0.2480469-0.3383789,0.4404297-0.7177734,0.5761719-1.1376953s0.2041016-0.855957,0.2041016-1.3081055
					c0-0.4487305-0.0664062-0.8852539-0.1982422-1.3100586c-0.1328125-0.4243164-0.328125-0.8139648-0.5878906-1.1689453h0.6894531
					c0.2705078,0.3217773,0.4765625,0.6953125,0.6181641,1.1206055
					C405.2763672,5.5244141,405.3466797,5.9790039,405.3466797,6.4624023z"/>
			</g>
			<g>
				<path d="M357.4189453,4.0839844c-0.0058594-0.0322266-0.0185547-0.0991211-0.0683594-0.1499023l-0.0009766-0.0004883
					c-0.0302734-0.0307617-0.0947266-0.0947266-0.2080078-0.0947266h-4.9755859l-0.1132812-0.5654297
					c-0.0117188-0.1328125-0.1552734-0.2358398-0.2705078-0.2358398h-0.8076172
					c-0.1572266,0-0.2705078,0.1137695-0.2705078,0.2705078c0,0.1552734,0.1181641,0.2773438,0.2705078,0.2773438h0.5810547
					l0.6210938,3.1567383c0.09375,0.4838867,0.5556641,0.862793,1.0507812,0.862793h2.5245972
					c-0.4285889,0.0263062-0.7599487,0.3634033-0.7599487,0.7993164c0,0.4541016,0.3554688,0.8095703,0.8095703,0.8095703
					s0.8085938-0.3554688,0.8085938-0.8095703c0-0.4359131-0.3305054-0.7730103-0.7590332-0.7993164h0.4621582
					c0.1572266,0,0.2705078-0.1142578,0.2705078-0.2709961c0-0.1542969-0.1162109-0.2709961-0.2705078-0.2709961h-3.0537109
					c-0.0830078,0-0.1630859-0.019043-0.2324219-0.0541992l3.6152344-0.4941406
					c0.1298828,0,0.2431641-0.1142578,0.2402344-0.2202148l0.5390625-2.140625l0.0078125-0.0483398L357.4189453,4.0839844z
					 M356.0693359,8.4042969c0,0.1342773-0.1269531,0.2612305-0.2617188,0.2612305
					c-0.1396484,0-0.2675781-0.1245117-0.2675781-0.2612305c0-0.1391602,0.1220703-0.2607422,0.2617188-0.2607422
					C355.9394531,8.1435547,356.0693359,8.2700195,356.0693359,8.4042969z M356.7783203,4.3608398l-0.3945312,1.6416016
					l-3.6875,0.4780273l-0.4238281-2.1196289H356.7783203z"/>
				<path d="M353.1220703,7.5952148c-0.4541016,0-0.8085938,0.3554688-0.8085938,0.809082
					c0,0.4541016,0.3544922,0.8095703,0.8085938,0.8095703s0.8085938-0.3554688,0.8085938-0.8095703
					C353.9306641,7.9506836,353.5761719,7.5952148,353.1220703,7.5952148z M353.3837891,8.4042969
					c0,0.1342773-0.1269531,0.2612305-0.2617188,0.2612305s-0.2617188-0.1269531-0.2617188-0.2612305
					s0.1269531-0.2607422,0.2617188-0.2607422S353.3837891,8.2700195,353.3837891,8.4042969z"/>
			</g>
		</g>
		<g id="Account">
			<g>
				<path d="M304.7304688,8.0092773l-0.9707031-3.1625977h-0.0244141c0.0351562,0.6435547,0.0527344,1.0727539,0.0527344,1.2875977
					v1.875h-0.7636719v-4.03125H304.1875l0.9541016,3.0825195h0.0166016l1.0117188-3.0825195h1.1640625v4.03125h-0.796875V6.1010742
					c0-0.0898438,0.0009766-0.1938477,0.0039062-0.3115234s0.0146484-0.4301758,0.0371094-0.9375h-0.0244141l-1.0400391,3.1572266
					H304.7304688z"/>
				<path d="M309.6025391,5.6381836l0.8408203-1.6601562h0.9208984l-1.3369141,2.4624023v1.5688477h-0.8496094V6.4677734
					l-1.3369141-2.4897461h0.9267578L309.6025391,5.6381836z"/>
				<path d="M315.8076172,8.0092773l-0.2929688-0.9594727h-1.4697266l-0.2919922,0.9594727h-0.9208984l1.4228516-4.0478516
					h1.0449219l1.4287109,4.0478516H315.8076172z M315.3105469,6.3330078
					c-0.2695312-0.8696289-0.421875-1.3613281-0.4560547-1.4755859c-0.0341797-0.1137695-0.0585938-0.2041016-0.0732422-0.2700195
					c-0.0605469,0.2353516-0.234375,0.8168945-0.5205078,1.7456055H315.3105469z"/>
				<path d="M318.9482422,4.6313477c-0.3212891,0-0.5712891,0.1210938-0.7470703,0.362793
					c-0.1767578,0.2416992-0.2646484,0.5786133-0.2646484,1.0107422c0,0.8989258,0.3369141,1.3481445,1.0117188,1.3481445
					c0.2832031,0,0.6259766-0.0708008,1.0283203-0.2124023v0.7167969c-0.3310547,0.1381836-0.7001953,0.2070312-1.1083984,0.2070312
					c-0.5859375,0-1.0351562-0.1777344-1.3457031-0.5336914c-0.3105469-0.3554688-0.4658203-0.8662109-0.4658203-1.5317383
					c0-0.4189453,0.0761719-0.7861328,0.2285156-1.1015625c0.1533203-0.3149414,0.3720703-0.5566406,0.6582031-0.7250977
					c0.2851562-0.1679688,0.6210938-0.2524414,1.0048828-0.2524414c0.3916016,0,0.7851562,0.0947266,1.1796875,0.2841797
					l-0.2753906,0.6948242c-0.1503906-0.0717773-0.3027344-0.1342773-0.4550781-0.1875S319.0957031,4.6313477,318.9482422,4.6313477
					z"/>
				<path d="M322.5458984,4.6313477c-0.3212891,0-0.5712891,0.1210938-0.7470703,0.362793
					c-0.1767578,0.2416992-0.2646484,0.5786133-0.2646484,1.0107422c0,0.8989258,0.3369141,1.3481445,1.0117188,1.3481445
					c0.2832031,0,0.6259766-0.0708008,1.0283203-0.2124023v0.7167969c-0.3310547,0.1381836-0.7001953,0.2070312-1.1083984,0.2070312
					c-0.5859375,0-1.0351562-0.1777344-1.3457031-0.5336914c-0.3105469-0.3554688-0.4658203-0.8662109-0.4658203-1.5317383
					c0-0.4189453,0.0761719-0.7861328,0.2285156-1.1015625c0.1533203-0.3149414,0.3720703-0.5566406,0.6582031-0.7250977
					c0.2851562-0.1679688,0.6210938-0.2524414,1.0048828-0.2524414c0.3916016,0,0.7851562,0.0947266,1.1796875,0.2841797
					l-0.2753906,0.6948242c-0.1503906-0.0717773-0.3027344-0.1342773-0.4550781-0.1875S322.6933594,4.6313477,322.5458984,4.6313477
					z"/>
				<path d="M328.0908203,5.9882812c0,0.6669922-0.1650391,1.1801758-0.4960938,1.5385742s-0.8046875,0.5375977-1.4228516,0.5375977
					c-0.6171875,0-1.0917969-0.1791992-1.4228516-0.5375977s-0.4960938-0.8730469-0.4960938-1.5444336
					c0-0.6708984,0.1660156-1.1831055,0.4980469-1.5371094c0.3310547-0.3540039,0.8066406-0.5307617,1.4267578-0.5307617
					c0.6191406,0,1.0927734,0.1782227,1.4208984,0.5351562C327.9267578,4.8061523,328.0908203,5.3188477,328.0908203,5.9882812z
					 M325.1494141,5.9882812c0,0.4501953,0.0849609,0.7895508,0.2558594,1.0170898
					c0.1708984,0.2280273,0.4267578,0.3422852,0.7666016,0.3422852c0.6826172,0,1.0234375-0.453125,1.0234375-1.359375
					c0-0.9082031-0.3398438-1.3623047-1.0175781-1.3623047c-0.3398438,0-0.5966797,0.1142578-0.7695312,0.3432617
					S325.1494141,5.5375977,325.1494141,5.9882812z"/>
				<path d="M332.2080078,3.9780273v2.6083984c0,0.2978516-0.0673828,0.559082-0.2001953,0.7832031
					c-0.1337891,0.2241211-0.3261719,0.3959961-0.578125,0.515625s-0.5498047,0.1791992-0.8935547,0.1791992
					c-0.5175781,0-0.9208984-0.1328125-1.2070312-0.3984375c-0.2871094-0.265625-0.4306641-0.6289062-0.4306641-1.090332V3.9780273
					h0.8525391v2.4677734c0,0.3105469,0.0625,0.5385742,0.1875,0.684082c0.125,0.1450195,0.3320312,0.2177734,0.6201172,0.2177734
					c0.2792969,0,0.4824219-0.0732422,0.6083984-0.2192383c0.1259766-0.1464844,0.1884766-0.3754883,0.1884766-0.6879883V3.9780273
					H332.2080078z"/>
				<path d="M336.7714844,8.0092773h-1.0869141l-1.7539062-3.0498047H333.90625
					c0.0351562,0.5385742,0.0527344,0.9228516,0.0527344,1.152832v1.8969727h-0.7636719v-4.03125h1.078125l1.75,3.0195312h0.0195312
					c-0.0273438-0.5239258-0.0410156-0.8945312-0.0410156-1.1113281V3.9780273h0.7695312V8.0092773z"/>
				<path d="M339.3408203,8.0092773h-0.8544922V4.6894531h-1.0947266V3.9780273h3.0439453v0.7114258h-1.0947266V8.0092773z"/>
			</g>
			<path class="st2" d="M297.7999878,6.0999999c0.3999939-0.4000001,0.6000061-0.9000001,0.6000061-1.4000001
				c0-1-0.7999878-1.8-1.7999878-1.8s-1.7999878,0.8-1.7999878,1.8c0,0.5,0.2999878,1,0.6000061,1.4000001
				c-1.1000061,0.5-1.7999878,1.7000003-1.7999878,2.9000001c0,0.1000004,0.1000061,0.1000004,0.1000061,0.1000004h5.6000061
				C299.4000549,9.1000004,299.4000549,9,299.4000549,9C299.6000061,7.6999998,298.8999939,6.5999999,297.7999878,6.0999999z
				 M296.6000061,3.3c0.7999878,0,1.5,0.6000001,1.5,1.5000002c0,0.5-0.2999878,1-0.7999878,1.3000002l0,0l0,0l0,0l0,0
				c-0.2999878,0.0999999-0.3999939,0.0999999-0.6000061,0.0999999c-0.7999878,0-1.5-0.5999999-1.5-1.5
				S295.8999939,3.3,296.6000061,3.3z M295.8999939,6.3000002c0.2999878,0.0999999,0.5,0.3000002,0.7999878,0.3000002
				s0.5-0.0999999,0.7999878-0.3000002c1,0.3000002,1.5411987,1.3941183,1.5411987,2.5941172L294,8.8999996
				C294.1000061,7.6999998,294.7999878,6.6999998,295.8999939,6.3000002z"/>
		</g>
		<g id="Wishlist_1_">
			<g>
				<path d="M261.5332031,8.0092773h-0.9726562l-0.546875-2.1176758c-0.0195312-0.0751953-0.0546875-0.230957-0.1025391-0.4672852
					c-0.0488281-0.2363281-0.0771484-0.3950195-0.0849609-0.4755859c-0.0107422,0.0991211-0.0380859,0.2587891-0.0820312,0.4785156
					c-0.0439453,0.2192383-0.078125,0.3759766-0.1025391,0.4697266l-0.5429688,2.1123047h-0.9707031l-1.0283203-4.03125h0.8408203
					l0.515625,2.2001953c0.0898438,0.40625,0.1552734,0.7583008,0.1962891,1.0561523
					c0.0107422-0.1044922,0.0361328-0.2670898,0.0751953-0.4868164c0.0400391-0.2192383,0.0771484-0.3901367,0.1123047-0.5112305
					l0.5869141-2.2583008h0.8076172l0.5878906,2.2583008c0.0253906,0.1010742,0.0576172,0.2553711,0.0966797,0.4633789
					c0.0380859,0.2075195,0.0673828,0.3857422,0.0878906,0.534668c0.0185547-0.1430664,0.0478516-0.3222656,0.0878906-0.5361328
					c0.0410156-0.2143555,0.0771484-0.3876953,0.1103516-0.5200195l0.5126953-2.2001953h0.8417969L261.5332031,8.0092773z"/>
				<path d="M263.0673828,8.0092773v-4.03125h0.8544922v4.03125H263.0673828z"/>
				<path d="M267.3154297,6.8896484c0,0.3642578-0.1308594,0.6508789-0.3925781,0.8603516s-0.6269531,0.3144531-1.09375,0.3144531
					c-0.4296875,0-0.8105469-0.0810547-1.1416016-0.2426758V7.027832c0.2724609,0.1210938,0.5029297,0.206543,0.6914062,0.2563477
					c0.1884766,0.0493164,0.3603516,0.0742188,0.5166016,0.0742188c0.1875,0,0.3310547-0.0356445,0.4316406-0.1074219
					s0.1503906-0.1782227,0.1503906-0.3198242c0-0.0791016-0.0224609-0.1494141-0.0664062-0.2109375
					s-0.1083984-0.1210938-0.1943359-0.1777344c-0.0849609-0.0571289-0.2597656-0.1479492-0.5224609-0.2729492
					c-0.2460938-0.1157227-0.4306641-0.2270508-0.5546875-0.3339844c-0.1230469-0.1064453-0.2207031-0.2304688-0.2949219-0.3720703
					c-0.0732422-0.1416016-0.1103516-0.3071289-0.1103516-0.4960938c0-0.3569336,0.1210938-0.637207,0.3632812-0.8413086
					c0.2412109-0.2041016,0.5751953-0.3061523,1.0019531-0.3061523c0.2099609,0,0.4091797,0.0249023,0.5996094,0.074707
					c0.1904297,0.0493164,0.3896484,0.1196289,0.5966797,0.2094727l-0.2753906,0.6645508
					c-0.2148438-0.0883789-0.3925781-0.1499023-0.5332031-0.1845703c-0.140625-0.0351562-0.2792969-0.0527344-0.4150391-0.0527344
					c-0.1621094,0-0.2861328,0.0380859-0.3720703,0.1132812c-0.0869141,0.0751953-0.1298828,0.1738281-0.1298828,0.2949219
					c0,0.0751953,0.0175781,0.1411133,0.0527344,0.1972656c0.0341797,0.0561523,0.0898438,0.1103516,0.1660156,0.1625977
					c0.0771484,0.0522461,0.2568359,0.1464844,0.5419922,0.2827148c0.3769531,0.1801758,0.6357422,0.3608398,0.7753906,0.5419922
					C267.2460938,6.4047852,267.3154297,6.6269531,267.3154297,6.8896484z"/>
				<path d="M271.3496094,8.0092773h-0.8515625V6.2695312h-1.5966797v1.7397461h-0.8544922v-4.03125h0.8544922v1.5800781h1.5966797
					V3.9780273h0.8515625V8.0092773z"/>
				<path d="M272.3671875,8.0092773v-4.03125h0.8544922v3.3251953h1.6347656v0.7060547H272.3671875z"/>
				<path d="M275.5576172,8.0092773v-4.03125h0.8544922v4.03125H275.5576172z"/>
				<path d="M279.8066406,6.8896484c0,0.3642578-0.1308594,0.6508789-0.3925781,0.8603516s-0.6269531,0.3144531-1.09375,0.3144531
					c-0.4296875,0-0.8105469-0.0810547-1.1416016-0.2426758V7.027832c0.2724609,0.1210938,0.5029297,0.206543,0.6914062,0.2563477
					c0.1884766,0.0493164,0.3603516,0.0742188,0.5166016,0.0742188c0.1875,0,0.3310547-0.0356445,0.4316406-0.1074219
					s0.1503906-0.1782227,0.1503906-0.3198242c0-0.0791016-0.0224609-0.1494141-0.0664062-0.2109375
					s-0.1083984-0.1210938-0.1943359-0.1777344c-0.0849609-0.0571289-0.2597656-0.1479492-0.5224609-0.2729492
					c-0.2460938-0.1157227-0.4306641-0.2270508-0.5546875-0.3339844c-0.1230469-0.1064453-0.2207031-0.2304688-0.2949219-0.3720703
					c-0.0732422-0.1416016-0.1103516-0.3071289-0.1103516-0.4960938c0-0.3569336,0.1210938-0.637207,0.3632812-0.8413086
					c0.2412109-0.2041016,0.5751953-0.3061523,1.0019531-0.3061523c0.2099609,0,0.4091797,0.0249023,0.5996094,0.074707
					c0.1904297,0.0493164,0.3896484,0.1196289,0.5966797,0.2094727l-0.2753906,0.6645508
					c-0.2148438-0.0883789-0.3925781-0.1499023-0.5332031-0.1845703c-0.140625-0.0351562-0.2792969-0.0527344-0.4150391-0.0527344
					c-0.1621094,0-0.2861328,0.0380859-0.3720703,0.1132812c-0.0869141,0.0751953-0.1298828,0.1738281-0.1298828,0.2949219
					c0,0.0751953,0.0175781,0.1411133,0.0527344,0.1972656c0.0341797,0.0561523,0.0898438,0.1103516,0.1660156,0.1625977
					c0.0771484,0.0522461,0.2568359,0.1464844,0.5419922,0.2827148c0.3769531,0.1801758,0.6357422,0.3608398,0.7753906,0.5419922
					C279.7373047,6.4047852,279.8066406,6.6269531,279.8066406,6.8896484z"/>
				<path d="M282.0927734,8.0092773h-0.8544922V4.6894531h-1.0947266V3.9780273H283.1875v0.7114258h-1.0947266V8.0092773z"/>
			</g>
			<path class="st0" d="M254.6934357,4.9317131c-0.0800629-1.037447-0.9600677-1.8727939-2.0025177-1.9020503
				c-0.5266113-0.0238671-1.0871124,0.1905515-1.4913025,0.5685747c-0.388031-0.3657048-0.895401-0.5697296-1.4174042-0.5697296
				c-0.0238647,0-0.0477295,0.000385-0.0723724,0.0011549c-1.0439911,0.0292563-1.9239807,0.8646033-2.0040588,1.9024351
				c-0.0061493,0.0843048-0.0061493,0.1759233-0.0061493,0.2660022c0.0146179,0.3760986,0.1732178,0.7506576,0.4480743,1.0551548
				l2.6615601,2.9464264c0.1000977,0.1097116,0.2425232,0.1724586,0.3903503,0.1724586
				c0.1432037,0,0.2864075-0.0612078,0.3980408-0.1732283l2.6538544-2.9456568
				c0.2710114-0.2998781,0.425766-0.6636581,0.4488525-1.0601592
				C254.7003632,5.1080213,254.7003632,5.0164027,254.6934357,4.9317131z M250.9339905,4.2669001
				c0.1201019,0.1655297,0.3972778,0.1659145,0.5173798-0.0003848c0.2779388-0.3891871,0.7429657-0.6070702,1.2164459-0.6024508
				c0.7183228,0.025022,1.3296356,0.6032205,1.3919983,1.3184624c0.0061493,0.0635171,0.0061493,0.1270342,0.0061493,0.1832376
				c-0.0123138,0.2405953-0.1131744,0.4734912-0.2848663,0.6571136l-2.5814819,2.865202l-2.5814972-2.865202
				c-0.1716919-0.1905513-0.2725372-0.4234476-0.2840881-0.6501846c0-0.0639019,0-0.1278043,0.0061493-0.1932459
				c0.0562134-0.7187066,0.6644287-1.296905,1.3796692-1.315383h0.0477448
				C250.232605,3.6640644,250.6683807,3.8892617,250.9339905,4.2669001z"/>
		</g>
	</g>
	<rect x="22.1000004" y="5.0999999" class="st0" width="23.4999981" height="1.7999997"/>
	<rect x="55.5999985" y="5.0999999" class="st0" width="23.5" height="1.7999997"/>
	<rect x="89.0999985" y="5.0999999" class="st0" width="23.5" height="1.7999997"/>
	<rect x="122.5999985" y="5.0999999" class="st0" width="23.5000076" height="1.7999997"/>
</g>
</svg>
