<?xml version="1.0" encoding="utf-8"?>
<!-- Generator: Adobe Illustrator 21.0.0, SVG Export Plug-In . SVG Version: 6.00 Build 0)  -->
<svg version="1.1" id="Layer_1" xmlns="http://www.w3.org/2000/svg" width="430" height="80" xmlns:xlink="http://www.w3.org/1999/xlink" x="0px" y="0px"
	 viewBox="0 0 430 70" style="enable-background:new 0 0 430 70;" xml:space="preserve">
<style type="text/css">
	.st0{enable-background:new    ;}
	.st1{fill:#222222;}
	.st2{fill:#FFFFFF;}
	.st3{fill:#1089EF;}
	.st4{font-family:'OpenSans-Semibold';}
	.st5{font-size:10px;}
	.st6{letter-spacing:25;}
</style>
<g class="st0">
	<path class="st1" d="M21.5,42.2000008V27.8999996h2.2999992v12.3000011h6v2H21.5z"/>
	<path class="st1" d="M45,35c0,2.2999992-0.5999985,4.0999985-1.7000008,5.4000015S40.5,42.3000031,38.3999977,42.3000031
		c-2.2000008,0-3.7999992-0.5999985-5-1.9000015s-1.7000008-3.0999985-1.7000008-5.5s0.5999985-4.2000008,1.7000008-5.3999996
		s2.7999992-1.8999996,5-1.8999996c2.0999985,0,3.7999992,0.6000004,4.9000015,1.8999996S45,32.7000008,45,35z M34.0999985,35
		c0,1.7999992,0.4000015,3.0999985,1.0999985,4s1.7999992,1.4000015,3.2000008,1.4000015S40.7999992,40,41.4999962,39.1000023
		c0.7000008-0.9000015,1.0999985-2.2000008,1.0999985-4s-0.4000015-3.0999985-1-4
		c-0.5999985-0.8999996-1.7000008-1.3999996-3.0999985-1.3999996c-1.4000015,0-2.5,0.5-3.2000008,1.3999996
		C34.5999985,32,34.0999985,33.2000008,34.0999985,35z"/>
	<path class="st1" d="M53.9000015,34.4000015h5.2999992v7.2000008c-0.9000015,0.2999992-1.7000008,0.5-2.5,0.5999985
		s-1.5999985,0.2000008-2.5999985,0.2000008c-2.2000008,0-3.7999992-0.5999985-5-1.9000015
		s-1.7999992-3.0999985-1.7999992-5.4000015s0.7000008-4.1000004,2-5.3999996s3.0999985-1.8999996,5.5-1.8999996
		c1.5,0,2.9000015,0.2999992,4.2000008,0.8999996l-0.7999992,1.8999996c-1.2000008-0.5-2.2999992-0.7999992-3.5-0.7999992
		c-1.5,0-2.7000008,0.5-3.5999985,1.3999996C50.2000046,32.1999969,49.8000069,33.5,49.8000069,35.0999985
		c0,1.7000008,0.4000015,3.0999985,1.2000008,4S52.9000092,40.5,54.4000092,40.5
		c0.7999992,0,1.5999985-0.0999985,2.4000015-0.2999992V36.5h-3L53.9000015,34.4000015L53.9000015,34.4000015z"/>
	<path class="st1" d="M75.1999969,35c0,2.2999992-0.5999985,4.0999985-1.6999969,5.4000015
		s-2.8000031,1.9000015-4.9000015,1.9000015c-2.1999969,0-3.8000031-0.5999985-5-1.9000015s-1.7000008-3.0999985-1.7000008-5.5
		s0.5999985-4.2000008,1.7000008-5.3999996c1.0999985-1.2000008,2.8000031-1.8999996,5-1.8999996
		c2.0999985,0,3.8000031,0.6000004,4.9000015,1.8999996C74.6999969,30.8999996,75.1999969,32.7000008,75.1999969,35z M64.3000031,35
		c0,1.7999992,0.4000015,3.0999985,1.0999985,4s1.8000031,1.4000015,3.1999969,1.4000015S71,40,71.6999969,39.1000023
		c0.6999969-0.9000015,1.0999985-2.2000008,1.0999985-4s-0.3000031-3.0999985-1-4s-1.6999969-1.3999996-3.0999985-1.3999996
		s-2.5,0.5-3.1999969,1.3999996C64.8000031,32,64.3000031,33.2000008,64.3000031,35z"/>
</g>
<rect x="132.5" class="st1" width="46.3000031" height="70"/>
<g class="st0">
	<path class="st2" d="M147.6000061,40h-1.1999969v-3.2000008h-3.3000031V40h-1.1999969v-7.0999985h1.1999969v2.9000015h3.3000031
		v-2.9000015h1.1999969V40z"/>
	<path class="st2" d="M155.8000031,36.4000015c0,1.2000008-0.3000031,2.0999985-0.8999939,2.7000008s-1.3999939,1-2.5,1
		s-1.8999939-0.2999992-2.5-1c-0.6000061-0.5999985-0.8999939-1.5-0.8999939-2.7000008s0.3000031-2.0999985,0.8999939-2.7000008
		s1.3999939-0.9000015,2.5-0.9000015s1.8999939,0.2999992,2.5,1S155.8000031,35.2999992,155.8000031,36.4000015z
		 M150.3000031,36.4000015c0,0.9000015,0.1999969,1.5,0.5,2c0.3999939,0.5,0.8999939,0.7000008,1.6000061,0.7000008
		c0.6999969,0,1.1999969-0.2000008,1.6000061-0.7000008s0.5-1.0999985,0.5-2s-0.1999969-1.5-0.5-2
		s-0.8999939-0.7000008-1.6000061-0.7000008c-0.6999969,0-1.1999969,0.2000008-1.6000061,0.7000008
		S150.3000031,35.5,150.3000031,36.4000015z"/>
	<path class="st2" d="M160.3999939,40l-2.1000061-6l0,0c0.1000061,0.9000015,0.1000061,1.7000008,0.1000061,2.5V40h-1.1000061
		v-7.0999985h1.6000061l2,5.7000008l0,0l2-5.7000008h1.6999969V40h-1.1000061v-3.5c0-0.4000015,0-0.7999992,0-1.4000015
		s0-0.9000015,0-1l0,0l-2.1000061,6L160.3999939,40L160.3999939,40z"/>
	<path class="st2" d="M170.6000061,40h-4v-7.0999985h4v1h-2.8999939v1.9000015h2.6999969v1h-2.6999969V39h2.8999939V40z"/>
	<path class="st1" d="M189.1999969,38.0999985c0,0.5999985-0.1999969,1.0999985-0.6999969,1.5s-1.1000061,0.5-1.8999939,0.5
		s-1.5-0.0999985-2-0.4000015v-1.0999985c0.3000031,0.2000008,0.6999969,0.2999992,1,0.4000015
		c0.3999939,0.0999985,0.6999969,0.0999985,1,0.0999985c0.5,0,0.8000031-0.0999985,1-0.2999992
		s0.3000031-0.4000015,0.3000031-0.7000008s-0.1000061-0.5-0.3000031-0.7000008S187,36.9999962,186.4000092,36.6999969
		c-0.6999969-0.2999992-1.1000061-0.5999985-1.3999939-0.9000015s-0.3999939-0.7000008-0.3999939-1.2000008
		c0-0.5999985,0.1999969-1.0999985,0.6000061-1.4000015s1-0.5,1.6999969-0.5s1.3999939,0.0999985,2,0.4000015l-0.3999939,1
		c-0.6000061-0.2999992-1.1999969-0.4000015-1.6999969-0.4000015c-0.3999939,0-0.6999969,0.0999985-0.8999939,0.2000008
		c-0.1999969,0.2000008-0.3000031,0.4000015-0.3000031,0.7000008c0,0.2000008,0,0.2999992,0.1000061,0.5
		c0.1000061,0.0999985,0.1999969,0.2999992,0.3999939,0.4000015s0.5,0.2999992,1,0.5s0.8999939,0.4000015,1.1999969,0.5999985
		s0.3999939,0.4000015,0.5,0.5999985S189.1999969,37.7000008,189.1999969,38.0999985z"/>
	<path class="st1" d="M196.1999969,40H195v-3.2000008h-3.3000031V40H190.5v-7.0999985h1.1999969v2.9000015H195v-2.9000015h1.1999969
		V40z"/>
	<path class="st1" d="M204.3999939,36.4000015c0,1.2000008-0.3000031,2.0999985-0.8999939,2.7000008
		c-0.6000061,0.5999985-1.3999939,1-2.5,1s-1.8999939-0.2999992-2.5-1c-0.6000061-0.5999985-0.8999939-1.5-0.8999939-2.7000008
		s0.3000031-2.0999985,0.8999939-2.7000008c0.6000061-0.5999985,1.3999939-0.9000015,2.5-0.9000015s1.8999939,0.2999992,2.5,1
		S204.3999939,35.2999992,204.3999939,36.4000015z M199,36.4000015c0,0.9000015,0.1999969,1.5,0.5,2
		c0.3999939,0.5,0.8999939,0.7000008,1.6000061,0.7000008c0.6999969,0,1.1999969-0.2000008,1.6000061-0.7000008
		c0.3999939-0.4000015,0.5-1.0999985,0.5-2s-0.1999969-1.5-0.5-2c-0.3999939-0.5-0.8999939-0.7000008-1.6000061-0.7000008
		c-0.6999969,0-1.1999969,0.2000008-1.6000061,0.7000008C199.1999969,34.9000015,199,35.5,199,36.4000015z"/>
	<path class="st1" d="M210.6999969,35c0,0.7000008-0.1999969,1.2999992-0.6999969,1.7000008
		s-1.1999969,0.5999985-2.1000061,0.5999985h-0.6999969V40H206v-7.0999985h2.1000061c0.8999939,0,1.6000061,0.2000008,2,0.5
		C210.5,33.7999992,210.6999969,34.2999992,210.6999969,35z M207.1000061,36.2999992h0.6000061
		c0.6000061,0,1-0.0999985,1.3000031-0.2999992s0.3999939-0.5,0.3999939-1c0-0.4000015-0.1000061-0.7000008-0.3999939-0.9000015
		s-0.6000061-0.2999992-1.1999969-0.2999992H207L207.1000061,36.2999992L207.1000061,36.2999992z"/>
	<path class="st1" d="M228.1999969,33.7999992C227.5,33.7999992,227,34,226.5999908,34.5s-0.6000061,1.0999985-0.6000061,2
		s0.1999969,1.5,0.6000061,2c0.3999939,0.4000015,0.8999939,0.7000008,1.6000061,0.7000008
		c0.3000031,0,0.6000061,0,0.8999939-0.0999985c0.3000031-0.0999985,0.6000061-0.0999985,0.8999939-0.2000008v1
		c-0.6000061,0.2000008-1.1999969,0.2999992-1.8999939,0.2999992c-1,0-1.8000031-0.2999992-2.3999939-0.9000015
		c-0.6000061-0.5999985-0.8000031-1.5-0.8000031-2.7000008c0-0.7000008,0.1000061-1.4000015,0.3999939-1.9000015
		c0.3000031-0.5999985,0.6999969-1,1.1999969-1.2999992s1.1000061-0.4000015,1.8000031-0.4000015s1.3999939,0.2000008,2,0.5
		l-0.3999939,1c-0.1999969-0.0999985-0.5-0.2000008-0.8000031-0.2999992
		C228.6999969,33.7999992,228.5,33.7999992,228.1999969,33.7999992z"/>
	<path class="st1" d="M237.8000031,36.4000015c0,1.2000008-0.3000031,2.0999985-0.8999939,2.7000008
		c-0.6000061,0.5999985-1.3999939,1-2.5,1s-1.8999939-0.2999992-2.5-1c-0.6000061-0.5999985-0.8999939-1.5-0.8999939-2.7000008
		s0.3000031-2.0999985,0.8999939-2.7000008c0.6000061-0.5999985,1.3999939-0.9000015,2.5-0.9000015s1.8999939,0.2999992,2.5,1
		S237.8000031,35.2999992,237.8000031,36.4000015z M232.3000031,36.4000015c0,0.9000015,0.1999969,1.5,0.5,2
		c0.3999939,0.5,0.8999939,0.7000008,1.6000061,0.7000008c0.6999969,0,1.1999969-0.2000008,1.6000061-0.7000008
		c0.3999939-0.4000015,0.5-1.0999985,0.5-2s-0.1999969-1.5-0.5-2c-0.3999939-0.5-0.8999939-0.7000008-1.6000061-0.7000008
		c-0.6999969,0-1.1999969,0.2000008-1.6000061,0.7000008C232.5,34.9000015,232.3000031,35.5,232.3000031,36.4000015z"/>
	<path class="st1" d="M245.3000031,40h-1.3999939l-3.5-5.7000008l0,0v0.2999992
		c0,0.5999985,0.1000061,1.2000008,0.1000061,1.7000008V40h-1.1000061v-7.0999985h1.3999939l3.5,5.7000008l0,0
		c0-0.0999985,0-0.2999992,0-0.7999992s0-0.7999992,0-1.0999985V33h1.1000061v7H245.3000031z"/>
	<path class="st1" d="M249.6000061,40h-1.1999969v-6.0999985h-2.1000061v-1h5.3999939v1h-2.1000061L249.6000061,40L249.6000061,40z"
		/>
	<path class="st1" d="M257.2000122,40L256.5,38h-2.6999969l-0.6999969,2h-1.1999969l2.6999969-7.2000008h1.3000031L258.6000061,40
		H257.2000122z M256.2000122,37l-0.6999969-1.9000015c0-0.0999985-0.1000061-0.2999992-0.1999969-0.5999985
		c-0.1000061-0.2999992-0.1000061-0.5-0.1999969-0.5999985c-0.1000061,0.4000015-0.1999969,0.7999992-0.3999939,1.2999992
		l-0.6000061,1.9000015h2.0999908V37z"/>
	<path class="st1" d="M262.5,33.7999992c-0.7000122,0-1.2000122,0.2000008-1.6000061,0.7000008s-0.6000061,1.0999985-0.6000061,2
		s0.2000122,1.5,0.6000061,2c0.3999939,0.4000015,0.8999939,0.7000008,1.6000061,0.7000008
		c0.2999878,0,0.6000061,0,0.8999939-0.0999985S264,39.0000038,264.2999878,38.9000015v1
		c-0.6000061,0.2000008-1.2000122,0.2999992-1.8999939,0.2999992c-1,0-1.7999878-0.2999992-2.3999939-0.9000015
		c-0.6000061-0.5999985-0.7999878-1.5-0.7999878-2.7000008c0-0.7000008,0.1000061-1.4000015,0.3999939-1.9000015
		c0.2999878-0.5999985,0.7000122-1,1.2000122-1.2999992s1.1000061-0.4000015,1.7999878-0.4000015
		c0.7000122,0,1.3999939,0.2000008,2,0.5l-0.3999939,1c-0.2000122-0.0999985-0.5-0.2000008-0.7999878-0.2999992
		C263,33.7999992,262.7999878,33.7999992,262.5,33.7999992z"/>
	<path class="st1" d="M268.2000122,40H267v-6.0999985h-2v-1h5.3999939v1h-2.1000061L268.2000122,40L268.2000122,40z"/>
	<path class="st1" d="M275.5,38.0999985c0,0.5999985-0.2000122,1.0999985-0.7000122,1.5s-1.1000061,0.5-1.8999939,0.5
		s-1.5-0.0999985-2-0.4000015v-1.0999985c0.2999878,0.2000008,0.7000122,0.2999992,1,0.4000015
		c0.3999939,0.0999985,0.7000122,0.0999985,1,0.0999985c0.5,0,0.7999878-0.0999985,1-0.2999992
		s0.2999878-0.4000015,0.2999878-0.7000008s-0.1000061-0.5-0.2999878-0.7000008s-0.6000061-0.4000015-1.2000122-0.7000008
		c-0.7000122-0.2999992-1.1000061-0.5999985-1.3999939-0.9000015s-0.3999939-0.7000008-0.3999939-1.2000008
		c0-0.5999985,0.2000122-1.0999985,0.6000061-1.4000015s1-0.5,1.7000122-0.5s1.3999939,0.0999985,2,0.4000015l-0.3999939,1
		c-0.6000061-0.2999992-1.2000122-0.4000015-1.7000122-0.4000015c-0.3999939,0-0.7000122,0.0999985-0.8999939,0.2000008
		c-0.2000122,0.2000008-0.2999878,0.4000015-0.2999878,0.7000008c0,0.2000008,0,0.2999992,0.1000061,0.5
		c0.1000061,0.0999985,0.2000122,0.2999992,0.3999939,0.4000015s0.5,0.2999992,1,0.5s0.8999939,0.4000015,1.2000122,0.5999985
		s0.3999939,0.4000015,0.5,0.5999985S275.5,37.7000008,275.5,38.0999985z"/>
</g>
<text transform="matrix(1 0 0 1 170.9801941 40)" class="st3 st4 st5">   </text>
<text transform="matrix(1 0 0 1 178.7801971 40)" class="st1 st4 st5 st6"> </text>
<g>
	<path class="st1" d="M399.6000061,45.7999992h-40c-5,0-9-4-9-9l0,0c0-5,4-9,9-9h40c5,0,9,4,9,9l0,0
		C408.6000061,41.7000008,404.5,45.7999992,399.6000061,45.7999992z"/>
	<g>
		<path class="st2" d="M362.8999939,40v-7.0999985h1.2000122V39h3v1H362.8999939z"/>
		<path class="st2" d="M374.7000122,36.4000015c0,1.2000008-0.2999878,2.0999985-0.8999939,2.7000008
			c-0.6000061,0.5999985-1.3999939,1-2.5,1s-1.8999939-0.2999992-2.5-1c-0.6000061-0.5999985-0.8999939-1.5-0.8999939-2.7000008
			s0.2999878-2.0999985,0.8999939-2.7000008c0.6000061-0.5999985,1.3999939-0.9000015,2.5-0.9000015s1.8999939,0.2999992,2.5,1
			S374.7000122,35.2999992,374.7000122,36.4000015z M369.2000122,36.4000015c0,0.9000015,0.2000122,1.5,0.5,2
			c0.3999939,0.5,0.8999939,0.7000008,1.6000061,0.7000008s1.2000122-0.2000008,1.6000061-0.7000008
			c0.3999939-0.4000015,0.5-1.0999985,0.5-2s-0.2000122-1.5-0.5-2c-0.3999939-0.5-0.8999939-0.7000008-1.6000061-0.7000008
			s-1.2000122,0.2000008-1.6000061,0.7000008C369.3999939,34.9000015,369.2000122,35.5,369.2000122,36.4000015z"/>
		<path class="st2" d="M379.1000061,36.0999985h2.6000061v3.5999985c-0.3999939,0.0999985-0.7999878,0.2000008-1.2000122,0.2999992
			c-0.3999939,0.0999985-0.7999878,0.0999985-1.2999878,0.0999985c-1.1000061,0-1.8999939-0.2999992-2.5-1
			c-0.6000061-0.5999985-0.8999939-1.5-0.8999939-2.7000008c0-1.0999985,0.2999878-2,1-2.7000008s1.6000061-1,2.7000122-1
			c0.7000122,0,1.5,0.0999985,2.1000061,0.4000015l-0.3999939,1c-0.6000061-0.2999992-1.2000122-0.4000015-1.7000122-0.4000015
			c-0.7999878,0-1.3999939,0.2000008-1.7999878,0.7000008s-0.7000122,1.0999985-0.7000122,2s0.2000122,1.5,0.6000061,2
			s1,0.7000008,1.7000122,0.7000008c0.3999939,0,0.7999878,0,1.2000122-0.0999985v-1.7999992H379L379.1000061,36.0999985
			L379.1000061,36.0999985z"/>
		<path class="st2" d="M386.1000061,40v-7.0999985h1.2000122V40H386.1000061z"/>
		<path class="st2" d="M395.1000061,40h-1.3999939l-3.5-5.7000008l0,0v0.2999992
			c0,0.5999985,0.1000061,1.2000008,0.1000061,1.7000008V40h-1.1000061v-7.0999985h1.3999939l3.5,5.7000008l0,0
			c0-0.0999985,0-0.2999992,0-0.7999992s0-0.7999992,0-1.0999985V33h1.1000061v7H395.1000061z"/>
	</g>
</g>
<g>
	<g>
		<path class="st1" d="M345.6000061,28.7999992v16h-56v-16H345.6000061 M346.6000061,27.7999992h-58v18h58V27.7999992
			L346.6000061,27.7999992z"/>
	</g>
	<g>
		<path class="st1" d="M303.5,38.0999985c0,0.5999985-0.2000122,1.0999985-0.7000122,1.5s-1.1000061,0.5-1.8999939,0.5
			s-1.5-0.0999985-2-0.4000015v-1.0999985c0.2999878,0.2000008,0.7000122,0.2999992,1,0.4000015
			c0.3999939,0.0999985,0.7000122,0.0999985,1,0.0999985c0.5,0,0.7999878-0.0999985,1-0.2999992
			s0.2999878-0.4000015,0.2999878-0.7000008s-0.1000061-0.5-0.2999878-0.7000008s-0.6000061-0.4000015-1.2000122-0.7000008
			c-0.7000122-0.2999992-1.1000061-0.5999985-1.3999939-0.9000015s-0.3999939-0.7000008-0.3999939-1.2000008
			c0-0.5999985,0.2000122-1.0999985,0.6000061-1.4000015s1-0.5,1.7000122-0.5s1.3999939,0.0999985,2,0.4000015l-0.3999939,1
			c-0.6000061-0.2999992-1.2000122-0.4000015-1.7000122-0.4000015c-0.3999939,0-0.7000122,0.0999985-0.8999939,0.2000008
			c-0.2000122,0.2000008-0.2999878,0.4000015-0.2999878,0.7000008c0,0.2000008,0,0.2999992,0.1000061,0.5
			c0.1000061,0.0999985,0.2000122,0.2999992,0.3999939,0.4000015s0.5,0.2999992,1,0.5s0.8999939,0.4000015,1.2000122,0.5999985
			s0.3999939,0.4000015,0.5,0.5999985S303.5,37.7000008,303.5,38.0999985z"/>
		<path class="st1" d="M304.8999939,40v-7.0999985h1.2000122V40H304.8999939z"/>
		<path class="st1" d="M313.8999939,40H312.5l-3.5-5.7000008l0,0v0.2999992c0,0.5999985,0.1000061,1.2000008,0.1000061,1.7000008V40
			H308v-7.0999985h1.3999939l3.5,5.7000008l0,0c0-0.0999985,0-0.2999992,0-0.7999992s0-0.7999992,0-1.0999985V33H314v7H313.8999939z
			"/>
		<path class="st1" d="M318.7000122,36.0999985h2.6000061v3.5999985c-0.3999939,0.0999985-0.7999878,0.2000008-1.2000122,0.2999992
			c-0.3999939,0.0999985-0.7999878,0.0999985-1.2999878,0.0999985c-1.1000061,0-1.8999939-0.2999992-2.5-1
			c-0.6000061-0.5999985-0.8999939-1.5-0.8999939-2.7000008c0-1.0999985,0.2999878-2,1-2.7000008
			c0.7000122-0.5999985,1.6000061-1,2.7000122-1c0.7000122,0,1.5,0.0999985,2.1000061,0.4000015l-0.3999939,1
			c-0.6000061-0.2999992-1.2000122-0.4000015-1.7000122-0.4000015c-0.7999878,0-1.3999939,0.2000008-1.7999878,0.7000008
			s-0.7000122,1.0999985-0.7000122,2s0.2000122,1.5,0.6000061,2s1,0.7000008,1.7000122,0.7000008
			c0.3999939,0,0.7999878,0,1.2000122-0.0999985v-1.7999992h-1.5L318.7000122,36.0999985L318.7000122,36.0999985z"/>
		<path class="st1" d="M331.2000122,32.9000015V37.5c0,0.5-0.1000061,1-0.2999878,1.4000015
			c-0.2000122,0.4000015-0.6000061,0.7000008-1,0.9000015s-0.8999939,0.2999992-1.5,0.2999992
			c-0.8999939,0-1.6000061-0.2000008-2.1000061-0.7000008S325.6000061,38.3000031,325.6000061,37.5v-4.5999985h1.2000122v4.5
			c0,0.5999985,0.1000061,1,0.3999939,1.2999992s0.7000122,0.4000015,1.2999878,0.4000015
			c1.1000061,0,1.7000122-0.5999985,1.7000122-1.7000008v-4.5H331.2000122z"/>
		<path class="st1" d="M337.7999878,35c0,0.7000008-0.2000122,1.2999992-0.7000122,1.7000008
			s-1.2000122,0.5999985-2.1000061,0.5999985h-0.7000122V40h-1.2000122v-7.0999985h2.1000061c0.8999939,0,1.6000061,0.2000008,2,0.5
			C337.6000061,33.7999992,337.7999878,34.2999992,337.7999878,35z M334.2000122,36.2999992h0.6000061
			c0.6000061,0,1-0.0999985,1.2999878-0.2999992S336.5,35.5,336.5,35c0-0.4000015-0.1000061-0.7000008-0.3999939-0.9000015
			S335.5,33.7999992,334.8999939,33.7999992h-0.7999878v2.5H334.2000122z"/>
	</g>
</g>
</svg>
