<?xml version="1.0" encoding="utf-8"?>
<!-- Generator: Adobe Illustrator 21.0.0, SVG Export Plug-In . SVG Version: 6.00 Build 0)  -->
<svg version="1.1" id="Layer_1" xmlns="http://www.w3.org/2000/svg" width="420" height="80" xmlns:xlink="http://www.w3.org/1999/xlink" x="0px" y="0px"
	 viewBox="0 0 420 80" style="enable-background:new 0 0 420 80;" xml:space="preserve">
<style type="text/css">
	.st0{fill:#222222;}
	.st1{fill:#FFFFFF;}
</style>
<g id="Middle">
	<g>
		<path class="st0" d="M175.7118225,73.3300476V55.0685616h2.9371643V70.776001h7.6621399v2.5540466H175.7118225z"/>
		<path class="st0" d="M205.7219543,64.1354523c0,2.9371643-0.7662048,5.2358093-2.1709595,6.8959503
			c-1.4047241,1.660141-3.5756836,2.4263611-6.2574158,2.4263611c-2.8094788,0-4.8527222-0.7662201-6.3851624-2.4263611
			c-1.5324097-1.6601257-2.170929-3.958786-2.170929-7.0236511c0-3.0648613,0.7662048-5.3635139,2.170929-6.8959465
			c1.4047546-1.5324326,3.5756836-2.4263458,6.3851624-2.4263458c2.6817322,0,4.8526917,0.7662125,6.2574158,2.4263458
			C204.9557495,58.7719383,205.7219543,61.1982918,205.7219543,64.1354523z M191.8023682,64.1354523
			c0,2.298645,0.5108032,3.958786,1.4047241,5.1081085c0.8938904,1.1493225,2.298645,1.7878418,4.0864868,1.7878418
			s3.0648499-0.5108185,3.9587708-1.6601257c0.8939209-1.1493378,1.4047241-2.8094635,1.4047241-5.1081085
			c0-2.2986565-0.5108032-3.9587898-1.2770081-5.10812c-0.7662354-1.1493225-2.1709595-1.7878342-3.9588013-1.7878342
			s-3.1925659,0.6385117-4.0864868,1.7878342S191.8023682,61.8368034,191.8023682,64.1354523z"/>
		<path class="st0" d="M217.0874939,63.369236h6.7682495v9.1945915c-1.1493225,0.3831177-2.1709595,0.6385193-3.1925659,0.7662201
			c-1.021637,0.1277008-2.0432434,0.2554016-3.320282,0.2554016c-2.8094482,0-4.8526917-0.7662048-6.3851318-2.4263458
			s-2.298645-3.958786-2.298645-6.8959503c0-2.9371605,0.8939209-5.2358131,2.5540466-6.8959465
			s3.9588013-2.4263535,7.0236511-2.4263535c1.9155579,0,3.7033997,0.38311,5.3635254,1.1493301l-1.021637,2.4263458
			c-1.5324097-0.6385117-2.9371643-1.0216217-4.469574-1.0216217c-1.9155579,0-3.447998,0.6385193-4.5973206,1.7878418
			c-1.1493225,1.2770233-1.6601257,2.9371567-1.6601257,4.9804039c0,2.1709442,0.5108032,3.958786,1.5324402,5.1081085
			c1.0216064,1.1493225,2.4263611,1.7878418,4.3418884,1.7878418c1.021637,0,2.0432434-0.1277008,3.0648804-0.3831024v-4.7250061
			h-3.8310852L217.0874939,63.369236L217.0874939,63.369236z"/>
		<path class="st0" d="M244.2881775,64.1354523c0,2.9371643-0.7662048,5.2358093-2.170929,6.8959503
			c-1.4047546,1.660141-3.5756836,2.4263611-6.2574463,2.4263611c-2.8094482,0-4.8527222-0.7662201-6.3851318-2.4263611
			c-1.5324402-1.660141-2.1709595-3.958786-2.1709595-7.0236511c0-3.0648613,0.7662048-5.3635139,2.1709595-6.8959465
			c1.4047241-1.5324326,3.5756836-2.4263458,6.3851318-2.4263458c2.6817627,0,4.8526917,0.7662125,6.2574463,2.4263458
			C243.6496582,58.8996391,244.2881775,61.1982918,244.2881775,64.1354523z M230.3685913,64.1354523
			c0,2.298645,0.5108032,3.958786,1.4047241,5.1081085s2.298645,1.7878418,4.0864868,1.7878418
			c1.7878113,0,3.0648499-0.5108185,3.9587708-1.6601257c0.8939209-1.1493225,1.4047241-2.8094635,1.4047241-5.1081085
			c0-2.2986565-0.3831177-3.9587898-1.2770081-5.10812c-0.8939209-1.1493225-2.1709595-1.7878342-3.9588013-1.7878342
			s-3.1925659,0.6385117-4.0864868,1.7878342S230.3685913,61.8368034,230.3685913,64.1354523z"/>
	</g>
	<g id="Mob_menu">
		<g>
			<path class="st1" d="M26.4349594,58.2314491h22.7089882c0.5654449,0,1.0247993-0.4598923,1.0247993-1.0253372
				c0-0.5654373-0.4593544-1.0253296-1.0247993-1.0253296H26.4349594c-0.5654449,0-1.0258617,0.4598923-1.0258617,1.0253296
				C25.4090977,57.7715569,25.8695145,58.2314491,26.4349594,58.2314491z"/>
			<path class="st1" d="M49.1439476,63.1103859H26.4349594c-0.5654449,0-1.0258617,0.4598923-1.0258617,1.025341
				c0,0.5654449,0.4604168,1.0253296,1.0258617,1.0253296h22.7089882c0.5654449,0,1.0247993-0.4598846,1.0247993-1.0253296
				C50.1687469,63.5702782,49.7093925,63.1103859,49.1439476,63.1103859z"/>
			<path class="st1" d="M49.1439476,70.0394592H26.4349594c-0.5654449,0-1.0258617,0.4604187-1.0258617,1.0258636
				s0.4604168,1.0248108,1.0258617,1.0248108h22.7089882c0.5654449,0,1.0247993-0.4593658,1.0247993-1.0248108
				S49.7093925,70.0394592,49.1439476,70.0394592z"/>
		</g>
		<g>
			<path class="st0" d="M26.4349594,58.2314491h22.7089882c0.5654449,0,1.0247993-0.4598923,1.0247993-1.0253372
				c0-0.5654373-0.4593544-1.0253296-1.0247993-1.0253296H26.4349594c-0.5654449,0-1.0258617,0.4598923-1.0258617,1.0253296
				C25.4090977,57.7715569,25.8695145,58.2314491,26.4349594,58.2314491z"/>
			<path class="st0" d="M49.1439476,63.1103859H26.4349594c-0.5654449,0-1.0258617,0.4598923-1.0258617,1.025341
				c0,0.5654449,0.4604168,1.0253296,1.0258617,1.0253296h22.7089882c0.5654449,0,1.0247993-0.4598846,1.0247993-1.0253296
				C50.1687469,63.5702782,49.7093925,63.1103859,49.1439476,63.1103859z"/>
			<path class="st0" d="M49.1439476,70.0394592H26.4349594c-0.5654449,0-1.0258617,0.4604187-1.0258617,1.0258636
				s0.4604168,1.0248108,1.0258617,1.0248108h22.7089882c0.5654449,0,1.0247993-0.4593658,1.0247993-1.0248108
				S49.7093925,70.0394592,49.1439476,70.0394592z"/>
		</g>
	</g>
	<path id="Search_1_" class="st0" d="M394.3981628,72.5292511l-4.7148438-4.6972656
		c1.1875-1.4970703,1.8378906-3.3466797,1.8378906-5.2431602c0-4.6240234-3.7607422-8.3852539-8.3847656-8.3852539
		c-4.6132812,0-8.3652344,3.7524414-8.3652344,8.3657227c0,4.6240196,3.7607422,8.3847618,8.3837891,8.3847618
		c1.9052734,0,3.7558594-0.6572266,5.2470703-1.8564453l4.7138672,4.6953125
		c0.1777344,0.1777344,0.4023438,0.2744141,0.6308594,0.2744141c0.2265625,0,0.4501953-0.0927734,0.5888672-0.2333984
		c0.1767578-0.1474609,0.2832031-0.3525391,0.3183594-0.6542969
		C394.6540222,72.9325714,394.5583191,72.6894073,394.3981628,72.5292511z M389.7262878,62.5888252
		c0,3.6230431-2.9560547,6.5703087-6.5898438,6.5703087c-3.6230469,0-6.5712891-2.9560547-6.5712891-6.5898399
		c0-3.6230469,2.9560547-6.5703125,6.5898438-6.5703125C386.7780457,55.9989815,389.7262878,58.9550362,389.7262878,62.5888252z"/>
</g>
<g id="Top">
	<rect x="-0.0058824" y="-0.1666679" class="st0" width="420.0090027" height="48.3333321"/>
	<g id="Account">
		<g>
			<path class="st1" d="M31.8901653,41.6170044l-0.8554688-2.3789062H27.759306l-0.8378906,2.3789062h-1.4765625
				l3.2050781-8.6015625h1.5234375l3.20508,8.6015625H31.8901653z M30.665556,38.0310669l-0.8027344-2.3320312
				c-0.0585938-0.15625-0.1396484-0.4023438-0.2431641-0.7382812s-0.1748047-0.5820312-0.2138672-0.7382812
				c-0.1054688,0.4804688-0.2597656,1.0058594-0.4628906,1.5761719l-0.7734375,2.2324219H30.665556z"/>
			<path class="st1" d="M36.9761047,41.7341919c-0.9804688,0-1.7255859-0.2861328-2.2353516-0.8583984
				s-0.7646484-1.3935547-0.7646484-2.4638672c0-1.0898438,0.2666016-1.9277344,0.7998047-2.5136719
				s1.3037109-0.8789062,2.3115234-0.8789062c0.6835938,0,1.2988281,0.1269531,1.8457031,0.3808594l-0.4160156,1.1074219
				c-0.5820312-0.2265625-1.0625-0.3398438-1.4414062-0.3398438c-1.1210938,0-1.6816406,0.7441406-1.6816406,2.2324219
				c0,0.7265625,0.1396484,1.2724609,0.4189453,1.6376953s0.6884766,0.5478516,1.2275391,0.5478516
				c0.6132812,0,1.1933594-0.1523438,1.7402344-0.4570312v1.2011719c-0.2460938,0.1445312-0.5087891,0.2480469-0.7880859,0.3105469
				S37.3745422,41.7341919,36.9761047,41.7341919z"/>
			<path class="st1" d="M42.917511,41.7341919c-0.9804688,0-1.7255859-0.2861328-2.2353516-0.8583984
				s-0.7646484-1.3935547-0.7646484-2.4638672c0-1.0898438,0.2666016-1.9277344,0.7998047-2.5136719
				s1.3037109-0.8789062,2.3115234-0.8789062c0.6835938,0,1.2988281,0.1269531,1.8457031,0.3808594l-0.4160156,1.1074219
				c-0.5820312-0.2265625-1.0625-0.3398438-1.4414062-0.3398438c-1.1210938,0-1.6816406,0.7441406-1.6816406,2.2324219
				c0,0.7265625,0.1396484,1.2724609,0.4189453,1.6376953s0.6884766,0.5478516,1.2275391,0.5478516
				c0.6132812,0,1.1933594-0.1523438,1.7402344-0.4570312v1.2011719c-0.2460938,0.1445312-0.5087891,0.2480469-0.7880859,0.3105469
				S43.3159485,41.7341919,42.917511,41.7341919z"/>
			<path class="st1" d="M51.9936829,38.3650513c0,1.0585938-0.2714844,1.8847656-0.8144531,2.4785156
				s-1.2988281,0.890625-2.2675781,0.890625c-0.6054688,0-1.140625-0.1367188-1.6054688-0.4101562
				s-0.8222656-0.6660156-1.0722656-1.1777344s-0.375-1.1054688-0.375-1.78125c0-1.0507812,0.2695312-1.8710938,0.8085938-2.4609375
				s1.2988281-0.8847656,2.2792969-0.8847656c0.9375,0,1.6796875,0.3017578,2.2265625,0.9052734
				S51.9936829,37.3416138,51.9936829,38.3650513z M47.276886,38.3650513c0,1.4960938,0.5527344,2.2441406,1.6582031,2.2441406
				c1.09375,0,1.640625-0.7480469,1.640625-2.2441406c0-1.4804688-0.5507812-2.2207031-1.6523438-2.2207031
				c-0.578125,0-0.9970703,0.1914062-1.2568359,0.5742188S47.276886,37.6502075,47.276886,38.3650513z"/>
			<path class="st1" d="M58.1460266,41.6170044l-0.1933594-0.8496094h-0.0703125
				c-0.1914062,0.3007812-0.4638672,0.5371094-0.8173828,0.7089844s-0.7568359,0.2578125-1.2099609,0.2578125
				c-0.7851562,0-1.3710938-0.1953125-1.7578125-0.5859375s-0.5800781-0.9824219-0.5800781-1.7753906v-4.2363281h1.3886719
				v3.9960938c0,0.4960938,0.1015625,0.8681641,0.3046875,1.1162109s0.5214844,0.3720703,0.9550781,0.3720703
				c0.578125,0,1.0029297-0.1728516,1.2744141-0.5185547s0.4072266-0.9248047,0.4072266-1.7373047v-3.2285156h1.3828125v6.4804688
				H58.1460266z"/>
			<path class="st1" d="M66.8940735,41.6170044H65.511261v-3.984375c0-0.5-0.1005859-0.8730469-0.3017578-1.1191406
				s-0.5205078-0.3691406-0.9580078-0.3691406c-0.5820312,0-1.0078125,0.171875-1.2773438,0.515625
				s-0.4042969,0.9199219-0.4042969,1.7285156v3.2285156h-1.3769531v-6.4804688h1.078125l0.1933594,0.8496094h0.0703125
				c0.1953125-0.3085938,0.4726562-0.546875,0.8320312-0.7148438s0.7578125-0.2519531,1.1953125-0.2519531
				c1.5546875,0,2.3320312,0.7910156,2.3320312,2.3730469V41.6170044z"/>
			<path class="st1" d="M71.2241516,40.6209106c0.3359375,0,0.671875-0.0527344,1.0078125-0.1582031v1.0371094
				c-0.1523438,0.0664062-0.3486328,0.1220703-0.5888672,0.1669922s-0.4892578,0.0673828-0.7470703,0.0673828
				c-1.3046875,0-1.9570312-0.6875-1.9570312-2.0625v-3.4921875h-0.8847656v-0.609375l0.9492188-0.5039062l0.46875-1.3710938
				h0.8496094v1.4414062h1.8457031v1.0429688h-1.8457031v3.46875c0,0.3320312,0.0830078,0.5771484,0.2490234,0.7353516
				S70.9546204,40.6209106,71.2241516,40.6209106z"/>
		</g>
		<path id="Icon_1_" class="st1" d="M52.7602844,16.8019371c1.1416016-1.1621084,1.7861328-2.7138662,1.7861328-4.3398428
			c0-3.4160156-2.7792969-6.1962891-6.1953125-6.1962891c-3.4277344,0-6.2158203,2.7802734-6.2158203,6.1962891
			c0,1.6259766,0.6445312,3.1767578,1.7851562,4.3388662c-3.296875,1.6875-5.4755859,5.453125-5.4755859,9.5664062
			c0,0.5263672,0.4287109,0.9550781,0.9550781,0.9550781H57.3013c0.5273438,0,0.9560547-0.4287109,0.9560547-0.9570312
			C58.2368469,22.2579918,56.0503235,18.4933434,52.7602844,16.8019371z M50.5288391,16.1769371l-0.0927734,0.0419922
			c-0.0302734,0.015625-0.0732422,0.0371094-0.1201172,0.0703125l-0.0205078,0.0107422
			c-0.6367188,0.328125-1.2861328,0.4873047-1.9853516,0.4873047c-2.3740234,0-4.3046875-1.9306631-4.3046875-4.3046865
			s1.9404297-4.3046875,4.3251953-4.3046875c2.3740234,0,4.3046875,1.9306641,4.3046875,4.3046875
			C52.6352844,13.9874849,51.8374329,15.3917818,50.5288391,16.1769371z M50.9282532,18.074398
			c2.8701172,0.96875,5.0175781,3.921875,5.3476562,7.3164062H40.3882141
			c0.3486328-3.4003906,2.4951172-6.3525391,5.3447266-7.3164062C47.3813782,18.8478355,49.2798157,18.8478355,50.9282532,18.074398
			z"/>
	</g>
	<g id="Wishlist">
		<g>
			<path class="st1" d="M196.453125,40.9334106h-1.5234375l-1.453125-5.109375
				c-0.0625-0.2226562-0.140625-0.5439453-0.234375-0.9638672s-0.1503906-0.7119141-0.1699219-0.8759766
				c-0.0390625,0.25-0.1025391,0.5742188-0.1904297,0.9726562s-0.1611328,0.6953125-0.2197266,0.890625l-1.4179688,5.0859375
				h-1.5234375l-1.1074219-4.2890625l-1.125-4.2773438h1.4296875l1.2246094,4.9921875
				c0.1914062,0.8007812,0.328125,1.5078125,0.4101562,2.1210938c0.0429688-0.3320312,0.1074219-0.703125,0.1933594-1.1132812
				s0.1640625-0.7421875,0.234375-0.9960938L192.375,32.3670044h1.3886719l1.4296875,5.0273438
				c0.1367188,0.4648438,0.28125,1.1601562,0.4335938,2.0859375c0.0585938-0.5585938,0.1992188-1.2695312,0.421875-2.1328125
				l1.21875-4.9804688h1.4179688L196.453125,40.9334106z"/>
			<path class="st1" d="M199.6699219,32.736145c0-0.2460938,0.0673828-0.4355469,0.2021484-0.5683594
				s0.3271484-0.1992188,0.5771484-0.1992188c0.2421875,0,0.4306641,0.0664062,0.5654297,0.1992188
				s0.2021484,0.3222656,0.2021484,0.5683594c0,0.234375-0.0673828,0.4189453-0.2021484,0.5537109
				s-0.3232422,0.2021484-0.5654297,0.2021484c-0.25,0-0.4423828-0.0673828-0.5771484-0.2021484
				S199.6699219,32.97052,199.6699219,32.736145z M201.1289062,40.9334106h-1.3769531v-6.4804688h1.3769531V40.9334106z"/>
			<path class="st1" d="M207.4511719,39.0877075c0,0.6328125-0.2304688,1.1181641-0.6914062,1.4560547
				s-1.1210938,0.5068359-1.9804688,0.5068359c-0.8632812,0-1.5566406-0.1308594-2.0800781-0.3925781v-1.1894531
				c0.7617188,0.3515625,1.4707031,0.5273438,2.1269531,0.5273438c0.8476562,0,1.2714844-0.2558594,1.2714844-0.7675781
				c0-0.1640625-0.046875-0.3007812-0.140625-0.4101562s-0.2480469-0.2226562-0.4628906-0.3398438
				s-0.5136719-0.25-0.8964844-0.3984375c-0.7460938-0.2890625-1.2509766-0.578125-1.5146484-0.8671875
				s-0.3955078-0.6640625-0.3955078-1.125c0-0.5546875,0.2236328-0.9853516,0.6708984-1.2919922
				s1.0556641-0.4599609,1.8251953-0.4599609c0.7617188,0,1.4824219,0.1542969,2.1621094,0.4628906l-0.4453125,1.0371094
				c-0.6992188-0.2890625-1.2871094-0.4335938-1.7636719-0.4335938c-0.7265625,0-1.0898438,0.2070312-1.0898438,0.6210938
				c0,0.203125,0.0947266,0.375,0.2841797,0.515625s0.6025391,0.3339844,1.2392578,0.5800781
				c0.5351562,0.2070312,0.9238281,0.3964844,1.1660156,0.5683594s0.421875,0.3701172,0.5390625,0.5947266
				S207.4511719,38.7752075,207.4511719,39.0877075z"/>
			<path class="st1" d="M214.640625,40.9334106h-1.3828125v-3.984375c0-0.5-0.1005859-0.8730469-0.3017578-1.1191406
				s-0.5205078-0.3691406-0.9580078-0.3691406c-0.578125,0-1.0029297,0.1728516-1.2744141,0.5185547
				s-0.4072266,0.9248047-0.4072266,1.7373047v3.2167969h-1.3769531v-9.1171875h1.3769531v2.3144531
				c0,0.3710938-0.0234375,0.7675781-0.0703125,1.1894531h0.0878906c0.1875-0.3125,0.4482422-0.5546875,0.7822266-0.7265625
				s0.7236328-0.2578125,1.1689453-0.2578125c1.5703125,0,2.3554688,0.7910156,2.3554688,2.3730469V40.9334106z"/>
			<path class="st1" d="M217.9335938,40.9334106h-1.3769531v-9.1171875h1.3769531V40.9334106z"/>
			<path class="st1" d="M219.8203125,32.736145c0-0.2460938,0.0673828-0.4355469,0.2021484-0.5683594
				s0.3271484-0.1992188,0.5771484-0.1992188c0.2421875,0,0.4306641,0.0664062,0.5654297,0.1992188
				s0.2021484,0.3222656,0.2021484,0.5683594c0,0.234375-0.0673828,0.4189453-0.2021484,0.5537109
				s-0.3232422,0.2021484-0.5654297,0.2021484c-0.25,0-0.4423828-0.0673828-0.5771484-0.2021484
				S219.8203125,32.97052,219.8203125,32.736145z M221.2792969,40.9334106h-1.3769531v-6.4804688h1.3769531V40.9334106z"/>
			<path class="st1" d="M227.6015625,39.0877075c0,0.6328125-0.2304688,1.1181641-0.6914062,1.4560547
				s-1.1210938,0.5068359-1.9804688,0.5068359c-0.8632812,0-1.5566406-0.1308594-2.0800781-0.3925781v-1.1894531
				c0.7617188,0.3515625,1.4707031,0.5273438,2.1269531,0.5273438c0.8476562,0,1.2714844-0.2558594,1.2714844-0.7675781
				c0-0.1640625-0.046875-0.3007812-0.140625-0.4101562s-0.2480469-0.2226562-0.4628906-0.3398438
				s-0.5136719-0.25-0.8964844-0.3984375c-0.7460938-0.2890625-1.2509766-0.578125-1.5146484-0.8671875
				s-0.3955078-0.6640625-0.3955078-1.125c0-0.5546875,0.2236328-0.9853516,0.6708984-1.2919922
				s1.0556641-0.4599609,1.8251953-0.4599609c0.7617188,0,1.4824219,0.1542969,2.1621094,0.4628906l-0.4453125,1.0371094
				c-0.6992188-0.2890625-1.2871094-0.4335938-1.7636719-0.4335938c-0.7265625,0-1.0898438,0.2070312-1.0898438,0.6210938
				c0,0.203125,0.0947266,0.375,0.2841797,0.515625s0.6025391,0.3339844,1.2392578,0.5800781
				c0.5351562,0.2070312,0.9238281,0.3964844,1.1660156,0.5683594s0.421875,0.3701172,0.5390625,0.5947266
				S227.6015625,38.7752075,227.6015625,39.0877075z"/>
			<path class="st1" d="M231.5039062,39.9373169c0.3359375,0,0.671875-0.0527344,1.0078125-0.1582031v1.0371094
				c-0.1523438,0.0664062-0.3486328,0.1220703-0.5888672,0.1669922s-0.4892578,0.0673828-0.7470703,0.0673828
				c-1.3046875,0-1.9570312-0.6875-1.9570312-2.0625v-3.4921875h-0.8847656v-0.609375l0.9492188-0.5039062l0.46875-1.3710938
				h0.8496094v1.4414062h1.8457031v1.0429688h-1.8457031v3.46875c0,0.3320312,0.0830078,0.5771484,0.2490234,0.7353516
				S231.234375,39.9373169,231.5039062,39.9373169z"/>
		</g>
		<path id="Icon_2_" class="st1" d="M221.0719147,12.4484224c-0.2324219-2.9980469-2.7744141-5.4116211-5.7861328-5.4951172
			c-1.5429688-0.0483398-3.1367188,0.5527344-4.3007812,1.6347656c-1.1201172-1.0493164-2.5927734-1.6386719-4.0878906-1.6386719
			c-0.0693359,0-0.1396484,0.0014648-0.2099609,0.0039062c-3.015625,0.0834961-5.5585938,2.4980469-5.7900391,5.4951172
			c-0.0214844,0.2470703-0.0214844,0.5117188-0.0205078,0.7724609c0.0419922,1.0888672,0.5029297,2.1728516,1.296875,3.0527334
			l7.6748047,8.4960938c0.2871094,0.3134766,0.7119141,0.5019531,1.1367188,0.5019531
			c0.4169922,0,0.8369141-0.1826172,1.1582031-0.5048828l7.6523438-8.4931641
			c0.7832031-0.8681631,1.2324219-1.9257803,1.2978516-3.0683584
			C221.093399,12.9669771,221.093399,12.6964693,221.0719147,12.4484224z M210.20961,10.5411959
			c0.1630859,0.2294922,0.4433594,0.3662109,0.7509766,0.3681641c0.0009766,0,0.0019531,0,0.0039062,0
			c0.3076172,0,0.5908203-0.1376953,0.7568359-0.3681641c0.7978516-1.1162109,2.1123047-1.7724609,3.4970703-1.7304688
			c2.0634766,0.0703125,3.8212891,1.7333984,4,3.7880859c0.0175781,0.1806641,0.0175781,0.3603516,0.0185547,0.5273438
			c-0.0361328,0.6904297-0.3251953,1.3603516-0.8173828,1.8867188l-7.4345703,8.2529287l-7.4345703-8.2539053
			c-0.4921875-0.5439453-0.7822266-1.2089844-0.8164062-1.8652344c0-0.1894531,0-0.3681641,0.0175781-0.5556641
			c0.1621094-2.0664062,1.90625-3.7265625,3.9658203-3.7802734h0.1376953
			C208.1920319,8.8107271,209.4459381,9.4572115,210.20961,10.5411959z"/>
	</g>
	<g id="Cart">
		<g>
			<path class="st1" d="M320.3359375,33.2645874c-0.8046875,0-1.4375,0.2851562-1.8984375,0.8554688
				s-0.6914062,1.3574219-0.6914062,2.3613281c0,1.0507812,0.2216797,1.8457031,0.6650391,2.3847656
				s1.0849609,0.8085938,1.9248047,0.8085938c0.3632812,0,0.7148438-0.0361328,1.0546875-0.1083984
				s0.6933594-0.1650391,1.0605469-0.2783203v1.2011719c-0.671875,0.2539062-1.4335938,0.3808594-2.2851562,0.3808594
				c-1.2539062,0-2.2167969-0.3798828-2.8886719-1.1396484s-1.0078125-1.8466797-1.0078125-3.2607422
				c0-0.890625,0.1630859-1.6699219,0.4892578-2.3378906s0.7978516-1.1796875,1.4150391-1.5351562
				s1.3417969-0.5332031,2.1738281-0.5332031c0.875,0,1.6835938,0.1835938,2.4257812,0.5507812l-0.5039062,1.1660156
				c-0.2890625-0.1367188-0.5947266-0.2568359-0.9169922-0.3603516S320.6914062,33.2645874,320.3359375,33.2645874z"/>
			<path class="st1" d="M328.2050781,40.7528687l-0.2753906-0.9023438h-0.046875
				c-0.3125,0.3945312-0.6269531,0.6630859-0.9433594,0.8056641s-0.7226562,0.2138672-1.21875,0.2138672
				c-0.6367188,0-1.1337891-0.171875-1.4912109-0.515625s-0.5361328-0.8300781-0.5361328-1.4589844
				c0-0.6679688,0.2480469-1.171875,0.7441406-1.5117188s1.2519531-0.5253906,2.2675781-0.5566406l1.1191406-0.0351562V36.446228
				c0-0.4140625-0.0966797-0.7236328-0.2900391-0.9287109s-0.4931641-0.3076172-0.8994141-0.3076172
				c-0.3320312,0-0.6503906,0.0488281-0.9550781,0.1464844s-0.5976562,0.2128906-0.8789062,0.3457031l-0.4453125-0.984375
				c0.3515625-0.1835938,0.7363281-0.3232422,1.1542969-0.4189453s0.8125-0.1435547,1.1835938-0.1435547
				c0.8242188,0,1.4462891,0.1796875,1.8662109,0.5390625s0.6298828,0.9238281,0.6298828,1.6933594v4.3652344H328.2050781z
				 M326.1542969,39.8153687c0.5,0,0.9013672-0.1396484,1.2041016-0.4189453s0.4541016-0.6708984,0.4541016-1.1748047v-0.5625
				l-0.8320312,0.0351562c-0.6484375,0.0234375-1.1201172,0.1318359-1.4150391,0.3251953s-0.4423828,0.4892578-0.4423828,0.8876953
				c0,0.2890625,0.0859375,0.5126953,0.2578125,0.6708984S325.8105469,39.8153687,326.1542969,39.8153687z"/>
			<path class="st1" d="M334.3984375,34.1552124c0.2773438,0,0.5058594,0.0195312,0.6855469,0.0585938l-0.1347656,1.2832031
				c-0.1953125-0.046875-0.3984375-0.0703125-0.609375-0.0703125c-0.5507812,0-0.9970703,0.1796875-1.3388672,0.5390625
				s-0.5126953,0.8261719-0.5126953,1.4003906v3.3867188h-1.3769531v-6.4804688h1.078125l0.1816406,1.1425781h0.0703125
				c0.2148438-0.3867188,0.4951172-0.6933594,0.8408203-0.9199219S334,34.1552124,334.3984375,34.1552124z"/>
			<path class="st1" d="M338.6992188,39.7567749c0.3359375,0,0.671875-0.0527344,1.0078125-0.1582031v1.0371094
				c-0.1523438,0.0664062-0.3486328,0.1220703-0.5888672,0.1669922s-0.4892578,0.0673828-0.7470703,0.0673828
				c-1.3046875,0-1.9570312-0.6875-1.9570312-2.0625v-3.4921875h-0.8847656v-0.609375l0.9492188-0.5039062l0.46875-1.3710938
				h0.8496094v1.4414062h1.8457031v1.0429688h-1.8457031v3.46875c0,0.3320312,0.0830078,0.5771484,0.2490234,0.7353516
				S338.4296875,39.7567749,338.6992188,39.7567749z"/>
			<path class="st1" d="M343.6152344,37.4657593c0-1.0351562,0.1513672-2.0039062,0.4541016-2.90625
				s0.7392578-1.6933594,1.3095703-2.3730469h1.2011719c-0.5429688,0.734375-0.9589844,1.5576172-1.2480469,2.4697266
				s-0.4335938,1.8447266-0.4335938,2.7978516s0.1445312,1.8769531,0.4335938,2.7714844s0.7011719,1.703125,1.2363281,2.4257812
				h-1.1894531c-0.5742188-0.6640625-1.0117188-1.4394531-1.3125-2.3261719S343.6152344,38.4852905,343.6152344,37.4657593z"/>
			<path class="st1" d="M353.1660156,38.0985718c0,0.5664062-0.2070312,1.0332031-0.6210938,1.4003906
				s-1.0117188,0.59375-1.7929688,0.6796875v1.2714844h-0.7792969v-1.2363281
				c-0.96875-0.015625-1.7636719-0.1640625-2.3847656-0.4453125v-1.2363281
				c0.3359375,0.1640625,0.7285156,0.3017578,1.1777344,0.4130859s0.8515625,0.1689453,1.2070312,0.1728516v-2.1914062
				l-0.4921875-0.1816406c-0.640625-0.2460938-1.1083984-0.5400391-1.4033203-0.8818359s-0.4423828-0.7646484-0.4423828-1.2685547
				c0-0.5390625,0.2099609-0.9824219,0.6298828-1.3300781s0.9892578-0.5585938,1.7080078-0.6328125v-0.984375h0.7792969v0.9667969
				c0.7929688,0.0273438,1.5449219,0.1875,2.2558594,0.4804688l-0.4277344,1.0722656
				c-0.6132812-0.2421875-1.2226562-0.3867188-1.828125-0.4335938v2.1328125l0.4453125,0.1699219
				c0.7421875,0.2851562,1.2558594,0.5859375,1.5410156,0.9023438S353.1660156,37.6415405,353.1660156,38.0985718z
				 M349.0117188,34.5829468c0,0.2226562,0.0693359,0.4082031,0.2080078,0.5566406s0.3896484,0.2949219,0.7529297,0.4394531
				v-1.8222656c-0.3125,0.046875-0.5507812,0.1425781-0.7148438,0.2871094S349.0117188,34.368103,349.0117188,34.5829468z
				 M351.7832031,38.1864624c0-0.2265625-0.0791016-0.4130859-0.2373047-0.5595703s-0.4228516-0.2880859-0.7939453-0.4248047
				v1.8691406C351.4394531,38.9657593,351.7832031,38.6708374,351.7832031,38.1864624z"/>
			<path class="st1" d="M358.3574219,40.7528687h-1.3769531v-5.53125c0-0.6601562,0.015625-1.1835938,0.046875-1.5703125
				c-0.0898438,0.09375-0.2001953,0.1972656-0.3310547,0.3105469s-0.5693359,0.4726562-1.3154297,1.078125l-0.6914062-0.8730469
				l2.5195312-1.9804688h1.1484375V40.7528687z"/>
			<path class="st1" d="M366.9707031,40.7528687h-5.8066406v-1.0429688l2.2089844-2.2207031
				c0.6523438-0.6679688,1.0849609-1.1416016,1.2978516-1.4208984s0.3681641-0.5419922,0.4658203-0.7880859
				s0.1464844-0.5097656,0.1464844-0.7910156c0-0.3867188-0.1162109-0.6914062-0.3486328-0.9140625
				s-0.5537109-0.3339844-0.9638672-0.3339844c-0.328125,0-0.6455078,0.0605469-0.9521484,0.1816406
				s-0.6611328,0.3398438-1.0634766,0.65625l-0.7441406-0.9082031c0.4765625-0.4023438,0.9394531-0.6875,1.3886719-0.8554688
				s0.9277344-0.2519531,1.4355469-0.2519531c0.796875,0,1.4355469,0.2080078,1.9160156,0.6240234
				s0.7207031,0.9755859,0.7207031,1.6787109c0,0.3867188-0.0693359,0.7539062-0.2080078,1.1015625
				s-0.3515625,0.7060547-0.6386719,1.0751953s-0.7646484,0.8681641-1.4326172,1.4970703l-1.4882812,1.4414062v0.0585938h4.0664062
				V40.7528687z"/>
			<path class="st1" d="M368.9863281,40.7528687l3.3867188-7.3417969h-4.453125v-1.2128906h5.9238281v0.9609375l-3.3691406,7.59375
				H368.9863281z"/>
			<path class="st1" d="M375.1152344,40.0204468c0-0.2851562,0.0742188-0.5039062,0.2226562-0.65625
				s0.3632812-0.2285156,0.6445312-0.2285156c0.2851562,0,0.5019531,0.0791016,0.6503906,0.2373047
				s0.2226562,0.3740234,0.2226562,0.6474609c0,0.2773438-0.0751953,0.4970703-0.2255859,0.6591797
				s-0.3662109,0.2431641-0.6474609,0.2431641s-0.4960938-0.0800781-0.6445312-0.2402344
				S375.1152344,40.3016968,375.1152344,40.0204468z"/>
			<path class="st1" d="M383.96875,36.4696655c0,1.4882812-0.2392578,2.59375-0.7177734,3.3164062
				s-1.2099609,1.0839844-2.1943359,1.0839844c-0.953125,0-1.6757812-0.3730469-2.1679688-1.1191406
				s-0.7382812-1.8398438-0.7382812-3.28125c0-1.5117188,0.2392578-2.6259766,0.7177734-3.3427734
				s1.2080078-1.0751953,2.1884766-1.0751953c0.9570312,0,1.6816406,0.375,2.1738281,1.125
				S383.96875,35.024353,383.96875,36.4696655z M379.5449219,36.4696655c0,1.1679688,0.1201172,2.0019531,0.3603516,2.5019531
				s0.6240234,0.75,1.1513672,0.75s0.9130859-0.2539062,1.1572266-0.7617188s0.3662109-1.3378906,0.3662109-2.4902344
				c0-1.1484375-0.1220703-1.9794922-0.3662109-2.4931641s-0.6298828-0.7705078-1.1572266-0.7705078
				s-0.9111328,0.2519531-1.1513672,0.7558594S379.5449219,35.3016968,379.5449219,36.4696655z"/>
			<path class="st1" d="M390.8183594,36.4696655c0,1.4882812-0.2392578,2.59375-0.7177734,3.3164062
				s-1.2099609,1.0839844-2.1943359,1.0839844c-0.953125,0-1.6757812-0.3730469-2.1679688-1.1191406S385,37.9110718,385,36.4696655
				c0-1.5117188,0.2392578-2.6259766,0.7177734-3.3427734s1.2080078-1.0751953,2.1884766-1.0751953
				c0.9570312,0,1.6816406,0.375,2.1738281,1.125S390.8183594,35.024353,390.8183594,36.4696655z M386.3945312,36.4696655
				c0,1.1679688,0.1201172,2.0019531,0.3603516,2.5019531s0.6240234,0.75,1.1513672,0.75s0.9130859-0.2539062,1.1572266-0.7617188
				s0.3662109-1.3378906,0.3662109-2.4902344c0-1.1484375-0.1220703-1.9794922-0.3662109-2.4931641
				s-0.6298828-0.7705078-1.1572266-0.7705078s-0.9111328,0.2519531-1.1513672,0.7558594
				S386.3945312,35.3016968,386.3945312,36.4696655z"/>
			<path class="st1" d="M394.65625,37.4657593c0,1.0273438-0.1513672,1.984375-0.4541016,2.8710938
				s-0.7392578,1.6582031-1.3095703,2.3144531h-1.1894531c0.5390625-0.7304688,0.9521484-1.5410156,1.2392578-2.4316406
				s0.4306641-1.8125,0.4306641-2.765625c0-0.9570312-0.1445312-1.8896484-0.4335938-2.7978516
				s-0.7050781-1.7314453-1.2480469-2.4697266h1.2011719c0.5742188,0.6835938,1.0117188,1.4775391,1.3125,2.3818359
				S394.65625,36.4384155,394.65625,37.4657593z"/>
		</g>
		<path id="Icon_3_" class="st1" d="M362.125,10.2466402v-0.0029297c-0.0292969-0.6484375-0.5556641-1.1567383-1.1962891-1.1567383
			h-1.9638672c-0.2890625-2.140625-2.0908203-3.7382812-4.2441406-3.7382812c-2.1728516,0-3.9755859,1.5976562-4.2480469,3.7382812
			h-1.9404297c-0.6591797,0-1.1962891,0.5317383-1.1953125,1.1801758l-0.5517578,14.0087881
			c-0.0253906,0.5869141,0.1855469,1.1611328,0.578125,1.5771484c0.4042969,0.4306641,0.9355469,0.6582031,1.5371094,0.6582031
			h11.640625c0.5761719,0,1.1083984-0.2285156,1.5458984-0.6660156c0.3671875-0.4169922,0.5703125-0.9638672,0.5693359-1.546875
			L362.125,10.2466402z M351.3505859,13.0728121c0.5107422,0,0.9111328-0.4003906,0.9111328-0.9111328v-1.2734375h4.9785156
			v1.2734375c0,0.5107422,0.4003906,0.9111328,0.9111328,0.9111328s0.9111328-0.4003906,0.9111328-0.9111328v-1.2734375h1.3183594
			l0.5175781,13.3652334c-0.0117188,0.1240234-0.0605469,0.2392578-0.1308594,0.3095703
			c-0.0654297,0.0664062-0.1503906,0.1054688-0.2265625,0.1054688h-11.640625c-0.0947266,0-0.1777344-0.0351562-0.2480469-0.1074219
			c-0.0429688-0.0419922-0.0800781-0.0976562-0.0673828-0.2314453l0.515625-13.4414053h1.3388672v1.2734375
			C350.4394531,12.6724215,350.8398438,13.0728121,351.3505859,13.0728121z M352.2851562,9.0679293
			c0.2714844-1.1054688,1.2880859-1.918457,2.4355469-1.918457c1.1679688,0,2.1660156,0.8041992,2.4355469,1.9355469
			L352.2851562,9.0679293z"/>
	</g>
</g>
</svg>
