<?xml version="1.0" encoding="utf-8"?>
<!-- Generator: Adobe Illustrator 21.0.0, SVG Export Plug-In . SVG Version: 6.00 Build 0)  -->
<svg version="1.1" id="Layer_1" xmlns="http://www.w3.org/2000/svg" width="430" height="80" xmlns:xlink="http://www.w3.org/1999/xlink" x="0px" y="0px"
	 viewBox="0 0 430 70" style="enable-background:new 0 0 430 70;" xml:space="preserve">
<style type="text/css">
	.st0{fill:#A6D4F4;}
	.st1{fill:#222222;}
	.st2{fill:#222222;stroke:#222222;stroke-width:0.4333;stroke-miterlimit:10;}
	.st3{display:none;fill:#222222;}
	.st4{enable-background:new    ;}
	.st5{fill:#E1E1E1;}
	.st6{fill:#FFFFFF;}
</style>
<rect x="-0.2" class="st0" width="430.2000122" height="12"/>
<g>
	<path class="st1" d="M22.1000004,46.2000008V31.8999996h2.2999992v12.3000011h6v2H22.1000004z"/>
	<path class="st1" d="M45.5999985,39c0,2.2999992-0.5999985,4.0999985-1.7000008,5.4000015
		c-1.0999985,1.2999992-2.7999992,1.9000015-4.9000015,1.9000015c-2.2000008,0-3.7999992-0.5999985-5-1.9000015
		c-1.2000008-1.2999992-1.7000008-3.0999985-1.7000008-5.5S32.8999939,34.7000008,33.9999962,33.5
		c1.0999985-1.2000008,2.7999992-1.8999996,5-1.8999996c2.0999985,0,3.7999992,0.6000004,4.9000015,1.8999996
		S45.5999985,36.7000008,45.5999985,39z M34.7000008,39c0,1.7999992,0.4000015,3.0999985,1.0999985,4
		S37.5999985,44.4000015,39,44.4000015S41.4000015,44,42.0999985,43.1000023s1.0999985-2.2000008,1.0999985-4
		s-0.4000015-3.0999985-1-4s-1.7000008-1.4000015-3.0999985-1.4000015c-1.4000015,0-2.5,0.5-3.2000008,1.4000015
		C35.2000008,36,34.7000008,37.2000008,34.7000008,39z"/>
	<path class="st1" d="M54.5,38.4000015h5.2999992v7.2000008c-0.9000015,0.2999992-1.7000008,0.5-2.5,0.5999985
		s-1.5999985,0.2000008-2.5999985,0.2000008c-2.2000008,0-3.7999992-0.5999985-5-1.9000015
		C48.5,43.2000008,47.9000015,41.4000015,47.9000015,39.0999985s0.7000008-4.0999985,2-5.4000015
		c1.2999992-1.2999992,3.0999985-1.8999996,5.5-1.8999996c1.5,0,2.9000015,0.3000011,4.2000008,0.8999996l-0.7999992,1.9000015
		c-1.2000008-0.5-2.2999992-0.7999992-3.5-0.7999992c-1.5,0-2.7000008,0.5-3.5999985,1.4000015
		c-0.9000015,1-1.2999992,2.2999992-1.2999992,3.9000015c0,1.7000008,0.4000015,3.0999985,1.2000008,4
		s1.9000015,1.4000015,3.4000015,1.4000015c0.7999992,0,1.5999985-0.0999985,2.4000015-0.2999992v-3.7000008h-3L54.5,38.4000015
		L54.5,38.4000015z"/>
	<path class="st1" d="M75.8000031,39c0,2.2999992-0.5999985,4.0999985-1.6999969,5.4000015
		s-2.8000031,1.9000015-4.9000015,1.9000015c-2.1999969,0-3.8000031-0.5999985-5-1.9000015s-1.7000008-3.0999985-1.7000008-5.5
		S63.1000023,34.7000008,64.2000046,33.5c1.0999985-1.2000008,2.8000031-1.8999996,5-1.8999996
		c2.0999985,0,3.8000031,0.6000004,4.9000015,1.8999996C75.3000031,34.9000015,75.8000031,36.7000008,75.8000031,39z M64.9000015,39
		c0,1.7999992,0.4000015,3.0999985,1.0999985,4s1.8000031,1.4000015,3.1999969,1.4000015S71.5999985,44,72.2999954,43.1000023
		s1.0999985-2.2000008,1.0999985-4s-0.3000031-3.0999985-1-4s-1.6999969-1.4000015-3.0999985-1.4000015
		s-2.5,0.5-3.1999969,1.4000015C65.4000015,36,64.9000015,37.2000008,64.9000015,39z"/>
</g>
<g id="Icons">
	<g>
		<path class="st1" d="M294.2000122,41.2999992v-5.7000008h0.8999939V40.5H297.5v0.7999992H294.2000122z"/>
		<path class="st1" d="M303.6000061,38.4000015c0,0.9000015-0.2000122,1.7000008-0.7000122,2.2000008
			s-1.1000061,0.7999992-2,0.7999992s-1.5-0.2999992-2-0.7999992s-0.7000122-1.2000008-0.7000122-2.2000008
			s0.2000122-1.7000008,0.7000122-2.2000008s1.1000061-0.7999992,2-0.7999992c0.7999878,0,1.5,0.2999992,2,0.7999992
			S303.6000061,37.5,303.6000061,38.4000015z M299.2999878,38.4000015c0,0.7000008,0.1000061,1.2000008,0.3999939,1.5999985
			s0.7000122,0.5,1.2999878,0.5c0.6000061,0,1-0.2000008,1.2999878-0.5s0.3999939-0.9000015,0.3999939-1.5999985
			c0-0.7000008-0.1000061-1.2000008-0.3999939-1.5999985s-0.7000122-0.5-1.2999878-0.5c-0.6000061,0-1,0.2000008-1.2999878,0.5
			S299.2999878,37.7000008,299.2999878,38.4000015z"/>
		<path class="st1" d="M307.2000122,38.2000008h2.2000122v2.9000015c-0.2999878,0.0999985-0.7999878,0.2000008-1.1000061,0.2000008
			s-0.7000122,0.0999985-1,0.0999985c-0.8999939,0-1.5-0.2999992-2-0.7999992s-0.7000122-1.2000008-0.7000122-2.2000008
			c0-0.9000015,0.2999878-1.5999985,0.7999878-2.2000008s1.2999878-0.7999992,2.2000122-0.7999992
			c0.6000061,0,1.2000122,0.0999985,1.7000122,0.2999992L309.0000305,36.5c-0.5-0.2000008-0.8999939-0.2999992-1.3999939-0.2999992
			c-0.6000061,0-1.1000061,0.2000008-1.3999939,0.5999985s-0.5,0.9000015-0.5,1.5999985
			c0,0.7000008,0.2000122,1.2000008,0.5,1.5999985s0.7999878,0.5,1.3999939,0.5c0.2999878,0,0.6000061,0,1-0.0999985V39h-1.2000122
			v-0.7999992H307.2000122z"/>
		<path class="st1" d="M312.7000122,41.2999992v-5.7000008h0.8999939v5.7000008H312.7000122z"/>
		<path class="st1" d="M319.8999939,41.2999992h-1.1000061l-2.7000122-4.5l0,0V37c0,0.5,0,0.9000015,0,1.2999992v3h-0.7999878
			v-5.7000008h1.1000061l2.7999878,4.5l0,0c0-0.0999985,0-0.2999992,0-0.7000008s0-0.7000008,0-0.9000015v-3h0.8999939v5.7999992
			C320.1000061,41.2999992,319.8999939,41.2999992,319.8999939,41.2999992z"/>
		<path class="st1" d="M325.7999878,35.5999985l-2.1000061,5.7000008h-0.8999939l2.1000061-5.7000008H325.7999878z"/>
		<path class="st1" d="M332,39.7000008c0,0.5-0.2000122,0.9000015-0.6000061,1.2000008s-0.8999939,0.4000015-1.5,0.4000015
			s-1.2000122-0.0999985-1.6000061-0.2999992v-0.9000015c0.2999878,0.0999985,0.5,0.2000008,0.7999878,0.2999992
			S329.6999817,40.5,329.8999634,40.5c0.3999939,0,0.6000061-0.0999985,0.7999878-0.2000008S330.999939,40,330.999939,39.7000008
			c0-0.2000008-0.1000061-0.4000015-0.2000122-0.5s-0.5-0.2999992-1-0.5s-0.8999939-0.5-1.1000061-0.7000008
			s-0.2999878-0.5999985-0.2999878-1c0-0.5,0.2000122-0.9000015,0.5-1.0999985S329.6999207,35.5,330.2999268,35.5
			c0.5,0,1.1000061,0.0999985,1.6000061,0.4000015l-0.2999878,0.7999992c-0.5-0.2000008-1-0.2999992-1.3999939-0.2999992
			c-0.2999878,0-0.5,0.0999985-0.7000122,0.2000008s-0.2000122,0.2999992-0.2000122,0.5
			c0,0.0999985,0,0.2999992,0.1000061,0.4000015s0.2000122,0.2000008,0.2999878,0.2999992s0.3999939,0.2000008,0.7999878,0.4000015
			s0.7000122,0.2999992,0.8999939,0.5s0.2999878,0.2999992,0.3999939,0.5S332,39.5,332,39.7000008z"/>
		<path class="st1" d="M333.1000061,41.2999992v-5.7000008H334v5.7000008H333.1000061z"/>
		<path class="st1" d="M340.2999878,41.2999992h-1.1000061l-2.7999878-4.5999985l0,0V37
			c0,0.5,0.1000061,0.9000015,0.1000061,1.2999992v3h-0.7999878v-5.7000008h1.1000061l2.7999878,4.5l0,0
			c0-0.0999985,0-0.2999992,0-0.7000008s0-0.7000008,0-0.9000015v-3H340.5v5.7999992
			C340.5,41.2999992,340.2999878,41.2999992,340.2999878,41.2999992z"/>
		<path class="st1" d="M344.2000122,38.2000008h2.1000061v2.9000015c-0.2999878,0.0999985-0.7000122,0.2000008-1,0.2000008
			s-0.7000122,0.0999985-1,0.0999985c-0.8999939,0-1.5-0.2999992-2-0.7999992s-0.7000122-1.2000008-0.7000122-2.2000008
			c0-0.9000015,0.2999878-1.5999985,0.7999878-2.2000008s1.2999878-0.7999992,2.2000122-0.7999992
			c0.6000061,0,1.2000122,0.0999985,1.7000122,0.2999992L346.0000305,36.5c-0.5-0.2000008-0.8999939-0.2999992-1.3999939-0.2999992
			c-0.6000061,0-1.1000061,0.2000008-1.3999939,0.5999985s-0.5,0.9000015-0.5,1.5999985
			c0,0.7000008,0.2000122,1.2000008,0.5,1.5999985s0.7999878,0.5,1.3999939,0.5c0.2999878,0,0.6000061,0,1-0.0999985V39h-1.2000122
			v-0.7999992H344.2000122z"/>
		<path class="st1" d="M354.2000122,35.5999985v3.7000008c0,0.4000015-0.1000061,0.7999992-0.2999878,1.0999985
			s-0.3999939,0.5999985-0.7999878,0.7000008s-0.7999878,0.2999992-1.2000122,0.2999992
			c-0.7000122,0-1.2999878-0.2000008-1.7000122-0.5999985s-0.6000061-0.9000015-0.6000061-1.5v-3.7000008H350.5v3.5999985
			c0,0.5,0.1000061,0.7999992,0.2999878,1s0.6000061,0.2999992,1,0.2999992c0.8999939,0,1.2999878-0.5,1.2999878-1.4000015
			v-3.5999985h1.1000061L354.2000122,35.5999985L354.2000122,35.5999985z"/>
		<path class="st1" d="M359.3999939,37.2999992c0,0.5999985-0.2000122,1.0999985-0.6000061,1.4000015s-0.8999939,0.5-1.7000122,0.5
			h-0.6000061v2.0999985h-0.8999939v-5.7000008h1.6000061c0.7000122,0,1.2000122,0.0999985,1.6000061,0.4000015
			S359.3999939,36.7000008,359.3999939,37.2999992z M356.6000061,38.4000015h0.5c0.5,0,0.7999878-0.0999985,1.1000061-0.2000008
			S358.5,37.7999992,358.5,37.4000015c0-0.2999992-0.1000061-0.5999985-0.2999878-0.7000008S357.7000122,36.5,357.3000183,36.5
			h-0.6000061v1.9000015H356.6000061z"/>
	</g>
	<path class="st2" d="M399,34.7999992c0-0.2000008-0.2000122-0.4000015-0.3999939-0.4000015H397.5
		c0-1.0999985-0.8999939-1.7999992-1.8999939-1.7999992c-1.1000061,0-1.7999878,0.7999992-2,1.7999992H392.5
		c-0.2000122,0-0.3999939,0.2000008-0.3999939,0.4000015l-0.2000122,6.7999992c0,0.2000008,0.1000061,0.4000015,0.2000122,0.7000008
		c0.1000061,0.0999985,0.2999878,0.2999992,0.7000122,0.2999992h5.6000061c0.2000122,0,0.3999939-0.0999985,0.7000122-0.2999992
		c0.1000061-0.0999985,0.2000122-0.4000015,0.2000122-0.7000008L399,34.7999992z M395.6000061,33
		c0.7999878,0,1.2999878,0.5999985,1.3999939,1.2999992h-2.7999878C394.2000122,33.5999985,394.7999878,33,395.6000061,33z
		 M393.7000122,34.9000015v0.9000015c0,0.0999985,0.1000061,0.2000008,0.2000122,0.2000008s0.2000122-0.0999985,0.2000122-0.2000008
		v-0.9000015h2.7999878v0.9000015c0,0.0999985,0.1000061,0.2000008,0.2000122,0.2000008s0.2000122-0.0999985,0.2000122-0.2000008
		v-0.9000015h1.1000061l0.2999878,6.7000008c0,0.0999985,0,0.2000008-0.1000061,0.2999992S398.5000305,42,398.4000244,42h-5.6000061
		c-0.1000061,0-0.2000122,0-0.2999878-0.0999985s-0.1000061-0.0999985-0.1000061-0.2999992l0.2999878-6.7000008H393.7000122z"/>
	<g>
		<circle class="st3" cx="398.7999878" cy="34.0999985" r="2.2000065"/>
		<g class="st4">
			<path class="st1" d="M405.2999878,40.5999985h-3.2000122v-0.7000008l1.1000061-1.2000008
				c0.2999878-0.2999992,0.6000061-0.5999985,0.7000122-0.7000008c0.1000061-0.0999985,0.2000122-0.2999992,0.2000122-0.4000015
				c0-0.0999985,0.1000061-0.2000008,0.1000061-0.4000015S404.1000061,36.8999939,404,36.7999916
				c-0.1000061-0.0999985-0.2000122-0.0999985-0.3999939-0.0999985c-0.2000122,0-0.2999878,0-0.5,0.0999985
				s-0.2999878,0.2000008-0.5,0.2999992l-0.5-0.5999985c0.2000122-0.2000008,0.3999939-0.2999992,0.6000061-0.4000015
				c0.1000061-0.0999985,0.2999878-0.0999985,0.5-0.2000008c0.2000122,0,0.3999939-0.0999985,0.6000061-0.0999985
				c0.2999878,0,0.5,0.0999985,0.7999878,0.2000008s0.3999939,0.2000008,0.5,0.4000015s0.2000122,0.4000015,0.2000122,0.5999985
				c0,0.2000008,0,0.4000015-0.1000061,0.5999985c-0.1000061,0.2000008-0.2000122,0.4000015-0.2999878,0.5999985
				c-0.2000122,0.2000008-0.3999939,0.5-0.7999878,0.7999992l-0.6000061,0.5l0,0h2v1.0999985L405.2999878,40.5999985
				L405.2999878,40.5999985z"/>
		</g>
	</g>
	<path class="st2" d="M377.7000122,36.5999985C377.6000061,35.1999969,376.4000244,34,374.9000244,34
		c-0.8999939,0-1.6000061,0.2999992-2.2000122,1c-0.5-0.7000008-1.3999939-1-2.2000122-1
		c-1.3999939,0-2.7000122,1.2000008-2.7999878,2.5999985c0,0.0999985,0,0.2000008,0,0.2999992
		c0,0.5,0.2000122,1.0999985,0.6000061,1.4000015l4,4.2999992c0.1000061,0.0999985,0.2999878,0.2000008,0.3999939,0.2000008
		S373,42.7000008,373.1000061,42.5999985l4-4.0999985c0.2999878-0.4000015,0.5-0.9000015,0.6000061-1.4000015
		C377.7999878,36.9000015,377.7000122,36.7000008,377.7000122,36.5999985z M372.7000122,42.5l-4-4.4000015
		c-0.2999878-0.2999992-0.3999939-0.7999992-0.3999939-1.0999985c0-0.0999985,0-0.2000008,0-0.2999992
		C368.4000244,35.5,369.4000244,34.6000023,370.6000061,34.5c0,0,0,0,0.1000061,0c0.7999878,0,1.5,0.2999992,1.8999939,1
		c0,0.0999985,0.1000061,0.0999985,0.2000122,0.0999985s0.2000122,0,0.2000122-0.0999985
		c0.3999939-0.5999985,1.2000122-1,1.8999939-1c1.2000122,0,2.2000122,1,2.2999878,2.2000008c0,0.0999985,0,0.2000008,0,0.2999992
		l0,0c0,0.4000015-0.2000122,0.7999992-0.3999939,1.0999985l-4,4.2000008
		C372.8999939,42.2999992,372.7999878,42.5999985,372.7000122,42.5z"/>
	<g>
		<circle class="st3" cx="377" cy="34.0999985" r="2.2000065"/>
		<g>
			<g class="st4">
				<path class="st1" d="M381,40.5999985l1.7000122-3.7000008H380.5V36h3.2999878v0.5999985L382.0999756,40.5L381,40.5999985
					L381,40.5999985z"/>
			</g>
		</g>
	</g>
</g>
<g id="Menu">
	<g>
		<path class="st1" d="M115.1999969,41.2999992h-0.9000015v-2.5999985h-2.5999985v2.5999985h-0.9000015v-5.7000008h0.9000015
			v2.2999992h2.5999985v-2.2999992h0.9000015V41.2999992z"/>
		<path class="st1" d="M121.6999969,38.4000015c0,0.9000015-0.1999969,1.7000008-0.6999969,2.2000008
			s-1.0999985,0.7999992-2,0.7999992s-1.5-0.2999992-2-0.7999992s-0.6999969-1.2000008-0.6999969-2.2000008
			S116.5,36.7000008,117,36.2000008s1.0999985-0.7999992,2-0.7999992c0.8000031,0,1.5,0.2999992,2,0.7999992
			S121.6999969,37.5,121.6999969,38.4000015z M117.4000015,38.4000015c0,0.7000008,0.0999985,1.2000008,0.4000015,1.5999985
			s0.6999969,0.5,1.3000031,0.5s1-0.2000008,1.3000031-0.5s0.4000015-0.9000015,0.4000015-1.5999985
			c0-0.7000008-0.0999985-1.2000008-0.4000015-1.5999985s-0.6999969-0.5-1.3000031-0.5s-1,0.2000008-1.3000031,0.5
			C117.5,37.0999985,117.4000015,37.7000008,117.4000015,38.4000015z"/>
		<path class="st1" d="M125.4000015,41.2999992L123.7000046,36.5l0,0c0,0.7000008,0.0999985,1.4000015,0.0999985,2v2.7999992H123
			v-5.7000008h1.3000031l1.5999985,4.5l0,0l1.5999985-4.5h1.3000031v5.7000008H128V38.5c0-0.2999992,0-0.7000008,0-1.0999985
			s0-0.7000008,0-0.7999992l0,0l-1.6999969,4.7999992H125.5L125.4000015,41.2999992
			C125.5,41.2999992,125.4000015,41.2999992,125.4000015,41.2999992z"/>
		<path class="st1" d="M133.6000061,41.2999992h-3.1999969v-5.7000008h3.1999969v0.7999992h-2.3000031V38H133.5v0.7999992
			h-2.1999969v1.7999992h2.3000031V41.2999992z"/>
		<path class="st5" d="M148.5,39.7000008c0,0.5-0.1999969,0.9000015-0.6000061,1.2000008
			c-0.3999939,0.2999992-0.8999939,0.4000015-1.5,0.4000015s-1.1999969-0.0999985-1.6000061-0.2999992v-0.9000015
			c0.3000031,0.0999985,0.5,0.2000008,0.8000031,0.2999992S146.1999969,40.5,146.3999939,40.5
			c0.3999939,0,0.6000061-0.0999985,0.8000031-0.2000008C147.3999939,40.2000008,147.5,40,147.5,39.7000008
			c0-0.2000008-0.1000061-0.4000015-0.1999969-0.5c-0.1000061-0.0999985-0.5-0.2999992-1-0.5s-0.8999939-0.5-1.1000061-0.7000008
			s-0.3000031-0.5999985-0.3000031-1c0-0.5,0.1999969-0.9000015,0.5-1.0999985
			C145.6999969,35.7000008,146.1999969,35.5,146.7999878,35.5c0.5,0,1.1000061,0.0999985,1.6000061,0.4000015l-0.3000031,0.7999992
			c-0.5-0.2000008-1-0.2999992-1.3999939-0.2999992c-0.3000031,0-0.5,0.0999985-0.6999969,0.2000008
			c-0.1999969,0.0999985-0.1999969,0.2999992-0.1999969,0.5c0,0.0999985,0,0.2999992,0.1000061,0.4000015
			s0.1999969,0.2000008,0.3000031,0.2999992s0.3999939,0.2000008,0.8000031,0.4000015s0.6999969,0.2999992,0.8999939,0.5
			s0.3000031,0.2999992,0.3999939,0.5C148.3999939,39.4000015,148.5,39.5,148.5,39.7000008z"/>
		<path class="st5" d="M154.1000061,41.2999992h-0.8999939v-2.5999985h-2.6000061v2.5999985h-0.8999939v-5.7000008h0.8999939
			v2.2999992h2.6000061v-2.2999992h0.8999939V41.2999992z"/>
		<path class="st5" d="M160.6999969,38.4000015c0,0.9000015-0.1999969,1.7000008-0.6999969,2.2000008
			s-1.1000061,0.7999992-2,0.7999992s-1.5-0.2999992-2-0.7999992s-0.6999969-1.2000008-0.6999969-2.2000008
			S155.5,36.7000008,156,36.2000008s1.1000061-0.7999992,2-0.7999992c0.8000031,0,1.5,0.2999992,2,0.7999992
			S160.6999969,37.5,160.6999969,38.4000015z M156.3000031,38.4000015c0,0.7000008,0.1000061,1.2000008,0.3999939,1.5999985
			S157.3999939,40.5,158,40.5s1-0.2000008,1.3000031-0.5s0.3999939-0.9000015,0.3999939-1.5999985
			c0-0.7000008-0.1000061-1.2000008-0.3999939-1.5999985s-0.6999969-0.5-1.3000031-0.5s-1,0.2000008-1.3000031,0.5
			C156.3999939,37.0999985,156.3000031,37.7000008,156.3000031,38.4000015z"/>
		<path class="st5" d="M165.6999969,37.2999992c0,0.5999985-0.1999969,1.0999985-0.6000061,1.4000015
			c-0.3999939,0.2999992-0.8999939,0.5-1.6999969,0.5h-0.6000061v2.0999985h-0.8999939v-5.7000008H163.5
			c0.6999969,0,1.1999969,0.0999985,1.6000061,0.4000015C165.5,36.2999992,165.6999969,36.7000008,165.6999969,37.2999992z
			 M162.8000031,38.4000015h0.5c0.5,0,0.8000031-0.0999985,1.1000061-0.2000008
			c0.3000031-0.0999985,0.3000031-0.4000015,0.3000031-0.7999992c0-0.2999992-0.1000061-0.5999985-0.3000031-0.7000008
			c-0.1999969-0.0999985-0.5-0.2000008-0.8999939-0.2000008h-0.6000061v1.9000015H162.8000031z"/>
		<path class="st1" d="M177.1999969,35.5999985h1.6999969c0.8000031,0,1.3999939,0.0999985,1.6999969,0.2999992
			s0.5,0.5999985,0.5,1.0999985c0,0.2999992-0.1000061,0.5999985-0.3000031,0.7999992s-0.3999939,0.4000015-0.6999969,0.4000015l0,0
			c0.3999939,0.0999985,0.6999969,0.2000008,0.8999939,0.4000015s0.3000031,0.5,0.3000031,0.9000015
			c0,0.5-0.1999969,0.9000015-0.5,1.2000008s-0.8999939,0.4000015-1.5,0.4000015h-2.1000061L177.1999969,35.5999985
			L177.1999969,35.5999985z M178.1000061,37.9000015H179c0.3999939,0,0.6999969-0.0999985,0.8999939-0.2000008
			c0.1999969-0.0999985,0.3000031-0.2999992,0.3000031-0.5999985s-0.1000061-0.5-0.3000031-0.5999985
			s-0.5-0.2000008-0.8999939-0.2000008h-0.8000031L178.1000061,37.9000015L178.1000061,37.9000015z M178.1000061,38.7000008V40.5h1
			C179.5,40.5,179.8000031,40.4000015,180,40.2999992c0.1999969-0.0999985,0.3000031-0.4000015,0.3000031-0.7000008
			s-0.1000061-0.5-0.3000031-0.7000008s-0.5-0.2000008-0.8999939-0.2000008
			C179.1000061,38.7000008,178.1000061,38.7000008,178.1000061,38.7000008z"/>
		<path class="st1" d="M182.5,41.2999992v-5.7000008h0.8999939V40.5h2.3999939v0.7999992H182.5z"/>
		<path class="st1" d="M191.8999939,38.4000015c0,0.9000015-0.1999969,1.7000008-0.6999969,2.2000008
			s-1.1000061,0.7999992-2,0.7999992s-1.5-0.2999992-2-0.7999992S186.5,39.4000015,186.5,38.4000015
			s0.1999969-1.7000008,0.6999969-2.2000008s1.1000061-0.7999992,2-0.7999992c0.8000031,0,1.5,0.2999992,2,0.7999992
			C191.6999969,36.7999992,191.8999939,37.5,191.8999939,38.4000015z M187.5,38.4000015
			c0,0.7000008,0.1000061,1.2000008,0.3999939,1.5999985s0.6999969,0.5,1.3000031,0.5s1-0.2000008,1.3000031-0.5
			c0.3000031-0.4000015,0.3999939-0.9000015,0.3999939-1.5999985c0-0.7000008-0.1000061-1.2000008-0.3999939-1.5999985
			c-0.3000031-0.4000015-0.6999969-0.5-1.3000031-0.5s-1,0.2000008-1.3000031,0.5
			C187.6000061,37.0999985,187.5,37.7000008,187.5,38.4000015z"/>
		<path class="st1" d="M195.5,38.2000008h2.1000061v2.9000015c-0.3000031,0.0999985-0.6999969,0.2000008-1,0.2000008
			s-0.6999969,0.0999985-1,0.0999985c-0.8999939,0-1.5-0.2999992-2-0.7999992s-0.6999969-1.2000008-0.6999969-2.2000008
			c0-0.9000015,0.3000031-1.5999985,0.8000031-2.2000008c0.5-0.5,1.3000031-0.7999992,2.1999969-0.7999992
			c0.6000061,0,1.1999969,0.0999985,1.6999969,0.2999992L197.3000031,36.5c-0.5-0.2000008-0.8999939-0.2999992-1.3999939-0.2999992
			c-0.6000061,0-1.1000061,0.2000008-1.3999939,0.5999985c-0.3999939,0.4000015-0.5,0.9000015-0.5,1.5999985
			c0,0.7000008,0.1999969,1.2000008,0.5,1.5999985c0.3000031,0.4000015,0.8000031,0.5,1.3999939,0.5
			c0.3000031,0,0.6000061,0,1-0.0999985V39h-1.1999969v-0.7999992H195.5z"/>
		<g class="st4">
			<path class="st1" d="M211.3000031,36.2999992c-0.5,0-1,0.2000008-1.3000031,0.5999985
				c-0.3000031,0.4000015-0.5,0.9000015-0.5,1.5999985c0,0.7000008,0.1000061,1.2000008,0.3999939,1.5999985
				c0.3000031,0.4000015,0.6999969,0.5,1.3000031,0.5c0.1999969,0,0.5,0,0.6999969-0.0999985
				c0.1999969,0,0.5-0.0999985,0.6999969-0.2000008v0.7999992c-0.3999939,0.2000008-1,0.2999992-1.5,0.2999992
				c-0.8000031,0-1.5-0.2999992-1.8999939-0.7999992S208.5,39.3999939,208.5,38.3999939
				c0-0.5999985,0.1000061-1.0999985,0.3000031-1.5999985c0.1999969-0.4000015,0.5-0.7999992,0.8999939-1
				s0.8999939-0.4000015,1.3999939-0.4000015c0.6000061,0,1.1000061,0.0999985,1.6000061,0.4000015l-0.3000031,0.7999992
				c-0.1999969-0.0999985-0.3999939-0.2000008-0.6000061-0.2000008
				C211.8000031,36.2999992,211.6000061,36.2999992,211.3000031,36.2999992z"/>
			<path class="st1" d="M219,38.4000015c0,0.9000015-0.1999969,1.5999985-0.6999969,2.2000008s-1.1000061,0.7999992-2,0.7999992
				s-1.5-0.2999992-2-0.7999992s-0.6999969-1.2000008-0.6999969-2.2000008s0.1999969-1.7000008,0.6999969-2.2000008
				s1.1000061-0.7999992,2-0.7999992c0.8000031,0,1.5,0.2999992,2,0.7999992C218.8000031,36.7999992,219,37.5,219,38.4000015z
				 M214.6999969,38.4000015c0,0.7000008,0.1000061,1.2000008,0.3999939,1.5999985c0.3000031,0.4000015,0.6999969,0.5,1.3000031,0.5
				s1-0.2000008,1.1999969-0.5c0.3000031-0.4000015,0.3999939-0.9000015,0.3999939-1.5999985
				c0-0.7000008-0.1000061-1.2000008-0.3999939-1.5999985s-0.6999969-0.5-1.1999969-0.5c-0.6000061,0-1,0.2000008-1.3000031,0.5
				C214.8000031,37.2000008,214.6999969,37.7000008,214.6999969,38.4000015z"/>
			<path class="st1" d="M225,41.2999992h-1.1000061l-2.8000031-4.5l0,0v0.2999992c0,0.5,0.1000061,0.9000015,0.1000061,1.2999992v3
				h-0.8000031v-5.7000008H221.5l2.8000031,4.5l0,0c0-0.0999985,0-0.2999992,0-0.7000008s0-0.7000008,0-0.9000015v-3h0.8999939
				v5.7000046H225z"/>
			<path class="st1" d="M228.3999939,41.2999992H227.5v-4.9000015h-1.6999969v-0.7999992h4.3000031v0.7999992h-1.6999969v4.9000015
				H228.3999939z"/>
			<path class="st1" d="M234.5,41.2999992l-0.6000061-1.5999985h-2.1999969l-0.6000061,1.5999985h-1l2.1000061-5.7000008h1
				l2.1000061,5.7000008H234.5z M233.6999969,38.9000015l-0.5-1.5c0-0.0999985-0.1000061-0.2999992-0.1999969-0.5
				c-0.1000061-0.2000008-0.1000061-0.4000015-0.1000061-0.5c-0.1000061,0.2999992-0.1999969,0.7000008-0.3000031,1l-0.5,1.5
				H233.6999969z"/>
			<path class="st1" d="M238.6999969,36.2999992c-0.5,0-1,0.2000008-1.3000031,0.5999985
				c-0.3000031,0.4000015-0.5,0.9000015-0.5,1.5999985c0,0.7000008,0.1000061,1.2000008,0.3999939,1.5999985
				c0.3000031,0.4000015,0.6999969,0.5,1.3000031,0.5c0.1999969,0,0.5,0,0.6999969-0.0999985
				c0.1999969,0,0.5-0.0999985,0.6999969-0.2000008v0.7999992c-0.3999939,0.2000008-1,0.2999992-1.5,0.2999992
				c-0.8000031,0-1.5-0.2999992-1.8999939-0.7999992s-0.6999969-1.2000008-0.6999969-2.2000008
				c0-0.5999985,0.1000061-1.0999985,0.3000031-1.5999985c0.1999969-0.4000015,0.5-0.7999992,0.8999939-1
				s0.8999939-0.4000015,1.3999939-0.4000015c0.6000061,0,1.1000061,0.0999985,1.6000061,0.4000015l-0.3000031,0.7999992
				c-0.1999969-0.0999985-0.3999939-0.2000008-0.6000061-0.2000008S238.8999939,36.2999992,238.6999969,36.2999992z"/>
			<path class="st1" d="M243.3000031,41.2999992h-0.8999939v-4.9000015h-1.6999969v-0.7999992h4.3000031v0.7999992h-1.6999969
				v4.9000015H243.3000031z"/>
			<path class="st1" d="M249.1000061,39.7000008c0,0.5-0.1999969,0.9000015-0.5,1.2000008
				c-0.3999939,0.2999992-0.8999939,0.4000015-1.5,0.4000015S245.9000092,41.2000046,245.5,41.0000038v-0.9000015
				c0.3000031,0.0999985,0.5,0.2000008,0.8000031,0.2999992S246.9000092,40.5,247.1000061,40.5
				c0.3999939,0,0.6000061-0.0999985,0.8000031-0.2000008S248.2000122,40,248.2000122,39.7000008
				c0-0.2000008-0.1000061-0.4000015-0.1999969-0.5s-0.5-0.2999992-1-0.5S246.1000214,38.2999992,245.9000092,38
				c-0.1999969-0.2999992-0.3000031-0.5999985-0.3000031-1c0-0.5,0.1999969-0.7999992,0.5-1.0999985S246.9000092,35.5,247.5,35.5
				c0.5,0,1.1000061,0.0999985,1.6000061,0.4000015l-0.3000031,0.7999992c-0.5-0.2000008-1-0.2999992-1.3999939-0.2999992
				c-0.3000031,0-0.5,0.0999985-0.6999969,0.2000008c-0.1999969,0.0999985-0.1999969,0.2999992-0.1999969,0.5
				c0,0.0999985,0,0.2999992,0.1000061,0.4000015c0.1000061,0.0999985,0.1999969,0.2000008,0.3000031,0.2999992
				s0.3999939,0.2000008,0.8000031,0.4000015c0.3999939,0.2000008,0.6999969,0.2999992,0.8999939,0.5
				s0.3000031,0.2999992,0.3999939,0.5C249,39.2000008,249.1000061,39.5,249.1000061,39.7000008z"/>
		</g>
	</g>
	<g>
		<path class="st1" d="M267.7999878,42.7999992l-2.3999939-2.4000015c0.6000061-0.7000008,0.8999939-1.5999985,0.8999939-2.5
			c0-2.0999985-1.7000122-3.9000015-3.8999939-3.9000015c-2.1000061,0-3.8999939,1.7000008-3.8999939,3.9000015
			s1.7000122,3.9000015,3.8999939,3.9000015c0.8999939,0,1.7999878-0.2999992,2.5-1l2.3999939,2.4000015
			c0.1000061,0.0999985,0.1000061,0.0999985,0.2000122,0.0999985s0.1000061,0,0.2000122-0.0999985
			c0.1000061,0,0.1000061-0.0999985,0.1000061-0.2000008C267.8999939,43,267.8999939,42.9000015,267.7999878,42.7999992z
			 M265.8999939,37.9000015c0,1.7999992-1.5,3.2999992-3.2999878,3.2999992s-3.2999878-1.5-3.2999878-3.2999992
			s1.5-3.2999992,3.2999878-3.2999992S265.8999939,36.0999985,265.8999939,37.9000015z"/>
		<path class="st1" d="M267.6000061,43.5999985c-0.1000061,0-0.2999878-0.0999985-0.3999939-0.2000008L265,41.1999969
			c-0.7000122,0.5999985-1.6000061,0.9000015-2.5,0.9000015c-2.2999878,0-4.1000061-1.9000015-4.1000061-4.0999985
			c0-2.2999992,1.8999939-4.0999985,4.1000061-4.0999985c2.2999878,0,4.1000061,1.9000015,4.1000061,4.0999985
			c0,0.9000015-0.2999878,1.7999992-0.8999939,2.5l2.2000122,2.2000008
			c0.1000061,0.0999985,0.2000122,0.2000008,0.2000122,0.4000015s-0.1000061,0.2999992-0.2000122,0.4000015
			C267.8999939,43.5,267.7999878,43.5999985,267.6000061,43.5999985z M262.5,34.9000015
			c-1.7000122,0-3.1000061,1.4000015-3.1000061,3.0999985c0,1.7000008,1.3999939,3.0999985,3.1000061,3.0999985
			S265.6000061,39.6999969,265.6000061,38C265.6000061,36.2000008,264.2000122,34.9000015,262.5,34.9000015z M265.1000061,40.5
			L265.1000061,40.5L265.1000061,40.5z"/>
	</g>
</g>
<rect x="22.1000004" y="5.0999999" class="st1" width="23.4999981" height="1.7999997"/>
<rect x="55.5999985" y="5.0999999" class="st1" width="23.5" height="1.7999997"/>
<rect x="89.0999985" y="5.0999999" class="st1" width="23.5" height="1.7999997"/>
<rect x="384.7000122" y="5.0999999" class="st6" width="23.5" height="1.7999997"/>
<g id="Top_header">
	<rect class="st5" width="430" height="12"/>
	<g id="Social">
		<g>
			<g>
				<path class="st1" d="M403.2000122,3.3c-1.5,0-2.2999878,0.8999999-2.2999878,2.0000002
					c0,0.5,0.2999878,1.0999999,0.7000122,1.3000002c0.1000061,0,0.1000061,0,0.1000061,0s0.1000061-0.3000002,0.1000061-0.4000001
					V6.0999999c-0.1000061-0.1999998-0.2999878-0.5-0.2999878-0.6999998c0-0.6999998,0.6000061-1.4000001,1.5-1.4000001
					c0.7999878,0,1.3999939,0.5,1.3999939,1.3000002c0,0.9000001-0.5,1.5-1.1000061,1.5
					c-0.2999878,0-0.6000061-0.3000002-0.5-0.5999999c0.1000061-0.4000001,0.2999878-0.8000002,0.2999878-1.0999999
					c0-0.3000002-0.1000061-0.5-0.3999939-0.5s-0.6000061,0.3000002-0.6000061,0.8000002c0,0.3000002,0.1000061,0.5,0.1000061,0.5
					s-0.2999878,1.4000001-0.3999939,1.5999999c-0.1000061,0.4000001,0,1.0999999,0,1.2000003c0,0,0,0,0.1000061,0
					c0,0,0.3999939-0.6000004,0.6000061-1.0999999c0-0.1999998,0.2000122-0.8000002,0.2000122-0.8000002
					c0.1000061,0.1999998,0.3999939,0.4000001,0.7999878,0.4000001c1,0,1.7999878-0.9000001,1.7999878-2
					C405.2999878,4.0999999,404.3999939,3.3,403.2000122,3.3z"/>
			</g>
		</g>
		<g>
			<g>
				<path class="st1" d="M392.3999939,5.5v1.0999999h1.5c-0.2000122,0.5999999-0.7999878,1.0999999-1.5,1.0999999
					C391.5,7.6999998,390.7999878,7,390.7999878,6.0999999S391.5,4.5,392.3999939,4.5c0.3999939,0,0.7999878,0.0999999,1,0.4000001
					l0.7000122-0.8000002c-0.5-0.4000001-1.1000061-0.7-1.7000122-0.7c-1.5,0-2.7000122,1.2-2.7000122,2.7
					s1.2000122,2.7000003,2.7000122,2.7000003s2.7000122-1.1999998,2.7000122-2.6999998V5.5H392.3999939L392.3999939,5.5z"/>
			</g>
		</g>
		<g>
			<g>
				<g>
					<path class="st1" d="M382.1000061,3.3h-2c-0.8999939,0-1.7000122,0.8-1.7000122,1.7v2
						c0,0.9000001,0.7999878,1.6999998,1.7000122,1.6999998h2C383,8.6999998,383.8000183,7.8999996,383.8000183,7V5
						C383.7999878,4.0999999,383.1000061,3.3,382.1000061,3.3z M383.2999878,7c0,0.6999998-0.5,1.1999998-1.2000122,1.1999998h-2
						c-0.7000122,0-1.2000122-0.5-1.2000122-1.1999998V5c0-0.6999998,0.5-1.2,1.2000122-1.2h2
						c0.7000122,0,1.2000122,0.5000002,1.2000122,1.2V7z"/>
				</g>
			</g>
			<g>
				<g>
					<path class="st1" d="M381.1000061,4.6999998c-0.7000122,0-1.2999878,0.5999999-1.2999878,1.3000002
						s0.6000061,1.3000002,1.2999878,1.3000002S382.3999939,6.7000003,382.3999939,6S381.8999939,4.6999998,381.1000061,4.6999998z
						 M381.1000061,6.8000002c-0.5,0-0.7999878-0.4000001-0.7999878-0.8000002s0.3999939-0.8000002,0.7999878-0.8000002
						c0.5,0,0.7999878,0.4000001,0.7999878,0.8000002S381.6000061,6.8000002,381.1000061,6.8000002z"/>
				</g>
			</g>
			<g>
				<g>
					<circle class="st1" cx="382.6000061" cy="4.5" r="0.200006"/>
				</g>
			</g>
		</g>
		<g>
			<g>
				<path class="st1" d="M372.7999878,4.3000002C372.5999756,4.4000001,372.3999939,4.4000001,372.1999817,4.5
					c0.2000122-0.0999999,0.3999939-0.4000001,0.5-0.5999999C372.4999695,4,372.2999878,4.0999999,371.9999695,4.2000003
					c-0.2000122-0.1999998-0.5-0.4000001-0.7999878-0.4000001c-0.6000061,0-1.1000061,0.5-1.1000061,1.0999999
					c0,0.0999999,0,0.1999998,0,0.3000002c-0.8999939,0-1.7000122-0.5-2.2999878-1.2000003
					c-0.1000061,0.1999998-0.2000122,0.4000001-0.2000122,0.5999999c0,0.4000001,0.2000122,0.6999998,0.5,0.9000001
					c-0.2000122,0-0.3999939-0.0999999-0.5-0.0999999l0,0c0,0.5,0.3999939,1,0.8999939,1.0999999
					c-0.1000061,0-0.2000122,0-0.2999878,0c-0.1000061,0-0.1000061,0-0.2000122,0c0.1000061,0.4000001,0.5,0.8000002,1,0.8000002
					c-0.3999939,0.3000002-0.8999939,0.5-1.3999939,0.5c-0.1000061,0-0.2000122,0-0.2999878,0
					c0.5,0.3000002,1.1000061,0.5,1.7000122,0.5c2,0,3.1000061-1.6999998,3.1000061-3.0999999V5.0999999
					C372.5,4.6999998,372.7000122,4.5,372.7999878,4.3000002z"/>
			</g>
		</g>
		<g>
			<g>
				<path class="st1" d="M360.3999939,5.1999998V4.5c0-0.1999998,0.2000122-0.3000002,0.2999878-0.3000002h0.2999878V3.3h-0.7000122
					c-0.6000061,0-1,0.5-1,1.0000002v0.8000002h-0.7000122V6h0.7000122v2.6999998h1V6h0.7000122l0.2999878-0.8000002H360.3999939z"
					/>
			</g>
		</g>
	</g>
	<rect x="22.2000008" y="5.0999999" class="st1" width="23.5" height="1.7999997"/>
	<rect x="55.7000008" y="5.0999999" class="st1" width="23.4999962" height="1.7999997"/>
	<rect x="89.1999969" y="5.0999999" class="st1" width="23.5" height="1.7999997"/>
	<rect x="325.2000122" y="5.0999999" class="st1" width="23.5" height="1.7999997"/>
	<rect x="291.7000122" y="5.0999999" class="st1" width="23.5" height="1.7999997"/>
</g>
</svg>
