<?xml version="1.0" encoding="utf-8"?>
<!-- Generator: Adobe Illustrator 21.0.0, SVG Export Plug-In . SVG Version: 6.00 Build 0)  -->
<svg version="1.1" id="Layer_1" xmlns="http://www.w3.org/2000/svg" width="50" height="50" xmlns:xlink="http://www.w3.org/1999/xlink" x="0px" y="0px"
	 viewBox="0 0 50 50" style="enable-background:new 0 0 50 50;" xml:space="preserve">
<style type="text/css">
	.st0{display:none;}
	.st1{display:inline;fill:#FFFFFF;}
	.st2{display:inline;fill:#1089EF;}
	.st3{fill:#222222;}
	.st4{display:inline;}
	.st5{fill:#1089EF;}
	.st6{display:none;fill:#1089EF;}
</style>
<g class="st0">
	<path class="st1" d="M2,49.4c-0.8,0-1.4-0.6-1.4-1.4V2c0-0.8,0.6-1.4,1.4-1.4h46c0.8,0,1.4,0.6,1.4,1.4v46c0,0.8-0.6,1.4-1.4,1.4H2
		z"/>
	<path class="st2" d="M48,1.2c0.4,0,0.8,0.4,0.8,0.8v46c0,0.4-0.4,0.8-0.8,0.8H2c-0.4,0-0.8-0.4-0.8-0.8V2c0-0.4,0.4-0.8,0.8-0.8H48
		 M48,0H2C0.9,0,0,0.9,0,2v46c0,1.1,0.9,2,2,2h46c1.1,0,2-0.9,2-2V2C50,0.9,49.1,0,48,0L48,0z"/>
</g>
<path class="st3" d="M30.5,25.2c2-1.7,3.1-4,3.1-6.6c0-4.7-3.9-8.6-8.6-8.6s-8.6,3.9-8.6,8.6c0,2.5,1.1,4.9,3.1,6.6
	c-5.1,2.2-8.5,7.8-8.5,14c0,0.5,0.4,0.8,0.8,0.8h26.5c0.5,0,0.8-0.4,0.8-0.8C39.1,33,35.6,27.4,30.5,25.2z M28.2,24.7
	c-1,0.5-2.2,0.8-3.3,0.8c-3.8,0-6.9-3.1-6.9-6.9s3.2-6.9,7-6.9s6.9,3.1,6.9,6.9c0,2.5-1.3,4.8-3.5,6 M21.2,26.3
	c1.2,0.6,2.5,0.9,3.8,0.9s2.6-0.3,3.8-0.9c4.7,1.5,8.3,6.4,8.6,12H12.6C12.9,32.7,16.4,27.8,21.2,26.3z"/>
<g class="st0">
	<g class="st4">
		<path class="st5" d="M24.9,26.2L24.9,26.2H25c0,0,0,0,0.1,0c1.8,0,3.3-0.7,4.4-1.9c2.4-2.7,2-7.3,1.9-7.8c-0.1-3.3-1.7-4.9-3-5.6
			c-1-0.5-2.1-0.8-3.3-0.9l0,0l0,0l0,0c-0.7,0-2,0.1-3.3,0.8s-2.9,2.3-3.1,5.7c0,0.4-0.4,5.1,1.9,7.8C21.6,25.5,23.1,26.1,24.9,26.2
			z M20.2,16.7C20.2,16.6,20.2,16.6,20.2,16.7c0.2-4.5,3.4-5,4.7-5l0,0c0,0,0,0,0.1,0c1.7,0,4.5,0.7,4.7,4.9c0,0,0,0,0,0.1
			s0.4,4.3-1.5,6.5c-0.8,0.9-1.8,1.3-3.2,1.3l0,0l0,0l0,0c-1.4,0-2.4-0.4-3.2-1.3C19.8,20.9,20.2,16.7,20.2,16.7z"/>
		<path class="st5" d="M37.7,33.8L37.7,33.8c0-0.1,0-0.1,0-0.2c0-1.2-0.1-4.1-2.8-5c0,0,0,0-0.1,0c-2.8-0.7-5.1-2.3-5.2-2.3
			c-0.4-0.3-0.9-0.2-1.2,0.2c-0.3,0.4-0.2,0.9,0.2,1.2c0.1,0.1,2.6,1.8,5.7,2.6c1.4,0.5,1.6,2.1,1.6,3.5c0,0.1,0,0.1,0,0.1
			c0,0.6,0,1.4-0.1,1.9c-1,0.6-4.9,2.6-10.9,2.6s-10-2-10.9-2.5c-0.1-0.5-0.1-1.3-0.1-1.9c0-0.1,0-0.1,0-0.1c0-1.4,0.2-3,1.6-3.5
			c3.1-0.8,5.6-2.5,5.7-2.6c0.4-0.3,0.5-0.8,0.2-1.2c-0.3-0.4-0.8-0.5-1.2-0.2c0,0-2.3,1.6-5.2,2.3c0,0,0,0-0.1,0
			c-2.7,0.9-2.8,3.8-2.8,5c0,0.1,0,0.1,0,0.1l0,0c0,0.3,0,2,0.3,2.8c0.1,0.1,0.2,0.3,0.3,0.4c0.2,0.1,4.6,3,12.1,3s11.9-2.8,12.1-3
			c0.1-0.1,0.3-0.2,0.3-0.4C37.8,35.8,37.7,34.1,37.7,33.8z"/>
	</g>
</g>
<path class="st6" d="M25,10c-8.3,0-15,6.7-15,15c0,5.9,3.5,11.2,8.8,13.7c0.2,0.1,0.4,0.1,0.5,0.2c0.4,0.2,1,0.4,1.4,0.5
	c0.1,0,0.2,0.1,0.3,0.1c0.1,0,0.2,0.1,0.3,0.1c0.1,0,0.2,0.1,0.4,0.1h0.1c0.1,0,0.1,0,0.2,0c0.2,0,0.4,0.1,0.6,0.1h0.1h0.1
	c0.2,0,0.4,0.1,0.5,0.1s0.1,0,0.2,0s0.3,0,0.5,0h0.1c0.1,0,0.1,0,0.1,0c0.3,0,0.5,0,0.7,0s0.4,0,0.7,0c0.1,0,0.1,0,0.1,0h0.1
	c0.1,0,0.3,0,0.5,0v-0.1l0,0v0.1c0.1,0,0.1,0,0.2,0c0.2,0,0.4,0,0.5-0.1h0.1h0.1c0.2,0,0.4-0.1,0.6-0.1c0.1,0,0.2,0,0.2-0.1l0,0
	c0.1,0,0.2-0.1,0.4-0.1c0.1,0,0.2-0.1,0.3-0.1c0.1,0,0.2-0.1,0.3-0.1c0.5-0.1,1-0.3,1.4-0.5c0.2-0.1,0.4-0.1,0.5-0.2
	C36.5,36.2,40,30.9,40,25C40,16.7,33.3,10,25,10z M22.2,31.5c0-1-0.3-1.4-0.6-1.8c-0.2-0.4-0.5-0.8-0.8-2.1c-0.1-0.9-0.7-1.1-1-1.3
	c-0.2-0.1-0.3-0.2-0.4-1.2c0-0.4,0.1-0.5,0.1-0.5c0.1,0,0.1-0.1,0.2-0.1l0.1-0.1l0,0C20,24.3,20,24,20,23.8c0,0-0.1-0.7-0.2-1.6
	c-0.4-2.2-0.3-4.4,2.2-5.5c2.7-1.1,4.6-0.3,4.7-0.1c0.2,0.3,0.6,0.4,0.6,0.4c0.1,0,0.1,0,0.2,0l0,0l0,0c0.2,0,1.3,0,2,0.8
	c1,1.2,0.8,4.5,0.5,5.9c-0.1,0.3,0.1,0.7,0.4,0.9c0,0,0.1,0.1,0.1,0.5c-0.1,1.1-0.3,1.2-0.4,1.3c-0.3,0.1-0.8,0.4-1,1.3
	c-0.2,1.3-0.5,1.7-0.8,2.1s-0.6,0.8-0.6,1.8c0,2.5,0.9,3.9,3.5,5.1c-1.2,0.7-2.5,1.1-3.8,1.4h-0.1c-0.2,0-0.4,0.1-0.7,0.1
	c-0.1,0-0.1,0-0.2,0c-0.2,0-0.4,0-0.6,0.1H26h-0.1c-0.6,0-1,0-1.6,0h-0.1h-0.1c-0.2,0-0.4,0-0.6-0.1c-0.1,0-0.1,0-0.2,0
	c-0.2,0-0.5-0.1-0.7-0.1h-0.1c-1.3-0.3-2.6-0.7-3.8-1.4C21.3,35.4,22.2,34.1,22.2,31.5z M29.8,30.7c0.3-0.5,0.7-1.1,1-2.8l0,0l0,0
	l0,0c0.7-0.4,1.3-1,1.4-2.7c0-0.8-0.3-1.3-0.5-1.6c0.2-1.5,0.5-5.1-1-6.8c-1-1.1-2.3-1.3-3-1.4c-0.8-0.7-3.1-1.6-6.5-0.2
	c-1.8,0.7-4.1,2.3-3.3,7.3c0.1,0.5,0.1,0.9,0.2,1.2c-0.3,0.4-0.5,1-0.5,1.6c0.1,1.7,0.6,2.3,1.4,2.7l0,0l0,0l0,0
	c0.3,1.6,0.7,2.3,1,2.8c0.2,0.3,0.3,0.4,0.3,0.8c0,1.8-0.4,2.8-3.6,4c-3.3-2.5-5.2-6.4-5.2-10.5c0-7.3,6-13.3,13.3-13.3
	s13.3,6,13.3,13.3c0,4.2-1.9,8-5.2,10.5c-3.2-1.3-3.6-2.2-3.6-4C29.5,31.1,29.6,31,29.8,30.7z"/>
</svg>
