<?xml version="1.0" encoding="utf-8"?>
<!-- Generator: Adobe Illustrator 21.0.0, SVG Export Plug-In . SVG Version: 6.00 Build 0)  -->
<svg version="1.1" id="Layer_1" xmlns="http://www.w3.org/2000/svg" width="430" height="80" xmlns:xlink="http://www.w3.org/1999/xlink" x="0px" y="0px"
	 viewBox="0 0 430 70" style="enable-background:new 0 0 430 70;" xml:space="preserve">
<style type="text/css">
	.st0{enable-background:new    ;}
	.st1{fill:#222222;}
	.st2{fill:none;stroke:#222222;stroke-width:1.2;stroke-miterlimit:10;}
	.st3{fill:#FFFFFF;}
</style>
<g>
	<g class="st0">
		<path class="st1" d="M19.1557617,37.1650391l3.2773438,8.1796875l3.2773438-8.1796875h1.7143555v10.0244141h-1.3222656v-3.9042969
			l0.1240234-4.2128906l-3.2910156,8.1171875h-1.012207l-3.2841797-8.0966797l0.1308594,4.1923828v3.9042969h-1.3217773V37.1650391
			H19.1557617z"/>
		<path class="st1" d="M31.996582,45.3232422l1.7348633-5.5830078h1.3632812l-2.9951172,8.5986328
			c-0.4633789,1.2392578-1.2001953,1.859375-2.2099609,1.859375l-0.2412109-0.0205078l-0.4750977-0.0898438v-1.0322266
			l0.3442383,0.0273438c0.4316406,0,0.7680664-0.0878906,1.0087891-0.2617188
			c0.2412109-0.1748047,0.4394531-0.4931641,0.5957031-0.9570312l0.2822266-0.7578125l-2.6577148-7.3662109h1.3911133
			L31.996582,45.3232422z"/>
		<path class="st1" d="M44.3203125,47.1894531c-0.0732422-0.1464844-0.1328125-0.4082031-0.1787109-0.7851562
			c-0.5922852,0.6152344-1.2993164,0.9228516-2.1206055,0.9228516c-0.734375,0-1.3369141-0.2080078-1.8076172-0.6230469
			c-0.4702148-0.4150391-0.7055664-0.9423828-0.7055664-1.5800781c0-0.7753906,0.2949219-1.3779297,0.8847656-1.8076172
			c0.5898438-0.4287109,1.4194336-0.6435547,2.4887695-0.6435547h1.2392578v-0.5849609
			c0-0.4453125-0.1328125-0.7998047-0.3989258-1.0644531c-0.2666016-0.2636719-0.6586914-0.3955078-1.1777344-0.3955078
			c-0.4541016,0-0.8354492,0.1152344-1.1425781,0.3447266c-0.3076172,0.2294922-0.4614258,0.5068359-0.4614258,0.8330078h-1.2807617
			c0-0.3720703,0.1318359-0.7314453,0.3959961-1.078125c0.2636719-0.3466797,0.6220703-0.6201172,1.0742188-0.8222656
			c0.4516602-0.2021484,0.9487305-0.3027344,1.4902344-0.3027344c0.8583984,0,1.5307617,0.2138672,2.0175781,0.6435547
			c0.4863281,0.4287109,0.7387695,1.0195312,0.7573242,1.7724609v3.4287109c0,0.6845703,0.0869141,1.2285156,0.2617188,1.6318359
			v0.1103516H44.3203125z M42.206543,46.21875c0.3994141,0,0.7783203-0.1035156,1.1362305-0.3095703
			c0.3579102-0.2070312,0.6171875-0.4755859,0.777832-0.8056641v-1.5283203h-0.9980469
			c-1.5605469,0-2.3408203,0.4560547-2.3408203,1.3701172c0,0.3994141,0.1328125,0.7109375,0.3989258,0.9355469
			C41.4467773,46.1064453,41.7890625,46.21875,42.206543,46.21875z"/>
		<path class="st1" d="M50.3793945,46.2871094c0.4541016,0,0.8510742-0.1376953,1.190918-0.4130859
			s0.527832-0.6191406,0.5644531-1.0322266h1.2050781c-0.0229492,0.4267578-0.1699219,0.8330078-0.4404297,1.21875
			c-0.2709961,0.3857422-0.6323242,0.6933594-1.0844727,0.921875c-0.4521484,0.2294922-0.9306641,0.3447266-1.4355469,0.3447266
			c-1.0146484,0-1.8212891-0.3388672-2.4204102-1.015625c-0.5986328-0.6767578-0.8984375-1.6025391-0.8984375-2.7783203v-0.2128906
			c0-0.7255859,0.1333008-1.3701172,0.3994141-1.9345703c0.2661133-0.5654297,0.6484375-1.0029297,1.1464844-1.3154297
			s1.0864258-0.4677734,1.7661133-0.4677734c0.8349609,0,1.5292969,0.25,2.0825195,0.75s0.8481445,1.1494141,0.8847656,1.9482422
			h-1.2050781c-0.0366211-0.4814453-0.2192383-0.8779297-0.5473633-1.1875s-0.7329102-0.4648438-1.2148438-0.4648438
			c-0.6474609,0-1.1489258,0.2333984-1.5043945,0.6992188c-0.355957,0.4658203-0.5336914,1.1396484-0.5336914,2.0205078v0.2412109
			c0,0.8583984,0.1767578,1.5195312,0.5302734,1.9824219C49.2177734,46.0556641,49.7226562,46.2871094,50.3793945,46.2871094z"/>
		<path class="st1" d="M57.7602539,46.2871094c0.4541016,0,0.8510742-0.1376953,1.190918-0.4130859
			s0.527832-0.6191406,0.5644531-1.0322266h1.2050781c-0.0229492,0.4267578-0.1699219,0.8330078-0.4404297,1.21875
			c-0.2709961,0.3857422-0.6323242,0.6933594-1.0844727,0.921875c-0.4521484,0.2294922-0.9306641,0.3447266-1.4355469,0.3447266
			c-1.0146484,0-1.8212891-0.3388672-2.4204102-1.015625c-0.5986328-0.6767578-0.8984375-1.6025391-0.8984375-2.7783203v-0.2128906
			c0-0.7255859,0.1333008-1.3701172,0.3994141-1.9345703c0.2661133-0.5654297,0.6484375-1.0029297,1.1464844-1.3154297
			s1.0864258-0.4677734,1.7661133-0.4677734c0.8349609,0,1.5292969,0.25,2.0825195,0.75s0.8481445,1.1494141,0.8847656,1.9482422
			H59.515625c-0.0366211-0.4814453-0.2192383-0.8779297-0.5473633-1.1875s-0.7329102-0.4648438-1.2148438-0.4648438
			c-0.6474609,0-1.1489258,0.2333984-1.5043945,0.6992188c-0.355957,0.4658203-0.5336914,1.1396484-0.5336914,2.0205078v0.2412109
			c0,0.8583984,0.1767578,1.5195312,0.5302734,1.9824219C56.5986328,46.0556641,57.1035156,46.2871094,57.7602539,46.2871094z"/>
		<path class="st1" d="M61.8154297,43.3955078c0-0.7294922,0.1435547-1.3857422,0.4301758-1.96875
			c0.2871094-0.5830078,0.6865234-1.0332031,1.1982422-1.3496094s1.0957031-0.4746094,1.7524414-0.4746094
			c1.0141602,0,1.8344727,0.3505859,2.4614258,1.0527344c0.6264648,0.7021484,0.9394531,1.6367188,0.9394531,2.8027344v0.0888672
			c0,0.7255859-0.1386719,1.3759766-0.4165039,1.9521484s-0.6748047,1.0253906-1.190918,1.3457031
			c-0.5166016,0.3222656-1.1098633,0.4824219-1.7797852,0.4824219c-1.0097656,0-1.828125-0.3515625-2.4545898-1.0537109
			s-0.9399414-1.6318359-0.9399414-2.7880859V43.3955078z M63.0961914,43.546875
			c0,0.8261719,0.1914062,1.4902344,0.574707,1.9902344s0.8964844,0.75,1.5390625,0.75
			c0.6469727,0,1.1611328-0.2529297,1.5419922-0.7607422c0.3808594-0.5068359,0.5717773-1.2167969,0.5717773-2.1308594
			c0-0.8164062-0.1943359-1.4785156-0.5820312-1.9863281c-0.3876953-0.5068359-0.902832-0.7607422-1.5454102-0.7607422
			c-0.6289062,0-1.1362305,0.25-1.5219727,0.7509766C63.2890625,41.8994141,63.0961914,42.6152344,63.0961914,43.546875z"/>
		<path class="st1" d="M74.7939453,46.453125c-0.4956055,0.5830078-1.2231445,0.8740234-2.1826172,0.8740234
			c-0.7939453,0-1.3984375-0.2304688-1.8139648-0.6923828c-0.4155273-0.4609375-0.6254883-1.1435547-0.6298828-2.0478516v-4.8466797
			h1.2734375v4.8125c0,1.1289062,0.4589844,1.6933594,1.3769531,1.6933594c0.9731445,0,1.6206055-0.3623047,1.9418945-1.0878906
			v-5.4179688h1.2734375v7.4492188h-1.2114258L74.7939453,46.453125z"/>
		<path class="st1" d="M79.1728516,39.7402344l0.0410156,0.9355469c0.5693359-0.7158203,1.3129883-1.0732422,2.230957-1.0732422
			c1.5742188,0,2.3681641,0.8876953,2.3823242,2.6640625v4.9228516h-1.2739258v-4.9296875
			c-0.0043945-0.5371094-0.1274414-0.9335938-0.3681641-1.1914062c-0.2412109-0.2568359-0.6162109-0.3857422-1.1259766-0.3857422
			c-0.4130859,0-0.7753906,0.1103516-1.0878906,0.3310547c-0.3120117,0.2197266-0.5551758,0.5097656-0.7294922,0.8671875v5.3085938
			h-1.2739258v-7.4492188H79.1728516z"/>
		<path class="st1" d="M87.4760742,37.9355469v1.8046875h1.3911133v0.984375h-1.3911133v4.625
			c0,0.2988281,0.0620117,0.5234375,0.1860352,0.6728516s0.3349609,0.2236328,0.6333008,0.2236328
			c0.1469727,0,0.3491211-0.0273438,0.605957-0.0820312v1.0263672c-0.3349609,0.0908203-0.6606445,0.1367188-0.9775391,0.1367188
			c-0.5693359,0-0.9985352-0.171875-1.2875977-0.5166016c-0.2890625-0.34375-0.4335938-0.8330078-0.4335938-1.4658203v-4.6201172
			h-1.3564453v-0.984375h1.3564453v-1.8046875H87.4760742z"/>
	</g>
	<path class="st1" d="M55.5999985,26c0.7999992-0.7999992,1.2999992-1.8999996,1.2999992-3
		c0-2.2999992-1.9000015-4.2000008-4.2000008-4.2000008S48.4999962,20.6999989,48.4999962,23c0,1.1000004,0.5,2.2000008,1.2999992,3
		c-2.2999992,1.1000004-3.9000015,3.7000008-3.9000015,6.5999985c0,0.2999992,0.2000008,0.5,0.5,0.5h12.4000015
		c0.2999992,0,0.5-0.2000008,0.5-0.5C59.5,29.7000008,57.9000015,27.1000004,55.5999985,26z M54.2999992,25.7000008
		L54.2999992,25.7000008c-0.0999985,0-0.0999985,0-0.0999985,0.1000004l0,0c-0.5,0.2000008-0.9000015,0.2999992-1.4000015,0.2999992
		c-1.7000008,0-3.0999985-1.3999996-3.0999985-3.1000004s1.4000015-3.1000004,3.0999985-3.1000004
		c1.7000008,0,3.0999985,1.3999996,3.0999985,3.1000004C55.7999992,24.1000004,55.2000008,25.1000004,54.2999992,25.7000008z
		 M51,26.7000008c1.0999985,0.5,2.4000015,0.5,3.5999985,0C56.6999969,27.4000015,58.1999969,29.5,58.3999977,32H47.0999985
		C47.2999992,29.6000004,48.9000015,27.3999996,51,26.7000008z"/>
</g>
<g>
	<path class="st2" d="M226.5,62h-81.8000031c-14.8999939,0-27-12.0999985-27-27l0,0c0-14.8999996,12.1000061-27,27-27H226.5
		c14.8999939,0,27,12.1000004,27,27l0,0C253.5,49.9000015,241.3999939,62,226.5,62z"/>
	<path class="st1" d="M188.3999939,26c0.8000031-0.7999992,1.3000031-1.8999996,1.3000031-3
		c0-2.2999992-1.8999939-4.2000008-4.1999969-4.2000008S181.3000031,20.6999989,181.3000031,23
		c0,1.1000004,0.5,2.2000008,1.3000031,3c-2.3000031,1.1000004-3.8999939,3.7000008-3.8999939,6.5999985
		c0,0.2999992,0.1999969,0.5,0.5,0.5h12.3999939c0.3000031,0,0.5-0.2000008,0.5-0.5
		C192.1999969,29.7000008,190.6999969,27.1000004,188.3999939,26z M187,25.7000008L187,25.7000008
		c-0.1000061,0-0.1000061,0-0.1000061,0.1000004l0,0c-0.5,0.2000008-0.8999939,0.2999992-1.3999939,0.2999992
		c-1.6999969,0-3.1000061-1.3999996-3.1000061-3.1000004s1.3999939-3.1000004,3.1000061-3.1000004
		c1.6999969,0,3.1000061,1.3999996,3.1000061,3.1000004C188.6000061,24.1000004,188,25.1000004,187,25.7000008z
		 M183.6999969,26.7000008c1.1000061,0.5,2.3999939,0.5,3.6000061,0C189.4000092,27.4000015,190.9000092,29.5,191.1000061,32
		h-11.1999969C180.1000061,29.6000004,181.6000061,27.3999996,183.6999969,26.7000008z"/>
	<g class="st0">
		<path class="st1" d="M151.918457,37.1650391l3.2773438,8.1796875l3.2773438-8.1796875H160.1875v10.0244141h-1.3222656v-3.9042969
			l0.1240234-4.2128906l-3.2910156,8.1171875h-1.012207l-3.2841797-8.0966797l0.1308594,4.1923828v3.9042969h-1.3217773V37.1650391
			H151.918457z"/>
		<path class="st1" d="M164.7592773,45.3232422l1.7348633-5.5830078h1.3632812l-2.9951172,8.5986328
			c-0.4633789,1.2392578-1.2001953,1.859375-2.2099609,1.859375l-0.2412109-0.0205078l-0.4750977-0.0898438v-1.0322266
			l0.3442383,0.0273438c0.4316406,0,0.7680664-0.0878906,1.0087891-0.2617188
			c0.2412109-0.1748047,0.4394531-0.4931641,0.5957031-0.9570312l0.2822266-0.7578125l-2.6577148-7.3662109h1.3911133
			L164.7592773,45.3232422z"/>
		<path class="st1" d="M177.0830078,47.1894531c-0.0732422-0.1464844-0.1328125-0.4082031-0.1787109-0.7851562
			c-0.5922852,0.6152344-1.2993164,0.9228516-2.1206055,0.9228516c-0.734375,0-1.3369141-0.2080078-1.8076172-0.6230469
			c-0.4702148-0.4150391-0.7055664-0.9423828-0.7055664-1.5800781c0-0.7753906,0.2949219-1.3779297,0.8847656-1.8076172
			c0.5898438-0.4287109,1.4194336-0.6435547,2.4887695-0.6435547h1.2392578v-0.5849609
			c0-0.4453125-0.1328125-0.7998047-0.3989258-1.0644531c-0.2666016-0.2636719-0.6586914-0.3955078-1.1777344-0.3955078
			c-0.4541016,0-0.8354492,0.1152344-1.1425781,0.3447266c-0.3076172,0.2294922-0.4614258,0.5068359-0.4614258,0.8330078h-1.2807617
			c0-0.3720703,0.1318359-0.7314453,0.3959961-1.078125c0.2636719-0.3466797,0.6220703-0.6201172,1.0742188-0.8222656
			c0.4516602-0.2021484,0.9487305-0.3027344,1.4902344-0.3027344c0.8583984,0,1.5307617,0.2138672,2.0175781,0.6435547
			c0.4863281,0.4287109,0.7387695,1.0195312,0.7573242,1.7724609v3.4287109c0,0.6845703,0.0869141,1.2285156,0.2617188,1.6318359
			v0.1103516H177.0830078z M174.9692383,46.21875c0.3994141,0,0.7783203-0.1035156,1.1362305-0.3095703
			c0.3579102-0.2070312,0.6171875-0.4755859,0.777832-0.8056641v-1.5283203h-0.9980469
			c-1.5605469,0-2.3408203,0.4560547-2.3408203,1.3701172c0,0.3994141,0.1328125,0.7109375,0.3989258,0.9355469
			C174.2094727,46.1064453,174.5517578,46.21875,174.9692383,46.21875z"/>
		<path class="st1" d="M183.1420898,46.2871094c0.4541016,0,0.8510742-0.1376953,1.190918-0.4130859
			s0.527832-0.6191406,0.5644531-1.0322266h1.2050781c-0.0229492,0.4267578-0.1699219,0.8330078-0.4404297,1.21875
			c-0.2709961,0.3857422-0.6323242,0.6933594-1.0844727,0.921875c-0.4521484,0.2294922-0.9306641,0.3447266-1.4355469,0.3447266
			c-1.0146484,0-1.8212891-0.3388672-2.4204102-1.015625c-0.5986328-0.6767578-0.8984375-1.6025391-0.8984375-2.7783203v-0.2128906
			c0-0.7255859,0.1333008-1.3701172,0.3994141-1.9345703c0.2661133-0.5654297,0.6484375-1.0029297,1.1464844-1.3154297
			s1.0864258-0.4677734,1.7661133-0.4677734c0.8349609,0,1.5292969,0.25,2.0825195,0.75s0.8481445,1.1494141,0.8847656,1.9482422
			h-1.2050781c-0.0366211-0.4814453-0.2192383-0.8779297-0.5473633-1.1875s-0.7329102-0.4648438-1.2148438-0.4648438
			c-0.6474609,0-1.1489258,0.2333984-1.5043945,0.6992188c-0.355957,0.4658203-0.5336914,1.1396484-0.5336914,2.0205078v0.2412109
			c0,0.8583984,0.1767578,1.5195312,0.5302734,1.9824219C181.9804688,46.0556641,182.4853516,46.2871094,183.1420898,46.2871094z"/>
		<path class="st1" d="M190.5229492,46.2871094c0.4541016,0,0.8510742-0.1376953,1.190918-0.4130859
			s0.527832-0.6191406,0.5644531-1.0322266h1.2050781c-0.0229492,0.4267578-0.1699219,0.8330078-0.4404297,1.21875
			c-0.2709961,0.3857422-0.6323242,0.6933594-1.0844727,0.921875c-0.4521484,0.2294922-0.9306641,0.3447266-1.4355469,0.3447266
			c-1.0146484,0-1.8212891-0.3388672-2.4204102-1.015625c-0.5986328-0.6767578-0.8984375-1.6025391-0.8984375-2.7783203v-0.2128906
			c0-0.7255859,0.1333008-1.3701172,0.3994141-1.9345703c0.2661133-0.5654297,0.6484375-1.0029297,1.1464844-1.3154297
			s1.0864258-0.4677734,1.7661133-0.4677734c0.8349609,0,1.5292969,0.25,2.0825195,0.75s0.8481445,1.1494141,0.8847656,1.9482422
			h-1.2050781c-0.0366211-0.4814453-0.2192383-0.8779297-0.5473633-1.1875s-0.7329102-0.4648438-1.2148438-0.4648438
			c-0.6474609,0-1.1489258,0.2333984-1.5043945,0.6992188c-0.355957,0.4658203-0.5336914,1.1396484-0.5336914,2.0205078v0.2412109
			c0,0.8583984,0.1767578,1.5195312,0.5302734,1.9824219C189.3613281,46.0556641,189.8662109,46.2871094,190.5229492,46.2871094z"/>
		<path class="st1" d="M194.578125,43.3955078c0-0.7294922,0.1435547-1.3857422,0.4301758-1.96875
			c0.2871094-0.5830078,0.6865234-1.0332031,1.1982422-1.3496094s1.0957031-0.4746094,1.7524414-0.4746094
			c1.0141602,0,1.8344727,0.3505859,2.4614258,1.0527344c0.6264648,0.7021484,0.9394531,1.6367188,0.9394531,2.8027344v0.0888672
			c0,0.7255859-0.1386719,1.3759766-0.4165039,1.9521484s-0.6748047,1.0253906-1.190918,1.3457031
			c-0.5166016,0.3222656-1.1098633,0.4824219-1.7797852,0.4824219c-1.0097656,0-1.828125-0.3515625-2.4545898-1.0537109
			s-0.9399414-1.6318359-0.9399414-2.7880859V43.3955078z M195.8588867,43.546875
			c0,0.8261719,0.1914062,1.4902344,0.574707,1.9902344s0.8964844,0.75,1.5390625,0.75
			c0.6469727,0,1.1611328-0.2529297,1.5419922-0.7607422c0.3808594-0.5068359,0.5717773-1.2167969,0.5717773-2.1308594
			c0-0.8164062-0.1943359-1.4785156-0.5820312-1.9863281c-0.3876953-0.5068359-0.902832-0.7607422-1.5454102-0.7607422
			c-0.6289062,0-1.1362305,0.25-1.5219727,0.7509766C196.0517578,41.8994141,195.8588867,42.6152344,195.8588867,43.546875z"/>
		<path class="st1" d="M207.5566406,46.453125c-0.4956055,0.5830078-1.2231445,0.8740234-2.1826172,0.8740234
			c-0.7939453,0-1.3984375-0.2304688-1.8139648-0.6923828c-0.4155273-0.4609375-0.6254883-1.1435547-0.6298828-2.0478516v-4.8466797
			h1.2734375v4.8125c0,1.1289062,0.4589844,1.6933594,1.3769531,1.6933594c0.9731445,0,1.6206055-0.3623047,1.9418945-1.0878906
			v-5.4179688h1.2734375v7.4492188h-1.2114258L207.5566406,46.453125z"/>
		<path class="st1" d="M211.9355469,39.7402344l0.0410156,0.9355469c0.5693359-0.7158203,1.3129883-1.0732422,2.230957-1.0732422
			c1.5742188,0,2.3686523,0.8876953,2.3823242,2.6640625v4.9228516h-1.2739258v-4.9296875
			c-0.0043945-0.5371094-0.1274414-0.9335938-0.3681641-1.1914062c-0.2412109-0.2568359-0.6162109-0.3857422-1.1259766-0.3857422
			c-0.4130859,0-0.7753906,0.1103516-1.0878906,0.3310547c-0.3120117,0.2197266-0.5551758,0.5097656-0.7294922,0.8671875v5.3085938
			h-1.2739258v-7.4492188H211.9355469z"/>
		<path class="st1" d="M220.2392578,37.9355469v1.8046875h1.390625v0.984375h-1.390625v4.625
			c0,0.2988281,0.0615234,0.5234375,0.1855469,0.6728516s0.3349609,0.2236328,0.6337891,0.2236328
			c0.1464844,0,0.3486328-0.0273438,0.6054688-0.0820312v1.0263672c-0.3349609,0.0908203-0.6601562,0.1367188-0.9775391,0.1367188
			c-0.5693359,0-0.9980469-0.171875-1.2871094-0.5166016c-0.2890625-0.34375-0.4335938-0.8330078-0.4335938-1.4658203v-4.6201172
			h-1.3564453v-0.984375h1.3564453v-1.8046875H220.2392578z"/>
	</g>
</g>
<g>
	<rect x="282.2000122" y="7.9000001" class="st1" width="135.7999878" height="54"/>
	<g class="st0">
		<path class="st3" d="M316.5058594,37.4755859l3.2773438,8.1796875l3.2773438-8.1796875h1.7148438V47.5h-1.3222656v-3.9042969
			l0.1240234-4.2128906L320.2861328,47.5h-1.0126953l-3.2841797-8.0966797l0.1308594,4.1923828V47.5h-1.3212891V37.4755859
			H316.5058594z"/>
		<path class="st3" d="M329.3466797,45.6337891l1.7353516-5.5830078h1.3632812l-2.9951172,8.5986328
			c-0.4638672,1.2392578-1.2001953,1.859375-2.2099609,1.859375l-0.2412109-0.0205078l-0.4755859-0.0898438v-1.0322266
			l0.3447266,0.0273438c0.4316406,0,0.7675781-0.0878906,1.0087891-0.2617188
			c0.2412109-0.1748047,0.4394531-0.4931641,0.5957031-0.9570312l0.2822266-0.7578125l-2.6582031-7.3662109h1.3916016
			L329.3466797,45.6337891z"/>
		<path class="st3" d="M341.6708984,47.5c-0.0732422-0.1464844-0.1328125-0.4082031-0.1787109-0.7851562
			c-0.5927734,0.6152344-1.2998047,0.9228516-2.1210938,0.9228516c-0.734375,0-1.3369141-0.2080078-1.8076172-0.6230469
			c-0.4697266-0.4150391-0.7050781-0.9423828-0.7050781-1.5800781c0-0.7753906,0.2949219-1.3779297,0.8847656-1.8076172
			c0.5898438-0.4287109,1.4189453-0.6435547,2.4882812-0.6435547h1.2392578v-0.5849609
			c0-0.4453125-0.1328125-0.7998047-0.3984375-1.0644531c-0.2666016-0.2636719-0.6591797-0.3955078-1.1777344-0.3955078
			c-0.4541016,0-0.8359375,0.1152344-1.1425781,0.3447266c-0.3076172,0.2294922-0.4619141,0.5068359-0.4619141,0.8330078h-1.2802734
			c0-0.3720703,0.1318359-0.7314453,0.3955078-1.078125s0.6220703-0.6201172,1.0742188-0.8222656
			s0.9492188-0.3027344,1.4902344-0.3027344c0.8583984,0,1.53125,0.2138672,2.0175781,0.6435547
			c0.4863281,0.4287109,0.7392578,1.0195312,0.7578125,1.7724609v3.4287109c0,0.6845703,0.0869141,1.2285156,0.2617188,1.6318359
			V47.5H341.6708984z M339.5566406,46.5292969c0.3994141,0,0.7783203-0.1035156,1.1367188-0.3095703
			c0.3574219-0.2070312,0.6171875-0.4755859,0.7773438-0.8056641v-1.5283203h-0.9980469
			c-1.5605469,0-2.3408203,0.4560547-2.3408203,1.3701172c0,0.3994141,0.1328125,0.7109375,0.3994141,0.9355469
			C338.796875,46.4169922,339.1396484,46.5292969,339.5566406,46.5292969z"/>
		<path class="st3" d="M347.7294922,46.5976562c0.4541016,0,0.8515625-0.1376953,1.1914062-0.4130859
			s0.5273438-0.6191406,0.5644531-1.0322266h1.2050781c-0.0234375,0.4267578-0.1699219,0.8330078-0.4404297,1.21875
			c-0.2714844,0.3857422-0.6328125,0.6933594-1.0849609,0.921875c-0.4521484,0.2294922-0.9306641,0.3447266-1.4355469,0.3447266
			c-1.0146484,0-1.8212891-0.3388672-2.4199219-1.015625s-0.8984375-1.6025391-0.8984375-2.7783203v-0.2128906
			c0-0.7255859,0.1328125-1.3701172,0.3994141-1.9345703c0.265625-0.5654297,0.6484375-1.0029297,1.1464844-1.3154297
			s1.0859375-0.4677734,1.765625-0.4677734c0.8349609,0,1.5292969,0.25,2.0830078,0.75
			c0.5527344,0.5,0.8476562,1.1494141,0.8847656,1.9482422h-1.2050781c-0.0371094-0.4814453-0.2197266-0.8779297-0.5478516-1.1875
			s-0.7324219-0.4648438-1.2148438-0.4648438c-0.6474609,0-1.1484375,0.2333984-1.5039062,0.6992188
			c-0.3564453,0.4658203-0.5341797,1.1396484-0.5341797,2.0205078v0.2412109c0,0.8583984,0.1767578,1.5195312,0.5302734,1.9824219
			C346.5683594,46.3662109,347.0732422,46.5976562,347.7294922,46.5976562z"/>
		<path class="st3" d="M355.1103516,46.5976562c0.4541016,0,0.8515625-0.1376953,1.1914062-0.4130859
			s0.5273438-0.6191406,0.5644531-1.0322266h1.2050781c-0.0234375,0.4267578-0.1699219,0.8330078-0.4404297,1.21875
			c-0.2714844,0.3857422-0.6328125,0.6933594-1.0849609,0.921875c-0.4521484,0.2294922-0.9306641,0.3447266-1.4355469,0.3447266
			c-1.0146484,0-1.8212891-0.3388672-2.4199219-1.015625s-0.8984375-1.6025391-0.8984375-2.7783203v-0.2128906
			c0-0.7255859,0.1328125-1.3701172,0.3994141-1.9345703c0.265625-0.5654297,0.6484375-1.0029297,1.1464844-1.3154297
			s1.0859375-0.4677734,1.765625-0.4677734c0.8349609,0,1.5292969,0.25,2.0830078,0.75
			c0.5527344,0.5,0.8476562,1.1494141,0.8847656,1.9482422h-1.2050781c-0.0371094-0.4814453-0.2197266-0.8779297-0.5478516-1.1875
			s-0.7324219-0.4648438-1.2148438-0.4648438c-0.6474609,0-1.1484375,0.2333984-1.5039062,0.6992188
			c-0.3564453,0.4658203-0.5341797,1.1396484-0.5341797,2.0205078v0.2412109c0,0.8583984,0.1767578,1.5195312,0.5302734,1.9824219
			C353.9492188,46.3662109,354.4541016,46.5976562,355.1103516,46.5976562z"/>
		<path class="st3" d="M359.1660156,43.7060547c0-0.7294922,0.1435547-1.3857422,0.4296875-1.96875
			c0.2871094-0.5830078,0.6865234-1.0332031,1.1982422-1.3496094s1.0957031-0.4746094,1.7529297-0.4746094
			c1.0136719,0,1.8339844,0.3505859,2.4609375,1.0527344s0.9394531,1.6367188,0.9394531,2.8027344v0.0888672
			c0,0.7255859-0.1386719,1.3759766-0.4160156,1.9521484c-0.2783203,0.5761719-0.6748047,1.0253906-1.1914062,1.3457031
			c-0.5166016,0.3222656-1.109375,0.4824219-1.7792969,0.4824219c-1.0097656,0-1.828125-0.3515625-2.4550781-1.0537109
			c-0.6259766-0.7021484-0.9394531-1.6318359-0.9394531-2.7880859V43.7060547z M360.4462891,43.8574219
			c0,0.8261719,0.1914062,1.4902344,0.5751953,1.9902344c0.3828125,0.5,0.8964844,0.75,1.5390625,0.75
			c0.6464844,0,1.1611328-0.2529297,1.5419922-0.7607422c0.3808594-0.5068359,0.5712891-1.2167969,0.5712891-2.1308594
			c0-0.8164062-0.1943359-1.4785156-0.5820312-1.9863281c-0.3876953-0.5068359-0.9023438-0.7607422-1.5449219-0.7607422
			c-0.6289062,0-1.1367188,0.25-1.5224609,0.7509766C360.6396484,42.2099609,360.4462891,42.9257812,360.4462891,43.8574219z"/>
		<path class="st3" d="M372.1445312,46.7636719c-0.4960938,0.5830078-1.2236328,0.8740234-2.1826172,0.8740234
			c-0.7939453,0-1.3984375-0.2304688-1.8144531-0.6923828c-0.4150391-0.4609375-0.625-1.1435547-0.6298828-2.0478516v-4.8466797
			h1.2734375v4.8125c0,1.1289062,0.4589844,1.6933594,1.3769531,1.6933594c0.9736328,0,1.6210938-0.3623047,1.9423828-1.0878906
			v-5.4179688h1.2734375V47.5h-1.2119141L372.1445312,46.7636719z"/>
		<path class="st3" d="M376.5234375,40.0507812l0.0410156,0.9355469c0.5693359-0.7158203,1.3125-1.0732422,2.2304688-1.0732422
			c1.5742188,0,2.3681641,0.8876953,2.3828125,2.6640625V47.5h-1.2744141v-4.9296875
			c-0.0039062-0.5371094-0.1269531-0.9335938-0.3681641-1.1914062c-0.2412109-0.2568359-0.6162109-0.3857422-1.1259766-0.3857422
			c-0.4130859,0-0.7753906,0.1103516-1.0878906,0.3310547c-0.3115234,0.2197266-0.5546875,0.5097656-0.7294922,0.8671875V47.5
			h-1.2734375v-7.4492188H376.5234375z"/>
		<path class="st3" d="M384.8261719,38.2460938v1.8046875h1.3916016v0.984375h-1.3916016v4.625
			c0,0.2988281,0.0625,0.5234375,0.1865234,0.6728516s0.3349609,0.2236328,0.6328125,0.2236328
			c0.1474609,0,0.3496094-0.0273438,0.6064453-0.0820312v1.0263672c-0.3349609,0.0908203-0.6611328,0.1367188-0.9775391,0.1367188
			c-0.5693359,0-0.9990234-0.171875-1.2880859-0.5166016c-0.2890625-0.34375-0.4335938-0.8330078-0.4335938-1.4658203v-4.6201172
			h-1.3564453v-0.984375h1.3564453v-1.8046875H384.8261719z"/>
	</g>
	<path class="st3" d="M352.8999939,25.5c0.7999878-0.7999992,1.2999878-1.8999996,1.2999878-3
		c0-2.2999992-1.8999939-4.2000008-4.2000122-4.2000008c-2.2999878,0-4.2000122,1.8999996-4.2000122,4.2000008
		c0,1.1000004,0.5,2.2000008,1.2999878,3c-2.2999878,1.1000004-3.8999939,3.7000008-3.8999939,6.5999985
		c0,0.2999992,0.2000122,0.5,0.5,0.5h12.3999939c0.2999878,0,0.5-0.2000008,0.5-0.5
		C356.7999878,29.2000008,355.2999878,26.6000004,352.8999939,25.5z M350.1000061,19.3999996
		c1.7000122,0,3.1000061,1.3999996,3.1000061,3.1000004c0,1.1000004-0.6000061,2.1000004-1.5,2.7000008l0,0h-0.1000061l0,0
		c-0.5,0.2000008-0.8999939,0.2999992-1.3999939,0.2999992c-1.7000122,0-3.1000061-1.3999996-3.1000061-3.1000004
		S348.3999939,19.3999996,350.1000061,19.3999996z M348.2999878,26.2000008c1.1000061,0.5,2.3999939,0.5,3.6000061,0
		C354,26.9000015,355.5,29,355.6999817,31.5h-11.2000122C344.7000122,29.1000004,346.2000122,26.8999996,348.2999878,26.2000008z"/>
</g>
</svg>
