<?xml version="1.0" encoding="utf-8"?>
<!-- Generator: Adobe Illustrator 21.0.0, SVG Export Plug-In . SVG Version: 6.00 Build 0)  -->
<svg version="1.1" id="Layer_1" xmlns="http://www.w3.org/2000/svg" width="430" height="80" xmlns:xlink="http://www.w3.org/1999/xlink" x="0px" y="0px"
	 viewBox="0 0 430 70" style="enable-background:new 0 0 430 70;" xml:space="preserve">
<style type="text/css">
	.st0{enable-background:new    ;}
	.st1{fill:#222222;}
	.st2{fill:#FFFFFF;}
</style>
<g>
	<g class="st0">
		<path class="st1" d="M13.8,30.3l3.3,8.2l3.3-8.2H22v10h-1.3v-3.9l0.1-4.2l-3.3,8.1h-1l-3.3-8.1l0.1,4.2v3.9h-1.3v-10H13.8z"/>
		<path class="st1" d="M26.6,38.4l1.7-5.6h1.4l-3,8.6c-0.5,1.2-1.2,1.9-2.2,1.9l-0.2,0l-0.5-0.1v-1l0.3,0c0.4,0,0.8-0.1,1-0.3
			c0.2-0.2,0.4-0.5,0.6-1l0.3-0.8l-2.7-7.4h1.4L26.6,38.4z"/>
		<path class="st1" d="M38.9,40.3c-0.1-0.1-0.1-0.4-0.2-0.8c-0.6,0.6-1.3,0.9-2.1,0.9c-0.7,0-1.3-0.2-1.8-0.6
			c-0.5-0.4-0.7-0.9-0.7-1.6c0-0.8,0.3-1.4,0.9-1.8c0.6-0.4,1.4-0.6,2.5-0.6h1.2v-0.6c0-0.4-0.1-0.8-0.4-1.1
			c-0.3-0.3-0.7-0.4-1.2-0.4c-0.5,0-0.8,0.1-1.1,0.3c-0.3,0.2-0.5,0.5-0.5,0.8h-1.3c0-0.4,0.1-0.7,0.4-1.1c0.3-0.3,0.6-0.6,1.1-0.8
			c0.5-0.2,0.9-0.3,1.5-0.3c0.9,0,1.5,0.2,2,0.6c0.5,0.4,0.7,1,0.8,1.8v3.4c0,0.7,0.1,1.2,0.3,1.6v0.1H38.9z M36.8,39.3
			c0.4,0,0.8-0.1,1.1-0.3c0.4-0.2,0.6-0.5,0.8-0.8v-1.5h-1c-1.6,0-2.3,0.5-2.3,1.4c0,0.4,0.1,0.7,0.4,0.9
			C36.1,39.2,36.4,39.3,36.8,39.3z"/>
		<path class="st1" d="M45,39.4c0.5,0,0.9-0.1,1.2-0.4s0.5-0.6,0.6-1H48c0,0.4-0.2,0.8-0.4,1.2c-0.3,0.4-0.6,0.7-1.1,0.9
			c-0.5,0.2-0.9,0.3-1.4,0.3c-1,0-1.8-0.3-2.4-1c-0.6-0.7-0.9-1.6-0.9-2.8v-0.2c0-0.7,0.1-1.4,0.4-1.9c0.3-0.6,0.6-1,1.1-1.3
			s1.1-0.5,1.8-0.5c0.8,0,1.5,0.2,2.1,0.8s0.8,1.1,0.9,1.9h-1.2c0-0.5-0.2-0.9-0.5-1.2s-0.7-0.5-1.2-0.5c-0.6,0-1.1,0.2-1.5,0.7
			c-0.4,0.5-0.5,1.1-0.5,2v0.2c0,0.9,0.2,1.5,0.5,2C43.8,39.2,44.3,39.4,45,39.4z"/>
		<path class="st1" d="M52.4,39.4c0.5,0,0.9-0.1,1.2-0.4s0.5-0.6,0.6-1h1.2c0,0.4-0.2,0.8-0.4,1.2c-0.3,0.4-0.6,0.7-1.1,0.9
			c-0.5,0.2-0.9,0.3-1.4,0.3c-1,0-1.8-0.3-2.4-1c-0.6-0.7-0.9-1.6-0.9-2.8v-0.2c0-0.7,0.1-1.4,0.4-1.9c0.3-0.6,0.6-1,1.1-1.3
			s1.1-0.5,1.8-0.5c0.8,0,1.5,0.2,2.1,0.8s0.8,1.1,0.9,1.9h-1.2c0-0.5-0.2-0.9-0.5-1.2s-0.7-0.5-1.2-0.5c-0.6,0-1.1,0.2-1.5,0.7
			c-0.4,0.5-0.5,1.1-0.5,2v0.2c0,0.9,0.2,1.5,0.5,2C51.2,39.2,51.7,39.4,52.4,39.4z"/>
		<path class="st1" d="M56.4,36.5c0-0.7,0.1-1.4,0.4-2c0.3-0.6,0.7-1,1.2-1.3s1.1-0.5,1.8-0.5c1,0,1.8,0.4,2.5,1.1
			c0.6,0.7,0.9,1.6,0.9,2.8v0.1c0,0.7-0.1,1.4-0.4,2s-0.7,1-1.2,1.3c-0.5,0.3-1.1,0.5-1.8,0.5c-1,0-1.8-0.4-2.5-1.1
			S56.4,37.7,56.4,36.5L56.4,36.5z M57.7,36.7c0,0.8,0.2,1.5,0.6,2s0.9,0.8,1.5,0.8c0.6,0,1.2-0.3,1.5-0.8c0.4-0.5,0.6-1.2,0.6-2.1
			c0-0.8-0.2-1.5-0.6-2c-0.4-0.5-0.9-0.8-1.5-0.8c-0.6,0-1.1,0.2-1.5,0.8C57.9,35,57.7,35.7,57.7,36.7z"/>
		<path class="st1" d="M69.4,39.6c-0.5,0.6-1.2,0.9-2.2,0.9c-0.8,0-1.4-0.2-1.8-0.7c-0.4-0.5-0.6-1.1-0.6-2v-4.8h1.3v4.8
			c0,1.1,0.5,1.7,1.4,1.7c1,0,1.6-0.4,1.9-1.1v-5.4h1.3v7.4h-1.2L69.4,39.6z"/>
		<path class="st1" d="M73.8,32.8l0,0.9c0.6-0.7,1.3-1.1,2.2-1.1c1.6,0,2.4,0.9,2.4,2.7v4.9h-1.3v-4.9c0-0.5-0.1-0.9-0.4-1.2
			c-0.2-0.3-0.6-0.4-1.1-0.4c-0.4,0-0.8,0.1-1.1,0.3c-0.3,0.2-0.6,0.5-0.7,0.9v5.3h-1.3v-7.4H73.8z"/>
		<path class="st1" d="M82.1,31v1.8h1.4v1h-1.4v4.6c0,0.3,0.1,0.5,0.2,0.7s0.3,0.2,0.6,0.2c0.1,0,0.3,0,0.6-0.1v1
			c-0.3,0.1-0.7,0.1-1,0.1c-0.6,0-1-0.2-1.3-0.5c-0.3-0.3-0.4-0.8-0.4-1.5v-4.6h-1.4v-1h1.4V31H82.1z"/>
	</g>
	<path class="st1" d="M99,35.2c0.8-0.8,1.3-1.9,1.3-3c0-2.3-1.9-4.2-4.2-4.2c-2.3,0-4.2,1.9-4.2,4.2c0,1.1,0.5,2.2,1.3,3
		c-2.3,1.1-3.9,3.7-3.9,6.6c0,0.3,0.2,0.5,0.5,0.5h12.4c0.3,0,0.5-0.2,0.5-0.5C102.8,38.9,101.3,36.3,99,35.2z M97.7,34.8L97.7,34.8
		C97.6,34.8,97.6,34.8,97.7,34.8L97.7,34.8c-0.6,0.3-1,0.4-1.5,0.4c-1.7,0-3.1-1.4-3.1-3.1s1.4-3.1,3.1-3.1s3.1,1.4,3.1,3.1
		C99.2,33.3,98.6,34.3,97.7,34.8z M94.3,35.9c1.1,0.5,2.4,0.5,3.6,0c2.1,0.7,3.6,2.8,3.8,5.3H90.5C90.7,38.7,92.3,36.6,94.3,35.9z"
		/>
</g>
<g>
	<g class="st0">
		<path class="st1" d="M150.4,30.3l3.3,8.2l3.3-8.2h1.7v10h-1.3v-3.9l0.1-4.2l-3.3,8.1h-1l-3.3-8.1l0.1,4.2v3.9h-1.3v-10H150.4z"/>
		<path class="st1" d="M163.2,38.4l1.7-5.6h1.4l-3,8.6c-0.5,1.2-1.2,1.9-2.2,1.9l-0.2,0l-0.5-0.1v-1l0.3,0c0.4,0,0.8-0.1,1-0.3
			c0.2-0.2,0.4-0.5,0.6-1l0.3-0.8l-2.7-7.4h1.4L163.2,38.4z"/>
		<path class="st1" d="M175.6,40.3c-0.1-0.1-0.1-0.4-0.2-0.8c-0.6,0.6-1.3,0.9-2.1,0.9c-0.7,0-1.3-0.2-1.8-0.6
			c-0.5-0.4-0.7-0.9-0.7-1.6c0-0.8,0.3-1.4,0.9-1.8c0.6-0.4,1.4-0.6,2.5-0.6h1.2v-0.6c0-0.4-0.1-0.8-0.4-1.1
			c-0.3-0.3-0.7-0.4-1.2-0.4c-0.5,0-0.8,0.1-1.1,0.3c-0.3,0.2-0.5,0.5-0.5,0.8h-1.3c0-0.4,0.1-0.7,0.4-1.1c0.3-0.3,0.6-0.6,1.1-0.8
			c0.5-0.2,0.9-0.3,1.5-0.3c0.9,0,1.5,0.2,2,0.6c0.5,0.4,0.7,1,0.8,1.8v3.4c0,0.7,0.1,1.2,0.3,1.6v0.1H175.6z M173.5,39.3
			c0.4,0,0.8-0.1,1.1-0.3c0.4-0.2,0.6-0.5,0.8-0.8v-1.5h-1c-1.6,0-2.3,0.5-2.3,1.4c0,0.4,0.1,0.7,0.4,0.9
			C172.7,39.2,173,39.3,173.5,39.3z"/>
		<path class="st1" d="M181.6,39.4c0.5,0,0.9-0.1,1.2-0.4s0.5-0.6,0.6-1h1.2c0,0.4-0.2,0.8-0.4,1.2c-0.3,0.4-0.6,0.7-1.1,0.9
			c-0.5,0.2-0.9,0.3-1.4,0.3c-1,0-1.8-0.3-2.4-1c-0.6-0.7-0.9-1.6-0.9-2.8v-0.2c0-0.7,0.1-1.4,0.4-1.9c0.3-0.6,0.6-1,1.1-1.3
			s1.1-0.5,1.8-0.5c0.8,0,1.5,0.2,2.1,0.8s0.8,1.1,0.9,1.9h-1.2c0-0.5-0.2-0.9-0.5-1.2s-0.7-0.5-1.2-0.5c-0.6,0-1.1,0.2-1.5,0.7
			c-0.4,0.5-0.5,1.1-0.5,2v0.2c0,0.9,0.2,1.5,0.5,2C180.5,39.2,181,39.4,181.6,39.4z"/>
		<path class="st1" d="M189,39.4c0.5,0,0.9-0.1,1.2-0.4s0.5-0.6,0.6-1h1.2c0,0.4-0.2,0.8-0.4,1.2c-0.3,0.4-0.6,0.7-1.1,0.9
			c-0.5,0.2-0.9,0.3-1.4,0.3c-1,0-1.8-0.3-2.4-1c-0.6-0.7-0.9-1.6-0.9-2.8v-0.2c0-0.7,0.1-1.4,0.4-1.9c0.3-0.6,0.6-1,1.1-1.3
			s1.1-0.5,1.8-0.5c0.8,0,1.5,0.2,2.1,0.8s0.8,1.1,0.9,1.9h-1.2c0-0.5-0.2-0.9-0.5-1.2s-0.7-0.5-1.2-0.5c-0.6,0-1.1,0.2-1.5,0.7
			c-0.4,0.5-0.5,1.1-0.5,2v0.2c0,0.9,0.2,1.5,0.5,2C187.9,39.2,188.4,39.4,189,39.4z"/>
		<path class="st1" d="M193.1,36.5c0-0.7,0.1-1.4,0.4-2c0.3-0.6,0.7-1,1.2-1.3s1.1-0.5,1.8-0.5c1,0,1.8,0.4,2.5,1.1
			c0.6,0.7,0.9,1.6,0.9,2.8v0.1c0,0.7-0.1,1.4-0.4,2s-0.7,1-1.2,1.3c-0.5,0.3-1.1,0.5-1.8,0.5c-1,0-1.8-0.4-2.5-1.1
			S193.1,37.7,193.1,36.5L193.1,36.5z M194.3,36.7c0,0.8,0.2,1.5,0.6,2s0.9,0.8,1.5,0.8c0.6,0,1.2-0.3,1.5-0.8
			c0.4-0.5,0.6-1.2,0.6-2.1c0-0.8-0.2-1.5-0.6-2c-0.4-0.5-0.9-0.8-1.5-0.8c-0.6,0-1.1,0.2-1.5,0.8C194.5,35,194.3,35.7,194.3,36.7z"
			/>
		<path class="st1" d="M206,39.6c-0.5,0.6-1.2,0.9-2.2,0.9c-0.8,0-1.4-0.2-1.8-0.7c-0.4-0.5-0.6-1.1-0.6-2v-4.8h1.3v4.8
			c0,1.1,0.5,1.7,1.4,1.7c1,0,1.6-0.4,1.9-1.1v-5.4h1.3v7.4h-1.2L206,39.6z"/>
		<path class="st1" d="M210.4,32.8l0,0.9c0.6-0.7,1.3-1.1,2.2-1.1c1.6,0,2.4,0.9,2.4,2.7v4.9h-1.3v-4.9c0-0.5-0.1-0.9-0.4-1.2
			c-0.2-0.3-0.6-0.4-1.1-0.4c-0.4,0-0.8,0.1-1.1,0.3c-0.3,0.2-0.6,0.5-0.7,0.9v5.3h-1.3v-7.4H210.4z"/>
		<path class="st1" d="M218.7,31v1.8h1.4v1h-1.4v4.6c0,0.3,0.1,0.5,0.2,0.7s0.3,0.2,0.6,0.2c0.1,0,0.3,0,0.6-0.1v1
			c-0.3,0.1-0.7,0.1-1,0.1c-0.6,0-1-0.2-1.3-0.5c-0.3-0.3-0.4-0.8-0.4-1.5v-4.6h-1.4v-1h1.4V31H218.7z"/>
	</g>
	<path class="st1" d="M235.2,35.2c0.8-0.8,1.3-1.9,1.3-3c0-2.3-1.9-4.2-4.2-4.2s-4.2,1.9-4.2,4.2c0,1.1,0.5,2.2,1.3,3
		c-2.3,1.1-3.9,3.7-3.9,6.6c0,0.3,0.2,0.5,0.5,0.5h12.4c0.3,0,0.5-0.2,0.5-0.5C239.1,38.9,237.5,36.3,235.2,35.2z M233.9,34.8
		L233.9,34.8c-0.1,0-0.1,0-0.1,0.1l0,0c-0.5,0.2-0.9,0.3-1.4,0.3c-1.7,0-3.1-1.4-3.1-3.1s1.4-3.1,3.1-3.1c1.7,0,3.1,1.4,3.1,3.1
		C235.5,33.3,234.9,34.3,233.9,34.8z M230.6,35.9c1.1,0.5,2.4,0.5,3.6,0c2.1,0.7,3.6,2.8,3.8,5.3h-11.2
		C227,38.7,228.5,36.6,230.6,35.9z"/>
	<path class="st1" d="M246.3,19.6c8.7,0,15.9,6.9,16,15.4c0,8.5-7.2,15.4-16,15.4H144.9c-8.8,0-16-6.9-16-15.4s7.2-15.4,16-15.4
		H246.3 M246.3,18.4H144.9c-9.4,0-17.2,7.4-17.2,16.6c0,9.1,7.7,16.6,17.2,16.6h101.4c9.4,0,17.2-7.4,17.2-16.6
		C263.3,25.8,255.7,18.4,246.3,18.4L246.3,18.4z"/>
</g>
<g>
	<rect x="282.8" y="18.4" class="st1" width="135.8" height="33.2"/>
	<g class="st0">
		<path class="st2" d="M305.2,30.3l3.3,8.2l3.3-8.2h1.7v10h-1.3v-3.9l0.1-4.2l-3.3,8.1h-1l-3.3-8.1l0.1,4.2v3.9h-1.3v-10H305.2z"/>
		<path class="st2" d="M318.1,38.4l1.7-5.6h1.4l-3,8.6c-0.5,1.2-1.2,1.9-2.2,1.9l-0.2,0l-0.5-0.1v-1l0.3,0c0.4,0,0.8-0.1,1-0.3
			c0.2-0.2,0.4-0.5,0.6-1l0.3-0.8l-2.7-7.4h1.4L318.1,38.4z"/>
		<path class="st2" d="M330.4,40.3c-0.1-0.1-0.1-0.4-0.2-0.8c-0.6,0.6-1.3,0.9-2.1,0.9c-0.7,0-1.3-0.2-1.8-0.6
			c-0.5-0.4-0.7-0.9-0.7-1.6c0-0.8,0.3-1.4,0.9-1.8c0.6-0.4,1.4-0.6,2.5-0.6h1.2v-0.6c0-0.4-0.1-0.8-0.4-1.1
			c-0.3-0.3-0.7-0.4-1.2-0.4c-0.5,0-0.8,0.1-1.1,0.3c-0.3,0.2-0.5,0.5-0.5,0.8h-1.3c0-0.4,0.1-0.7,0.4-1.1s0.6-0.6,1.1-0.8
			s0.9-0.3,1.5-0.3c0.9,0,1.5,0.2,2,0.6c0.5,0.4,0.7,1,0.8,1.8v3.4c0,0.7,0.1,1.2,0.3,1.6v0.1H330.4z M328.3,39.3
			c0.4,0,0.8-0.1,1.1-0.3c0.4-0.2,0.6-0.5,0.8-0.8v-1.5h-1c-1.6,0-2.3,0.5-2.3,1.4c0,0.4,0.1,0.7,0.4,0.9
			C327.5,39.2,327.9,39.3,328.3,39.3z"/>
		<path class="st2" d="M336.5,39.4c0.5,0,0.9-0.1,1.2-0.4s0.5-0.6,0.6-1h1.2c0,0.4-0.2,0.8-0.4,1.2c-0.3,0.4-0.6,0.7-1.1,0.9
			c-0.5,0.2-0.9,0.3-1.4,0.3c-1,0-1.8-0.3-2.4-1s-0.9-1.6-0.9-2.8v-0.2c0-0.7,0.1-1.4,0.4-1.9c0.3-0.6,0.6-1,1.1-1.3
			s1.1-0.5,1.8-0.5c0.8,0,1.5,0.2,2.1,0.8c0.6,0.5,0.8,1.1,0.9,1.9h-1.2c0-0.5-0.2-0.9-0.5-1.2s-0.7-0.5-1.2-0.5
			c-0.6,0-1.1,0.2-1.5,0.7c-0.4,0.5-0.5,1.1-0.5,2v0.2c0,0.9,0.2,1.5,0.5,2C335.3,39.2,335.8,39.4,336.5,39.4z"/>
		<path class="st2" d="M343.9,39.4c0.5,0,0.9-0.1,1.2-0.4s0.5-0.6,0.6-1h1.2c0,0.4-0.2,0.8-0.4,1.2c-0.3,0.4-0.6,0.7-1.1,0.9
			c-0.5,0.2-0.9,0.3-1.4,0.3c-1,0-1.8-0.3-2.4-1s-0.9-1.6-0.9-2.8v-0.2c0-0.7,0.1-1.4,0.4-1.9c0.3-0.6,0.6-1,1.1-1.3
			s1.1-0.5,1.8-0.5c0.8,0,1.5,0.2,2.1,0.8c0.6,0.5,0.8,1.1,0.9,1.9h-1.2c0-0.5-0.2-0.9-0.5-1.2s-0.7-0.5-1.2-0.5
			c-0.6,0-1.1,0.2-1.5,0.7c-0.4,0.5-0.5,1.1-0.5,2v0.2c0,0.9,0.2,1.5,0.5,2C342.7,39.2,343.2,39.4,343.9,39.4z"/>
		<path class="st2" d="M347.9,36.5c0-0.7,0.1-1.4,0.4-2c0.3-0.6,0.7-1,1.2-1.3s1.1-0.5,1.8-0.5c1,0,1.8,0.4,2.5,1.1s0.9,1.6,0.9,2.8
			v0.1c0,0.7-0.1,1.4-0.4,2c-0.3,0.6-0.7,1-1.2,1.3c-0.5,0.3-1.1,0.5-1.8,0.5c-1,0-1.8-0.4-2.5-1.1
			C348.2,38.7,347.9,37.7,347.9,36.5L347.9,36.5z M349.2,36.7c0,0.8,0.2,1.5,0.6,2c0.4,0.5,0.9,0.8,1.5,0.8c0.6,0,1.2-0.3,1.5-0.8
			c0.4-0.5,0.6-1.2,0.6-2.1c0-0.8-0.2-1.5-0.6-2c-0.4-0.5-0.9-0.8-1.5-0.8c-0.6,0-1.1,0.2-1.5,0.8C349.4,35,349.2,35.7,349.2,36.7z"
			/>
		<path class="st2" d="M360.9,39.6c-0.5,0.6-1.2,0.9-2.2,0.9c-0.8,0-1.4-0.2-1.8-0.7c-0.4-0.5-0.6-1.1-0.6-2v-4.8h1.3v4.8
			c0,1.1,0.5,1.7,1.4,1.7c1,0,1.6-0.4,1.9-1.1v-5.4h1.3v7.4h-1.2L360.9,39.6z"/>
		<path class="st2" d="M365.3,32.8l0,0.9c0.6-0.7,1.3-1.1,2.2-1.1c1.6,0,2.4,0.9,2.4,2.7v4.9h-1.3v-4.9c0-0.5-0.1-0.9-0.4-1.2
			c-0.2-0.3-0.6-0.4-1.1-0.4c-0.4,0-0.8,0.1-1.1,0.3c-0.3,0.2-0.6,0.5-0.7,0.9v5.3h-1.3v-7.4H365.3z"/>
		<path class="st2" d="M373.6,31v1.8h1.4v1h-1.4v4.6c0,0.3,0.1,0.5,0.2,0.7s0.3,0.2,0.6,0.2c0.1,0,0.3,0,0.6-0.1v1
			c-0.3,0.1-0.7,0.1-1,0.1c-0.6,0-1-0.2-1.3-0.5c-0.3-0.3-0.4-0.8-0.4-1.5v-4.6h-1.4v-1h1.4V31H373.6z"/>
	</g>
	<path class="st2" d="M390.7,35.2c0.8-0.8,1.3-1.9,1.3-3c0-2.3-1.9-4.2-4.2-4.2c-2.3,0-4.2,1.9-4.2,4.2c0,1.1,0.5,2.2,1.3,3
		c-2.3,1.1-3.9,3.7-3.9,6.6c0,0.3,0.2,0.5,0.5,0.5h12.4c0.3,0,0.5-0.2,0.5-0.5C394.6,38.9,393,36.3,390.7,35.2z M389.4,34.8
		L389.4,34.8c-0.1,0-0.1,0-0.1,0.1l0,0c-0.5,0.2-0.9,0.3-1.4,0.3c-1.7,0-3.1-1.4-3.1-3.1s1.4-3.1,3.1-3.1s3.1,1.4,3.1,3.1
		C391,33.3,390.4,34.3,389.4,34.8z M386.1,35.9c1.1,0.5,2.4,0.5,3.6,0c2.1,0.7,3.6,2.8,3.8,5.3h-11.2
		C382.5,38.7,384,36.6,386.1,35.9z"/>
</g>
</svg>
