<?xml version="1.0" encoding="utf-8"?>
<!-- Generator: Adobe Illustrator 21.0.0, SVG Export Plug-In . SVG Version: 6.00 Build 0)  -->
<svg version="1.1" id="Layer_1" xmlns="http://www.w3.org/2000/svg" width="430" height="80" xmlns:xlink="http://www.w3.org/1999/xlink" x="0px" y="0px"
	 viewBox="0 0 430 70" style="enable-background:new 0 0 430 70;" xml:space="preserve">
<style type="text/css">
	.st0{enable-background:new    ;}
	.st1{fill:#222222;}
	.st2{fill:#FFFFFF;}
</style>
<g>
	<g class="st0">
		<path class="st1" d="M36.8950195,30.2709961l3.2773438,8.1801758l3.2773438-8.1801758h1.7143555v10.0249023h-1.3222656v-3.9042969
			l0.1240234-4.2133789l-3.2910156,8.1176758h-1.012207l-3.2841797-8.097168l0.1308594,4.1928711v3.9042969H35.1875V30.2709961
			H36.8950195z"/>
		<path class="st1" d="M49.7358398,38.4296875l1.7348633-5.5834961h1.3632812l-2.9951172,8.5991211
			c-0.4633789,1.2392578-1.2001953,1.859375-2.2099609,1.859375l-0.2412109-0.0205078l-0.4750977-0.0898438v-1.0322266
			l0.3442383,0.0273438c0.4316406,0,0.7680664-0.0878906,1.0087891-0.2617188
			c0.2412109-0.1748047,0.4394531-0.4931641,0.5957031-0.9570312l0.2822266-0.7578125l-2.6577148-7.3666992h1.3911133
			L49.7358398,38.4296875z"/>
		<path class="st1" d="M62.0595703,40.2958984c-0.0732422-0.1464844-0.1328125-0.4082031-0.1787109-0.7851562
			c-0.5922852,0.6152344-1.2993164,0.9228516-2.1206055,0.9228516c-0.734375,0-1.3369141-0.2080078-1.8076172-0.6230469
			c-0.4702148-0.4150391-0.7055664-0.9423828-0.7055664-1.5800781c0-0.7753906,0.2949219-1.3779297,0.8847656-1.8076172
			c0.5898438-0.4291992,1.4194336-0.644043,2.4887695-0.644043h1.2392578v-0.5849609
			c0-0.4453125-0.1328125-0.7998047-0.3989258-1.0644531c-0.2666016-0.2636719-0.6586914-0.3955078-1.1777344-0.3955078
			c-0.4541016,0-0.8354492,0.1152344-1.1425781,0.3447266c-0.3076172,0.2294922-0.4614258,0.5068359-0.4614258,0.8330078h-1.2807617
			c0-0.3720703,0.1318359-0.7314453,0.3959961-1.078125c0.2636719-0.3466797,0.6220703-0.6201172,1.0742188-0.8222656
			c0.4516602-0.2021484,0.9487305-0.3027344,1.4902344-0.3027344c0.8583984,0,1.5307617,0.2138672,2.0175781,0.6435547
			c0.4863281,0.4287109,0.7387695,1.0195312,0.7573242,1.7724609v3.4291992c0,0.6845703,0.0869141,1.2285156,0.2617188,1.6318359
			v0.1103516H62.0595703z M59.9458008,39.3251953c0.3994141,0,0.7783203-0.1035156,1.1362305-0.3095703
			c0.3579102-0.2070312,0.6171875-0.4755859,0.777832-0.8056641v-1.5283203h-0.9980469
			c-1.5605469,0-2.3408203,0.4560547-2.3408203,1.3701172c0,0.3994141,0.1328125,0.7109375,0.3989258,0.9355469
			C59.1860352,39.2128906,59.5283203,39.3251953,59.9458008,39.3251953z"/>
		<path class="st1" d="M68.1186523,39.3935547c0.4541016,0,0.8510742-0.1376953,1.190918-0.4130859
			s0.527832-0.6191406,0.5644531-1.0322266h1.2050781c-0.0229492,0.4267578-0.1699219,0.8330078-0.4404297,1.21875
			c-0.2709961,0.3857422-0.6323242,0.6933594-1.0844727,0.921875c-0.4521484,0.2294922-0.9306641,0.3447266-1.4355469,0.3447266
			c-1.0146484,0-1.8212891-0.3388672-2.4204102-1.015625c-0.5986328-0.6767578-0.8984375-1.6025391-0.8984375-2.7783203v-0.2128906
			c0-0.7260742,0.1333008-1.3706055,0.3994141-1.9350586c0.2661133-0.5654297,0.6484375-1.0029297,1.1464844-1.3154297
			s1.0864258-0.4677734,1.7661133-0.4677734c0.8349609,0,1.5292969,0.25,2.0825195,0.75s0.8481445,1.1494141,0.8847656,1.9482422
			h-1.2050781c-0.0366211-0.4814453-0.2192383-0.8779297-0.5473633-1.1875s-0.7329102-0.4648438-1.2148438-0.4648438
			c-0.6474609,0-1.1489258,0.2333984-1.5043945,0.6992188c-0.355957,0.4658203-0.5336914,1.1396484-0.5336914,2.0209961v0.2412109
			c0,0.8583984,0.1767578,1.5195312,0.5302734,1.9824219C66.9570312,39.1621094,67.4619141,39.3935547,68.1186523,39.3935547z"/>
		<path class="st1" d="M75.4995117,39.3935547c0.4541016,0,0.8510742-0.1376953,1.190918-0.4130859
			s0.527832-0.6191406,0.5644531-1.0322266h1.2050781c-0.0229492,0.4267578-0.1699219,0.8330078-0.4404297,1.21875
			c-0.2709961,0.3857422-0.6323242,0.6933594-1.0844727,0.921875c-0.4521484,0.2294922-0.9306641,0.3447266-1.4355469,0.3447266
			c-1.0146484,0-1.8212891-0.3388672-2.4204102-1.015625c-0.5986328-0.6767578-0.8984375-1.6025391-0.8984375-2.7783203v-0.2128906
			c0-0.7260742,0.1333008-1.3706055,0.3994141-1.9350586c0.2661133-0.5654297,0.6484375-1.0029297,1.1464844-1.3154297
			s1.0864258-0.4677734,1.7661133-0.4677734c0.8349609,0,1.5292969,0.25,2.0825195,0.75s0.8481445,1.1494141,0.8847656,1.9482422
			h-1.2050781c-0.0366211-0.4814453-0.2192383-0.8779297-0.5473633-1.1875s-0.7329102-0.4648438-1.2148438-0.4648438
			c-0.6474609,0-1.1489258,0.2333984-1.5043945,0.6992188c-0.355957,0.4658203-0.5336914,1.1396484-0.5336914,2.0209961v0.2412109
			c0,0.8583984,0.1767578,1.5195312,0.5302734,1.9824219C74.3378906,39.1621094,74.8427734,39.3935547,75.4995117,39.3935547z"/>
		<path class="st1" d="M79.5546875,36.5019531c0-0.7299805,0.1435547-1.3862305,0.4301758-1.9692383
			c0.2871094-0.5830078,0.6865234-1.0332031,1.1982422-1.3496094s1.0957031-0.4746094,1.7524414-0.4746094
			c1.0141602,0,1.8344727,0.3505859,2.4614258,1.0527344c0.6264648,0.7021484,0.9394531,1.6367188,0.9394531,2.8032227v0.0888672
			c0,0.7255859-0.1386719,1.3759766-0.4165039,1.9521484s-0.6748047,1.0253906-1.190918,1.3457031
			c-0.5166016,0.3222656-1.1098633,0.4824219-1.7797852,0.4824219c-1.0097656,0-1.828125-0.3515625-2.4545898-1.0537109
			s-0.9399414-1.6318359-0.9399414-2.7880859V36.5019531z M80.8354492,36.6533203
			c0,0.8261719,0.1914062,1.4902344,0.574707,1.9902344s0.8964844,0.75,1.5390625,0.75
			c0.6469727,0,1.1611328-0.2529297,1.5419922-0.7607422c0.3808594-0.5068359,0.5717773-1.2167969,0.5717773-2.1308594
			c0-0.8168945-0.1943359-1.4790039-0.5820312-1.9868164c-0.3876953-0.5068359-0.902832-0.7607422-1.5454102-0.7607422
			c-0.6289062,0-1.1362305,0.25-1.5219727,0.7509766C81.0283203,35.0053711,80.8354492,35.7211914,80.8354492,36.6533203z"/>
		<path class="st1" d="M92.5332031,39.5595703c-0.4956055,0.5830078-1.2231445,0.8740234-2.1826172,0.8740234
			c-0.7939453,0-1.3984375-0.2304688-1.8139648-0.6923828c-0.4155273-0.4609375-0.6254883-1.1435547-0.6298828-2.0478516v-4.847168
			h1.2734375v4.8129883c0,1.1289062,0.4589844,1.6933594,1.3769531,1.6933594c0.9731445,0,1.6206055-0.3623047,1.9418945-1.0878906
			v-5.418457h1.2734375v7.449707h-1.2114258L92.5332031,39.5595703z"/>
		<path class="st1" d="M96.9121094,32.8461914l0.0410156,0.9355469c0.5693359-0.7158203,1.3129883-1.0732422,2.230957-1.0732422
			c1.5742188,0,2.3681641,0.8876953,2.3823242,2.6640625v4.9233398h-1.2739258v-4.9301758
			c-0.0043945-0.5371094-0.1274414-0.9335938-0.3681641-1.1914062c-0.2412109-0.2568359-0.6162109-0.3857422-1.1259766-0.3857422
			c-0.4130859,0-0.7753906,0.1103516-1.0878906,0.3310547c-0.3120117,0.2197266-0.5551758,0.5097656-0.7294922,0.8671875v5.309082
			h-1.2739258v-7.449707H96.9121094z"/>
		<path class="st1" d="M105.215332,31.0415039v1.8046875h1.3911133v0.984375h-1.3911133v4.6254883
			c0,0.2988281,0.0620117,0.5234375,0.1860352,0.6728516s0.3349609,0.2236328,0.6333008,0.2236328
			c0.1469727,0,0.3491211-0.0273438,0.605957-0.0820312v1.0263672c-0.3349609,0.0908203-0.6606445,0.1367188-0.9775391,0.1367188
			c-0.5693359,0-0.9985352-0.171875-1.2875977-0.5166016c-0.2890625-0.34375-0.4335938-0.8330078-0.4335938-1.4658203v-4.6206055
			h-1.3564453v-0.984375h1.3564453v-1.8046875H105.215332z"/>
	</g>
	<path class="st1" d="M24.7000008,35.2000008C25.5,34.4000015,26,33.2999992,26,32.2000008
		C26,29.9000015,24.1000004,28,21.7999992,28s-4.1000004,1.7999992-4.1000004,4.2000008c0,1.0999985,0.5,2.2000008,1.2999992,3
		c-2.2999992,1.0999985-3.8000002,3.7000008-3.8000002,6.5999985c0,0.2999992,0.1999998,0.5999985,0.6000004,0.5999985h12.3000002
		c0.2999992,0,0.6000004-0.2000008,0.6000004-0.5999985C28.6000004,38.9000015,27,36.2999992,24.7000008,35.2000008z
		 M23.3999996,34.9000015C23.2999992,34.9000015,23.2999992,35,23.2999992,35
		C22.8999996,35.2000008,22.5,35.2999992,21.8999996,35.2999992c-1.7000008,0-3-1.4000015-3-3c0-1.7000008,1.3999996-3,3-3
		c1.7000008,0,3,1.3999996,3,3C24.8999996,33.2999992,24.2999992,34.2999992,23.3999996,34.9000015z M20.1000004,35.9000015
		c1.1000004,0.5,2.5,0.5,3.6000004,0c2,0.7000008,3.6000004,2.7999992,3.7999992,5.2999992H16.2999992
		C16.5,38.7000008,18,36.5999985,20.1000004,35.9000015z"/>
</g>
<g>
	<g class="st0">
		<path class="st1" d="M171.2827148,30.2709961l3.2773438,8.1801758l3.2773438-8.1801758h1.7143555v10.0249023h-1.3222656
			v-3.9042969l0.1240234-4.2133789L175.0625,40.2958984h-1.012207l-3.2841797-8.097168l0.1308594,4.1928711v3.9042969h-1.3217773
			V30.2709961H171.2827148z"/>
		<path class="st1" d="M184.1235352,38.4296875l1.7348633-5.5834961h1.3632812l-2.9951172,8.5991211
			c-0.4633789,1.2392578-1.2001953,1.859375-2.2099609,1.859375l-0.2412109-0.0205078l-0.4750977-0.0898438v-1.0322266
			l0.3442383,0.0273438c0.4316406,0,0.7680664-0.0878906,1.0087891-0.2617188
			c0.2412109-0.1748047,0.4394531-0.4931641,0.5957031-0.9570312l0.2822266-0.7578125l-2.6577148-7.3666992h1.3911133
			L184.1235352,38.4296875z"/>
		<path class="st1" d="M196.4472656,40.2958984c-0.0732422-0.1464844-0.1328125-0.4082031-0.1787109-0.7851562
			c-0.5922852,0.6152344-1.2993164,0.9228516-2.1206055,0.9228516c-0.734375,0-1.3369141-0.2080078-1.8076172-0.6230469
			c-0.4702148-0.4150391-0.7055664-0.9423828-0.7055664-1.5800781c0-0.7753906,0.2949219-1.3779297,0.8847656-1.8076172
			c0.5898438-0.4291992,1.4194336-0.644043,2.4887695-0.644043h1.2392578v-0.5849609
			c0-0.4453125-0.1328125-0.7998047-0.3989258-1.0644531c-0.2666016-0.2636719-0.6586914-0.3955078-1.1777344-0.3955078
			c-0.4541016,0-0.8354492,0.1152344-1.1425781,0.3447266c-0.3076172,0.2294922-0.4614258,0.5068359-0.4614258,0.8330078h-1.2807617
			c0-0.3720703,0.1318359-0.7314453,0.3959961-1.078125c0.2636719-0.3466797,0.6220703-0.6201172,1.0742188-0.8222656
			c0.4516602-0.2021484,0.9487305-0.3027344,1.4902344-0.3027344c0.8583984,0,1.5307617,0.2138672,2.0175781,0.6435547
			c0.4863281,0.4287109,0.7387695,1.0195312,0.7573242,1.7724609v3.4291992c0,0.6845703,0.0869141,1.2285156,0.2617188,1.6318359
			v0.1103516H196.4472656z M194.3334961,39.3251953c0.3994141,0,0.7783203-0.1035156,1.1362305-0.3095703
			c0.3579102-0.2070312,0.6171875-0.4755859,0.777832-0.8056641v-1.5283203h-0.9980469
			c-1.5605469,0-2.3408203,0.4560547-2.3408203,1.3701172c0,0.3994141,0.1328125,0.7109375,0.3989258,0.9355469
			C193.5737305,39.2128906,193.9160156,39.3251953,194.3334961,39.3251953z"/>
		<path class="st1" d="M202.5063477,39.3935547c0.4541016,0,0.8510742-0.1376953,1.190918-0.4130859
			s0.527832-0.6191406,0.5644531-1.0322266h1.2050781c-0.0229492,0.4267578-0.1699219,0.8330078-0.4404297,1.21875
			c-0.2709961,0.3857422-0.6323242,0.6933594-1.0844727,0.921875c-0.4521484,0.2294922-0.9306641,0.3447266-1.4355469,0.3447266
			c-1.0146484,0-1.8212891-0.3388672-2.4204102-1.015625c-0.5986328-0.6767578-0.8984375-1.6025391-0.8984375-2.7783203v-0.2128906
			c0-0.7260742,0.1333008-1.3706055,0.3994141-1.9350586c0.2661133-0.5654297,0.6484375-1.0029297,1.1464844-1.3154297
			s1.0864258-0.4677734,1.7661133-0.4677734c0.8349609,0,1.5292969,0.25,2.0825195,0.75s0.8481445,1.1494141,0.8847656,1.9482422
			h-1.2050781c-0.0366211-0.4814453-0.2192383-0.8779297-0.5473633-1.1875s-0.7329102-0.4648438-1.2148438-0.4648438
			c-0.6474609,0-1.1489258,0.2333984-1.5043945,0.6992188c-0.355957,0.4658203-0.5336914,1.1396484-0.5336914,2.0209961v0.2412109
			c0,0.8583984,0.1767578,1.5195312,0.5302734,1.9824219C201.3447266,39.1621094,201.8496094,39.3935547,202.5063477,39.3935547z"/>
		<path class="st1" d="M209.887207,39.3935547c0.4541016,0,0.8510742-0.1376953,1.190918-0.4130859
			s0.527832-0.6191406,0.5644531-1.0322266h1.2050781c-0.0229492,0.4267578-0.1699219,0.8330078-0.4404297,1.21875
			c-0.2709961,0.3857422-0.6323242,0.6933594-1.0844727,0.921875c-0.4521484,0.2294922-0.9306641,0.3447266-1.4355469,0.3447266
			c-1.0146484,0-1.8212891-0.3388672-2.4204102-1.015625c-0.5986328-0.6767578-0.8984375-1.6025391-0.8984375-2.7783203v-0.2128906
			c0-0.7260742,0.1333008-1.3706055,0.3994141-1.9350586c0.2661133-0.5654297,0.6484375-1.0029297,1.1464844-1.3154297
			s1.0864258-0.4677734,1.7661133-0.4677734c0.8349609,0,1.5292969,0.25,2.0825195,0.75s0.8481445,1.1494141,0.8847656,1.9482422
			h-1.2050781c-0.0366211-0.4814453-0.2192383-0.8779297-0.5473633-1.1875s-0.7329102-0.4648438-1.2148438-0.4648438
			c-0.6474609,0-1.1489258,0.2333984-1.5043945,0.6992188c-0.355957,0.4658203-0.5336914,1.1396484-0.5336914,2.0209961v0.2412109
			c0,0.8583984,0.1767578,1.5195312,0.5302734,1.9824219C208.7255859,39.1621094,209.2304688,39.3935547,209.887207,39.3935547z"/>
		<path class="st1" d="M213.9423828,36.5019531c0-0.7299805,0.1435547-1.3862305,0.4301758-1.9692383
			c0.2871094-0.5830078,0.6865234-1.0332031,1.1982422-1.3496094c0.512207-0.3164062,1.0961914-0.4746094,1.7524414-0.4746094
			c1.0146484,0,1.8349609,0.3505859,2.4619141,1.0527344c0.6259766,0.7021484,0.9394531,1.6367188,0.9394531,2.8032227v0.0888672
			c0,0.7255859-0.1386719,1.3759766-0.4169922,1.9521484c-0.2773438,0.5761719-0.6748047,1.0253906-1.1904297,1.3457031
			c-0.5166016,0.3222656-1.1103516,0.4824219-1.7802734,0.4824219c-1.0097656,0-1.828125-0.3515625-2.4545898-1.0537109
			s-0.9399414-1.6318359-0.9399414-2.7880859V36.5019531z M215.2231445,36.6533203
			c0,0.8261719,0.1914062,1.4902344,0.574707,1.9902344c0.3837891,0.5,0.8964844,0.75,1.5390625,0.75
			c0.6474609,0,1.1611328-0.2529297,1.5419922-0.7607422c0.3808594-0.5068359,0.5722656-1.2167969,0.5722656-2.1308594
			c0-0.8168945-0.1943359-1.4790039-0.5820312-1.9868164c-0.3876953-0.5068359-0.9033203-0.7607422-1.5458984-0.7607422
			c-0.6289062,0-1.1357422,0.25-1.5219727,0.7509766C215.4160156,35.0053711,215.2231445,35.7211914,215.2231445,36.6533203z"/>
		<path class="st1" d="M226.9208984,39.5595703c-0.4951172,0.5830078-1.2226562,0.8740234-2.1826172,0.8740234
			c-0.7939453,0-1.3984375-0.2304688-1.8134766-0.6923828c-0.4160156-0.4609375-0.6259766-1.1435547-0.6298828-2.0478516v-4.847168
			h1.2734375v4.8129883c0,1.1289062,0.4589844,1.6933594,1.3769531,1.6933594c0.9726562,0,1.6201172-0.3623047,1.9414062-1.0878906
			v-5.418457h1.2734375v7.449707h-1.2109375L226.9208984,39.5595703z"/>
		<path class="st1" d="M231.2998047,32.8461914l0.0410156,0.9355469c0.5693359-0.7158203,1.3134766-1.0732422,2.2314453-1.0732422
			c1.5742188,0,2.3681641,0.8876953,2.3818359,2.6640625v4.9233398h-1.2734375v-4.9301758
			c-0.0048828-0.5371094-0.1279297-0.9335938-0.3681641-1.1914062c-0.2412109-0.2568359-0.6162109-0.3857422-1.1259766-0.3857422
			c-0.4130859,0-0.7753906,0.1103516-1.0878906,0.3310547c-0.3125,0.2197266-0.5556641,0.5097656-0.7294922,0.8671875v5.309082
			h-1.2744141v-7.449707H231.2998047z"/>
		<path class="st1" d="M239.6035156,31.0415039v1.8046875h1.390625v0.984375h-1.390625v4.6254883
			c0,0.2988281,0.0615234,0.5234375,0.1855469,0.6728516s0.3349609,0.2236328,0.6337891,0.2236328
			c0.1464844,0,0.3486328-0.0273438,0.6054688-0.0820312v1.0263672c-0.3349609,0.0908203-0.6601562,0.1367188-0.9775391,0.1367188
			c-0.5693359,0-0.9980469-0.171875-1.2871094-0.5166016c-0.2890625-0.34375-0.4335938-0.8330078-0.4335938-1.4658203v-4.6206055
			h-1.3564453v-0.984375h1.3564453v-1.8046875H239.6035156z"/>
	</g>
	<path class="st1" d="M160.1000061,35.2000008c0.8000031-0.7999992,1.3000031-1.9000015,1.3000031-3
		c0-2.2999992-1.8999939-4.2000008-4.1999969-4.2000008s-4.1999969,1.8999996-4.1999969,4.2000008
		c0,1.0999985,0.5,2.2000008,1.3000031,3c-2.3000031,1.0999985-3.8000031,3.7000008-3.8000031,6.5999985
		c0,0.2999992,0.1999969,0.5999985,0.6000061,0.5999985h12.3000031c0.3000031,0,0.6000061-0.2000008,0.6000061-0.5999985
		C163.8999939,38.9000015,162.3999939,36.2999992,160.1000061,35.2000008z M158.6999969,34.9000015
		c-0.1000061,0-0.1000061,0.0999985-0.1000061,0.0999985c-0.3999939,0.2000008-0.8000031,0.2999992-1.3999939,0.2999992
		c-1.6999969,0-3-1.4000015-3-3c0-1.7000008,1.3999939-3,3-3c1.6999969,0,3,1.3999996,3,3
		C160.3000031,33.2999992,159.6999969,34.2999992,158.6999969,34.9000015z M155.3999939,35.9000015
		c1.1000061,0.5,2.5,0.5,3.6000061,0c2,0.7000008,3.6000061,2.7999992,3.8000031,5.2999992h-11.1999969
		C151.8999939,38.7000008,153.3999939,36.5999985,155.3999939,35.9000015z"/>
	<path class="st1" d="M246.3000031,19.6000004C255,19.6000004,262.2000122,26.5,262.2999878,35
		c0,8.5-7.1999969,15.4000015-16,15.4000015H144.8999939c-8.8000031,0-16-6.9000015-16-15.4000015
		s7.1999969-15.3999996,16-15.3999996H246.3000031 M246.3000031,18.3999996H144.8999939
		C135.5,18.3999996,127.6999969,25.7999992,127.6999969,35c0,9.0999985,7.6999969,16.5999985,17.1999969,16.5999985h101.3999939
		C255.6999817,51.5999985,263.5,44.1999969,263.5,35C263.2999878,25.7999992,255.6999969,18.3999996,246.3000031,18.3999996
		L246.3000031,18.3999996z"/>
</g>
<g>
	<rect x="282.7999878" y="18.3999996" class="st1" width="135.7999878" height="33.1999969"/>
	<g class="st0">
		<path class="st2" d="M326.4160156,30.2709961l3.2773438,8.1801758l3.2773438-8.1801758h1.7148438v10.0249023h-1.3222656
			v-3.9042969l0.1240234-4.2133789l-3.2910156,8.1176758h-1.0126953l-3.2841797-8.097168l0.1308594,4.1928711v3.9042969h-1.3212891
			V30.2709961H326.4160156z"/>
		<path class="st2" d="M339.2568359,38.4296875l1.7353516-5.5834961h1.3632812l-2.9951172,8.5991211
			c-0.4638672,1.2392578-1.2001953,1.859375-2.2099609,1.859375l-0.2412109-0.0205078l-0.4755859-0.0898438v-1.0322266
			l0.3447266,0.0273438c0.4316406,0,0.7675781-0.0878906,1.0087891-0.2617188
			c0.2412109-0.1748047,0.4394531-0.4931641,0.5957031-0.9570312l0.2822266-0.7578125l-2.6582031-7.3666992h1.3916016
			L339.2568359,38.4296875z"/>
		<path class="st2" d="M351.5810547,40.2958984c-0.0732422-0.1464844-0.1328125-0.4082031-0.1787109-0.7851562
			c-0.5927734,0.6152344-1.2998047,0.9228516-2.1210938,0.9228516c-0.734375,0-1.3369141-0.2080078-1.8076172-0.6230469
			c-0.4697266-0.4150391-0.7050781-0.9423828-0.7050781-1.5800781c0-0.7753906,0.2949219-1.3779297,0.8847656-1.8076172
			c0.5898438-0.4291992,1.4189453-0.644043,2.4882812-0.644043h1.2392578v-0.5849609
			c0-0.4453125-0.1328125-0.7998047-0.3984375-1.0644531c-0.2666016-0.2636719-0.6591797-0.3955078-1.1777344-0.3955078
			c-0.4541016,0-0.8359375,0.1152344-1.1425781,0.3447266c-0.3076172,0.2294922-0.4619141,0.5068359-0.4619141,0.8330078h-1.2802734
			c0-0.3720703,0.1318359-0.7314453,0.3955078-1.078125s0.6220703-0.6201172,1.0742188-0.8222656
			s0.9492188-0.3027344,1.4902344-0.3027344c0.8583984,0,1.53125,0.2138672,2.0175781,0.6435547
			c0.4863281,0.4287109,0.7392578,1.0195312,0.7578125,1.7724609v3.4291992c0,0.6845703,0.0869141,1.2285156,0.2617188,1.6318359
			v0.1103516H351.5810547z M349.4667969,39.3251953c0.3994141,0,0.7783203-0.1035156,1.1367188-0.3095703
			c0.3574219-0.2070312,0.6171875-0.4755859,0.7773438-0.8056641v-1.5283203h-0.9980469
			c-1.5605469,0-2.3408203,0.4560547-2.3408203,1.3701172c0,0.3994141,0.1328125,0.7109375,0.3994141,0.9355469
			C348.7070312,39.2128906,349.0498047,39.3251953,349.4667969,39.3251953z"/>
		<path class="st2" d="M357.6396484,39.3935547c0.4541016,0,0.8515625-0.1376953,1.1914062-0.4130859
			s0.5273438-0.6191406,0.5644531-1.0322266h1.2050781c-0.0234375,0.4267578-0.1699219,0.8330078-0.4404297,1.21875
			c-0.2714844,0.3857422-0.6328125,0.6933594-1.0849609,0.921875c-0.4521484,0.2294922-0.9306641,0.3447266-1.4355469,0.3447266
			c-1.0146484,0-1.8212891-0.3388672-2.4199219-1.015625s-0.8984375-1.6025391-0.8984375-2.7783203v-0.2128906
			c0-0.7260742,0.1328125-1.3706055,0.3994141-1.9350586c0.265625-0.5654297,0.6484375-1.0029297,1.1464844-1.3154297
			s1.0859375-0.4677734,1.765625-0.4677734c0.8349609,0,1.5292969,0.25,2.0830078,0.75
			c0.5527344,0.5,0.8476562,1.1494141,0.8847656,1.9482422h-1.2050781c-0.0371094-0.4814453-0.2197266-0.8779297-0.5478516-1.1875
			s-0.7324219-0.4648438-1.2148438-0.4648438c-0.6474609,0-1.1484375,0.2333984-1.5039062,0.6992188
			c-0.3564453,0.4658203-0.5341797,1.1396484-0.5341797,2.0209961v0.2412109c0,0.8583984,0.1767578,1.5195312,0.5302734,1.9824219
			C356.4785156,39.1621094,356.9833984,39.3935547,357.6396484,39.3935547z"/>
		<path class="st2" d="M365.0205078,39.3935547c0.4541016,0,0.8515625-0.1376953,1.1914062-0.4130859
			s0.5273438-0.6191406,0.5644531-1.0322266h1.2050781c-0.0234375,0.4267578-0.1699219,0.8330078-0.4404297,1.21875
			c-0.2714844,0.3857422-0.6328125,0.6933594-1.0849609,0.921875c-0.4521484,0.2294922-0.9306641,0.3447266-1.4355469,0.3447266
			c-1.0146484,0-1.8212891-0.3388672-2.4199219-1.015625s-0.8984375-1.6025391-0.8984375-2.7783203v-0.2128906
			c0-0.7260742,0.1328125-1.3706055,0.3994141-1.9350586c0.265625-0.5654297,0.6484375-1.0029297,1.1464844-1.3154297
			s1.0859375-0.4677734,1.765625-0.4677734c0.8349609,0,1.5292969,0.25,2.0830078,0.75
			c0.5527344,0.5,0.8476562,1.1494141,0.8847656,1.9482422h-1.2050781c-0.0371094-0.4814453-0.2197266-0.8779297-0.5478516-1.1875
			s-0.7324219-0.4648438-1.2148438-0.4648438c-0.6474609,0-1.1484375,0.2333984-1.5039062,0.6992188
			c-0.3564453,0.4658203-0.5341797,1.1396484-0.5341797,2.0209961v0.2412109c0,0.8583984,0.1767578,1.5195312,0.5302734,1.9824219
			C363.859375,39.1621094,364.3642578,39.3935547,365.0205078,39.3935547z"/>
		<path class="st2" d="M369.0761719,36.5019531c0-0.7299805,0.1435547-1.3862305,0.4296875-1.9692383
			c0.2871094-0.5830078,0.6865234-1.0332031,1.1982422-1.3496094s1.0957031-0.4746094,1.7529297-0.4746094
			c1.0136719,0,1.8339844,0.3505859,2.4609375,1.0527344s0.9394531,1.6367188,0.9394531,2.8032227v0.0888672
			c0,0.7255859-0.1386719,1.3759766-0.4160156,1.9521484c-0.2783203,0.5761719-0.6748047,1.0253906-1.1914062,1.3457031
			c-0.5166016,0.3222656-1.109375,0.4824219-1.7792969,0.4824219c-1.0097656,0-1.828125-0.3515625-2.4550781-1.0537109
			c-0.6259766-0.7021484-0.9394531-1.6318359-0.9394531-2.7880859V36.5019531z M370.3564453,36.6533203
			c0,0.8261719,0.1914062,1.4902344,0.5751953,1.9902344c0.3828125,0.5,0.8964844,0.75,1.5390625,0.75
			c0.6464844,0,1.1611328-0.2529297,1.5419922-0.7607422c0.3808594-0.5068359,0.5712891-1.2167969,0.5712891-2.1308594
			c0-0.8168945-0.1943359-1.4790039-0.5820312-1.9868164c-0.3876953-0.5068359-0.9023438-0.7607422-1.5449219-0.7607422
			c-0.6289062,0-1.1367188,0.25-1.5224609,0.7509766C370.5498047,35.0053711,370.3564453,35.7211914,370.3564453,36.6533203z"/>
		<path class="st2" d="M382.0546875,39.5595703c-0.4960938,0.5830078-1.2236328,0.8740234-2.1826172,0.8740234
			c-0.7939453,0-1.3984375-0.2304688-1.8144531-0.6923828c-0.4150391-0.4609375-0.625-1.1435547-0.6298828-2.0478516v-4.847168
			h1.2734375v4.8129883c0,1.1289062,0.4589844,1.6933594,1.3769531,1.6933594c0.9736328,0,1.6210938-0.3623047,1.9423828-1.0878906
			v-5.418457h1.2734375v7.449707h-1.2119141L382.0546875,39.5595703z"/>
		<path class="st2" d="M386.4335938,32.8461914l0.0410156,0.9355469c0.5693359-0.7158203,1.3125-1.0732422,2.2304688-1.0732422
			c1.5742188,0,2.3681641,0.8876953,2.3828125,2.6640625v4.9233398h-1.2744141v-4.9301758
			c-0.0039062-0.5371094-0.1269531-0.9335938-0.3681641-1.1914062c-0.2412109-0.2568359-0.6162109-0.3857422-1.1259766-0.3857422
			c-0.4130859,0-0.7753906,0.1103516-1.0878906,0.3310547c-0.3115234,0.2197266-0.5546875,0.5097656-0.7294922,0.8671875v5.309082
			h-1.2734375v-7.449707H386.4335938z"/>
		<path class="st2" d="M394.7363281,31.0415039v1.8046875h1.3916016v0.984375h-1.3916016v4.6254883
			c0,0.2988281,0.0625,0.5234375,0.1865234,0.6728516s0.3349609,0.2236328,0.6328125,0.2236328
			c0.1474609,0,0.3496094-0.0273438,0.6064453-0.0820312v1.0263672c-0.3349609,0.0908203-0.6611328,0.1367188-0.9775391,0.1367188
			c-0.5693359,0-0.9990234-0.171875-1.2880859-0.5166016c-0.2890625-0.34375-0.4335938-0.8330078-0.4335938-1.4658203v-4.6206055
			h-1.3564453v-0.984375h1.3564453v-1.8046875H394.7363281z"/>
	</g>
	<path class="st2" d="M315.2000122,35.2000008C316,34.4000015,316.5,33.2999992,316.5,32.2000008
		C316.5,29.9000015,314.6000061,28,312.2999878,28c-2.2999878,0-4.2000122,1.7999992-4.2000122,4.2000008
		c0,1.0999985,0.5,2.2000008,1.2999878,3c-2.2999878,1.0999985-3.7999878,3.7000008-3.7999878,6.5999985
		c0,0.2999992,0.2000122,0.5999985,0.6000061,0.5999985h12.2999878c0.2999878,0,0.6000061-0.2000008,0.6000061-0.5999985
		C319.1000061,38.9000015,317.5,36.2999992,315.2000122,35.2000008z M313.8999939,34.9000015
		c-0.1000061,0-0.1000061,0.0999985-0.1000061,0.0999985c-0.3999939,0.2000008-0.7999878,0.2999992-1.3999939,0.2999992
		c-1.7000122,0-3-1.4000015-3-3c0-1.7000008,1.3999939-3,3-3s3,1.3999996,3,3
		C315.3999939,33.2999992,314.7999878,34.2999992,313.8999939,34.9000015z M310.6000061,35.9000015
		c1.1000061,0.5,2.5,0.5,3.6000061,0c2,0.7000008,3.6000061,2.7999992,3.7999878,5.2999992h-11.2000122
		C307,38.7000008,308.5,36.5999985,310.6000061,35.9000015z"/>
</g>
</svg>
