<?xml version="1.0" encoding="utf-8"?>
<!-- Generator: Adobe Illustrator 24.2.0, SVG Export Plug-In . SVG Version: 6.00 Build 0)  -->
<svg version="1.1" id="Layer_1" xmlns="http://www.w3.org/2000/svg" width="50" height="50" xmlns:xlink="http://www.w3.org/1999/xlink" x="0px" y="0px"
	 viewBox="0 0 50 50" style="enable-background:new 0 0 50 50;" xml:space="preserve">
<style type="text/css">
	.st0{display:none;}
	.st1{display:inline;fill:#222222;}
	.st2{fill:#222222;}
</style>
<g class="st0">
	<path class="st1" d="M39.9000015,21.3999996c0-0.5-0.2000008-1-0.5-1.2999992C39,19.7000008,38.6000023,19.5,38,19.5h-5.5
		l-6.8999996-9.1999998C25.5,10.1000004,25.2999992,10,25,10c-0.2000008,0-0.5,0.1000004-0.6000004,0.3000002L17.5,19.5H12
		c-1.1000004,0-1.8999996,0.7999992-1.8999996,1.8999996v2.3999996c0,1.1000004,0.8000002,1.8999996,1.8999996,1.8999996h0.6000004
		L14.5,37.3999977c0.1999998,1.5,1.5,2.5999985,3,2.5999985h15c1.5,0,2.7999992-1.0999985,3-2.5999985l1.9000015-11.7000008H38
		c1.0999985,0,1.9000015-0.7999992,1.9000015-1.8999996V21.3999996z M11.5,21.3999996c0-0.2000008,0.1999998-0.5,0.5-0.5h4.5
		l-0.2000008,0.2999992h-0.1000004c-0.6999998,0-1.3000002,0.6000004-1.3000002,1.2999992
		c0,0.7000008,0.6000004,1.2999992,1.3000002,1.2999992c0.7000008,0,1.2999992-0.6000004,1.2999992-1.2999992
		c0-0.2000008,0-0.2999992-0.1000004-0.5l0.8999996-1.2000008h13.6000004l0.9000015,1.2000008
		c-0.0999985,0.1000004-0.0999985,0.2999992-0.0999985,0.5c0,0.7000008,0.5999985,1.2999992,1.2999992,1.2999992
		s1.2999992-0.6000004,1.2999992-1.2999992c0-0.7000008-0.5999985-1.2999992-1.2999992-1.2999992h-0.0999985L33.5999985,21h4.5
		c0.2000008,0,0.5,0.2000008,0.5,0.5v2.2999992c0,0.2000008-0.2000008,0.5-0.5,0.5H12c-0.1999998,0-0.5-0.2000008-0.5-0.5
		V21.3999996z M19.3999996,19.5l5.6999989-7.6000004L30.7999992,19.5H19.3999996z M14,25.7000008h22.0999985l-1.9000015,11.5
		C33.9999962,38,33.3999977,38.6000023,32.5999985,38.6000023h-15c-0.7999992,0-1.5-0.5999985-1.6000004-1.4000015L14,25.7000008z
		 M25,10.3999996L25,10.3999996L25,10.3999996L25,10.3999996z"/>
	<path class="st1" d="M29.7999992,37.7000008C30.1999989,37.7000008,30.5,37.4000015,30.5,37v-9.5
		c0-0.3999996-0.2999992-0.7000008-0.7000008-0.7000008S29.0999985,27.0999985,29.0999985,27.5V37
		C29.1000004,37.2999992,29.3999996,37.7000008,29.7999992,37.7000008z"/>
	<path class="st1" d="M20.2999992,37.7000008C20.6999989,37.7000008,21,37.4000015,21,37v-9.5
		c0-0.3999996-0.2999992-0.7000008-0.7000008-0.7000008S19.5999985,27.0999985,19.5999985,27.5V37
		C19.6000004,37.2999992,19.8999996,37.7000008,20.2999992,37.7000008z"/>
	<path class="st1" d="M25.1000004,37.7000008c0.3999996,0,0.7000008-0.2999992,0.7000008-0.7000008v-9.5
		c0-0.3999996-0.2999992-0.7000008-0.7000008-0.7000008c-0.3999996,0-0.7000008,0.2999992-0.7000008,0.7000008V37
		C24.3999996,37.2999992,24.7000008,37.7000008,25.1000004,37.7000008z"/>
</g>
<g>
	<g>
		<g>
			<path class="st2" d="M10.1000004,23.3408928c0,2.1195793,0.4987249,4.114481,1.4961748,6.1093807
				c0.8727684,1.6208553,1.9948997,3.1170292,3.4910746,4.3638439v5.3612938c0,0.3740425,0.249362,0.6234055,0.3740444,0.6234055
				c0.1246805,0.1246796,0.249362,0.1246796,0.498724,0.1246796c0.2493629,0,0.4987259-0.1246834,0.6234055-0.2493629
				l3.4910755-3.4910736c1.1221294,0.2493629,2.2442627,0.3740425,3.3663921,0.3740425h2.3689442
				c7.3561916,0,13.3408947-5.9846992,13.3408947-13.3408928S33.0413475,10,25.685154,10h-2.3689423
				C16.0846996,10,10.1000004,15.9846992,10.1000004,23.3408928z M11.5973606,23.321331
				c0-6.4834423,5.2121792-11.6956215,11.6956215-11.6956215h2.4154015c6.4834423,0,11.6956196,5.2121792,11.6956196,11.6956215
				s-5.2121811,11.6956215-11.6956215,11.6956215h-2.4153996c-1.1441364,0-2.2882729-0.1271248-3.4324093-0.508503
				c-0.1271267,0-0.1271267,0-0.2542534,0c-0.2542515,0-0.5085049,0.1271248-0.6356316,0.2542534l-2.2882729,2.2882729v-3.559536
				c0-0.2542534-0.1271267-0.5085068-0.3813801-0.7627602C13.3771296,30.4404049,11.5973606,27.0079956,11.5973606,23.321331z"/>
		</g>
	</g>
	<g>
		<g>
			<path class="st2" d="M28.6775055,19.9744987c-0.1246834-1.8702183-1.6208572-3.4910755-3.615757-3.6157551
				c-1.1221313-0.1246815-2.1195812,0.249361-2.8676682,0.9974499c-0.7480888,0.7480869-1.2468128,1.7455368-1.2468128,2.8676682
				c0,0.6234055,0.3740444,0.9974499,0.8727684,0.9974499c0.4987259,0,0.7911816-0.3972073,0.7911816-0.8959312
				c0-0.6234055,0.1949863-1.2125072,0.5690308-1.5865498c0.3740444-0.3740444,0.7655563-0.7958775,1.9595604-0.8200703
				c1.1219006-0.0227337,1.9833488,1.1488285,1.9833488,2.1462803s-0.9182072,2.0054665-1.9156551,2.2548294
				c-0.7480888,0.1246815-1.5172482,0.7716599-1.5172482,1.6444283v2.2442627c0,0.498724,0.3740444,0.8727684,0.8727684,0.8727684
				s0.8727684-0.3740444,0.8727684-0.8727684v-2.1195812C27.5553722,23.5902538,28.8021851,21.9693985,28.6775055,19.9744987z"/>
		</g>
	</g>
	<g>
		<g>
			<path class="st2" d="M25.18643,29.2009106c-0.1246815-0.1246834-0.3740444-0.2493629-0.6234055-0.2493629
				c-0.2493629,0-0.4987259,0.1246815-0.6234074,0.2493629s-0.249361,0.3740425-0.249361,0.6234055
				s0.1246815,0.498724,0.249361,0.6234055c0.1246815,0.1246815,0.3740444,0.2493649,0.6234074,0.2493649
				c0.249361,0,0.498724-0.1246834,0.6234055-0.2493649s0.2493629-0.3740425,0.2493629-0.6234055
				C25.4155121,29.5142078,25.3515453,29.3638859,25.18643,29.2009106z"/>
		</g>
	</g>
</g>
</svg>
