<?xml version="1.0" encoding="utf-8"?>
<!-- Generator: Adobe Illustrator 21.0.0, SVG Export Plug-In . SVG Version: 6.00 Build 0)  -->
<svg version="1.1" id="Layer_1" xmlns="http://www.w3.org/2000/svg" width="430" height="70" xmlns:xlink="http://www.w3.org/1999/xlink" x="0px" y="0px"
	 viewBox="0 0 430 70" style="enable-background:new 0 0 430 70;" xml:space="preserve">
<style type="text/css">
	.st0{opacity:0.3;fill:#E1E1E1;enable-background:new    ;}
	.st1{fill:#888888;}
	.st2{fill:#222222;}
</style>
<rect class="st0" width="430" height="70"/>
<g>
	<g>
		<polygon class="st1" points="51.2919922,23.8402843 56.0800781,23.8402843 56.0800781,28.2074718 57.2587891,28.2074718 
			57.2587891,18.827589 56.0800781,18.827589 56.0800781,22.7758312 51.2919922,22.7758312 51.2919922,18.827589 
			50.1132812,18.827589 50.1132812,28.2074718 51.2919922,28.2074718 		"/>
		<path class="st1" d="M66.7202148,27.0424328c0.7558594-0.8569336,1.1391602-2.046875,1.1391602-3.5371094
			c0-1.4956055-0.3818359-2.6860352-1.1357422-3.5375977c-0.7558594-0.8535156-1.8188477-1.2861328-3.1606445-1.2861328
			c-1.3798828,0-2.4604492,0.425293-3.2109375,1.2641602c-0.75,0.8364258-1.1298828,2.0297852-1.1298828,3.5458984
			c0,1.5283203,0.3789062,2.7304688,1.1259766,3.5722656c0.75,0.8427734,1.8271484,1.2705078,3.2021484,1.2705078
			C64.8955078,28.334425,65.9619141,27.8998547,66.7202148,27.0424328z M60.4643555,23.5053234
			c0-1.2226562,0.2666016-2.1655273,0.7919922-2.8032227c0.5229492-0.6342773,1.2988281-0.9560547,2.3066406-0.9560547
			c1.003418,0,1.7709961,0.3198242,2.2807617,0.949707c0.5131836,0.6328125,0.7734375,1.578125,0.7734375,2.8095703
			c0,1.2431641-0.2612305,2.1958008-0.7763672,2.8310547c-0.5126953,0.6318359-1.2832031,0.953125-2.2905273,0.953125
			c-0.9990234,0-1.7709961-0.3222656-2.2939453-0.956543C60.730957,25.6957531,60.4643555,24.7445812,60.4643555,23.5053234z"/>
		<path class="st1" d="M70.925293,22.2543468c0-0.8110352-0.0244141-1.53125-0.0732422-2.1455078l3.0869141,8.0664062
			l0.0126953,0.0322266h0.9379883l3.128418-8.0957031c-0.0512695,0.7397461-0.0766602,1.434082-0.0766602,2.0664062v6.0292969
			h1.1787109V18.827589h-1.6962891l-2.9555664,7.6318359l-2.9174805-7.6000977l-0.0126953-0.0317383h-1.7089844v9.3798828h1.0961914
			V22.2543468z"/>
		<polygon class="st1" points="81.565918,28.2074718 86.8388672,28.2074718 86.8388672,27.1430187 82.7446289,27.1430187 
			82.7446289,23.827589 86.5913086,23.827589 86.5913086,22.7758312 82.7446289,22.7758312 82.7446289,19.8856945 
			86.8388672,19.8856945 86.8388672,18.827589 81.565918,18.827589 		"/>
		<path class="st1" d="M111.8027344,22.9760265c-0.5737305-0.2060547-1.0053711-0.3959961-1.2822266-0.5639648
			c-0.2724609-0.1665039-0.46875-0.3510742-0.5825195-0.5478516c-0.1137695-0.1962891-0.1713867-0.4536133-0.1713867-0.7651367
			c0-0.4233398,0.1513672-0.7446289,0.4628906-0.9824219c0.3110352-0.2373047,0.7514648-0.3579102,1.309082-0.3579102
			c0.7138672,0,1.4589844,0.1611328,2.2148438,0.4785156l0.0488281,0.0205078l0.3701172-1.0332031l-0.0429688-0.0185547
			c-0.7773438-0.3398438-1.640625-0.5117188-2.5654297-0.5117188c-0.8920898,0-1.6196289,0.2167969-2.1635742,0.6455078
			c-0.5478516,0.4311523-0.8251953,1.0185547-0.8251953,1.746582c0,0.6904297,0.190918,1.2587891,0.5673828,1.6899414
			c0.375,0.4282227,1.0048828,0.8022461,1.871582,1.1118164c0.609375,0.2167969,1.0712891,0.4140625,1.3725586,0.5864258
			c0.293457,0.1689453,0.5058594,0.3544922,0.6298828,0.5512695c0.1235352,0.1962891,0.1860352,0.4536133,0.1860352,0.7646484
			c0,0.4677734-0.1772461,0.8369141-0.5263672,1.0986328c-0.3530273,0.265625-0.8896484,0.4003906-1.5947266,0.4003906
			c-0.4345703,0-0.8793945-0.046875-1.3227539-0.1396484c-0.4433594-0.0917969-0.8588867-0.21875-1.2348633-0.3779297
			l-0.0693359-0.0292969v1.1474609l0.0283203,0.0136719c0.5957031,0.2861328,1.4570312,0.4306641,2.5605469,0.4306641
			c1.0224609,0,1.8442383-0.234375,2.4428711-0.6953125c0.6025391-0.4658203,0.9077148-1.121582,0.9077148-1.9501953
			c0-0.6450195-0.1889648-1.1772461-0.5620117-1.5825195C113.4628906,23.7040539,112.7797852,23.3236828,111.8027344,22.9760265z"/>
		<polygon class="st1" points="117.3710938,23.8402843 122.1591797,23.8402843 122.1591797,28.2074718 123.3378906,28.2074718 
			123.3378906,18.827589 122.1591797,18.827589 122.1591797,22.7758312 117.3710938,22.7758312 117.3710938,18.827589 
			116.1923828,18.827589 116.1923828,28.2074718 117.3710938,28.2074718 		"/>
		<path class="st1" d="M129.6293945,28.334425c1.3452148,0,2.4116211-0.4345703,3.1699219-1.2919922
			c0.7558594-0.8569336,1.1391602-2.046875,1.1391602-3.5371094c0-1.4956055-0.3818359-2.6860352-1.1357422-3.5375977
			c-0.7558594-0.8535156-1.8188477-1.2861328-3.1606445-1.2861328c-1.3798828,0-2.4604492,0.425293-3.2109375,1.2641602
			c-0.75,0.8364258-1.1298828,2.0297852-1.1298828,3.5458984c0,1.5283203,0.3789062,2.7304688,1.1259766,3.5722656
			C127.1772461,27.9066906,128.2543945,28.334425,129.6293945,28.334425z M127.3354492,20.7021008
			c0.5229492-0.6342773,1.2988281-0.9560547,2.3066406-0.9560547c1.003418,0,1.7709961,0.3198242,2.2807617,0.949707
			c0.5131836,0.6328125,0.7734375,1.578125,0.7734375,2.8095703c0,1.2431641-0.2612305,2.1958008-0.7763672,2.8310547
			c-0.5126953,0.6318359-1.2832031,0.953125-2.2905273,0.953125c-0.9990234,0-1.7709961-0.3222656-2.2939453-0.956543
			c-0.5253906-0.637207-0.7919922-1.5883789-0.7919922-2.8276367
			C126.543457,22.2826672,126.8100586,21.3397961,127.3354492,20.7021008z"/>
		<path class="st1" d="M138.3637695,18.827589h-2.4555664v9.3798828h1.1787109v-3.6503906h1.0419922
			c1.2006836,0,2.1367188-0.2583008,2.7822266-0.7685547c0.6508789-0.5131836,0.980957-1.2558594,0.980957-2.2070312
			C141.8920898,19.7538586,140.7050781,18.827589,138.3637695,18.827589z M140.0546875,23.0771008
			c-0.4174805,0.3012695-1.105957,0.4545898-2.0463867,0.4545898h-0.9213867v-3.6713867h1.15625
			c0.8354492,0,1.4575195,0.1484375,1.8491211,0.440918c0.3867188,0.2890625,0.5830078,0.7368164,0.5830078,1.3310547
			C140.675293,22.2934093,140.4663086,22.7797375,140.0546875,23.0771008z"/>
		<path class="st2" d="M54.3022461,37.4027824h-3.5883789v13.7490234h1.6865234v-5.3681641h1.5561523
			c1.7583008,0,3.1303711-0.3789062,4.078125-1.1259766c0.9511719-0.75,1.4331055-1.8359375,1.4331055-3.2275391
			C59.4677734,38.7572746,57.7299805,37.4027824,54.3022461,37.4027824z M52.4003906,38.8754387h1.7241211
			c1.234375,0,2.1538086,0.2197266,2.7338867,0.6523438c0.574707,0.4306641,0.8666992,1.0957031,0.8666992,1.9765625
			c0,0.9804688-0.3105469,1.7021484-0.9223633,2.1435547v0.0009766c-0.6162109,0.4453125-1.6337891,0.671875-3.0234375,0.671875
			h-1.3789062V38.8754387z"/>
		<path class="st2" d="M70.9790039,41.3090324c0-1.2988281-0.409668-2.2861328-1.2182617-2.9335938
			c-0.8061523-0.6455078-2.0649414-0.9726562-3.7421875-0.9726562h-3.793457v13.7490234h1.6865234v-5.6757812h2.769043
			l3.2910156,5.6513672l0.0141602,0.0244141h1.9941406l-3.7207031-6.1572266
			C70.0639648,44.3500481,70.9790039,43.1098137,70.9790039,41.3090324z M63.9116211,38.8939934h2.0136719
			c1.1601562,0,2.012207,0.1982422,2.5327148,0.5878906c0.5161133,0.3867188,0.7783203,1.0292969,0.7783203,1.9111328
			c0,0.8710938-0.2583008,1.53125-0.7666016,1.9638672c-0.5112305,0.4355469-1.3295898,0.65625-2.4326172,0.65625h-2.1254883
			V38.8939934z"/>
		<path class="st2" d="M79.6958008,37.1879387c-2.0214844,0-3.6044922,0.6230469-4.7050781,1.8515625
			c-1.0986328,1.2255859-1.6557617,2.9755859-1.6557617,5.2001953c0,2.2421875,0.5551758,4.0048828,1.6508789,5.2382812
			c1.097168,1.234375,2.675293,1.8603516,4.6914062,1.8603516c1.9726562,0,3.5356445-0.6367188,4.6450195-1.8925781
			c1.1074219-1.2548828,1.6689453-3,1.6689453-5.1865234c0-2.1933594-0.5600586-3.9384766-1.6645508-5.1875
			C83.2197266,37.8217278,81.6616211,37.1879387,79.6958008,37.1879387z M79.6772461,49.8480949
			c-1.4775391,0-2.6186523-0.4765625-3.3925781-1.4160156c-0.7758789-0.9414062-1.1694336-2.3447266-1.1694336-4.1728516
			c0-1.8037109,0.3935547-3.1953125,1.1694336-4.1367188c0.7739258-0.9394531,1.921875-1.4150391,3.4111328-1.4150391
			c1.4829102,0,2.6181641,0.4726562,3.3730469,1.4042969c0.7583008,0.9355469,1.1425781,2.3310547,1.1425781,4.1474609
			c0,1.8339844-0.3857422,3.2392578-1.1469727,4.1787109C82.3061523,49.3734856,81.1665039,49.8480949,79.6772461,49.8480949z"/>
		<path class="st2" d="M93.1674805,37.4027824h-4.2324219v13.7490234h3.8310547
			c2.2993164,0,4.0874023-0.6064453,5.3139648-1.8017578c1.2275391-1.1953125,1.8496094-2.9462891,1.8496094-5.203125
			c0-2.1142578-0.5986328-3.7841797-1.7792969-4.9648438C96.9692383,38.0014153,95.2929688,37.4027824,93.1674805,37.4027824z
			 M90.621582,38.8754387h2.2563477c1.7392578,0,3.0673828,0.4501953,3.9462891,1.3388672
			c0.8793945,0.8886719,1.3251953,2.2304688,1.3251953,3.9882812c0,1.8017578-0.4755859,3.1796875-1.4135742,4.0947266
			c-0.9379883,0.9179688-2.3618164,1.3828125-4.2314453,1.3828125H90.621582V38.8754387z"/>
		<path class="st2" d="M111.5932617,46.3402824c0,1.1259766-0.309082,2.0019531-0.9189453,2.6025391
			s-1.4931641,0.9052734-2.6254883,0.9052734c-1.1889648,0-2.1005859-0.3037109-2.7094727-0.9013672
			c-0.6098633-0.5966797-0.9189453-1.4677734-0.9189453-2.5869141v-8.9570312h-1.6870117v8.8447266
			c0,1.5751953,0.4584961,2.8310547,1.3637695,3.7324219s2.2001953,1.3583984,3.8491211,1.3583984
			c1.6494141,0,2.9643555-0.453125,3.9082031-1.3486328c0.9462891-0.8955078,1.4257812-2.1416016,1.4257812-3.7050781v-8.8818359
			h-1.6870117V46.3402824z"/>
		<path class="st2" d="M122.6875,38.7260246c1.0214844,0,2.0571289,0.2431641,3.078125,0.7226562l0.0444336,0.0214844
			l0.7163086-1.4511719l-0.0449219-0.0224609c-1.0712891-0.5234375-2.3417969-0.7890625-3.7753906-0.7890625
			c-1.3466797,0-2.534668,0.2910156-3.5302734,0.8652344c-0.9975586,0.5751953-1.7705078,1.40625-2.2978516,2.4667969
			c-0.5268555,1.0595703-0.7939453,2.3105469-0.7939453,3.7197266c0,2.2480469,0.5556641,4.0087891,1.6513672,5.2324219
			c1.0961914,1.2255859,2.6748047,1.8466797,4.690918,1.8466797c1.3891602,0,2.5727539-0.1796875,3.5185547-0.5351562
			l0.0322266-0.0126953v-1.4912109l-0.0634766,0.0185547c-1.2124023,0.3388672-2.3041992,0.5117188-3.2446289,0.5117188
			c-1.5268555,0-2.71875-0.4863281-3.5424805-1.4433594c-0.8251953-0.9609375-1.2436523-2.3427734-1.2436523-4.1083984
			c0-1.7158203,0.434082-3.0859375,1.2900391-4.0703125C120.0268555,39.2240715,121.2094727,38.7260246,122.6875,38.7260246z"/>
		<polygon class="st2" points="127.1469727,38.9125481 131.4697266,38.9125481 131.4697266,51.1518059 133.15625,51.1518059 
			133.15625,38.9125481 137.4790039,38.9125481 137.4790039,37.4027824 127.1469727,37.4027824 		"/>
		<polygon class="st2" points="142.6914062,38.9125481 147.0141602,38.9125481 147.0141602,51.1518059 148.7006836,51.1518059 
			148.7006836,38.9125481 153.0234375,38.9125481 153.0234375,37.4027824 142.6914062,37.4027824 		"/>
		<rect x="154.9770508" y="37.4027824" class="st2" width="1.6865234" height="13.7490234"/>
		<polygon class="st2" points="158.5996094,38.9125481 162.9223633,38.9125481 162.9223633,51.1518059 164.6088867,51.1518059 
			164.6088867,38.9125481 168.9316406,38.9125481 168.9316406,37.4027824 158.5996094,37.4027824 		"/>
		<polygon class="st2" points="172.5722656,37.4027824 170.8857422,37.4027824 170.8857422,51.1518059 178.5942383,51.1518059 
			178.5942383,49.6146965 172.5722656,49.6146965 		"/>
		<polygon class="st2" points="188.5180664,38.9125481 188.5180664,37.4027824 180.8095703,37.4027824 180.8095703,51.1518059 
			188.5180664,51.1518059 188.5180664,49.6332512 182.4960938,49.6332512 182.4960938,44.7103996 188.1538086,44.7103996 
			188.1538086,43.2103996 182.4960938,43.2103996 182.4960938,38.9125481 		"/>
	</g>
	<polygon class="st1" points="153.7713623,18.6616688 150.1873474,28.2759609 151.4115143,28.2759609 154.9955139,18.6616688 	"/>
	<polygon class="st1" points="99.5797348,18.6616688 95.9957275,28.2759609 97.2198868,28.2759609 100.803894,18.6616688 	"/>
</g>
</svg>
