<?xml version="1.0" encoding="utf-8"?>
<!-- Generator: Adobe Illustrator 21.0.0, SVG Export Plug-In . SVG Version: 6.00 Build 0)  -->
<svg version="1.1" id="Layer_1" xmlns="http://www.w3.org/2000/svg" width="430" height="70" xmlns:xlink="http://www.w3.org/1999/xlink" x="0px" y="0px"
	 viewBox="0 0 430 70" style="enable-background:new 0 0 430 70;" xml:space="preserve">
<style type="text/css">
	.st0{opacity:0.3;fill:#E1E1E1;enable-background:new    ;}
	.st1{fill:#888888;}
	.st2{fill:#222222;}
</style>
<rect class="st0" width="430" height="70"/>
<g>
	<polygon class="st1" points="163.6628723,24.234375 168.5505676,24.234375 168.5505676,28.6015625 169.6296692,28.6015625 
		169.6296692,19.3212891 168.5505676,19.3212891 168.5505676,23.2695312 163.6628723,23.2695312 163.6628723,19.3212891 
		162.5837708,19.3212891 162.5837708,28.6015625 163.6628723,28.6015625 	"/>
	<path class="st1" d="M179.103302,27.453125c0.7514648-0.8515625,1.1269531-2.0195312,1.1269531-3.5039062
		c0-1.4902344-0.3745117-2.6582031-1.1235352-3.5043945s-1.7900391-1.2695312-3.1230469-1.2695312
		c-1.3710938,0-2.4291992,0.4155273-3.1738281,1.2475586c-0.7446289,0.8310547-1.1171875,2.0019531-1.1171875,3.5126953
		c0,1.5234375,0.371582,2.703125,1.1137695,3.5390625c0.7431641,0.8359375,1.7978516,1.2539062,3.1645508,1.2539062
		C177.3083801,28.7285156,178.3523254,28.3027344,179.103302,27.453125z M172.8352356,23.9492188
		c0-1.2402344,0.2675781-2.1850586,0.8032227-2.8349609c0.5351562-0.6494141,1.3168945-0.9741211,2.3452148-0.9741211
		c1.0239258,0,1.7973633,0.3227539,2.3198242,0.9682617c0.5229492,0.6450195,0.7841797,1.5917969,0.7841797,2.8408203
		c0,1.2607422-0.262207,2.2148438-0.7871094,2.8623047s-1.3012695,0.9716797-2.3295898,0.9716797
		c-1.0200195,0-1.7973633-0.3251953-2.3325195-0.9746094C173.1028137,26.1591797,172.8352356,25.2050781,172.8352356,23.9492188z"/>
	<path class="st1" d="M183.2961731,22.6982422c0-0.8969727-0.0297852-1.6713867-0.0888672-2.3232422h0.0507812l3.1484375,8.2265625
		h0.8696289l3.1738281-8.2138672h0.0507812c-0.059082,0.8041992-0.0888672,1.5488281-0.0888672,2.234375v5.9794922h1.0791016
		v-9.2802734h-1.6123047l-2.9643555,7.6552734h-0.0507812l-2.9389648-7.6552734h-1.625v9.2802734h0.996582V22.6982422z"/>
	<polygon class="st1" points="194.0364075,28.6015625 199.2097473,28.6015625 199.2097473,27.6367188 195.115509,27.6367188 
		195.115509,24.2216797 198.9621887,24.2216797 198.9621887,23.2695312 195.115509,23.2695312 195.115509,20.2797852 
		199.2097473,20.2797852 199.2097473,19.3212891 194.0364075,19.3212891 	"/>
	<path class="st1" d="M224.2068176,23.4667969c-0.5795898-0.2080078-1.0102539-0.3974609-1.2915039-0.5683594
		c-0.2817383-0.171875-0.4814453-0.3603516-0.6000977-0.5654297s-0.1777344-0.4682617-0.1777344-0.7900391
		c0-0.4360352,0.1606445-0.7763672,0.4824219-1.0219727s0.7680664-0.3681641,1.3393555-0.3681641
		c0.7236328,0,1.4682617,0.1606445,2.234375,0.4824219l0.3364258-0.9394531
		c-0.7744141-0.3383789-1.6230469-0.5078125-2.5454102-0.5078125c-0.8842773,0-1.5952148,0.2114258-2.1328125,0.6347656
		s-0.8061523,0.9921875-0.8061523,1.7075195c0,0.6816406,0.1850586,1.2333984,0.5551758,1.6572266
		c0.3706055,0.4228516,0.9873047,0.7890625,1.8505859,1.0976562c0.6176758,0.2197266,1.078125,0.4169922,1.3808594,0.5898438
		c0.3022461,0.1738281,0.5180664,0.3632812,0.6474609,0.5683594c0.1289062,0.2050781,0.1933594,0.46875,0.1933594,0.7910156
		c0,0.4863281-0.1821289,0.8662109-0.5458984,1.1386719c-0.3637695,0.2734375-0.9057617,0.4101562-1.625,0.4101562
		c-0.4399414,0-0.8842773-0.046875-1.3330078-0.140625c-0.4487305-0.0927734-0.8632812-0.2197266-1.2441406-0.3808594v1.0410156
		c0.5922852,0.2841797,1.4389648,0.4257812,2.5390625,0.4257812c1.015625,0,1.8198242-0.2285156,2.4121094-0.6855469
		s0.8886719-1.09375,0.8886719-1.9101562c0-0.6347656-0.1831055-1.1513672-0.5488281-1.5488281
		C225.849884,24.1855469,225.1799622,23.8134766,224.2068176,23.4667969z"/>
	<polygon class="st1" points="229.7419739,24.234375 234.6296692,24.234375 234.6296692,28.6015625 235.7087708,28.6015625 
		235.7087708,19.3212891 234.6296692,19.3212891 234.6296692,23.2695312 229.7419739,23.2695312 229.7419739,19.3212891 
		228.6628723,19.3212891 228.6628723,28.6015625 229.7419739,28.6015625 	"/>
	<path class="st1" d="M245.1824036,27.453125c0.7514648-0.8515625,1.1269531-2.0195312,1.1269531-3.5039062
		c0-1.4902344-0.3745117-2.6582031-1.1235352-3.5043945s-1.7900391-1.2695312-3.1230469-1.2695312
		c-1.3710938,0-2.4291992,0.4155273-3.1738281,1.2475586c-0.7446289,0.8310547-1.1171875,2.0019531-1.1171875,3.5126953
		c0,1.5234375,0.371582,2.703125,1.1137695,3.5390625c0.7431641,0.8359375,1.7978516,1.2539062,3.1645508,1.2539062
		C243.3874817,28.7285156,244.431427,28.3027344,245.1824036,27.453125z M238.9143372,23.9492188
		c0-1.2402344,0.2675781-2.1850586,0.8032227-2.8349609c0.5351562-0.6494141,1.3168945-0.9741211,2.3452148-0.9741211
		c1.0239258,0,1.7973633,0.3227539,2.3198242,0.9682617c0.5229492,0.6450195,0.7841797,1.5917969,0.7841797,2.8408203
		c0,1.2607422-0.262207,2.2148438-0.7871094,2.8623047s-1.3012695,0.9716797-2.3295898,0.9716797
		c-1.0200195,0-1.7973633-0.3251953-2.3325195-0.9746094C239.1819153,26.1591797,238.9143372,25.2050781,238.9143372,23.9492188z"/>
	<path class="st1" d="M250.7844543,19.3212891h-2.4057617v9.2802734h1.0791016v-3.6503906h1.0917969
		c1.1933594,0,2.1108398-0.2519531,2.7514648-0.7578125c0.6416016-0.5058594,0.9619141-1.2285156,0.9619141-2.1679688
		C254.26297,20.2226562,253.103302,19.3212891,250.7844543,19.3212891z M252.5046692,23.5615234
		c-0.4272461,0.3085938-1.1191406,0.4638672-2.0756836,0.4638672h-0.9711914v-3.7709961h1.2060547
		c0.8505859,0,1.4770508,0.1503906,1.8789062,0.4506836s0.6030273,0.7573242,0.6030273,1.3710938
		C253.1457825,22.7578125,252.9319153,23.2529297,252.5046692,23.5615234z"/>
	<polygon class="st1" points="262.6080627,28.7198486 263.8321838,28.7198486 267.4162292,19.1055908 266.1920471,19.1055908 	"/>
	<polygon class="st1" points="208.4164124,28.7198486 209.6405945,28.7198486 213.2245789,19.1055908 212.0004578,19.1055908 	"/>
</g>
<g>
	<path class="st2" d="M149.6860352,37.8964844h-3.5385742v13.6494141h1.5869141v-5.3681641h1.605957
		c1.7553711,0,3.1044922-0.3720703,4.0473633-1.1152344c0.9428711-0.7441406,1.4140625-1.8066406,1.4140625-3.1884766
		C154.8017578,39.2226562,153.0966797,37.8964844,149.6860352,37.8964844z M152.2158203,44.1328125
		c-0.6289062,0.4550781-1.6464844,0.6816406-3.0527344,0.6816406h-1.4287109v-5.5449219h1.7739258
		c1.2509766,0,2.1723633,0.2207031,2.7636719,0.6621094c0.5913086,0.4423828,0.8867188,1.1142578,0.8867188,2.0166016
		C153.1586914,42.9511719,152.8442383,43.6787109,152.2158203,44.1328125z"/>
	<path class="st2" d="M166.3129883,41.7529297c0-1.2890625-0.3999023-2.2539062-1.199707-2.8945312
		s-2.0366211-0.9619141-3.7109375-0.9619141h-3.7436523v13.6494141h1.5869141v-5.6757812h2.8476562l3.3051758,5.6757812h1.8764648
		l-3.706543-6.1337891C165.3984375,44.7773438,166.3129883,43.5576172,166.3129883,41.7529297z M161.4208984,44.5068359h-2.175293
		v-5.21875h2.0634766c1.1762695,0,2.0307617,0.1992188,2.5625,0.5976562
		c0.5322266,0.3984375,0.7983398,1.0488281,0.7983398,1.9511719c0,0.8896484-0.2612305,1.5576172-0.7841797,2.0019531
		C163.362793,44.2841797,162.5415039,44.5068359,161.4208984,44.5068359z"/>
	<path class="st2" d="M175.0795898,37.6816406c-2.0166016,0-3.5727539,0.6123047-4.6679688,1.8349609
		c-1.0957031,1.2226562-1.6430664,2.9453125-1.6430664,5.1669922c0,2.2412109,0.5463867,3.9755859,1.6386719,5.2050781
		s2.6430664,1.84375,4.6538086,1.84375c1.9667969,0,3.5024414-0.625,4.6074219-1.8759766
		c1.1044922-1.2509766,1.6567383-2.96875,1.6567383-5.1533203c0-2.1914062-0.5507812-3.9091797-1.6523438-5.1542969
		C178.5712891,38.3046875,177.0400391,37.6816406,175.0795898,37.6816406z M178.4873047,48.9130859
		c-0.7719727,0.9521484-1.9140625,1.4287109-3.4262695,1.4287109c-1.5,0-2.6435547-0.4775391-3.4311523-1.4335938
		c-0.7871094-0.9550781-1.1806641-2.3574219-1.1806641-4.2050781c0-1.8242188,0.3935547-3.2138672,1.1806641-4.1689453
		c0.7875977-0.9550781,1.9375-1.4326172,3.449707-1.4326172c1.5063477,0,2.6435547,0.4746094,3.4121094,1.4228516
		c0.769043,0.9492188,1.1533203,2.3427734,1.1533203,4.1787109
		C179.6450195,46.5576172,179.2587891,47.9609375,178.4873047,48.9130859z"/>
	<path class="st2" d="M188.5512695,37.8964844h-4.1826172v13.6494141h3.78125c2.2963867,0,4.0561523-0.5957031,5.2792969-1.7880859
		c1.2231445-1.1914062,1.8344727-2.9140625,1.8344727-5.1669922c0-2.1103516-0.5878906-3.7529297-1.7646484-4.9296875
		C192.3227539,38.4853516,190.6733398,37.8964844,188.5512695,37.8964844z M192.1547852,48.7773438
		c-0.9521484,0.9306641-2.3745117,1.3964844-4.2666016,1.3964844h-1.9326172V39.2695312h2.3061523
		c1.7612305,0,3.0888672,0.4511719,3.9819336,1.3535156s1.3393555,2.2441406,1.3393555,4.0234375
		C193.5830078,46.4707031,193.1069336,47.8476562,192.1547852,48.7773438z"/>
	<path class="st2" d="M207.0268555,46.7841797c0,1.1455078-0.3110352,2.0244141-0.9335938,2.6376953
		s-1.5092773,0.9199219-2.6606445,0.9199219c-1.2075195,0-2.1225586-0.3046875-2.7446289-0.9150391
		c-0.6225586-0.6103516-0.9335938-1.484375-0.9335938-2.6230469v-8.9072266h-1.5874023v8.7949219
		c0,1.5683594,0.449707,2.8007812,1.3491211,3.6972656c0.8994141,0.8955078,2.1708984,1.34375,3.8139648,1.34375
		s2.9345703-0.4443359,3.8740234-1.3349609c0.9399414-0.8896484,1.4101562-2.1132812,1.4101562-3.6689453v-8.8320312h-1.5874023
		V46.7841797z"/>
	<path class="st2" d="M218.0712891,39.1201172c1.0332031,0,2.0664062,0.2421875,3.0996094,0.7275391l0.6723633-1.3623047
		c-1.0708008-0.5234375-2.3217773-0.7841797-3.753418-0.7841797c-1.3442383,0-2.5126953,0.2861328-3.5053711,0.8583984
		c-0.9926758,0.5732422-1.7519531,1.3876953-2.277832,2.4462891c-0.5263672,1.0576172-0.7890625,2.2900391-0.7890625,3.6972656
		c0,2.2460938,0.5463867,3.9794922,1.6386719,5.1992188c1.0922852,1.2207031,2.6430664,1.8300781,4.6538086,1.8300781
		c1.3876953,0,2.5546875-0.1767578,3.5009766-0.5322266v-1.390625c-1.2202148,0.3417969-2.3061523,0.5136719-3.2583008,0.5136719
		c-1.5498047,0-2.7431641-0.4873047-3.5805664-1.4609375c-0.8369141-0.9746094-1.2553711-2.3544922-1.2553711-4.140625
		c0-1.7363281,0.434082-3.1044922,1.3022461-4.1035156S216.5712891,39.1201172,218.0712891,39.1201172z"/>
	<polygon class="st2" points="222.5805664,39.3066406 226.9033203,39.3066406 226.9033203,51.5458984 228.4902344,51.5458984 
		228.4902344,39.3066406 232.8129883,39.3066406 232.8129883,37.8964844 222.5805664,37.8964844 	"/>
	<polygon class="st2" points="238.125,39.3066406 242.4482422,39.3066406 242.4482422,51.5458984 244.0351562,51.5458984 
		244.0351562,39.3066406 248.3574219,39.3066406 248.3574219,37.8964844 238.125,37.8964844 	"/>
	<rect x="250.4111328" y="37.8964844" class="st2" width="1.5869141" height="13.6494141"/>
	<polygon class="st2" points="254.0332031,39.3066406 258.3564453,39.3066406 258.3564453,51.5458984 259.9433594,51.5458984 
		259.9433594,39.3066406 264.265625,39.3066406 264.265625,37.8964844 254.0332031,37.8964844 	"/>
	<polygon class="st2" points="267.90625,37.8964844 266.3193359,37.8964844 266.3193359,51.5458984 273.9287109,51.5458984 
		273.9287109,50.1083984 267.90625,50.1083984 	"/>
	<polygon class="st2" points="283.8525391,39.3066406 283.8525391,37.8964844 276.2431641,37.8964844 276.2431641,51.5458984 
		283.8525391,51.5458984 283.8525391,50.1269531 277.8300781,50.1269531 277.8300781,45.1044922 283.4882812,45.1044922 
		283.4882812,43.7041016 277.8300781,43.7041016 277.8300781,39.3066406 	"/>
</g>
</svg>
