<?xml version="1.0" encoding="utf-8"?>
<!-- Generator: Adobe Illustrator 21.0.0, SVG Export Plug-In . SVG Version: 6.00 Build 0)  -->
<svg version="1.1" id="Layer_1" xmlns="http://www.w3.org/2000/svg" width="430" height="70" xmlns:xlink="http://www.w3.org/1999/xlink" x="0px" y="0px"
	 viewBox="0 0 430 70" style="enable-background:new 0 0 430 70;" xml:space="preserve">
<style type="text/css">
	.st0{opacity:0.3;fill:#E1E1E1;enable-background:new    ;}
	.st1{fill:#222222;stroke:#222222;stroke-width:0.1;stroke-miterlimit:10;}
</style>
<rect id="Background_1_" class="st0" width="430" height="70"/>
<g>
	<rect x="180.7700195" y="26.9526367" class="st1" width="1.5869141" height="13.6489258"/>
	<path class="st1" d="M195.277832,34.7851562c-0.0126953,0.3925781,0.0029297,1.0439453,0.046875,1.9560547
		c0.043457,0.9121094,0.0712891,1.4521484,0.0839844,1.6201172h-0.074707l-7.440918-11.4086914h-1.7924805v13.6489258h1.4658203
		v-7.7583008c0-1.1201172-0.0498047-2.3525391-0.1494141-3.6967773h0.074707l7.4594727,11.4550781h1.8110352V26.9526367h-1.484375
		V34.7851562z"/>
	<polygon class="st1" points="209.2915039,32.7592773 202.1025391,32.7592773 202.1025391,26.9526367 200.515625,26.9526367 
		200.515625,40.6015625 202.1025391,40.6015625 202.1025391,34.1787109 209.2915039,34.1787109 209.2915039,40.6015625 
		210.878418,40.6015625 210.878418,26.9526367 209.2915039,26.9526367 	"/>
	<polygon class="st1" points="214.6220703,40.6015625 222.2304688,40.6015625 222.2304688,39.1826172 216.2089844,39.1826172 
		216.2089844,34.1591797 221.8662109,34.1591797 221.8662109,32.7592773 216.2089844,32.7592773 216.2089844,28.3623047 
		222.2304688,28.3623047 222.2304688,26.9526367 214.6220703,26.9526367 	"/>
	<path class="st1" d="M233.9091797,30.8081055c0-1.2880859-0.3994141-2.2529297-1.1992188-2.894043
		s-2.0371094-0.9614258-3.7109375-0.9614258h-3.7441406v13.6489258h1.5869141v-5.6757812h2.8476562l3.3056641,5.6757812h1.8759766
		l-3.7060547-6.1337891C232.9951172,33.8330078,233.9091797,32.6132812,233.9091797,30.8081055z M229.0175781,33.5625h-2.1757812
		v-5.21875h2.0634766c1.1767578,0,2.03125,0.1992188,2.5625,0.597168c0.5322266,0.3984375,0.7988281,1.0488281,0.7988281,1.9511719
		c0,0.8901367-0.2617188,1.5576172-0.7841797,2.0024414C230.9589844,33.3398438,230.1376953,33.5625,229.0175781,33.5625z"/>
	<rect x="237.0742188" y="26.9526367" class="st1" width="1.5869141" height="13.6489258"/>
	<polygon class="st1" points="240.6972656,26.9526367 240.6972656,28.3623047 245.0195312,28.3623047 245.0195312,40.6015625 
		246.6064453,40.6015625 246.6064453,28.3623047 250.9296875,28.3623047 250.9296875,26.9526367 	"/>
</g>
</svg>
