<?xml version="1.0" encoding="utf-8"?>
<!-- Generator: Adobe Illustrator 21.0.0, SVG Export Plug-In . SVG Version: 6.00 Build 0)  -->
<svg version="1.1" id="Layer_1" xmlns="http://www.w3.org/2000/svg" width="430" height="70" xmlns:xlink="http://www.w3.org/1999/xlink" x="0px" y="0px"
	 viewBox="0 0 430 70" style="enable-background:new 0 0 430 70;" xml:space="preserve">
<style type="text/css">
	.st0{opacity:0.3;fill:#E1E1E1;enable-background:new    ;}
	.st1{fill:#888888;}
</style>
<rect class="st0" width="430" height="70"/>
<g>
	<g>
		<polygon class="st1" points="71.1259766,33.9465332 64.0366211,33.9465332 64.0366211,28.1398926 62.3500977,28.1398926 
			62.3500977,41.8884277 64.0366211,41.8884277 64.0366211,35.4655762 71.1259766,35.4655762 71.1259766,41.8884277 
			72.8125,41.8884277 72.8125,28.1398926 71.1259766,28.1398926 		"/>
		<path class="st1" d="M82.1079102,27.9250488c-2.0224609,0-3.6054688,0.6225586-4.7050781,1.8510742
			c-1.0986328,1.2265625-1.6557617,2.9760742-1.6557617,5.2006836c0,2.2421875,0.5551758,4.0043945,1.6508789,5.237793
			c1.097168,1.234375,2.675293,1.8603516,4.6914062,1.8603516c1.9726562,0,3.5356445-0.6367188,4.6450195-1.8925781
			c1.1074219-1.2548828,1.6689453-3,1.6689453-5.1870117c0-2.1933594-0.5600586-3.9379883-1.6645508-5.1865234
			C85.6323242,28.5588379,84.0742188,27.9250488,82.1079102,27.9250488z M82.0893555,40.5847168
			c-1.4775391,0-2.6186523-0.4765625-3.3925781-1.4160156c-0.7758789-0.9414062-1.1694336-2.3452148-1.1694336-4.1733398
			c0-1.8027344,0.3935547-3.1948242,1.1694336-4.1367188c0.7744141-0.9389648,1.921875-1.4150391,3.4111328-1.4150391
			c1.4833984,0,2.6181641,0.4731445,3.3730469,1.4052734c0.7583008,0.9355469,1.1425781,2.3305664,1.1425781,4.1464844
			c0,1.8339844-0.3857422,3.2397461-1.1469727,4.1791992C84.7182617,40.1101074,83.5786133,40.5847168,82.0893555,40.5847168z"/>
		<path class="st1" d="M98.1503906,39.3991699l-4.315918-11.2275391l-0.0126953-0.0317383h-2.4741211v13.7485352h1.5654297
			v-8.7324219c0-1.269043-0.0410156-2.3847656-0.121582-3.3178711l4.5996094,12.0180664l0.0126953,0.0322266h1.347168
			l4.6513672-12.0375977c-0.0820312,1.1401367-0.1235352,2.2138672-0.1235352,3.1933594v8.8442383h1.6870117V28.1398926h-2.4555664
			L98.1503906,39.3991699z"/>
		<polygon class="st1" points="108.609375,41.8884277 116.3178711,41.8884277 116.3178711,40.369873 110.2958984,40.369873 
			110.2958984,35.4460449 115.9536133,35.4460449 115.9536133,33.9465332 110.2958984,33.9465332 110.2958984,29.6491699 
			116.3178711,29.6491699 116.3178711,28.1398926 108.609375,28.1398926 		"/>
		<path class="st1" d="M153.0498047,34.2390137c-0.8442383-0.3017578-1.4804688-0.581543-1.890625-0.8310547
			c-0.4047852-0.2470703-0.6958008-0.5205078-0.8647461-0.8134766c-0.1689453-0.2924805-0.2548828-0.675293-0.2548828-1.137207
			c0-0.621582,0.2324219-1.1142578,0.6899414-1.4638672c0.4619141-0.3525391,1.1142578-0.53125,1.9394531-0.53125
			c1.0517578,0,2.1508789,0.237793,3.2666016,0.7055664l0.0488281,0.0205078l0.5126953-1.4306641l0.0161133-0.0439453
			l-0.0429688-0.019043c-1.1401367-0.4985352-2.40625-0.7509766-3.7636719-0.7509766
			c-1.3061523,0-2.3720703,0.3173828-3.1679688,0.9443359c-0.7993164,0.6293945-1.2045898,1.4873047-1.2045898,2.550293
			c0,1.0102539,0.2788086,1.8413086,0.8291016,2.4697266c0.5478516,0.6264648,1.4702148,1.1743164,2.7421875,1.6289062
			c0.9038086,0.3227539,1.5844727,0.6137695,2.0224609,0.8647461c0.4360352,0.2504883,0.7504883,0.5263672,0.9345703,0.8193359
			c0.184082,0.2915039,0.2773438,0.6733398,0.2773438,1.1352539c0,0.6962891-0.2636719,1.2460938-0.7827148,1.6357422
			c-0.5244141,0.3935547-1.3183594,0.5927734-2.3603516,0.5927734c-0.6425781,0-1.2983398-0.0693359-1.9501953-0.2050781
			c-0.6533203-0.1357422-1.2661133-0.3232422-1.8203125-0.5566406l-0.0693359-0.0292969v1.6376953l0.0283203,0.0136719
			c0.8730469,0.4179688,2.1367188,0.6298828,3.7558594,0.6298828c1.4980469,0,2.7021484-0.3427734,3.578125-1.0175781
			c0.8798828-0.6796875,1.3261719-1.6386719,1.3261719-2.8505859c0-0.9423828-0.2758789-1.7197266-0.8208008-2.3110352
			C155.484375,35.307373,154.4833984,34.7497559,153.0498047,34.2390137z"/>
		<polygon class="st1" points="168.3129883,33.9465332 161.2236328,33.9465332 161.2236328,28.1398926 159.5371094,28.1398926 
			159.5371094,41.8884277 161.2236328,41.8884277 161.2236328,35.4655762 168.3129883,35.4655762 168.3129883,41.8884277 
			169.9995117,41.8884277 169.9995117,28.1398926 168.3129883,28.1398926 		"/>
		<path class="st1" d="M179.2949219,27.9250488c-2.0224609,0-3.6054688,0.6225586-4.7050781,1.8510742
			c-1.0986328,1.2265625-1.6557617,2.9760742-1.6557617,5.2006836c0,2.2421875,0.5551758,4.0043945,1.6508789,5.237793
			c1.097168,1.234375,2.675293,1.8603516,4.6914062,1.8603516c1.9726562,0,3.5356445-0.6367188,4.6450195-1.8925781
			c1.1074219-1.2548828,1.6689453-3,1.6689453-5.1870117c0-2.1933594-0.5600586-3.9379883-1.6645508-5.1865234
			C182.8193359,28.5588379,181.2612305,27.9250488,179.2949219,27.9250488z M179.2763672,40.5847168
			c-1.4775391,0-2.6186523-0.4765625-3.3925781-1.4160156c-0.7758789-0.9414062-1.1694336-2.3452148-1.1694336-4.1733398
			c0-1.8027344,0.3935547-3.1948242,1.1694336-4.1367188c0.7744141-0.9389648,1.921875-1.4150391,3.4111328-1.4150391
			c1.4833984,0,2.6181641,0.4731445,3.3730469,1.4052734c0.7583008,0.9355469,1.1425781,2.3305664,1.1425781,4.1464844
			c0,1.8339844-0.3857422,3.2397461-1.1469727,4.1791992C181.9052734,40.1101074,180.765625,40.5847168,179.2763672,40.5847168z"/>
		<path class="st1" d="M192.1225586,28.1398926h-3.5883789v13.7485352h1.6865234v-5.3681641h1.5561523
			c1.7583008,0,3.1303711-0.378418,4.078125-1.1259766c0.9511719-0.7504883,1.4331055-1.8364258,1.4331055-3.2275391
			C197.2880859,29.4943848,195.550293,28.1398926,192.1225586,28.1398926z M190.2207031,29.6115723h1.7241211
			c1.2338867,0,2.1538086,0.2197266,2.7338867,0.6533203c0.574707,0.4296875,0.8666992,1.0947266,0.8666992,1.9765625
			c0,0.9799805-0.3105469,1.7011719-0.9223633,2.144043c-0.6176758,0.4458008-1.6347656,0.6723633-3.0234375,0.6723633h-1.3789062
			V29.6115723z"/>
		<path d="M233.434082,28.1398926h-3.5878906v13.7485352h1.6865234v-5.3681641h1.5556641
			c1.7578125,0,3.1308594-0.378418,4.0791016-1.1259766c0.9501953-0.7504883,1.4326172-1.8364258,1.4326172-3.2275391
			C238.6000977,29.4943848,236.8618164,28.1398926,233.434082,28.1398926z M231.5327148,29.6115723h1.7236328
			c1.234375,0,2.1542969,0.2197266,2.7333984,0.6533203c0.5751953,0.4291992,0.8671875,1.0942383,0.8671875,1.9765625
			c0,0.9799805-0.3105469,1.7011719-0.921875,2.144043c-0.6181641,0.4458008-1.6347656,0.6723633-3.0234375,0.6723633h-1.3789062
			V29.6115723z"/>
		<path d="M250.1108398,32.045166c0-1.2978516-0.4091797-2.284668-1.2177734-2.9331055
			c-0.8056641-0.6450195-2.0654297-0.972168-3.7421875-0.972168h-3.7939453v13.7485352h1.6875v-5.6757812h2.7695312
			l3.2900391,5.6513672l0.0146484,0.0244141h1.9921875l-3.7197266-6.1567383
			C249.1958008,35.0861816,250.1108398,33.8464355,250.1108398,32.045166z M243.0444336,29.6306152h2.0126953
			c1.1601562,0,2.0126953,0.1977539,2.5322266,0.5874023c0.5175781,0.3862305,0.7792969,1.0292969,0.7792969,1.9111328
			c0,0.8706055-0.2587891,1.5317383-0.7675781,1.9643555c-0.5097656,0.4355469-1.328125,0.65625-2.4326172,0.65625h-2.1240234
			V29.6306152z"/>
		<path d="M258.8276367,27.9250488c-2.0224609,0-3.6054688,0.6225586-4.7050781,1.8510742
			c-1.0996094,1.2265625-1.65625,2.9765625-1.65625,5.2006836c0,2.2426758,0.5556641,4.0053711,1.6513672,5.237793
			c1.0957031,1.234375,2.6738281,1.8603516,4.6904297,1.8603516c1.9736328,0,3.5361328-0.6367188,4.6445312-1.8925781
			c1.1083984-1.2548828,1.6699219-3,1.6699219-5.1870117c0-2.1933594-0.5595703-3.9379883-1.6650391-5.1865234
			C262.3510742,28.5588379,260.793457,27.9250488,258.8276367,27.9250488z M258.8081055,40.5847168
			c-1.4775391,0-2.6191406-0.4765625-3.3916016-1.4160156c-0.7763672-0.9414062-1.1699219-2.3452148-1.1699219-4.1733398
			c0-1.8027344,0.3935547-3.1948242,1.1699219-4.1367188c0.7734375-0.9389648,1.9208984-1.4150391,3.4111328-1.4150391
			c1.4833984,0,2.6181641,0.4731445,3.3730469,1.4052734c0.7578125,0.9355469,1.1416016,2.3305664,1.1416016,4.1464844
			c0,1.8344727-0.3857422,3.2407227-1.1464844,4.1791992C261.4379883,40.1101074,260.2983398,40.5847168,258.8081055,40.5847168z"/>
		<path d="M272.2983398,28.1398926h-4.2314453v13.7485352h3.8300781c2.2998047,0,4.0878906-0.6064453,5.3154297-1.8017578
			c1.2265625-1.1962891,1.8486328-2.9462891,1.8486328-5.203125c0-2.1142578-0.5986328-3.784668-1.7792969-4.9648438
			C276.1020508,28.7380371,274.425293,28.1398926,272.2983398,28.1398926z M269.753418,29.6115723h2.2558594
			c1.7392578,0,3.0673828,0.4506836,3.9462891,1.3393555c0.8789062,0.8881836,1.3251953,2.2299805,1.3251953,3.9882812
			c0,1.8022461-0.4755859,3.1796875-1.4130859,4.0947266c-0.9394531,0.9179688-2.3632812,1.3828125-4.2314453,1.3828125h-1.8828125
			V29.6115723z"/>
		<path d="M290.7250977,37.0769043c0,1.1259766-0.3095703,2.0009766-0.9189453,2.6025391
			c-0.6103516,0.6005859-1.4941406,0.9052734-2.6259766,0.9052734c-1.1884766,0-2.0996094-0.3037109-2.7099609-0.9013672
			c-0.609375-0.5976562-0.9189453-1.4677734-0.9189453-2.5869141v-8.956543h-1.6865234v8.8442383
			c0,1.5742188,0.4589844,2.8300781,1.3642578,3.7324219c0.9042969,0.9013672,2.1992188,1.3583984,3.8486328,1.3583984
			s2.9648438-0.453125,3.9082031-1.3486328c0.9462891-0.8955078,1.4257812-2.1425781,1.4257812-3.7050781v-8.8813477h-1.6865234
			V37.0769043z"/>
		<path d="M301.8374023,27.9436035c-1.3457031,0-2.5341797,0.2910156-3.53125,0.8652344
			c-0.9970703,0.5756836-1.7695312,1.4057617-2.296875,2.4672852c-0.5273438,1.0595703-0.7939453,2.3110352-0.7939453,3.7192383
			c0,2.2495117,0.5556641,4.0102539,1.6513672,5.2329102c1.0957031,1.2255859,2.6738281,1.8466797,4.6904297,1.8466797
			c1.3896484,0,2.5742188-0.1796875,3.5185547-0.5351562l0.0322266-0.0126953v-1.4912109l-0.0634766,0.0185547
			c-1.2119141,0.3388672-2.3037109,0.5117188-3.2441406,0.5117188c-1.5273438,0-2.71875-0.4863281-3.5419922-1.4433594
			c-0.8251953-0.9599609-1.2441406-2.3427734-1.2441406-4.1088867c0-1.7163086,0.4345703-3.0859375,1.2910156-4.0703125
			c0.8535156-0.9829102,2.0361328-1.4814453,3.5136719-1.4814453c1.0214844,0,2.0566406,0.2436523,3.078125,0.7241211
			l0.0449219,0.0205078l0.6933594-1.4072266l0.0224609-0.0449219l-0.0458984-0.0219727
			C304.5405273,28.2087402,303.2700195,27.9436035,301.8374023,27.9436035z"/>
		<polygon points="306.2788086,29.6491699 310.6010742,29.6491699 310.6010742,41.8884277 312.2885742,41.8884277 
			312.2885742,29.6491699 316.6108398,29.6491699 316.6108398,28.1398926 306.2788086,28.1398926 		"/>
		<polygon points="321.8227539,29.6491699 326.1450195,29.6491699 326.1450195,41.8884277 327.8325195,41.8884277 
			327.8325195,29.6491699 332.1547852,29.6491699 332.1547852,28.1398926 321.8227539,28.1398926 		"/>
		<rect x="334.1098633" y="28.1398926" width="1.6865234" height="13.7485352"/>
		<polygon points="337.730957,29.6491699 342.0532227,29.6491699 342.0532227,41.8884277 343.7407227,41.8884277 
			343.7407227,29.6491699 348.0629883,29.6491699 348.0629883,28.1398926 337.730957,28.1398926 		"/>
		<polygon points="351.7045898,28.1398926 350.0180664,28.1398926 350.0180664,41.8884277 357.7260742,41.8884277 
			357.7260742,40.3513184 351.7045898,40.3513184 		"/>
		<polygon points="367.6499023,29.6491699 367.6499023,28.1398926 359.9418945,28.1398926 359.9418945,41.8884277 
			367.6499023,41.8884277 367.6499023,40.369873 361.628418,40.369873 361.628418,35.4460449 367.2856445,35.4460449 
			367.2856445,33.9465332 361.628418,33.9465332 361.628418,29.6491699 		"/>
	</g>
	<polygon class="st1" points="214.8783875,27.9869289 209.7148132,41.8384933 211.4784851,41.8384933 216.6420593,27.9869289 	"/>
	<polygon class="st1" points="135.3623657,27.9869289 130.1987915,41.8384933 131.9624634,41.8384933 137.1260376,27.9869289 	"/>
</g>
</svg>
