<?xml version="1.0" encoding="utf-8"?>
<!-- Generator: Adobe Illustrator 21.0.0, SVG Export Plug-In . SVG Version: 6.00 Build 0)  -->
<svg version="1.1" id="Layer_1" xmlns="http://www.w3.org/2000/svg" width="430" height="70" xmlns:xlink="http://www.w3.org/1999/xlink" x="0px" y="0px"
	 viewBox="0 0 430 70" style="enable-background:new 0 0 430 70;" xml:space="preserve">
<style type="text/css">
	.st0{enable-background:new    ;}
	.st1{fill:#E1E1E1;}
	.st2{fill:#222222;}
</style>
<g class="st0">
	<path class="st1" d="M48.4,42.2h-1.7v-6.7h-7.5v6.7h-1.7V27.9h1.7V34h7.5v-6.1h1.7V42.2z"/>
	<path class="st1" d="M64.7,35c0,2.3-0.6,4.1-1.7,5.4s-2.8,2-4.8,2c-2.1,0-3.7-0.6-4.9-1.9s-1.7-3.1-1.7-5.4c0-2.3,0.6-4.1,1.7-5.4
		s2.8-1.9,4.9-1.9c2.1,0,3.7,0.7,4.8,2C64.1,31.1,64.7,32.7,64.7,35z M53.3,35c0,1.9,0.4,3.4,1.2,4.4s2,1.5,3.6,1.5s2.8-0.5,3.6-1.5
		s1.2-2.5,1.2-4.4s-0.4-3.4-1.2-4.4s-2-1.5-3.6-1.5s-2.8,0.5-3.6,1.5S53.3,33.1,53.3,35z"/>
	<path class="st1" d="M74.2,42.2l-4.8-12.7h-0.1c0.1,1,0.1,2.2,0.1,3.6v9.1h-1.5V27.9h2.5l4.5,11.8H75l4.6-11.8H82v14.3h-1.7V33
		c0-1.1,0-2.2,0.1-3.4h-0.1l-4.9,12.6H74.2z"/>
	<path class="st1" d="M93.9,42.2h-8V27.9h8v1.5h-6.3V34h5.9v1.5h-5.9v5.3h6.3V42.2z"/>
</g>
<g class="st0">
	<path class="st2" d="M112.6,27.9l-5.3,14.3h-1.6l5.3-14.3C111,27.9,112.6,27.9,112.6,27.9z"/>
</g>
<g class="st0">
	<path class="st1" d="M133.4,38.4c0,1.3-0.5,2.2-1.4,2.9s-2.1,1.1-3.7,1.1c-1.7,0-3-0.2-3.9-0.7v-1.6c0.6,0.2,1.2,0.4,1.9,0.6
		s1.4,0.2,2.1,0.2c1.1,0,1.9-0.2,2.5-0.6s0.8-1,0.8-1.8c0-0.5-0.1-0.9-0.3-1.2s-0.5-0.6-1-0.9s-1.2-0.6-2.1-0.9
		c-1.3-0.5-2.3-1-2.8-1.7s-0.9-1.5-0.9-2.5c0-1.1,0.4-2,1.2-2.6s1.9-1,3.3-1s2.7,0.3,3.9,0.8l-0.5,1.4c-1.2-0.5-2.3-0.7-3.4-0.7
		c-0.9,0-1.6,0.2-2.1,0.6s-0.7,0.9-0.7,1.6c0,0.5,0.1,0.9,0.3,1.2s0.5,0.6,0.9,0.9s1.1,0.6,2,0.9c1.5,0.5,2.5,1.1,3.1,1.7
		S133.4,37.4,133.4,38.4z"/>
	<path class="st1" d="M147.2,42.2h-1.7v-6.7H138v6.7h-1.7V27.9h1.7V34h7.5v-6.1h1.7V42.2z"/>
	<path class="st1" d="M163.5,35c0,2.3-0.6,4.1-1.7,5.4s-2.8,2-4.8,2c-2.1,0-3.7-0.6-4.9-1.9s-1.7-3.1-1.7-5.4c0-2.3,0.6-4.1,1.7-5.4
		s2.8-1.9,4.9-1.9c2.1,0,3.7,0.7,4.8,2S163.5,32.7,163.5,35z M152.1,35c0,1.9,0.4,3.4,1.2,4.4s2,1.5,3.6,1.5s2.8-0.5,3.6-1.5
		s1.2-2.5,1.2-4.4s-0.4-3.4-1.2-4.4s-2-1.5-3.6-1.5s-2.8,0.5-3.6,1.5S152.1,33.1,152.1,35z"/>
	<path class="st1" d="M175.7,32c0,1.4-0.5,2.6-1.5,3.3s-2.4,1.2-4.2,1.2h-1.7v5.6h-1.7V27.9h3.7C174,27.9,175.7,29.3,175.7,32z
		 M168.3,35.1h1.5c1.5,0,2.5-0.2,3.2-0.7s1-1.2,1-2.3c0-0.9-0.3-1.6-0.9-2.1s-1.6-0.7-2.9-0.7h-1.9L168.3,35.1L168.3,35.1z"/>
</g>
<g class="st0">
	<path class="st2" d="M194.3,27.9L189,42.1h-1.6l5.3-14.3h1.6V27.9z"/>
</g>
<g class="st0">
	<path class="st1" d="M215.1,38.4c0,1.3-0.5,2.2-1.4,2.9s-2.1,1.1-3.7,1.1c-1.7,0-3-0.2-3.9-0.7v-1.6c0.6,0.2,1.2,0.4,1.9,0.6
		s1.4,0.2,2.1,0.2c1.1,0,1.9-0.2,2.5-0.6s0.8-1,0.8-1.8c0-0.5-0.1-0.9-0.3-1.2s-0.5-0.6-1-0.9s-1.2-0.6-2.1-0.9
		c-1.3-0.5-2.3-1-2.8-1.7s-0.9-1.5-0.9-2.5c0-1.1,0.4-2,1.2-2.6s1.9-1,3.3-1c1.4,0,2.7,0.3,3.9,0.8l-0.5,1.4
		c-1.2-0.5-2.3-0.7-3.4-0.7c-0.9,0-1.6,0.2-2.1,0.6s-0.7,0.9-0.7,1.6c0,0.5,0.1,0.9,0.3,1.2s0.5,0.6,0.9,0.9s1.1,0.6,2,0.9
		c1.5,0.5,2.5,1.1,3.1,1.7C214.8,36.6,215.1,37.4,215.1,38.4z"/>
	<path class="st1" d="M228.9,42.2h-1.7v-6.7h-7.5v6.7H218V27.9h1.7V34h7.5v-6.1h1.7V42.2z"/>
	<path class="st1" d="M245.2,35c0,2.3-0.6,4.1-1.7,5.4s-2.8,2-4.8,2c-2.1,0-3.7-0.6-4.9-1.9s-1.7-3.1-1.7-5.4c0-2.3,0.6-4.1,1.7-5.4
		s2.8-1.9,4.9-1.9c2.1,0,3.7,0.7,4.8,2S245.2,32.7,245.2,35z M233.8,35c0,1.9,0.4,3.4,1.2,4.4s2,1.5,3.6,1.5s2.8-0.5,3.6-1.5
		s1.2-2.5,1.2-4.4s-0.4-3.4-1.2-4.4s-2-1.5-3.6-1.5s-2.8,0.5-3.6,1.5S233.8,33.1,233.8,35z"/>
	<path class="st1" d="M256.3,42.2h-8V27.9h8v1.5H250V34h5.9v1.5H250v5.3h6.3V42.2z"/>
	<path class="st1" d="M267.6,38.4c0,1.3-0.5,2.2-1.4,2.9s-2.1,1.1-3.7,1.1c-1.7,0-3-0.2-3.9-0.7v-1.6c0.6,0.2,1.2,0.4,1.9,0.6
		s1.4,0.2,2.1,0.2c1.1,0,1.9-0.2,2.5-0.6s0.8-1,0.8-1.8c0-0.5-0.1-0.9-0.3-1.2s-0.5-0.6-1-0.9s-1.2-0.6-2.1-0.9
		c-1.3-0.5-2.3-1-2.8-1.7s-0.9-1.5-0.9-2.5c0-1.1,0.4-2,1.2-2.6s1.9-1,3.3-1s2.7,0.3,3.9,0.8l-0.5,1.4c-1.2-0.5-2.3-0.7-3.4-0.7
		c-0.9,0-1.6,0.2-2.1,0.6s-0.7,0.9-0.7,1.6c0,0.5,0.1,0.9,0.3,1.2s0.5,0.6,0.9,0.9s1.1,0.6,2,0.9c1.5,0.5,2.5,1.1,3.1,1.7
		S267.6,37.4,267.6,38.4z"/>
</g>
<g class="st0">
	<path class="st2" d="M286,27.9l-5.3,14.3h-1.6l5.3-14.3C284.4,27.9,286,27.9,286,27.9z"/>
</g>
<g>
	<path class="st2" d="M306.8,38.3c0,1.3-0.5,2.2-1.4,2.9s-2.1,1.1-3.7,1.1c-1.7,0-3-0.2-3.9-0.7V40c0.6,0.2,1.2,0.4,1.9,0.6
		c0.7,0.1,1.4,0.2,2.1,0.2c1.1,0,1.9-0.2,2.5-0.6c0.6-0.4,0.8-1,0.8-1.8c0-0.5-0.1-0.9-0.3-1.2c-0.2-0.3-0.5-0.6-1-0.9
		c-0.5-0.3-1.2-0.6-2.1-0.9c-1.3-0.5-2.3-1-2.8-1.7c-0.6-0.7-0.9-1.5-0.9-2.5c0-1.1,0.4-2,1.2-2.6c0.8-0.7,1.9-1,3.3-1
		s2.7,0.3,3.9,0.8l-0.5,1.4c-1.2-0.5-2.3-0.7-3.4-0.7c-0.9,0-1.6,0.2-2.1,0.6s-0.7,0.9-0.7,1.6c0,0.5,0.1,0.9,0.3,1.2
		c0.2,0.3,0.5,0.6,0.9,0.9c0.4,0.3,1.1,0.6,2,0.9c1.5,0.5,2.5,1.1,3.1,1.7C306.5,36.6,306.8,37.4,306.8,38.3z"/>
	<path class="st2" d="M320.9,42.1H319l-7.8-12h-0.1c0.1,1.4,0.2,2.7,0.2,3.9v8.1h-1.5V27.9h1.9l7.8,11.9h0.1c0-0.2,0-0.7-0.1-1.7
		c0-1-0.1-1.6,0-2v-8.2h1.6v14.2H320.9z"/>
	<path class="st2" d="M332.8,42.1h-8V27.9h8v1.5h-6.3V34h5.9v1.5h-5.9v5.3h6.3V42.1z"/>
	<path class="st2" d="M344.9,42.1l-1.8-4.5h-5.7l-1.8,4.5H334l5.6-14.3h1.4l5.6,14.3H344.9z M342.6,36.1l-1.7-4.4
		c-0.2-0.6-0.4-1.2-0.7-2.1c-0.1,0.6-0.3,1.3-0.6,2.1l-1.7,4.4H342.6z"/>
	<path class="st2" d="M358.9,42.1h-2l-5.2-6.9l-1.5,1.3v5.6h-1.7V27.9h1.7V35l6.5-7.1h2l-5.7,6.2L358.9,42.1z"/>
	<path class="st2" d="M368.8,42.1h-8V27.9h8v1.5h-6.3V34h5.9v1.5h-5.9v5.3h6.3V42.1z"/>
	<path class="st2" d="M373.7,36.2v5.9H372V27.9h3.9c1.8,0,3,0.3,3.9,1s1.3,1.7,1.3,3c0,1.9-1,3.2-2.9,3.8l3.9,6.4h-2l-3.5-5.9H373.7
		z M373.7,34.8h2.3c1.2,0,2-0.2,2.6-0.7s0.8-1.2,0.8-2.1s-0.3-1.6-0.8-2s-1.5-0.6-2.7-0.6h-2.2L373.7,34.8L373.7,34.8z"/>
	<path class="st2" d="M392.4,38.3c0,1.3-0.5,2.2-1.4,2.9s-2.1,1.1-3.7,1.1c-1.7,0-3-0.2-3.9-0.7V40c0.6,0.2,1.2,0.4,1.9,0.6
		s1.4,0.2,2.1,0.2c1.1,0,1.9-0.2,2.5-0.6s0.8-1,0.8-1.8c0-0.5-0.1-0.9-0.3-1.2s-0.5-0.6-1-0.9s-1.2-0.6-2.1-0.9
		c-1.3-0.5-2.3-1-2.8-1.7s-0.9-1.5-0.9-2.5c0-1.1,0.4-2,1.2-2.6s1.9-1,3.3-1s2.7,0.3,3.9,0.8l-0.5,1.4c-1.2-0.5-2.3-0.7-3.4-0.7
		c-0.9,0-1.6,0.2-2.1,0.6s-0.7,0.9-0.7,1.6c0,0.5,0.1,0.9,0.3,1.2s0.5,0.6,0.9,0.9s1.1,0.6,2,0.9c1.5,0.5,2.5,1.1,3.1,1.7
		S392.4,37.4,392.4,38.3z"/>
</g>
</svg>
