<?xml version="1.0" encoding="utf-8"?>
<!-- Generator: Adobe Illustrator 21.0.0, SVG Export Plug-In . SVG Version: 6.00 Build 0)  -->
<svg version="1.1" id="Layer_1" xmlns="http://www.w3.org/2000/svg" width="50" height="50" xmlns:xlink="http://www.w3.org/1999/xlink" x="0px" y="0px"
	 viewBox="0 0 50 50" style="enable-background:new 0 0 50 50;" xml:space="preserve">
<style type="text/css">
	.st0{fill:#222222;}
</style>
<g>
	<path class="st0" d="M17.7999992,21.1000004h14.2999992c0.5,0,1-0.3999996,1-1s-0.4000015-1-1-1H17.7999992c-0.5,0-1,0.3999996-1,1
		S17.2999992,21.1000004,17.7999992,21.1000004z"/>
	<path class="st0" d="M32.2000008,24H17.7999992c-0.5,0-1,0.3999996-1,1s0.3999996,1,1,1h14.2999992c0.5,0,1-0.3999996,1-1
		S32.7000008,24,32.2000008,24z"/>
	<path class="st0" d="M32.2000008,28.8999996H17.7999992c-0.5,0-1,0.3999996-1,1s0.3999996,1,1,1h14.2999992c0.5,0,1-0.3999996,1-1
		S32.7000008,28.8999996,32.2000008,28.8999996z"/>
</g>
<path class="st0" d="M25,10c-8.2999992,0-15,6.7000008-15,15s6.7000008,15,15,15s15-6.7000008,15-15S33.2999992,10,25,10z
	 M25,38.0999985c-7.2000008,0-13.1000004-5.9000015-13.1000004-13.1000004S17.7999992,11.8999996,25,11.8999996
	S38.0999985,17.7999992,38.0999985,25S32.2000008,38.0999985,25,38.0999985z"/>
</svg>
