<?xml version="1.0" encoding="utf-8"?>
<!-- Generator: Adobe Illustrator 21.0.0, SVG Export Plug-In . SVG Version: 6.00 Build 0)  -->
<svg version="1.1" id="Layer_1" xmlns="http://www.w3.org/2000/svg" width="50" height="50" xmlns:xlink="http://www.w3.org/1999/xlink" x="0px" y="0px"
	 viewBox="0 0 50 50" style="enable-background:new 0 0 50 50;" xml:space="preserve">
<style type="text/css">
	.st0{fill:#222222;}
</style>
<g>
	<path class="st0" d="M10.8999996,17.5H39c0.5999985,0,1.0999985-0.5,1.0999985-1.1000004s-0.5-1.1000004-1.0999985-1.1000004
		H10.8999996c-0.6000004,0-1.1000004,0.5-1.1000004,1.1000004S10.3000002,17.5,10.8999996,17.5z"/>
	<path class="st0" d="M39.0999985,23.8999996H10.8999996c-0.6000004,0-1.1000004,0.5-1.1000004,1.1000004
		s0.5,1.1000004,1.1000004,1.1000004H39c0.5999985,0,1.0999985-0.5,1.0999985-1.1000004
		C40.2000008,24.3999996,39.7000008,23.8999996,39.0999985,23.8999996z"/>
	<path class="st0" d="M39.0999985,32.5H10.8999996c-0.6000004,0-1.1000004,0.5-1.1000004,1.0999985
		s0.5,1.0999985,1.1000004,1.0999985H39c0.5999985,0,1.0999985-0.5,1.0999985-1.0999985S39.7000008,32.5,39.0999985,32.5z"/>
</g>
</svg>
