<?xml version="1.0" encoding="utf-8"?>
<!-- Generator: Adobe Illustrator 21.0.0, SVG Export Plug-In . SVG Version: 6.00 Build 0)  -->
<svg version="1.1" id="Layer_1" xmlns="http://www.w3.org/2000/svg" width="70" height="70" xmlns:xlink="http://www.w3.org/1999/xlink" x="0px" y="0px"
	 viewBox="0 0 50 50" style="enable-background:new 0 0 50 50;" xml:space="preserve">
<style type="text/css">
	.st0{fill:#E1E1E1;}
	.st1{fill:#222222;}
</style>
<rect id="Background" class="st0" width="50" height="50"/>
<g>
	<path class="st1" d="M32,20.3999996H18c-0.6000004,0-1-0.3999996-1-1l0,0c0-0.6000004,0.3999996-1,1-1h14
		c0.5999985,0,1,0.3999996,1,1l0,0C33,20,32.5999985,20.3999996,32,20.3999996z"/>
	<path class="st1" d="M32,25.3999996H18c-0.6000004,0-1-0.3999996-1-1l0,0c0-0.6000004,0.3999996-1,1-1h14
		c0.5999985,0,1,0.3999996,1,1l0,0C33,25,32.5999985,25.3999996,32,25.3999996z"/>
	<path class="st1" d="M32,30.3999996H18c-0.6000004,0-1-0.3999996-1-1l0,0c0-0.6000004,0.3999996-1,1-1h14
		c0.5999985,0,1,0.3999996,1,1l0,0C33,30,32.5999985,30.3999996,32,30.3999996z"/>
</g>
</svg>
