<?xml version="1.0" encoding="utf-8"?>
<!-- Generator: Adobe Illustrator 21.0.0, SVG Export Plug-In . SVG Version: 6.00 Build 0)  -->
<svg version="1.1" id="Layer_1" xmlns="http://www.w3.org/2000/svg" width="70" height="70" xmlns:xlink="http://www.w3.org/1999/xlink" x="0px" y="0px"
	 viewBox="0 0 50 50" style="enable-background:new 0 0 50 50;" xml:space="preserve">
<style type="text/css">
	.st0{opacity:0.4;fill:#E1E1E1;enable-background:new    ;}
	.st1{fill:#E1E1E1;}
	.st2{fill:#222222;}
</style>
<rect id="Background_1_" x="24.7999992" class="st0" width="25" height="2"/>
<rect id="Background_2_" x="24.7999992" y="3" class="st0" width="25" height="10.5"/>
<rect id="Background_3_" x="35" y="14.5" class="st0" width="12.7999992" height="10.5"/>
<rect id="Background_4_" x="20.7999992" y="14.5" class="st0" width="12.7999992" height="10.5"/>
<rect id="Background_5_" x="20.7999992" y="29" class="st0" width="27" height="1.3999996"/>
<rect id="Background_10_" x="20.7999992" y="31.3999996" class="st0" width="27" height="1.3999996"/>
<rect id="Background_11_" x="20.7999992" y="33.7999992" class="st0" width="27" height="1.4000015"/>
<rect id="Background_7_" x="7" y="36.2000008" class="st0" width="27" height="1.4000015"/>
<rect id="Background_12_" x="7" y="38.5999985" class="st0" width="27" height="1.4000015"/>
<rect id="Background_6_" x="35" y="36.2000008" class="st0" width="12.7999992" height="3.9000015"/>
<rect id="Background_8_" x="20.6000004" y="31.3999996" class="st0" width="8.3999996" height="7.8999996"/>
<rect id="Background_9_" x="20.7000008" y="43.2999992" class="st0" width="27.1000023" height="6.7000008"/>
<rect id="Background" class="st1" width="32" height="50"/>
<g>
	<path class="st2" d="M23,20.3999996H9c-0.6000004,0-1-0.3999996-1-1l0,0c0-0.6000004,0.3999996-1,1-1h14
		c0.6000004,0,1,0.3999996,1,1l0,0C24,20,23.6000004,20.3999996,23,20.3999996z"/>
	<path class="st2" d="M23,25.3999996H9c-0.6000004,0-1-0.3999996-1-1l0,0c0-0.6000004,0.3999996-1,1-1h14
		c0.6000004,0,1,0.3999996,1,1l0,0C24,25,23.6000004,25.3999996,23,25.3999996z"/>
	<path class="st2" d="M23,30.3999996H9c-0.6000004,0-1-0.3999996-1-1l0,0c0-0.6000004,0.3999996-1,1-1h14
		c0.6000004,0,1,0.3999996,1,1l0,0C24,30,23.6000004,30.3999996,23,30.3999996z"/>
</g>
</svg>
