<?xml version="1.0" encoding="utf-8"?>
<!-- Generator: Adobe Illustrator 24.2.0, SVG Export Plug-In . SVG Version: 6.00 Build 0)  -->
<svg version="1.1" id="Layer_1" xmlns="http://www.w3.org/2000/svg" xmlns:xlink="http://www.w3.org/1999/xlink" width="430" height="80" x="0px" y="0px"
	 viewBox="0 0 430 80" style="enable-background:new 0 0 430 80;" xml:space="preserve">
<style type="text/css">
	.st0{display:none;}
	.st1{display:inline;}
	.st2{fill:#222222;}
	.st3{font-family:'Lato-Regular';}
	.st4{font-size:23px;}
	.st5{fill:#555555;}
	.st6{font-size:9px;}
</style>
<g class="st0">
	<g class="st1">
		<text transform="matrix(1 0 0 1 96.0126572 42.8814163)" class="st2 st3 st4">12</text>
		<text transform="matrix(1 0 0 1 99.318161 54.7749596)" class="st5 st3 st6">days</text>
	</g>
	<g class="st1">
		<text transform="matrix(1 0 0 1 166.8049011 42.8814163)" class="st2 st3 st4">07</text>
		<text transform="matrix(1 0 0 1 165.2966614 54.7749596)" class="st5 st3 st6">hours</text>
	</g>
	<g class="st1">
		<text transform="matrix(1 0 0 1 236.5097351 42.8814163)" class="st2 st3 st4">40</text>
		<text transform="matrix(1 0 0 1 239.6713562 54.7749596)" class="st5 st3 st6">mins</text>
	</g>
	<g class="st1">
		<g>
			<path class="st2" d="M133.5300293,42.8800049c-1.4200439,11.6599731-11.3900146,20.7199707-23.4200439,20.7199707
				c-13.0100098,0-23.5999756-10.5899658-23.5999756-23.5999756s10.5899658-23.5999756,23.5999756-23.5999756V15
				c-13.8099976,0-25,11.1900024-25,25c0,6.9000244,2.7999878,13.1599731,7.3200073,17.6799927
				C96.960022,62.2000122,103.2000122,65,110.1099854,65c6.9100342,0,13.1500244-2.7999878,17.6799927-7.3200073
				c3.8800049-3.8800049,6.5-9.0499878,7.1500244-14.7999878H133.5300293z"/>
			<path class="st2" d="M199.0100098,23.6400146l-1.1199951,0.8699951C201.5100098,28.6599731,203.710022,34.0800171,203.710022,40
				c0,13.0100098-10.5900269,23.5999756-23.6000366,23.5999756S156.5100098,53.0100098,156.5100098,40
				s10.5899658-23.5999756,23.5999756-23.5999756V15c-13.8099976,0-25,11.1900024-25,25
				c0,6.9000244,2.7999878,13.1599731,7.3200073,17.6799927C166.960022,62.2000122,173.2000122,65,180.1099854,65
				c6.9100342,0,13.1500244-2.7999878,17.6799927-7.3200073C202.3099976,53.1599731,205.1099854,46.9000244,205.1099854,40
				C205.1099854,33.75,202.8099976,28.0200195,199.0100098,23.6400146z"/>
			<path class="st2" d="M274.789978,36l-1.3999634,0.1599731c0.2099609,1.25,0.3200073,2.5300293,0.3200073,3.8400269
				c0,13.0100098-10.5900269,23.5999756-23.6000366,23.5999756S226.5100098,53.0100098,226.5100098,40
				s10.5899658-23.5999756,23.5999756-23.5999756V15c-13.8099976,0-25,11.1900024-25,25
				c0,6.9000244,2.7999878,13.1599731,7.3200073,17.6799927C236.960022,62.2000122,243.2000122,65,250.1099854,65
				c6.9100342,0,13.1500244-2.7999878,17.6799927-7.3200073C272.3099976,53.1599731,275.1099854,46.9000244,275.1099854,40
				C275.1099854,38.6400146,275,37.2999878,274.789978,36z"/>
			<path class="st2" d="M337.5700073,22.3200073c-3.0499878-3.039978-6.8699951-5.2999878-11.1500244-6.4500122
				l-0.2799683,1.3699951c9.9899902,2.75,17.3499756,11.9100342,17.3499756,22.7600098
				c0,13.0100098-10.5899658,23.5999756-23.5999756,23.5999756S296.289978,53.0100098,296.289978,40
				s10.5900269-23.5999756,23.6000366-23.5999756V15c-13.8099976,0-25,11.1900024-25,25
				c0,6.9000244,2.7999878,13.1599731,7.3200073,17.6799927C306.7399902,62.2000122,312.9799805,65,319.8900146,65
				c6.9099731,0,13.1499634-2.7999878,17.6799927-7.3200073C342.0900269,53.1599731,344.8900146,46.9000244,344.8900146,40
				S342.0900269,26.8400269,337.5700073,22.3200073z"/>
		</g>
		<g>
			<text transform="matrix(1 0 0 1 307.0466309 42.8814163)" class="st2 st3 st4">05</text>
			<text transform="matrix(1 0 0 1 310.3297424 54.7749596)" class="st5 st3 st6">secs</text>
		</g>
	</g>
</g>
<g>
	<g>
		<g>
			<path class="st2" d="M99.3129883,41.3173828h3.5419922V30.0820312c0-0.3374023,0.0117188-0.6787109,0.034668-1.0239258
				l-2.9438477,2.5185547c-0.0766602,0.0615234-0.1533203,0.1054688-0.2299805,0.1323242s-0.1494141,0.0405273-0.21875,0.0405273
				c-0.1147461,0-0.2182617-0.0249023-0.3105469-0.074707c-0.0917969-0.0498047-0.1606445-0.109375-0.2070312-0.1782227
				l-0.6435547-0.8857422l4.8989258-4.2436523h1.6674805v14.9501953h3.2426758v1.5644531h-8.8320312V41.3173828z"/>
			<path class="st2" d="M116.2641602,26.2177734c0.6972656,0,1.3491211,0.1035156,1.9550781,0.3105469
				c0.6054688,0.2070312,1.128418,0.5078125,1.5693359,0.902832s0.7880859,0.8759766,1.0410156,1.4433594
				s0.3793945,1.2114258,0.3793945,1.9316406c0,0.6137695-0.0917969,1.1811523-0.2758789,1.7021484
				c-0.184082,0.5214844-0.4331055,1.0219727-0.7475586,1.5009766s-0.6767578,0.9428711-1.0869141,1.3911133
				c-0.4101562,0.4487305-0.8452148,0.9067383-1.3051758,1.3745117l-4.3354492,4.4389648
				c0.3066406-0.0839844,0.6171875-0.1513672,0.9316406-0.2011719c0.3139648-0.0498047,0.6166992-0.074707,0.9082031-0.074707
				h5.5200195c0.2226562,0,0.3989258,0.0649414,0.5292969,0.1958008c0.1303711,0.1298828,0.1953125,0.2988281,0.1953125,0.5058594
				v1.2421875h-10.9941406v-0.7021484c0-0.1455078,0.0288086-0.2949219,0.0864258-0.4482422
				s0.1513672-0.2949219,0.2817383-0.4257812l5.2783203-5.3012695c0.4370117-0.4448242,0.8359375-0.8720703,1.1962891-1.2822266
				s0.6689453-0.8222656,0.9257812-1.2363281s0.4541016-0.8339844,0.5922852-1.2592773
				c0.1376953-0.425293,0.2070312-0.8798828,0.2070312-1.362793s-0.0766602-0.90625-0.2299805-1.2705078
				c-0.1538086-0.3642578-0.3642578-0.6650391-0.6328125-0.902832s-0.5825195-0.4160156-0.9428711-0.534668
				c-0.3603516-0.1191406-0.7475586-0.1782227-1.1616211-0.1782227s-0.7973633,0.0610352-1.1499023,0.1835938
				c-0.3525391,0.1230469-0.6650391,0.293457-0.9370117,0.512207c-0.2724609,0.2182617-0.5024414,0.4770508-0.6904297,0.7758789
				c-0.1879883,0.2993164-0.3198242,0.6289062-0.3964844,0.9892578c-0.0615234,0.222168-0.1533203,0.3833008-0.2758789,0.4829102
				c-0.1230469,0.0996094-0.2836914,0.1494141-0.4833984,0.1494141c-0.0380859,0-0.0786133-0.0019531-0.1206055-0.0058594
				c-0.0419922-0.003418-0.090332-0.0092773-0.1435547-0.0170898l-1.0698242-0.184082
				c0.1074219-0.7509766,0.3144531-1.4160156,0.6210938-1.9951172c0.3066406-0.5786133,0.6958008-1.0639648,1.1674805-1.4545898
				c0.4711914-0.3911133,1.0117188-0.6884766,1.621582-0.8916016
				C114.9013672,26.3193359,115.5585938,26.2177734,116.2641602,26.2177734z"/>
		</g>
		<g>
			<path class="st5" d="M105.6904297,51.5537109c0,0.4824219-0.0766602,0.921875-0.2294922,1.3183594
				c-0.1533203,0.3955078-0.3691406,0.7353516-0.6479492,1.0166016c-0.2792969,0.2822266-0.6137695,0.5009766-1.003418,0.6552734
				c-0.3901367,0.1542969-0.8222656,0.2314453-1.2963867,0.2314453h-2.4116211v-6.4482422h2.4116211
				c0.4741211,0,0.90625,0.0771484,1.2963867,0.2314453c0.3896484,0.1542969,0.7241211,0.3740234,1.003418,0.6572266
				c0.2788086,0.2832031,0.4946289,0.6230469,0.6479492,1.0195312
				C105.6137695,50.6308594,105.6904297,51.0703125,105.6904297,51.5537109z M104.7949219,51.5537109
				c0-0.3964844-0.0541992-0.75-0.1621094-1.0625c-0.1079102-0.3115234-0.2607422-0.5761719-0.4589844-0.7919922
				c-0.1977539-0.2158203-0.4379883-0.3808594-0.7197266-0.4951172c-0.2822266-0.1132812-0.5957031-0.1708984-0.940918-0.1708984
				h-1.5341797v5.0361328h1.5341797c0.3452148,0,0.6586914-0.0576172,0.940918-0.171875
				c0.2817383-0.1132812,0.5219727-0.2773438,0.7197266-0.4921875c0.1982422-0.2148438,0.3510742-0.4775391,0.4589844-0.7900391
				C104.7407227,52.3037109,104.7949219,51.9492188,104.7949219,51.5537109z"/>
			<path class="st5" d="M111.9946289,54.7753906h-0.6748047c-0.078125,0-0.1411133-0.0195312-0.1889648-0.0585938
				c-0.0483398-0.0390625-0.0839844-0.0878906-0.1079102-0.1484375l-0.6030273-1.5566406h-2.8935547l-0.6030273,1.5566406
				c-0.0209961,0.0537109-0.0571289,0.1025391-0.1079102,0.1435547c-0.0512695,0.0429688-0.1142578,0.0634766-0.1889648,0.0634766
				h-0.675293l2.5786133-6.4482422h0.8862305L111.9946289,54.7753906z M107.769043,52.3818359h2.4077148l-1.0126953-2.6240234
				c-0.065918-0.1621094-0.1303711-0.3642578-0.1933594-0.6074219c-0.0332031,0.1230469-0.0654297,0.2363281-0.0966797,0.3398438
				c-0.0317383,0.1035156-0.0625,0.1943359-0.0922852,0.2724609L107.769043,52.3818359z"/>
			<path class="st5" d="M114.5556641,52.2099609v2.5654297h-0.8686523v-2.5654297l-2.3623047-3.8828125h0.7646484
				c0.078125,0,0.1396484,0.0195312,0.1845703,0.0585938s0.0839844,0.0869141,0.1171875,0.1435547l1.4760742,2.5068359
				c0.0600586,0.1044922,0.1103516,0.2041016,0.1508789,0.296875c0.0400391,0.0927734,0.0771484,0.1845703,0.1098633,0.2744141
				c0.0332031-0.0927734,0.0693359-0.1855469,0.1079102-0.2792969c0.0390625-0.0927734,0.0888672-0.1904297,0.1489258-0.2919922
				l1.4711914-2.5068359c0.0273438-0.0478516,0.0639648-0.09375,0.1103516-0.1367188
				c0.0463867-0.0439453,0.1074219-0.0654297,0.1821289-0.0654297h0.7739258L114.5556641,52.2099609z"/>
			<path class="st5" d="M121.0351562,49.3349609c-0.0268555,0.0449219-0.0556641,0.0791016-0.0854492,0.1015625
				s-0.0688477,0.0332031-0.1171875,0.0332031c-0.0507812,0-0.1098633-0.0253906-0.1777344-0.0761719
				c-0.0673828-0.0507812-0.152832-0.1074219-0.2563477-0.1689453s-0.2280273-0.1171875-0.3735352-0.1689453
				c-0.1455078-0.0507812-0.3217773-0.0761719-0.5288086-0.0761719c-0.1948242,0-0.3671875,0.0263672-0.5175781,0.0791016
				c-0.1499023,0.0517578-0.2749023,0.1230469-0.3754883,0.2128906c-0.1005859,0.0908203-0.1762695,0.1962891-0.2275391,0.3173828
				c-0.0507812,0.1220703-0.0761719,0.2529297-0.0761719,0.3935547c0,0.1806641,0.0439453,0.3300781,0.1328125,0.4482422
				c0.0883789,0.1181641,0.2050781,0.2197266,0.3510742,0.3037109c0.1450195,0.0839844,0.3100586,0.1572266,0.4946289,0.21875
				s0.3735352,0.125,0.5668945,0.1904297c0.1938477,0.0664062,0.3828125,0.140625,0.5673828,0.2226562
				c0.1845703,0.0830078,0.3491211,0.1875,0.4946289,0.3134766s0.2626953,0.2802734,0.3510742,0.4628906
				c0.0883789,0.1835938,0.1328125,0.4082031,0.1328125,0.6757812c0,0.28125-0.0478516,0.5458984-0.144043,0.7939453
				c-0.0957031,0.2470703-0.2363281,0.4628906-0.4204102,0.6455078c-0.1845703,0.1826172-0.4111328,0.3271484-0.6796875,0.4316406
				c-0.2685547,0.1054688-0.5737305,0.1582031-0.9155273,0.1582031c-0.4174805,0-0.7973633-0.0761719-1.1411133-0.2275391
				c-0.3432617-0.1513672-0.6367188-0.3564453-0.8793945-0.6142578l0.2519531-0.4140625
				c0.0239258-0.0332031,0.0532227-0.0605469,0.0874023-0.0830078c0.034668-0.0224609,0.0727539-0.0341797,0.1147461-0.0341797
				c0.0629883,0,0.1352539,0.0341797,0.2163086,0.1015625s0.1821289,0.1416016,0.3037109,0.2226562
				s0.2685547,0.1552734,0.440918,0.2226562s0.3833008,0.1015625,0.6323242,0.1015625
				c0.2070312,0,0.3916016-0.0283203,0.5532227-0.0859375c0.1621094-0.0566406,0.2993164-0.1367188,0.4121094-0.2402344
				c0.1123047-0.1035156,0.1987305-0.2275391,0.2587891-0.3710938c0.0595703-0.1445312,0.0898438-0.3046875,0.0898438-0.4814453
				c0-0.1953125-0.0444336-0.3554688-0.1328125-0.4794922c-0.0883789-0.125-0.2045898-0.2285156-0.3486328-0.3125
				s-0.3085938-0.1552734-0.4926758-0.2138672c-0.1845703-0.0585938-0.3735352-0.1191406-0.5673828-0.1806641
				c-0.1933594-0.0615234-0.3823242-0.1328125-0.5668945-0.2138672c-0.1845703-0.0800781-0.3486328-0.1855469-0.4926758-0.3144531
				s-0.2602539-0.2900391-0.3486328-0.4833984c-0.0888672-0.1943359-0.1328125-0.4335938-0.1328125-0.7177734
				c0-0.2285156,0.0439453-0.4492188,0.1328125-0.6621094c0.0883789-0.2128906,0.2167969-0.4013672,0.3847656-0.5664062
				s0.3754883-0.2978516,0.6230469-0.3964844s0.5317383-0.1484375,0.8530273-0.1484375
				c0.3598633,0,0.6884766,0.0566406,0.9853516,0.1708984s0.5566406,0.2792969,0.7783203,0.4951172L121.0351562,49.3349609z"/>
		</g>
	</g>
	<g>
		<g>
			<path class="st2" d="M179.4545898,34.6474609c0,1.4414062-0.1552734,2.6889648-0.4658203,3.7431641
				s-0.7338867,1.9262695-1.2705078,2.6162109c-0.5366211,0.6904297-1.1713867,1.2041016-1.9033203,1.5410156
				c-0.7324219,0.3378906-1.5161133,0.5058594-2.3515625,0.5058594c-0.84375,0-1.6274414-0.1679688-2.3520508-0.5058594
				c-0.7246094-0.3369141-1.3549805-0.8505859-1.8916016-1.5410156c-0.5366211-0.6899414-0.9584961-1.5620117-1.2651367-2.6162109
				s-0.4599609-2.3017578-0.4599609-3.7431641s0.1533203-2.690918,0.4599609-3.7490234s0.7285156-1.934082,1.2651367-2.6279297
				s1.1669922-1.2089844,1.8916016-1.546875c0.7246094-0.3369141,1.5083008-0.5058594,2.3520508-0.5058594
				c0.8354492,0,1.6191406,0.1689453,2.3515625,0.5058594c0.7319336,0.3378906,1.3666992,0.8530273,1.9033203,1.546875
				s0.9599609,1.5698242,1.2705078,2.6279297S179.4545898,33.2060547,179.4545898,34.6474609z M177.3271484,34.6474609
				c0-1.2573242-0.1054688-2.3134766-0.3164062-3.168457c-0.2109375-0.8544922-0.4941406-1.5424805-0.8505859-2.0639648
				c-0.3569336-0.5214844-0.769043-0.8950195-1.2363281-1.121582c-0.4677734-0.2260742-0.9545898-0.3388672-1.4604492-0.3388672
				c-0.5063477,0-0.9931641,0.112793-1.4604492,0.3388672c-0.4677734,0.2265625-0.878418,0.6000977-1.230957,1.121582
				s-0.6342773,1.2094727-0.8452148,2.0639648c-0.2109375,0.8549805-0.315918,1.9111328-0.315918,3.168457
				s0.1049805,2.3115234,0.315918,3.1625977c0.2109375,0.8505859,0.4926758,1.5371094,0.8452148,2.0581055
				c0.3525391,0.5214844,0.7631836,0.8955078,1.230957,1.121582c0.4672852,0.2260742,0.9541016,0.3393555,1.4604492,0.3393555
				c0.5058594,0,0.9926758-0.1132812,1.4604492-0.3393555c0.4672852-0.2260742,0.8793945-0.6000977,1.2363281-1.121582
				c0.3564453-0.5209961,0.6396484-1.2075195,0.8505859-2.0581055
				C177.2216797,36.9589844,177.3271484,35.9047852,177.3271484,34.6474609z"/>
			<path class="st2" d="M192.6103516,26.4018555v0.9199219c0,0.2607422-0.0288086,0.4755859-0.0859375,0.644043
				c-0.0576172,0.1689453-0.1171875,0.3105469-0.1782227,0.425293l-6.8198242,13.7661133
				c-0.0996094,0.1992188-0.237793,0.3701172-0.4140625,0.5117188s-0.4135742,0.2128906-0.7128906,0.2128906h-1.4604492
				l6.9228516-13.5932617c0.0996094-0.1918945,0.2016602-0.3681641,0.3051758-0.5292969s0.2202148-0.3139648,0.3505859-0.4599609
				h-8.6020508c-0.1303711,0-0.2470703-0.0517578-0.3505859-0.1552734s-0.1552734-0.2202148-0.1552734-0.3505859v-1.3916016
				H192.6103516z"/>
		</g>
		<g>
			<path class="st5" d="M171.309082,54.7753906h-0.8779297v-2.9335938h-3.4736328v2.9335938h-0.8774414v-6.4482422h0.8774414v2.875
				h3.4736328v-2.875h0.8779297V54.7753906z"/>
			<path class="st5" d="M178.8735352,51.5537109c0,0.4824219-0.0766602,0.9257812-0.2294922,1.3291016
				c-0.152832,0.4042969-0.3691406,0.7509766-0.6479492,1.0419922s-0.6142578,0.5166016-1.0058594,0.6777344
				c-0.3916016,0.1601562-0.8242188,0.2402344-1.2983398,0.2402344c-0.4736328,0-0.9057617-0.0800781-1.2958984-0.2402344
				c-0.3901367-0.1611328-0.7246094-0.3867188-1.003418-0.6777344s-0.4951172-0.6376953-0.6479492-1.0419922
				c-0.152832-0.4033203-0.2294922-0.8466797-0.2294922-1.3291016c0-0.4833984,0.0766602-0.9267578,0.2294922-1.3300781
				s0.3691406-0.7519531,0.6479492-1.0439453c0.2788086-0.2929688,0.6132812-0.5195312,1.003418-0.6816406
				s0.8222656-0.2431641,1.2958984-0.2431641c0.4741211,0,0.9067383,0.0810547,1.2983398,0.2431641
				s0.7270508,0.3886719,1.0058594,0.6816406c0.2788086,0.2919922,0.4951172,0.640625,0.6479492,1.0439453
				S178.8735352,51.0703125,178.8735352,51.5537109z M177.9780273,51.5537109c0-0.3964844-0.0537109-0.7519531-0.1621094-1.0664062
				c-0.1079102-0.3154297-0.2607422-0.5820312-0.4589844-0.7988281c-0.1977539-0.2177734-0.4379883-0.3847656-0.7197266-0.5019531
				c-0.2822266-0.1171875-0.597168-0.1757812-0.9453125-0.1757812c-0.3447266,0-0.6582031,0.0585938-0.9404297,0.1757812
				c-0.2817383,0.1171875-0.5224609,0.2841797-0.722168,0.5019531c-0.199707,0.2167969-0.3530273,0.4833984-0.4614258,0.7988281
				c-0.1079102,0.3144531-0.1616211,0.6699219-0.1616211,1.0664062c0,0.3955078,0.0537109,0.75,0.1616211,1.0634766
				c0.1083984,0.3144531,0.2617188,0.5791016,0.4614258,0.796875s0.4404297,0.3837891,0.722168,0.5
				c0.2822266,0.1152344,0.5957031,0.1728516,0.9404297,0.1728516c0.3481445,0,0.6630859-0.0576172,0.9453125-0.1728516
				c0.2817383-0.1162109,0.5219727-0.2822266,0.7197266-0.5c0.1982422-0.2177734,0.3510742-0.4824219,0.4589844-0.796875
				C177.9243164,52.3037109,177.9780273,51.9492188,177.9780273,51.5537109z"/>
			<path class="st5" d="M182.5722656,54.0820312c0.2670898,0,0.5053711-0.0449219,0.715332-0.1347656
				s0.3876953-0.2158203,0.5332031-0.3779297s0.2568359-0.3554688,0.3330078-0.5800781
				c0.0766602-0.2255859,0.1147461-0.4726562,0.1147461-0.7431641v-3.9189453h0.8686523v3.9189453
				c0,0.3720703-0.059082,0.7177734-0.1777344,1.0351562c-0.1186523,0.3183594-0.2880859,0.59375-0.5083008,0.8261719
				c-0.2207031,0.2324219-0.4902344,0.4140625-0.8081055,0.546875c-0.3178711,0.1318359-0.6748047,0.1972656-1.0708008,0.1972656
				s-0.7529297-0.0654297-1.0712891-0.1972656c-0.3178711-0.1328125-0.5878906-0.3144531-0.8095703-0.546875
				c-0.222168-0.2324219-0.3925781-0.5078125-0.5107422-0.8261719c-0.1186523-0.3173828-0.1777344-0.6630859-0.1777344-1.0351562
				v-3.9189453h0.8681641v3.9150391c0,0.2695312,0.0385742,0.5175781,0.1147461,0.7421875
				c0.0766602,0.2246094,0.1875,0.4189453,0.3330078,0.5800781c0.1455078,0.1621094,0.3242188,0.2890625,0.5356445,0.3808594
				S182.3051758,54.0820312,182.5722656,54.0820312z"/>
			<path class="st5" d="M187.5942383,52.0839844v2.6914062h-0.8686523v-6.4482422h1.8222656
				c0.4082031,0,0.7607422,0.0410156,1.0576172,0.1230469c0.296875,0.0830078,0.5424805,0.2021484,0.7358398,0.3583984
				s0.3369141,0.34375,0.4296875,0.5644531s0.1396484,0.4677734,0.1396484,0.7402344
				c0,0.2285156-0.0361328,0.4414062-0.1079102,0.6386719c-0.0722656,0.1982422-0.1762695,0.3759766-0.3129883,0.5332031
				c-0.1367188,0.1582031-0.3032227,0.2919922-0.4995117,0.4033203s-0.4194336,0.1953125-0.6679688,0.2519531
				c0.1079102,0.0625,0.2036133,0.1542969,0.2875977,0.2744141l1.8813477,2.5605469h-0.7744141
				c-0.1586914,0-0.2758789-0.0615234-0.3505859-0.1845703l-1.6743164-2.3037109
				c-0.0507812-0.0722656-0.1064453-0.1240234-0.1665039-0.1552734s-0.1499023-0.0478516-0.2700195-0.0478516H187.5942383z
				 M187.5942383,51.4501953h0.9130859c0.2553711,0,0.4794922-0.03125,0.6728516-0.0927734
				c0.1938477-0.0615234,0.3554688-0.1484375,0.4863281-0.2607422c0.1303711-0.1123047,0.2285156-0.2470703,0.2944336-0.4023438
				c0.065918-0.15625,0.0991211-0.3291016,0.0991211-0.5175781c0-0.3847656-0.1269531-0.6738281-0.3803711-0.8691406
				c-0.253418-0.1943359-0.6308594-0.2919922-1.1318359-0.2919922h-0.9536133V51.4501953z"/>
			<path class="st5" d="M195.734375,49.3349609c-0.0268555,0.0449219-0.0556641,0.0791016-0.0854492,0.1015625
				s-0.0688477,0.0332031-0.1171875,0.0332031c-0.0507812,0-0.1098633-0.0253906-0.1777344-0.0761719
				c-0.0673828-0.0507812-0.152832-0.1074219-0.2563477-0.1689453s-0.2280273-0.1171875-0.3735352-0.1689453
				c-0.1455078-0.0507812-0.3217773-0.0761719-0.5288086-0.0761719c-0.1948242,0-0.3671875,0.0263672-0.5175781,0.0791016
				c-0.1499023,0.0517578-0.2749023,0.1230469-0.3754883,0.2128906c-0.1005859,0.0908203-0.1762695,0.1962891-0.2275391,0.3173828
				c-0.0507812,0.1220703-0.0761719,0.2529297-0.0761719,0.3935547c0,0.1806641,0.0439453,0.3300781,0.1328125,0.4482422
				c0.0883789,0.1181641,0.2050781,0.2197266,0.3510742,0.3037109c0.1450195,0.0839844,0.3100586,0.1572266,0.4946289,0.21875
				s0.3735352,0.125,0.5668945,0.1904297c0.1938477,0.0664062,0.3828125,0.140625,0.5673828,0.2226562
				c0.1845703,0.0830078,0.3491211,0.1875,0.4946289,0.3134766s0.2626953,0.2802734,0.3510742,0.4628906
				c0.0883789,0.1835938,0.1328125,0.4082031,0.1328125,0.6757812c0,0.28125-0.0478516,0.5458984-0.144043,0.7939453
				c-0.0957031,0.2470703-0.2363281,0.4628906-0.4204102,0.6455078c-0.1845703,0.1826172-0.4111328,0.3271484-0.6796875,0.4316406
				c-0.2685547,0.1054688-0.5737305,0.1582031-0.9155273,0.1582031c-0.4174805,0-0.7973633-0.0761719-1.1411133-0.2275391
				c-0.3432617-0.1513672-0.6367188-0.3564453-0.8793945-0.6142578l0.2519531-0.4140625
				c0.0239258-0.0332031,0.0532227-0.0605469,0.0874023-0.0830078c0.034668-0.0224609,0.0727539-0.0341797,0.1147461-0.0341797
				c0.0629883,0,0.1352539,0.0341797,0.2163086,0.1015625s0.1821289,0.1416016,0.3037109,0.2226562
				s0.2685547,0.1552734,0.440918,0.2226562s0.3833008,0.1015625,0.6323242,0.1015625
				c0.2070312,0,0.3916016-0.0283203,0.5532227-0.0859375c0.1621094-0.0566406,0.2993164-0.1367188,0.4121094-0.2402344
				c0.1123047-0.1035156,0.1987305-0.2275391,0.2587891-0.3710938c0.0595703-0.1445312,0.0898438-0.3046875,0.0898438-0.4814453
				c0-0.1953125-0.0444336-0.3554688-0.1328125-0.4794922c-0.0883789-0.125-0.2045898-0.2285156-0.3486328-0.3125
				s-0.3085938-0.1552734-0.4926758-0.2138672c-0.1845703-0.0585938-0.3735352-0.1191406-0.5673828-0.1806641
				c-0.1933594-0.0615234-0.3823242-0.1328125-0.5668945-0.2138672c-0.1845703-0.0800781-0.3486328-0.1855469-0.4926758-0.3144531
				s-0.2602539-0.2900391-0.3486328-0.4833984c-0.0888672-0.1943359-0.1328125-0.4335938-0.1328125-0.7177734
				c0-0.2285156,0.0439453-0.4492188,0.1328125-0.6621094c0.0883789-0.2128906,0.2167969-0.4013672,0.3847656-0.5664062
				s0.3754883-0.2978516,0.6230469-0.3964844s0.5317383-0.1484375,0.8530273-0.1484375
				c0.3598633,0,0.6884766,0.0566406,0.9853516,0.1708984s0.5566406,0.2792969,0.7783203,0.4951172L195.734375,49.3349609z"/>
		</g>
	</g>
	<g>
		<g>
			<path class="st2" d="M246.8935547,36.9360352h2.4960938v1.1728516c0,0.1225586-0.0361328,0.2260742-0.109375,0.3105469
				s-0.1855469,0.1264648-0.3388672,0.1264648h-2.0478516v4.3359375h-1.8046875v-4.3359375h-7.3027344
				c-0.1533203,0-0.2861328-0.0439453-0.3964844-0.1323242c-0.1113281-0.0878906-0.1826172-0.1972656-0.2128906-0.3276367
				l-0.2070312-1.0463867l8.015625-10.6376953h1.9082031V36.9360352z M245.0888672,30.1391602
				c0-0.1992188,0.0058594-0.4135742,0.0166016-0.644043c0.0117188-0.2299805,0.0361328-0.4672852,0.0751953-0.7128906
				l-5.9912109,8.1538086h5.8994141V30.1391602z"/>
			<path class="st2" d="M262.4990234,34.6474609c0,1.4414062-0.1552734,2.6889648-0.4658203,3.7431641
				s-0.7333984,1.9262695-1.2705078,2.6162109c-0.5361328,0.6904297-1.1708984,1.2041016-1.9033203,1.5410156
				c-0.7324219,0.3378906-1.515625,0.5058594-2.3515625,0.5058594c-0.84375,0-1.6269531-0.1679688-2.3515625-0.5058594
				c-0.7246094-0.3369141-1.3554688-0.8505859-1.8916016-1.5410156c-0.5371094-0.6899414-0.9589844-1.5620117-1.265625-2.6162109
				s-0.4599609-2.3017578-0.4599609-3.7431641s0.1533203-2.690918,0.4599609-3.7490234s0.7285156-1.934082,1.265625-2.6279297
				c0.5361328-0.6938477,1.1669922-1.2089844,1.8916016-1.546875c0.7246094-0.3369141,1.5078125-0.5058594,2.3515625-0.5058594
				c0.8359375,0,1.6191406,0.1689453,2.3515625,0.5058594c0.7324219,0.3378906,1.3671875,0.8530273,1.9033203,1.546875
				c0.5371094,0.6938477,0.9599609,1.5698242,1.2705078,2.6279297S262.4990234,33.2060547,262.4990234,34.6474609z
				 M260.3720703,34.6474609c0-1.2573242-0.1054688-2.3134766-0.3164062-3.168457
				c-0.2109375-0.8544922-0.4941406-1.5424805-0.8505859-2.0639648c-0.3574219-0.5214844-0.7695312-0.8950195-1.2363281-1.121582
				c-0.4677734-0.2260742-0.9550781-0.3388672-1.4609375-0.3388672s-0.9931641,0.112793-1.4599609,0.3388672
				c-0.4677734,0.2265625-0.8789062,0.6000977-1.2314453,1.121582s-0.6337891,1.2094727-0.8447266,2.0639648
				c-0.2109375,0.8549805-0.3164062,1.9111328-0.3164062,3.168457s0.1054688,2.3115234,0.3164062,3.1625977
				c0.2109375,0.8505859,0.4921875,1.5371094,0.8447266,2.0581055c0.3525391,0.5214844,0.7636719,0.8955078,1.2314453,1.121582
				c0.4667969,0.2260742,0.9541016,0.3393555,1.4599609,0.3393555s0.9931641-0.1132812,1.4609375-0.3393555
				c0.4667969-0.2260742,0.8789062-0.6000977,1.2363281-1.121582c0.3564453-0.5209961,0.6396484-1.2075195,0.8505859-2.0581055
				C260.2666016,36.9589844,260.3720703,35.9047852,260.3720703,34.6474609z"/>
		</g>
		<g>
			<path class="st5" d="M243.7373047,52.671875c0.03125,0.0791016,0.0615234,0.1591797,0.0917969,0.2402344
				c0.0302734-0.0839844,0.0615234-0.1640625,0.0947266-0.2402344c0.0332031-0.0771484,0.0703125-0.1542969,0.1123047-0.2324219
				l2.1826172-3.9638672c0.0390625-0.0693359,0.0791016-0.1113281,0.1210938-0.1259766
				c0.0419922-0.015625,0.1025391-0.0224609,0.1806641-0.0224609h0.6435547v6.4482422h-0.765625v-4.7382812
				c0-0.0634766,0.0019531-0.1308594,0.0048828-0.203125c0.0029297-0.0712891,0.0068359-0.1455078,0.0136719-0.2197266
				l-2.2099609,4.03125c-0.0751953,0.1357422-0.1796875,0.203125-0.3144531,0.203125h-0.1259766
				c-0.1357422,0-0.2402344-0.0673828-0.3154297-0.203125l-2.2587891-4.0449219
				c0.0087891,0.078125,0.015625,0.1542969,0.0195312,0.2294922c0.0048828,0.0751953,0.0068359,0.1435547,0.0068359,0.2070312
				v4.7382812h-0.7646484v-6.4482422h0.6435547c0.078125,0,0.1376953,0.0068359,0.1796875,0.0224609
				c0.0419922,0.0146484,0.0830078,0.0566406,0.1220703,0.1259766l2.2275391,3.96875
				C243.6689453,52.5166016,243.7050781,52.5917969,243.7373047,52.671875z"/>
			<path class="st5" d="M249.7685547,54.7753906h-0.8730469v-6.4482422h0.8730469V54.7753906z"/>
			<path class="st5" d="M252.1201172,48.3564453c0.0380859,0.0195312,0.0800781,0.0585938,0.1289062,0.1191406l3.734375,4.859375
				c-0.0087891-0.0771484-0.0146484-0.1533203-0.0175781-0.2265625c-0.0029297-0.0742188-0.0048828-0.1445312-0.0048828-0.2138672
				v-4.5673828h0.765625v6.4482422h-0.4414062c-0.0693359,0-0.1269531-0.0117188-0.1728516-0.0361328
				c-0.046875-0.0234375-0.0927734-0.0644531-0.1376953-0.1210938l-3.7304688-4.8554688
				c0.0058594,0.0751953,0.0107422,0.1484375,0.0136719,0.2197266c0.0029297,0.0722656,0.0039062,0.1386719,0.0039062,0.1982422
				v4.5947266h-0.7646484v-6.4482422h0.4501953C252.0253906,48.3271484,252.0830078,48.3369141,252.1201172,48.3564453z"/>
			<path class="st5" d="M261.6035156,49.3349609c-0.0263672,0.0449219-0.0556641,0.0791016-0.0849609,0.1015625
				c-0.0302734,0.0224609-0.0693359,0.0332031-0.1171875,0.0332031c-0.0507812,0-0.1103516-0.0253906-0.1777344-0.0761719
				s-0.1533203-0.1074219-0.2568359-0.1689453s-0.2275391-0.1171875-0.3730469-0.1689453
				c-0.1455078-0.0507812-0.3222656-0.0761719-0.5292969-0.0761719c-0.1943359,0-0.3671875,0.0263672-0.5175781,0.0791016
				c-0.1494141,0.0517578-0.2744141,0.1230469-0.375,0.2128906c-0.1005859,0.0908203-0.1767578,0.1962891-0.2275391,0.3173828
				c-0.0507812,0.1220703-0.0761719,0.2529297-0.0761719,0.3935547c0,0.1806641,0.0439453,0.3300781,0.1328125,0.4482422
				c0.0878906,0.1181641,0.2050781,0.2197266,0.3505859,0.3037109s0.3105469,0.1572266,0.4951172,0.21875
				s0.3730469,0.125,0.5664062,0.1904297c0.1943359,0.0664062,0.3828125,0.140625,0.5673828,0.2226562
				c0.1845703,0.0830078,0.3496094,0.1875,0.4951172,0.3134766s0.2626953,0.2802734,0.3505859,0.4628906
				c0.0888672,0.1835938,0.1328125,0.4082031,0.1328125,0.6757812c0,0.28125-0.0478516,0.5458984-0.1435547,0.7939453
				c-0.0957031,0.2470703-0.2363281,0.4628906-0.4208984,0.6455078s-0.4111328,0.3271484-0.6796875,0.4316406
				c-0.2685547,0.1054688-0.5732422,0.1582031-0.9150391,0.1582031c-0.4179688,0-0.7978516-0.0761719-1.1416016-0.2275391
				c-0.3427734-0.1513672-0.6367188-0.3564453-0.8789062-0.6142578l0.2519531-0.4140625
				c0.0234375-0.0332031,0.0527344-0.0605469,0.0869141-0.0830078c0.0351562-0.0224609,0.0732422-0.0341797,0.1152344-0.0341797
				c0.0625,0,0.1347656,0.0341797,0.2158203,0.1015625s0.1826172,0.1416016,0.3037109,0.2226562
				c0.1220703,0.0810547,0.2685547,0.1552734,0.4414062,0.2226562c0.171875,0.0673828,0.3828125,0.1015625,0.6318359,0.1015625
				c0.2070312,0,0.3916016-0.0283203,0.5537109-0.0859375c0.1621094-0.0566406,0.2988281-0.1367188,0.4121094-0.2402344
				c0.1123047-0.1035156,0.1982422-0.2275391,0.2587891-0.3710938c0.0595703-0.1445312,0.0898438-0.3046875,0.0898438-0.4814453
				c0-0.1953125-0.0449219-0.3554688-0.1328125-0.4794922c-0.0888672-0.125-0.2050781-0.2285156-0.3486328-0.3125
				c-0.1445312-0.0839844-0.3085938-0.1552734-0.4931641-0.2138672s-0.3730469-0.1191406-0.5673828-0.1806641
				c-0.1933594-0.0615234-0.3818359-0.1328125-0.5664062-0.2138672c-0.1845703-0.0800781-0.3486328-0.1855469-0.4931641-0.3144531
				c-0.1435547-0.1289062-0.2597656-0.2900391-0.3486328-0.4833984c-0.0888672-0.1943359-0.1328125-0.4335938-0.1328125-0.7177734
				c0-0.2285156,0.0439453-0.4492188,0.1328125-0.6621094s0.2167969-0.4013672,0.3847656-0.5664062
				s0.3759766-0.2978516,0.6230469-0.3964844c0.2480469-0.0986328,0.5322266-0.1484375,0.8535156-0.1484375
				c0.359375,0,0.6884766,0.0566406,0.9853516,0.1708984s0.5566406,0.2792969,0.7783203,0.4951172L261.6035156,49.3349609z"/>
		</g>
	</g>
	<g>
		<g>
			<g>
				<path class="st2" d="M133.5300293,42.8800049c-1.4200439,11.6599731-11.3900146,20.7199707-23.4200439,20.7199707
					c-13.0100098,0-23.5999756-10.5899658-23.5999756-23.5999756s10.5899658-23.5999756,23.5999756-23.5999756V15
					c-13.8099976,0-25,11.1900024-25,25c0,6.9000244,2.7999878,13.1599731,7.3200073,17.6799927
					C96.960022,62.2000122,103.2000122,65,110.1099854,65c6.9100342,0,13.1500244-2.7999878,17.6799927-7.3200073
					c3.8800049-3.8800049,6.5-9.0499878,7.1500244-14.7999878H133.5300293z"/>
			</g>
			<g>
				<path class="st2" d="M199.0100098,23.6400146l-1.1199951,0.8699951C201.5100098,28.6599731,203.710022,34.0800171,203.710022,40
					c0,13.0100098-10.5900269,23.5999756-23.6000366,23.5999756S156.5100098,53.0100098,156.5100098,40
					s10.5899658-23.5999756,23.5999756-23.5999756V15c-13.8099976,0-25,11.1900024-25,25
					c0,6.9000244,2.7999878,13.1599731,7.3200073,17.6799927C166.960022,62.2000122,173.2000122,65,180.1099854,65
					c6.9100342,0,13.1500244-2.7999878,17.6799927-7.3200073C202.3099976,53.1599731,205.1099854,46.9000244,205.1099854,40
					C205.1099854,33.75,202.8099976,28.0200195,199.0100098,23.6400146z"/>
			</g>
			<g>
				<path class="st2" d="M274.789978,36l-1.3999634,0.1599731c0.2099609,1.25,0.3200073,2.5300293,0.3200073,3.8400269
					c0,13.0100098-10.5900269,23.5999756-23.6000366,23.5999756S226.5100098,53.0100098,226.5100098,40
					s10.5899658-23.5999756,23.5999756-23.5999756V15c-13.8099976,0-25,11.1900024-25,25
					c0,6.9000244,2.7999878,13.1599731,7.3200073,17.6799927C236.960022,62.2000122,243.2000122,65,250.1099854,65
					c6.9100342,0,13.1500244-2.7999878,17.6799927-7.3200073C272.3099976,53.1599731,275.1099854,46.9000244,275.1099854,40
					C275.1099854,38.6400146,275,37.2999878,274.789978,36z"/>
			</g>
			<g>
				<path class="st2" d="M337.5700073,22.3200073c-3.0499878-3.039978-6.8699951-5.2999878-11.1500244-6.4500122
					l-0.2799683,1.3699951c9.9899902,2.75,17.3499756,11.9100342,17.3499756,22.7600098
					c0,13.0100098-10.5899658,23.5999756-23.5999756,23.5999756S296.289978,53.0100098,296.289978,40
					s10.5900269-23.5999756,23.6000366-23.5999756V15c-13.8099976,0-25,11.1900024-25,25
					c0,6.9000244,2.7999878,13.1599731,7.3200073,17.6799927C306.7399902,62.2000122,312.9799805,65,319.8900146,65
					c6.9099731,0,13.1499634-2.7999878,17.6799927-7.3200073C342.0900269,53.1599731,344.8900146,46.9000244,344.8900146,40
					S342.0900269,26.8400269,337.5700073,22.3200073z"/>
			</g>
		</g>
		<g>
			<g>
				<path class="st2" d="M319.6962891,34.6474609c0,1.4414062-0.1552734,2.6889648-0.4658203,3.7431641
					s-0.7333984,1.9262695-1.2705078,2.6162109c-0.5361328,0.6904297-1.1708984,1.2041016-1.9033203,1.5410156
					c-0.7324219,0.3378906-1.515625,0.5058594-2.3515625,0.5058594c-0.84375,0-1.6269531-0.1679688-2.3515625-0.5058594
					c-0.7246094-0.3369141-1.3554688-0.8505859-1.8916016-1.5410156c-0.5371094-0.6899414-0.9589844-1.5620117-1.265625-2.6162109
					s-0.4599609-2.3017578-0.4599609-3.7431641s0.1533203-2.690918,0.4599609-3.7490234s0.7285156-1.934082,1.265625-2.6279297
					c0.5361328-0.6938477,1.1669922-1.2089844,1.8916016-1.546875c0.7246094-0.3369141,1.5078125-0.5058594,2.3515625-0.5058594
					c0.8359375,0,1.6191406,0.1689453,2.3515625,0.5058594c0.7324219,0.3378906,1.3671875,0.8530273,1.9033203,1.546875
					c0.5371094,0.6938477,0.9599609,1.5698242,1.2705078,2.6279297S319.6962891,33.2060547,319.6962891,34.6474609z
					 M317.5693359,34.6474609c0-1.2573242-0.1054688-2.3134766-0.3164062-3.168457
					c-0.2109375-0.8544922-0.4941406-1.5424805-0.8505859-2.0639648c-0.3574219-0.5214844-0.7695312-0.8950195-1.2363281-1.121582
					c-0.4677734-0.2260742-0.9550781-0.3388672-1.4609375-0.3388672s-0.9931641,0.112793-1.4599609,0.3388672
					c-0.4677734,0.2265625-0.8789062,0.6000977-1.2314453,1.121582s-0.6337891,1.2094727-0.8447266,2.0639648
					c-0.2109375,0.8549805-0.3164062,1.9111328-0.3164062,3.168457s0.1054688,2.3115234,0.3164062,3.1625977
					c0.2109375,0.8505859,0.4921875,1.5371094,0.8447266,2.0581055c0.3525391,0.5214844,0.7636719,0.8955078,1.2314453,1.121582
					c0.4667969,0.2260742,0.9541016,0.3393555,1.4599609,0.3393555s0.9931641-0.1132812,1.4609375-0.3393555
					c0.4667969-0.2260742,0.8789062-0.6000977,1.2363281-1.121582c0.3564453-0.5209961,0.6396484-1.2075195,0.8505859-2.0581055
					C317.4638672,36.9589844,317.5693359,35.9047852,317.5693359,34.6474609z"/>
				<path class="st2" d="M331.6337891,27.2988281c0,0.2915039-0.0927734,0.5307617-0.2763672,0.71875
					s-0.4941406,0.2817383-0.9316406,0.2817383h-5.1748047l-0.7587891,4.3242188
					c0.8583984-0.184082,1.6513672-0.2763672,2.3798828-0.2763672c0.859375,0,1.6162109,0.1264648,2.2714844,0.3798828
					c0.6552734,0.2529297,1.2060547,0.6015625,1.6503906,1.0463867s0.7802734,0.9697266,1.0058594,1.5751953
					c0.2265625,0.605957,0.3398438,1.2651367,0.3398438,1.9780273c0,0.8740234-0.1533203,1.6640625-0.4599609,2.3691406
					c-0.3066406,0.7055664-0.7265625,1.309082-1.2597656,1.8120117c-0.5322266,0.5019531-1.1591797,0.8867188-1.8798828,1.1552734
					s-1.4990234,0.4023438-2.3349609,0.4023438c-0.4824219,0-0.9462891-0.0478516-1.390625-0.1435547
					c-0.4453125-0.0957031-0.859375-0.2246094-1.2421875-0.3857422c-0.3837891-0.1601562-0.7402344-0.3447266-1.0693359-0.5517578
					c-0.3300781-0.2070312-0.6210938-0.4248047-0.8740234-0.6552734l0.6201172-0.8740234
					c0.1386719-0.199707,0.3222656-0.2993164,0.5527344-0.2993164c0.1455078,0,0.3164062,0.0595703,0.5117188,0.1782227
					c0.1953125,0.1191406,0.4306641,0.2514648,0.7070312,0.3969727s0.5996094,0.277832,0.9716797,0.3969727
					s0.8144531,0.1777344,1.328125,0.1777344c0.5751953,0,1.0927734-0.0917969,1.5527344-0.2753906
					c0.4599609-0.1845703,0.8525391-0.4467773,1.1787109-0.7880859s0.5771484-0.7495117,0.7529297-1.2246094
					c0.1767578-0.4755859,0.2646484-1.0083008,0.2646484-1.5986328c0-0.5136719-0.0742188-0.9775391-0.2236328-1.3916016
					c-0.1503906-0.4140625-0.3759766-0.7666016-0.6787109-1.0581055c-0.3027344-0.2910156-0.6806641-0.5175781-1.1328125-0.6782227
					c-0.453125-0.1611328-0.9814453-0.2416992-1.5869141-0.2416992c-0.4140625,0-0.84375,0.034668-1.2880859,0.1035156
					c-0.4453125,0.0688477-0.9052734,0.1801758-1.3798828,0.3334961l-1.2880859-0.3793945l1.3339844-7.7050781h7.8085938V27.2988281
					z"/>
			</g>
			<g>
				<path class="st5" d="M314.4160156,49.3349609c-0.0273438,0.0449219-0.0556641,0.0791016-0.0859375,0.1015625
					c-0.0292969,0.0224609-0.0683594,0.0332031-0.1171875,0.0332031c-0.0507812,0-0.109375-0.0253906-0.1777344-0.0761719
					c-0.0673828-0.0507812-0.1523438-0.1074219-0.2558594-0.1689453s-0.2285156-0.1171875-0.3740234-0.1689453
					c-0.1455078-0.0507812-0.3212891-0.0761719-0.5283203-0.0761719c-0.1953125,0-0.3671875,0.0263672-0.5175781,0.0791016
					c-0.1503906,0.0517578-0.2753906,0.1230469-0.3759766,0.2128906c-0.1005859,0.0908203-0.1757812,0.1962891-0.2275391,0.3173828
					c-0.0507812,0.1220703-0.0761719,0.2529297-0.0761719,0.3935547c0,0.1806641,0.0439453,0.3300781,0.1328125,0.4482422
					s0.2050781,0.2197266,0.3515625,0.3037109c0.1445312,0.0839844,0.3095703,0.1572266,0.4941406,0.21875
					s0.3740234,0.125,0.5673828,0.1904297c0.1933594,0.0664062,0.3828125,0.140625,0.5673828,0.2226562
					c0.1845703,0.0830078,0.3486328,0.1875,0.4941406,0.3134766s0.2626953,0.2802734,0.3515625,0.4628906
					c0.0878906,0.1835938,0.1328125,0.4082031,0.1328125,0.6757812c0,0.28125-0.0478516,0.5458984-0.1445312,0.7939453
					c-0.0957031,0.2470703-0.2363281,0.4628906-0.4199219,0.6455078c-0.1845703,0.1826172-0.4111328,0.3271484-0.6796875,0.4316406
					c-0.2685547,0.1054688-0.5742188,0.1582031-0.9160156,0.1582031c-0.4169922,0-0.796875-0.0761719-1.140625-0.2275391
					s-0.6367188-0.3564453-0.8798828-0.6142578l0.2519531-0.4140625c0.0244141-0.0332031,0.0537109-0.0605469,0.0878906-0.0830078
					s0.0722656-0.0341797,0.1142578-0.0341797c0.0634766,0,0.1357422,0.0341797,0.2167969,0.1015625
					s0.1816406,0.1416016,0.3037109,0.2226562c0.1210938,0.0810547,0.2685547,0.1552734,0.4404297,0.2226562
					c0.1728516,0.0673828,0.3837891,0.1015625,0.6328125,0.1015625c0.2070312,0,0.3916016-0.0283203,0.5527344-0.0859375
					c0.1621094-0.0566406,0.2998047-0.1367188,0.4121094-0.2402344s0.1992188-0.2275391,0.2587891-0.3710938
					c0.0595703-0.1445312,0.0898438-0.3046875,0.0898438-0.4814453c0-0.1953125-0.0439453-0.3554688-0.1328125-0.4794922
					c-0.0878906-0.125-0.2041016-0.2285156-0.3486328-0.3125c-0.1435547-0.0839844-0.3085938-0.1552734-0.4921875-0.2138672
					c-0.1845703-0.0585938-0.3740234-0.1191406-0.5673828-0.1806641S312.0283203,51.625,311.84375,51.5439453
					c-0.1845703-0.0800781-0.3486328-0.1855469-0.4921875-0.3144531c-0.1445312-0.1289062-0.2607422-0.2900391-0.3486328-0.4833984
					c-0.0888672-0.1943359-0.1328125-0.4335938-0.1328125-0.7177734c0-0.2285156,0.0439453-0.4492188,0.1328125-0.6621094
					c0.0878906-0.2128906,0.2167969-0.4013672,0.3847656-0.5664062s0.375-0.2978516,0.6230469-0.3964844
					c0.2470703-0.0986328,0.53125-0.1484375,0.8525391-0.1484375c0.3603516,0,0.6884766,0.0566406,0.9853516,0.1708984
					s0.5566406,0.2792969,0.7783203,0.4951172L314.4160156,49.3349609z"/>
				<path class="st5" d="M319.8564453,48.3271484v0.7109375h-3.0957031v2.1416016h2.5058594v0.6845703h-2.5058594v2.2001953
					h3.0957031v0.7109375h-3.9736328v-6.4482422H319.8564453z"/>
				<path class="st5" d="M325.6572266,53.4433594c0.0478516,0,0.0908203,0.0195312,0.1298828,0.0585938L326.1289062,53.875
					c-0.2636719,0.3066406-0.5839844,0.5449219-0.9599609,0.7158203c-0.3769531,0.1708984-0.8310547,0.2568359-1.3613281,0.2568359
					c-0.4648438,0-0.8867188-0.0800781-1.2646484-0.2412109c-0.3779297-0.1601562-0.7001953-0.3857422-0.9677734-0.6748047
					c-0.2666016-0.2890625-0.4736328-0.6367188-0.6210938-1.0419922c-0.1464844-0.4042969-0.2207031-0.8505859-0.2207031-1.3359375
					c0-0.4863281,0.0791016-0.9316406,0.2363281-1.3369141c0.1582031-0.4052734,0.3789062-0.7529297,0.6640625-1.0439453
					s0.6259766-0.5166016,1.0234375-0.6767578c0.3974609-0.1611328,0.8369141-0.2412109,1.3164062-0.2412109
					c0.4746094,0,0.8828125,0.0732422,1.2265625,0.2207031c0.34375,0.1464844,0.6484375,0.3466797,0.9160156,0.5986328
					l-0.2841797,0.4003906c-0.0205078,0.0302734-0.0449219,0.0546875-0.0712891,0.0742188
					c-0.0273438,0.0195312-0.0664062,0.0292969-0.1171875,0.0292969c-0.0390625,0-0.0800781-0.0146484-0.1240234-0.0429688
					c-0.0429688-0.0283203-0.0947266-0.0634766-0.1552734-0.1054688c-0.0595703-0.0419922-0.1308594-0.0869141-0.2109375-0.1357422
					c-0.0810547-0.0478516-0.1777344-0.0927734-0.2880859-0.1347656c-0.1113281-0.0419922-0.2402344-0.0771484-0.3876953-0.1054688
					c-0.1464844-0.0283203-0.3164062-0.0429688-0.5078125-0.0429688c-0.3457031,0-0.6611328,0.0595703-0.9472656,0.1777344
					c-0.2871094,0.1191406-0.5332031,0.2871094-0.7402344,0.5068359c-0.2070312,0.21875-0.3691406,0.4853516-0.484375,0.8007812
					c-0.1152344,0.3144531-0.1728516,0.6669922-0.1728516,1.0576172c0,0.4013672,0.0576172,0.7597656,0.1728516,1.0751953
					s0.2734375,0.5810547,0.4726562,0.7988281s0.4355469,0.3828125,0.7089844,0.4970703
					c0.2724609,0.1142578,0.5664062,0.1708984,0.8818359,0.1708984c0.1923828,0,0.3642578-0.0107422,0.5175781-0.0332031
					s0.2949219-0.0576172,0.4248047-0.1064453c0.1308594-0.0478516,0.2519531-0.1083984,0.3652344-0.1816406
					c0.1123047-0.0742188,0.2255859-0.1611328,0.3398438-0.2636719
					C325.5595703,53.4658203,325.6083984,53.4433594,325.6572266,53.4433594z"/>
				<path class="st5" d="M330.5800781,49.3349609c-0.0273438,0.0449219-0.0556641,0.0791016-0.0859375,0.1015625
					c-0.0292969,0.0224609-0.0683594,0.0332031-0.1171875,0.0332031c-0.0507812,0-0.109375-0.0253906-0.1777344-0.0761719
					c-0.0673828-0.0507812-0.1523438-0.1074219-0.2558594-0.1689453s-0.2285156-0.1171875-0.3740234-0.1689453
					c-0.1455078-0.0507812-0.3212891-0.0761719-0.5283203-0.0761719c-0.1953125,0-0.3671875,0.0263672-0.5175781,0.0791016
					c-0.1503906,0.0517578-0.2753906,0.1230469-0.3759766,0.2128906c-0.1005859,0.0908203-0.1757812,0.1962891-0.2275391,0.3173828
					c-0.0507812,0.1220703-0.0761719,0.2529297-0.0761719,0.3935547c0,0.1806641,0.0439453,0.3300781,0.1328125,0.4482422
					s0.2050781,0.2197266,0.3515625,0.3037109c0.1445312,0.0839844,0.3095703,0.1572266,0.4941406,0.21875
					s0.3740234,0.125,0.5673828,0.1904297c0.1933594,0.0664062,0.3828125,0.140625,0.5673828,0.2226562
					c0.1845703,0.0830078,0.3486328,0.1875,0.4941406,0.3134766s0.2626953,0.2802734,0.3515625,0.4628906
					c0.0878906,0.1835938,0.1328125,0.4082031,0.1328125,0.6757812c0,0.28125-0.0478516,0.5458984-0.1445312,0.7939453
					c-0.0957031,0.2470703-0.2363281,0.4628906-0.4199219,0.6455078c-0.1845703,0.1826172-0.4111328,0.3271484-0.6796875,0.4316406
					c-0.2685547,0.1054688-0.5742188,0.1582031-0.9160156,0.1582031c-0.4169922,0-0.796875-0.0761719-1.140625-0.2275391
					s-0.6367188-0.3564453-0.8798828-0.6142578l0.2519531-0.4140625c0.0244141-0.0332031,0.0537109-0.0605469,0.0878906-0.0830078
					s0.0722656-0.0341797,0.1142578-0.0341797c0.0634766,0,0.1357422,0.0341797,0.2167969,0.1015625
					s0.1816406,0.1416016,0.3037109,0.2226562c0.1210938,0.0810547,0.2685547,0.1552734,0.4404297,0.2226562
					c0.1728516,0.0673828,0.3837891,0.1015625,0.6328125,0.1015625c0.2070312,0,0.3916016-0.0283203,0.5527344-0.0859375
					c0.1621094-0.0566406,0.2998047-0.1367188,0.4121094-0.2402344s0.1992188-0.2275391,0.2587891-0.3710938
					c0.0595703-0.1445312,0.0898438-0.3046875,0.0898438-0.4814453c0-0.1953125-0.0439453-0.3554688-0.1328125-0.4794922
					c-0.0878906-0.125-0.2041016-0.2285156-0.3486328-0.3125c-0.1435547-0.0839844-0.3085938-0.1552734-0.4921875-0.2138672
					c-0.1845703-0.0585938-0.3740234-0.1191406-0.5673828-0.1806641s-0.3828125-0.1328125-0.5673828-0.2138672
					c-0.1845703-0.0800781-0.3486328-0.1855469-0.4921875-0.3144531c-0.1445312-0.1289062-0.2607422-0.2900391-0.3486328-0.4833984
					c-0.0888672-0.1943359-0.1328125-0.4335938-0.1328125-0.7177734c0-0.2285156,0.0439453-0.4492188,0.1328125-0.6621094
					c0.0878906-0.2128906,0.2167969-0.4013672,0.3847656-0.5664062s0.375-0.2978516,0.6230469-0.3964844
					c0.2470703-0.0986328,0.53125-0.1484375,0.8525391-0.1484375c0.3603516,0,0.6884766,0.0566406,0.9853516,0.1708984
					s0.5566406,0.2792969,0.7783203,0.4951172L330.5800781,49.3349609z"/>
			</g>
		</g>
	</g>
</g>
</svg>
