<?xml version="1.0" encoding="utf-8"?>
<!-- Generator: Adobe Illustrator 24.2.0, SVG Export Plug-In . SVG Version: 6.00 Build 0)  -->
<svg version="1.1" id="Layer_1" xmlns="http://www.w3.org/2000/svg" xmlns:xlink="http://www.w3.org/1999/xlink" width="430" height="80" x="0px" y="0px"
	 viewBox="0 0 430 80" style="enable-background:new 0 0 430 80;" xml:space="preserve">
<style type="text/css">
	.st0{display:none;}
	.st1{display:inline;}
	.st2{fill:#222222;}
	.st3{font-family:'Lato-Regular';}
	.st4{font-size:35px;}
	.st5{fill:#555555;}
	.st6{font-size:14px;}
	.st7{font-size:20px;}
	.st8{enable-background:new    ;}
</style>
<g class="st0">
	<g class="st1">
		<text transform="matrix(1 0 0 1 86.6835175 43.2949219)" class="st2 st3 st4">12</text>
		<text transform="matrix(1 0 0 1 87.9890137 62.1884766)" class="st5 st3 st6">days</text>
	</g>
	<text transform="matrix(1 0 0 1 140.6381836 46.7573242)" class="st1 st3 st7">:</text>
	<g class="st1">
		<text transform="matrix(1 0 0 1 160.4757538 43.2949219)" class="st2 st3 st4">07</text>
		<text transform="matrix(1 0 0 1 155.967514 62.1884766)" class="st5 st3 st6">hours</text>
	</g>
	<text transform="matrix(1 0 0 1 217.6381836 46.7573242)" class="st1 st3 st7">:</text>
	<g class="st1">
		<text transform="matrix(1 0 0 1 233.7846069 43.2949219)" class="st2 st3 st4">40</text>
		<text transform="matrix(1 0 0 1 234.946228 62.1884766)" class="st5 st3 st6">mins</text>
	</g>
	<text transform="matrix(1 0 0 1 286.6381836 46.7573242)" class="st1 st3 st7">:</text>
	<g class="st1">
		<text transform="matrix(1 0 0 1 302.7174683 43.2949219)" class="st2 st3 st4">05</text>
		<text transform="matrix(1 0 0 1 305.0006104 62.1884766)" class="st5 st3 st6">secs</text>
	</g>
</g>
<g>
	<g>
		<g class="st8">
			<path class="st2" d="M91.1459961,40.7924805h5.3901367V23.6948242c0-0.5136719,0.0175781-1.0322266,0.0522461-1.5576172
				l-4.4799805,3.8330078c-0.1166992,0.0927734-0.2333984,0.1601562-0.3500977,0.2011719s-0.2270508,0.0605469-0.3320312,0.0605469
				c-0.175293,0-0.3325195-0.0371094-0.4726562-0.1132812s-0.2451172-0.1660156-0.3149414-0.2714844l-0.9799805-1.3476562
				l7.4550781-6.4570312h2.5371094v22.75h4.9350586v2.3798828H91.1459961V40.7924805z"/>
			<path class="st2" d="M116.9404297,17.8149414c1.0615234,0,2.0532227,0.1572266,2.9750977,0.4726562
				c0.9213867,0.3144531,1.7177734,0.7724609,2.3886719,1.3730469c0.6704102,0.6015625,1.1987305,1.3330078,1.5834961,2.1962891
				c0.3852539,0.8642578,0.5776367,1.84375,0.5776367,2.9404297c0,0.9335938-0.1401367,1.796875-0.4199219,2.5898438
				c-0.2802734,0.7939453-0.6591797,1.5546875-1.1376953,2.2841797c-0.4785156,0.7285156-1.0297852,1.4345703-1.6538086,2.1171875
				s-1.2861328,1.3798828-1.9858398,2.0908203l-6.5976562,6.7558594c0.4663086-0.1289062,0.9389648-0.2304688,1.4174805-0.3066406
				c0.4780273-0.0761719,0.9389648-0.1132812,1.3823242-0.1132812h8.3999023c0.3383789,0,0.6069336,0.0986328,0.8051758,0.296875
				s0.2973633,0.4550781,0.2973633,0.7705078v1.8896484h-16.7299805v-1.0673828
				c0-0.2216797,0.0439453-0.4492188,0.1313477-0.6826172s0.2304688-0.4492188,0.4287109-0.6474609l8.0327148-8.0673828
				c0.6650391-0.6767578,1.2714844-1.3271484,1.8198242-1.9511719s1.0175781-1.2519531,1.4086914-1.8818359
				s0.6914062-1.2685547,0.9013672-1.9160156s0.3149414-1.3388672,0.3149414-2.0732422
				c0-0.7353516-0.1166992-1.3798828-0.3500977-1.9345703c-0.2333984-0.5537109-0.5541992-1.0117188-0.9624023-1.3730469
				s-0.8867188-0.6328125-1.4350586-0.8144531c-0.5483398-0.1806641-1.137207-0.2705078-1.7675781-0.2705078
				c-0.6298828,0-1.2133789,0.0927734-1.75,0.2792969c-0.5366211,0.1875-1.012207,0.4462891-1.4262695,0.7792969
				c-0.4140625,0.3320312-0.7641602,0.7265625-1.0498047,1.1806641c-0.2861328,0.4550781-0.4873047,0.9570312-0.6035156,1.5058594
				c-0.09375,0.3378906-0.2338867,0.5830078-0.4204102,0.734375c-0.1865234,0.1523438-0.4316406,0.2275391-0.7348633,0.2275391
				c-0.0585938,0-0.1196289-0.0029297-0.1835938-0.0087891c-0.0644531-0.0058594-0.137207-0.0146484-0.21875-0.0263672
				l-1.6274414-0.2792969c0.1630859-1.1435547,0.4780273-2.1552734,0.9448242-3.0371094
				c0.4663086-0.8798828,1.0585938-1.6181641,1.7763672-2.2128906c0.7172852-0.5957031,1.5400391-1.0478516,2.4672852-1.3564453
				C114.8666992,17.9692383,115.8666992,17.8149414,116.9404297,17.8149414z"/>
		</g>
		<g class="st8">
			<path class="st5" d="M100.3413086,57.0541992c0,0.7509766-0.1191406,1.4345703-0.3574219,2.0507812
				s-0.5742188,1.1435547-1.0078125,1.5820312c-0.4345703,0.4384766-0.9541016,0.7783203-1.5615234,1.0185547
				c-0.6064453,0.2402344-1.2783203,0.3603516-2.015625,0.3603516h-3.7519531v-10.03125h3.7519531
				c0.7373047,0,1.4091797,0.1201172,2.015625,0.3603516c0.6074219,0.2412109,1.1269531,0.5810547,1.5615234,1.0224609
				c0.4335938,0.4414062,0.7695312,0.9697266,1.0078125,1.5849609
				C100.222168,55.6186523,100.3413086,56.3022461,100.3413086,57.0541992z M98.9477539,57.0541992
				c0-0.6162109-0.0839844-1.1669922-0.2519531-1.6523438s-0.40625-0.8955078-0.7138672-1.2324219
				c-0.3076172-0.3359375-0.6816406-0.5917969-1.1201172-0.7695312s-0.9257812-0.265625-1.4628906-0.265625H93.012207v7.8330078
				h2.3867188c0.5371094,0,1.0244141-0.0888672,1.4628906-0.2666016c0.4384766-0.1767578,0.8125-0.4326172,1.1201172-0.7666016
				c0.3076172-0.3330078,0.5458984-0.7431641,0.7138672-1.2285156S98.9477539,57.6694336,98.9477539,57.0541992z"/>
			<path class="st5" d="M110.1479492,62.065918h-1.0498047c-0.1210938,0-0.2197266-0.0302734-0.2939453-0.0908203
				c-0.0751953-0.0605469-0.1308594-0.1376953-0.1679688-0.2314453l-0.9384766-2.421875h-4.5009766l-0.9375,2.421875
				c-0.0332031,0.0839844-0.0888672,0.1591797-0.1679688,0.2246094c-0.0800781,0.0654297-0.1777344,0.0976562-0.2939453,0.0976562
				h-1.0507812l4.0117188-10.03125h1.3789062L110.1479492,62.065918z M103.574707,58.3422852h3.7451172l-1.5751953-4.0810547
				c-0.1025391-0.2519531-0.2021484-0.5673828-0.3007812-0.9453125c-0.0507812,0.1914062-0.1015625,0.3671875-0.1503906,0.5283203
				s-0.0966797,0.3027344-0.1435547,0.4238281L103.574707,58.3422852z"/>
			<path class="st5" d="M114.1313477,58.0756836v3.9902344h-1.3515625v-3.9902344l-3.6748047-6.0410156h1.1904297
				c0.1210938,0,0.2167969,0.0302734,0.2871094,0.0908203c0.0693359,0.0615234,0.1298828,0.1357422,0.1816406,0.2246094
				l2.2958984,3.8984375c0.09375,0.1640625,0.171875,0.3173828,0.234375,0.4619141
				c0.0634766,0.1455078,0.1201172,0.2871094,0.171875,0.4277344c0.0507812-0.1445312,0.1074219-0.2900391,0.1679688-0.4345703
				s0.1376953-0.2958984,0.2304688-0.4550781l2.2890625-3.8984375c0.0419922-0.0751953,0.0996094-0.1455078,0.171875-0.2138672
				c0.0722656-0.0673828,0.1669922-0.1015625,0.2832031-0.1015625h1.2041016L114.1313477,58.0756836z"/>
			<path class="st5" d="M124.2104492,53.6030273c-0.0419922,0.0703125-0.0859375,0.1220703-0.1328125,0.1572266
				s-0.1074219,0.0527344-0.1816406,0.0527344c-0.0800781,0-0.171875-0.0400391-0.2763672-0.1191406
				c-0.1054688-0.0791016-0.2382812-0.1669922-0.3994141-0.2626953s-0.3544922-0.1826172-0.5810547-0.2626953
				c-0.2265625-0.0791016-0.5-0.1181641-0.8222656-0.1181641c-0.3037109,0-0.5722656,0.0410156-0.8046875,0.1220703
				c-0.2333984,0.0820312-0.4287109,0.1923828-0.5849609,0.3330078c-0.15625,0.1396484-0.2744141,0.3037109-0.3535156,0.4931641
				c-0.0791016,0.1884766-0.1191406,0.3935547-0.1191406,0.6123047c0,0.2802734,0.0693359,0.5126953,0.2070312,0.6962891
				c0.1376953,0.1845703,0.3193359,0.3417969,0.5458984,0.4726562c0.2255859,0.1308594,0.4824219,0.2441406,0.7695312,0.3398438
				s0.5810547,0.1943359,0.8818359,0.296875c0.3017578,0.1035156,0.5957031,0.21875,0.8828125,0.3466797
				c0.2861328,0.1289062,0.5429688,0.2910156,0.7695312,0.4863281c0.2265625,0.1962891,0.4082031,0.4365234,0.5458984,0.7216797
				c0.1376953,0.2841797,0.2070312,0.6347656,0.2070312,1.0498047c0,0.4384766-0.0751953,0.8505859-0.2246094,1.2353516
				s-0.3671875,0.7197266-0.6542969,1.0048828c-0.2871094,0.2841797-0.6396484,0.5087891-1.0566406,0.671875
				c-0.4179688,0.1630859-0.8925781,0.2451172-1.4248047,0.2451172c-0.6484375,0-1.2402344-0.1181641-1.7744141-0.3535156
				c-0.5341797-0.2363281-0.9902344-0.5546875-1.3691406-0.9560547l0.3925781-0.6435547
				c0.0371094-0.0517578,0.0830078-0.0947266,0.1367188-0.1298828s0.1123047-0.0527344,0.1777344-0.0527344
				c0.0986328,0,0.2109375,0.0527344,0.3369141,0.1582031c0.1259766,0.1044922,0.2832031,0.2207031,0.4716797,0.3466797
				c0.1894531,0.1259766,0.4179688,0.2412109,0.6865234,0.3457031c0.2685547,0.1054688,0.5957031,0.1582031,0.9833984,0.1582031
				c0.3222656,0,0.609375-0.0449219,0.8613281-0.1337891c0.2519531-0.0878906,0.4648438-0.2128906,0.6396484-0.3740234
				c0.1757812-0.1611328,0.3095703-0.3535156,0.4033203-0.5771484c0.0927734-0.2246094,0.1396484-0.4736328,0.1396484-0.7490234
				c0-0.3037109-0.0693359-0.5517578-0.2060547-0.7460938c-0.1376953-0.1933594-0.3193359-0.3554688-0.5429688-0.4863281
				s-0.4794922-0.2412109-0.7666016-0.3320312c-0.2871094-0.0917969-0.5810547-0.1845703-0.8818359-0.2802734
				s-0.5947266-0.2070312-0.8818359-0.3330078s-0.5429688-0.2890625-0.7666016-0.4892578
				c-0.2236328-0.2011719-0.4052734-0.4521484-0.5429688-0.7529297s-0.2060547-0.6728516-0.2060547-1.1162109
				c0-0.3544922,0.0683594-0.6982422,0.2060547-1.0292969s0.3378906-0.625,0.5986328-0.8818359
				c0.2617188-0.2568359,0.5849609-0.4619141,0.9697266-0.6162109s0.8271484-0.2304688,1.3261719-0.2304688
				c0.5605469,0,1.0712891,0.0878906,1.5332031,0.265625s0.8652344,0.4335938,1.2109375,0.7695312L124.2104492,53.6030273z"/>
		</g>
	</g>
	<g class="st8">
		<path d="M141.3579102,38.0351562c0-0.1738281,0.0317383-0.3369141,0.0952148-0.4902344s0.1499023-0.2871094,0.2597656-0.4003906
			c0.1103516-0.1132812,0.2416992-0.203125,0.3950195-0.2695312s0.3168945-0.1005859,0.4902344-0.1005859
			s0.3364258,0.0341797,0.4897461,0.1005859s0.2866211,0.15625,0.4003906,0.2695312
			c0.1132812,0.1132812,0.2011719,0.2470703,0.2646484,0.4003906s0.0952148,0.3164062,0.0952148,0.4902344
			c0,0.1796875-0.0317383,0.3447266-0.0952148,0.4941406c-0.0634766,0.1503906-0.1513672,0.2822266-0.2646484,0.3955078
			c-0.1137695,0.1132812-0.2470703,0.2021484-0.4003906,0.2646484c-0.1533203,0.0634766-0.3164062,0.0957031-0.4897461,0.0957031
			s-0.3369141-0.0322266-0.4902344-0.0957031c-0.1533203-0.0625-0.284668-0.1513672-0.3950195-0.2646484
			c-0.1098633-0.1132812-0.1962891-0.2451172-0.2597656-0.3955078
			C141.3896484,38.3798828,141.3579102,38.2148438,141.3579102,38.0351562z M141.3579102,45.5356445
			c0-0.1738281,0.0317383-0.3378906,0.0952148-0.4902344c0.0634766-0.1542969,0.1499023-0.2871094,0.2597656-0.4003906
			c0.1103516-0.1132812,0.2416992-0.203125,0.3950195-0.2695312s0.3168945-0.1015625,0.4902344-0.1015625
			s0.3364258,0.0351562,0.4897461,0.1015625s0.2866211,0.15625,0.4003906,0.2695312
			c0.1132812,0.1132812,0.2011719,0.2460938,0.2646484,0.4003906c0.0634766,0.1523438,0.0952148,0.3164062,0.0952148,0.4902344
			c0,0.1796875-0.0317383,0.34375-0.0952148,0.4941406s-0.1513672,0.28125-0.2646484,0.3945312
			c-0.1137695,0.1132812-0.2470703,0.203125-0.4003906,0.265625s-0.3164062,0.0957031-0.4897461,0.0957031
			s-0.3369141-0.0332031-0.4902344-0.0957031s-0.284668-0.1523438-0.3950195-0.265625
			c-0.1098633-0.1132812-0.1962891-0.2441406-0.2597656-0.3945312S141.3579102,45.715332,141.3579102,45.5356445z"/>
	</g>
	<g>
		<g class="st8">
			<path class="st2" d="M179.1655273,30.6420898c0,2.1933594-0.2363281,4.0927734-0.7089844,5.6962891
				c-0.472168,1.6044922-1.1171875,2.9316406-1.9335938,3.9814453c-0.8168945,1.0498047-1.7822266,1.8320312-2.8959961,2.3447266
				c-1.1142578,0.5136719-2.3076172,0.7705078-3.5791016,0.7705078c-1.2832031,0-2.4760742-0.2568359-3.5786133-0.7705078
				c-1.1025391-0.5126953-2.0620117-1.2949219-2.8789062-2.3447266c-0.8164062-1.0498047-1.4584961-2.3769531-1.9248047-3.9814453
				c-0.4667969-1.6035156-0.7001953-3.5029297-0.7001953-5.6962891s0.2333984-4.0947266,0.7001953-5.7050781
				c0.4663086-1.609375,1.1083984-2.9423828,1.9248047-3.9980469c0.8168945-1.0556641,1.7763672-1.8408203,2.8789062-2.3544922
				c1.1025391-0.5126953,2.2954102-0.7695312,3.5786133-0.7695312c1.2714844,0,2.4648438,0.2568359,3.5791016,0.7695312
				c1.1137695,0.5136719,2.0791016,1.2988281,2.8959961,2.3544922c0.8164062,1.0556641,1.4614258,2.3886719,1.9335938,3.9980469
				C178.9291992,26.5473633,179.1655273,28.4487305,179.1655273,30.6420898z M175.9282227,30.6420898
				c0-1.9130859-0.1606445-3.5195312-0.4814453-4.8212891c-0.3208008-1.3007812-0.7524414-2.3476562-1.2949219-3.140625
				c-0.5424805-0.7939453-1.1699219-1.3623047-1.8813477-1.7070312c-0.7119141-0.34375-1.4526367-0.515625-2.2226562-0.515625
				s-1.5107422,0.171875-2.222168,0.515625c-0.7119141,0.3447266-1.3359375,0.9130859-1.8725586,1.7070312
				c-0.5366211,0.7929688-0.9658203,1.8398438-1.2861328,3.140625c-0.3212891,1.3017578-0.4814453,2.9082031-0.4814453,4.8212891
				c0,1.9140625,0.1601562,3.5175781,0.4814453,4.8125c0.3203125,1.2949219,0.7495117,2.3398438,1.2861328,3.1328125
				c0.5366211,0.7939453,1.1606445,1.3623047,1.8725586,1.7060547c0.7114258,0.3447266,1.4521484,0.5166016,2.222168,0.5166016
				s1.5107422-0.171875,2.2226562-0.5166016c0.7114258-0.34375,1.3388672-0.9121094,1.8813477-1.7060547
				c0.5424805-0.7929688,0.9741211-1.8378906,1.2949219-3.1328125S175.9282227,32.5561523,175.9282227,30.6420898z"/>
			<path class="st2" d="M199.1850586,18.0952148v1.3994141c0,0.3974609-0.0439453,0.7236328-0.1313477,0.9804688
				s-0.1782227,0.4726562-0.2714844,0.6474609l-10.3774414,20.9472656
				c-0.1518555,0.3037109-0.3618164,0.5634766-0.6298828,0.7783203c-0.2685547,0.2167969-0.6298828,0.3242188-1.0849609,0.3242188
				h-2.2226562l10.5351562-20.6845703c0.1513672-0.2919922,0.3061523-0.5605469,0.4638672-0.8056641
				c0.1572266-0.2451172,0.3349609-0.4775391,0.5336914-0.7001953h-13.090332c-0.1982422,0-0.3759766-0.078125-0.5336914-0.2353516
				c-0.1572266-0.1582031-0.2363281-0.3359375-0.2363281-0.5341797v-2.1171875H199.1850586z"/>
		</g>
		<g class="st8">
			<path class="st5" d="M165.7592773,62.065918h-1.3652344v-4.5644531h-5.4038086v4.5644531H157.625v-10.03125h1.3652344v4.4736328
				h5.4038086V52.034668h1.3652344V62.065918z"/>
			<path class="st5" d="M177.5263672,57.0541992c0,0.7509766-0.1191406,1.4404297-0.3569336,2.0683594
				c-0.2382812,0.6279297-0.5742188,1.1679688-1.0083008,1.6201172c-0.434082,0.453125-0.9555664,0.8037109-1.5644531,1.0537109
				s-1.2822266,0.375-2.0195312,0.375s-1.4091797-0.125-2.0161133-0.375c-0.6064453-0.25-1.1269531-0.6005859-1.5610352-1.0537109
				c-0.4335938-0.4521484-0.7700195-0.9921875-1.0078125-1.6201172s-0.3569336-1.3173828-0.3569336-2.0683594
				c0-0.7519531,0.1191406-1.4414062,0.3569336-2.0683594c0.237793-0.6279297,0.5742188-1.1689453,1.0078125-1.6240234
				c0.434082-0.4550781,0.9545898-0.8085938,1.5610352-1.0605469c0.6069336-0.2519531,1.2788086-0.3779297,2.0161133-0.3779297
				s1.4106445,0.1259766,2.0195312,0.3779297s1.1303711,0.6054688,1.5644531,1.0605469s0.7700195,0.9960938,1.0083008,1.6240234
				C177.4072266,55.612793,177.5263672,56.3022461,177.5263672,57.0541992z M176.1333008,57.0541992
				c0-0.6162109-0.0839844-1.1689453-0.2519531-1.6591797s-0.40625-0.9042969-0.7143555-1.2421875
				c-0.3076172-0.3388672-0.6811523-0.5986328-1.1196289-0.78125c-0.4389648-0.1816406-0.9287109-0.2724609-1.4702148-0.2724609
				c-0.5366211,0-1.0244141,0.0908203-1.4628906,0.2724609c-0.4389648,0.1826172-0.8134766,0.4423828-1.1235352,0.78125
				c-0.3105469,0.3378906-0.5493164,0.7519531-0.7172852,1.2421875c-0.168457,0.4902344-0.2524414,1.0429688-0.2524414,1.6591797
				c0,0.6152344,0.0839844,1.1679688,0.2524414,1.6552734c0.1679688,0.4873047,0.4067383,0.9003906,0.7172852,1.2392578
				c0.3100586,0.3378906,0.6845703,0.5966797,1.1235352,0.7763672c0.4384766,0.1796875,0.9262695,0.2695312,1.4628906,0.2695312
				c0.5415039,0,1.03125-0.0898438,1.4702148-0.2695312c0.4384766-0.1796875,0.8120117-0.4384766,1.1196289-0.7763672
				c0.3081055-0.3388672,0.5463867-0.7519531,0.7143555-1.2392578S176.1333008,57.6694336,176.1333008,57.0541992z"/>
			<path class="st5" d="M183.2802734,60.987793c0.4150391,0,0.7861328-0.0703125,1.112793-0.2099609
				s0.6030273-0.3359375,0.8295898-0.5878906c0.2260742-0.2519531,0.3989258-0.5527344,0.5180664-0.9033203
				c0.1186523-0.3496094,0.1782227-0.734375,0.1782227-1.1542969V52.034668h1.3510742v6.0976562
				c0,0.578125-0.0922852,1.1152344-0.2763672,1.609375c-0.1845703,0.4951172-0.4482422,0.9228516-0.7910156,1.2851562
				c-0.3432617,0.3613281-0.7617188,0.6445312-1.2563477,0.8496094c-0.4951172,0.2060547-1.050293,0.3085938-1.6660156,0.3085938
				c-0.6162109,0-1.1713867-0.1025391-1.6660156-0.3085938c-0.4951172-0.2050781-0.9150391-0.4882812-1.2602539-0.8496094
				c-0.3452148-0.3623047-0.6103516-0.7900391-0.7944336-1.2851562c-0.1845703-0.4941406-0.2763672-1.03125-0.2763672-1.609375
				V52.034668h1.3510742v6.0898438c0,0.4199219,0.059082,0.8056641,0.1782227,1.1552734
				c0.1191406,0.3505859,0.2915039,0.6513672,0.5180664,0.9033203c0.2260742,0.2519531,0.5039062,0.4492188,0.8330078,0.5917969
				C182.4926758,60.9165039,182.8647461,60.987793,183.2802734,60.987793z"/>
			<path class="st5" d="M191.0917969,57.8803711v4.1855469h-1.3510742v-10.03125h2.8349609
				c0.6347656,0,1.1831055,0.0644531,1.6450195,0.1923828c0.4619141,0.1289062,0.84375,0.3144531,1.1445312,0.5566406
				c0.3012695,0.2431641,0.5239258,0.5361328,0.668457,0.8789062s0.2172852,0.7265625,0.2172852,1.1513672
				c0,0.3544922-0.0561523,0.6855469-0.1679688,0.9941406c-0.1123047,0.3076172-0.2744141,0.5839844-0.4868164,0.8291016
				s-0.4711914,0.4541016-0.7768555,0.6269531s-0.6523438,0.3027344-1.0395508,0.3916016
				c0.1679688,0.0986328,0.3173828,0.2402344,0.4482422,0.4267578l2.9257812,3.9833984h-1.2041016
				c-0.2470703,0-0.4291992-0.0957031-0.5458984-0.2871094l-2.6040039-3.5839844
				c-0.0795898-0.1123047-0.1655273-0.1923828-0.2587891-0.2412109c-0.09375-0.0488281-0.2333984-0.0732422-0.4204102-0.0732422
				H191.0917969z M191.0917969,56.8930664h1.4208984c0.3964844,0,0.7456055-0.0478516,1.0463867-0.1435547
				c0.3012695-0.0957031,0.5532227-0.2314453,0.7563477-0.40625s0.3554688-0.3837891,0.4584961-0.6259766
				c0.1025391-0.2431641,0.1538086-0.5117188,0.1538086-0.8056641c0-0.5966797-0.1972656-1.046875-0.5913086-1.3505859
				c-0.3945312-0.3037109-0.9814453-0.4550781-1.7607422-0.4550781h-1.4838867V56.8930664z"/>
			<path class="st5" d="M203.7548828,53.6030273c-0.0419922,0.0703125-0.0864258,0.1220703-0.1328125,0.1572266
				c-0.046875,0.0351562-0.1074219,0.0527344-0.1821289,0.0527344c-0.0795898,0-0.1713867-0.0400391-0.2763672-0.1191406
				s-0.2382812-0.1669922-0.3989258-0.2626953c-0.1611328-0.0957031-0.3549805-0.1826172-0.5810547-0.2626953
				c-0.2265625-0.0791016-0.5004883-0.1181641-0.8227539-0.1181641c-0.3032227,0-0.5717773,0.0410156-0.8046875,0.1220703
				c-0.2333984,0.0820312-0.4282227,0.1923828-0.5849609,0.3330078c-0.15625,0.1396484-0.2739258,0.3037109-0.3530273,0.4931641
				c-0.0795898,0.1884766-0.1191406,0.3935547-0.1191406,0.6123047c0,0.2802734,0.0688477,0.5126953,0.206543,0.6962891
				c0.1376953,0.1845703,0.3193359,0.3417969,0.5458984,0.4726562c0.2260742,0.1308594,0.4829102,0.2441406,0.7700195,0.3398438
				s0.5810547,0.1943359,0.8818359,0.296875c0.3012695,0.1035156,0.5952148,0.21875,0.8823242,0.3466797
				c0.2866211,0.1289062,0.543457,0.2910156,0.7700195,0.4863281c0.2260742,0.1962891,0.4082031,0.4365234,0.5458984,0.7216797
				c0.1376953,0.2841797,0.206543,0.6347656,0.206543,1.0498047c0,0.4384766-0.074707,0.8505859-0.2241211,1.2353516
				s-0.3676758,0.7197266-0.6547852,1.0048828c-0.2866211,0.2841797-0.6391602,0.5087891-1.0566406,0.671875
				c-0.4179688,0.1630859-0.8925781,0.2451172-1.4248047,0.2451172c-0.6484375,0-1.2402344-0.1181641-1.7744141-0.3535156
				c-0.5341797-0.2363281-0.9902344-0.5546875-1.3686523-0.9560547l0.3920898-0.6435547
				c0.0375977-0.0517578,0.0830078-0.0947266,0.1367188-0.1298828s0.112793-0.0527344,0.1782227-0.0527344
				c0.0981445,0,0.2104492,0.0527344,0.3364258,0.1582031c0.1259766,0.1044922,0.2832031,0.2207031,0.472168,0.3466797
				s0.4174805,0.2412109,0.6860352,0.3457031c0.2685547,0.1054688,0.5961914,0.1582031,0.9833984,0.1582031
				c0.3222656,0,0.609375-0.0449219,0.8613281-0.1337891c0.2519531-0.0878906,0.465332-0.2128906,0.6401367-0.3740234
				c0.175293-0.1611328,0.309082-0.3535156,0.402832-0.5771484c0.0932617-0.2246094,0.1396484-0.4736328,0.1396484-0.7490234
				c0-0.3037109-0.0688477-0.5517578-0.2060547-0.7460938c-0.1376953-0.1933594-0.3188477-0.3554688-0.5424805-0.4863281
				c-0.2241211-0.1308594-0.4794922-0.2412109-0.7666016-0.3320312c-0.2871094-0.0917969-0.5810547-0.1845703-0.8823242-0.2802734
				c-0.3007812-0.0957031-0.5947266-0.2070312-0.8818359-0.3330078s-0.5424805-0.2890625-0.7666016-0.4892578
				c-0.2236328-0.2011719-0.4047852-0.4521484-0.5424805-0.7529297s-0.206543-0.6728516-0.206543-1.1162109
				c0-0.3544922,0.0688477-0.6982422,0.206543-1.0292969s0.3374023-0.625,0.5986328-0.8818359
				s0.5844727-0.4619141,0.9692383-0.6162109c0.3852539-0.1542969,0.8271484-0.2304688,1.3266602-0.2304688
				c0.5600586,0,1.0712891,0.0878906,1.5332031,0.265625s0.8652344,0.4335938,1.2109375,0.7695312L203.7548828,53.6030273z"/>
		</g>
	</g>
	<g class="st8">
		<path d="M218.3579102,38.0351562c0-0.1738281,0.03125-0.3369141,0.0957031-0.4902344
			c0.0625-0.1533203,0.1494141-0.2871094,0.2597656-0.4003906c0.109375-0.1132812,0.2412109-0.203125,0.3945312-0.2695312
			s0.3164062-0.1005859,0.4902344-0.1005859s0.3359375,0.0341797,0.4902344,0.1005859
			c0.1523438,0.0664062,0.2861328,0.15625,0.4003906,0.2695312c0.1132812,0.1132812,0.2011719,0.2470703,0.2636719,0.4003906
			c0.0644531,0.1533203,0.0957031,0.3164062,0.0957031,0.4902344c0,0.1796875-0.03125,0.3447266-0.0957031,0.4941406
			c-0.0625,0.1503906-0.1503906,0.2822266-0.2636719,0.3955078c-0.1142578,0.1132812-0.2480469,0.2021484-0.4003906,0.2646484
			c-0.1542969,0.0634766-0.3164062,0.0957031-0.4902344,0.0957031s-0.3369141-0.0322266-0.4902344-0.0957031
			c-0.1533203-0.0625-0.2851562-0.1513672-0.3945312-0.2646484c-0.1103516-0.1132812-0.1972656-0.2451172-0.2597656-0.3955078
			C218.3891602,38.3798828,218.3579102,38.2148438,218.3579102,38.0351562z M218.3579102,45.5356445
			c0-0.1738281,0.03125-0.3378906,0.0957031-0.4902344c0.0625-0.1542969,0.1494141-0.2871094,0.2597656-0.4003906
			c0.109375-0.1132812,0.2412109-0.203125,0.3945312-0.2695312s0.3164062-0.1015625,0.4902344-0.1015625
			s0.3359375,0.0351562,0.4902344,0.1015625c0.1523438,0.0664062,0.2861328,0.15625,0.4003906,0.2695312
			c0.1132812,0.1132812,0.2011719,0.2460938,0.2636719,0.4003906c0.0644531,0.1523438,0.0957031,0.3164062,0.0957031,0.4902344
			c0,0.1796875-0.03125,0.34375-0.0957031,0.4941406c-0.0625,0.1503906-0.1503906,0.28125-0.2636719,0.3945312
			c-0.1142578,0.1132812-0.2480469,0.203125-0.4003906,0.265625c-0.1542969,0.0625-0.3164062,0.0957031-0.4902344,0.0957031
			s-0.3369141-0.0332031-0.4902344-0.0957031s-0.2851562-0.1523438-0.3945312-0.265625
			c-0.1103516-0.1132812-0.1972656-0.2441406-0.2597656-0.3945312
			C218.3891602,45.8793945,218.3579102,45.715332,218.3579102,45.5356445z"/>
	</g>
	<g>
		<g class="st8">
			<path class="st2" d="M249.0268555,34.1245117h3.7978516v1.7851562c0,0.1865234-0.0556641,0.3447266-0.1669922,0.4726562
				c-0.1103516,0.1289062-0.2822266,0.1923828-0.515625,0.1923828h-3.1152344v6.5976562h-2.7470703V36.574707h-11.1132812
				c-0.2333984,0-0.4345703-0.0664062-0.6035156-0.2011719c-0.1689453-0.1337891-0.2773438-0.2998047-0.3232422-0.4990234
				l-0.3154297-1.5917969l12.1972656-16.1875h2.9052734V34.1245117z M246.2797852,23.7827148
				c0-0.3037109,0.0087891-0.6298828,0.0253906-0.9804688c0.0175781-0.3496094,0.0556641-0.7109375,0.1142578-1.0849609
				l-9.1171875,12.4072266h8.9775391V23.7827148z"/>
			<path class="st2" d="M272.7739258,30.6420898c0,2.1933594-0.2363281,4.0927734-0.7089844,5.6962891
				c-0.4726562,1.6044922-1.1171875,2.9316406-1.9335938,3.9814453c-0.8173828,1.0498047-1.7822266,1.8320312-2.8964844,2.3447266
				c-1.1142578,0.5136719-2.3076172,0.7705078-3.5791016,0.7705078c-1.2832031,0-2.4755859-0.2568359-3.578125-0.7705078
				c-1.1025391-0.5126953-2.0625-1.2949219-2.8789062-2.3447266s-1.4589844-2.3769531-1.9248047-3.9814453
				c-0.4667969-1.6035156-0.7001953-3.5029297-0.7001953-5.6962891s0.2333984-4.0947266,0.7001953-5.7050781
				c0.4658203-1.609375,1.1083984-2.9423828,1.9248047-3.9980469s1.7763672-1.8408203,2.8789062-2.3544922
				c1.1025391-0.5126953,2.2949219-0.7695312,3.578125-0.7695312c1.2714844,0,2.4648438,0.2568359,3.5791016,0.7695312
				c1.1142578,0.5136719,2.0791016,1.2988281,2.8964844,2.3544922c0.8164062,1.0556641,1.4609375,2.3886719,1.9335938,3.9980469
				C272.5375977,26.5473633,272.7739258,28.4487305,272.7739258,30.6420898z M269.5366211,30.6420898
				c0-1.9130859-0.1611328-3.5195312-0.4814453-4.8212891c-0.3212891-1.3007812-0.7529297-2.3476562-1.2949219-3.140625
				c-0.5429688-0.7939453-1.1699219-1.3623047-1.8818359-1.7070312c-0.7119141-0.34375-1.4521484-0.515625-2.2226562-0.515625
				c-0.7695312,0-1.5107422,0.171875-2.2216797,0.515625c-0.7119141,0.3447266-1.3359375,0.9130859-1.8730469,1.7070312
				c-0.5361328,0.7929688-0.9658203,1.8398438-1.2861328,3.140625c-0.3212891,1.3017578-0.4814453,2.9082031-0.4814453,4.8212891
				c0,1.9140625,0.1601562,3.5175781,0.4814453,4.8125c0.3203125,1.2949219,0.75,2.3398438,1.2861328,3.1328125
				c0.5371094,0.7939453,1.1611328,1.3623047,1.8730469,1.7060547c0.7109375,0.3447266,1.4521484,0.5166016,2.2216797,0.5166016
				c0.7705078,0,1.5107422-0.171875,2.2226562-0.5166016c0.7119141-0.34375,1.3388672-0.9121094,1.8818359-1.7060547
				c0.5419922-0.7929688,0.9736328-1.8378906,1.2949219-3.1328125
				C269.3754883,34.159668,269.5366211,32.5561523,269.5366211,30.6420898z"/>
		</g>
		<g class="st8">
			<path class="st5" d="M242.7104492,58.793457c0.0488281,0.1240234,0.0966797,0.2480469,0.1435547,0.3740234
				c0.046875-0.1298828,0.0957031-0.2548828,0.1474609-0.3740234c0.0507812-0.1191406,0.109375-0.2392578,0.1748047-0.3603516
				l3.3945312-6.1669922c0.0605469-0.1074219,0.1240234-0.1728516,0.1894531-0.1962891s0.1582031-0.0351562,0.2792969-0.0351562
				h1.0009766v10.03125h-1.1894531v-7.3710938c0-0.0976562,0.0019531-0.203125,0.0068359-0.3144531
				c0.0048828-0.1123047,0.0117188-0.2265625,0.0214844-0.34375l-3.4375,6.2724609
				c-0.1162109,0.2099609-0.2802734,0.3144531-0.4902344,0.3144531h-0.1953125
				c-0.2099609,0-0.3740234-0.1044922-0.4902344-0.3144531l-3.5136719-6.2929688
				c0.0136719,0.1210938,0.0244141,0.2402344,0.03125,0.3564453c0.0068359,0.1171875,0.0107422,0.2246094,0.0107422,0.3222656
				v7.3710938h-1.1904297v-10.03125h1.0009766c0.1210938,0,0.2148438,0.0117188,0.2802734,0.0351562
				s0.1279297,0.0888672,0.1884766,0.1962891l3.4648438,6.1738281
				C242.6040039,58.5522461,242.6616211,58.6694336,242.7104492,58.793457z"/>
			<path class="st5" d="M252.0942383,62.065918h-1.3583984v-10.03125h1.3583984V62.065918z"/>
			<path class="st5" d="M255.7514648,52.0805664c0.0576172,0.0302734,0.125,0.0917969,0.1992188,0.1855469l5.8095703,7.5595703
				c-0.0136719-0.1210938-0.0224609-0.2392578-0.0273438-0.3535156s-0.0068359-0.2246094-0.0068359-0.3320312V52.034668h1.1894531
				v10.03125h-0.6855469c-0.1074219,0-0.1972656-0.0185547-0.2695312-0.0556641
				c-0.0722656-0.0380859-0.1435547-0.1005859-0.2138672-0.1894531l-5.8027344-7.5527344
				c0.0087891,0.1162109,0.0166016,0.2304688,0.0205078,0.3427734c0.0048828,0.1123047,0.0078125,0.2148438,0.0078125,0.3076172
				v7.1474609h-1.1904297v-10.03125h0.7001953C255.6030273,52.034668,255.6928711,52.050293,255.7514648,52.0805664z"/>
			<path class="st5" d="M270.503418,53.6030273c-0.0419922,0.0703125-0.0859375,0.1220703-0.1328125,0.1572266
				s-0.1074219,0.0527344-0.1816406,0.0527344c-0.0800781,0-0.171875-0.0400391-0.2763672-0.1191406
				c-0.1054688-0.0791016-0.2382812-0.1669922-0.3994141-0.2626953s-0.3544922-0.1826172-0.5810547-0.2626953
				c-0.2265625-0.0791016-0.5-0.1181641-0.8222656-0.1181641c-0.3037109,0-0.5722656,0.0410156-0.8046875,0.1220703
				c-0.2333984,0.0820312-0.4287109,0.1923828-0.5849609,0.3330078c-0.15625,0.1396484-0.2744141,0.3037109-0.3535156,0.4931641
				c-0.0791016,0.1884766-0.1191406,0.3935547-0.1191406,0.6123047c0,0.2802734,0.0693359,0.5126953,0.2070312,0.6962891
				c0.1376953,0.1845703,0.3193359,0.3417969,0.5458984,0.4726562c0.2255859,0.1308594,0.4824219,0.2441406,0.7695312,0.3398438
				s0.5810547,0.1943359,0.8818359,0.296875c0.3017578,0.1035156,0.5957031,0.21875,0.8828125,0.3466797
				c0.2861328,0.1289062,0.5429688,0.2910156,0.7695312,0.4863281c0.2265625,0.1962891,0.4082031,0.4365234,0.5458984,0.7216797
				c0.1376953,0.2841797,0.2070312,0.6347656,0.2070312,1.0498047c0,0.4384766-0.0751953,0.8505859-0.2246094,1.2353516
				s-0.3671875,0.7197266-0.6542969,1.0048828c-0.2871094,0.2841797-0.6396484,0.5087891-1.0566406,0.671875
				c-0.4179688,0.1630859-0.8925781,0.2451172-1.4248047,0.2451172c-0.6484375,0-1.2402344-0.1181641-1.7744141-0.3535156
				c-0.5341797-0.2363281-0.9902344-0.5546875-1.3691406-0.9560547l0.3925781-0.6435547
				c0.0371094-0.0517578,0.0830078-0.0947266,0.1367188-0.1298828s0.1123047-0.0527344,0.1777344-0.0527344
				c0.0986328,0,0.2109375,0.0527344,0.3369141,0.1582031c0.1259766,0.1044922,0.2832031,0.2207031,0.4716797,0.3466797
				c0.1894531,0.1259766,0.4179688,0.2412109,0.6865234,0.3457031c0.2685547,0.1054688,0.5957031,0.1582031,0.9833984,0.1582031
				c0.3222656,0,0.609375-0.0449219,0.8613281-0.1337891c0.2519531-0.0878906,0.4648438-0.2128906,0.6396484-0.3740234
				c0.1757812-0.1611328,0.3095703-0.3535156,0.4033203-0.5771484c0.0927734-0.2246094,0.1396484-0.4736328,0.1396484-0.7490234
				c0-0.3037109-0.0693359-0.5517578-0.2060547-0.7460938c-0.1376953-0.1933594-0.3193359-0.3554688-0.5429688-0.4863281
				s-0.4794922-0.2412109-0.7666016-0.3320312c-0.2871094-0.0917969-0.5810547-0.1845703-0.8818359-0.2802734
				s-0.5947266-0.2070312-0.8818359-0.3330078s-0.5429688-0.2890625-0.7666016-0.4892578
				c-0.2236328-0.2011719-0.4052734-0.4521484-0.5429688-0.7529297s-0.2060547-0.6728516-0.2060547-1.1162109
				c0-0.3544922,0.0683594-0.6982422,0.2060547-1.0292969s0.3378906-0.625,0.5986328-0.8818359
				c0.2617188-0.2568359,0.5849609-0.4619141,0.9697266-0.6162109s0.8271484-0.2304688,1.3261719-0.2304688
				c0.5605469,0,1.0712891,0.0878906,1.5332031,0.265625s0.8652344,0.4335938,1.2109375,0.7695312L270.503418,53.6030273z"/>
		</g>
	</g>
	<g class="st8">
		<path d="M287.3579102,38.0351562c0-0.1738281,0.03125-0.3369141,0.0957031-0.4902344
			c0.0625-0.1533203,0.1494141-0.2871094,0.2597656-0.4003906c0.109375-0.1132812,0.2412109-0.203125,0.3945312-0.2695312
			s0.3164062-0.1005859,0.4902344-0.1005859s0.3359375,0.0341797,0.4902344,0.1005859
			c0.1523438,0.0664062,0.2861328,0.15625,0.4003906,0.2695312c0.1132812,0.1132812,0.2011719,0.2470703,0.2636719,0.4003906
			c0.0644531,0.1533203,0.0957031,0.3164062,0.0957031,0.4902344c0,0.1796875-0.03125,0.3447266-0.0957031,0.4941406
			c-0.0625,0.1503906-0.1503906,0.2822266-0.2636719,0.3955078c-0.1142578,0.1132812-0.2480469,0.2021484-0.4003906,0.2646484
			c-0.1542969,0.0634766-0.3164062,0.0957031-0.4902344,0.0957031s-0.3369141-0.0322266-0.4902344-0.0957031
			c-0.1533203-0.0625-0.2851562-0.1513672-0.3945312-0.2646484c-0.1103516-0.1132812-0.1972656-0.2451172-0.2597656-0.3955078
			C287.3891602,38.3798828,287.3579102,38.2148438,287.3579102,38.0351562z M287.3579102,45.5356445
			c0-0.1738281,0.03125-0.3378906,0.0957031-0.4902344c0.0625-0.1542969,0.1494141-0.2871094,0.2597656-0.4003906
			c0.109375-0.1132812,0.2412109-0.203125,0.3945312-0.2695312s0.3164062-0.1015625,0.4902344-0.1015625
			s0.3359375,0.0351562,0.4902344,0.1015625c0.1523438,0.0664062,0.2861328,0.15625,0.4003906,0.2695312
			c0.1132812,0.1132812,0.2011719,0.2460938,0.2636719,0.4003906c0.0644531,0.1523438,0.0957031,0.3164062,0.0957031,0.4902344
			c0,0.1796875-0.03125,0.34375-0.0957031,0.4941406c-0.0625,0.1503906-0.1503906,0.28125-0.2636719,0.3945312
			c-0.1142578,0.1132812-0.2480469,0.203125-0.4003906,0.265625c-0.1542969,0.0625-0.3164062,0.0957031-0.4902344,0.0957031
			s-0.3369141-0.0332031-0.4902344-0.0957031s-0.2851562-0.1523438-0.3945312-0.265625
			c-0.1103516-0.1132812-0.1972656-0.2441406-0.2597656-0.3945312
			C287.3891602,45.8793945,287.3579102,45.715332,287.3579102,45.5356445z"/>
	</g>
	<g>
		<g class="st8">
			<path class="st2" d="M321.4077148,30.6420898c0,2.1933594-0.2363281,4.0927734-0.7089844,5.6962891
				c-0.4726562,1.6044922-1.1171875,2.9316406-1.9335938,3.9814453c-0.8173828,1.0498047-1.7822266,1.8320312-2.8964844,2.3447266
				c-1.1142578,0.5136719-2.3076172,0.7705078-3.5791016,0.7705078c-1.2832031,0-2.4755859-0.2568359-3.578125-0.7705078
				c-1.1025391-0.5126953-2.0625-1.2949219-2.8789062-2.3447266s-1.4589844-2.3769531-1.9248047-3.9814453
				c-0.4667969-1.6035156-0.7001953-3.5029297-0.7001953-5.6962891s0.2333984-4.0947266,0.7001953-5.7050781
				c0.4658203-1.609375,1.1083984-2.9423828,1.9248047-3.9980469s1.7763672-1.8408203,2.8789062-2.3544922
				c1.1025391-0.5126953,2.2949219-0.7695312,3.578125-0.7695312c1.2714844,0,2.4648438,0.2568359,3.5791016,0.7695312
				c1.1142578,0.5136719,2.0791016,1.2988281,2.8964844,2.3544922c0.8164062,1.0556641,1.4609375,2.3886719,1.9335938,3.9980469
				C321.1713867,26.5473633,321.4077148,28.4487305,321.4077148,30.6420898z M318.1704102,30.6420898
				c0-1.9130859-0.1611328-3.5195312-0.4814453-4.8212891c-0.3212891-1.3007812-0.7529297-2.3476562-1.2949219-3.140625
				c-0.5429688-0.7939453-1.1699219-1.3623047-1.8818359-1.7070312c-0.7119141-0.34375-1.4521484-0.515625-2.2226562-0.515625
				c-0.7695312,0-1.5107422,0.171875-2.2216797,0.515625c-0.7119141,0.3447266-1.3359375,0.9130859-1.8730469,1.7070312
				c-0.5361328,0.7929688-0.9658203,1.8398438-1.2861328,3.140625c-0.3212891,1.3017578-0.4814453,2.9082031-0.4814453,4.8212891
				c0,1.9140625,0.1601562,3.5175781,0.4814453,4.8125c0.3203125,1.2949219,0.75,2.3398438,1.2861328,3.1328125
				c0.5371094,0.7939453,1.1611328,1.3623047,1.8730469,1.7060547c0.7109375,0.3447266,1.4521484,0.5166016,2.2216797,0.5166016
				c0.7705078,0,1.5107422-0.171875,2.2226562-0.5166016c0.7119141-0.34375,1.3388672-0.9121094,1.8818359-1.7060547
				c0.5419922-0.7929688,0.9736328-1.8378906,1.2949219-3.1328125
				C318.0092773,34.159668,318.1704102,32.5561523,318.1704102,30.6420898z"/>
			<path class="st2" d="M339.5717773,19.4594727c0,0.4443359-0.1396484,0.8085938-0.4199219,1.09375
				c-0.2802734,0.2861328-0.7529297,0.4287109-1.4179688,0.4287109h-7.875l-1.1542969,6.5800781
				c1.3066406-0.2792969,2.5136719-0.4199219,3.6220703-0.4199219c1.3066406,0,2.4589844,0.1923828,3.4560547,0.578125
				c0.9980469,0.3847656,1.8349609,0.9160156,2.5117188,1.5917969c0.6767578,0.6767578,1.1865234,1.4765625,1.53125,2.3974609
				c0.34375,0.921875,0.515625,1.9257812,0.515625,3.0107422c0,1.3300781-0.2333984,2.53125-0.6992188,3.6044922
				c-0.4667969,1.0732422-1.1054688,1.9921875-1.9169922,2.7568359c-0.8105469,0.7636719-1.7646484,1.3496094-2.8603516,1.7587891
				c-1.0976562,0.4082031-2.28125,0.6123047-3.5527344,0.6123047c-0.7353516,0-1.4414062-0.0732422-2.1181641-0.21875
				c-0.6767578-0.1464844-1.3066406-0.3417969-1.8896484-0.5869141c-0.5830078-0.2441406-1.1259766-0.5244141-1.6269531-0.8398438
				c-0.5019531-0.3144531-0.9453125-0.6474609-1.3300781-0.9970703l0.9443359-1.3300781
				c0.2099609-0.3037109,0.4902344-0.4550781,0.8398438-0.4550781c0.2216797,0,0.4814453,0.0908203,0.7792969,0.2714844
				s0.65625,0.3818359,1.0761719,0.6035156s0.9130859,0.4228516,1.4785156,0.6035156
				c0.5664062,0.1816406,1.2392578,0.2714844,2.0214844,0.2714844c0.875,0,1.6621094-0.1396484,2.3623047-0.4199219
				s1.2978516-0.6796875,1.7939453-1.1992188c0.4960938-0.5185547,0.8779297-1.1396484,1.1464844-1.8632812
				c0.2675781-0.7236328,0.4023438-1.5341797,0.4023438-2.4326172c0-0.78125-0.1142578-1.4873047-0.3417969-2.1171875
				s-0.5712891-1.1669922-1.0322266-1.6103516s-1.0351562-0.7871094-1.7236328-1.0322266s-1.4931641-0.3681641-2.4150391-0.3681641
				c-0.6298828,0-1.2832031,0.0527344-1.9599609,0.1582031c-0.6767578,0.1044922-1.3769531,0.2744141-2.0996094,0.5068359
				l-1.9599609-0.5771484l2.0292969-11.7246094h11.8828125V19.4594727z"/>
		</g>
		<g class="st8">
			<path class="st5" d="M311.7963867,53.6030273c-0.0419922,0.0703125-0.0859375,0.1220703-0.1328125,0.1572266
				s-0.1074219,0.0527344-0.1816406,0.0527344c-0.0800781,0-0.171875-0.0400391-0.2763672-0.1191406
				c-0.1054688-0.0791016-0.2382812-0.1669922-0.3994141-0.2626953s-0.3544922-0.1826172-0.5810547-0.2626953
				c-0.2265625-0.0791016-0.5-0.1181641-0.8222656-0.1181641c-0.3037109,0-0.5722656,0.0410156-0.8046875,0.1220703
				c-0.2333984,0.0820312-0.4287109,0.1923828-0.5849609,0.3330078c-0.15625,0.1396484-0.2744141,0.3037109-0.3535156,0.4931641
				c-0.0791016,0.1884766-0.1191406,0.3935547-0.1191406,0.6123047c0,0.2802734,0.0693359,0.5126953,0.2070312,0.6962891
				c0.1376953,0.1845703,0.3193359,0.3417969,0.5458984,0.4726562c0.2255859,0.1308594,0.4824219,0.2441406,0.7695312,0.3398438
				s0.5810547,0.1943359,0.8818359,0.296875c0.3017578,0.1035156,0.5957031,0.21875,0.8828125,0.3466797
				c0.2861328,0.1289062,0.5429688,0.2910156,0.7695312,0.4863281c0.2265625,0.1962891,0.4082031,0.4365234,0.5458984,0.7216797
				c0.1376953,0.2841797,0.2070312,0.6347656,0.2070312,1.0498047c0,0.4384766-0.0751953,0.8505859-0.2246094,1.2353516
				s-0.3671875,0.7197266-0.6542969,1.0048828c-0.2871094,0.2841797-0.6396484,0.5087891-1.0566406,0.671875
				c-0.4179688,0.1630859-0.8925781,0.2451172-1.4248047,0.2451172c-0.6484375,0-1.2402344-0.1181641-1.7744141-0.3535156
				c-0.5341797-0.2363281-0.9902344-0.5546875-1.3691406-0.9560547l0.3925781-0.6435547
				c0.0371094-0.0517578,0.0830078-0.0947266,0.1367188-0.1298828s0.1123047-0.0527344,0.1777344-0.0527344
				c0.0986328,0,0.2109375,0.0527344,0.3369141,0.1582031c0.1259766,0.1044922,0.2832031,0.2207031,0.4716797,0.3466797
				c0.1894531,0.1259766,0.4179688,0.2412109,0.6865234,0.3457031c0.2685547,0.1054688,0.5957031,0.1582031,0.9833984,0.1582031
				c0.3222656,0,0.609375-0.0449219,0.8613281-0.1337891c0.2519531-0.0878906,0.4648438-0.2128906,0.6396484-0.3740234
				c0.1757812-0.1611328,0.3095703-0.3535156,0.4033203-0.5771484c0.0927734-0.2246094,0.1396484-0.4736328,0.1396484-0.7490234
				c0-0.3037109-0.0693359-0.5517578-0.2060547-0.7460938c-0.1376953-0.1933594-0.3193359-0.3554688-0.5429688-0.4863281
				s-0.4794922-0.2412109-0.7666016-0.3320312c-0.2871094-0.0917969-0.5810547-0.1845703-0.8818359-0.2802734
				s-0.5947266-0.2070312-0.8818359-0.3330078s-0.5429688-0.2890625-0.7666016-0.4892578
				c-0.2236328-0.2011719-0.4052734-0.4521484-0.5429688-0.7529297s-0.2060547-0.6728516-0.2060547-1.1162109
				c0-0.3544922,0.0683594-0.6982422,0.2060547-1.0292969s0.3378906-0.625,0.5986328-0.8818359
				c0.2617188-0.2568359,0.5849609-0.4619141,0.9697266-0.6162109s0.8271484-0.2304688,1.3261719-0.2304688
				c0.5605469,0,1.0712891,0.0878906,1.5332031,0.265625s0.8652344,0.4335938,1.2109375,0.7695312L311.7963867,53.6030273z"/>
			<path class="st5" d="M320.2592773,52.034668v1.1064453h-4.8154297v3.3320312h3.8984375v1.0634766h-3.8984375v3.4228516h4.8154297
				v1.1064453h-6.1806641v-10.03125H320.2592773z"/>
			<path class="st5" d="M329.2827148,59.9936523c0.0742188,0,0.1416016,0.0302734,0.203125,0.0908203l0.53125,0.5810547
				c-0.4101562,0.4765625-0.9082031,0.8476562-1.4941406,1.1132812s-1.2919922,0.3994141-2.1171875,0.3994141
				c-0.7236328,0-1.3789062-0.125-1.9677734-0.375c-0.5878906-0.2490234-1.0888672-0.5996094-1.5048828-1.0498047
				c-0.4150391-0.4501953-0.7373047-0.9902344-0.9658203-1.6201172c-0.2285156-0.6308594-0.3427734-1.3232422-0.3427734-2.0791016
				s0.1220703-1.4492188,0.3671875-2.0791016s0.5888672-1.171875,1.0322266-1.6240234
				c0.4433594-0.453125,0.9746094-0.8037109,1.5927734-1.0537109s1.3007812-0.3740234,2.0478516-0.3740234
				c0.7373047,0,1.3730469,0.1142578,1.9072266,0.3427734s1.0087891,0.5390625,1.4248047,0.9306641l-0.4414062,0.6230469
				c-0.0322266,0.046875-0.0693359,0.0849609-0.1113281,0.1152344c-0.0419922,0.03125-0.1035156,0.0458984-0.1826172,0.0458984
				c-0.0605469,0-0.125-0.0224609-0.1923828-0.0664062s-0.1484375-0.0996094-0.2412109-0.1650391
				c-0.09375-0.0644531-0.203125-0.1347656-0.3291016-0.2099609c-0.1259766-0.0742188-0.2753906-0.1445312-0.4482422-0.2099609
				s-0.3730469-0.1201172-0.6015625-0.1640625c-0.2294922-0.0439453-0.4931641-0.0664062-0.7910156-0.0664062
				c-0.5371094,0-1.0283203,0.0917969-1.4736328,0.2763672c-0.4462891,0.1845703-0.8300781,0.4472656-1.1513672,0.7871094
				c-0.3222656,0.3408203-0.5732422,0.7558594-0.7529297,1.2460938s-0.2695312,1.0390625-0.2695312,1.6455078
				c0,0.625,0.0898438,1.1826172,0.2695312,1.6728516s0.4248047,0.9042969,0.7353516,1.2421875
				c0.3095703,0.3388672,0.6777344,0.5966797,1.1025391,0.7734375c0.4238281,0.1777344,0.8818359,0.2666016,1.3720703,0.2666016
				c0.2978516,0,0.5664062-0.0175781,0.8046875-0.0527344s0.4580078-0.0898438,0.6611328-0.1650391
				c0.203125-0.0742188,0.3925781-0.1689453,0.5673828-0.2832031s0.3505859-0.2509766,0.5283203-0.4091797
				C329.1303711,60.0288086,329.2075195,59.9936523,329.2827148,59.9936523z"/>
			<path class="st5" d="M336.940918,53.6030273c-0.0419922,0.0703125-0.0869141,0.1220703-0.1328125,0.1572266
				c-0.046875,0.0351562-0.1074219,0.0527344-0.1826172,0.0527344c-0.0791016,0-0.1708984-0.0400391-0.2763672-0.1191406
				c-0.1044922-0.0791016-0.2382812-0.1669922-0.3984375-0.2626953c-0.1611328-0.0957031-0.3554688-0.1826172-0.5810547-0.2626953
				c-0.2265625-0.0791016-0.5009766-0.1181641-0.8232422-0.1181641c-0.3027344,0-0.5712891,0.0410156-0.8046875,0.1220703
				c-0.2333984,0.0820312-0.4277344,0.1923828-0.5849609,0.3330078c-0.15625,0.1396484-0.2734375,0.3037109-0.3525391,0.4931641
				c-0.0800781,0.1884766-0.1191406,0.3935547-0.1191406,0.6123047c0,0.2802734,0.0683594,0.5126953,0.2060547,0.6962891
				c0.1376953,0.1845703,0.3193359,0.3417969,0.5458984,0.4726562s0.4833984,0.2441406,0.7705078,0.3398438
				s0.5810547,0.1943359,0.8818359,0.296875c0.3007812,0.1035156,0.5947266,0.21875,0.8818359,0.3466797
				c0.2871094,0.1289062,0.5439453,0.2910156,0.7705078,0.4863281c0.2255859,0.1962891,0.4082031,0.4365234,0.5458984,0.7216797
				c0.1376953,0.2841797,0.2060547,0.6347656,0.2060547,1.0498047c0,0.4384766-0.0742188,0.8505859-0.2236328,1.2353516
				s-0.3681641,0.7197266-0.6552734,1.0048828c-0.2861328,0.2841797-0.6386719,0.5087891-1.0566406,0.671875
				s-0.8925781,0.2451172-1.4248047,0.2451172c-0.6484375,0-1.2402344-0.1181641-1.7744141-0.3535156
				c-0.5341797-0.2363281-0.9902344-0.5546875-1.3681641-0.9560547l0.3916016-0.6435547
				c0.0380859-0.0517578,0.0830078-0.0947266,0.1367188-0.1298828s0.1132812-0.0527344,0.1787109-0.0527344
				c0.0976562,0,0.2099609,0.0527344,0.3359375,0.1582031c0.1259766,0.1044922,0.2832031,0.2207031,0.4726562,0.3466797
				c0.1884766,0.1259766,0.4169922,0.2412109,0.6855469,0.3457031c0.2685547,0.1054688,0.5966797,0.1582031,0.9833984,0.1582031
				c0.3222656,0,0.609375-0.0449219,0.8613281-0.1337891c0.2519531-0.0878906,0.4658203-0.2128906,0.640625-0.3740234
				s0.3085938-0.3535156,0.4023438-0.5771484c0.09375-0.2246094,0.1396484-0.4736328,0.1396484-0.7490234
				c0-0.3037109-0.0683594-0.5517578-0.2060547-0.7460938c-0.1376953-0.1933594-0.3183594-0.3554688-0.5419922-0.4863281
				c-0.2246094-0.1308594-0.4794922-0.2412109-0.7666016-0.3320312c-0.2871094-0.0917969-0.5810547-0.1845703-0.8828125-0.2802734
				c-0.3007812-0.0957031-0.5947266-0.2070312-0.8818359-0.3330078s-0.5419922-0.2890625-0.7666016-0.4892578
				c-0.2236328-0.2011719-0.4042969-0.4521484-0.5419922-0.7529297s-0.2070312-0.6728516-0.2070312-1.1162109
				c0-0.3544922,0.0693359-0.6982422,0.2070312-1.0292969s0.3369141-0.625,0.5986328-0.8818359
				c0.2607422-0.2568359,0.5839844-0.4619141,0.96875-0.6162109c0.3857422-0.1542969,0.8271484-0.2304688,1.3271484-0.2304688
				c0.5595703,0,1.0712891,0.0878906,1.5332031,0.265625s0.8652344,0.4335938,1.2109375,0.7695312L336.940918,53.6030273z"/>
		</g>
	</g>
</g>
</svg>
