<?xml version="1.0" encoding="utf-8"?>
<!-- Generator: Adobe Illustrator 24.2.0, SVG Export Plug-In . SVG Version: 6.00 Build 0)  -->
<svg version="1.1" id="Layer_1" xmlns="http://www.w3.org/2000/svg" xmlns:xlink="http://www.w3.org/1999/xlink" width="430" height="80" x="0px" y="0px"
	 viewBox="0 0 430 80" style="enable-background:new 0 0 430 80;" xml:space="preserve">
<style type="text/css">
	.st0{display:none;}
	.st1{display:inline;}
	.st2{fill:#E1E1E1;}
	.st3{fill:#222222;}
	.st4{font-family:'Lato-Regular';}
	.st5{font-size:29px;}
	.st6{fill:#555555;}
	.st7{font-size:12px;}
	.st8{enable-background:new    ;}
</style>
<g class="st0">
	<g class="st1">
		<rect x="85.1118774" y="9.8900499" class="st2" width="50" height="60.2198982"/>
		<g>
			<text transform="matrix(1 0 0 1 92.0126648 42.8814087)" class="st3 st4 st5">12</text>
			<text transform="matrix(1 0 0 1 95.318161 58.7749634)" class="st6 st4 st7">days</text>
		</g>
	</g>
	<g class="st1">
		<rect x="155.1118774" y="9.8900499" class="st2" width="50" height="60.2198982"/>
		<text transform="matrix(1 0 0 1 163.8049011 42.8814087)" class="st3 st4 st5">07</text>
		<text transform="matrix(1 0 0 1 159.2966614 58.7749634)" class="st6 st4 st7">hours</text>
	</g>
	<g class="st1">
		<rect x="225.1118774" y="9.8900499" class="st2" width="50" height="60.2198982"/>
		<g>
			<text transform="matrix(1 0 0 1 232.5097351 42.8814087)" class="st3 st4 st5">40</text>
			<text transform="matrix(1 0 0 1 234.6713562 58.7749634)" class="st6 st4 st7">mins</text>
		</g>
	</g>
	<g class="st1">
		<rect x="294.8881226" y="9.8900499" class="st2" width="50" height="60.2198982"/>
		<g>
			<text transform="matrix(1 0 0 1 302.0466309 42.8814087)" class="st3 st4 st5">05</text>
			<text transform="matrix(1 0 0 1 304.3297424 58.7749634)" class="st6 st4 st7">secs</text>
		</g>
	</g>
</g>
<g>
	<g>
		<g>
			<rect x="85.1118774" y="9.8900509" class="st2" width="50" height="60.2198982"/>
		</g>
		<g>
			<g class="st8">
				<path class="st3" d="M96.1743164,40.909668h4.4658203V26.7426777c0-0.4248047,0.0146484-0.8554688,0.043457-1.2900391
					l-3.7119141,3.1748047c-0.0966797,0.078125-0.1933594,0.1337891-0.2900391,0.1669922
					c-0.0966797,0.0341797-0.1884766,0.0507812-0.2753906,0.0507812c-0.1450195,0-0.2753906-0.03125-0.3916016-0.09375
					c-0.1157227-0.0634766-0.203125-0.1376953-0.2607422-0.2255859l-0.8120117-1.1162109l6.1767578-5.3505859h2.1025391v18.850584
					h4.0888672v1.972168H96.1743164V40.909668z"/>
				<path class="st3" d="M117.546875,21.8706074c0.8798828,0,1.7011719,0.1308594,2.465332,0.3916016
					c0.7631836,0.2607422,1.4228516,0.640625,1.9790039,1.1386719c0.5556641,0.4980469,0.9931641,1.1044922,1.3125,1.8193359
					c0.3188477,0.7158203,0.4785156,1.5273438,0.4785156,2.4365234c0,0.7734375-0.1162109,1.4882812-0.3481445,2.1455078
					s-0.5463867,1.2880859-0.9423828,1.8925781c-0.3964844,0.6044903-0.8535156,1.1884747-1.3706055,1.7539043
					s-1.0654297,1.1435547-1.6455078,1.7333984l-5.4667969,5.5966797c0.3867188-0.1064453,0.7783203-0.1904297,1.1748047-0.2539062
					c0.3959961-0.0625,0.777832-0.09375,1.1455078-0.09375h6.9599609c0.2802734,0,0.5024414,0.0820312,0.6669922,0.2460938
					c0.1640625,0.1650391,0.246582,0.3774414,0.246582,0.6381836v1.5664062H110.340332v-0.8847656
					c0-0.1835938,0.0366211-0.3720703,0.1088867-0.5654297c0.0727539-0.1933594,0.190918-0.3720703,0.3554688-0.5366211
					l6.6552734-6.6845703c0.5512695-0.5605469,1.0537109-1.0996094,1.5083008-1.6171875
					c0.4541016-0.5166016,0.8432617-1.0361309,1.1669922-1.5585918c0.3237305-0.5214844,0.5727539-1.0507812,0.746582-1.5878906
					c0.1743164-0.5361328,0.2612305-1.109375,0.2612305-1.7177734c0-0.609375-0.0966797-1.1435547-0.2900391-1.6025391
					s-0.4594727-0.8378906-0.7973633-1.1376953c-0.3388672-0.2998047-0.7348633-0.5244141-1.1889648-0.6748047
					c-0.4545898-0.1494141-0.9428711-0.2246094-1.4648438-0.2246094s-1.0053711,0.0771484-1.449707,0.2324219
					c-0.4448242,0.1542969-0.8388672,0.3691406-1.1816406,0.6445312c-0.3432617,0.2753906-0.6333008,0.6015625-0.8701172,0.9794922
					c-0.2373047,0.3769531-0.4038086,0.7919922-0.5004883,1.2460938c-0.0771484,0.28125-0.1933594,0.484375-0.3476562,0.609375
					c-0.1547852,0.1259766-0.3579102,0.1884766-0.609375,0.1884766c-0.0483398,0-0.0991211-0.0019531-0.1523438-0.0068359
					s-0.1132812-0.0126953-0.1811523-0.0224609l-1.3481445-0.2314453c0.1352539-0.9472656,0.3959961-1.7861328,0.7827148-2.515625
					c0.3867188-0.7304688,0.8774414-1.3417969,1.4716797-1.8349609c0.5947266-0.4921875,1.2763672-0.8671875,2.0444336-1.1230469
					C115.8286133,21.9995136,116.6577148,21.8706074,117.546875,21.8706074z"/>
			</g>
			<g class="st8">
				<path class="st6" d="M103.8144531,54.4794922c0,0.6435547-0.1020508,1.2294922-0.3061523,1.7578125
					s-0.4916992,0.9804688-0.8637695,1.3564453s-0.8183594,0.6669922-1.3383789,0.8730469s-1.0957031,0.3085938-1.7280273,0.3085938
					h-3.2158203v-8.5976562h3.2158203c0.6323242,0,1.2080078,0.1025391,1.7280273,0.3085938
					s0.9663086,0.4980469,1.3383789,0.8759766s0.659668,0.8310547,0.8637695,1.359375
					C103.7124023,53.2490234,103.8144531,53.8349609,103.8144531,54.4794922z M102.6201172,54.4794922
					c0-0.5283203-0.0717773-1-0.2158203-1.4160156s-0.3481445-0.7685547-0.6118164-1.0556641
					c-0.2641602-0.2880859-0.5839844-0.5087891-0.9599609-0.6601562c-0.3759766-0.1523438-0.7944336-0.2285156-1.2543945-0.2285156
					h-2.0458984v6.7138672h2.0458984c0.4599609,0,0.878418-0.0751953,1.2543945-0.2275391s0.6958008-0.3710938,0.9599609-0.6572266
					c0.2636719-0.2861328,0.4677734-0.6367188,0.6118164-1.0527344S102.6201172,55.0078125,102.6201172,54.4794922z"/>
				<path class="st6" d="M112.2207031,58.7753906h-0.9003906c-0.1040039,0-0.1879883-0.0263672-0.2519531-0.078125
					s-0.1118164-0.1181641-0.144043-0.1982422l-0.8037109-2.0751953h-3.8579102l-0.8041992,2.0751953
					c-0.027832,0.0722656-0.0761719,0.1367188-0.144043,0.1923828s-0.1518555,0.0839844-0.2519531,0.0839844h-0.8999023
					l3.4379883-8.5976562h1.1821289L112.2207031,58.7753906z M106.5864258,55.5830078h3.2099609l-1.3496094-3.4980469
					c-0.0883789-0.2158203-0.1743164-0.4853516-0.2583008-0.8095703c-0.0439453,0.1640625-0.0869141,0.3154297-0.1289062,0.453125
					s-0.0830078,0.2587891-0.1230469,0.3632812L106.5864258,55.5830078z"/>
				<path class="st6" d="M115.6342773,55.3554688v3.4199219h-1.1577148v-3.4199219l-3.1503906-5.1777344h1.0200195
					c0.1040039,0,0.1860352,0.0253906,0.2460938,0.078125c0.0600586,0.0517578,0.1118164,0.1152344,0.15625,0.1914062
					l1.9677734,3.3417969c0.0800781,0.140625,0.1469727,0.2724609,0.2011719,0.3964844
					c0.0537109,0.1240234,0.1025391,0.2460938,0.1469727,0.3662109c0.0439453-0.1240234,0.0917969-0.2480469,0.144043-0.3720703
					c0.0517578-0.1240234,0.1176758-0.2539062,0.1977539-0.390625l1.9619141-3.3417969
					c0.0361328-0.0634766,0.0849609-0.125,0.1469727-0.1826172c0.0620117-0.0585938,0.1430664-0.0869141,0.2431641-0.0869141
					h1.0322266L115.6342773,55.3554688z"/>
				<path class="st6" d="M124.2744141,51.5214844c-0.0361328,0.0595703-0.0742188,0.1044922-0.1142578,0.1347656
					s-0.0922852,0.0449219-0.1557617,0.0449219c-0.0683594,0-0.1474609-0.0341797-0.2373047-0.1015625
					c-0.0898438-0.0683594-0.2041016-0.1435547-0.3417969-0.2255859c-0.1381836-0.0820312-0.3041992-0.15625-0.4980469-0.2246094
					c-0.1943359-0.0683594-0.4291992-0.1015625-0.7050781-0.1015625c-0.2602539,0-0.4902344,0.0341797-0.6899414,0.1044922
					c-0.2001953,0.0703125-0.3671875,0.1650391-0.5009766,0.2851562c-0.1342773,0.1201172-0.2353516,0.2607422-0.3032227,0.4228516
					s-0.1020508,0.3369141-0.1020508,0.5253906c0,0.2392578,0.059082,0.4384766,0.1772461,0.5966797
					c0.1176758,0.1582031,0.2739258,0.2929688,0.4677734,0.4052734c0.1943359,0.1113281,0.4140625,0.2089844,0.6601562,0.2910156
					s0.4980469,0.1669922,0.7558594,0.2548828c0.2583008,0.0878906,0.5102539,0.1865234,0.7563477,0.296875
					c0.2456055,0.1103516,0.4658203,0.2490234,0.659668,0.4169922c0.1943359,0.1679688,0.3500977,0.3740234,0.4682617,0.6181641
					c0.1176758,0.2441406,0.1767578,0.5439453,0.1767578,0.8994141c0,0.3759766-0.0639648,0.7294922-0.1918945,1.0595703
					s-0.3149414,0.6171875-0.5610352,0.8603516c-0.2460938,0.2441406-0.5478516,0.4365234-0.9057617,0.5761719
					c-0.3583984,0.140625-0.7651367,0.2099609-1.2211914,0.2099609c-0.5561523,0-1.0629883-0.1005859-1.5209961-0.3027344
					s-0.8491211-0.4746094-1.1728516-0.8193359l0.3359375-0.5517578c0.0317383-0.0439453,0.0708008-0.0810547,0.1166992-0.1113281
					c0.0463867-0.0292969,0.097168-0.0449219,0.1533203-0.0449219c0.0839844,0,0.1796875,0.0449219,0.2880859,0.1357422
					c0.1079102,0.0898438,0.2426758,0.1884766,0.4047852,0.296875c0.1621094,0.1074219,0.3579102,0.2070312,0.5878906,0.296875
					s0.5112305,0.1347656,0.8432617,0.1347656c0.2758789,0,0.5219727-0.0380859,0.737793-0.1142578
					c0.2163086-0.0751953,0.3989258-0.1826172,0.5493164-0.3203125c0.1499023-0.1386719,0.2646484-0.3037109,0.3447266-0.4951172
					c0.0800781-0.1923828,0.1201172-0.40625,0.1201172-0.6425781c0-0.2597656-0.059082-0.4726562-0.1772461-0.6386719
					c-0.1176758-0.1660156-0.2729492-0.3046875-0.4648438-0.4169922s-0.4111328-0.2070312-0.6572266-0.2851562
					c-0.2456055-0.078125-0.4975586-0.1582031-0.7558594-0.2402344c-0.2578125-0.0810547-0.5097656-0.1767578-0.7558594-0.2841797
					c-0.2460938-0.1083984-0.4648438-0.2480469-0.6572266-0.4199219c-0.1918945-0.1728516-0.3466797-0.3876953-0.4648438-0.6455078
					s-0.1767578-0.5771484-0.1767578-0.9570312c0-0.3037109,0.0585938-0.5976562,0.1767578-0.8818359
					s0.2890625-0.5361328,0.5131836-0.7558594c0.2236328-0.2197266,0.5009766-0.3964844,0.8310547-0.5283203
					c0.3295898-0.1318359,0.7084961-0.1982422,1.1367188-0.1982422c0.4799805,0,0.9179688,0.0761719,1.3139648,0.2285156
					s0.7421875,0.3720703,1.0380859,0.6601562L124.2744141,51.5214844z"/>
			</g>
		</g>
	</g>
	<g>
		<g>
			<rect x="155.1118774" y="9.8900509" class="st2" width="50" height="60.2198982"/>
		</g>
		<g class="st8">
			<path class="st3" d="M179.7548828,32.4995117c0,1.8173828-0.1958008,3.390625-0.5874023,4.7197266
				s-0.9257812,2.4287109-1.6020508,3.2988281c-0.6767578,0.8706055-1.4770508,1.5180664-2.3999023,1.9428711
				c-0.9233398,0.4257812-1.9116211,0.6386719-2.965332,0.6386719c-1.0634766,0-2.0517578-0.2128906-2.965332-0.6386719
				c-0.9135742-0.4248047-1.7084961-1.0722656-2.3852539-1.9428711c-0.6767578-0.8701172-1.2084961-1.9697266-1.5947266-3.2988281
				c-0.3867188-1.3291016-0.5800781-2.9023438-0.5800781-4.7197266c0-1.8173809,0.1933594-3.3935528,0.5800781-4.7275372
				c0.3862305-1.3339844,0.9179688-2.4375,1.5947266-3.3125s1.4716797-1.5253906,2.3852539-1.9501953
				c0.9135742-0.4257812,1.9018555-0.6386719,2.965332-0.6386719c1.0537109,0,2.0419922,0.2128906,2.965332,0.6386719
				c0.9228516,0.4248047,1.7231445,1.0751953,2.3999023,1.9501953c0.6762695,0.875,1.2104492,1.9785156,1.6020508,3.3125
				S179.7548828,30.6821308,179.7548828,32.4995117z M177.0722656,32.4995117c0-1.584959-0.1333008-2.9169903-0.3989258-3.9951153
				c-0.2661133-1.0771484-0.6235352-1.9453125-1.0727539-2.6025391c-0.449707-0.6572266-0.9692383-1.1289062-1.559082-1.4140625
				c-0.5893555-0.2851562-1.203125-0.4277344-1.8413086-0.4277344s-1.2519531,0.1425781-1.8413086,0.4277344
				c-0.5898438,0.2851562-1.1074219,0.7568359-1.5517578,1.4140625c-0.4448242,0.6572266-0.7998047,1.5253906-1.065918,2.6025391
				c-0.265625,1.078125-0.3984375,2.4101562-0.3984375,3.9951153c0,1.5849609,0.1328125,2.9140625,0.3984375,3.9873047
				c0.2661133,1.0732422,0.6210938,1.9384766,1.065918,2.5957031c0.4443359,0.6572266,0.9619141,1.1289062,1.5517578,1.4140625
				c0.5893555,0.2851562,1.203125,0.4277344,1.8413086,0.4277344s1.2519531-0.1425781,1.8413086-0.4277344
				c0.5898438-0.2851562,1.109375-0.7568359,1.559082-1.4140625c0.4492188-0.6572266,0.8066406-1.5224609,1.0727539-2.5957031
				C176.9389648,35.4135742,177.0722656,34.0844727,177.0722656,32.4995117z"/>
			<path class="st3" d="M196.3422852,22.1030293v1.1601562c0,0.328125-0.0361328,0.5996094-0.1083984,0.8115234
				c-0.0727539,0.2128906-0.1474609,0.3916016-0.2250977,0.5371094L187.4106445,41.96875
				c-0.1259766,0.2509766-0.2998047,0.4658203-0.5219727,0.6445312c-0.2226562,0.1796875-0.5219727,0.2685547-0.8989258,0.2685547
				h-1.8417969l8.7290039-17.1391582c0.1254883-0.2421875,0.2539062-0.4638672,0.3842773-0.6669922
				s0.277832-0.3964844,0.4423828-0.5800781h-10.8461914c-0.1645508,0-0.3115234-0.0654297-0.4423828-0.1962891
				c-0.1303711-0.1298828-0.1953125-0.2773438-0.1953125-0.4423828v-1.7539062H196.3422852z"/>
		</g>
		<g class="st8">
			<path class="st6" d="M167.3129883,58.7753906h-1.1699219v-3.9121094h-4.6323242v3.9121094h-1.1699219v-8.5976562h1.1699219
				v3.8339844h4.6323242v-3.8339844h1.1699219V58.7753906z"/>
			<path class="st6" d="M177.3984375,54.4794922c0,0.6435547-0.1015625,1.2353516-0.3056641,1.7724609
				c-0.2041016,0.5380859-0.4921875,1.0019531-0.8642578,1.3896484s-0.8188477,0.6884766-1.3408203,0.9023438
				c-0.5219727,0.2148438-1.0991211,0.3212891-1.730957,0.3212891c-0.6323242,0-1.2080078-0.1064453-1.7280273-0.3212891
				c-0.5200195-0.2138672-0.9658203-0.5146484-1.3378906-0.9023438s-0.6601562-0.8515625-0.8642578-1.3896484
				c-0.2041016-0.5371094-0.3061523-1.1289062-0.3061523-1.7724609c0-0.6445312,0.1020508-1.2353516,0.3061523-1.7734375
				s0.4921875-1.0019531,0.8642578-1.3916016s0.8178711-0.6933594,1.3378906-0.9091797s1.0957031-0.3242188,1.7280273-0.3242188
				c0.6318359,0,1.2089844,0.1083984,1.730957,0.3242188s0.96875,0.5195312,1.3408203,0.9091797
				s0.6601562,0.8535156,0.8642578,1.3916016S177.3984375,53.8349609,177.3984375,54.4794922z M176.2045898,54.4794922
				c0-0.5283203-0.0717773-1.0019531-0.2158203-1.421875s-0.3481445-0.7753906-0.6123047-1.0654297
				c-0.2636719-0.2900391-0.5839844-0.5126953-0.9599609-0.6689453s-0.7958984-0.2333984-1.2597656-0.2333984
				c-0.4599609,0-0.8779297,0.0771484-1.2539062,0.2333984s-0.6972656,0.3789062-0.9633789,0.6689453
				c-0.265625,0.2900391-0.4707031,0.6455078-0.6147461,1.0654297s-0.2158203,0.8935547-0.2158203,1.421875
				s0.0717773,1.0009766,0.2158203,1.4189453s0.3491211,0.7724609,0.6147461,1.0615234
				c0.2661133,0.2900391,0.5874023,0.5126953,0.9633789,0.6660156c0.3759766,0.1542969,0.7939453,0.2314453,1.2539062,0.2314453
				c0.4638672,0,0.8837891-0.0771484,1.2597656-0.2314453c0.3759766-0.1533203,0.6962891-0.3759766,0.9599609-0.6660156
				c0.2641602-0.2890625,0.4682617-0.6435547,0.6123047-1.0615234S176.2045898,55.0078125,176.2045898,54.4794922z"/>
			<path class="st6" d="M182.3310547,57.8515625c0.355957,0,0.6738281-0.0605469,0.9536133-0.1796875
				c0.2802734-0.1201172,0.5170898-0.2880859,0.7109375-0.5048828c0.1943359-0.2158203,0.3422852-0.4736328,0.4443359-0.7734375
				s0.152832-0.6298828,0.152832-0.9902344v-5.2255859h1.1582031v5.2255859c0,0.4960938-0.0791016,0.9560547-0.2373047,1.3798828
				c-0.1577148,0.4238281-0.3837891,0.7910156-0.6777344,1.1015625c-0.2939453,0.3095703-0.6533203,0.5527344-1.0771484,0.7285156
				s-0.8999023,0.2636719-1.4277344,0.2636719c-0.5283203,0-1.0043945-0.0878906-1.4282227-0.2636719
				s-0.7841797-0.4189453-1.0800781-0.7285156c-0.2958984-0.3105469-0.5229492-0.6777344-0.6811523-1.1015625
				c-0.1577148-0.4238281-0.2368164-0.8837891-0.2368164-1.3798828v-5.2255859h1.1582031v5.2197266
				c0,0.3603516,0.0507812,0.6894531,0.152832,0.9902344c0.1020508,0.2998047,0.25,0.5576172,0.4438477,0.7734375
				c0.1943359,0.2158203,0.4321289,0.3857422,0.7143555,0.5068359
				C181.6557617,57.7900391,181.9746094,57.8515625,182.3310547,57.8515625z"/>
			<path class="st6" d="M189.0263672,55.1875v3.5878906h-1.1577148v-8.5976562h2.4301758
				c0.543457,0,1.0136719,0.0546875,1.409668,0.1650391c0.3959961,0.109375,0.7231445,0.2685547,0.980957,0.4765625
				c0.2583008,0.2080078,0.4492188,0.4589844,0.5732422,0.7529297s0.1860352,0.6230469,0.1860352,0.9873047
				c0,0.3037109-0.0483398,0.5878906-0.144043,0.8515625c-0.0961914,0.2646484-0.2353516,0.5009766-0.4169922,0.7109375
				c-0.1821289,0.2099609-0.4042969,0.3896484-0.6660156,0.5371094c-0.262207,0.1484375-0.559082,0.2607422-0.8911133,0.3359375
				c0.144043,0.0839844,0.2719727,0.2060547,0.3837891,0.3662109l2.5083008,3.4140625h-1.0322266
				c-0.2119141,0-0.3676758-0.0820312-0.4677734-0.2460938l-2.2319336-3.0722656
				c-0.0683594-0.0957031-0.1420898-0.1650391-0.222168-0.2070312s-0.2001953-0.0625-0.3598633-0.0625H189.0263672z
				 M189.0263672,54.3417969h1.2182617c0.3398438,0,0.6391602-0.0410156,0.8969727-0.1230469
				s0.4741211-0.1982422,0.6479492-0.3486328c0.1738281-0.1494141,0.3051758-0.3291016,0.3930664-0.5371094
				s0.1318359-0.4375,0.1318359-0.6894531c0-0.5117188-0.1689453-0.8984375-0.5068359-1.1582031
				s-0.8408203-0.3896484-1.5087891-0.3896484h-1.2724609V54.3417969z"/>
			<path class="st6" d="M199.8808594,51.5214844c-0.0361328,0.0595703-0.0742188,0.1044922-0.1142578,0.1347656
				s-0.0922852,0.0449219-0.1557617,0.0449219c-0.0683594,0-0.1474609-0.0341797-0.2373047-0.1015625
				c-0.0898438-0.0683594-0.2041016-0.1435547-0.3417969-0.2255859c-0.1381836-0.0820312-0.3041992-0.15625-0.4980469-0.2246094
				c-0.1943359-0.0683594-0.4291992-0.1015625-0.7050781-0.1015625c-0.2602539,0-0.4902344,0.0341797-0.6899414,0.1044922
				c-0.2001953,0.0703125-0.3671875,0.1650391-0.5009766,0.2851562c-0.1342773,0.1201172-0.2353516,0.2607422-0.3032227,0.4228516
				s-0.1020508,0.3369141-0.1020508,0.5253906c0,0.2392578,0.059082,0.4384766,0.1772461,0.5966797
				c0.1176758,0.1582031,0.2739258,0.2929688,0.4677734,0.4052734c0.1943359,0.1113281,0.4140625,0.2089844,0.6601562,0.2910156
				s0.4980469,0.1669922,0.7558594,0.2548828c0.2583008,0.0878906,0.5102539,0.1865234,0.7563477,0.296875
				c0.2456055,0.1103516,0.4658203,0.2490234,0.659668,0.4169922c0.1943359,0.1679688,0.3500977,0.3740234,0.4682617,0.6181641
				c0.1176758,0.2441406,0.1767578,0.5439453,0.1767578,0.8994141c0,0.3759766-0.0639648,0.7294922-0.1918945,1.0595703
				s-0.3149414,0.6171875-0.5610352,0.8603516c-0.2460938,0.2441406-0.5478516,0.4365234-0.9057617,0.5761719
				c-0.3583984,0.140625-0.7651367,0.2099609-1.2211914,0.2099609c-0.5561523,0-1.0629883-0.1005859-1.5209961-0.3027344
				s-0.8491211-0.4746094-1.1728516-0.8193359l0.3359375-0.5517578c0.0317383-0.0439453,0.0708008-0.0810547,0.1166992-0.1113281
				c0.0463867-0.0292969,0.097168-0.0449219,0.1533203-0.0449219c0.0839844,0,0.1796875,0.0449219,0.2880859,0.1357422
				c0.1079102,0.0898438,0.2426758,0.1884766,0.4047852,0.296875c0.1621094,0.1074219,0.3579102,0.2070312,0.5878906,0.296875
				s0.5112305,0.1347656,0.8432617,0.1347656c0.2758789,0,0.5219727-0.0380859,0.737793-0.1142578
				c0.2163086-0.0751953,0.3989258-0.1826172,0.5493164-0.3203125c0.1499023-0.1386719,0.2646484-0.3037109,0.3447266-0.4951172
				c0.0800781-0.1923828,0.1201172-0.40625,0.1201172-0.6425781c0-0.2597656-0.059082-0.4726562-0.1772461-0.6386719
				c-0.1176758-0.1660156-0.2729492-0.3046875-0.4648438-0.4169922s-0.4111328-0.2070312-0.6572266-0.2851562
				c-0.2456055-0.078125-0.4975586-0.1582031-0.7558594-0.2402344c-0.2578125-0.0810547-0.5097656-0.1767578-0.7558594-0.2841797
				c-0.2460938-0.1083984-0.4648438-0.2480469-0.6572266-0.4199219c-0.1918945-0.1728516-0.3466797-0.3876953-0.4648438-0.6455078
				s-0.1767578-0.5771484-0.1767578-0.9570312c0-0.3037109,0.0585938-0.5976562,0.1767578-0.8818359
				s0.2890625-0.5361328,0.5131836-0.7558594c0.2236328-0.2197266,0.5009766-0.3964844,0.8310547-0.5283203
				c0.3295898-0.1318359,0.7084961-0.1982422,1.1367188-0.1982422c0.4799805,0,0.9179688,0.0761719,1.3139648,0.2285156
				s0.7421875,0.3720703,1.0380859,0.6601562L199.8808594,51.5214844z"/>
		</g>
	</g>
	<g>
		<g>
			<rect x="225.1118774" y="9.8900509" class="st2" width="50" height="60.2198982"/>
		</g>
		<g>
			<g class="st8">
				<path class="st3" d="M245.6025391,35.3852539H248.75v1.4785156c0,0.1552734-0.046875,0.2851562-0.1386719,0.3916016
					s-0.234375,0.1591797-0.4277344,0.1591797h-2.5810547v5.4672852h-2.2763672v-5.4672852h-9.2070312
					c-0.1933594,0-0.3603516-0.0556641-0.5-0.1660156c-0.140625-0.1113281-0.2304688-0.2490234-0.2685547-0.4140625
					l-0.2607422-1.3193359l10.1064453-13.4121075h2.40625V35.3852539z M243.3261719,26.8149433
					c0-0.2509766,0.0078125-0.5214844,0.0224609-0.8115234c0.0136719-0.2900391,0.0449219-0.5898438,0.09375-0.8994141
					l-7.5546875,10.2812481h7.4384766V26.8149433z"/>
				<path class="st3" d="M265.2792969,32.4995117c0,1.8173828-0.1953125,3.390625-0.5869141,4.7197266
					s-0.9257812,2.4287109-1.6025391,3.2988281c-0.6767578,0.8706055-1.4765625,1.5180664-2.3994141,1.9428711
					c-0.9238281,0.4257812-1.9121094,0.6386719-2.9658203,0.6386719c-1.0634766,0-2.0517578-0.2128906-2.9648438-0.6386719
					c-0.9140625-0.4248047-1.7089844-1.0722656-2.3857422-1.9428711c-0.6767578-0.8701172-1.2080078-1.9697266-1.5947266-3.2988281
					s-0.5800781-2.9023438-0.5800781-4.7197266c0-1.8173809,0.1933594-3.3935528,0.5800781-4.7275372
					s0.9179688-2.4375,1.5947266-3.3125s1.4716797-1.5253906,2.3857422-1.9501953
					c0.9130859-0.4257812,1.9013672-0.6386719,2.9648438-0.6386719c1.0537109,0,2.0419922,0.2128906,2.9658203,0.6386719
					c0.9228516,0.4248047,1.7226562,1.0751953,2.3994141,1.9501953s1.2109375,1.9785156,1.6025391,3.3125
					S265.2792969,30.6821308,265.2792969,32.4995117z M262.5966797,32.4995117c0-1.584959-0.1328125-2.9169903-0.3984375-3.9951153
					c-0.2666016-1.0771484-0.6240234-1.9453125-1.0732422-2.6025391s-0.96875-1.1289062-1.5585938-1.4140625
					s-1.203125-0.4277344-1.8417969-0.4277344c-0.6376953,0-1.2519531,0.1425781-1.8408203,0.4277344
					c-0.5898438,0.2851562-1.1074219,0.7568359-1.5517578,1.4140625c-0.4453125,0.6572266-0.7998047,1.5253906-1.0664062,2.6025391
					c-0.265625,1.078125-0.3984375,2.4101562-0.3984375,3.9951153c0,1.5849609,0.1328125,2.9140625,0.3984375,3.9873047
					c0.2666016,1.0732422,0.6210938,1.9384766,1.0664062,2.5957031c0.4443359,0.6572266,0.9619141,1.1289062,1.5517578,1.4140625
					c0.5888672,0.2851562,1.203125,0.4277344,1.8408203,0.4277344c0.6386719,0,1.2519531-0.1425781,1.8417969-0.4277344
					s1.109375-0.7568359,1.5585938-1.4140625s0.8066406-1.5224609,1.0732422-2.5957031
					C262.4638672,35.4135742,262.5966797,34.0844727,262.5966797,32.4995117z"/>
			</g>
			<g class="st8">
				<path class="st6" d="M240.0917969,55.9707031c0.0419922,0.1054688,0.0830078,0.2128906,0.1230469,0.3203125
					c0.0400391-0.1113281,0.0820312-0.21875,0.1259766-0.3203125c0.0439453-0.1025391,0.0947266-0.2050781,0.1503906-0.3095703
					L243.4013672,50.375c0.0517578-0.0917969,0.1054688-0.1474609,0.1621094-0.1679688
					c0.0556641-0.0195312,0.1357422-0.0292969,0.2392578-0.0292969h0.8583984v8.5976562h-1.0195312v-6.3183594
					c0-0.0839844,0.0019531-0.1738281,0.0058594-0.2695312s0.0097656-0.1943359,0.0175781-0.2939453l-2.9462891,5.3759766
					c-0.0996094,0.1796875-0.2392578,0.2695312-0.4199219,0.2695312h-0.1679688
					c-0.1796875,0-0.3193359-0.0898438-0.4199219-0.2695312L236.6992188,51.875
					c0.0117188,0.1044922,0.0205078,0.2060547,0.0273438,0.3066406c0.0058594,0.0996094,0.0087891,0.1914062,0.0087891,0.2753906
					v6.3183594h-1.0205078v-8.5976562h0.8583984c0.1035156,0,0.1835938,0.0097656,0.2402344,0.0292969
					c0.0556641,0.0205078,0.109375,0.0761719,0.1621094,0.1679688l2.9697266,5.2919922
					C240.0009766,55.7636719,240.0498047,55.8642578,240.0917969,55.9707031z"/>
				<path class="st6" d="M248.1347656,58.7753906h-1.1640625v-8.5976562h1.1640625V58.7753906z"/>
				<path class="st6" d="M251.2695312,50.2167969c0.0498047,0.0253906,0.1074219,0.0791016,0.1708984,0.1582031l4.9804688,6.4804688
					c-0.0117188-0.1044922-0.0205078-0.2050781-0.0244141-0.3027344c-0.0039062-0.0986328-0.0058594-0.1933594-0.0058594-0.2851562
					v-6.0898438h1.0205078v8.5976562h-0.5878906c-0.0927734,0-0.1699219-0.015625-0.2314453-0.0478516
					c-0.0625-0.0322266-0.1230469-0.0859375-0.1826172-0.1621094l-4.9746094-6.4736328
					c0.0078125,0.0996094,0.0146484,0.1972656,0.0185547,0.2939453c0.0039062,0.0957031,0.0058594,0.1835938,0.0058594,0.2636719
					v6.1259766h-1.0205078v-8.5976562h0.6005859C251.1425781,50.1777344,251.2197266,50.1904297,251.2695312,50.2167969z"/>
				<path class="st6" d="M263.9150391,51.5214844c-0.0361328,0.0595703-0.0742188,0.1044922-0.1142578,0.1347656
					s-0.0917969,0.0449219-0.1552734,0.0449219c-0.0683594,0-0.1474609-0.0341797-0.2373047-0.1015625
					c-0.0898438-0.0683594-0.2041016-0.1435547-0.3417969-0.2255859c-0.1386719-0.0820312-0.3046875-0.15625-0.4980469-0.2246094
					c-0.1943359-0.0683594-0.4296875-0.1015625-0.7050781-0.1015625c-0.2607422,0-0.4902344,0.0341797-0.6904297,0.1044922
					s-0.3671875,0.1650391-0.5009766,0.2851562s-0.2353516,0.2607422-0.3027344,0.4228516
					c-0.0683594,0.1621094-0.1025391,0.3369141-0.1025391,0.5253906c0,0.2392578,0.0595703,0.4384766,0.1777344,0.5966797
					c0.1171875,0.1582031,0.2734375,0.2929688,0.4677734,0.4052734c0.1943359,0.1113281,0.4140625,0.2089844,0.6601562,0.2910156
					s0.4980469,0.1669922,0.7558594,0.2548828s0.5097656,0.1865234,0.7558594,0.296875s0.4658203,0.2490234,0.6601562,0.4169922
					s0.3496094,0.3740234,0.4677734,0.6181641s0.1767578,0.5439453,0.1767578,0.8994141
					c0,0.3759766-0.0634766,0.7294922-0.1914062,1.0595703s-0.3154297,0.6171875-0.5615234,0.8603516
					c-0.2460938,0.2441406-0.5478516,0.4365234-0.9052734,0.5761719c-0.3583984,0.140625-0.765625,0.2099609-1.2216797,0.2099609
					c-0.5556641,0-1.0625-0.1005859-1.5205078-0.3027344s-0.8496094-0.4746094-1.1728516-0.8193359l0.3359375-0.5517578
					c0.03125-0.0439453,0.0703125-0.0810547,0.1162109-0.1113281c0.046875-0.0292969,0.0976562-0.0449219,0.1533203-0.0449219
					c0.0839844,0,0.1796875,0.0449219,0.2880859,0.1357422c0.1083984,0.0898438,0.2431641,0.1884766,0.4052734,0.296875
					c0.1621094,0.1074219,0.3574219,0.2070312,0.5878906,0.296875c0.2294922,0.0898438,0.5107422,0.1347656,0.8427734,0.1347656
					c0.2763672,0,0.5224609-0.0380859,0.7382812-0.1142578c0.2158203-0.0751953,0.3984375-0.1826172,0.5488281-0.3203125
					c0.1503906-0.1386719,0.2646484-0.3037109,0.3447266-0.4951172c0.0800781-0.1923828,0.1201172-0.40625,0.1201172-0.6425781
					c0-0.2597656-0.0585938-0.4726562-0.1767578-0.6386719s-0.2734375-0.3046875-0.4648438-0.4169922
					c-0.1923828-0.1123047-0.4111328-0.2070312-0.6572266-0.2851562S261.5,54.8339844,261.2421875,54.7519531
					c-0.2578125-0.0810547-0.5097656-0.1767578-0.7558594-0.2841797c-0.2460938-0.1083984-0.4648438-0.2480469-0.6572266-0.4199219
					c-0.1923828-0.1728516-0.3466797-0.3876953-0.4648438-0.6455078S259.1875,52.8251953,259.1875,52.4453125
					c0-0.3037109,0.0585938-0.5976562,0.1767578-0.8818359s0.2890625-0.5361328,0.5126953-0.7558594
					s0.5009766-0.3964844,0.8310547-0.5283203s0.7089844-0.1982422,1.1367188-0.1982422
					c0.4804688,0,0.9179688,0.0761719,1.3144531,0.2285156c0.3955078,0.1523438,0.7421875,0.3720703,1.0380859,0.6601562
					L263.9150391,51.5214844z"/>
			</g>
		</g>
	</g>
	<g>
		<g>
			<rect x="294.8881226" y="9.8900509" class="st2" width="50" height="60.2198982"/>
		</g>
		<g>
			<g class="st8">
				<path class="st3" d="M317.9970703,32.4995117c0,1.8173828-0.1962891,3.390625-0.5878906,4.7197266
					s-0.9257812,2.4287109-1.6015625,3.2988281c-0.6767578,0.8706055-1.4775391,1.5180664-2.4003906,1.9428711
					c-0.9228516,0.4257812-1.9111328,0.6386719-2.9648438,0.6386719c-1.0634766,0-2.0517578-0.2128906-2.9658203-0.6386719
					c-0.9130859-0.4248047-1.7080078-1.0722656-2.3847656-1.9428711c-0.6767578-0.8701172-1.2089844-1.9697266-1.5947266-3.2988281
					c-0.3867188-1.3291016-0.5800781-2.9023438-0.5800781-4.7197266c0-1.8173809,0.1933594-3.3935528,0.5800781-4.7275372
					c0.3857422-1.3339844,0.9179688-2.4375,1.5947266-3.3125s1.4716797-1.5253906,2.3847656-1.9501953
					c0.9140625-0.4257812,1.9023438-0.6386719,2.9658203-0.6386719c1.0537109,0,2.0419922,0.2128906,2.9648438,0.6386719
					c0.9228516,0.4248047,1.7236328,1.0751953,2.4003906,1.9501953c0.6757812,0.875,1.2099609,1.9785156,1.6015625,3.3125
					S317.9970703,30.6821308,317.9970703,32.4995117z M315.3144531,32.4995117c0-1.584959-0.1337891-2.9169903-0.3994141-3.9951153
					c-0.265625-1.0771484-0.6230469-1.9453125-1.0722656-2.6025391c-0.4501953-0.6572266-0.9697266-1.1289062-1.5595703-1.4140625
					c-0.5888672-0.2851562-1.203125-0.4277344-1.8408203-0.4277344c-0.6386719,0-1.2519531,0.1425781-1.8417969,0.4277344
					s-1.1074219,0.7568359-1.5517578,1.4140625s-0.7998047,1.5253906-1.0654297,2.6025391
					c-0.265625,1.078125-0.3984375,2.4101562-0.3984375,3.9951153c0,1.5849609,0.1328125,2.9140625,0.3984375,3.9873047
					s0.6210938,1.9384766,1.0654297,2.5957031s0.9619141,1.1289062,1.5517578,1.4140625s1.203125,0.4277344,1.8417969,0.4277344
					c0.6376953,0,1.2519531-0.1425781,1.8408203-0.4277344c0.5898438-0.2851562,1.109375-0.7568359,1.5595703-1.4140625
					c0.4492188-0.6572266,0.8066406-1.5224609,1.0722656-2.5957031S315.3144531,34.0844727,315.3144531,32.4995117z"/>
				<path class="st3" d="M333.0478516,23.2338886c0,0.3671875-0.1162109,0.6699219-0.3486328,0.90625
					c-0.2314453,0.2373047-0.6230469,0.3554688-1.1738281,0.3554688H325l-0.9570312,5.4521484
					c1.0820312-0.2324219,2.0830078-0.3486328,3.0019531-0.3486328c1.0820312,0,2.0371094,0.1601562,2.8632812,0.4785156
					c0.8261719,0.3193359,1.5195312,0.7587891,2.0810547,1.3193359c0.5605469,0.5615234,0.9833984,1.2236309,1.2685547,1.9873028
					s0.4277344,1.5947266,0.4277344,2.4931641c0,1.1025391-0.1933594,2.0986328-0.5800781,2.9873047
					c-0.3867188,0.8896484-0.9160156,1.6503906-1.5878906,2.284668c-0.671875,0.6328125-1.4619141,1.1191406-2.3710938,1.4570312
					c-0.9082031,0.3378906-1.8896484,0.5078125-2.9433594,0.5078125c-0.6083984,0-1.1933594-0.0605469-1.7539062-0.1816406
					s-1.0830078-0.2832031-1.5664062-0.4853516c-0.4833984-0.203125-0.9326172-0.4355469-1.3486328-0.6962891
					c-0.4150391-0.2607422-0.7832031-0.5371094-1.1015625-0.8266602l0.7832031-1.1025391
					c0.1738281-0.2509766,0.4052734-0.3769531,0.6953125-0.3769531c0.1835938,0,0.3994141,0.0751953,0.6455078,0.2246094
					c0.2460938,0.1503906,0.5439453,0.3173828,0.8916016,0.5c0.3486328,0.1845703,0.7568359,0.3505859,1.2255859,0.5009766
					c0.46875,0.1494141,1.0273438,0.2246094,1.6748047,0.2246094c0.7246094,0,1.3769531-0.1162109,1.9570312-0.3486328
					c0.5800781-0.2314453,1.0751953-0.5625,1.4863281-0.9931641c0.4111328-0.4296875,0.7275391-0.9443359,0.9501953-1.5439453
					c0.2216797-0.5996094,0.3330078-1.2705078,0.3330078-2.015625c0-0.6474609-0.09375-1.2324219-0.2822266-1.7539062
					c-0.1884766-0.5224609-0.4736328-0.9667969-0.8554688-1.3339844s-0.8583984-0.6533203-1.4287109-0.8554688
					c-0.5703125-0.2031231-1.2373047-0.3046856-2.0009766-0.3046856c-0.5214844,0-1.0634766,0.0429688-1.6240234,0.1298828
					s-1.140625,0.2275372-1.7402344,0.4208965l-1.6240234-0.4785137l1.6826172-9.7148438h9.8457031V23.2338886z"/>
			</g>
			<g class="st8">
				<path class="st6" d="M309.7783203,51.5214844c-0.0361328,0.0595703-0.0742188,0.1044922-0.1142578,0.1347656
					s-0.0927734,0.0449219-0.15625,0.0449219c-0.0683594,0-0.1474609-0.0341797-0.2373047-0.1015625
					c-0.0898438-0.0683594-0.2041016-0.1435547-0.3417969-0.2255859s-0.3037109-0.15625-0.4980469-0.2246094
					s-0.4287109-0.1015625-0.7050781-0.1015625c-0.2597656,0-0.4902344,0.0341797-0.6894531,0.1044922
					c-0.2001953,0.0703125-0.3671875,0.1650391-0.5009766,0.2851562c-0.1347656,0.1201172-0.2353516,0.2607422-0.3037109,0.4228516
					c-0.0673828,0.1621094-0.1015625,0.3369141-0.1015625,0.5253906c0,0.2392578,0.0585938,0.4384766,0.1767578,0.5966797
					s0.2744141,0.2929688,0.4677734,0.4052734c0.1943359,0.1113281,0.4140625,0.2089844,0.6601562,0.2910156
					s0.4980469,0.1669922,0.7558594,0.2548828c0.2587891,0.0878906,0.5107422,0.1865234,0.7568359,0.296875
					c0.2451172,0.1103516,0.4658203,0.2490234,0.6591797,0.4169922c0.1943359,0.1679688,0.3505859,0.3740234,0.46875,0.6181641
					c0.1171875,0.2441406,0.1767578,0.5439453,0.1767578,0.8994141c0,0.3759766-0.0644531,0.7294922-0.1923828,1.0595703
					s-0.3144531,0.6171875-0.5605469,0.8603516c-0.2460938,0.2441406-0.5478516,0.4365234-0.90625,0.5761719
					c-0.3583984,0.140625-0.7646484,0.2099609-1.2207031,0.2099609c-0.5566406,0-1.0634766-0.1005859-1.5214844-0.3027344
					s-0.8486328-0.4746094-1.1728516-0.8193359l0.3359375-0.5517578c0.0322266-0.0439453,0.0712891-0.0810547,0.1171875-0.1113281
					c0.0458984-0.0292969,0.0966797-0.0449219,0.1533203-0.0449219c0.0839844,0,0.1796875,0.0449219,0.2880859,0.1357422
					c0.1074219,0.0898438,0.2421875,0.1884766,0.4042969,0.296875c0.1621094,0.1074219,0.3583984,0.2070312,0.5878906,0.296875
					c0.2304688,0.0898438,0.5117188,0.1347656,0.84375,0.1347656c0.2753906,0,0.5214844-0.0380859,0.7373047-0.1142578
					c0.2167969-0.0751953,0.3994141-0.1826172,0.5498047-0.3203125c0.1494141-0.1386719,0.2646484-0.3037109,0.3447266-0.4951172
					c0.0800781-0.1923828,0.1201172-0.40625,0.1201172-0.6425781c0-0.2597656-0.0595703-0.4726562-0.1777344-0.6386719
					c-0.1171875-0.1660156-0.2724609-0.3046875-0.4648438-0.4169922c-0.1914062-0.1123047-0.4111328-0.2070312-0.6572266-0.2851562
					c-0.2451172-0.078125-0.4970703-0.1582031-0.7558594-0.2402344c-0.2578125-0.0810547-0.5097656-0.1767578-0.7558594-0.2841797
					c-0.2460938-0.1083984-0.4648438-0.2480469-0.6572266-0.4199219C305.5,53.875,305.3447266,53.6601562,305.2265625,53.4023438
					s-0.1767578-0.5771484-0.1767578-0.9570312c0-0.3037109,0.0585938-0.5976562,0.1767578-0.8818359
					s0.2890625-0.5361328,0.5136719-0.7558594c0.2236328-0.2197266,0.5009766-0.3964844,0.8310547-0.5283203
					c0.3291016-0.1318359,0.7080078-0.1982422,1.1367188-0.1982422c0.4794922,0,0.9179688,0.0761719,1.3134766,0.2285156
					c0.3964844,0.1523438,0.7421875,0.3720703,1.0380859,0.6601562L309.7783203,51.5214844z"/>
				<path class="st6" d="M317.03125,50.1777344V51.125h-4.1279297v2.8564453h3.3427734v0.9121094h-3.3427734v2.9335938h4.1279297
					v0.9482422h-5.2978516v-8.5976562H317.03125z"/>
				<path class="st6" d="M324.765625,56.9990234c0.0644531,0,0.1220703,0.0263672,0.1738281,0.078125l0.4560547,0.4980469
					c-0.3515625,0.4082031-0.7783203,0.7265625-1.2802734,0.9541016c-0.5019531,0.2285156-1.1074219,0.3417969-1.8154297,0.3417969
					c-0.6201172,0-1.1816406-0.1064453-1.6855469-0.3203125s-0.9345703-0.5146484-1.2900391-0.9003906
					c-0.3564453-0.3857422-0.6328125-0.8486328-0.828125-1.3886719c-0.1962891-0.5400391-0.2939453-1.1347656-0.2939453-1.7822266
					c0-0.6484375,0.1044922-1.2421875,0.3144531-1.7822266s0.5048828-1.0039062,0.8857422-1.3916016
					c0.3798828-0.3886719,0.8339844-0.6894531,1.3642578-0.9033203s1.1152344-0.3212891,1.7548828-0.3212891
					c0.6328125,0,1.1777344,0.0986328,1.6357422,0.2939453c0.4580078,0.1962891,0.8642578,0.4619141,1.2207031,0.7988281
					L325,51.7070312c-0.0283203,0.0400391-0.0605469,0.0732422-0.0957031,0.0996094
					c-0.0361328,0.0253906-0.0888672,0.0390625-0.15625,0.0390625c-0.0517578,0-0.1074219-0.0195312-0.1650391-0.0576172
					c-0.0585938-0.0380859-0.1269531-0.0849609-0.2070312-0.140625s-0.1738281-0.1162109-0.2822266-0.1796875
					c-0.1074219-0.0644531-0.2363281-0.1240234-0.3837891-0.1806641c-0.1484375-0.0556641-0.3203125-0.1025391-0.515625-0.140625
					c-0.1962891-0.0380859-0.4228516-0.0566406-0.6787109-0.0566406c-0.4599609,0-0.8808594,0.078125-1.2626953,0.2363281
					s-0.7109375,0.3828125-0.9873047,0.6748047c-0.2753906,0.2919922-0.4912109,0.6484375-0.6445312,1.0683594
					c-0.1542969,0.4199219-0.2314453,0.8896484-0.2314453,1.4101562c0,0.5361328,0.0771484,1.0136719,0.2314453,1.4335938
					c0.1533203,0.4199219,0.3632812,0.7753906,0.6298828,1.0654297c0.265625,0.2900391,0.5810547,0.5107422,0.9453125,0.6630859
					c0.3632812,0.1513672,0.7558594,0.2275391,1.1757812,0.2275391c0.2558594,0,0.4853516-0.0146484,0.6894531-0.0449219
					s0.3935547-0.0771484,0.5673828-0.140625c0.1738281-0.0644531,0.3359375-0.1455078,0.4863281-0.2431641
					c0.1494141-0.0976562,0.3007812-0.2148438,0.4521484-0.3505859
					C324.6357422,57.0292969,324.7021484,56.9990234,324.765625,56.9990234z"/>
				<path class="st6" d="M331.3300781,51.5214844c-0.0361328,0.0595703-0.0742188,0.1044922-0.1142578,0.1347656
					s-0.0927734,0.0449219-0.15625,0.0449219c-0.0683594,0-0.1474609-0.0341797-0.2373047-0.1015625
					c-0.0898438-0.0683594-0.2041016-0.1435547-0.3417969-0.2255859s-0.3037109-0.15625-0.4980469-0.2246094
					s-0.4287109-0.1015625-0.7050781-0.1015625c-0.2597656,0-0.4902344,0.0341797-0.6894531,0.1044922
					c-0.2001953,0.0703125-0.3671875,0.1650391-0.5009766,0.2851562c-0.1347656,0.1201172-0.2353516,0.2607422-0.3037109,0.4228516
					c-0.0673828,0.1621094-0.1015625,0.3369141-0.1015625,0.5253906c0,0.2392578,0.0585938,0.4384766,0.1767578,0.5966797
					s0.2744141,0.2929688,0.4677734,0.4052734c0.1943359,0.1113281,0.4140625,0.2089844,0.6601562,0.2910156
					s0.4980469,0.1669922,0.7558594,0.2548828c0.2587891,0.0878906,0.5107422,0.1865234,0.7568359,0.296875
					c0.2451172,0.1103516,0.4658203,0.2490234,0.6591797,0.4169922c0.1943359,0.1679688,0.3505859,0.3740234,0.46875,0.6181641
					c0.1171875,0.2441406,0.1767578,0.5439453,0.1767578,0.8994141c0,0.3759766-0.0644531,0.7294922-0.1923828,1.0595703
					s-0.3144531,0.6171875-0.5605469,0.8603516c-0.2460938,0.2441406-0.5478516,0.4365234-0.90625,0.5761719
					c-0.3583984,0.140625-0.7646484,0.2099609-1.2207031,0.2099609c-0.5566406,0-1.0634766-0.1005859-1.5214844-0.3027344
					s-0.8486328-0.4746094-1.1728516-0.8193359l0.3359375-0.5517578c0.0322266-0.0439453,0.0712891-0.0810547,0.1171875-0.1113281
					c0.0458984-0.0292969,0.0966797-0.0449219,0.1533203-0.0449219c0.0839844,0,0.1796875,0.0449219,0.2880859,0.1357422
					c0.1074219,0.0898438,0.2421875,0.1884766,0.4042969,0.296875c0.1621094,0.1074219,0.3583984,0.2070312,0.5878906,0.296875
					c0.2304688,0.0898438,0.5117188,0.1347656,0.84375,0.1347656c0.2753906,0,0.5214844-0.0380859,0.7373047-0.1142578
					c0.2167969-0.0751953,0.3994141-0.1826172,0.5498047-0.3203125c0.1494141-0.1386719,0.2646484-0.3037109,0.3447266-0.4951172
					c0.0800781-0.1923828,0.1201172-0.40625,0.1201172-0.6425781c0-0.2597656-0.0595703-0.4726562-0.1777344-0.6386719
					c-0.1171875-0.1660156-0.2724609-0.3046875-0.4648438-0.4169922c-0.1914062-0.1123047-0.4111328-0.2070312-0.6572266-0.2851562
					c-0.2451172-0.078125-0.4970703-0.1582031-0.7558594-0.2402344c-0.2578125-0.0810547-0.5097656-0.1767578-0.7558594-0.2841797
					c-0.2460938-0.1083984-0.4648438-0.2480469-0.6572266-0.4199219c-0.1914062-0.1728516-0.3466797-0.3876953-0.4648438-0.6455078
					s-0.1767578-0.5771484-0.1767578-0.9570312c0-0.3037109,0.0585938-0.5976562,0.1767578-0.8818359
					s0.2890625-0.5361328,0.5136719-0.7558594c0.2236328-0.2197266,0.5009766-0.3964844,0.8310547-0.5283203
					c0.3291016-0.1318359,0.7080078-0.1982422,1.1367188-0.1982422c0.4794922,0,0.9179688,0.0761719,1.3134766,0.2285156
					c0.3964844,0.1523438,0.7421875,0.3720703,1.0380859,0.6601562L331.3300781,51.5214844z"/>
			</g>
		</g>
	</g>
</g>
</svg>
