<?xml version="1.0" encoding="utf-8"?>
<!-- Generator: Adobe Illustrator 21.0.0, SVG Export Plug-In . SVG Version: 6.00 Build 0)  -->
<svg version="1.1" id="Layer_1" xmlns="http://www.w3.org/2000/svg" width="50" height="50" xmlns:xlink="http://www.w3.org/1999/xlink" x="0px" y="0px"
	 viewBox="0 0 50 50" style="enable-background:new 0 0 50 50;" xml:space="preserve">
<style type="text/css">
	.st0{fill:#222222;}
</style>
<path class="st0" d="M35.4007874,16.7210884L35.4007874,16.7210884c-0.0302734-0.6660538-0.5752296-1.1807318-1.1807327-1.1807318
	h-3.4513702C30.6173077,12.4522896,28.1044693,10,25.0164013,10s-5.6311836,2.4522896-5.7522831,5.5403566h-3.4210949
	c-0.6660538,0-1.1807318,0.5449533-1.1807318,1.1807318L13.844862,37.4898567
	c-0.0302753,0.696331,0.2119265,1.3926582,0.6963291,1.9073372s1.120182,0.7871552,1.8467865,0.7871552h17.2265739
	c0.696331,0,1.3321075-0.2724762,1.8467865-0.7871552c0.4541245-0.5146751,0.6963272-1.1807289,0.6963272-1.9073372
	L35.4007874,16.7210884z M25.0164013,11.4834833c2.2706375,0,4.1476994,1.7862358,4.2990742,4.0568733l-8.5981503-0.0302753
	C20.8687019,13.2697191,22.7457638,11.4834833,25.0164013,11.4834833z"/>
</svg>
