<?xml version="1.0" encoding="utf-8"?>
<!-- Generator: Adobe Illustrator 21.0.0, SVG Export Plug-In . SVG Version: 6.00 Build 0)  -->
<svg version="1.1" id="Layer_1" xmlns="http://www.w3.org/2000/svg" width="50" height="50" xmlns:xlink="http://www.w3.org/1999/xlink" x="0px" y="0px"
	 viewBox="0 0 50 50" style="enable-background:new 0 0 50 50;" xml:space="preserve">
<style type="text/css">
	.st0{fill:#222222;}
</style>
<g>
	<path class="st0" d="M39.8,15.2c-0.1-0.1-0.3-0.3-0.6-0.3H15.9l-0.6-3c0-0.4-0.5-0.7-0.8-0.7h-3.7c-0.5,0-0.8,0.3-0.8,0.8
		s0.3,0.8,0.8,0.8h3.1l2.9,14.9c0.4,2,2.3,3.6,4.4,3.6h14.2c0.5,0,0.8-0.3,0.8-0.8s-0.3-0.8-0.8-0.8h-14c-0.9,0-1.7-0.4-2.1-1
		L37,26.3c0.3,0,0.7-0.3,0.7-0.7l2.5-9.8l0,0C40,15.7,40,15.4,39.8,15.2z M38.1,16.4l-2,8.4l-17.7,2.3l-2.1-10.7
		C16.2,16.4,38.1,16.4,38.1,16.4z"/>
	<path class="st0" d="M20.7,32.2c-1.8,0-3.3,1.4-3.3,3.3c0,1.8,1.4,3.3,3.3,3.3s3.3-1.4,3.3-3.3C23.9,33.6,22.5,32.2,20.7,32.2z
		 M22.3,35.5c0,0.9-0.8,1.7-1.7,1.7S19,36.4,19,35.5s0.8-1.7,1.7-1.7S22.3,34.6,22.3,35.5z"/>
	<path class="st0" d="M33,32.2c-1.8,0-3.3,1.4-3.3,3.3c0,1.8,1.4,3.3,3.3,3.3c1.8,0,3.3-1.4,3.3-3.3C36.3,33.6,34.8,32.2,33,32.2z
		 M34.7,35.5c0,0.9-0.8,1.7-1.7,1.7s-1.7-0.8-1.7-1.7s0.8-1.7,1.7-1.7S34.7,34.6,34.7,35.5z"/>
</g>
</svg>
