<?xml version="1.0" encoding="utf-8"?>
<!-- Generator: Adobe Illustrator 21.0.0, SVG Export Plug-In . SVG Version: 6.00 Build 0)  -->
<svg version="1.1" id="Layer_1" xmlns="http://www.w3.org/2000/svg" width="50" height="50" xmlns:xlink="http://www.w3.org/1999/xlink" x="0px" y="0px"
	 viewBox="0 0 50 50" style="enable-background:new 0 0 50 50;" xml:space="preserve">
<style type="text/css">
	.st0{fill:#222222;}
</style>
<g>
	<path class="st0" d="M39.9,21.4c0-0.5-0.2-1-0.5-1.3c-0.4-0.4-0.8-0.6-1.4-0.6h-5.5l-6.9-9.2C25.5,10.1,25.3,10,25,10
		c-0.2,0-0.5,0.1-0.6,0.3l-6.9,9.2H12c-1.1,0-1.9,0.8-1.9,1.9v2.4c0,1.1,0.8,1.9,1.9,1.9h0.6l1.9,11.7c0.2,1.5,1.5,2.6,3,2.6h15
		c1.5,0,2.8-1.1,3-2.6l1.9-11.7H38c1.1,0,1.9-0.8,1.9-1.9V21.4z M11.5,21.4c0-0.2,0.2-0.5,0.5-0.5h4.5l-0.2,0.3h-0.1
		c-0.7,0-1.3,0.6-1.3,1.3c0,0.7,0.6,1.3,1.3,1.3c0.7,0,1.3-0.6,1.3-1.3c0-0.2,0-0.3-0.1-0.5l0.9-1.2h13.6l0.9,1.2
		c-0.1,0.1-0.1,0.3-0.1,0.5c0,0.7,0.6,1.3,1.3,1.3s1.3-0.6,1.3-1.3c0-0.7-0.6-1.3-1.3-1.3h-0.1L33.6,21h4.5c0.2,0,0.5,0.2,0.5,0.5
		v2.3c0,0.2-0.2,0.5-0.5,0.5H12c-0.2,0-0.5-0.2-0.5-0.5V21.4z M19.4,19.5l5.7-7.6l5.7,7.6H19.4z M14,25.7h22.1l-1.9,11.5
		c-0.2,0.8-0.8,1.4-1.6,1.4h-15c-0.8,0-1.5-0.6-1.6-1.4L14,25.7z M25,10.4L25,10.4L25,10.4L25,10.4z"/>
	<path class="st0" d="M29.8,37.7c0.4,0,0.7-0.3,0.7-0.7v-9.5c0-0.4-0.3-0.7-0.7-0.7s-0.7,0.3-0.7,0.7V37
		C29.1,37.3,29.4,37.7,29.8,37.7z"/>
	<path class="st0" d="M20.3,37.7c0.4,0,0.7-0.3,0.7-0.7v-9.5c0-0.4-0.3-0.7-0.7-0.7s-0.7,0.3-0.7,0.7V37
		C19.6,37.3,19.9,37.7,20.3,37.7z"/>
	<path class="st0" d="M25.1,37.7c0.4,0,0.7-0.3,0.7-0.7v-9.5c0-0.4-0.3-0.7-0.7-0.7c-0.4,0-0.7,0.3-0.7,0.7V37
		C24.4,37.3,24.7,37.7,25.1,37.7z"/>
</g>
</svg>
