<?xml version="1.0" encoding="utf-8"?>
<!-- Generator: Adobe Illustrator 21.0.0, SVG Export Plug-In . SVG Version: 6.00 Build 0)  -->
<svg version="1.1" id="Layer_1" xmlns="http://www.w3.org/2000/svg" width="430" height="80" xmlns:xlink="http://www.w3.org/1999/xlink" x="0px" y="0px"
	 viewBox="0 0 430 70" style="enable-background:new 0 0 430 70;" xml:space="preserve">
<style type="text/css">
	.st0{fill:#222222;stroke:#222222;stroke-width:0.2;stroke-miterlimit:10;}
	.st1{enable-background:new    ;}
	.st2{fill:#222222;}
	.st3{fill:#43A047;}
	.st4{fill:#FFFFFF;}
	.st5{font-family:'Roboto-Regular';}
	.st6{font-size:6.5079999px;}
	.st7{fill:#FFFFFF;stroke:#FFFFFF;stroke-width:0.2;stroke-miterlimit:10;}
</style>
<g>
	<path class="st0" d="M26.8999996,29.3999996c0-0.5-0.3999996-0.7999992-0.7999992-0.7999992h-2.2999992
		C23.7000008,26.5,22.0000019,24.8000011,19.9000015,24.8000011S16,26.5,16,28.7000008h-2.3000002
		c-0.5,0-0.8000002,0.2999992-0.8000002,0.7999992l-0.5,14.0999985c0,0.5,0.1000004,1,0.5,1.2999992
		c0.3000002,0.2999992,0.8000002,0.5,1.1999998,0.5h11.8000002c0.5,0,0.8999996-0.2000008,1.2000008-0.5
		s0.5-0.7999992,0.5-1.2999992L26.8999996,29.3999996z M19.8999996,25.8999996c1.6000004,0,2.7999992,1.2000008,2.8999996,2.7000008
		H17C17,27.1000004,18.2999992,25.8999996,19.8999996,25.8999996z M16,29.7000008v1.7000008c0,0.2999992,0.2000008,0.5,0.5,0.5
		s0.5-0.2000008,0.5-0.5v-1.7000008h5.7999992v1.7000008c0,0.2999992,0.2000008,0.5,0.5,0.5s0.5-0.2000008,0.5-0.5v-1.7000008
		h2.1000004l0.5,13.8999977c0,0.2000008-0.1000004,0.4000015-0.2999992,0.5c-0.1000004,0.0999985-0.2999992,0.2000008-0.5,0.2000008
		H14c-0.1999998,0-0.3999996-0.0999985-0.5-0.2000008c-0.1000004-0.0999985-0.1999998-0.2999992-0.1999998-0.5l0.6000004-13.8999996
		C13.9000006,29.6999989,16,29.6999989,16,29.7000008z"/>
	<g class="st1">
		<path class="st2" d="M43.5615234,37.1152344c-0.1240234,1.0605469-0.515625,1.8779297-1.1738281,2.4541016
			c-0.6586914,0.5761719-1.534668,0.8642578-2.6269531,0.8642578c-1.184082,0-2.1333008-0.4248047-2.8466797-1.2734375
			c-0.7138672-0.8496094-1.0708008-1.9853516-1.0708008-3.4086914v-0.9638672c0-0.9316406,0.1665039-1.7509766,0.4990234-2.4580078
			c0.3330078-0.7070312,0.8046875-1.25,1.4150391-1.6289062c0.6103516-0.3779297,1.3173828-0.5673828,2.1206055-0.5673828
			c1.0649414,0,1.918457,0.296875,2.5610352,0.8916016s1.0166016,1.4169922,1.1225586,2.4677734h-1.3291016
			c-0.1147461-0.8007812-0.3637695-1.3808594-0.7470703-1.7402344c-0.3833008-0.3583984-0.9189453-0.5380859-1.6074219-0.5380859
			c-0.8447266,0-1.5068359,0.3125-1.9863281,0.9365234c-0.4799805,0.625-0.7197266,1.5136719-0.7197266,2.6669922v0.9716797
			c0,1.0893555,0.2275391,1.9555664,0.6816406,2.5981445c0.4545898,0.6435547,1.090332,0.9648438,1.9072266,0.9648438
			c0.734375,0,1.2978516-0.1660156,1.6904297-0.4990234s0.652832-0.9121094,0.78125-1.7382812H43.5615234z"/>
		<path class="st2" d="M49.7646484,40.2958984c-0.0732422-0.1464844-0.1328125-0.4082031-0.1787109-0.7851562
			c-0.5922852,0.6152344-1.2993164,0.9228516-2.1206055,0.9228516c-0.734375,0-1.3369141-0.2080078-1.8076172-0.6230469
			c-0.4702148-0.4150391-0.7055664-0.9423828-0.7055664-1.5800781c0-0.7753906,0.2949219-1.3779297,0.8847656-1.8076172
			c0.5898438-0.4291992,1.4194336-0.644043,2.4887695-0.644043h1.2392578v-0.5849609
			c0-0.4453125-0.1328125-0.7998047-0.3989258-1.0644531c-0.2666016-0.2636719-0.6586914-0.3955078-1.1777344-0.3955078
			c-0.4541016,0-0.8354492,0.1152344-1.1425781,0.3447266c-0.3076172,0.2294922-0.4614258,0.5068359-0.4614258,0.8330078h-1.2807617
			c0-0.3720703,0.1318359-0.7314453,0.3959961-1.078125c0.2636719-0.3466797,0.6220703-0.6201172,1.0742188-0.8222656
			c0.4516602-0.2021484,0.9487305-0.3027344,1.4902344-0.3027344c0.8583984,0,1.5307617,0.2138672,2.0175781,0.6435547
			c0.4863281,0.4287109,0.7387695,1.0195312,0.7573242,1.7724609v3.4291992c0,0.6845703,0.0869141,1.2285156,0.2617188,1.6318359
			v0.1103516H49.7646484z M47.6508789,39.3251953c0.3994141,0,0.7783203-0.1035156,1.1362305-0.3095703
			c0.3579102-0.2070312,0.6171875-0.4755859,0.777832-0.8056641v-1.5283203h-0.9980469
			c-1.5605469,0-2.3408203,0.4560547-2.3408203,1.3701172c0,0.3994141,0.1328125,0.7109375,0.3989258,0.9355469
			C46.8911133,39.2128906,47.2333984,39.3251953,47.6508789,39.3251953z"/>
		<path class="st2" d="M56.4365234,33.9887695c-0.1928711-0.0322266-0.4018555-0.0478516-0.6264648-0.0478516
			c-0.8354492,0-1.4023438,0.3554688-1.7006836,1.0664062v5.2885742h-1.2739258v-7.449707h1.2392578l0.0205078,0.8603516
			c0.4179688-0.6660156,1.0097656-0.9980469,1.7763672-0.9980469c0.2480469,0,0.4360352,0.0322266,0.5649414,0.0957031V33.9887695z"
			/>
		<path class="st2" d="M59.6791992,31.0415039v1.8046875h1.3911133v0.984375h-1.3911133v4.6254883
			c0,0.2988281,0.0620117,0.5234375,0.1860352,0.6728516s0.3349609,0.2236328,0.6333008,0.2236328
			c0.1469727,0,0.3491211-0.0273438,0.605957-0.0820312v1.0263672c-0.3349609,0.0908203-0.6606445,0.1367188-0.9775391,0.1367188
			c-0.5693359,0-0.9985352-0.171875-1.2875977-0.5166016c-0.2890625-0.34375-0.4335938-0.8330078-0.4335938-1.4658203v-4.6206055
			h-1.3564453v-0.984375h1.3564453v-1.8046875H59.6791992z"/>
		<path class="st2" d="M65.9995117,36.2265625c0-1.0375977,0.1391602-2.0336914,0.4165039-2.9887695
			c0.277832-0.9541016,0.6923828-1.8212891,1.2431641-2.6025391c0.5507812-0.7802734,1.1220703-1.3310547,1.7143555-1.6523438
			l0.2612305,0.8398438c-0.6699219,0.5146484-1.2197266,1.2998047-1.6489258,2.3554688s-0.6640625,2.2373047-0.7055664,3.5458984
			l-0.0068359,0.5854492c0,1.7714844,0.3237305,3.3095703,0.9707031,4.6132812
			c0.3901367,0.7802734,0.8540039,1.390625,1.390625,1.8310547l-0.2612305,0.7783203
			c-0.6108398-0.3398438-1.1938477-0.9091797-1.7490234-1.7080078
			C66.5410156,40.2636719,65.9995117,38.3984375,65.9995117,36.2265625z"/>
		<path class="st2" d="M75.7973633,37.7138672c0-0.421875-0.1479492-0.7783203-0.4438477-1.0673828
			c-0.2963867-0.2890625-0.7954102-0.5507812-1.4975586-0.784668c-0.9780273-0.2988281-1.6904297-0.6875-2.1376953-1.1669922
			c-0.4477539-0.4804688-0.6713867-1.0888672-0.6713867-1.828125c0-0.7529297,0.21875-1.3701172,0.6572266-1.8525391
			c0.4384766-0.4814453,1.0410156-0.7685547,1.8076172-0.8603516v-1.5078125h1.0258789v1.5146484
			c0.7709961,0.1054688,1.3710938,0.4296875,1.800293,0.9707031c0.4291992,0.5419922,0.6435547,1.2832031,0.6435547,2.2236328
			h-1.2666016c0-0.6494141-0.1538086-1.1650391-0.4614258-1.546875s-0.7226562-0.5732422-1.2460938-0.5732422
			c-0.5463867,0-0.9638672,0.1416016-1.2529297,0.4238281c-0.2895508,0.2832031-0.434082,0.6777344-0.434082,1.1826172
			c0,0.4697266,0.152832,0.8427734,0.4580078,1.1210938s0.8076172,0.53125,1.5078125,0.7587891
			c0.699707,0.2275391,1.2460938,0.4785156,1.6386719,0.7509766c0.3925781,0.2734375,0.6816406,0.5913086,0.8676758,0.9545898
			c0.1855469,0.3623047,0.2788086,0.7871094,0.2788086,1.2734375c0,0.7753906-0.2329102,1.4003906-0.6987305,1.8730469
			c-0.4663086,0.4726562-1.1191406,0.7529297-1.9589844,0.8398438v1.3144531h-1.019043v-1.3144531
			c-0.8535156-0.078125-1.5229492-0.3818359-2.0068359-0.9121094c-0.484375-0.5302734-0.7265625-1.25-0.7265625-2.1591797h1.2739258
			c0,0.6386719,0.1674805,1.1298828,0.5024414,1.4736328c0.3349609,0.3447266,0.8100586,0.5166016,1.425293,0.5166016
			c0.6010742,0,1.0742188-0.1445312,1.418457-0.4335938S75.7973633,38.2138672,75.7973633,37.7138672z"/>
		<path class="st2" d="M79.2397461,35.269043l0.5092773-4.9980469h5.1362305v1.1767578h-4.0551758l-0.3027344,2.7333984
			c0.4907227-0.2890625,1.0483398-0.4335938,1.6728516-0.4335938c0.9135742,0,1.6386719,0.3017578,2.1757812,0.9052734
			s0.8056641,1.4204102,0.8056641,2.4487305c0,1.0322266-0.2792969,1.8457031-0.8369141,2.4404297
			s-1.3369141,0.8916016-2.3374023,0.8916016c-0.8857422,0-1.6088867-0.2451172-2.1689453-0.7363281
			s-0.8789062-1.1708984-0.9570312-2.0380859h1.2050781c0.078125,0.5732422,0.2822266,1.0058594,0.612793,1.2978516
			c0.3305664,0.2910156,0.7666016,0.4365234,1.3081055,0.4365234c0.5922852,0,1.0571289-0.2011719,1.3945312-0.6054688
			c0.3369141-0.4042969,0.5058594-0.9619141,0.5058594-1.6728516c0-0.6699219-0.1826172-1.2094727-0.5473633-1.6157227
			s-0.8500977-0.6083984-1.4560547-0.6083984c-0.5556641,0-0.9916992,0.1210938-1.3081055,0.3642578l-0.3374023,0.2753906
			L79.2397461,35.269043z"/>
		<path class="st2" d="M91.4536133,35.8891602c-0.2661133,0.3168945-0.5839844,0.5717773-0.953125,0.7641602
			c-0.3696289,0.1933594-0.7749023,0.2900391-1.215332,0.2900391c-0.5786133,0-1.0820312-0.1425781-1.5112305-0.4277344
			c-0.4291992-0.2841797-0.7607422-0.6850586-0.9951172-1.2016602c-0.2338867-0.5166016-0.3510742-1.0869141-0.3510742-1.7109375
			c0-0.6699219,0.1274414-1.2734375,0.3823242-1.8105469c0.2543945-0.5371094,0.6162109-0.9482422,1.0839844-1.2324219
			c0.4682617-0.2841797,1.0146484-0.4267578,1.6386719-0.4267578c0.9916992,0,1.7729492,0.3701172,2.3447266,1.1113281
			c0.5712891,0.7421875,0.8569336,1.7529297,0.8569336,3.0332031v0.3720703c0,1.9506836-0.3852539,3.3754883-1.1567383,4.2719727
			c-0.7709961,0.8974609-1.9345703,1.3583984-3.4907227,1.3808594h-0.2475586v-1.0810547h0.2685547
			c1.0507812-0.0185547,1.8588867-0.2919922,2.4233398-0.8212891
			C91.0957031,37.8720703,91.4033203,37.0341797,91.4536133,35.8891602z M89.4916992,35.8891602
			c0.4267578,0,0.8203125-0.1308594,1.1806641-0.3925781s0.6230469-0.5849609,0.7885742-0.9707031v-0.5097656
			c0-0.8349609-0.1816406-1.5146484-0.5439453-2.0380859c-0.362793-0.5234375-0.8217773-0.7841797-1.3769531-0.7841797
			c-0.5600586,0-1.0102539,0.2138672-1.3496094,0.6435547c-0.3398438,0.4287109-0.5097656,0.9941406-0.5097656,1.6972656
			c0,0.6835938,0.1640625,1.2470703,0.4926758,1.6894531C88.5014648,35.6674805,88.940918,35.8891602,89.4916992,35.8891602z"/>
		<path class="st2" d="M94.6484375,39.6279297c0-0.2197266,0.0654297-0.4033203,0.1962891-0.5507812
			c0.1308594-0.1464844,0.3271484-0.2207031,0.5888672-0.2207031s0.4599609,0.0742188,0.5957031,0.2207031
			c0.1352539,0.1474609,0.203125,0.3310547,0.203125,0.5507812c0,0.2109375-0.0678711,0.3876953-0.203125,0.5302734
			c-0.1357422,0.1425781-0.3339844,0.2138672-0.5957031,0.2138672s-0.4580078-0.0712891-0.5888672-0.2138672
			S94.6484375,39.8388672,94.6484375,39.6279297z"/>
		<path class="st2" d="M104.4873047,36.0205078c0,1.4912109-0.2548828,2.5996094-0.7641602,3.3251953
			c-0.5097656,0.7255859-1.3061523,1.0878906-2.3891602,1.0878906c-1.0693359,0-1.8613281-0.3544922-2.3754883-1.0634766
			s-0.7802734-1.7685547-0.7983398-3.1777344v-1.7006836c0-1.4736328,0.2543945-2.5683594,0.7641602-3.2841797
			c0.5092773-0.7167969,1.3081055-1.0742188,2.3959961-1.0742188c1.0786133,0,1.8725586,0.3447266,2.3823242,1.0361328
			c0.5092773,0.6904297,0.7709961,1.7568359,0.784668,3.1982422V36.0205078z M103.2133789,34.277832
			c0-1.078125-0.1513672-1.8642578-0.4541016-2.3583984c-0.3032227-0.4931641-0.7827148-0.7402344-1.4389648-0.7402344
			c-0.6518555,0-1.1269531,0.2460938-1.425293,0.7373047s-0.4521484,1.2460938-0.4614258,2.2646484v2.0385742
			c0,1.0839844,0.1572266,1.8828125,0.4716797,2.3994141s0.7905273,0.7744141,1.4287109,0.7744141
			c0.6289062,0,1.0957031-0.2431641,1.4008789-0.7294922s0.4648438-1.2529297,0.4785156-2.2998047V34.277832z"/>
		<path class="st2" d="M112.4047852,36.0205078c0,1.4912109-0.2548828,2.5996094-0.7641602,3.3251953
			c-0.5097656,0.7255859-1.3061523,1.0878906-2.3891602,1.0878906c-1.0693359,0-1.8613281-0.3544922-2.3754883-1.0634766
			s-0.7802734-1.7685547-0.7983398-3.1777344v-1.7006836c0-1.4736328,0.2543945-2.5683594,0.7641602-3.2841797
			c0.5092773-0.7167969,1.3081055-1.0742188,2.3959961-1.0742188c1.0786133,0,1.8725586,0.3447266,2.3823242,1.0361328
			c0.5092773,0.6904297,0.7709961,1.7568359,0.784668,3.1982422V36.0205078z M111.1308594,34.277832
			c0-1.078125-0.1513672-1.8642578-0.4541016-2.3583984c-0.3032227-0.4931641-0.7827148-0.7402344-1.4389648-0.7402344
			c-0.6518555,0-1.1269531,0.2460938-1.425293,0.7373047s-0.4521484,1.2460938-0.4614258,2.2646484v2.0385742
			c0,1.0839844,0.1572266,1.8828125,0.4716797,2.3994141s0.7905273,0.7744141,1.4287109,0.7744141
			c0.6289062,0,1.0957031-0.2431641,1.4008789-0.7294922s0.4648438-1.2529297,0.4785156-2.2998047V34.277832z"/>
		<path class="st2" d="M117.1074219,36.2958984c0,1.0234375-0.1342773,2.0048828-0.402832,2.9433594
			s-0.6791992,1.8046875-1.2324219,2.5986328s-1.1323242,1.3583984-1.7382812,1.6943359l-0.2685547-0.7783203
			c0.706543-0.5419922,1.2749023-1.3828125,1.7041016-2.5234375s0.6479492-2.40625,0.6572266-3.796875v-0.2207031
			c0-0.9643555-0.1010742-1.8608398-0.3027344-2.6889648c-0.2021484-0.828125-0.4833984-1.5712891-0.8432617-2.2275391
			c-0.3603516-0.65625-0.765625-1.1679688-1.215332-1.5351562l0.2685547-0.7783203
			c0.605957,0.3359375,1.1831055,0.8955078,1.7314453,1.6806641c0.5483398,0.7841797,0.9594727,1.6494141,1.2324219,2.5957031
			C116.9707031,34.2045898,117.1074219,35.2163086,117.1074219,36.2958984z"/>
	</g>
	<circle class="st3" cx="27.7999992" cy="29.5" r="4.9000015"/>
	<text transform="matrix(1 0 0 1 25.9421997 31.3145981)" class="st4 st5 st6">2</text>
</g>
<g>
	<g>
		<path class="st2" d="M250.6999969,19.6000004c8.6999969,0,15.9000092,6.8999996,16.0000153,15.3999996
			c0,8.5-7.2000122,15.4000015-16,15.4000015H149.3000031c-8.8000031,0-16-6.9000015-16-15.4000015
			s7.1999969-15.3999996,16-15.3999996H250.6999969 M250.6999969,18.3999996H149.3000031
			c-9.3999939,0-17.1999969,7.3999996-17.1999969,16.6000004c0,9.0999985,7.6999969,16.5999985,17.1999969,16.5999985h101.4000092
			c9.3999939,0,17.2000122-7.4000015,17.2000122-16.5999985C267.7000122,25.7999992,260.1000061,18.3999996,250.6999969,18.3999996
			L250.6999969,18.3999996z"/>
	</g>
	<path class="st0" d="M164.3000031,29.3999996c0-0.5-0.3999939-0.7999992-0.8000031-0.7999992h-2.3000031
		c-0.1000061-2.1000004-1.8000031-3.7999992-3.8999939-3.7999992c-2.1000061,0-3.8000031,1.6000004-3.8999939,3.7999992H151
		c-0.5,0-0.8000031,0.2999992-0.8000031,0.7999992l-0.5,14.1000004c0,0.5,0.1000061,1,0.5,1.2999992
		c0.3000031,0.2999992,0.8000031,0.5,1.1999969,0.5h11.8000031c0.5,0,0.8999939-0.2000008,1.1999969-0.5
		s0.5-0.7999992,0.5-1.2999992L164.3000031,29.3999996z M157.1999969,25.8999996
		c1.6000061,0,2.8000031,1.2000008,2.8999939,2.7000008h-5.8000031
		C154.3999939,27.1000004,155.6999969,25.8999996,157.1999969,25.8999996z M153.3999939,29.7000008v1.7000008
		c0,0.2999992,0.1999969,0.5,0.5,0.5s0.5-0.2000008,0.5-0.5v-1.7000008h5.8000031v1.7000008c0,0.2999992,0.1999969,0.5,0.5,0.5
		s0.5-0.2000008,0.5-0.5v-1.7000008h2.1000061l0.5,13.8999977c0,0.2000008-0.1000061,0.4000015-0.3000031,0.5
		c-0.1000061,0.0999985-0.3000031,0.2000008-0.5,0.2000008h-11.8000031c-0.1999969,0-0.3999939-0.0999985-0.5-0.2000008
		C150.5999908,44,150.5,43.7999992,150.5,43.5999985l0.6000061-13.8999996
		C151.1000061,29.6999989,153.3999939,29.6999989,153.3999939,29.7000008z"/>
	<g class="st1">
		<path class="st2" d="M180.8291016,36.9394531c-0.1240234,1.0605469-0.515625,1.8779297-1.1738281,2.4541016
			c-0.6586914,0.5761719-1.534668,0.8642578-2.6269531,0.8642578c-1.184082,0-2.1333008-0.4248047-2.8466797-1.2734375
			c-0.7138672-0.8496094-1.0708008-1.9853516-1.0708008-3.4077148V34.612793c0-0.9316406,0.1665039-1.7509766,0.4990234-2.4580078
			c0.3330078-0.7070312,0.8046875-1.25,1.4150391-1.6289062c0.6103516-0.3779297,1.3173828-0.5673828,2.1206055-0.5673828
			c1.0649414,0,1.918457,0.296875,2.5610352,0.8916016s1.0166016,1.4169922,1.1225586,2.4677734H179.5
			c-0.1147461-0.8007812-0.3637695-1.3808594-0.7470703-1.7402344c-0.3833008-0.3583984-0.9189453-0.5380859-1.6074219-0.5380859
			c-0.8447266,0-1.5068359,0.3125-1.9863281,0.9365234c-0.4799805,0.625-0.7197266,1.5136719-0.7197266,2.6669922v0.9716797
			c0,1.0883789,0.2275391,1.9545898,0.6816406,2.597168c0.4545898,0.6435547,1.090332,0.9648438,1.9072266,0.9648438
			c0.734375,0,1.2978516-0.1660156,1.6904297-0.4990234s0.652832-0.9121094,0.78125-1.7382812H180.8291016z"/>
		<path class="st2" d="M187.0322266,40.1201172c-0.0732422-0.1464844-0.1328125-0.4082031-0.1787109-0.7851562
			c-0.5922852,0.6152344-1.2993164,0.9228516-2.1206055,0.9228516c-0.734375,0-1.3369141-0.2080078-1.8076172-0.6230469
			c-0.4702148-0.4150391-0.7055664-0.9423828-0.7055664-1.5800781c0-0.7753906,0.2949219-1.3779297,0.8847656-1.8076172
			c0.5898438-0.4282227,1.4194336-0.6430664,2.4887695-0.6430664h1.2392578V35.019043
			c0-0.4453125-0.1328125-0.7998047-0.3989258-1.0644531c-0.2666016-0.2636719-0.6586914-0.3955078-1.1777344-0.3955078
			c-0.4541016,0-0.8354492,0.1152344-1.1425781,0.3447266c-0.3076172,0.2294922-0.4614258,0.5068359-0.4614258,0.8330078h-1.2807617
			c0-0.3720703,0.1318359-0.7314453,0.3959961-1.078125c0.2636719-0.3466797,0.6220703-0.6201172,1.0742188-0.8222656
			c0.4516602-0.2021484,0.9487305-0.3027344,1.4902344-0.3027344c0.8583984,0,1.5307617,0.2138672,2.0175781,0.6435547
			c0.4863281,0.4287109,0.7387695,1.0195312,0.7573242,1.7724609v3.4282227c0,0.6845703,0.0869141,1.2285156,0.2617188,1.6318359
			v0.1103516H187.0322266z M184.918457,39.1494141c0.3994141,0,0.7783203-0.1035156,1.1362305-0.3095703
			c0.3579102-0.2070312,0.6171875-0.4755859,0.777832-0.8056641v-1.5283203h-0.9980469
			c-1.5605469,0-2.3408203,0.4560547-2.3408203,1.3701172c0,0.3994141,0.1328125,0.7109375,0.3989258,0.9355469
			C184.1586914,39.0371094,184.5009766,39.1494141,184.918457,39.1494141z"/>
		<path class="st2" d="M193.7041016,33.8139648c-0.1928711-0.0322266-0.4018555-0.0478516-0.6264648-0.0478516
			c-0.8354492,0-1.4023438,0.3554688-1.7006836,1.0664062v5.2875977h-1.2739258v-7.4487305h1.2392578l0.0205078,0.8603516
			c0.4179688-0.6660156,1.0097656-0.9980469,1.7763672-0.9980469c0.2480469,0,0.4360352,0.0322266,0.5649414,0.0957031V33.8139648z"
			/>
		<path class="st2" d="M196.9467773,30.8666992v1.8046875h1.3911133v0.984375h-1.3911133v4.6245117
			c0,0.2988281,0.0620117,0.5234375,0.1860352,0.6728516s0.3349609,0.2236328,0.6333008,0.2236328
			c0.1469727,0,0.3491211-0.0273438,0.605957-0.0820312v1.0263672c-0.3349609,0.0908203-0.6606445,0.1367188-0.9775391,0.1367188
			c-0.5693359,0-0.9985352-0.171875-1.2875977-0.5166016c-0.2890625-0.34375-0.4335938-0.8330078-0.4335938-1.4658203v-4.6196289
			h-1.3564453v-0.984375h1.3564453v-1.8046875H196.9467773z"/>
		<path class="st2" d="M203.2670898,36.0507812c0-1.0366211,0.1391602-2.0327148,0.4165039-2.987793
			c0.277832-0.9541016,0.6923828-1.8212891,1.2431641-2.6025391c0.5507812-0.7802734,1.1220703-1.3310547,1.7143555-1.6523438
			l0.2612305,0.8398438c-0.6699219,0.5146484-1.2197266,1.2998047-1.6489258,2.3554688s-0.6640625,2.2373047-0.7055664,3.5458984
			l-0.0068359,0.5844727c0,1.7714844,0.3237305,3.3095703,0.9707031,4.6132812
			c0.3901367,0.7802734,0.8540039,1.390625,1.390625,1.8310547l-0.2612305,0.7783203
			c-0.6108398-0.3398438-1.1938477-0.9091797-1.7490234-1.7080078
			C203.8085938,40.0878906,203.2670898,38.2226562,203.2670898,36.0507812z"/>
		<path class="st2" d="M213.0649414,37.5380859c0-0.421875-0.1479492-0.7783203-0.4438477-1.0673828
			c-0.2963867-0.2890625-0.7954102-0.550293-1.4975586-0.7836914c-0.9780273-0.2988281-1.6904297-0.6875-2.1376953-1.1669922
			c-0.4477539-0.4804688-0.6713867-1.0888672-0.6713867-1.828125c0-0.7529297,0.21875-1.3701172,0.6572266-1.8525391
			c0.4384766-0.4814453,1.0410156-0.7685547,1.8076172-0.8603516v-1.5078125h1.0258789v1.5146484
			c0.7709961,0.1054688,1.3710938,0.4296875,1.800293,0.9707031c0.4291992,0.5419922,0.6435547,1.2832031,0.6435547,2.2236328
			h-1.2666016c0-0.6494141-0.1538086-1.1650391-0.4614258-1.546875s-0.7226562-0.5732422-1.2460938-0.5732422
			c-0.5463867,0-0.9638672,0.1416016-1.2529297,0.4238281c-0.2895508,0.2832031-0.434082,0.6777344-0.434082,1.1826172
			c0,0.4697266,0.152832,0.8427734,0.4580078,1.1210938s0.8076172,0.53125,1.5078125,0.7587891
			c0.699707,0.2275391,1.2460938,0.4785156,1.6386719,0.7509766c0.3925781,0.2734375,0.6816406,0.5908203,0.8676758,0.9536133
			c0.1855469,0.3623047,0.2788086,0.7871094,0.2788086,1.2734375c0,0.7753906-0.2329102,1.4003906-0.6987305,1.8730469
			c-0.4663086,0.4726562-1.1191406,0.7529297-1.9589844,0.8398438v1.3144531h-1.019043v-1.3144531
			c-0.8535156-0.078125-1.5229492-0.3818359-2.0068359-0.9121094c-0.484375-0.5302734-0.7265625-1.25-0.7265625-2.1591797h1.2739258
			c0,0.6386719,0.1674805,1.1298828,0.5024414,1.4736328c0.3349609,0.3447266,0.8100586,0.5166016,1.425293,0.5166016
			c0.6010742,0,1.0742188-0.1445312,1.418457-0.4335938S213.0649414,38.0380859,213.0649414,37.5380859z"/>
		<path class="st2" d="M216.5078125,35.0942383l0.5087891-4.9980469h5.1367188v1.1767578h-4.0556641l-0.3027344,2.7333984
			c0.4912109-0.2890625,1.0488281-0.4335938,1.6728516-0.4335938c0.9140625,0,1.6386719,0.3017578,2.1757812,0.9052734
			s0.8056641,1.4199219,0.8056641,2.4477539c0,1.0322266-0.2792969,1.8457031-0.8369141,2.4404297
			s-1.3369141,0.8916016-2.3369141,0.8916016c-0.8857422,0-1.609375-0.2451172-2.1689453-0.7363281
			c-0.5605469-0.4912109-0.8789062-1.1708984-0.9570312-2.0380859h1.2050781
			c0.078125,0.5732422,0.2822266,1.0058594,0.6123047,1.2978516c0.3310547,0.2910156,0.7666016,0.4365234,1.3085938,0.4365234
			c0.5917969,0,1.0566406-0.2011719,1.3945312-0.6054688c0.3369141-0.4042969,0.5058594-0.9619141,0.5058594-1.6728516
			c0-0.6699219-0.1826172-1.2084961-0.5478516-1.6147461c-0.3642578-0.40625-0.8496094-0.6083984-1.4560547-0.6083984
			c-0.5556641,0-0.9912109,0.1210938-1.3076172,0.3642578l-0.3378906,0.2753906L216.5078125,35.0942383z"/>
		<path class="st2" d="M228.7216797,35.7143555c-0.2666016,0.315918-0.5839844,0.5708008-0.953125,0.7631836
			c-0.3701172,0.1933594-0.7753906,0.2900391-1.2158203,0.2900391c-0.578125,0-1.0820312-0.1425781-1.5107422-0.4277344
			c-0.4296875-0.2841797-0.7607422-0.684082-0.9951172-1.2006836s-0.3515625-1.0869141-0.3515625-1.7109375
			c0-0.6699219,0.1279297-1.2734375,0.3828125-1.8105469c0.2539062-0.5371094,0.6162109-0.9482422,1.0839844-1.2324219
			s1.0146484-0.4267578,1.6386719-0.4267578c0.9912109,0,1.7724609,0.3701172,2.3447266,1.1113281
			c0.5712891,0.7421875,0.8564453,1.7529297,0.8564453,3.0332031v0.3720703c0,1.949707-0.3847656,3.3745117-1.15625,4.2709961
			c-0.7714844,0.8974609-1.9345703,1.3583984-3.4912109,1.3808594h-0.2470703v-1.0810547h0.2685547
			c1.0507812-0.0185547,1.8583984-0.2919922,2.4228516-0.8212891
			C228.3632812,37.6962891,228.6708984,36.8583984,228.7216797,35.7143555z M226.7597656,35.7143555
			c0.4267578,0,0.8203125-0.1308594,1.1806641-0.3925781s0.6230469-0.5849609,0.7880859-0.9707031v-0.5097656
			c0-0.8349609-0.1816406-1.5146484-0.5439453-2.0380859s-0.8212891-0.7841797-1.3769531-0.7841797
			c-0.5595703,0-1.0097656,0.2138672-1.3496094,0.6435547c-0.3398438,0.4287109-0.5097656,0.9941406-0.5097656,1.6972656
			c0,0.6835938,0.1640625,1.2470703,0.4931641,1.6894531C225.7695312,35.4926758,226.2089844,35.7143555,226.7597656,35.7143555z"/>
		<path class="st2" d="M231.9160156,39.4521484c0-0.2197266,0.0654297-0.4033203,0.1962891-0.5507812
			c0.1308594-0.1464844,0.3271484-0.2207031,0.5888672-0.2207031s0.4599609,0.0742188,0.5957031,0.2207031
			C233.4326172,39.0488281,233.5,39.2324219,233.5,39.4521484c0,0.2109375-0.0673828,0.3876953-0.203125,0.5302734
			s-0.3339844,0.2138672-0.5957031,0.2138672s-0.4580078-0.0712891-0.5888672-0.2138672
			S231.9160156,39.6630859,231.9160156,39.4521484z"/>
		<path class="st2" d="M241.7548828,35.8452148c0,1.4907227-0.2548828,2.5991211-0.7636719,3.324707
			c-0.5097656,0.7255859-1.3066406,1.0878906-2.3896484,1.0878906c-1.0693359,0-1.8613281-0.3544922-2.375-1.0634766
			c-0.5146484-0.7089844-0.7802734-1.7685547-0.7988281-3.1777344v-1.699707c0-1.4736328,0.2548828-2.5683594,0.7646484-3.2841797
			c0.5087891-0.7167969,1.3076172-1.0742188,2.3955078-1.0742188c1.0791016,0,1.8730469,0.3447266,2.3828125,1.0361328
			c0.5087891,0.6904297,0.7705078,1.7568359,0.7841797,3.1982422V35.8452148z M240.4814453,34.1030273
			c0-1.078125-0.1513672-1.8642578-0.4541016-2.3583984c-0.3037109-0.4931641-0.7832031-0.7402344-1.4394531-0.7402344
			c-0.6513672,0-1.1269531,0.2460938-1.4248047,0.7373047c-0.2988281,0.4912109-0.4521484,1.2460938-0.4619141,2.2646484v2.0375977
			c0,1.0839844,0.1572266,1.8828125,0.4716797,2.3994141s0.7910156,0.7744141,1.4287109,0.7744141
			c0.6289062,0,1.0957031-0.2431641,1.4013672-0.7294922c0.3046875-0.4863281,0.4648438-1.2529297,0.4785156-2.2998047V34.1030273z"
			/>
		<path class="st2" d="M249.6728516,35.8452148c0,1.4907227-0.2548828,2.5991211-0.7646484,3.324707
			s-1.3056641,1.0878906-2.3886719,1.0878906c-1.0693359,0-1.8613281-0.3544922-2.3759766-1.0634766
			c-0.5136719-0.7089844-0.7802734-1.7685547-0.7978516-3.1777344v-1.699707c0-1.4736328,0.2539062-2.5683594,0.7636719-3.2841797
			c0.5097656-0.7167969,1.3085938-1.0742188,2.3964844-1.0742188c1.078125,0,1.8720703,0.3447266,2.3818359,1.0361328
			c0.5097656,0.6904297,0.7714844,1.7568359,0.7851562,3.1982422V35.8452148z M248.3984375,34.1030273
			c0-1.078125-0.1513672-1.8642578-0.4541016-2.3583984c-0.3027344-0.4931641-0.7822266-0.7402344-1.4384766-0.7402344
			c-0.6523438,0-1.1269531,0.2460938-1.4257812,0.7373047c-0.2978516,0.4912109-0.4521484,1.2460938-0.4609375,2.2646484v2.0375977
			c0,1.0839844,0.1572266,1.8828125,0.4716797,2.3994141s0.7900391,0.7744141,1.4287109,0.7744141
			c0.6289062,0,1.0957031-0.2431641,1.4003906-0.7294922c0.3056641-0.4863281,0.4648438-1.2529297,0.4785156-2.2998047V34.1030273z"
			/>
		<path class="st2" d="M254.375,36.1201172c0,1.0234375-0.1337891,2.0048828-0.4023438,2.9433594
			s-0.6796875,1.8046875-1.2324219,2.5986328c-0.5537109,0.7939453-1.1328125,1.3583984-1.7382812,1.6943359l-0.2685547-0.7783203
			c0.7060547-0.5419922,1.2744141-1.3828125,1.7041016-2.5234375c0.4287109-1.140625,0.6474609-2.40625,0.6572266-3.796875
			v-0.2207031c0-0.9633789-0.1015625-1.8598633-0.3027344-2.6879883c-0.2021484-0.828125-0.4833984-1.5712891-0.84375-2.2275391
			s-0.765625-1.1679688-1.2148438-1.5351562l0.2685547-0.7783203c0.6054688,0.3359375,1.1826172,0.8955078,1.7314453,1.6806641
			c0.5478516,0.7841797,0.9589844,1.6494141,1.2324219,2.5957031C254.2382812,34.0297852,254.375,35.0415039,254.375,36.1201172z"/>
	</g>
	<circle class="st3" cx="165.1000061" cy="29.2999992" r="4.8999958"/>
	<text transform="matrix(1 0 0 1 163.2100983 31.1396027)" class="st4 st5 st6">2</text>
</g>
<g>
	<rect x="282.7999878" y="18.3999996" class="st2" width="135.7999878" height="33.1999969"/>
	<path class="st7" d="M314.8999939,29.3999996c0-0.5-0.3999939-0.7999992-0.7999878-0.7999992h-2.2999878
		c-0.1000061-2.1000004-1.7999878-3.7999992-3.8999939-3.7999992s-3.7999878,1.6000004-3.8999939,3.7999992h-2.2999878
		c-0.5,0-0.7999878,0.2999992-0.7999878,0.7999992l-0.5,14.1000004c0,0.5,0.1000061,1,0.5,1.2999992s0.7999878,0.5,1.2000122,0.5
		h11.7999878c0.5,0,0.8999939-0.2000008,1.2000122-0.5s0.5-0.7999992,0.5-1.2999992L314.8999939,29.3999996z
		 M307.8999939,25.8999996c1.6000061,0,2.7999878,1.2000008,2.8999939,2.7000008H305
		C305,27.1000004,306.2999878,25.8999996,307.8999939,25.8999996z M304,29.7000008v1.7000008c0,0.2999992,0.2000122,0.5,0.5,0.5
		s0.5-0.2000008,0.5-0.5v-1.7000008h5.7999878v1.7000008c0,0.2999992,0.2000122,0.5,0.5,0.5s0.5-0.2000008,0.5-0.5v-1.7000008
		h2.1000061l0.5,13.8999977c0,0.2000008-0.1000061,0.4000015-0.2999878,0.5c-0.1000061,0.0999985-0.2999878,0.2000008-0.5,0.2000008
		H302c-0.2000122,0-0.3999939-0.0999985-0.5-0.2000008c-0.1000061-0.0999985-0.2000122-0.2999992-0.2000122-0.5
		l0.6000061-13.8999996C301.8999939,29.6999989,304,29.6999989,304,29.7000008z"/>
	<g class="st1">
		<path class="st4" d="M331.5625,36.9394531c-0.1240234,1.0605469-0.515625,1.8779297-1.1738281,2.4541016
			s-1.5341797,0.8642578-2.6269531,0.8642578c-1.1835938,0-2.1328125-0.4248047-2.8466797-1.2734375
			c-0.7138672-0.8496094-1.0703125-1.9853516-1.0703125-3.4077148V34.612793c0-0.9316406,0.1660156-1.7509766,0.4990234-2.4580078
			s0.8046875-1.25,1.4150391-1.6289062c0.6103516-0.3779297,1.3173828-0.5673828,2.1201172-0.5673828
			c1.0654297,0,1.9189453,0.296875,2.5615234,0.8916016s1.0166016,1.4169922,1.1220703,2.4677734h-1.3291016
			c-0.1142578-0.8007812-0.3632812-1.3808594-0.7470703-1.7402344c-0.3828125-0.3583984-0.9189453-0.5380859-1.6074219-0.5380859
			c-0.8447266,0-1.5068359,0.3125-1.9863281,0.9365234c-0.4794922,0.625-0.7197266,1.5136719-0.7197266,2.6669922v0.9716797
			c0,1.0883789,0.2275391,1.9545898,0.6816406,2.597168c0.4550781,0.6435547,1.0908203,0.9648438,1.9072266,0.9648438
			c0.734375,0,1.2978516-0.1660156,1.6904297-0.4990234s0.6533203-0.9121094,0.78125-1.7382812H331.5625z"/>
		<path class="st4" d="M337.765625,40.1201172c-0.0732422-0.1464844-0.1328125-0.4082031-0.1787109-0.7851562
			c-0.5917969,0.6152344-1.2988281,0.9228516-2.1201172,0.9228516c-0.734375,0-1.3369141-0.2080078-1.8076172-0.6230469
			s-0.7060547-0.9423828-0.7060547-1.5800781c0-0.7753906,0.2949219-1.3779297,0.8847656-1.8076172
			c0.5898438-0.4282227,1.4199219-0.6430664,2.4892578-0.6430664h1.2392578V35.019043
			c0-0.4453125-0.1328125-0.7998047-0.3994141-1.0644531c-0.2666016-0.2636719-0.6582031-0.3955078-1.1777344-0.3955078
			c-0.4541016,0-0.8349609,0.1152344-1.1425781,0.3447266s-0.4609375,0.5068359-0.4609375,0.8330078h-1.28125
			c0-0.3720703,0.1318359-0.7314453,0.3964844-1.078125c0.2636719-0.3466797,0.6220703-0.6201172,1.0742188-0.8222656
			c0.4511719-0.2021484,0.9482422-0.3027344,1.4902344-0.3027344c0.8583984,0,1.5302734,0.2138672,2.0175781,0.6435547
			c0.4863281,0.4287109,0.7382812,1.0195312,0.7568359,1.7724609v3.4282227c0,0.6845703,0.0869141,1.2285156,0.2617188,1.6318359
			v0.1103516H337.765625z M335.6523438,39.1494141c0.3994141,0,0.7783203-0.1035156,1.1357422-0.3095703
			c0.3583984-0.2070312,0.6171875-0.4755859,0.7783203-0.8056641v-1.5283203h-0.9980469
			c-1.5605469,0-2.3408203,0.4560547-2.3408203,1.3701172c0,0.3994141,0.1328125,0.7109375,0.3984375,0.9355469
			C334.8925781,39.0371094,335.234375,39.1494141,335.6523438,39.1494141z"/>
		<path class="st4" d="M344.4375,33.8139648c-0.1923828-0.0322266-0.4013672-0.0478516-0.6259766-0.0478516
			c-0.8359375,0-1.4023438,0.3554688-1.7011719,1.0664062v5.2875977h-1.2734375v-7.4487305h1.2392578l0.0205078,0.8603516
			c0.4179688-0.6660156,1.0097656-0.9980469,1.7763672-0.9980469c0.2480469,0,0.4355469,0.0322266,0.5644531,0.0957031V33.8139648z"
			/>
		<path class="st4" d="M347.6806641,30.8666992v1.8046875h1.390625v0.984375h-1.390625v4.6245117
			c0,0.2988281,0.0615234,0.5234375,0.1855469,0.6728516s0.3349609,0.2236328,0.6337891,0.2236328
			c0.1464844,0,0.3486328-0.0273438,0.6054688-0.0820312v1.0263672c-0.3349609,0.0908203-0.6601562,0.1367188-0.9775391,0.1367188
			c-0.5693359,0-0.9980469-0.171875-1.2871094-0.5166016c-0.2890625-0.34375-0.4335938-0.8330078-0.4335938-1.4658203v-4.6196289
			h-1.3564453v-0.984375h1.3564453v-1.8046875H347.6806641z"/>
		<path class="st4" d="M354.0009766,36.0507812c0-1.0366211,0.1386719-2.0327148,0.4160156-2.987793
			c0.2783203-0.9541016,0.6923828-1.8212891,1.2431641-2.6025391c0.5507812-0.7802734,1.1220703-1.3310547,1.7148438-1.6523438
			l0.2607422,0.8398438c-0.6699219,0.5146484-1.2197266,1.2998047-1.6484375,2.3554688
			c-0.4296875,1.0556641-0.6640625,2.2373047-0.7060547,3.5458984l-0.0068359,0.5844727
			c0,1.7714844,0.3242188,3.3095703,0.9707031,4.6132812c0.390625,0.7802734,0.8544922,1.390625,1.390625,1.8310547
			L357.375,43.3564453c-0.6113281-0.3398438-1.1943359-0.9091797-1.7490234-1.7080078
			C354.5419922,40.0878906,354.0009766,38.2226562,354.0009766,36.0507812z"/>
		<path class="st4" d="M363.7988281,37.5380859c0-0.421875-0.1484375-0.7783203-0.4443359-1.0673828
			s-0.7949219-0.550293-1.4970703-0.7836914c-0.9785156-0.2988281-1.6904297-0.6875-2.1376953-1.1669922
			c-0.4482422-0.4804688-0.671875-1.0888672-0.671875-1.828125c0-0.7529297,0.21875-1.3701172,0.6572266-1.8525391
			c0.4384766-0.4814453,1.0410156-0.7685547,1.8076172-0.8603516v-1.5078125h1.0263672v1.5146484
			c0.7705078,0.1054688,1.3710938,0.4296875,1.7998047,0.9707031c0.4296875,0.5419922,0.6435547,1.2832031,0.6435547,2.2236328
			h-1.2666016c0-0.6494141-0.1533203-1.1650391-0.4609375-1.546875s-0.7226562-0.5732422-1.2460938-0.5732422
			c-0.546875,0-0.9638672,0.1416016-1.2529297,0.4238281c-0.2900391,0.2832031-0.4345703,0.6777344-0.4345703,1.1826172
			c0,0.4697266,0.1533203,0.8427734,0.4580078,1.1210938c0.3056641,0.2783203,0.8076172,0.53125,1.5078125,0.7587891
			s1.2460938,0.4785156,1.6386719,0.7509766c0.3925781,0.2734375,0.6816406,0.5908203,0.8681641,0.9536133
			c0.1855469,0.3623047,0.2783203,0.7871094,0.2783203,1.2734375c0,0.7753906-0.2324219,1.4003906-0.6982422,1.8730469
			c-0.4667969,0.4726562-1.1191406,0.7529297-1.9589844,0.8398438v1.3144531h-1.0195312v-1.3144531
			c-0.8535156-0.078125-1.5224609-0.3818359-2.0068359-0.9121094s-0.7265625-1.25-0.7265625-2.1591797h1.2744141
			c0,0.6386719,0.1669922,1.1298828,0.5019531,1.4736328c0.3349609,0.3447266,0.8105469,0.5166016,1.4257812,0.5166016
			c0.6005859,0,1.0742188-0.1445312,1.4179688-0.4335938C363.6269531,38.4335938,363.7988281,38.0380859,363.7988281,37.5380859z"/>
		<path class="st4" d="M367.2412109,35.0942383L367.75,30.0961914h5.1367188v1.1767578h-4.0556641l-0.3027344,2.7333984
			c0.4912109-0.2890625,1.0488281-0.4335938,1.6728516-0.4335938c0.9140625,0,1.6386719,0.3017578,2.1757812,0.9052734
			s0.8056641,1.4199219,0.8056641,2.4477539c0,1.0322266-0.2792969,1.8457031-0.8369141,2.4404297
			s-1.3369141,0.8916016-2.3369141,0.8916016c-0.8857422,0-1.609375-0.2451172-2.1689453-0.7363281
			c-0.5605469-0.4912109-0.8789062-1.1708984-0.9570312-2.0380859h1.2050781
			c0.078125,0.5732422,0.2822266,1.0058594,0.6123047,1.2978516c0.3310547,0.2910156,0.7666016,0.4365234,1.3085938,0.4365234
			c0.5917969,0,1.0566406-0.2011719,1.3945312-0.6054688c0.3369141-0.4042969,0.5058594-0.9619141,0.5058594-1.6728516
			c0-0.6699219-0.1826172-1.2084961-0.5478516-1.6147461c-0.3642578-0.40625-0.8496094-0.6083984-1.4560547-0.6083984
			c-0.5556641,0-0.9912109,0.1210938-1.3076172,0.3642578l-0.3378906,0.2753906L367.2412109,35.0942383z"/>
		<path class="st4" d="M379.4550781,35.7143555c-0.2666016,0.315918-0.5839844,0.5708008-0.953125,0.7631836
			c-0.3701172,0.1933594-0.7753906,0.2900391-1.2158203,0.2900391c-0.578125,0-1.0820312-0.1425781-1.5107422-0.4277344
			c-0.4296875-0.2841797-0.7607422-0.684082-0.9951172-1.2006836s-0.3515625-1.0869141-0.3515625-1.7109375
			c0-0.6699219,0.1279297-1.2734375,0.3828125-1.8105469c0.2539062-0.5371094,0.6162109-0.9482422,1.0839844-1.2324219
			s1.0146484-0.4267578,1.6386719-0.4267578c0.9912109,0,1.7724609,0.3701172,2.3447266,1.1113281
			c0.5712891,0.7421875,0.8564453,1.7529297,0.8564453,3.0332031v0.3720703c0,1.949707-0.3847656,3.3745117-1.15625,4.2709961
			c-0.7714844,0.8974609-1.9345703,1.3583984-3.4912109,1.3808594h-0.2470703v-1.0810547h0.2685547
			c1.0507812-0.0185547,1.8583984-0.2919922,2.4228516-0.8212891
			C379.0966797,37.6962891,379.4042969,36.8583984,379.4550781,35.7143555z M377.4931641,35.7143555
			c0.4267578,0,0.8203125-0.1308594,1.1806641-0.3925781s0.6230469-0.5849609,0.7880859-0.9707031v-0.5097656
			c0-0.8349609-0.1816406-1.5146484-0.5439453-2.0380859s-0.8212891-0.7841797-1.3769531-0.7841797
			c-0.5595703,0-1.0097656,0.2138672-1.3496094,0.6435547c-0.3398438,0.4287109-0.5097656,0.9941406-0.5097656,1.6972656
			c0,0.6835938,0.1640625,1.2470703,0.4931641,1.6894531C376.5029297,35.4926758,376.9423828,35.7143555,377.4931641,35.7143555z"/>
		<path class="st4" d="M382.6494141,39.4521484c0-0.2197266,0.0654297-0.4033203,0.1962891-0.5507812
			c0.1308594-0.1464844,0.3271484-0.2207031,0.5888672-0.2207031s0.4599609,0.0742188,0.5957031,0.2207031
			c0.1357422,0.1474609,0.203125,0.3310547,0.203125,0.5507812c0,0.2109375-0.0673828,0.3876953-0.203125,0.5302734
			s-0.3339844,0.2138672-0.5957031,0.2138672s-0.4580078-0.0712891-0.5888672-0.2138672
			S382.6494141,39.6630859,382.6494141,39.4521484z"/>
		<path class="st4" d="M392.4882812,35.8452148c0,1.4907227-0.2548828,2.5991211-0.7636719,3.324707
			c-0.5097656,0.7255859-1.3066406,1.0878906-2.3896484,1.0878906c-1.0693359,0-1.8613281-0.3544922-2.375-1.0634766
			c-0.5146484-0.7089844-0.7802734-1.7685547-0.7988281-3.1777344v-1.699707c0-1.4736328,0.2548828-2.5683594,0.7646484-3.2841797
			c0.5087891-0.7167969,1.3076172-1.0742188,2.3955078-1.0742188c1.0791016,0,1.8730469,0.3447266,2.3828125,1.0361328
			c0.5087891,0.6904297,0.7705078,1.7568359,0.7841797,3.1982422V35.8452148z M391.2148438,34.1030273
			c0-1.078125-0.1513672-1.8642578-0.4541016-2.3583984c-0.3037109-0.4931641-0.7832031-0.7402344-1.4394531-0.7402344
			c-0.6513672,0-1.1269531,0.2460938-1.4248047,0.7373047c-0.2988281,0.4912109-0.4521484,1.2460938-0.4619141,2.2646484v2.0375977
			c0,1.0839844,0.1572266,1.8828125,0.4716797,2.3994141s0.7910156,0.7744141,1.4287109,0.7744141
			c0.6289062,0,1.0957031-0.2431641,1.4013672-0.7294922c0.3046875-0.4863281,0.4648438-1.2529297,0.4785156-2.2998047V34.1030273z"
			/>
		<path class="st4" d="M400.40625,35.8452148c0,1.4907227-0.2548828,2.5991211-0.7646484,3.324707
			s-1.3056641,1.0878906-2.3886719,1.0878906c-1.0693359,0-1.8613281-0.3544922-2.3759766-1.0634766
			c-0.5136719-0.7089844-0.7802734-1.7685547-0.7978516-3.1777344v-1.699707c0-1.4736328,0.2539062-2.5683594,0.7636719-3.2841797
			c0.5097656-0.7167969,1.3085938-1.0742188,2.3964844-1.0742188c1.078125,0,1.8720703,0.3447266,2.3818359,1.0361328
			c0.5097656,0.6904297,0.7714844,1.7568359,0.7851562,3.1982422V35.8452148z M399.1318359,34.1030273
			c0-1.078125-0.1513672-1.8642578-0.4541016-2.3583984c-0.3027344-0.4931641-0.7822266-0.7402344-1.4384766-0.7402344
			c-0.6523438,0-1.1269531,0.2460938-1.4257812,0.7373047c-0.2978516,0.4912109-0.4521484,1.2460938-0.4609375,2.2646484v2.0375977
			c0,1.0839844,0.1572266,1.8828125,0.4716797,2.3994141s0.7900391,0.7744141,1.4287109,0.7744141
			c0.6289062,0,1.0957031-0.2431641,1.4003906-0.7294922c0.3056641-0.4863281,0.4648438-1.2529297,0.4785156-2.2998047V34.1030273z"
			/>
		<path class="st4" d="M405.1083984,36.1201172c0,1.0234375-0.1337891,2.0048828-0.4023438,2.9433594
			s-0.6796875,1.8046875-1.2324219,2.5986328c-0.5537109,0.7939453-1.1328125,1.3583984-1.7382812,1.6943359l-0.2685547-0.7783203
			c0.7060547-0.5419922,1.2744141-1.3828125,1.7041016-2.5234375c0.4287109-1.140625,0.6474609-2.40625,0.6572266-3.796875
			v-0.2207031c0-0.9633789-0.1015625-1.8598633-0.3027344-2.6879883c-0.2021484-0.828125-0.4833984-1.5712891-0.84375-2.2275391
			s-0.765625-1.1679688-1.2148438-1.5351562l0.2685547-0.7783203c0.6054688,0.3359375,1.1826172,0.8955078,1.7314453,1.6806641
			c0.5478516,0.7841797,0.9589844,1.6494141,1.2324219,2.5957031
			C404.9716797,34.0297852,405.1083984,35.0415039,405.1083984,36.1201172z"/>
	</g>
	<circle class="st4" cx="315.7999878" cy="29.2999992" r="4.8999958"/>
	<g class="st1">
		<path class="st2" d="M317.359375,31.1396484h-3.03125v-0.4228516l1.6015625-1.7792969
			c0.2373047-0.2685547,0.4013672-0.4882812,0.4912109-0.65625s0.1347656-0.3427734,0.1347656-0.5224609
			c0-0.2421875-0.0732422-0.4394531-0.21875-0.5947266c-0.1464844-0.1542969-0.3417969-0.2314453-0.5849609-0.2314453
			c-0.2929688,0-0.5195312,0.0830078-0.6816406,0.2490234s-0.2431641,0.3974609-0.2431641,0.6943359h-0.5878906
			c0-0.4257812,0.1367188-0.7695312,0.4111328-1.0322266s0.6416016-0.3945312,1.1015625-0.3945312
			c0.4296875,0,0.7695312,0.1132812,1.0195312,0.3388672s0.375,0.5253906,0.375,0.9003906
			c0,0.4560547-0.2900391,0.9980469-0.8701172,1.6269531l-1.2392578,1.3447266h2.3222656V31.1396484z"/>
	</g>
</g>
</svg>
