<?xml version="1.0" encoding="utf-8"?>
<!-- Generator: Adobe Illustrator 21.0.0, SVG Export Plug-In . SVG Version: 6.00 Build 0)  -->
<svg version="1.1" id="Layer_1" xmlns="http://www.w3.org/2000/svg" width="430" height="80" xmlns:xlink="http://www.w3.org/1999/xlink" x="0px" y="0px"
	 viewBox="0 0 430 70" style="enable-background:new 0 0 430 70;" xml:space="preserve">
<style type="text/css">
	.st0{fill:#222222;stroke:#222222;stroke-width:0.2;stroke-miterlimit:10;}
	.st1{enable-background:new    ;}
	.st2{fill:#222222;}
	.st3{fill:#43A047;}
	.st4{fill:#FFFFFF;}
	.st5{font-family:'Roboto-Regular';}
	.st6{font-size:6.5079999px;}
	.st7{fill:none;stroke:#222222;stroke-width:1.2;stroke-miterlimit:10;}
	.st8{fill:#FFFFFF;stroke:#FFFFFF;stroke-width:0.2;stroke-miterlimit:10;}
</style>
<g>
	<path class="st0" d="M59.9000015,19.3999996c0-0.5-0.4000015-0.7999992-0.7999992-0.7999992h-2.2999992
		C56.7000046,16.5,55.0000038,14.8000002,52.9000015,14.8000002c-2.0999985,0-3.7999992,1.5999994-3.9000015,3.8000002h-2.2999992
		c-0.5,0-0.7999992,0.2999992-0.7999992,0.7999992l-0.5,14.1000004c0,0.5,0.0999985,1,0.5,1.2999992s0.7999992,0.5,1.2000008,0.5
		h11.7999992c0.5,0,0.9000015-0.2000008,1.2000008-0.5s0.5-0.7999992,0.5-1.2999992L59.9000015,19.3999996z M52.7999992,15.8999996
		c1.5999985,0,2.7999992,1.2000008,2.9000015,2.7000008h-5.7999992C50,17.1000004,51.2000008,15.8999996,52.7999992,15.8999996z
		 M48.9000015,19.7000008v1.7000008c0,0.2999992,0.2000008,0.5,0.5,0.5s0.5-0.2000008,0.5-0.5v-1.7000008h5.7999992v1.7000008
		c0,0.2999992,0.2000008,0.5,0.5,0.5s0.5-0.2000008,0.5-0.5v-1.7000008H59l0.5,13.8999977
		c0,0.2000008-0.0999985,0.4000015-0.2999992,0.5c-0.0999985,0.0999985-0.2999992,0.2000008-0.5,0.2000008H46.9000015
		c-0.2000008,0-0.4000015-0.0999985-0.5-0.2000008c-0.0999985-0.0999985-0.2000008-0.2999992-0.2000008-0.5l0.5999985-13.8999996
		C46.7999992,19.6999989,48.9000015,19.6999989,48.9000015,19.7000008z"/>
	<g class="st1">
		<path class="st2" d="M19.7045898,48.2685547c-0.1240234,1.0605469-0.515625,1.8779297-1.1738281,2.4541016
			c-0.6586914,0.5761719-1.534668,0.8642578-2.6269531,0.8642578c-1.184082,0-2.1333008-0.4248047-2.8466797-1.2734375
			c-0.7138672-0.8496094-1.0708008-1.9853516-1.0708008-3.4082031v-0.9638672c0-0.9316406,0.1665039-1.7509766,0.4990234-2.4580078
			c0.3330078-0.7070312,0.8046875-1.25,1.4150391-1.6289062c0.6103516-0.3779297,1.3173828-0.5673828,2.1206055-0.5673828
			c1.0649414,0,1.918457,0.296875,2.5610352,0.8916016s1.0166016,1.4169922,1.1225586,2.4677734h-1.3291016
			c-0.1147461-0.8007812-0.3637695-1.3808594-0.7470703-1.7402344c-0.3833008-0.3583984-0.9189453-0.5380859-1.6074219-0.5380859
			c-0.8447266,0-1.5068359,0.3125-1.9863281,0.9365234c-0.4799805,0.625-0.7197266,1.5136719-0.7197266,2.6669922v0.9716797
			c0,1.0888672,0.2275391,1.9550781,0.6816406,2.5976562c0.4545898,0.6435547,1.090332,0.9648438,1.9072266,0.9648438
			c0.734375,0,1.2978516-0.1660156,1.6904297-0.4990234s0.652832-0.9121094,0.78125-1.7382812H19.7045898z"/>
		<path class="st2" d="M25.9077148,51.4492188c-0.0732422-0.1464844-0.1328125-0.4082031-0.1787109-0.7851562
			c-0.5922852,0.6152344-1.2993164,0.9228516-2.1206055,0.9228516c-0.734375,0-1.3369141-0.2080078-1.8076172-0.6230469
			c-0.4702148-0.4150391-0.7055664-0.9423828-0.7055664-1.5800781c0-0.7753906,0.2949219-1.3779297,0.8847656-1.8076172
			c0.5898438-0.4287109,1.4194336-0.6435547,2.4887695-0.6435547h1.2392578v-0.5849609
			c0-0.4453125-0.1328125-0.7998047-0.3989258-1.0644531c-0.2666016-0.2636719-0.6586914-0.3955078-1.1777344-0.3955078
			c-0.4541016,0-0.8354492,0.1152344-1.1425781,0.3447266c-0.3076172,0.2294922-0.4614258,0.5068359-0.4614258,0.8330078H21.246582
			c0-0.3720703,0.1318359-0.7314453,0.3959961-1.078125c0.2636719-0.3466797,0.6220703-0.6201172,1.0742188-0.8222656
			c0.4516602-0.2021484,0.9487305-0.3027344,1.4902344-0.3027344c0.8583984,0,1.5307617,0.2138672,2.0175781,0.6435547
			c0.4863281,0.4287109,0.7387695,1.0195312,0.7573242,1.7724609v3.4287109c0,0.6845703,0.0869141,1.2285156,0.2617188,1.6318359
			v0.1103516H25.9077148z M23.7939453,50.4785156c0.3994141,0,0.7783203-0.1035156,1.1362305-0.3095703
			c0.3579102-0.2070312,0.6171875-0.4755859,0.777832-0.8056641v-1.5283203h-0.9980469
			c-1.5605469,0-2.3408203,0.4560547-2.3408203,1.3701172c0,0.3994141,0.1328125,0.7109375,0.3989258,0.9355469
			C23.0341797,50.3662109,23.3764648,50.4785156,23.7939453,50.4785156z"/>
		<path class="st2" d="M32.5795898,45.1425781c-0.1928711-0.0322266-0.4018555-0.0478516-0.6264648-0.0478516
			c-0.8354492,0-1.4023438,0.3554688-1.7006836,1.0664062v5.2880859h-1.2739258V44h1.2392578l0.0205078,0.8603516
			c0.4179688-0.6660156,1.0097656-0.9980469,1.7763672-0.9980469c0.2480469,0,0.4360352,0.0322266,0.5649414,0.0957031V45.1425781z"
			/>
		<path class="st2" d="M35.8222656,42.1953125V44h1.3911133v0.984375h-1.3911133v4.625
			c0,0.2988281,0.0620117,0.5234375,0.1860352,0.6728516s0.3349609,0.2236328,0.6333008,0.2236328
			c0.1469727,0,0.3491211-0.0273438,0.605957-0.0820312v1.0263672c-0.3349609,0.0908203-0.6606445,0.1367188-0.9775391,0.1367188
			c-0.5693359,0-0.9985352-0.171875-1.2875977-0.5166016c-0.2890625-0.34375-0.4335938-0.8330078-0.4335938-1.4658203V44.984375
			h-1.3564453V44h1.3564453v-1.8046875H35.8222656z"/>
		<path class="st2" d="M42.1425781,47.3798828c0-1.0371094,0.1391602-2.0332031,0.4165039-2.9882812
			c0.277832-0.9541016,0.6923828-1.8212891,1.2431641-2.6025391c0.5507812-0.7802734,1.1220703-1.3310547,1.7143555-1.6523438
			l0.2612305,0.8398438c-0.6699219,0.5146484-1.2197266,1.2998047-1.6489258,2.3554688s-0.6640625,2.2373047-0.7055664,3.5458984
			l-0.0068359,0.5849609c0,1.7714844,0.3237305,3.3095703,0.9707031,4.6132812
			c0.3901367,0.7802734,0.8540039,1.390625,1.390625,1.8310547l-0.2612305,0.7783203
			c-0.6108398-0.3398438-1.1938477-0.9091797-1.7490234-1.7080078
			C42.684082,51.4169922,42.1425781,49.5517578,42.1425781,47.3798828z"/>
		<path class="st2" d="M51.9404297,48.8671875c0-0.421875-0.1479492-0.7783203-0.4438477-1.0673828
			c-0.2963867-0.2890625-0.7954102-0.5507812-1.4975586-0.7841797c-0.9780273-0.2988281-1.6904297-0.6875-2.1376953-1.1669922
			c-0.4477539-0.4804688-0.6713867-1.0888672-0.6713867-1.828125c0-0.7529297,0.21875-1.3701172,0.6572266-1.8525391
			c0.4384766-0.4814453,1.0410156-0.7685547,1.8076172-0.8603516v-1.5078125h1.0258789v1.5146484
			c0.7709961,0.1054688,1.3710938,0.4296875,1.800293,0.9707031c0.4291992,0.5419922,0.6435547,1.2832031,0.6435547,2.2236328
			h-1.2666016c0-0.6494141-0.1538086-1.1650391-0.4614258-1.546875s-0.7226562-0.5732422-1.2460938-0.5732422
			c-0.5463867,0-0.9638672,0.1416016-1.2529297,0.4238281c-0.2895508,0.2832031-0.434082,0.6777344-0.434082,1.1826172
			c0,0.4697266,0.152832,0.8427734,0.4580078,1.1210938s0.8076172,0.53125,1.5078125,0.7587891
			c0.699707,0.2275391,1.2460938,0.4785156,1.6386719,0.7509766c0.3925781,0.2734375,0.6816406,0.5908203,0.8676758,0.9541016
			c0.1855469,0.3623047,0.2788086,0.7871094,0.2788086,1.2734375c0,0.7753906-0.2329102,1.4003906-0.6987305,1.8730469
			c-0.4663086,0.4726562-1.1191406,0.7529297-1.9589844,0.8398438v1.3144531h-1.019043v-1.3144531
			c-0.8535156-0.078125-1.5229492-0.3818359-2.0068359-0.9121094c-0.484375-0.5302734-0.7265625-1.25-0.7265625-2.1591797h1.2739258
			c0,0.6386719,0.1674805,1.1298828,0.5024414,1.4736328c0.3349609,0.3447266,0.8100586,0.5166016,1.425293,0.5166016
			c0.6010742,0,1.0742188-0.1445312,1.418457-0.4335938S51.9404297,49.3671875,51.9404297,48.8671875z"/>
		<path class="st2" d="M55.3828125,46.4228516l0.5092773-4.9980469h5.1362305v1.1767578h-4.0551758l-0.3027344,2.7333984
			c0.4907227-0.2890625,1.0483398-0.4335938,1.6728516-0.4335938c0.9135742,0,1.6386719,0.3017578,2.1757812,0.9052734
			s0.8056641,1.4199219,0.8056641,2.4482422c0,1.0322266-0.2792969,1.8457031-0.8369141,2.4404297
			s-1.3369141,0.8916016-2.3374023,0.8916016c-0.8857422,0-1.6088867-0.2451172-2.1689453-0.7363281
			s-0.8789062-1.1708984-0.9570312-2.0380859h1.2050781c0.078125,0.5732422,0.2822266,1.0058594,0.612793,1.2978516
			c0.3305664,0.2910156,0.7666016,0.4365234,1.3081055,0.4365234c0.5922852,0,1.0571289-0.2011719,1.3945312-0.6054688
			c0.3369141-0.4042969,0.5058594-0.9619141,0.5058594-1.6728516c0-0.6699219-0.1826172-1.2089844-0.5473633-1.6152344
			s-0.8500977-0.6083984-1.4560547-0.6083984c-0.5556641,0-0.9916992,0.1210938-1.3081055,0.3642578l-0.3374023,0.2753906
			L55.3828125,46.4228516z"/>
		<path class="st2" d="M67.5966797,47.0429688c-0.2661133,0.3164062-0.5839844,0.5712891-0.953125,0.7636719
			C66.2739258,48,65.8686523,48.0966797,65.4282227,48.0966797c-0.5786133,0-1.0820312-0.1425781-1.5112305-0.4277344
			c-0.4291992-0.2841797-0.7607422-0.6845703-0.9951172-1.2011719c-0.2338867-0.5166016-0.3510742-1.0869141-0.3510742-1.7109375
			c0-0.6699219,0.1274414-1.2734375,0.3823242-1.8105469c0.2543945-0.5371094,0.6162109-0.9482422,1.0839844-1.2324219
			c0.4682617-0.2841797,1.0146484-0.4267578,1.6386719-0.4267578c0.9916992,0,1.7729492,0.3701172,2.3447266,1.1113281
			c0.5712891,0.7421875,0.8569336,1.7529297,0.8569336,3.0332031v0.3720703c0,1.9501953-0.3852539,3.375-1.1567383,4.2714844
			c-0.7709961,0.8974609-1.9345703,1.3583984-3.4907227,1.3808594h-0.2475586V50.375h0.2685547
			c1.0507812-0.0185547,1.8588867-0.2919922,2.4233398-0.8212891C67.2387695,49.0253906,67.5463867,48.1875,67.5966797,47.0429688z
			 M65.6347656,47.0429688c0.4267578,0,0.8203125-0.1308594,1.1806641-0.3925781s0.6230469-0.5849609,0.7885742-0.9707031
			v-0.5097656c0-0.8349609-0.1816406-1.5146484-0.5439453-2.0380859c-0.362793-0.5234375-0.8217773-0.7841797-1.3769531-0.7841797
			c-0.5600586,0-1.0102539,0.2138672-1.3496094,0.6435547c-0.3398438,0.4287109-0.5097656,0.9941406-0.5097656,1.6972656
			c0,0.6835938,0.1640625,1.2470703,0.4926758,1.6894531C64.6445312,46.8212891,65.0839844,47.0429688,65.6347656,47.0429688z"/>
		<path class="st2" d="M70.7915039,50.78125c0-0.2197266,0.0654297-0.4033203,0.1962891-0.5507812
			c0.1308594-0.1464844,0.3271484-0.2207031,0.5888672-0.2207031s0.4599609,0.0742188,0.5957031,0.2207031
			c0.1352539,0.1474609,0.203125,0.3310547,0.203125,0.5507812c0,0.2109375-0.0678711,0.3876953-0.203125,0.5302734
			c-0.1357422,0.1425781-0.3339844,0.2138672-0.5957031,0.2138672s-0.4580078-0.0712891-0.5888672-0.2138672
			S70.7915039,50.9921875,70.7915039,50.78125z"/>
		<path class="st2" d="M80.6303711,47.1738281c0,1.4912109-0.2548828,2.5996094-0.7641602,3.3251953
			c-0.5097656,0.7255859-1.3061523,1.0878906-2.3891602,1.0878906c-1.0693359,0-1.8613281-0.3544922-2.3754883-1.0634766
			s-0.7802734-1.7685547-0.7983398-3.1777344v-1.7001953c0-1.4736328,0.2543945-2.5683594,0.7641602-3.2841797
			c0.5092773-0.7167969,1.3081055-1.0742188,2.3959961-1.0742188c1.0786133,0,1.8725586,0.3447266,2.3823242,1.0361328
			c0.5092773,0.6904297,0.7709961,1.7568359,0.784668,3.1982422V47.1738281z M79.3564453,45.4316406
			c0-1.078125-0.1513672-1.8642578-0.4541016-2.3583984c-0.3032227-0.4931641-0.7827148-0.7402344-1.4389648-0.7402344
			c-0.6518555,0-1.1269531,0.2460938-1.425293,0.7373047s-0.4521484,1.2460938-0.4614258,2.2646484v2.0380859
			c0,1.0839844,0.1572266,1.8828125,0.4716797,2.3994141s0.7905273,0.7744141,1.4287109,0.7744141
			c0.6289062,0,1.0957031-0.2431641,1.4008789-0.7294922s0.4648438-1.2529297,0.4785156-2.2998047V45.4316406z"/>
		<path class="st2" d="M88.5478516,47.1738281c0,1.4912109-0.2548828,2.5996094-0.7641602,3.3251953
			c-0.5097656,0.7255859-1.3061523,1.0878906-2.3891602,1.0878906c-1.0693359,0-1.8613281-0.3544922-2.3754883-1.0634766
			s-0.7802734-1.7685547-0.7983398-3.1777344v-1.7001953c0-1.4736328,0.2543945-2.5683594,0.7641602-3.2841797
			c0.5092773-0.7167969,1.3081055-1.0742188,2.3959961-1.0742188c1.0786133,0,1.8725586,0.3447266,2.3823242,1.0361328
			c0.5092773,0.6904297,0.7709961,1.7568359,0.784668,3.1982422V47.1738281z M87.2739258,45.4316406
			c0-1.078125-0.1513672-1.8642578-0.4541016-2.3583984c-0.3032227-0.4931641-0.7827148-0.7402344-1.4389648-0.7402344
			c-0.6518555,0-1.1269531,0.2460938-1.425293,0.7373047s-0.4521484,1.2460938-0.4614258,2.2646484v2.0380859
			c0,1.0839844,0.1572266,1.8828125,0.4716797,2.3994141s0.7905273,0.7744141,1.4287109,0.7744141
			c0.6289062,0,1.0957031-0.2431641,1.4008789-0.7294922s0.4648438-1.2529297,0.4785156-2.2998047V45.4316406z"/>
		<path class="st2" d="M93.2504883,47.4492188c0,1.0234375-0.1342773,2.0048828-0.402832,2.9433594
			s-0.6791992,1.8046875-1.2324219,2.5986328s-1.1323242,1.3583984-1.7382812,1.6943359l-0.2685547-0.7783203
			c0.706543-0.5419922,1.2749023-1.3828125,1.7041016-2.5234375s0.6479492-2.40625,0.6572266-3.796875v-0.2207031
			c0-0.9638672-0.1010742-1.8603516-0.3027344-2.6884766c-0.2021484-0.828125-0.4833984-1.5712891-0.8432617-2.2275391
			c-0.3603516-0.65625-0.765625-1.1679688-1.215332-1.5351562l0.2685547-0.7783203
			c0.605957,0.3359375,1.1831055,0.8955078,1.7314453,1.6806641c0.5483398,0.7841797,0.9594727,1.6494141,1.2324219,2.5957031
			C93.1137695,45.3583984,93.2504883,46.3701172,93.2504883,47.4492188z"/>
	</g>
	<circle class="st3" cx="60.7999992" cy="19.6000004" r="4.8999996"/>
	<text transform="matrix(1 0 0 1 58.9515991 21.4685974)" class="st4 st5 st6">2</text>
</g>
<g>
	<path class="st7" d="M229.5,62h-81.8000031c-14.8999939,0-27-12.0999985-27-27l0,0c0-14.8999996,12.1000061-27,27-27H229.5
		c14.8999939,0,27,12.1000004,27,27l0,0C256.5,49.9000015,244.3999939,62,229.5,62z"/>
	<path class="st0" d="M195.6999969,19.3999996c0-0.5-0.3999939-0.7999992-0.8000031-0.7999992h-2.3000031
		c-0.1000061-2.1000004-1.8000031-3.8000002-3.8999939-3.8000002c-2.1000061,0-3.8000031,1.5999994-3.8999939,3.8000002H182.5
		c-0.5,0-0.8000031,0.2999992-0.8000031,0.7999992l-0.5,14.1000004c0,0.5,0.1000061,1,0.5,1.2999992
		c0.3000031,0.2999992,0.8000031,0.5,1.1999969,0.5h11.8000031c0.5,0,0.8999939-0.2000008,1.1999969-0.5
		s0.5-0.7999992,0.5-1.2999992L195.6999969,19.3999996z M188.6999969,15.8999996
		c1.6000061,0,2.8000031,1.2000008,2.8999939,2.7000008h-5.8000031
		C185.8999939,17.1000004,187.1000061,15.8999996,188.6999969,15.8999996z M184.8000031,19.7000008v1.7000008
		c0,0.2999992,0.1999969,0.5,0.5,0.5s0.5-0.2000008,0.5-0.5v-1.7000008h5.8000031v1.7000008c0,0.2999992,0.1999969,0.5,0.5,0.5
		s0.5-0.2000008,0.5-0.5v-1.7000008h2.1000061l0.5,13.8999977c0,0.2000008-0.1000061,0.4000015-0.3000031,0.5
		c-0.1000061,0.0999985-0.3000031,0.2000008-0.5,0.2000008L182.875,34.2000008c-0.1999969,0-0.3999939-0.0999985-0.5-0.2000008
		c-0.1000061-0.0999985-0.1999969-0.2999992-0.1999969-0.5l0.5959778-13.806633
		C182.7709808,19.693367,184.8000031,19.6999989,184.8000031,19.7000008z"/>
	<g class="st1">
		<path class="st2" d="M155.637207,48.2695312c-0.1240234,1.0605469-0.515625,1.8779297-1.1738281,2.4541016
			c-0.6586914,0.5761719-1.534668,0.8642578-2.6269531,0.8642578c-1.184082,0-2.1333008-0.4248047-2.8466797-1.2734375
			c-0.7138672-0.8496094-1.0708008-1.9853516-1.0708008-3.4082031v-0.9638672c0-0.9316406,0.1665039-1.7509766,0.4990234-2.4580078
			c0.3330078-0.7070312,0.8046875-1.25,1.4150391-1.6289062c0.6103516-0.3779297,1.3173828-0.5673828,2.1206055-0.5673828
			c1.0649414,0,1.918457,0.296875,2.5610352,0.8916016s1.0166016,1.4169922,1.1225586,2.4677734h-1.3291016
			c-0.1147461-0.8007812-0.3637695-1.3808594-0.7470703-1.7402344c-0.3833008-0.3583984-0.9189453-0.5380859-1.6074219-0.5380859
			c-0.8447266,0-1.5068359,0.3125-1.9863281,0.9365234c-0.4799805,0.625-0.7197266,1.5136719-0.7197266,2.6669922v0.9716797
			c0,1.0888672,0.2275391,1.9550781,0.6816406,2.5976562c0.4545898,0.6435547,1.090332,0.9648438,1.9072266,0.9648438
			c0.734375,0,1.2978516-0.1660156,1.6904297-0.4990234s0.652832-0.9121094,0.78125-1.7382812H155.637207z"/>
		<path class="st2" d="M161.840332,51.4501953c-0.0732422-0.1464844-0.1328125-0.4082031-0.1787109-0.7851562
			c-0.5922852,0.6152344-1.2993164,0.9228516-2.1206055,0.9228516c-0.734375,0-1.3369141-0.2080078-1.8076172-0.6230469
			c-0.4702148-0.4150391-0.7055664-0.9423828-0.7055664-1.5800781c0-0.7753906,0.2949219-1.3779297,0.8847656-1.8076172
			c0.5898438-0.4287109,1.4194336-0.6435547,2.4887695-0.6435547h1.2392578v-0.5849609
			c0-0.4453125-0.1328125-0.7998047-0.3989258-1.0644531c-0.2666016-0.2636719-0.6586914-0.3955078-1.1777344-0.3955078
			c-0.4541016,0-0.8354492,0.1152344-1.1425781,0.3447266c-0.3076172,0.2294922-0.4614258,0.5068359-0.4614258,0.8330078h-1.2807617
			c0-0.3720703,0.1318359-0.7314453,0.3959961-1.078125c0.2636719-0.3466797,0.6220703-0.6201172,1.0742188-0.8222656
			c0.4516602-0.2021484,0.9487305-0.3027344,1.4902344-0.3027344c0.8583984,0,1.5307617,0.2138672,2.0175781,0.6435547
			c0.4863281,0.4287109,0.7387695,1.0195312,0.7573242,1.7724609v3.4287109c0,0.6845703,0.0869141,1.2285156,0.2617188,1.6318359
			v0.1103516H161.840332z M159.7265625,50.4794922c0.3994141,0,0.7783203-0.1035156,1.1362305-0.3095703
			c0.3579102-0.2070312,0.6171875-0.4755859,0.777832-0.8056641v-1.5283203h-0.9980469
			c-1.5605469,0-2.3408203,0.4560547-2.3408203,1.3701172c0,0.3994141,0.1328125,0.7109375,0.3989258,0.9355469
			C158.9667969,50.3671875,159.309082,50.4794922,159.7265625,50.4794922z"/>
		<path class="st2" d="M168.512207,45.1435547c-0.1928711-0.0322266-0.4018555-0.0478516-0.6264648-0.0478516
			c-0.8354492,0-1.4023438,0.3554688-1.7006836,1.0664062v5.2880859h-1.2739258v-7.4492188h1.2392578l0.0205078,0.8603516
			c0.4179688-0.6660156,1.0097656-0.9980469,1.7763672-0.9980469c0.2480469,0,0.4360352,0.0322266,0.5649414,0.0957031V45.1435547z"
			/>
		<path class="st2" d="M171.7548828,42.1962891v1.8046875h1.3911133v0.984375h-1.3911133v4.625
			c0,0.2988281,0.0620117,0.5234375,0.1860352,0.6728516s0.3349609,0.2236328,0.6333008,0.2236328
			c0.1469727,0,0.3491211-0.0273438,0.605957-0.0820312v1.0263672c-0.3349609,0.0908203-0.6606445,0.1367188-0.9775391,0.1367188
			c-0.5693359,0-0.9985352-0.171875-1.2875977-0.5166016c-0.2890625-0.34375-0.4335938-0.8330078-0.4335938-1.4658203v-4.6201172
			H169.125v-0.984375h1.3564453v-1.8046875H171.7548828z"/>
		<path class="st2" d="M178.0751953,47.3808594c0-1.0371094,0.1391602-2.0332031,0.4165039-2.9882812
			c0.277832-0.9541016,0.6923828-1.8212891,1.2431641-2.6025391c0.5507812-0.7802734,1.1220703-1.3310547,1.7143555-1.6523438
			l0.2612305,0.8398438c-0.6699219,0.5146484-1.2197266,1.2998047-1.6489258,2.3554688s-0.6640625,2.2373047-0.7055664,3.5458984
			l-0.0068359,0.5849609c0,1.7714844,0.3237305,3.3095703,0.9707031,4.6132812
			c0.3901367,0.7802734,0.8540039,1.390625,1.390625,1.8310547l-0.2612305,0.7783203
			c-0.6108398-0.3398438-1.1938477-0.9091797-1.7490234-1.7080078
			C178.6166992,51.4179688,178.0751953,49.5527344,178.0751953,47.3808594z"/>
		<path class="st2" d="M187.8730469,48.8681641c0-0.421875-0.1479492-0.7783203-0.4438477-1.0673828
			c-0.2963867-0.2890625-0.7954102-0.5507812-1.4975586-0.7841797c-0.9780273-0.2988281-1.6904297-0.6875-2.1376953-1.1669922
			c-0.4477539-0.4804688-0.6713867-1.0888672-0.6713867-1.828125c0-0.7529297,0.21875-1.3701172,0.6572266-1.8525391
			c0.4384766-0.4814453,1.0410156-0.7685547,1.8076172-0.8603516v-1.5078125h1.0258789v1.5146484
			c0.7709961,0.1054688,1.3710938,0.4296875,1.800293,0.9707031c0.4291992,0.5419922,0.6435547,1.2832031,0.6435547,2.2236328
			h-1.2666016c0-0.6494141-0.1538086-1.1650391-0.4614258-1.546875s-0.7226562-0.5732422-1.2460938-0.5732422
			c-0.5463867,0-0.9638672,0.1416016-1.2529297,0.4238281c-0.2895508,0.2832031-0.434082,0.6777344-0.434082,1.1826172
			c0,0.4697266,0.152832,0.8427734,0.4580078,1.1210938s0.8076172,0.53125,1.5078125,0.7587891
			c0.699707,0.2275391,1.2460938,0.4785156,1.6386719,0.7509766c0.3925781,0.2734375,0.6816406,0.5908203,0.8676758,0.9541016
			c0.1855469,0.3623047,0.2788086,0.7871094,0.2788086,1.2734375c0,0.7753906-0.2329102,1.4003906-0.6987305,1.8730469
			c-0.4663086,0.4726562-1.1191406,0.7529297-1.9589844,0.8398438v1.3144531h-1.019043v-1.3144531
			c-0.8535156-0.078125-1.5229492-0.3818359-2.0068359-0.9121094c-0.484375-0.5302734-0.7265625-1.25-0.7265625-2.1591797h1.2739258
			c0,0.6386719,0.1674805,1.1298828,0.5024414,1.4736328c0.3349609,0.3447266,0.8100586,0.5166016,1.425293,0.5166016
			c0.6010742,0,1.0742188-0.1445312,1.418457-0.4335938S187.8730469,49.3681641,187.8730469,48.8681641z"/>
		<path class="st2" d="M191.3154297,46.4238281l0.5092773-4.9980469h5.1362305v1.1767578h-4.0551758l-0.3027344,2.7333984
			c0.4907227-0.2890625,1.0483398-0.4335938,1.6728516-0.4335938c0.9135742,0,1.6386719,0.3017578,2.1757812,0.9052734
			s0.8056641,1.4199219,0.8056641,2.4482422c0,1.0322266-0.2792969,1.8457031-0.8369141,2.4404297
			s-1.3369141,0.8916016-2.3374023,0.8916016c-0.8857422,0-1.6088867-0.2451172-2.1689453-0.7363281
			s-0.8789062-1.1708984-0.9570312-2.0380859h1.2050781c0.078125,0.5732422,0.2822266,1.0058594,0.612793,1.2978516
			c0.3305664,0.2910156,0.7666016,0.4365234,1.3081055,0.4365234c0.5922852,0,1.0571289-0.2011719,1.3945312-0.6054688
			c0.3369141-0.4042969,0.5058594-0.9619141,0.5058594-1.6728516c0-0.6699219-0.1826172-1.2089844-0.5473633-1.6152344
			s-0.8500977-0.6083984-1.4560547-0.6083984c-0.5556641,0-0.9916992,0.1210938-1.3081055,0.3642578l-0.3374023,0.2753906
			L191.3154297,46.4238281z"/>
		<path class="st2" d="M203.5292969,47.0439453c-0.2661133,0.3164062-0.5839844,0.5712891-0.953125,0.7636719
			c-0.3696289,0.1933594-0.7749023,0.2900391-1.215332,0.2900391c-0.5786133,0-1.0820312-0.1425781-1.5112305-0.4277344
			c-0.4291992-0.2841797-0.7607422-0.6845703-0.9951172-1.2011719c-0.2338867-0.5166016-0.3510742-1.0869141-0.3510742-1.7109375
			c0-0.6699219,0.1274414-1.2734375,0.3823242-1.8105469c0.2543945-0.5371094,0.6162109-0.9482422,1.0839844-1.2324219
			c0.4682617-0.2841797,1.0146484-0.4267578,1.6386719-0.4267578c0.9916992,0,1.7729492,0.3701172,2.3447266,1.1113281
			c0.5712891,0.7421875,0.8569336,1.7529297,0.8569336,3.0332031v0.3720703c0,1.9501953-0.3852539,3.375-1.1567383,4.2714844
			c-0.7709961,0.8974609-1.9345703,1.3583984-3.4907227,1.3808594h-0.2475586v-1.0810547h0.2685547
			c1.0507812-0.0185547,1.8588867-0.2919922,2.4233398-0.8212891
			C203.1713867,49.0263672,203.4790039,48.1884766,203.5292969,47.0439453z M201.5673828,47.0439453
			c0.4267578,0,0.8203125-0.1308594,1.1806641-0.3925781s0.6230469-0.5849609,0.7885742-0.9707031v-0.5097656
			c0-0.8349609-0.1816406-1.5146484-0.5439453-2.0380859c-0.362793-0.5234375-0.8217773-0.7841797-1.3769531-0.7841797
			c-0.5600586,0-1.0102539,0.2138672-1.3496094,0.6435547c-0.3398438,0.4287109-0.5097656,0.9941406-0.5097656,1.6972656
			c0,0.6835938,0.1640625,1.2470703,0.4926758,1.6894531C200.5771484,46.8222656,201.0166016,47.0439453,201.5673828,47.0439453z"/>
		<path class="st2" d="M206.7241211,50.7822266c0-0.2197266,0.0654297-0.4033203,0.1962891-0.5507812
			c0.1308594-0.1464844,0.3271484-0.2207031,0.5888672-0.2207031s0.4599609,0.0742188,0.5957031,0.2207031
			c0.1352539,0.1474609,0.203125,0.3310547,0.203125,0.5507812c0,0.2109375-0.0678711,0.3876953-0.203125,0.5302734
			c-0.1357422,0.1425781-0.3339844,0.2138672-0.5957031,0.2138672s-0.4580078-0.0712891-0.5888672-0.2138672
			S206.7241211,50.9931641,206.7241211,50.7822266z"/>
		<path class="st2" d="M216.5634766,47.1748047c0,1.4912109-0.2548828,2.5996094-0.7646484,3.3251953
			s-1.3061523,1.0878906-2.3891602,1.0878906c-1.0693359,0-1.8613281-0.3544922-2.3754883-1.0634766
			s-0.7802734-1.7685547-0.7983398-3.1777344v-1.7001953c0-1.4736328,0.2543945-2.5683594,0.7641602-3.2841797
			c0.5092773-0.7167969,1.3081055-1.0742188,2.3959961-1.0742188c1.0786133,0,1.8725586,0.3447266,2.3823242,1.0361328
			c0.5097656,0.6904297,0.7714844,1.7568359,0.7851562,3.1982422V47.1748047z M215.2890625,45.4326172
			c0-1.078125-0.1513672-1.8642578-0.4541016-2.3583984c-0.3032227-0.4931641-0.7827148-0.7402344-1.4389648-0.7402344
			c-0.6518555,0-1.1269531,0.2460938-1.425293,0.7373047s-0.4521484,1.2460938-0.4614258,2.2646484v2.0380859
			c0,1.0839844,0.1572266,1.8828125,0.4716797,2.3994141s0.7905273,0.7744141,1.4287109,0.7744141
			c0.6289062,0,1.0957031-0.2431641,1.4008789-0.7294922s0.4648438-1.2529297,0.4785156-2.2998047V45.4326172z"/>
		<path class="st2" d="M224.4804688,47.1748047c0,1.4912109-0.2548828,2.5996094-0.7636719,3.3251953
			c-0.5097656,0.7255859-1.3066406,1.0878906-2.3896484,1.0878906c-1.0693359,0-1.8613281-0.3544922-2.375-1.0634766
			c-0.5146484-0.7089844-0.7802734-1.7685547-0.7988281-3.1777344v-1.7001953c0-1.4736328,0.2548828-2.5683594,0.7646484-3.2841797
			c0.5087891-0.7167969,1.3076172-1.0742188,2.3955078-1.0742188c1.0791016,0,1.8730469,0.3447266,2.3828125,1.0361328
			c0.5087891,0.6904297,0.7705078,1.7568359,0.7841797,3.1982422V47.1748047z M223.2070312,45.4326172
			c0-1.078125-0.1513672-1.8642578-0.4541016-2.3583984c-0.3037109-0.4931641-0.7832031-0.7402344-1.4394531-0.7402344
			c-0.6513672,0-1.1269531,0.2460938-1.4248047,0.7373047c-0.2988281,0.4912109-0.4521484,1.2460938-0.4619141,2.2646484v2.0380859
			c0,1.0839844,0.1572266,1.8828125,0.4716797,2.3994141s0.7910156,0.7744141,1.4287109,0.7744141
			c0.6289062,0,1.0957031-0.2431641,1.4013672-0.7294922c0.3046875-0.4863281,0.4648438-1.2529297,0.4785156-2.2998047V45.4326172z"
			/>
		<path class="st2" d="M229.1835938,47.4501953c0,1.0234375-0.1347656,2.0048828-0.4033203,2.9433594
			s-0.6787109,1.8046875-1.2324219,2.5986328c-0.5527344,0.7939453-1.1318359,1.3583984-1.7382812,1.6943359l-0.2685547-0.7783203
			c0.7070312-0.5419922,1.2753906-1.3828125,1.7041016-2.5234375c0.4296875-1.140625,0.6484375-2.40625,0.6572266-3.796875
			v-0.2207031c0-0.9638672-0.1005859-1.8603516-0.3027344-2.6884766s-0.4833984-1.5712891-0.8427734-2.2275391
			c-0.3603516-0.65625-0.765625-1.1679688-1.2158203-1.5351562l0.2685547-0.7783203
			c0.6064453,0.3359375,1.1835938,0.8955078,1.7314453,1.6806641c0.5488281,0.7841797,0.9599609,1.6494141,1.2324219,2.5957031
			C229.046875,45.359375,229.1835938,46.3710938,229.1835938,47.4501953z"/>
	</g>
	<circle class="st3" cx="196.6999969" cy="19.6000004" r="4.8999968"/>
	<text transform="matrix(1 0 0 1 194.8845062 21.4689026)" class="st4 st5 st6">2</text>
</g>
<g>
	<rect x="282.2000122" y="7.9000001" class="st2" width="135.7999878" height="54"/>
	<path class="st8" d="M357.1000061,19.3999996c0-0.5-0.3999939-0.7999992-0.7999878-0.7999992H354
		c-0.1000061-2.1000004-1.7999878-3.8000002-3.8999939-3.8000002s-3.7999878,1.5999994-3.8999939,3.8000002h-2.2999878
		c-0.5,0-0.7999878,0.2999992-0.7999878,0.7999992l-0.5,14.1000004c0,0.5,0.1000061,1,0.5,1.2999992
		c0.2999878,0.2999992,0.7999878,0.5,1.2000122,0.5H356c0.5,0,0.8999939-0.2000008,1.2000122-0.5
		C357.5,34.5,357.7000122,34,357.7000122,33.5L357.1000061,19.3999996z M350.1000061,15.8999996
		c1.6000061,0,2.7999878,1.2000008,2.8999939,2.7000008h-5.7999878C347.2999878,17.1000004,348.5,15.8999996,350.1000061,15.8999996
		z M346.2000122,19.7000008v1.7000008c0,0.2999992,0.2000122,0.5,0.5,0.5s0.5-0.2000008,0.5-0.5v-1.7000008H353v1.7000008
		c0,0.2999992,0.2000122,0.5,0.5,0.5s0.5-0.2000008,0.5-0.5v-1.7000008h2.1000061l0.5,13.8999977
		c0,0.2000008-0.1000061,0.4000015-0.2999878,0.5c-0.1000061,0.0999985-0.2999878,0.2000008-0.5,0.2000008h-11.7999878
		c-0.2000122,0-0.3999939-0.0999985-0.5-0.2000008c-0.1000061-0.0999985-0.2000122-0.2999992-0.2000122-0.5l0.6000061-13.8999996
		C343.9000244,19.6999989,346.2000122,19.6999989,346.2000122,19.7000008z"/>
	<g class="st1">
		<path class="st4" d="M317.0966797,48.2695312c-0.1240234,1.0605469-0.515625,1.8779297-1.1738281,2.4541016
			c-0.6591797,0.5761719-1.5351562,0.8642578-2.6269531,0.8642578c-1.1845703,0-2.1337891-0.4248047-2.8466797-1.2734375
			c-0.7138672-0.8496094-1.0712891-1.9853516-1.0712891-3.4082031v-0.9638672c0-0.9316406,0.1669922-1.7509766,0.4990234-2.4580078
			c0.3330078-0.7070312,0.8046875-1.25,1.4150391-1.6289062c0.6103516-0.3779297,1.3173828-0.5673828,2.1210938-0.5673828
			c1.0644531,0,1.9179688,0.296875,2.5605469,0.8916016s1.0166016,1.4169922,1.1230469,2.4677734h-1.3291016
			c-0.1152344-0.8007812-0.3642578-1.3808594-0.7470703-1.7402344c-0.3837891-0.3583984-0.9189453-0.5380859-1.6074219-0.5380859
			c-0.8447266,0-1.5068359,0.3125-1.9863281,0.9365234c-0.4804688,0.625-0.7197266,1.5136719-0.7197266,2.6669922v0.9716797
			c0,1.0888672,0.2275391,1.9550781,0.6816406,2.5976562c0.4541016,0.6435547,1.0898438,0.9648438,1.9072266,0.9648438
			c0.734375,0,1.2978516-0.1660156,1.6904297-0.4990234s0.6523438-0.9121094,0.78125-1.7382812H317.0966797z"/>
		<path class="st4" d="M323.2998047,51.4501953c-0.0732422-0.1464844-0.1328125-0.4082031-0.1787109-0.7851562
			c-0.5927734,0.6152344-1.2998047,0.9228516-2.1210938,0.9228516c-0.734375,0-1.3369141-0.2080078-1.8076172-0.6230469
			c-0.4697266-0.4150391-0.7050781-0.9423828-0.7050781-1.5800781c0-0.7753906,0.2949219-1.3779297,0.8847656-1.8076172
			c0.5898438-0.4287109,1.4189453-0.6435547,2.4882812-0.6435547h1.2392578v-0.5849609
			c0-0.4453125-0.1328125-0.7998047-0.3984375-1.0644531c-0.2666016-0.2636719-0.6591797-0.3955078-1.1777344-0.3955078
			c-0.4541016,0-0.8359375,0.1152344-1.1425781,0.3447266c-0.3076172,0.2294922-0.4619141,0.5068359-0.4619141,0.8330078h-1.2802734
			c0-0.3720703,0.1318359-0.7314453,0.3955078-1.078125s0.6220703-0.6201172,1.0742188-0.8222656
			s0.9492188-0.3027344,1.4902344-0.3027344c0.8583984,0,1.53125,0.2138672,2.0175781,0.6435547
			c0.4863281,0.4287109,0.7392578,1.0195312,0.7578125,1.7724609v3.4287109c0,0.6845703,0.0869141,1.2285156,0.2617188,1.6318359
			v0.1103516H323.2998047z M321.1855469,50.4794922c0.3994141,0,0.7783203-0.1035156,1.1367188-0.3095703
			c0.3574219-0.2070312,0.6171875-0.4755859,0.7773438-0.8056641v-1.5283203h-0.9980469
			c-1.5605469,0-2.3408203,0.4560547-2.3408203,1.3701172c0,0.3994141,0.1328125,0.7109375,0.3994141,0.9355469
			C320.4257812,50.3671875,320.7685547,50.4794922,321.1855469,50.4794922z"/>
		<path class="st4" d="M329.9716797,45.1435547c-0.1933594-0.0322266-0.4023438-0.0478516-0.6269531-0.0478516
			c-0.8349609,0-1.4023438,0.3554688-1.7001953,1.0664062v5.2880859h-1.2744141v-7.4492188h1.2392578l0.0205078,0.8603516
			c0.4179688-0.6660156,1.0097656-0.9980469,1.7763672-0.9980469c0.2480469,0,0.4365234,0.0322266,0.5654297,0.0957031V45.1435547z"
			/>
		<path class="st4" d="M333.2138672,42.1962891v1.8046875h1.3916016v0.984375h-1.3916016v4.625
			c0,0.2988281,0.0625,0.5234375,0.1865234,0.6728516s0.3349609,0.2236328,0.6328125,0.2236328
			c0.1474609,0,0.3496094-0.0273438,0.6064453-0.0820312v1.0263672c-0.3349609,0.0908203-0.6611328,0.1367188-0.9775391,0.1367188
			c-0.5693359,0-0.9990234-0.171875-1.2880859-0.5166016c-0.2890625-0.34375-0.4335938-0.8330078-0.4335938-1.4658203v-4.6201172
			h-1.3564453v-0.984375h1.3564453v-1.8046875H333.2138672z"/>
		<path class="st4" d="M339.5341797,47.3808594c0-1.0371094,0.1396484-2.0332031,0.4169922-2.9882812
			c0.2773438-0.9541016,0.6923828-1.8212891,1.2431641-2.6025391c0.5507812-0.7802734,1.1220703-1.3310547,1.7138672-1.6523438
			l0.2617188,0.8398438c-0.6699219,0.5146484-1.2197266,1.2998047-1.6494141,2.3554688
			c-0.4287109,1.0556641-0.6640625,2.2373047-0.7050781,3.5458984l-0.0068359,0.5849609
			c0,1.7714844,0.3232422,3.3095703,0.9707031,4.6132812c0.3896484,0.7802734,0.8535156,1.390625,1.390625,1.8310547
			l-0.2617188,0.7783203c-0.6103516-0.3398438-1.1933594-0.9091797-1.7490234-1.7080078
			C340.0761719,51.4179688,339.5341797,49.5527344,339.5341797,47.3808594z"/>
		<path class="st4" d="M349.3320312,48.8681641c0-0.421875-0.1474609-0.7783203-0.4433594-1.0673828
			c-0.296875-0.2890625-0.7958984-0.5507812-1.4980469-0.7841797c-0.9775391-0.2988281-1.6904297-0.6875-2.1376953-1.1669922
			c-0.4472656-0.4804688-0.6708984-1.0888672-0.6708984-1.828125c0-0.7529297,0.21875-1.3701172,0.6572266-1.8525391
			c0.4384766-0.4814453,1.0410156-0.7685547,1.8076172-0.8603516v-1.5078125h1.0253906v1.5146484
			c0.7714844,0.1054688,1.3710938,0.4296875,1.8007812,0.9707031c0.4287109,0.5419922,0.6435547,1.2832031,0.6435547,2.2236328
			H349.25c0-0.6494141-0.1542969-1.1650391-0.4619141-1.546875s-0.7226562-0.5732422-1.2460938-0.5732422
			c-0.5458984,0-0.9638672,0.1416016-1.2529297,0.4238281c-0.2890625,0.2832031-0.4335938,0.6777344-0.4335938,1.1826172
			c0,0.4697266,0.1523438,0.8427734,0.4580078,1.1210938c0.3046875,0.2783203,0.8076172,0.53125,1.5078125,0.7587891
			c0.6992188,0.2275391,1.2460938,0.4785156,1.6386719,0.7509766c0.3925781,0.2734375,0.6816406,0.5908203,0.8671875,0.9541016
			c0.1855469,0.3623047,0.2792969,0.7871094,0.2792969,1.2734375c0,0.7753906-0.2333984,1.4003906-0.6992188,1.8730469
			s-1.1191406,0.7529297-1.9589844,0.8398438v1.3144531h-1.0185547v-1.3144531
			c-0.8535156-0.078125-1.5234375-0.3818359-2.0068359-0.9121094c-0.484375-0.5302734-0.7265625-1.25-0.7265625-2.1591797h1.2734375
			c0,0.6386719,0.1679688,1.1298828,0.5029297,1.4736328c0.3349609,0.3447266,0.8095703,0.5166016,1.4248047,0.5166016
			c0.6015625,0,1.0742188-0.1445312,1.4189453-0.4335938C349.1601562,49.7636719,349.3320312,49.3681641,349.3320312,48.8681641z"/>
		<path class="st4" d="M352.7744141,46.4238281l0.5097656-4.9980469h5.1357422v1.1767578h-4.0546875L354.0625,45.3359375
			c0.4902344-0.2890625,1.0478516-0.4335938,1.6728516-0.4335938c0.9130859,0,1.6386719,0.3017578,2.1757812,0.9052734
			s0.8056641,1.4199219,0.8056641,2.4482422c0,1.0322266-0.2792969,1.8457031-0.8369141,2.4404297
			s-1.3369141,0.8916016-2.3378906,0.8916016c-0.8857422,0-1.6083984-0.2451172-2.1689453-0.7363281
			c-0.5595703-0.4912109-0.8789062-1.1708984-0.9570312-2.0380859h1.2050781
			c0.078125,0.5732422,0.2822266,1.0058594,0.6132812,1.2978516c0.3300781,0.2910156,0.7666016,0.4365234,1.3076172,0.4365234
			c0.5927734,0,1.0576172-0.2011719,1.3945312-0.6054688s0.5058594-0.9619141,0.5058594-1.6728516
			c0-0.6699219-0.1826172-1.2089844-0.546875-1.6152344c-0.3652344-0.40625-0.8505859-0.6083984-1.4560547-0.6083984
			c-0.5556641,0-0.9921875,0.1210938-1.3085938,0.3642578l-0.3369141,0.2753906L352.7744141,46.4238281z"/>
		<path class="st4" d="M364.9882812,47.0439453c-0.265625,0.3164062-0.5839844,0.5712891-0.953125,0.7636719
			c-0.3691406,0.1933594-0.7744141,0.2900391-1.2148438,0.2900391c-0.5791016,0-1.0820312-0.1425781-1.5117188-0.4277344
			c-0.4287109-0.2841797-0.7607422-0.6845703-0.9951172-1.2011719c-0.2333984-0.5166016-0.3505859-1.0869141-0.3505859-1.7109375
			c0-0.6699219,0.1269531-1.2734375,0.3818359-1.8105469s0.6162109-0.9482422,1.0839844-1.2324219
			c0.46875-0.2841797,1.0146484-0.4267578,1.6386719-0.4267578c0.9921875,0,1.7734375,0.3701172,2.3447266,1.1113281
			c0.5712891,0.7421875,0.8574219,1.7529297,0.8574219,3.0332031v0.3720703c0,1.9501953-0.3857422,3.375-1.1572266,4.2714844
			c-0.7705078,0.8974609-1.9345703,1.3583984-3.4902344,1.3808594h-0.2480469v-1.0810547h0.2685547
			c1.0507812-0.0185547,1.859375-0.2919922,2.4238281-0.8212891
			C364.6308594,49.0263672,364.9384766,48.1884766,364.9882812,47.0439453z M363.0263672,47.0439453
			c0.4267578,0,0.8203125-0.1308594,1.1806641-0.3925781s0.6230469-0.5849609,0.7890625-0.9707031v-0.5097656
			c0-0.8349609-0.1816406-1.5146484-0.5439453-2.0380859c-0.3632812-0.5234375-0.8222656-0.7841797-1.3769531-0.7841797
			c-0.5605469,0-1.0107422,0.2138672-1.3496094,0.6435547c-0.3398438,0.4287109-0.5097656,0.9941406-0.5097656,1.6972656
			c0,0.6835938,0.1640625,1.2470703,0.4921875,1.6894531C362.0361328,46.8222656,362.4755859,47.0439453,363.0263672,47.0439453z"/>
		<path class="st4" d="M368.1835938,50.7822266c0-0.2197266,0.0654297-0.4033203,0.1962891-0.5507812
			c0.1308594-0.1464844,0.3271484-0.2207031,0.5888672-0.2207031s0.4599609,0.0742188,0.5957031,0.2207031
			c0.1347656,0.1474609,0.203125,0.3310547,0.203125,0.5507812c0,0.2109375-0.0683594,0.3876953-0.203125,0.5302734
			c-0.1357422,0.1425781-0.3339844,0.2138672-0.5957031,0.2138672s-0.4580078-0.0712891-0.5888672-0.2138672
			S368.1835938,50.9931641,368.1835938,50.7822266z"/>
		<path class="st4" d="M378.0224609,47.1748047c0,1.4912109-0.2548828,2.5996094-0.7646484,3.3251953
			s-1.3056641,1.0878906-2.3886719,1.0878906c-1.0693359,0-1.8613281-0.3544922-2.3759766-1.0634766
			c-0.5136719-0.7089844-0.7802734-1.7685547-0.7978516-3.1777344v-1.7001953c0-1.4736328,0.2539062-2.5683594,0.7636719-3.2841797
			c0.5097656-0.7167969,1.3085938-1.0742188,2.3964844-1.0742188c1.078125,0,1.8720703,0.3447266,2.3818359,1.0361328
			c0.5097656,0.6904297,0.7714844,1.7568359,0.7851562,3.1982422V47.1748047z M376.7480469,45.4326172
			c0-1.078125-0.1513672-1.8642578-0.4541016-2.3583984c-0.3027344-0.4931641-0.7822266-0.7402344-1.4384766-0.7402344
			c-0.6523438,0-1.1269531,0.2460938-1.4257812,0.7373047c-0.2978516,0.4912109-0.4521484,1.2460938-0.4609375,2.2646484v2.0380859
			c0,1.0839844,0.1572266,1.8828125,0.4716797,2.3994141s0.7900391,0.7744141,1.4287109,0.7744141
			c0.6289062,0,1.0957031-0.2431641,1.4003906-0.7294922c0.3056641-0.4863281,0.4648438-1.2529297,0.4785156-2.2998047V45.4326172z"
			/>
		<path class="st4" d="M385.9394531,47.1748047c0,1.4912109-0.2548828,2.5996094-0.7636719,3.3251953
			c-0.5097656,0.7255859-1.3066406,1.0878906-2.3896484,1.0878906c-1.0693359,0-1.8613281-0.3544922-2.375-1.0634766
			c-0.5146484-0.7089844-0.7802734-1.7685547-0.7988281-3.1777344v-1.7001953c0-1.4736328,0.2548828-2.5683594,0.7646484-3.2841797
			c0.5087891-0.7167969,1.3076172-1.0742188,2.3955078-1.0742188c1.0791016,0,1.8730469,0.3447266,2.3828125,1.0361328
			c0.5087891,0.6904297,0.7705078,1.7568359,0.7841797,3.1982422V47.1748047z M384.6660156,45.4326172
			c0-1.078125-0.1513672-1.8642578-0.4541016-2.3583984c-0.3037109-0.4931641-0.7832031-0.7402344-1.4394531-0.7402344
			c-0.6513672,0-1.1269531,0.2460938-1.4248047,0.7373047c-0.2988281,0.4912109-0.4521484,1.2460938-0.4619141,2.2646484v2.0380859
			c0,1.0839844,0.1572266,1.8828125,0.4716797,2.3994141s0.7910156,0.7744141,1.4287109,0.7744141
			c0.6289062,0,1.0957031-0.2431641,1.4013672-0.7294922c0.3046875-0.4863281,0.4648438-1.2529297,0.4785156-2.2998047V45.4326172z"
			/>
		<path class="st4" d="M390.6425781,47.4501953c0,1.0234375-0.1347656,2.0048828-0.4033203,2.9433594
			s-0.6787109,1.8046875-1.2324219,2.5986328c-0.5527344,0.7939453-1.1318359,1.3583984-1.7382812,1.6943359L387,53.9082031
			c0.7070312-0.5419922,1.2753906-1.3828125,1.7041016-2.5234375c0.4296875-1.140625,0.6484375-2.40625,0.6572266-3.796875
			v-0.2207031c0-0.9638672-0.1005859-1.8603516-0.3027344-2.6884766s-0.4833984-1.5712891-0.8427734-2.2275391
			c-0.3603516-0.65625-0.765625-1.1679688-1.2158203-1.5351562l0.2685547-0.7783203
			C387.875,40.4736328,388.4521484,41.0332031,389,41.8183594c0.5488281,0.7841797,0.9599609,1.6494141,1.2324219,2.5957031
			C390.5058594,45.359375,390.6425781,46.3710938,390.6425781,47.4501953z"/>
	</g>
	<circle class="st4" cx="358.2000122" cy="19.6000004" r="4.8999968"/>
	<text transform="matrix(1 0 0 1 356.3435059 21.4689026)" class="st2 st5 st6">2</text>
</g>
</svg>
