<?xml version="1.0" encoding="utf-8"?>
<!-- Generator: Adobe Illustrator 21.0.0, SVG Export Plug-In . SVG Version: 6.00 Build 0)  -->
<svg version="1.1" id="Layer_1" xmlns="http://www.w3.org/2000/svg" width="430" height="80" xmlns:xlink="http://www.w3.org/1999/xlink" x="0px" y="0px"
	 viewBox="0 0 430 70" style="enable-background:new 0 0 430 70;" xml:space="preserve">
<style type="text/css">
	.st0{enable-background:new    ;}
	.st1{fill:#222222;}
	.st2{fill:#FFFFFF;}
</style>
<g>
	<g class="st0">
		<path class="st1" d="M36.8041992,37.1357422l0.1923828,1.3222656l0.2827148-1.1914062l1.9829102-6.9956055h1.1152344
			l1.9345703,6.9956055l0.2753906,1.2119141l0.2133789-1.3496094l1.5561523-6.8579102h1.3286133l-2.4301758,10.0249023H42.050293
			l-2.0654297-7.3051758l-0.1582031-0.7646484l-0.1586914,0.7646484l-2.1411133,7.3051758h-1.2045898l-2.4238281-10.0249023
			h1.3217773L36.8041992,37.1357422z"/>
		<path class="st1" d="M46.9594727,30.8696289c0-0.2060547,0.0629883-0.3808594,0.1894531-0.5234375
			c0.1259766-0.1416016,0.3134766-0.2128906,0.5610352-0.2128906c0.2480469,0,0.4360352,0.0712891,0.5644531,0.2128906
			c0.128418,0.1425781,0.1928711,0.3173828,0.1928711,0.5234375c0,0.2070312-0.0644531,0.3789062-0.1928711,0.5166016
			s-0.3164062,0.2060547-0.5644531,0.2060547c-0.2475586,0-0.4350586-0.0683594-0.5610352-0.2060547
			C47.0224609,31.2485352,46.9594727,31.0766602,46.9594727,30.8696289z M48.3364258,40.2958984h-1.2734375v-7.449707h1.2734375
			V40.2958984z"/>
		<path class="st1" d="M54.7119141,38.3203125c0-0.3447266-0.1293945-0.6123047-0.3886719-0.8027344
			s-0.7114258-0.3544922-1.3564453-0.4921875s-1.1567383-0.3027344-1.5351562-0.4960938
			c-0.3789062-0.1923828-0.6591797-0.421875-0.840332-0.6889648c-0.1811523-0.265625-0.2719727-0.5820312-0.2719727-0.9492188
			c0-0.6113281,0.2583008-1.1269531,0.7749023-1.5498047c0.5161133-0.421875,1.1757812-0.6328125,1.9794922-0.6328125
			c0.8442383,0,1.5292969,0.2177734,2.0551758,0.6533203c0.5253906,0.4365234,0.7880859,0.9941406,0.7880859,1.6738281h-1.2807617
			c0-0.3496094-0.1479492-0.6494141-0.4438477-0.9023438c-0.2958984-0.2519531-0.6689453-0.3789062-1.1186523-0.3789062
			c-0.4638672,0-0.8266602,0.1015625-1.0878906,0.3027344c-0.2617188,0.2021484-0.3925781,0.4667969-0.3925781,0.7919922
			c0,0.3076172,0.121582,0.5400391,0.3647461,0.6953125c0.2431641,0.15625,0.6826172,0.3056641,1.3183594,0.4482422
			c0.6357422,0.1420898,1.1508789,0.3120117,1.5458984,0.5092773c0.3945312,0.1972656,0.6875,0.4355469,0.8779297,0.7128906
			s0.2856445,0.6162109,0.2856445,1.015625c0,0.6650391-0.2661133,1.1992188-0.7988281,1.6005859
			c-0.5322266,0.4013672-1.2231445,0.6025391-2.0722656,0.6025391c-0.5966797,0-1.1245117-0.1054688-1.5834961-0.3164062
			s-0.8183594-0.5068359-1.0776367-0.8847656c-0.2592773-0.3789062-0.3886719-0.7890625-0.3886719-1.2294922h1.2734375
			c0.0229492,0.4267578,0.1938477,0.765625,0.5131836,1.015625c0.3188477,0.25,0.7397461,0.375,1.2631836,0.375
			c0.4819336,0,0.8686523-0.0966797,1.1601562-0.2919922S54.7119141,38.6455078,54.7119141,38.3203125z"/>
		<path class="st1" d="M58.9189453,33.7475586c0.5644531-0.6923828,1.2988281-1.0390625,2.203125-1.0390625
			c1.5742188,0,2.3681641,0.8876953,2.3823242,2.6640625v4.9233398h-1.2739258v-4.9301758
			c-0.0043945-0.5371094-0.1274414-0.9335938-0.3681641-1.1914062c-0.2412109-0.2568359-0.6162109-0.3857422-1.1259766-0.3857422
			c-0.4130859,0-0.7753906,0.1103516-1.0878906,0.3310547c-0.3120117,0.2197266-0.5551758,0.5097656-0.7294922,0.8671875v5.309082
			h-1.2739258V29.7202148h1.2739258V33.7475586z"/>
		<path class="st1" d="M66.7949219,40.2958984h-1.2734375V29.7202148h1.2734375V40.2958984z"/>
		<path class="st1" d="M68.8398438,30.8696289c0-0.2060547,0.0629883-0.3808594,0.1894531-0.5234375
			c0.1259766-0.1416016,0.3134766-0.2128906,0.5610352-0.2128906c0.2480469,0,0.4360352,0.0712891,0.5644531,0.2128906
			c0.128418,0.1425781,0.1928711,0.3173828,0.1928711,0.5234375c0,0.2070312-0.0644531,0.3789062-0.1928711,0.5166016
			s-0.3164062,0.2060547-0.5644531,0.2060547c-0.2475586,0-0.4350586-0.0683594-0.5610352-0.2060547
			C68.902832,31.2485352,68.8398438,31.0766602,68.8398438,30.8696289z M70.2167969,40.2958984h-1.2734375v-7.449707h1.2734375
			V40.2958984z"/>
		<path class="st1" d="M76.5922852,38.3203125c0-0.3447266-0.1293945-0.6123047-0.3886719-0.8027344
			s-0.7114258-0.3544922-1.3564453-0.4921875s-1.1567383-0.3027344-1.5351562-0.4960938
			c-0.3789062-0.1923828-0.6591797-0.421875-0.840332-0.6889648c-0.1811523-0.265625-0.2719727-0.5820312-0.2719727-0.9492188
			c0-0.6113281,0.2583008-1.1269531,0.7749023-1.5498047c0.5161133-0.421875,1.1757812-0.6328125,1.9794922-0.6328125
			c0.8442383,0,1.5292969,0.2177734,2.0551758,0.6533203c0.5253906,0.4365234,0.7880859,0.9941406,0.7880859,1.6738281h-1.2807617
			c0-0.3496094-0.1479492-0.6494141-0.4438477-0.9023438c-0.2958984-0.2519531-0.6689453-0.3789062-1.1186523-0.3789062
			c-0.4638672,0-0.8266602,0.1015625-1.0878906,0.3027344c-0.2617188,0.2021484-0.3925781,0.4667969-0.3925781,0.7919922
			c0,0.3076172,0.121582,0.5400391,0.3647461,0.6953125c0.2431641,0.15625,0.6826172,0.3056641,1.3183594,0.4482422
			c0.6357422,0.1420898,1.1508789,0.3120117,1.5458984,0.5092773c0.3945312,0.1972656,0.6875,0.4355469,0.8779297,0.7128906
			s0.2856445,0.6162109,0.2856445,1.015625c0,0.6650391-0.2661133,1.1992188-0.7988281,1.6005859
			c-0.5322266,0.4013672-1.2231445,0.6025391-2.0722656,0.6025391c-0.5966797,0-1.1245117-0.1054688-1.5834961-0.3164062
			s-0.8183594-0.5068359-1.0776367-0.8847656c-0.2592773-0.3789062-0.3886719-0.7890625-0.3886719-1.2294922H73.21875
			c0.0229492,0.4267578,0.1938477,0.765625,0.5131836,1.015625c0.3188477,0.25,0.7397461,0.375,1.2631836,0.375
			c0.4819336,0,0.8686523-0.0966797,1.1601562-0.2919922S76.5922852,38.6455078,76.5922852,38.3203125z"/>
		<path class="st1" d="M81.2539062,31.0415039v1.8046875h1.3911133v0.984375h-1.3911133v4.6254883
			c0,0.2988281,0.0620117,0.5234375,0.1860352,0.6728516s0.3349609,0.2236328,0.6333008,0.2236328
			c0.1469727,0,0.3491211-0.0273438,0.605957-0.0820312v1.0263672c-0.3349609,0.0908203-0.6606445,0.1367188-0.9775391,0.1367188
			c-0.5693359,0-0.9985352-0.171875-1.2875977-0.5166016c-0.2890625-0.34375-0.4335938-0.8330078-0.4335938-1.4658203v-4.6206055
			h-1.3564453v-0.984375h1.3564453v-1.8046875H81.2539062z"/>
	</g>
	<path class="st1" d="M29.6000004,33.2999992c-0.2000008-2.2000008-2-3.8999996-4.1000004-3.8999996
		c-1.2000008,0-2.2999992,0.3999996-3.1000004,1.2000008c-0.7999992-0.7999992-2.1000004-1.2999992-3.1000004-1.2000008
		c-2.2000008,0.1000004-4,1.7999992-4.1000004,3.8999996v0.5c0,0.7999992,0.3000002,1.5999985,0.8999996,2.2000008l5.5,6.0999985
		c0.2000008,0.2000008,0.6000004,0.2999992,0.7999992,0.2999992c0.2999992,0,0.5-0.0999985,0.7999992-0.2999992l5.5-6.0999985
		c0.6000004-0.7000008,0.8999996-1.5,0.8999996-2.2000008L29.6000004,33.2999992L29.6000004,33.2999992z M28.2999992,33.4000015
		v0.4000015c0,0.5-0.2000008,1-0.6000004,1.2999992l-5.3999996,6l-5.3999996-6
		C16.5,34.7000008,16.2999992,34.3000031,16.2999992,33.8000031v-0.4000015c0.1000004-1.5,1.2999992-2.7000008,2.8999996-2.7999992
		h0.1000004c1,0,1.8999996,0.3999996,2.5,1.2999992c0.1000004,0.2000008,0.2999992,0.2999992,0.5,0.2999992l0,0
		c0.2000008,0,0.3999996-0.0999985,0.5-0.2999992c0.6000004-0.7999992,1.5-1.2999992,2.5-1.2999992
		C27,30.7000008,28.2000008,31.8999996,28.2999992,33.4000015z"/>
</g>
<g>
	<g class="st0">
		<path class="st1" d="M170.6118164,37.1357422l0.1923828,1.3222656l0.2827148-1.1914062l1.9829102-6.9956055h1.1152344
			l1.9345703,6.9956055l0.2753906,1.2119141l0.2133789-1.3496094l1.5561523-6.8579102h1.3286133l-2.4301758,10.0249023h-1.2050781
			l-2.0654297-7.3051758l-0.1582031-0.7646484l-0.1586914,0.7646484l-2.1411133,7.3051758h-1.2045898l-2.4238281-10.0249023
			h1.3217773L170.6118164,37.1357422z"/>
		<path class="st1" d="M180.7670898,30.8696289c0-0.2060547,0.0629883-0.3808594,0.1894531-0.5234375
			c0.1259766-0.1416016,0.3134766-0.2128906,0.5610352-0.2128906c0.2480469,0,0.4360352,0.0712891,0.5644531,0.2128906
			c0.128418,0.1425781,0.1928711,0.3173828,0.1928711,0.5234375c0,0.2070312-0.0644531,0.3789062-0.1928711,0.5166016
			s-0.3164062,0.2060547-0.5644531,0.2060547c-0.2475586,0-0.4350586-0.0683594-0.5610352-0.2060547
			C180.8300781,31.2485352,180.7670898,31.0766602,180.7670898,30.8696289z M182.144043,40.2958984h-1.2734375v-7.449707h1.2734375
			V40.2958984z"/>
		<path class="st1" d="M188.5195312,38.3203125c0-0.3447266-0.1293945-0.6123047-0.3886719-0.8027344
			s-0.7114258-0.3544922-1.3564453-0.4921875s-1.1567383-0.3027344-1.5351562-0.4960938
			c-0.3789062-0.1923828-0.6591797-0.421875-0.840332-0.6889648c-0.1811523-0.265625-0.2719727-0.5820312-0.2719727-0.9492188
			c0-0.6113281,0.2583008-1.1269531,0.7749023-1.5498047c0.5161133-0.421875,1.1757812-0.6328125,1.9794922-0.6328125
			c0.8442383,0,1.5292969,0.2177734,2.0551758,0.6533203c0.5253906,0.4365234,0.7880859,0.9941406,0.7880859,1.6738281h-1.2807617
			c0-0.3496094-0.1479492-0.6494141-0.4438477-0.9023438c-0.2958984-0.2519531-0.6689453-0.3789062-1.1186523-0.3789062
			c-0.4638672,0-0.8266602,0.1015625-1.0878906,0.3027344c-0.2617188,0.2021484-0.3925781,0.4667969-0.3925781,0.7919922
			c0,0.3076172,0.121582,0.5400391,0.3647461,0.6953125c0.2431641,0.15625,0.6826172,0.3056641,1.3183594,0.4482422
			c0.6357422,0.1420898,1.1508789,0.3120117,1.5458984,0.5092773c0.3945312,0.1972656,0.6875,0.4355469,0.8779297,0.7128906
			s0.2856445,0.6162109,0.2856445,1.015625c0,0.6650391-0.2661133,1.1992188-0.7988281,1.6005859
			c-0.5322266,0.4013672-1.2231445,0.6025391-2.0722656,0.6025391c-0.5966797,0-1.1245117-0.1054688-1.5834961-0.3164062
			s-0.8183594-0.5068359-1.0776367-0.8847656c-0.2592773-0.3789062-0.3886719-0.7890625-0.3886719-1.2294922h1.2734375
			c0.0229492,0.4267578,0.1938477,0.765625,0.5131836,1.015625c0.3188477,0.25,0.7397461,0.375,1.2631836,0.375
			c0.4819336,0,0.8686523-0.0966797,1.1601562-0.2919922S188.5195312,38.6455078,188.5195312,38.3203125z"/>
		<path class="st1" d="M192.7265625,33.7475586c0.5644531-0.6923828,1.2988281-1.0390625,2.203125-1.0390625
			c1.5742188,0,2.3681641,0.8876953,2.3823242,2.6640625v4.9233398h-1.2739258v-4.9301758
			c-0.0043945-0.5371094-0.1274414-0.9335938-0.3681641-1.1914062c-0.2412109-0.2568359-0.6162109-0.3857422-1.1259766-0.3857422
			c-0.4130859,0-0.7753906,0.1103516-1.0878906,0.3310547c-0.3120117,0.2197266-0.5551758,0.5097656-0.7294922,0.8671875v5.309082
			h-1.2739258V29.7202148h1.2739258V33.7475586z"/>
		<path class="st1" d="M200.6025391,40.2958984h-1.2734375V29.7202148h1.2734375V40.2958984z"/>
		<path class="st1" d="M202.6474609,30.8696289c0-0.2060547,0.0629883-0.3808594,0.1894531-0.5234375
			c0.1259766-0.1416016,0.3134766-0.2128906,0.5610352-0.2128906c0.2480469,0,0.4360352,0.0712891,0.5644531,0.2128906
			c0.128418,0.1425781,0.1928711,0.3173828,0.1928711,0.5234375c0,0.2070312-0.0644531,0.3789062-0.1928711,0.5166016
			s-0.3164062,0.2060547-0.5644531,0.2060547c-0.2475586,0-0.4350586-0.0683594-0.5610352-0.2060547
			C202.7104492,31.2485352,202.6474609,31.0766602,202.6474609,30.8696289z M204.0244141,40.2958984h-1.2734375v-7.449707h1.2734375
			V40.2958984z"/>
		<path class="st1" d="M210.3999023,38.3203125c0-0.3447266-0.1293945-0.6123047-0.3886719-0.8027344
			s-0.7114258-0.3544922-1.3564453-0.4921875s-1.1567383-0.3027344-1.5351562-0.4960938
			c-0.3789062-0.1923828-0.6591797-0.421875-0.840332-0.6889648c-0.1811523-0.265625-0.2719727-0.5820312-0.2719727-0.9492188
			c0-0.6113281,0.2583008-1.1269531,0.7749023-1.5498047c0.5161133-0.421875,1.1757812-0.6328125,1.9794922-0.6328125
			c0.8442383,0,1.5292969,0.2177734,2.0551758,0.6533203c0.5253906,0.4365234,0.7880859,0.9941406,0.7880859,1.6738281h-1.2807617
			c0-0.3496094-0.1479492-0.6494141-0.4438477-0.9023438c-0.2958984-0.2519531-0.6689453-0.3789062-1.1186523-0.3789062
			c-0.4638672,0-0.8266602,0.1015625-1.0878906,0.3027344c-0.2617188,0.2021484-0.3925781,0.4667969-0.3925781,0.7919922
			c0,0.3076172,0.121582,0.5400391,0.3647461,0.6953125c0.2431641,0.15625,0.6826172,0.3056641,1.3183594,0.4482422
			c0.6357422,0.1420898,1.1508789,0.3120117,1.5458984,0.5092773c0.3945312,0.1972656,0.6875,0.4355469,0.8779297,0.7128906
			s0.2856445,0.6162109,0.2856445,1.015625c0,0.6650391-0.2661133,1.1992188-0.7988281,1.6005859
			c-0.5322266,0.4013672-1.2231445,0.6025391-2.0722656,0.6025391c-0.5966797,0-1.1245117-0.1054688-1.5834961-0.3164062
			s-0.8183594-0.5068359-1.0776367-0.8847656c-0.2592773-0.3789062-0.3886719-0.7890625-0.3886719-1.2294922h1.2734375
			c0.0229492,0.4267578,0.1938477,0.765625,0.5131836,1.015625c0.3188477,0.25,0.7397461,0.375,1.2631836,0.375
			c0.4819336,0,0.8686523-0.0966797,1.1601562-0.2919922S210.3999023,38.6455078,210.3999023,38.3203125z"/>
		<path class="st1" d="M215.0615234,31.0415039v1.8046875h1.390625v0.984375h-1.390625v4.6254883
			c0,0.2988281,0.0620117,0.5234375,0.1860352,0.6728516s0.3349609,0.2236328,0.6333008,0.2236328
			c0.1464844,0,0.3486328-0.0273438,0.6054688-0.0820312v1.0263672c-0.3349609,0.0908203-0.6601562,0.1367188-0.9770508,0.1367188
			c-0.5693359,0-0.9985352-0.171875-1.2875977-0.5166016c-0.2890625-0.34375-0.4335938-0.8330078-0.4335938-1.4658203v-4.6206055
			h-1.3564453v-0.984375h1.3564453v-1.8046875H215.0615234z"/>
	</g>
	<path class="st1" d="M163.3999939,33.2999992c-0.1999969-2.2000008-2-3.8999996-4.1000061-3.8999996
		c-1.1999969,0-2.3000031,0.3999996-3.1000061,1.2000008c-0.8000031-0.7999992-2.1000061-1.2999992-3.1000061-1.2000008
		c-2.1999969,0.1000004-4,1.7999992-4.1000061,3.8999996v0.5c0,0.7999992,0.3000031,1.5999985,0.8999939,2.2000008l5.5,6.0999985
		c0.1999969,0.2000008,0.6000061,0.2999992,0.8000031,0.2999992c0.3000031,0,0.5-0.0999985,0.8000031-0.2999992l5.5-6.0999985
		c0.6000061-0.7000008,0.8999939-1.5,0.8999939-2.2000008L163.3999939,33.2999992L163.3999939,33.2999992z M159.1999969,30.6000004
		c1.6000061,0.1000004,2.8000031,1.2999992,2.8999939,2.8000011v0.4000015c0,0.5-0.1999969,1-0.6000061,1.2999992l-5.3999939,6
		l-5.3999939-6c-0.3999939-0.4000015-0.6000061-0.7999992-0.6000061-1.2999992v-0.4000015
		c0.1000061-1.5,1.3000031-2.7000008,2.8999939-2.7999992h0.1000061c1,0,1.8999939,0.3999996,2.5,1.2999992
		c0.1000061,0.2000008,0.3000031,0.2999992,0.5,0.2999992l0,0c0.1999969,0,0.3999939-0.0999985,0.5-0.2999992
		C157.3000031,31.1000004,158.1999969,30.6000004,159.1999969,30.6000004z"/>
	<path class="st1" d="M233.6999969,19.6000004c8.6999969,0,15.8999939,6.8999996,16,15.3999996
		c0,8.5-7.1999969,15.4000015-16,15.4000015H132.3000031c-8.8000031,0-16-6.9000015-16-15.4000015
		s7.1999969-15.3999996,16-15.3999996H233.6999969 M233.6999969,18.3999996H132.3000031
		c-9.4000015,0-17.1999969,7.3999996-17.1999969,16.6000004c0,9.0999985,7.6999969,16.5999985,17.1999969,16.5999985h101.4000092
		c9.3999939,0,17.1999969-7.4000015,17.1999969-16.5999985C250.6999969,25.7999992,243.1000061,18.3999996,233.6999969,18.3999996
		L233.6999969,18.3999996z"/>
</g>
<g>
	<rect x="282.7999878" y="18.3999996" class="st1" width="135.7999878" height="33.1999969"/>
	<g class="st0">
		<path class="st2" d="M338.2861328,37.1357422l0.1923828,1.3222656l0.2832031-1.1914062l1.9824219-6.9956055h1.1152344
			l1.9345703,6.9956055l0.2753906,1.2119141l0.2138672-1.3496094l1.5556641-6.8579102h1.3291016l-2.4306641,10.0249023h-1.2050781
			l-2.0654297-7.3051758l-0.1582031-0.7646484l-0.1582031,0.7646484l-2.1416016,7.3051758h-1.2041016l-2.4238281-10.0249023
			h1.3212891L338.2861328,37.1357422z"/>
		<path class="st2" d="M348.4414062,30.8696289c0-0.2060547,0.0634766-0.3808594,0.1894531-0.5234375
			c0.1259766-0.1416016,0.3134766-0.2128906,0.5615234-0.2128906s0.4355469,0.0712891,0.5644531,0.2128906
			c0.1279297,0.1425781,0.1923828,0.3173828,0.1923828,0.5234375c0,0.2070312-0.0644531,0.3789062-0.1923828,0.5166016
			c-0.1289062,0.1376953-0.3164062,0.2060547-0.5644531,0.2060547s-0.4355469-0.0683594-0.5615234-0.2060547
			S348.4414062,31.0766602,348.4414062,30.8696289z M349.8183594,40.2958984h-1.2734375v-7.449707h1.2734375V40.2958984z"/>
		<path class="st2" d="M356.1943359,38.3203125c0-0.3447266-0.1298828-0.6123047-0.3886719-0.8027344
			c-0.2597656-0.1904297-0.7119141-0.3544922-1.3564453-0.4921875c-0.6455078-0.1376953-1.1572266-0.3027344-1.5351562-0.4960938
			c-0.3789062-0.1923828-0.6591797-0.421875-0.8408203-0.6889648c-0.1806641-0.265625-0.2714844-0.5820312-0.2714844-0.9492188
			c0-0.6113281,0.2578125-1.1269531,0.7744141-1.5498047c0.5166016-0.421875,1.1757812-0.6328125,1.9794922-0.6328125
			c0.8447266,0,1.5292969,0.2177734,2.0556641,0.6533203c0.5253906,0.4365234,0.7880859,0.9941406,0.7880859,1.6738281h-1.28125
			c0-0.3496094-0.1474609-0.6494141-0.4433594-0.9023438c-0.2958984-0.2519531-0.6689453-0.3789062-1.1191406-0.3789062
			c-0.4638672,0-0.8261719,0.1015625-1.0878906,0.3027344c-0.2617188,0.2021484-0.3925781,0.4667969-0.3925781,0.7919922
			c0,0.3076172,0.1220703,0.5400391,0.3652344,0.6953125c0.2431641,0.15625,0.6826172,0.3056641,1.3183594,0.4482422
			c0.6357422,0.1420898,1.1503906,0.3120117,1.5458984,0.5092773c0.3945312,0.1972656,0.6875,0.4355469,0.8779297,0.7128906
			s0.2851562,0.6162109,0.2851562,1.015625c0,0.6650391-0.265625,1.1992188-0.7988281,1.6005859
			c-0.5322266,0.4013672-1.2226562,0.6025391-2.0722656,0.6025391c-0.5966797,0-1.1240234-0.1054688-1.5830078-0.3164062
			s-0.8183594-0.5068359-1.078125-0.8847656c-0.2587891-0.3789062-0.3886719-0.7890625-0.3886719-1.2294922h1.2734375
			c0.0234375,0.4267578,0.1943359,0.765625,0.5136719,1.015625c0.3183594,0.25,0.7392578,0.375,1.2626953,0.375
			c0.4824219,0,0.8691406-0.0966797,1.1601562-0.2919922C356.0488281,38.90625,356.1943359,38.6455078,356.1943359,38.3203125z"/>
		<path class="st2" d="M360.4013672,33.7475586c0.5644531-0.6923828,1.2988281-1.0390625,2.203125-1.0390625
			c1.5742188,0,2.3681641,0.8876953,2.3818359,2.6640625v4.9233398h-1.2734375v-4.9301758
			c-0.0048828-0.5371094-0.1279297-0.9335938-0.3681641-1.1914062c-0.2412109-0.2568359-0.6162109-0.3857422-1.1259766-0.3857422
			c-0.4130859,0-0.7753906,0.1103516-1.0878906,0.3310547c-0.3125,0.2197266-0.5556641,0.5097656-0.7294922,0.8671875v5.309082
			h-1.2744141V29.7202148h1.2744141V33.7475586z"/>
		<path class="st2" d="M368.2773438,40.2958984h-1.2734375V29.7202148h1.2734375V40.2958984z"/>
		<path class="st2" d="M370.3222656,30.8696289c0-0.2060547,0.0625-0.3808594,0.1894531-0.5234375
			c0.1259766-0.1416016,0.3134766-0.2128906,0.5605469-0.2128906c0.2480469,0,0.4365234,0.0712891,0.5644531,0.2128906
			c0.1289062,0.1425781,0.1933594,0.3173828,0.1933594,0.5234375c0,0.2070312-0.0644531,0.3789062-0.1933594,0.5166016
			c-0.1279297,0.1376953-0.3164062,0.2060547-0.5644531,0.2060547c-0.2470703,0-0.4345703-0.0683594-0.5605469-0.2060547
			C370.3847656,31.2485352,370.3222656,31.0766602,370.3222656,30.8696289z M371.6992188,40.2958984h-1.2734375v-7.449707h1.2734375
			V40.2958984z"/>
		<path class="st2" d="M378.0742188,38.3203125c0-0.3447266-0.1289062-0.6123047-0.3886719-0.8027344
			c-0.2587891-0.1904297-0.7109375-0.3544922-1.3564453-0.4921875c-0.6445312-0.1376953-1.15625-0.3027344-1.5351562-0.4960938
			c-0.3789062-0.1923828-0.6591797-0.421875-0.8398438-0.6889648c-0.1816406-0.265625-0.2724609-0.5820312-0.2724609-0.9492188
			c0-0.6113281,0.2587891-1.1269531,0.7753906-1.5498047c0.515625-0.421875,1.1757812-0.6328125,1.9794922-0.6328125
			c0.84375,0,1.5292969,0.2177734,2.0546875,0.6533203c0.5253906,0.4365234,0.7880859,0.9941406,0.7880859,1.6738281h-1.2802734
			c0-0.3496094-0.1484375-0.6494141-0.4443359-0.9023438c-0.2958984-0.2519531-0.6689453-0.3789062-1.1181641-0.3789062
			c-0.4638672,0-0.8271484,0.1015625-1.0878906,0.3027344c-0.2617188,0.2021484-0.3925781,0.4667969-0.3925781,0.7919922
			c0,0.3076172,0.1210938,0.5400391,0.3642578,0.6953125c0.2431641,0.15625,0.6826172,0.3056641,1.3183594,0.4482422
			c0.6357422,0.1420898,1.1513672,0.3120117,1.5458984,0.5092773s0.6875,0.4355469,0.8779297,0.7128906
			s0.2861328,0.6162109,0.2861328,1.015625c0,0.6650391-0.2666016,1.1992188-0.7988281,1.6005859
			s-1.2236328,0.6025391-2.0722656,0.6025391c-0.5966797,0-1.125-0.1054688-1.5839844-0.3164062
			s-0.8183594-0.5068359-1.0771484-0.8847656c-0.2597656-0.3789062-0.3886719-0.7890625-0.3886719-1.2294922h1.2734375
			c0.0224609,0.4267578,0.1933594,0.765625,0.5126953,1.015625s0.7402344,0.375,1.2636719,0.375
			c0.4814453,0,0.8681641-0.0966797,1.1601562-0.2919922C377.9287109,38.90625,378.0742188,38.6455078,378.0742188,38.3203125z"/>
		<path class="st2" d="M382.7363281,31.0415039v1.8046875h1.390625v0.984375h-1.390625v4.6254883
			c0,0.2988281,0.0615234,0.5234375,0.1855469,0.6728516s0.3349609,0.2236328,0.6337891,0.2236328
			c0.1464844,0,0.3486328-0.0273438,0.6054688-0.0820312v1.0263672c-0.3349609,0.0908203-0.6601562,0.1367188-0.9775391,0.1367188
			c-0.5693359,0-0.9980469-0.171875-1.2871094-0.5166016c-0.2890625-0.34375-0.4335938-0.8330078-0.4335938-1.4658203v-4.6206055
			h-1.3564453v-0.984375h1.3564453v-1.8046875H382.7363281z"/>
	</g>
	<path class="st2" d="M326.8999939,29.3999996c-1.2000122,0-2.2999878,0.3999996-3.1000061,1.2000008
		c-0.7999878-0.7999992-2-1.2999992-3.1000061-1.2000008c-2.2000122,0.1000004-4,1.7999992-4.1000061,3.8999996v0.5
		c0,0.7999992,0.2999878,1.5999985,0.8999939,2.2000008l5.5,6.0999985c0.2000122,0.2000008,0.6000061,0.2999992,0.7999878,0.2999992
		c0.2999878,0,0.5-0.0999985,0.7999878-0.2999992l5.5-6.0999985c0.6000061-0.7000008,0.8999939-1.5,0.8999939-2.2000008v-0.5
		C330.7999878,31.1000004,329,29.3999996,326.8999939,29.3999996z M329.7000122,33.4000015v0.4000015
		c0,0.5-0.2000122,1-0.6000061,1.2999992l-5.3999939,6l-5.3999939-6c-0.3999939-0.4000015-0.6000061-0.7999992-0.6000061-1.2999992
		v-0.4000015c0.1000061-1.5,1.2999878-2.7000008,2.8999939-2.7999992h0.1000061c1,0,1.8999939,0.3999996,2.5,1.2999992
		c0.1000061,0.2000008,0.2999878,0.2999992,0.5,0.2999992s0.3999939-0.0999985,0.5-0.2999992
		c0.6000061-0.7999992,1.5-1.2999992,2.5-1.2999992C328.3999939,30.7000008,329.6000061,31.8999996,329.7000122,33.4000015z"/>
</g>
</svg>
