<?xml version="1.0" encoding="utf-8"?>
<!-- Generator: Adobe Illustrator 21.0.0, SVG Export Plug-In . SVG Version: 6.00 Build 0)  -->
<svg version="1.1" id="Layer_1" xmlns="http://www.w3.org/2000/svg" width="430" height="80" xmlns:xlink="http://www.w3.org/1999/xlink" x="0px" y="0px"
	 viewBox="0 0 430 70" style="enable-background:new 0 0 430 70;" xml:space="preserve">
<style type="text/css">
	.st0{enable-background:new    ;}
	.st1{fill:#222222;}
	.st2{fill:#FFFFFF;}
</style>
<g>
	<g class="st0">
		<path class="st1" d="M18.0229492,37.1357422l0.1923828,1.3222656l0.2827148-1.1914062l1.9829102-6.9956055h1.1152344
			l1.9345703,6.9956055l0.2753906,1.2119141l0.2133789-1.3496094l1.5561523-6.8579102h1.3286133l-2.4301758,10.0249023H23.269043
			l-2.0654297-7.3051758l-0.1582031-0.7646484l-0.1586914,0.7646484l-2.1411133,7.3051758h-1.2045898l-2.4238281-10.0249023
			h1.3217773L18.0229492,37.1357422z"/>
		<path class="st1" d="M28.1782227,30.8696289c0-0.2060547,0.0629883-0.3808594,0.1894531-0.5234375
			c0.1259766-0.1416016,0.3134766-0.2128906,0.5610352-0.2128906c0.2480469,0,0.4360352,0.0712891,0.5644531,0.2128906
			c0.128418,0.1425781,0.1928711,0.3173828,0.1928711,0.5234375c0,0.2070312-0.0644531,0.3789062-0.1928711,0.5166016
			s-0.3164062,0.2060547-0.5644531,0.2060547c-0.2475586,0-0.4350586-0.0683594-0.5610352-0.2060547
			C28.2412109,31.2485352,28.1782227,31.0766602,28.1782227,30.8696289z M29.5551758,40.2958984h-1.2734375v-7.449707h1.2734375
			V40.2958984z"/>
		<path class="st1" d="M35.9306641,38.3203125c0-0.3447266-0.1293945-0.6123047-0.3886719-0.8027344
			s-0.7114258-0.3544922-1.3564453-0.4921875s-1.1567383-0.3027344-1.5351562-0.4960938
			c-0.3789062-0.1923828-0.6591797-0.421875-0.840332-0.6889648c-0.1811523-0.265625-0.2719727-0.5820312-0.2719727-0.9492188
			c0-0.6113281,0.2583008-1.1269531,0.7749023-1.5498047c0.5161133-0.421875,1.1757812-0.6328125,1.9794922-0.6328125
			c0.8442383,0,1.5292969,0.2177734,2.0551758,0.6533203c0.5253906,0.4365234,0.7880859,0.9941406,0.7880859,1.6738281h-1.2807617
			c0-0.3496094-0.1479492-0.6494141-0.4438477-0.9023438c-0.2958984-0.2519531-0.6689453-0.3789062-1.1186523-0.3789062
			c-0.4638672,0-0.8266602,0.1015625-1.0878906,0.3027344c-0.2617188,0.2021484-0.3925781,0.4667969-0.3925781,0.7919922
			c0,0.3076172,0.121582,0.5400391,0.3647461,0.6953125c0.2431641,0.15625,0.6826172,0.3056641,1.3183594,0.4482422
			c0.6357422,0.1420898,1.1508789,0.3120117,1.5458984,0.5092773c0.3945312,0.1972656,0.6875,0.4355469,0.8779297,0.7128906
			s0.2856445,0.6162109,0.2856445,1.015625c0,0.6650391-0.2661133,1.1992188-0.7988281,1.6005859
			c-0.5322266,0.4013672-1.2231445,0.6025391-2.0722656,0.6025391c-0.5966797,0-1.1245117-0.1054688-1.5834961-0.3164062
			s-0.8183594-0.5068359-1.0776367-0.8847656c-0.2592773-0.3789062-0.3886719-0.7890625-0.3886719-1.2294922h1.2734375
			c0.0229492,0.4267578,0.1938477,0.765625,0.5131836,1.015625c0.3188477,0.25,0.7397461,0.375,1.2631836,0.375
			c0.4819336,0,0.8686523-0.0966797,1.1601562-0.2919922S35.9306641,38.6455078,35.9306641,38.3203125z"/>
		<path class="st1" d="M40.1376953,33.7475586c0.5644531-0.6923828,1.2988281-1.0390625,2.203125-1.0390625
			c1.5742188,0,2.3681641,0.8876953,2.3823242,2.6640625v4.9233398h-1.2739258v-4.9301758
			c-0.0043945-0.5371094-0.1274414-0.9335938-0.3681641-1.1914062c-0.2412109-0.2568359-0.6162109-0.3857422-1.1259766-0.3857422
			c-0.4130859,0-0.7753906,0.1103516-1.0878906,0.3310547c-0.3120117,0.2197266-0.5551758,0.5097656-0.7294922,0.8671875v5.309082
			h-1.2739258V29.7202148h1.2739258V33.7475586z"/>
		<path class="st1" d="M48.0136719,40.2958984h-1.2734375V29.7202148h1.2734375V40.2958984z"/>
		<path class="st1" d="M50.0585938,30.8696289c0-0.2060547,0.0629883-0.3808594,0.1894531-0.5234375
			c0.1259766-0.1416016,0.3134766-0.2128906,0.5610352-0.2128906c0.2480469,0,0.4360352,0.0712891,0.5644531,0.2128906
			c0.128418,0.1425781,0.1928711,0.3173828,0.1928711,0.5234375c0,0.2070312-0.0644531,0.3789062-0.1928711,0.5166016
			s-0.3164062,0.2060547-0.5644531,0.2060547c-0.2475586,0-0.4350586-0.0683594-0.5610352-0.2060547
			C50.121582,31.2485352,50.0585938,31.0766602,50.0585938,30.8696289z M51.4355469,40.2958984h-1.2734375v-7.449707h1.2734375
			V40.2958984z"/>
		<path class="st1" d="M57.8110352,38.3203125c0-0.3447266-0.1293945-0.6123047-0.3886719-0.8027344
			s-0.7114258-0.3544922-1.3564453-0.4921875s-1.1567383-0.3027344-1.5351562-0.4960938
			c-0.3789062-0.1923828-0.6591797-0.421875-0.840332-0.6889648c-0.1811523-0.265625-0.2719727-0.5820312-0.2719727-0.9492188
			c0-0.6113281,0.2583008-1.1269531,0.7749023-1.5498047c0.5161133-0.421875,1.1757812-0.6328125,1.9794922-0.6328125
			c0.8442383,0,1.5292969,0.2177734,2.0551758,0.6533203c0.5253906,0.4365234,0.7880859,0.9941406,0.7880859,1.6738281h-1.2807617
			c0-0.3496094-0.1479492-0.6494141-0.4438477-0.9023438c-0.2958984-0.2519531-0.6689453-0.3789062-1.1186523-0.3789062
			c-0.4638672,0-0.8266602,0.1015625-1.0878906,0.3027344c-0.2617188,0.2021484-0.3925781,0.4667969-0.3925781,0.7919922
			c0,0.3076172,0.121582,0.5400391,0.3647461,0.6953125c0.2431641,0.15625,0.6826172,0.3056641,1.3183594,0.4482422
			c0.6357422,0.1420898,1.1508789,0.3120117,1.5458984,0.5092773c0.3945312,0.1972656,0.6875,0.4355469,0.8779297,0.7128906
			s0.2856445,0.6162109,0.2856445,1.015625c0,0.6650391-0.2661133,1.1992188-0.7988281,1.6005859
			c-0.5322266,0.4013672-1.2231445,0.6025391-2.0722656,0.6025391c-0.5966797,0-1.1245117-0.1054688-1.5834961-0.3164062
			s-0.8183594-0.5068359-1.0776367-0.8847656c-0.2592773-0.3789062-0.3886719-0.7890625-0.3886719-1.2294922H54.4375
			c0.0229492,0.4267578,0.1938477,0.765625,0.5131836,1.015625c0.3188477,0.25,0.7397461,0.375,1.2631836,0.375
			c0.4819336,0,0.8686523-0.0966797,1.1601562-0.2919922S57.8110352,38.6455078,57.8110352,38.3203125z"/>
		<path class="st1" d="M62.4726562,31.0415039v1.8046875h1.3911133v0.984375h-1.3911133v4.6254883
			c0,0.2988281,0.0620117,0.5234375,0.1860352,0.6728516s0.3349609,0.2236328,0.6333008,0.2236328
			c0.1469727,0,0.3491211-0.0273438,0.605957-0.0820312v1.0263672c-0.3349609,0.0908203-0.6606445,0.1367188-0.9775391,0.1367188
			c-0.5693359,0-0.9985352-0.171875-1.2875977-0.5166016c-0.2890625-0.34375-0.4335938-0.8330078-0.4335938-1.4658203v-4.6206055
			h-1.3564453v-0.984375h1.3564453v-1.8046875H62.4726562z"/>
	</g>
	<path class="st1" d="M82.8000031,33.2999992c-0.1999969-2.2000008-2-3.8999996-4.0999985-3.8999996
		c-1.1999969,0-2.3000031,0.3999996-3.0999985,1.2000008c-0.8000031-0.7999992-2.0999985-1.2999992-3.0999985-1.2000008
		c-2.1999969,0.1000004-4,1.7999992-4.0999985,3.8999996v0.5c0,0.7999992,0.3000031,1.5999985,0.9000015,2.2000008l5.5,6.0999985
		c0.1999969,0.2000008,0.5999985,0.2999992,0.8000031,0.2999992c0.3000031,0,0.5-0.0999985,0.8000031-0.2999992l5.5-6.0999985
		c0.5999985-0.7000008,0.9000015-1.5,0.9000015-2.2000008L82.8000031,33.2999992L82.8000031,33.2999992z M81.5,33.4000015v0.4000015
		c0,0.5-0.1999969,1-0.5999985,1.2999992l-5.4000015,6l-5.4000015-6C69.6999969,34.7000008,69.5,34.3000031,69.5,33.8000031
		v-0.4000015c0.0999985-1.5,1.3000031-2.7000008,2.9000015-2.7999992H72.5c1,0,1.9000015,0.3999996,2.5,1.2999992
		c0.0999985,0.2000008,0.3000031,0.2999992,0.5,0.2999992l0,0c0.1999969,0,0.4000015-0.0999985,0.5-0.2999992
		c0.5999985-0.7999992,1.5-1.2999992,2.5-1.2999992C80.1999969,30.7000008,81.5,31.8999996,81.5,33.4000015z"/>
</g>
<g>
	<g class="st0">
		<path class="st1" d="M151.7783203,37.1357422l0.1923828,1.3222656l0.2827148-1.1914062l1.9829102-6.9956055h1.1152344
			l1.9345703,6.9956055l0.2753906,1.2119141l0.2133789-1.3496094l1.5561523-6.8579102h1.3286133l-2.4301758,10.0249023h-1.2050781
			l-2.0654297-7.3051758l-0.1582031-0.7646484l-0.1586914,0.7646484l-2.1411133,7.3051758h-1.2045898l-2.4238281-10.0249023
			h1.3217773L151.7783203,37.1357422z"/>
		<path class="st1" d="M161.9335938,30.8696289c0-0.2060547,0.0629883-0.3808594,0.1894531-0.5234375
			c0.1259766-0.1416016,0.3134766-0.2128906,0.5610352-0.2128906c0.2480469,0,0.4360352,0.0712891,0.5644531,0.2128906
			c0.128418,0.1425781,0.1928711,0.3173828,0.1928711,0.5234375c0,0.2070312-0.0644531,0.3789062-0.1928711,0.5166016
			s-0.3164062,0.2060547-0.5644531,0.2060547c-0.2475586,0-0.4350586-0.0683594-0.5610352-0.2060547
			C161.996582,31.2485352,161.9335938,31.0766602,161.9335938,30.8696289z M163.3105469,40.2958984h-1.2734375v-7.449707h1.2734375
			V40.2958984z"/>
		<path class="st1" d="M169.6860352,38.3203125c0-0.3447266-0.1293945-0.6123047-0.3886719-0.8027344
			s-0.7114258-0.3544922-1.3564453-0.4921875s-1.1567383-0.3027344-1.5351562-0.4960938
			c-0.3789062-0.1923828-0.6591797-0.421875-0.840332-0.6889648c-0.1811523-0.265625-0.2719727-0.5820312-0.2719727-0.9492188
			c0-0.6113281,0.2583008-1.1269531,0.7749023-1.5498047c0.5161133-0.421875,1.1757812-0.6328125,1.9794922-0.6328125
			c0.8442383,0,1.5292969,0.2177734,2.0551758,0.6533203c0.5253906,0.4365234,0.7880859,0.9941406,0.7880859,1.6738281h-1.2807617
			c0-0.3496094-0.1479492-0.6494141-0.4438477-0.9023438c-0.2958984-0.2519531-0.6689453-0.3789062-1.1186523-0.3789062
			c-0.4638672,0-0.8266602,0.1015625-1.0878906,0.3027344c-0.2617188,0.2021484-0.3925781,0.4667969-0.3925781,0.7919922
			c0,0.3076172,0.121582,0.5400391,0.3647461,0.6953125c0.2431641,0.15625,0.6826172,0.3056641,1.3183594,0.4482422
			c0.6357422,0.1420898,1.1508789,0.3120117,1.5458984,0.5092773c0.3945312,0.1972656,0.6875,0.4355469,0.8779297,0.7128906
			s0.2856445,0.6162109,0.2856445,1.015625c0,0.6650391-0.2661133,1.1992188-0.7988281,1.6005859
			c-0.5322266,0.4013672-1.2231445,0.6025391-2.0722656,0.6025391c-0.5966797,0-1.1245117-0.1054688-1.5834961-0.3164062
			s-0.8183594-0.5068359-1.0776367-0.8847656c-0.2592773-0.3789062-0.3886719-0.7890625-0.3886719-1.2294922H166.3125
			c0.0229492,0.4267578,0.1938477,0.765625,0.5131836,1.015625c0.3188477,0.25,0.7397461,0.375,1.2631836,0.375
			c0.4819336,0,0.8686523-0.0966797,1.1601562-0.2919922S169.6860352,38.6455078,169.6860352,38.3203125z"/>
		<path class="st1" d="M173.8930664,33.7475586c0.5644531-0.6923828,1.2988281-1.0390625,2.203125-1.0390625
			c1.5742188,0,2.3681641,0.8876953,2.3823242,2.6640625v4.9233398h-1.2739258v-4.9301758
			c-0.0043945-0.5371094-0.1274414-0.9335938-0.3681641-1.1914062c-0.2412109-0.2568359-0.6162109-0.3857422-1.1259766-0.3857422
			c-0.4130859,0-0.7753906,0.1103516-1.0878906,0.3310547c-0.3120117,0.2197266-0.5551758,0.5097656-0.7294922,0.8671875v5.309082
			h-1.2739258V29.7202148h1.2739258V33.7475586z"/>
		<path class="st1" d="M181.769043,40.2958984h-1.2734375V29.7202148h1.2734375V40.2958984z"/>
		<path class="st1" d="M183.8139648,30.8696289c0-0.2060547,0.0629883-0.3808594,0.1894531-0.5234375
			c0.1259766-0.1416016,0.3134766-0.2128906,0.5610352-0.2128906c0.2480469,0,0.4360352,0.0712891,0.5644531,0.2128906
			c0.128418,0.1425781,0.1928711,0.3173828,0.1928711,0.5234375c0,0.2070312-0.0644531,0.3789062-0.1928711,0.5166016
			s-0.3164062,0.2060547-0.5644531,0.2060547c-0.2475586,0-0.4350586-0.0683594-0.5610352-0.2060547
			C183.8769531,31.2485352,183.8139648,31.0766602,183.8139648,30.8696289z M185.190918,40.2958984h-1.2734375v-7.449707h1.2734375
			V40.2958984z"/>
		<path class="st1" d="M191.5664062,38.3203125c0-0.3447266-0.1293945-0.6123047-0.3886719-0.8027344
			s-0.7114258-0.3544922-1.3564453-0.4921875s-1.1567383-0.3027344-1.5351562-0.4960938
			c-0.3789062-0.1923828-0.6591797-0.421875-0.840332-0.6889648c-0.1811523-0.265625-0.2719727-0.5820312-0.2719727-0.9492188
			c0-0.6113281,0.2583008-1.1269531,0.7749023-1.5498047c0.5161133-0.421875,1.1757812-0.6328125,1.9794922-0.6328125
			c0.8442383,0,1.5292969,0.2177734,2.0551758,0.6533203c0.5253906,0.4365234,0.7880859,0.9941406,0.7880859,1.6738281h-1.2807617
			c0-0.3496094-0.1479492-0.6494141-0.4438477-0.9023438c-0.2958984-0.2519531-0.6689453-0.3789062-1.1186523-0.3789062
			c-0.4638672,0-0.8266602,0.1015625-1.0878906,0.3027344c-0.2617188,0.2021484-0.3925781,0.4667969-0.3925781,0.7919922
			c0,0.3076172,0.121582,0.5400391,0.3647461,0.6953125c0.2431641,0.15625,0.6826172,0.3056641,1.3183594,0.4482422
			c0.6357422,0.1420898,1.1508789,0.3120117,1.5458984,0.5092773c0.3945312,0.1972656,0.6875,0.4355469,0.8779297,0.7128906
			s0.2856445,0.6162109,0.2856445,1.015625c0,0.6650391-0.2661133,1.1992188-0.7988281,1.6005859
			c-0.5322266,0.4013672-1.2231445,0.6025391-2.0722656,0.6025391c-0.5966797,0-1.1245117-0.1054688-1.5834961-0.3164062
			s-0.8183594-0.5068359-1.0776367-0.8847656c-0.2592773-0.3789062-0.3886719-0.7890625-0.3886719-1.2294922h1.2734375
			c0.0229492,0.4267578,0.1938477,0.765625,0.5131836,1.015625c0.3188477,0.25,0.7397461,0.375,1.2631836,0.375
			c0.4819336,0,0.8686523-0.0966797,1.1601562-0.2919922S191.5664062,38.6455078,191.5664062,38.3203125z"/>
		<path class="st1" d="M196.2280273,31.0415039v1.8046875h1.3911133v0.984375h-1.3911133v4.6254883
			c0,0.2988281,0.0620117,0.5234375,0.1860352,0.6728516s0.3349609,0.2236328,0.6333008,0.2236328
			c0.1469727,0,0.3491211-0.0273438,0.605957-0.0820312v1.0263672c-0.3349609,0.0908203-0.6606445,0.1367188-0.9775391,0.1367188
			c-0.5693359,0-0.9985352-0.171875-1.2875977-0.5166016c-0.2890625-0.34375-0.4335938-0.8330078-0.4335938-1.4658203v-4.6206055
			h-1.3564453v-0.984375h1.3564453v-1.8046875H196.2280273z"/>
	</g>
	<path class="st1" d="M212.5,29.3999996c-1.1999969,0-2.3000031,0.3999996-3.1000061,1.2000008
		c-0.8000031-0.7999992-2.1000061-1.2999992-3.1000061-1.2000008c-2.1999969,0.1000004-4,1.7999992-4.1000061,3.8999996v0.5
		c0,0.7999992,0.3000031,1.5999985,0.8999939,2.2000008l5.5,6.0999985c0.1999969,0.2000008,0.6000061,0.2999992,0.8000031,0.2999992
		c0.3000031,0,0.5-0.0999985,0.8000031-0.2999992l5.5-6.0999985c0.6000061-0.7000008,0.8999939-1.5,0.8999939-2.2000008v-0.5
		C216.3999939,31.1000004,214.6000061,29.3999996,212.5,29.3999996z M215.3000031,33.7999992c0,0.5-0.1999969,1-0.6000061,1.2999992
		l-5.3999939,6l-5.3999939-6c-0.3999939-0.4000015-0.6000061-0.7999992-0.6000061-1.2999992v-0.4000015
		c0.1000061-1.5,1.3000031-2.7000008,2.8999939-2.7999992h0.1000061c1,0,1.8999939,0.3999996,2.5,1.2999992
		c0.1000061,0.2000008,0.3000031,0.2999992,0.5,0.2999992l0,0c0.1999969,0,0.3999939-0.0999985,0.5-0.2999992
		c0.6000061-0.7999992,1.5-1.2999992,2.5-1.2999992c1.6000061,0.1000004,2.8000031,1.2999992,2.8999939,2.7999992v0.4000015
		H215.3000031z"/>
	<path class="st1" d="M233.6999969,19.6000004c8.6999969,0,15.8999939,6.8999996,16,15.3999996
		c0,8.5-7.1999969,15.4000015-16,15.4000015H132.3000031c-8.8000031,0-16-6.9000015-16-15.4000015
		s7.1999969-15.3999996,16-15.3999996H233.6999969 M233.6999969,18.3999996H132.3000031
		c-9.4000015,0-17.1999969,7.3999996-17.1999969,16.6000004c0,9.0999985,7.6999969,16.5999985,17.1999969,16.5999985h101.4000092
		c9.3999939,0,17.1999969-7.4000015,17.1999969-16.5999985C250.6999969,25.7999992,243.1000061,18.3999996,233.6999969,18.3999996
		L233.6999969,18.3999996z"/>
</g>
<g>
	<rect x="282.7999878" y="18.3999996" class="st1" width="135.7999878" height="33.1999969"/>
	<g class="st0">
		<path class="st2" d="M319.2236328,37.1357422l0.1923828,1.3222656l0.2832031-1.1914062l1.9824219-6.9956055h1.1152344
			l1.9345703,6.9956055l0.2753906,1.2119141l0.2138672-1.3496094l1.5556641-6.8579102h1.3291016l-2.4306641,10.0249023h-1.2050781
			l-2.0654297-7.3051758l-0.1582031-0.7646484l-0.1582031,0.7646484l-2.1416016,7.3051758h-1.2041016l-2.4238281-10.0249023
			h1.3212891L319.2236328,37.1357422z"/>
		<path class="st2" d="M329.3789062,30.8696289c0-0.2060547,0.0634766-0.3808594,0.1894531-0.5234375
			c0.1259766-0.1416016,0.3134766-0.2128906,0.5615234-0.2128906s0.4355469,0.0712891,0.5644531,0.2128906
			c0.1279297,0.1425781,0.1923828,0.3173828,0.1923828,0.5234375c0,0.2070312-0.0644531,0.3789062-0.1923828,0.5166016
			c-0.1289062,0.1376953-0.3164062,0.2060547-0.5644531,0.2060547s-0.4355469-0.0683594-0.5615234-0.2060547
			S329.3789062,31.0766602,329.3789062,30.8696289z M330.7558594,40.2958984h-1.2734375v-7.449707h1.2734375V40.2958984z"/>
		<path class="st2" d="M337.1318359,38.3203125c0-0.3447266-0.1298828-0.6123047-0.3886719-0.8027344
			c-0.2597656-0.1904297-0.7119141-0.3544922-1.3564453-0.4921875c-0.6455078-0.1376953-1.1572266-0.3027344-1.5351562-0.4960938
			c-0.3789062-0.1923828-0.6591797-0.421875-0.8408203-0.6889648c-0.1806641-0.265625-0.2714844-0.5820312-0.2714844-0.9492188
			c0-0.6113281,0.2578125-1.1269531,0.7744141-1.5498047c0.5166016-0.421875,1.1757812-0.6328125,1.9794922-0.6328125
			c0.8447266,0,1.5292969,0.2177734,2.0556641,0.6533203c0.5253906,0.4365234,0.7880859,0.9941406,0.7880859,1.6738281h-1.28125
			c0-0.3496094-0.1474609-0.6494141-0.4433594-0.9023438c-0.2958984-0.2519531-0.6689453-0.3789062-1.1191406-0.3789062
			c-0.4638672,0-0.8261719,0.1015625-1.0878906,0.3027344c-0.2617188,0.2021484-0.3925781,0.4667969-0.3925781,0.7919922
			c0,0.3076172,0.1220703,0.5400391,0.3652344,0.6953125c0.2431641,0.15625,0.6826172,0.3056641,1.3183594,0.4482422
			c0.6357422,0.1420898,1.1503906,0.3120117,1.5458984,0.5092773c0.3945312,0.1972656,0.6875,0.4355469,0.8779297,0.7128906
			s0.2851562,0.6162109,0.2851562,1.015625c0,0.6650391-0.265625,1.1992188-0.7988281,1.6005859
			c-0.5322266,0.4013672-1.2226562,0.6025391-2.0722656,0.6025391c-0.5966797,0-1.1240234-0.1054688-1.5830078-0.3164062
			s-0.8183594-0.5068359-1.078125-0.8847656c-0.2587891-0.3789062-0.3886719-0.7890625-0.3886719-1.2294922h1.2734375
			c0.0234375,0.4267578,0.1943359,0.765625,0.5136719,1.015625c0.3183594,0.25,0.7392578,0.375,1.2626953,0.375
			c0.4824219,0,0.8691406-0.0966797,1.1601562-0.2919922C336.9863281,38.90625,337.1318359,38.6455078,337.1318359,38.3203125z"/>
		<path class="st2" d="M341.3388672,33.7475586c0.5644531-0.6923828,1.2988281-1.0390625,2.203125-1.0390625
			c1.5742188,0,2.3681641,0.8876953,2.3818359,2.6640625v4.9233398h-1.2734375v-4.9301758
			c-0.0048828-0.5371094-0.1279297-0.9335938-0.3681641-1.1914062c-0.2412109-0.2568359-0.6162109-0.3857422-1.1259766-0.3857422
			c-0.4130859,0-0.7753906,0.1103516-1.0878906,0.3310547c-0.3125,0.2197266-0.5556641,0.5097656-0.7294922,0.8671875v5.309082
			h-1.2744141V29.7202148h1.2744141V33.7475586z"/>
		<path class="st2" d="M349.2148438,40.2958984h-1.2734375V29.7202148h1.2734375V40.2958984z"/>
		<path class="st2" d="M351.2597656,30.8696289c0-0.2060547,0.0625-0.3808594,0.1894531-0.5234375
			c0.1259766-0.1416016,0.3134766-0.2128906,0.5605469-0.2128906c0.2480469,0,0.4365234,0.0712891,0.5644531,0.2128906
			c0.1289062,0.1425781,0.1933594,0.3173828,0.1933594,0.5234375c0,0.2070312-0.0644531,0.3789062-0.1933594,0.5166016
			c-0.1279297,0.1376953-0.3164062,0.2060547-0.5644531,0.2060547c-0.2470703,0-0.4345703-0.0683594-0.5605469-0.2060547
			C351.3222656,31.2485352,351.2597656,31.0766602,351.2597656,30.8696289z M352.6367188,40.2958984h-1.2734375v-7.449707h1.2734375
			V40.2958984z"/>
		<path class="st2" d="M359.0117188,38.3203125c0-0.3447266-0.1289062-0.6123047-0.3886719-0.8027344
			c-0.2587891-0.1904297-0.7109375-0.3544922-1.3564453-0.4921875c-0.6445312-0.1376953-1.15625-0.3027344-1.5351562-0.4960938
			c-0.3789062-0.1923828-0.6591797-0.421875-0.8398438-0.6889648c-0.1816406-0.265625-0.2724609-0.5820312-0.2724609-0.9492188
			c0-0.6113281,0.2587891-1.1269531,0.7753906-1.5498047c0.515625-0.421875,1.1757812-0.6328125,1.9794922-0.6328125
			c0.84375,0,1.5292969,0.2177734,2.0546875,0.6533203c0.5253906,0.4365234,0.7880859,0.9941406,0.7880859,1.6738281h-1.2802734
			c0-0.3496094-0.1484375-0.6494141-0.4443359-0.9023438c-0.2958984-0.2519531-0.6689453-0.3789062-1.1181641-0.3789062
			c-0.4638672,0-0.8271484,0.1015625-1.0878906,0.3027344c-0.2617188,0.2021484-0.3925781,0.4667969-0.3925781,0.7919922
			c0,0.3076172,0.1210938,0.5400391,0.3642578,0.6953125c0.2431641,0.15625,0.6826172,0.3056641,1.3183594,0.4482422
			c0.6357422,0.1420898,1.1513672,0.3120117,1.5458984,0.5092773S359.8095703,36.9375,360,37.2148438
			s0.2861328,0.6162109,0.2861328,1.015625c0,0.6650391-0.2666016,1.1992188-0.7988281,1.6005859
			s-1.2236328,0.6025391-2.0722656,0.6025391c-0.5966797,0-1.125-0.1054688-1.5839844-0.3164062
			s-0.8183594-0.5068359-1.0771484-0.8847656c-0.2597656-0.3789062-0.3886719-0.7890625-0.3886719-1.2294922h1.2734375
			c0.0224609,0.4267578,0.1933594,0.765625,0.5126953,1.015625s0.7402344,0.375,1.2636719,0.375
			c0.4814453,0,0.8681641-0.0966797,1.1601562-0.2919922C358.8662109,38.90625,359.0117188,38.6455078,359.0117188,38.3203125z"/>
		<path class="st2" d="M363.6738281,31.0415039v1.8046875h1.390625v0.984375h-1.390625v4.6254883
			c0,0.2988281,0.0615234,0.5234375,0.1855469,0.6728516s0.3349609,0.2236328,0.6337891,0.2236328
			c0.1464844,0,0.3486328-0.0273438,0.6054688-0.0820312v1.0263672c-0.3349609,0.0908203-0.6601562,0.1367188-0.9775391,0.1367188
			c-0.5693359,0-0.9980469-0.171875-1.2871094-0.5166016c-0.2890625-0.34375-0.4335938-0.8330078-0.4335938-1.4658203v-4.6206055
			h-1.3564453v-0.984375h1.3564453v-1.8046875H363.6738281z"/>
	</g>
	<path class="st2" d="M380.3999939,29.3999996c-1.2000122,0-2.2999878,0.3999996-3.1000061,1.2000008
		c-0.7999878-0.7999992-2.1000061-1.2999992-3.1000061-1.2000008c-2.2000122,0.1000004-4,1.7999992-4.1000061,3.8999996v0.5
		c0,0.7999992,0.2999878,1.5999985,0.8999939,2.2000008l5.5,6.0999985c0.2000122,0.2000008,0.6000061,0.2999992,0.7999878,0.2999992
		c0.2999878,0,0.5-0.0999985,0.7999878-0.2999992l5.5-6.0999985c0.6000061-0.7000008,0.8999939-1.5,0.8999939-2.2000008v-0.5
		C384.2999878,31.1000004,382.5,29.3999996,380.3999939,29.3999996z M380.2999878,30.6000004
		c1.6000061,0.1000004,2.7999878,1.2999992,2.8999939,2.8000011v0.4000015c0,0.5-0.2000122,1-0.6000061,1.2999992l-5.3999939,6
		l-5.3999939-6c-0.3999939-0.4000015-0.6000061-0.7999992-0.6000061-1.2999992v-0.4000015
		c0.1000061-1.5,1.2999878-2.7000008,2.8999939-2.7999992h0.1000061c1,0,1.8999939,0.3999996,2.5,1.2999992
		c0.1000061,0.2000008,0.2999878,0.2999992,0.5,0.2999992l0,0c0.2000122,0,0.3999939-0.0999985,0.5-0.2999992
		C378.2999878,31.1000004,379.2999878,30.6000004,380.2999878,30.6000004z"/>
</g>
</svg>
