<?xml version="1.0" encoding="utf-8"?>
<!-- Generator: Adobe Illustrator 21.0.0, SVG Export Plug-In . SVG Version: 6.00 Build 0)  -->
<svg version="1.1" id="Layer_1" xmlns="http://www.w3.org/2000/svg" width="430" height="80" xmlns:xlink="http://www.w3.org/1999/xlink" x="0px" y="0px"
	 viewBox="0 0 430 70" style="enable-background:new 0 0 430 70;" xml:space="preserve">
<style type="text/css">
	.st0{enable-background:new    ;}
	.st1{fill:#222222;}
	.st2{fill:none;stroke:#222222;stroke-width:1.2;stroke-miterlimit:10;}
	.st3{fill:#FFFFFF;}
</style>
<g>
	<g class="st0">
		<path class="st1" d="M31.480957,44.5097656l0.1923828,1.3222656l0.2827148-1.1914062l1.9829102-6.9951172h1.1152344
			l1.9345703,6.9951172l0.2753906,1.2119141l0.2133789-1.3496094l1.5561523-6.8574219h1.3286133l-2.4301758,10.0244141h-1.2050781
			l-2.0654297-7.3046875l-0.1582031-0.7646484l-0.1586914,0.7646484l-2.1411133,7.3046875h-1.2045898l-2.4238281-10.0244141
			h1.3217773L31.480957,44.5097656z"/>
		<path class="st1" d="M41.6362305,38.2441406c0-0.2060547,0.0629883-0.3808594,0.1894531-0.5234375
			c0.1259766-0.1416016,0.3134766-0.2128906,0.5610352-0.2128906c0.2480469,0,0.4360352,0.0712891,0.5644531,0.2128906
			c0.128418,0.1425781,0.1928711,0.3173828,0.1928711,0.5234375c0,0.2070312-0.0644531,0.3789062-0.1928711,0.5166016
			s-0.3164062,0.2060547-0.5644531,0.2060547c-0.2475586,0-0.4350586-0.0683594-0.5610352-0.2060547
			C41.6992188,38.6230469,41.6362305,38.4511719,41.6362305,38.2441406z M43.0131836,47.6699219h-1.2734375v-7.4492188h1.2734375
			V47.6699219z"/>
		<path class="st1" d="M49.3886719,45.6943359c0-0.3447266-0.1293945-0.6123047-0.3886719-0.8027344
			s-0.7114258-0.3544922-1.3564453-0.4921875s-1.1567383-0.3027344-1.5351562-0.4960938
			c-0.3789062-0.1923828-0.6591797-0.421875-0.840332-0.6884766c-0.1811523-0.265625-0.2719727-0.5820312-0.2719727-0.9492188
			c0-0.6113281,0.2583008-1.1269531,0.7749023-1.5498047c0.5161133-0.421875,1.1757812-0.6328125,1.9794922-0.6328125
			c0.8442383,0,1.5292969,0.2177734,2.0551758,0.6533203c0.5253906,0.4365234,0.7880859,0.9941406,0.7880859,1.6738281h-1.2807617
			c0-0.3496094-0.1479492-0.6494141-0.4438477-0.9023438c-0.2958984-0.2519531-0.6689453-0.3789062-1.1186523-0.3789062
			c-0.4638672,0-0.8266602,0.1015625-1.0878906,0.3027344c-0.2617188,0.2021484-0.3925781,0.4667969-0.3925781,0.7919922
			c0,0.3076172,0.121582,0.5400391,0.3647461,0.6953125c0.2431641,0.15625,0.6826172,0.3056641,1.3183594,0.4482422
			c0.6357422,0.1416016,1.1508789,0.3115234,1.5458984,0.5087891c0.3945312,0.1972656,0.6875,0.4355469,0.8779297,0.7128906
			s0.2856445,0.6162109,0.2856445,1.015625c0,0.6650391-0.2661133,1.1992188-0.7988281,1.6005859
			c-0.5322266,0.4013672-1.2231445,0.6025391-2.0722656,0.6025391c-0.5966797,0-1.1245117-0.1054688-1.5834961-0.3164062
			s-0.8183594-0.5068359-1.0776367-0.8847656c-0.2592773-0.3789062-0.3886719-0.7890625-0.3886719-1.2294922h1.2734375
			c0.0229492,0.4267578,0.1938477,0.765625,0.5131836,1.015625c0.3188477,0.25,0.7397461,0.375,1.2631836,0.375
			c0.4819336,0,0.8686523-0.0966797,1.1601562-0.2919922S49.3886719,46.0195312,49.3886719,45.6943359z"/>
		<path class="st1" d="M53.5957031,41.1220703c0.5644531-0.6923828,1.2988281-1.0390625,2.203125-1.0390625
			c1.5742188,0,2.3681641,0.8876953,2.3823242,2.6640625v4.9228516h-1.2739258v-4.9296875
			c-0.0043945-0.5371094-0.1274414-0.9335938-0.3681641-1.1914062c-0.2412109-0.2568359-0.6162109-0.3857422-1.1259766-0.3857422
			c-0.4130859,0-0.7753906,0.1103516-1.0878906,0.3310547c-0.3120117,0.2197266-0.5551758,0.5097656-0.7294922,0.8671875v5.3085938
			h-1.2739258V37.0947266h1.2739258V41.1220703z"/>
		<path class="st1" d="M61.4716797,47.6699219h-1.2734375V37.0947266h1.2734375V47.6699219z"/>
		<path class="st1" d="M63.5166016,38.2441406c0-0.2060547,0.0629883-0.3808594,0.1894531-0.5234375
			c0.1259766-0.1416016,0.3134766-0.2128906,0.5610352-0.2128906c0.2480469,0,0.4360352,0.0712891,0.5644531,0.2128906
			c0.128418,0.1425781,0.1928711,0.3173828,0.1928711,0.5234375c0,0.2070312-0.0644531,0.3789062-0.1928711,0.5166016
			s-0.3164062,0.2060547-0.5644531,0.2060547c-0.2475586,0-0.4350586-0.0683594-0.5610352-0.2060547
			C63.5795898,38.6230469,63.5166016,38.4511719,63.5166016,38.2441406z M64.8935547,47.6699219h-1.2734375v-7.4492188h1.2734375
			V47.6699219z"/>
		<path class="st1" d="M71.269043,45.6943359c0-0.3447266-0.1293945-0.6123047-0.3886719-0.8027344
			s-0.7114258-0.3544922-1.3564453-0.4921875s-1.1567383-0.3027344-1.5351562-0.4960938
			c-0.3789062-0.1923828-0.6591797-0.421875-0.840332-0.6884766c-0.1811523-0.265625-0.2719727-0.5820312-0.2719727-0.9492188
			c0-0.6113281,0.2583008-1.1269531,0.7749023-1.5498047c0.5161133-0.421875,1.1757812-0.6328125,1.9794922-0.6328125
			c0.8442383,0,1.5292969,0.2177734,2.0551758,0.6533203c0.5253906,0.4365234,0.7880859,0.9941406,0.7880859,1.6738281h-1.2807617
			c0-0.3496094-0.1479492-0.6494141-0.4438477-0.9023438c-0.2958984-0.2519531-0.6689453-0.3789062-1.1186523-0.3789062
			c-0.4638672,0-0.8266602,0.1015625-1.0878906,0.3027344c-0.2617188,0.2021484-0.3925781,0.4667969-0.3925781,0.7919922
			c0,0.3076172,0.121582,0.5400391,0.3647461,0.6953125c0.2431641,0.15625,0.6826172,0.3056641,1.3183594,0.4482422
			c0.6357422,0.1416016,1.1508789,0.3115234,1.5458984,0.5087891c0.3945312,0.1972656,0.6875,0.4355469,0.8779297,0.7128906
			s0.2856445,0.6162109,0.2856445,1.015625c0,0.6650391-0.2661133,1.1992188-0.7988281,1.6005859
			c-0.5322266,0.4013672-1.2231445,0.6025391-2.0722656,0.6025391c-0.5966797,0-1.1245117-0.1054688-1.5834961-0.3164062
			s-0.8183594-0.5068359-1.0776367-0.8847656c-0.2592773-0.3789062-0.3886719-0.7890625-0.3886719-1.2294922h1.2734375
			c0.0229492,0.4267578,0.1938477,0.765625,0.5131836,1.015625c0.3188477,0.25,0.7397461,0.375,1.2631836,0.375
			c0.4819336,0,0.8686523-0.0966797,1.1601562-0.2919922S71.269043,46.0195312,71.269043,45.6943359z"/>
		<path class="st1" d="M75.9306641,38.4160156v1.8046875h1.3911133v0.984375h-1.3911133v4.625
			c0,0.2988281,0.0620117,0.5234375,0.1860352,0.6728516S76.4516602,46.7265625,76.75,46.7265625
			c0.1469727,0,0.3491211-0.0273438,0.605957-0.0820312v1.0263672c-0.3349609,0.0908203-0.6606445,0.1367188-0.9775391,0.1367188
			c-0.5693359,0-0.9985352-0.171875-1.2875977-0.5166016c-0.2890625-0.34375-0.4335938-0.8330078-0.4335938-1.4658203v-4.6201172
			h-1.3564453v-0.984375h1.3564453v-1.8046875H75.9306641z"/>
	</g>
	<path class="st1" d="M60.2000008,22.3999996C60,20.1999989,58.2000008,18.5,56.1000023,18.5
		c-1.2000008,0-2.2999992,0.3999996-3.0999985,1.2000008C52.2000046,18.9000015,50.9000053,18.4000015,49.9000053,18.5
		c-2.2000008,0.1000004-4,1.7999992-4.0999985,3.8999996v0.5c0,0.7999992,0.2999992,1.6000004,0.9000015,2.2000008l5.5,6.1000004
		C52.4000092,31.4000015,52.8000069,31.5,53.0000076,31.5c0.2999992,0,0.5-0.1000004,0.7999992-0.2999992l5.5-6.1000004
		c0.5999985-0.7000008,0.9000015-1.5,0.9000015-2.2000008L60.2000008,22.3999996L60.2000008,22.3999996z M58.9000015,22.5v0.3999996
		c0,0.5-0.2000008,1-0.5999985,1.2999992l-5.4000015,6l-5.4000015-6c-0.4000015-0.3999996-0.5999985-0.7999992-0.5999985-1.2999992
		V22.5C47,21,48.2000008,19.7999992,49.8000031,19.7000008h0.0999985c1,0,1.9000015,0.3999996,2.5,1.2999992
		c0.0999985,0.2000008,0.2999992,0.2999992,0.5,0.2999992l0,0c0.2000008,0,0.4000015-0.1000004,0.5-0.2999992
		c0.5999985-0.7999992,1.5-1.2999992,2.5-1.2999992C57.5999985,19.7999992,58.7999992,21,58.9000015,22.5z"/>
</g>
<g>
	<path class="st2" d="M229.5,62h-81.8000031c-14.8999939,0-27-12.0999985-27-27l0,0c0-14.8999996,12.1000061-27,27-27H229.5
		c14.8999939,0,27,12.1000004,27,27l0,0C256.5,49.9000015,244.3999939,62,229.5,62z"/>
	<g class="st0">
		<path class="st1" d="M167.2807617,44.5097656l0.1923828,1.3222656l0.2827148-1.1914062l1.9829102-6.9951172h1.1152344
			l1.9345703,6.9951172l0.2753906,1.2119141l0.2133789-1.3496094l1.5561523-6.8574219h1.3286133l-2.4301758,10.0244141h-1.2050781
			l-2.0654297-7.3046875l-0.1582031-0.7646484l-0.1586914,0.7646484l-2.1411133,7.3046875h-1.2045898L164.375,37.6455078h1.3217773
			L167.2807617,44.5097656z"/>
		<path class="st1" d="M177.4360352,38.2441406c0-0.2060547,0.0629883-0.3808594,0.1894531-0.5234375
			c0.1259766-0.1416016,0.3134766-0.2128906,0.5610352-0.2128906c0.2480469,0,0.4360352,0.0712891,0.5644531,0.2128906
			c0.128418,0.1425781,0.1928711,0.3173828,0.1928711,0.5234375c0,0.2070312-0.0644531,0.3789062-0.1928711,0.5166016
			s-0.3164062,0.2060547-0.5644531,0.2060547c-0.2475586,0-0.4350586-0.0683594-0.5610352-0.2060547
			C177.4990234,38.6230469,177.4360352,38.4511719,177.4360352,38.2441406z M178.8129883,47.6699219h-1.2734375v-7.4492188
			h1.2734375V47.6699219z"/>
		<path class="st1" d="M185.1884766,45.6943359c0-0.3447266-0.1293945-0.6123047-0.3886719-0.8027344
			s-0.7114258-0.3544922-1.3564453-0.4921875s-1.1567383-0.3027344-1.5351562-0.4960938
			c-0.3789062-0.1923828-0.6591797-0.421875-0.840332-0.6884766c-0.1811523-0.265625-0.2719727-0.5820312-0.2719727-0.9492188
			c0-0.6113281,0.2583008-1.1269531,0.7749023-1.5498047c0.5161133-0.421875,1.1757812-0.6328125,1.9794922-0.6328125
			c0.8442383,0,1.5292969,0.2177734,2.0551758,0.6533203c0.5253906,0.4365234,0.7880859,0.9941406,0.7880859,1.6738281h-1.2807617
			c0-0.3496094-0.1479492-0.6494141-0.4438477-0.9023438C184.3730469,41.2558594,184,41.1289062,183.550293,41.1289062
			c-0.4638672,0-0.8266602,0.1015625-1.0878906,0.3027344c-0.2617188,0.2021484-0.3925781,0.4667969-0.3925781,0.7919922
			c0,0.3076172,0.121582,0.5400391,0.3647461,0.6953125c0.2431641,0.15625,0.6826172,0.3056641,1.3183594,0.4482422
			c0.6357422,0.1416016,1.1508789,0.3115234,1.5458984,0.5087891c0.3945312,0.1972656,0.6875,0.4355469,0.8779297,0.7128906
			s0.2856445,0.6162109,0.2856445,1.015625c0,0.6650391-0.2661133,1.1992188-0.7988281,1.6005859
			c-0.5322266,0.4013672-1.2231445,0.6025391-2.0722656,0.6025391c-0.5966797,0-1.1245117-0.1054688-1.5834961-0.3164062
			s-0.8183594-0.5068359-1.0776367-0.8847656c-0.2592773-0.3789062-0.3886719-0.7890625-0.3886719-1.2294922h1.2734375
			c0.0229492,0.4267578,0.1938477,0.765625,0.5131836,1.015625c0.3188477,0.25,0.7397461,0.375,1.2631836,0.375
			c0.4819336,0,0.8686523-0.0966797,1.1601562-0.2919922S185.1884766,46.0195312,185.1884766,45.6943359z"/>
		<path class="st1" d="M189.3955078,41.1220703c0.5644531-0.6923828,1.2988281-1.0390625,2.203125-1.0390625
			c1.5742188,0,2.3681641,0.8876953,2.3823242,2.6640625v4.9228516h-1.2739258v-4.9296875
			c-0.0043945-0.5371094-0.1274414-0.9335938-0.3681641-1.1914062c-0.2412109-0.2568359-0.6162109-0.3857422-1.1259766-0.3857422
			c-0.4130859,0-0.7753906,0.1103516-1.0878906,0.3310547c-0.3120117,0.2197266-0.5551758,0.5097656-0.7294922,0.8671875v5.3085938
			h-1.2739258V37.0947266h1.2739258V41.1220703z"/>
		<path class="st1" d="M197.2714844,47.6699219h-1.2734375V37.0947266h1.2734375V47.6699219z"/>
		<path class="st1" d="M199.3164062,38.2441406c0-0.2060547,0.0629883-0.3808594,0.1894531-0.5234375
			c0.1259766-0.1416016,0.3134766-0.2128906,0.5610352-0.2128906c0.2480469,0,0.4360352,0.0712891,0.5644531,0.2128906
			c0.128418,0.1425781,0.1928711,0.3173828,0.1928711,0.5234375c0,0.2070312-0.0644531,0.3789062-0.1928711,0.5166016
			s-0.3164062,0.2060547-0.5644531,0.2060547c-0.2475586,0-0.4350586-0.0683594-0.5610352-0.2060547
			C199.3793945,38.6230469,199.3164062,38.4511719,199.3164062,38.2441406z M200.6933594,47.6699219h-1.2734375v-7.4492188
			h1.2734375V47.6699219z"/>
		<path class="st1" d="M207.0688477,45.6943359c0-0.3447266-0.1293945-0.6123047-0.3886719-0.8027344
			s-0.7114258-0.3544922-1.3564453-0.4921875s-1.1567383-0.3027344-1.5351562-0.4960938
			c-0.3789062-0.1923828-0.6591797-0.421875-0.840332-0.6884766c-0.1811523-0.265625-0.2719727-0.5820312-0.2719727-0.9492188
			c0-0.6113281,0.2583008-1.1269531,0.7749023-1.5498047c0.5161133-0.421875,1.1757812-0.6328125,1.9794922-0.6328125
			c0.8442383,0,1.5292969,0.2177734,2.0551758,0.6533203c0.5253906,0.4365234,0.7880859,0.9941406,0.7880859,1.6738281h-1.2807617
			c0-0.3496094-0.1479492-0.6494141-0.4438477-0.9023438c-0.2958984-0.2519531-0.6689453-0.3789062-1.1186523-0.3789062
			c-0.4638672,0-0.8266602,0.1015625-1.0878906,0.3027344c-0.2617188,0.2021484-0.3925781,0.4667969-0.3925781,0.7919922
			c0,0.3076172,0.121582,0.5400391,0.3647461,0.6953125c0.2431641,0.15625,0.6826172,0.3056641,1.3183594,0.4482422
			c0.6357422,0.1416016,1.1508789,0.3115234,1.5458984,0.5087891c0.3945312,0.1972656,0.6875,0.4355469,0.8779297,0.7128906
			s0.2856445,0.6162109,0.2856445,1.015625c0,0.6650391-0.2661133,1.1992188-0.7988281,1.6005859
			c-0.5322266,0.4013672-1.2231445,0.6025391-2.0722656,0.6025391c-0.5966797,0-1.1245117-0.1054688-1.5834961-0.3164062
			s-0.8183594-0.5068359-1.0776367-0.8847656c-0.2592773-0.3789062-0.3886719-0.7890625-0.3886719-1.2294922h1.2734375
			c0.0229492,0.4267578,0.1938477,0.765625,0.5131836,1.015625c0.3188477,0.25,0.7397461,0.375,1.2631836,0.375
			c0.4819336,0,0.8686523-0.0966797,1.1601562-0.2919922S207.0688477,46.0195312,207.0688477,45.6943359z"/>
		<path class="st1" d="M211.7304688,38.4160156v1.8046875h1.3911133v0.984375h-1.3911133v4.625
			c0,0.2988281,0.0620117,0.5234375,0.1860352,0.6728516s0.3349609,0.2236328,0.6333008,0.2236328
			c0.1469727,0,0.3491211-0.0273438,0.605957-0.0820312v1.0263672c-0.3349609,0.0908203-0.6606445,0.1367188-0.9775391,0.1367188
			c-0.5693359,0-0.9985352-0.171875-1.2875977-0.5166016c-0.2890625-0.34375-0.4335938-0.8330078-0.4335938-1.4658203v-4.6201172
			h-1.3564453v-0.984375h1.3564453v-1.8046875H211.7304688z"/>
	</g>
	<path class="st1" d="M196,22.3999996C195.8000031,20.1999989,194,18.5,191.8999939,18.5
		c-1.1999969,0-2.3000031,0.3999996-3.1000061,1.2000008c-0.8000031-0.7999992-2.1000061-1.2999992-3.1000061-1.2000008
		c-2.1999969,0.1000004-4,1.7999992-4.1000061,3.8999996v0.5c0,0.7999992,0.3000031,1.6000004,0.8999939,2.2000008l5.5,6.1000004
		C188.1999664,31.4000015,188.5999756,31.5,188.7999725,31.5c0.3000031,0,0.5-0.1000004,0.8000031-0.2999992l5.5-6.1000004
		c0.6000061-0.7000008,0.8999939-1.5,0.8999939-2.2000008L196,22.3999996L196,22.3999996z M194.6999969,22.5v0.3999996
		c0,0.5-0.1999969,1-0.6000061,1.2999992l-5.3999939,6l-5.3999939-6c-0.3999939-0.3999996-0.6000061-0.7999992-0.6000061-1.2999992
		V22.5C182.8000031,21,184,19.7999992,185.5999908,19.7000008h0.1000061c1,0,1.8999939,0.3999996,2.5,1.2999992
		c0.1000061,0.2000008,0.3000031,0.2999992,0.5,0.2999992l0,0c0.1999969,0,0.3999939-0.1000004,0.5-0.2999992
		c0.6000061-0.7999992,1.5-1.2999992,2.5-1.2999992C193.3999939,19.7999992,194.6000061,21,194.6999969,22.5z"/>
</g>
<g>
	<rect x="282.2000122" y="7.9000001" class="st1" width="135.7999878" height="54"/>
	<g class="st0">
		<path class="st3" d="M328.6308594,44.5097656l0.1923828,1.3222656l0.2822266-1.1914062l1.9833984-6.9951172h1.1152344
			l1.9345703,6.9951172l0.2753906,1.2119141l0.2128906-1.3496094l1.5566406-6.8574219h1.328125l-2.4296875,10.0244141h-1.2050781
			l-2.0654297-7.3046875l-0.1582031-0.7646484l-0.1591797,0.7646484l-2.140625,7.3046875h-1.2050781l-2.4238281-10.0244141
			h1.3222656L328.6308594,44.5097656z"/>
		<path class="st3" d="M338.7861328,38.2441406c0-0.2060547,0.0625-0.3808594,0.1894531-0.5234375
			c0.1259766-0.1416016,0.3134766-0.2128906,0.5605469-0.2128906c0.2480469,0,0.4365234,0.0712891,0.5644531,0.2128906
			c0.1289062,0.1425781,0.1933594,0.3173828,0.1933594,0.5234375c0,0.2070312-0.0644531,0.3789062-0.1933594,0.5166016
			c-0.1279297,0.1376953-0.3164062,0.2060547-0.5644531,0.2060547c-0.2470703,0-0.4345703-0.0683594-0.5605469-0.2060547
			C338.8486328,38.6230469,338.7861328,38.4511719,338.7861328,38.2441406z M340.1630859,47.6699219h-1.2734375v-7.4492188
			h1.2734375V47.6699219z"/>
		<path class="st3" d="M346.5380859,45.6943359c0-0.3447266-0.1289062-0.6123047-0.3886719-0.8027344
			c-0.2587891-0.1904297-0.7109375-0.3544922-1.3564453-0.4921875c-0.6445312-0.1376953-1.15625-0.3027344-1.5351562-0.4960938
			c-0.3789062-0.1923828-0.6591797-0.421875-0.8398438-0.6884766c-0.1816406-0.265625-0.2724609-0.5820312-0.2724609-0.9492188
			c0-0.6113281,0.2587891-1.1269531,0.7753906-1.5498047c0.515625-0.421875,1.1757812-0.6328125,1.9794922-0.6328125
			c0.84375,0,1.5292969,0.2177734,2.0546875,0.6533203c0.5253906,0.4365234,0.7880859,0.9941406,0.7880859,1.6738281h-1.2802734
			c0-0.3496094-0.1484375-0.6494141-0.4443359-0.9023438c-0.2958984-0.2519531-0.6689453-0.3789062-1.1181641-0.3789062
			c-0.4638672,0-0.8271484,0.1015625-1.0878906,0.3027344c-0.2617188,0.2021484-0.3925781,0.4667969-0.3925781,0.7919922
			c0,0.3076172,0.1210938,0.5400391,0.3642578,0.6953125c0.2431641,0.15625,0.6826172,0.3056641,1.3183594,0.4482422
			c0.6357422,0.1416016,1.1513672,0.3115234,1.5458984,0.5087891s0.6875,0.4355469,0.8779297,0.7128906
			s0.2861328,0.6162109,0.2861328,1.015625c0,0.6650391-0.2666016,1.1992188-0.7988281,1.6005859
			s-1.2236328,0.6025391-2.0722656,0.6025391c-0.5966797,0-1.125-0.1054688-1.5839844-0.3164062
			s-0.8183594-0.5068359-1.0771484-0.8847656c-0.2597656-0.3789062-0.3886719-0.7890625-0.3886719-1.2294922h1.2734375
			c0.0224609,0.4267578,0.1933594,0.765625,0.5126953,1.015625s0.7402344,0.375,1.2636719,0.375
			c0.4814453,0,0.8681641-0.0966797,1.1601562-0.2919922C346.3925781,46.2802734,346.5380859,46.0195312,346.5380859,45.6943359z"/>
		<path class="st3" d="M350.7451172,41.1220703c0.5644531-0.6923828,1.2988281-1.0390625,2.203125-1.0390625
			c1.5742188,0,2.3681641,0.8876953,2.3828125,2.6640625v4.9228516h-1.2744141v-4.9296875
			c-0.0039062-0.5371094-0.1269531-0.9335938-0.3681641-1.1914062c-0.2412109-0.2568359-0.6162109-0.3857422-1.1259766-0.3857422
			c-0.4130859,0-0.7753906,0.1103516-1.0878906,0.3310547c-0.3115234,0.2197266-0.5546875,0.5097656-0.7294922,0.8671875v5.3085938
			h-1.2734375V37.0947266h1.2734375V41.1220703z"/>
		<path class="st3" d="M358.6210938,47.6699219h-1.2734375V37.0947266h1.2734375V47.6699219z"/>
		<path class="st3" d="M360.6660156,38.2441406c0-0.2060547,0.0634766-0.3808594,0.1894531-0.5234375
			c0.1259766-0.1416016,0.3134766-0.2128906,0.5615234-0.2128906s0.4355469,0.0712891,0.5644531,0.2128906
			c0.1279297,0.1425781,0.1923828,0.3173828,0.1923828,0.5234375c0,0.2070312-0.0644531,0.3789062-0.1923828,0.5166016
			c-0.1289062,0.1376953-0.3164062,0.2060547-0.5644531,0.2060547s-0.4355469-0.0683594-0.5615234-0.2060547
			S360.6660156,38.4511719,360.6660156,38.2441406z M362.0429688,47.6699219h-1.2734375v-7.4492188h1.2734375V47.6699219z"/>
		<path class="st3" d="M368.4189453,45.6943359c0-0.3447266-0.1298828-0.6123047-0.3886719-0.8027344
			c-0.2597656-0.1904297-0.7119141-0.3544922-1.3564453-0.4921875c-0.6455078-0.1376953-1.1572266-0.3027344-1.5351562-0.4960938
			c-0.3789062-0.1923828-0.6591797-0.421875-0.8408203-0.6884766c-0.1806641-0.265625-0.2714844-0.5820312-0.2714844-0.9492188
			c0-0.6113281,0.2578125-1.1269531,0.7744141-1.5498047c0.5166016-0.421875,1.1757812-0.6328125,1.9794922-0.6328125
			c0.8447266,0,1.5292969,0.2177734,2.0556641,0.6533203c0.5253906,0.4365234,0.7880859,0.9941406,0.7880859,1.6738281h-1.28125
			c0-0.3496094-0.1474609-0.6494141-0.4433594-0.9023438c-0.2958984-0.2519531-0.6689453-0.3789062-1.1191406-0.3789062
			c-0.4638672,0-0.8261719,0.1015625-1.0878906,0.3027344c-0.2617188,0.2021484-0.3925781,0.4667969-0.3925781,0.7919922
			c0,0.3076172,0.1220703,0.5400391,0.3652344,0.6953125c0.2431641,0.15625,0.6826172,0.3056641,1.3183594,0.4482422
			c0.6357422,0.1416016,1.1503906,0.3115234,1.5458984,0.5087891c0.3945312,0.1972656,0.6875,0.4355469,0.8779297,0.7128906
			s0.2851562,0.6162109,0.2851562,1.015625c0,0.6650391-0.265625,1.1992188-0.7988281,1.6005859
			c-0.5322266,0.4013672-1.2226562,0.6025391-2.0722656,0.6025391c-0.5966797,0-1.1240234-0.1054688-1.5830078-0.3164062
			s-0.8183594-0.5068359-1.078125-0.8847656c-0.2587891-0.3789062-0.3886719-0.7890625-0.3886719-1.2294922h1.2734375
			c0.0234375,0.4267578,0.1943359,0.765625,0.5136719,1.015625c0.3183594,0.25,0.7392578,0.375,1.2626953,0.375
			c0.4824219,0,0.8691406-0.0966797,1.1601562-0.2919922C368.2734375,46.2802734,368.4189453,46.0195312,368.4189453,45.6943359z"/>
		<path class="st3" d="M373.0800781,38.4160156v1.8046875h1.3916016v0.984375h-1.3916016v4.625
			c0,0.2988281,0.0625,0.5234375,0.1865234,0.6728516s0.3349609,0.2236328,0.6328125,0.2236328
			c0.1474609,0,0.3496094-0.0273438,0.6064453-0.0820312v1.0263672c-0.3349609,0.0908203-0.6611328,0.1367188-0.9775391,0.1367188
			c-0.5693359,0-0.9990234-0.171875-1.2880859-0.5166016c-0.2890625-0.34375-0.4335938-0.8330078-0.4335938-1.4658203v-4.6201172
			h-1.3564453v-0.984375h1.3564453v-1.8046875H373.0800781z"/>
	</g>
	<path class="st3" d="M357.2999878,22.3999996c-0.2000122-2.2000008-2-3.8999996-4.1000061-3.8999996
		c-1.2000122,0-2.2999878,0.3999996-3.1000061,1.2000008c-0.7999878-0.7999992-2.1000061-1.2999992-3.1000061-1.2000008
		c-2.2000122,0.1000004-4,1.7999992-4.1000061,3.8999996v0.5c0,0.7999992,0.2999878,1.6000004,0.8999939,2.2000008l5.5,6.1000004
		C349.4999695,31.4000015,349.8999634,31.5,350.0999451,31.5c0.2999878,0,0.5-0.1000004,0.7999878-0.2999992l5.5-6.1000004
		c0.6000061-0.7000008,0.8999939-1.5,0.8999939-2.2000008L357.2999878,22.3999996L357.2999878,22.3999996z M356,22.5v0.3999996
		c0,0.5-0.2000122,1-0.6000061,1.2999992l-5.3999939,6l-5.3999939-6C344.2000122,23.7999992,344,23.3999996,344,22.8999996V22.5
		c0.1000061-1.5,1.2999878-2.7000008,2.8999939-2.7999992H347c1,0,1.8999939,0.3999996,2.5,1.2999992
		c0.1000061,0.2000008,0.2999878,0.2999992,0.5,0.2999992l0,0c0.2000122,0,0.3999939-0.1000004,0.5-0.2999992
		c0.6000061-0.7999992,1.5-1.2999992,2.5-1.2999992C354.7000122,19.7999992,356,21,356,22.5z"/>
</g>
</svg>
