<?xml version="1.0" encoding="utf-8"?>
<!-- Generator: Adobe Illustrator 21.0.0, SVG Export Plug-In . SVG Version: 6.00 Build 0)  -->
<svg version="1.1" id="Layer_1" xmlns="http://www.w3.org/2000/svg" width="50" height="50" xmlns:xlink="http://www.w3.org/1999/xlink" x="0px" y="0px"
	 viewBox="0 0 50 50" style="enable-background:new 0 0 50 50;" xml:space="preserve">
<style type="text/css">
	.st0{fill:#222222;}
</style>
<path class="st0" d="M39.9000015,21.5C39.7000008,20.8999996,39.2000008,20.3999996,38.5,20.2999992l-8.2999992-1.2000008
	l-3.7000008-7.5c-0.2999992-0.6000004-0.8999996-1-1.5-1s-1.2000008,0.3999996-1.5,1l-3.7000008,7.5l-8.3000002,1.2000008
	c-0.6000004,0.1000004-1.1999998,0.5-1.3999996,1.2000008c-0.1999998,0.6000004,0,1.2999992,0.5,1.7999992l5.999999,5.7999992
	l-1.3999996,8.2000008c-0.1000004,0.5,0.1000004,1,0.3999996,1.4000015c0.5,0.5999985,1.3999996,0.7999992,2.1000004,0.4000015
	l7.3999996-3.9000015L32.5,39.1000023c0.2000008,0.0999985,0.5,0.2000008,0.7999992,0.2000008
	c0.5,0,1-0.2000008,1.2999992-0.5999985c0.2999992-0.4000015,0.5-0.9000015,0.4000015-1.4000015l-1.4000015-8.2999992l6-5.7999992
	C40,22.7999992,40.0999985,22.1000004,39.9000015,21.5z M16.7000008,37.5999985l1.5-8.7000008
	c0.1000004-0.2999992,0-0.5-0.2000008-0.7000008l-6.3000002-6.1000004c0,0,0,0,0-0.1000004l0,0l8.6999998-1.2999992
	c0.2999992,0,0.5-0.2000008,0.6000004-0.5l3.8999996-8v-0.1000004c0,0,0,0,0,0.1000004l3.8999996,7.8999996
	c0.1000004,0.2000008,0.3999996,0.3999996,0.6000004,0.5l8.6999989,1.2999992c0,0,0,0,0,0.1000004s0,0.1000004,0,0.1000004
	L32,28.2000008c-0.2000008,0.2000008-0.2999992,0.5-0.2000008,0.7000008l1.5,8.7000008v0.0999985l0,0l-7.8999996-4.0999985
	c-0.2000008-0.0999985-0.5-0.0999985-0.7999992,0L16.7000008,37.5999985L16.7000008,37.5999985
	C16.7000008,37.7000008,16.7000008,37.7000008,16.7000008,37.5999985z"/>
</svg>
