<?xml version="1.0" encoding="utf-8"?>
<!-- Generator: Adobe Illustrator 21.0.0, SVG Export Plug-In . SVG Version: 6.00 Build 0)  -->
<svg version="1.1" id="Layer_1" xmlns="http://www.w3.org/2000/svg" width="50" height="50" xmlns:xlink="http://www.w3.org/1999/xlink" x="0px" y="0px"
	 viewBox="0 0 50 50" style="enable-background:new 0 0 50 50;" xml:space="preserve">
<style type="text/css">
	.st0{fill:#222222;}
</style>
<path class="st0" d="M40.0999985,19.3999996c-0.2999992-4.3999996-4-7.8999996-8.3999996-8
	c-2.3999996-0.1000004-4.8999996,0.8999996-6.6000004,2.6999998c-1.7999992-1.8000002-4.2000008-2.8000002-6.6000004-2.6999998
	C14.0999985,11.5,10.3999977,15,10.0999985,19.3999996c0,0.3999996,0,0.7999992,0,1.1000004
	c0.1000004,1.6000004,0.6999998,3.1000004,1.8999996,4.3999996L23.6000004,38C23.8999996,38.4000015,24.5,38.5999985,25,38.5999985
	S26,38.3999977,26.3999996,38l11.8000011-13.1000004C39.2999992,23.6000004,40,22.1000004,40.1000023,20.5
	C40.0999985,20.2000008,40.0999985,19.7999992,40.0999985,19.3999996z M18.6000004,13.1999998
	c2.2000008,0,4.3000011,1.1000004,5.6000004,2.9000006C24.4000015,16.3000011,24.6000004,16.5,24.9000015,16.5
	c0.2999992,0,0.6000004-0.1000004,0.7000008-0.3999996c1.2999992-1.8999996,3.5-3,5.7999992-2.8999996
	c3.4000015,0.1000004,6.4000015,2.8999996,6.7000008,6.2999992c0,0.2999992,0,0.6000004,0,0.8999996
	c-0.0999985,1.2000008-0.5999985,2.2999992-1.4000015,3.2000008L25.1000004,36.7999992H25L13.1000004,23.7000008
	C12.3000002,22.8000011,11.8000002,21.6000004,11.7000008,20.5c0-0.2999992,0-0.6000004,0-0.8999996
	c0.3000002-3.5,3.1999998-6.1999998,6.6000004-6.3000002h0.2999992V13.1999998z"/>
</svg>
