<svg width="300" height="90" viewBox="0 0 100 30" fill="none" xmlns="http://www.w3.org/2000/svg">
<path d="M100 0H0V30H100V0Z" fill="white"/>
<path d="M15.5 24.25C20.7467 24.25 25 19.9967 25 14.75C25 9.50329 20.7467 5.25 15.5 5.25C10.2533 5.25 6 9.50329 6 14.75C6 19.9967 10.2533 24.25 15.5 24.25Z" fill="white"/>
<path d="M22.35 7.64001L21.82 8.16998C23.54 9.84003 24.62 12.17 24.62 14.75C24.62 19.78 20.53 23.88 15.5 23.88C10.47 23.88 6.38 19.78 6.38 14.75C6.38 9.71997 10.47 5.62 15.5 5.62C15.67 5.62 15.83 5.62 16 5.63V4.89001C15.83 4.88 15.67 4.88 15.5 4.88C10.05 4.88 5.62 9.29999 5.62 14.75C5.62 20.2 10.05 24.62 15.5 24.62C20.95 24.62 25.38 20.2 25.38 14.75C25.38 11.96 24.22 9.44 22.35 7.64001Z" fill="#222222"/>
<path d="M10.2959 14.8105H11.374V11.3911C11.374 11.2886 11.3774 11.1851 11.3843 11.0801L10.4883 11.8462C10.4648 11.8652 10.4419 11.8784 10.4185 11.8867C10.395 11.8945 10.373 11.8989 10.3521 11.8989C10.3169 11.8989 10.2856 11.8911 10.2573 11.876C10.2295 11.8608 10.2085 11.8428 10.1943 11.8218L9.99854 11.5522L11.4893 10.2607H11.9971V14.8105H12.9839V15.2866H10.2959V14.8105Z" fill="#222222"/>
<path d="M17.2007 12.7808C17.2007 13.2192 17.1538 13.5991 17.0591 13.9199C16.9648 14.2407 16.8354 14.5063 16.6724 14.7163C16.5093 14.9263 16.3159 15.0825 16.0933 15.1851C15.8701 15.2876 15.6318 15.3394 15.3774 15.3394C15.1206 15.3394 14.8823 15.2876 14.6616 15.1851C14.4414 15.0825 14.2495 14.9263 14.0859 14.7163C13.9229 14.5063 13.7944 14.2407 13.7012 13.9199C13.6079 13.5991 13.561 13.2192 13.561 12.7808C13.561 12.3423 13.6079 11.9619 13.7012 11.6396C13.7944 11.3179 13.9229 11.0513 14.0859 10.8403C14.2495 10.6289 14.4414 10.4722 14.6616 10.3696C14.8823 10.2666 15.1206 10.2153 15.3774 10.2153C15.6318 10.2153 15.8701 10.2666 16.0933 10.3696C16.3159 10.4722 16.5093 10.6289 16.6724 10.8403C16.8354 11.0513 16.9648 11.3179 17.0591 11.6396C17.1538 11.9619 17.2007 12.3423 17.2007 12.7808ZM16.5532 12.7808C16.5532 12.3979 16.5215 12.0767 16.457 11.8164C16.3931 11.5566 16.3066 11.3472 16.1982 11.1885C16.0898 11.0298 15.9644 10.916 15.8218 10.8472C15.6797 10.7783 15.5312 10.7437 15.3774 10.7437C15.2236 10.7437 15.0752 10.7783 14.9331 10.8472C14.7905 10.916 14.666 11.0298 14.5586 11.1885C14.4512 11.3472 14.3652 11.5566 14.3013 11.8164C14.2373 12.0767 14.2051 12.3979 14.2051 12.7808C14.2051 13.1636 14.2373 13.4844 14.3013 13.7432C14.3652 14.002 14.4512 14.2109 14.5586 14.3696C14.666 14.5283 14.7905 14.6421 14.9331 14.7109C15.0752 14.7798 15.2236 14.814 15.3774 14.814C15.5312 14.814 15.6797 14.7798 15.8218 14.7109C15.9644 14.6421 16.0898 14.5283 16.1982 14.3696C16.3066 14.2109 16.3931 14.002 16.457 13.7432C16.5215 13.4844 16.5532 13.1636 16.5532 12.7808Z" fill="#222222"/>
<path d="M21.2046 10.2715V10.5513C21.2046 10.6309 21.1958 10.6963 21.1782 10.7476C21.1606 10.7988 21.1426 10.8418 21.124 10.877L19.0483 15.0659C19.0181 15.127 18.9761 15.1787 18.9224 15.2217C18.8687 15.2651 18.7964 15.2866 18.7056 15.2866H18.2612L20.3682 11.1499C20.3984 11.0918 20.4292 11.0381 20.4609 10.9888C20.4922 10.9399 20.5278 10.8931 20.5674 10.8491H17.9497C17.9102 10.8491 17.8745 10.833 17.8428 10.8018C17.8115 10.77 17.7954 10.7344 17.7954 10.6948V10.2715H21.2046V10.2715Z" fill="#222222"/>
<path d="M13.7378 18.5645C13.7378 18.7295 13.7119 18.8789 13.6597 19.0137C13.6079 19.1484 13.5342 19.2637 13.4395 19.3594C13.3442 19.4551 13.2305 19.5293 13.0981 19.582C12.9653 19.6348 12.8184 19.6611 12.6567 19.6611H11.8364V17.4668H12.6567C12.8184 17.4668 12.9653 17.4932 13.0981 17.5459C13.2305 17.5986 13.3442 17.6729 13.4395 17.7695C13.5342 17.8652 13.6079 17.9814 13.6597 18.1162C13.7119 18.251 13.7378 18.4004 13.7378 18.5645ZM13.4331 18.5645C13.4331 18.4297 13.415 18.3096 13.3779 18.2031C13.3413 18.0977 13.2896 18.0078 13.2222 17.9336C13.1548 17.8604 13.0728 17.8047 12.9771 17.7656C12.8809 17.7266 12.7744 17.707 12.6567 17.707H12.1348V19.4209H12.6567C12.7744 19.4209 12.8809 19.4014 12.9771 19.3623C13.0728 19.3242 13.1548 19.2676 13.2222 19.1953C13.2896 19.1221 13.3413 19.0322 13.3779 18.9258C13.415 18.8203 13.4331 18.6992 13.4331 18.5645Z" fill="#888888"/>
<path d="M15.8833 19.6611H15.6533C15.627 19.6611 15.6055 19.6543 15.5894 19.6416C15.5728 19.6279 15.5605 19.6113 15.5522 19.5908L15.3472 19.0605H14.3628L14.1577 19.5908C14.1504 19.6094 14.1382 19.625 14.1206 19.6396C14.1035 19.6543 14.082 19.6611 14.0566 19.6611H13.8267L14.7041 17.4668H15.0059L15.8833 19.6611ZM14.4453 18.8467H15.2646L14.9199 17.9541C14.8975 17.8984 14.8755 17.8301 14.854 17.7471C14.8428 17.7891 14.832 17.8281 14.8213 17.8633C14.8105 17.8984 14.8003 17.9287 14.79 17.9551L14.4453 18.8467Z" fill="#888888"/>
<path d="M16.7544 18.7881V19.6611H16.4585V18.7881L15.6548 17.4668H15.915C15.9419 17.4668 15.9624 17.4736 15.978 17.4863C15.9932 17.5 16.0063 17.5166 16.0176 17.5352L16.52 18.3887C16.5405 18.4238 16.5576 18.458 16.5713 18.4902C16.585 18.5215 16.5977 18.5527 16.6089 18.583C16.6201 18.5518 16.6323 18.5195 16.6455 18.4883C16.6587 18.457 16.6758 18.4238 16.6958 18.3887L17.1968 17.5352C17.2061 17.5195 17.2183 17.5039 17.2344 17.4893C17.25 17.4746 17.2705 17.4668 17.2964 17.4668H17.5596L16.7544 18.7881Z" fill="#888888"/>
<path d="M18.959 17.8105C18.9502 17.8252 18.9404 17.8369 18.9302 17.8438C18.9199 17.8516 18.9067 17.8555 18.8901 17.8555C18.873 17.8555 18.8525 17.8477 18.8296 17.8301C18.8066 17.8125 18.7778 17.793 18.7427 17.7725C18.707 17.752 18.665 17.7324 18.6152 17.7148C18.5659 17.6973 18.5059 17.6895 18.4355 17.6895C18.3691 17.6895 18.3105 17.6973 18.2593 17.7158C18.2085 17.7344 18.1655 17.7578 18.1313 17.7891C18.0972 17.8193 18.0718 17.8555 18.0542 17.8965C18.0366 17.9375 18.0283 17.9824 18.0283 18.0303C18.0283 18.0918 18.0435 18.1426 18.0732 18.1826C18.1035 18.2227 18.1431 18.2578 18.1929 18.2861C18.2422 18.3145 18.2983 18.3398 18.3613 18.3604C18.4238 18.3809 18.4883 18.4023 18.5542 18.4258C18.6201 18.4473 18.6841 18.4727 18.7471 18.502C18.8101 18.5293 18.8662 18.5645 18.9155 18.6074C18.9648 18.6504 19.0049 18.7031 19.0352 18.7656C19.0649 18.8281 19.0801 18.9043 19.0801 18.9951C19.0801 19.0908 19.064 19.1807 19.0312 19.2656C18.9985 19.3496 18.9507 19.4229 18.8882 19.4854C18.8252 19.5469 18.748 19.5967 18.6567 19.6318C18.5654 19.668 18.4614 19.6855 18.3452 19.6855C18.2031 19.6855 18.0737 19.6602 17.957 19.6084C17.8403 19.5566 17.7402 19.4873 17.6577 19.3994L17.7432 19.2588C17.7515 19.2471 17.7617 19.2373 17.7734 19.2305C17.7852 19.2227 17.7979 19.2188 17.8125 19.2188C17.8335 19.2188 17.8584 19.2305 17.8857 19.2529C17.9136 19.2764 17.9478 19.3018 17.9893 19.3291C18.0303 19.3564 18.0806 19.3818 18.1392 19.4043C18.1978 19.4277 18.2695 19.4395 18.3545 19.4395C18.4248 19.4395 18.4873 19.4297 18.5425 19.4102C18.5977 19.3906 18.6445 19.3633 18.6826 19.3281C18.7212 19.293 18.7505 19.251 18.771 19.2021C18.791 19.1523 18.8013 19.0986 18.8013 19.0381C18.8013 18.9717 18.7861 18.917 18.7563 18.875C18.7261 18.833 18.6865 18.7969 18.6377 18.7686C18.5884 18.7402 18.5327 18.7158 18.4697 18.6953C18.4072 18.6758 18.3428 18.6553 18.2769 18.6348C18.2109 18.6133 18.147 18.5898 18.084 18.5615C18.0215 18.5342 17.9653 18.498 17.9165 18.4551C17.8672 18.4102 17.8276 18.3555 17.7979 18.29C17.7676 18.2246 17.7524 18.1426 17.7524 18.0459C17.7524 17.9688 17.7676 17.8926 17.7979 17.8203C17.8276 17.748 17.8716 17.6836 17.9287 17.6279C17.9858 17.5723 18.0566 17.5273 18.1406 17.4932C18.2251 17.459 18.3218 17.4424 18.4307 17.4424C18.5532 17.4424 18.665 17.4619 18.7661 17.5C18.8672 17.5391 18.9556 17.5957 19.0312 17.6689L18.959 17.8105Z" fill="#888888"/>
<path d="M38.5 24.75C43.7467 24.75 48 20.4967 48 15.25C48 10.0033 43.7467 5.75 38.5 5.75C33.2533 5.75 29 10.0033 29 15.25C29 20.4967 33.2533 24.75 38.5 24.75Z" fill="white"/>
<path d="M47.61 15C47.62 15.08 47.62 15.17 47.62 15.25C47.62 20.28 43.53 24.38 38.5 24.38C33.47 24.38 29.38 20.28 29.38 15.25C29.38 10.22 33.47 6.12 38.5 6.12C38.67 6.12 38.83 6.12 39 6.13V5.39001C38.83 5.38 38.67 5.38 38.5 5.38C33.05 5.38 28.62 9.79999 28.62 15.25C28.62 20.7 33.05 25.12 38.5 25.12C43.95 25.12 48.38 20.7 48.38 15.25V15H47.61Z" fill="#222222"/>
<path d="M35.3257 15.3105H36.4038V11.8911C36.4038 11.7886 36.4072 11.6851 36.4141 11.5801L35.5181 12.3462C35.4946 12.3652 35.4717 12.3784 35.4482 12.3867C35.4248 12.3945 35.4028 12.3989 35.3818 12.3989C35.3467 12.3989 35.3154 12.3911 35.2871 12.376C35.2593 12.3608 35.2383 12.3428 35.2241 12.3218L35.0283 12.0522L36.519 10.7607H37.0269V15.3105H38.0137V15.7866H35.3257V15.3105Z" fill="#222222"/>
<path d="M41.8037 11.0444C41.8037 11.1333 41.7759 11.2061 41.7197 11.2632C41.6636 11.3203 41.5693 11.3491 41.436 11.3491H39.8613L39.6304 12.665C39.8916 12.6089 40.1328 12.5806 40.355 12.5806C40.6162 12.5806 40.8467 12.6191 41.0459 12.6963C41.2456 12.7734 41.4126 12.8794 41.5483 13.0146C41.6836 13.1499 41.7856 13.3101 41.8545 13.4941C41.9233 13.6787 41.9575 13.8794 41.9575 14.0962C41.9575 14.3623 41.9111 14.6025 41.8179 14.8174C41.7241 15.0317 41.5967 15.2158 41.4346 15.3682C41.2725 15.521 41.0815 15.6387 40.8623 15.7202C40.6431 15.8018 40.4062 15.8428 40.1519 15.8428C40.0049 15.8428 39.8638 15.8281 39.7285 15.7988C39.5928 15.7695 39.4668 15.7305 39.3501 15.6816C39.2334 15.6328 39.125 15.5767 39.0249 15.5137C38.9243 15.4507 38.8359 15.3843 38.7588 15.314L38.9478 15.0483C38.9897 14.9873 39.0459 14.957 39.1157 14.957C39.1602 14.957 39.2119 14.9751 39.2715 15.0112C39.3311 15.0479 39.4028 15.0879 39.4868 15.1323C39.5708 15.1763 39.6694 15.2168 39.7827 15.2529C39.8955 15.2891 40.0303 15.3071 40.1865 15.3071C40.3618 15.3071 40.519 15.2793 40.6592 15.2231C40.7993 15.167 40.9189 15.0874 41.0181 14.9834C41.1172 14.8794 41.1934 14.7554 41.2471 14.6108C41.3008 14.4658 41.3276 14.3037 41.3276 14.124C41.3276 13.9678 41.3052 13.8267 41.2593 13.7007C41.2139 13.5747 41.145 13.4673 41.0527 13.3789C40.9609 13.29 40.8457 13.2212 40.708 13.1724C40.5703 13.123 40.4097 13.0986 40.2251 13.0986C40.0991 13.0986 39.9688 13.1094 39.8335 13.1304C39.6978 13.1514 39.5581 13.1851 39.4131 13.2319L39.0215 13.1162L39.4272 10.7715H41.8037V11.0444V11.0444Z" fill="#222222"/>
<path d="M35.1313 20.1611H34.833V19.1631H33.6509V20.1611H33.3525V17.9668H33.6509V18.9453H34.833V17.9668H35.1313V20.1611Z" fill="#888888"/>
<path d="M37.7051 19.0645C37.7051 19.2295 37.6792 19.3799 37.627 19.5176C37.5752 19.6543 37.5015 19.7725 37.4067 19.8721C37.3115 19.9707 37.1978 20.0479 37.0645 20.1025C36.9312 20.1572 36.7842 20.1846 36.6226 20.1846C36.4614 20.1846 36.3145 20.1572 36.1816 20.1025C36.0488 20.0479 35.9351 19.9707 35.8403 19.8721C35.7456 19.7725 35.6719 19.6543 35.6196 19.5176C35.5679 19.3799 35.5415 19.2295 35.5415 19.0645C35.5415 18.9004 35.5679 18.75 35.6196 18.6123C35.6719 18.4746 35.7456 18.3564 35.8403 18.2578C35.9351 18.1582 36.0488 18.0801 36.1816 18.0254C36.3145 17.9707 36.4614 17.9424 36.6226 17.9424C36.7842 17.9424 36.9312 17.9707 37.0645 18.0254C37.1978 18.0801 37.3115 18.1582 37.4067 18.2578C37.5015 18.3564 37.5752 18.4746 37.627 18.6123C37.6792 18.75 37.7051 18.9004 37.7051 19.0645ZM37.4004 19.0645C37.4004 18.9297 37.3823 18.8086 37.3452 18.7021C37.3086 18.5947 37.2568 18.5039 37.1895 18.4297C37.1221 18.3555 37.04 18.2988 36.9443 18.2598C36.8481 18.2197 36.7412 18.1992 36.6226 18.1992C36.5054 18.1992 36.3984 18.2197 36.3027 18.2598C36.2065 18.2988 36.125 18.3555 36.0571 18.4297C35.9893 18.5039 35.937 18.5947 35.8999 18.7021C35.8633 18.8086 35.8447 18.9297 35.8447 19.0645C35.8447 19.1992 35.8633 19.3203 35.8999 19.4268C35.937 19.5332 35.9893 19.624 36.0571 19.6982C36.125 19.7725 36.2065 19.8291 36.3027 19.8682C36.3984 19.9072 36.5054 19.9268 36.6226 19.9268C36.7412 19.9268 36.8481 19.9072 36.9443 19.8682C37.04 19.8291 37.1221 19.7725 37.1895 19.6982C37.2568 19.624 37.3086 19.5332 37.3452 19.4268C37.3823 19.3203 37.4004 19.1992 37.4004 19.0645Z" fill="#888888"/>
<path d="M38.9639 19.9258C39.0547 19.9258 39.1362 19.9102 39.2075 19.8799C39.2788 19.8486 39.3394 19.8057 39.3887 19.751C39.4385 19.6953 39.4761 19.6299 39.5024 19.5537C39.5283 19.4766 39.541 19.3926 39.541 19.3008V17.9668H39.8369V19.3008C39.8369 19.4268 39.8164 19.5449 39.7764 19.6523C39.7358 19.7607 39.6782 19.8545 39.603 19.9336C39.5283 20.0127 39.4365 20.0752 39.3286 20.1201C39.2202 20.165 39.0986 20.1875 38.9639 20.1875C38.8291 20.1875 38.708 20.165 38.5996 20.1201C38.4912 20.0752 38.3994 20.0127 38.3242 19.9336C38.2485 19.8545 38.1904 19.7607 38.1504 19.6523C38.1099 19.5449 38.0898 19.4268 38.0898 19.3008V17.9668H38.3853V19.2988C38.3853 19.3906 38.3984 19.4756 38.4243 19.5518C38.4502 19.6279 38.4883 19.6943 38.5376 19.749C38.5869 19.8047 38.6479 19.8477 38.7197 19.8789C38.792 19.9102 38.873 19.9258 38.9639 19.9258Z" fill="#888888"/>
<path d="M40.6729 19.2451V20.1611H40.377V17.9668H40.9971C41.1362 17.9668 41.2559 17.9805 41.3569 18.0098C41.458 18.0371 41.5415 18.0781 41.6074 18.1309C41.6733 18.1836 41.7222 18.248 41.7534 18.3223C41.7852 18.3984 41.8013 18.4824 41.8013 18.5742C41.8013 18.6523 41.7891 18.7246 41.7642 18.793C41.7397 18.8594 41.7046 18.9199 41.6577 18.9736C41.6113 19.0273 41.5547 19.0732 41.4878 19.1113C41.4209 19.1484 41.3452 19.1768 41.2607 19.1963C41.2974 19.2178 41.3301 19.249 41.3584 19.29L41.9985 20.1611H41.7354C41.6812 20.1611 41.6411 20.1406 41.6157 20.0986L41.0464 19.3145C41.0288 19.29 41.0098 19.2725 40.9897 19.2617C40.9692 19.251 40.9385 19.2451 40.8979 19.2451H40.6729V19.2451ZM40.6729 19.0293H40.9834C41.0703 19.0293 41.1465 19.0195 41.2124 18.998C41.2783 18.9775 41.3335 18.9473 41.3779 18.9092C41.4224 18.8711 41.4556 18.8262 41.478 18.7725C41.5005 18.7187 41.5117 18.6602 41.5117 18.5957C41.5117 18.4658 41.4687 18.3672 41.3823 18.3008C41.2959 18.2344 41.1675 18.2012 40.9971 18.2012H40.6729V19.0293V19.0293Z" fill="#888888"/>
<path d="M43.4424 18.3105C43.4336 18.3252 43.4238 18.3369 43.4136 18.3438C43.4033 18.3516 43.3901 18.3555 43.3735 18.3555C43.3564 18.3555 43.3359 18.3477 43.313 18.3301C43.29 18.3125 43.2612 18.293 43.2261 18.2725C43.1904 18.252 43.1484 18.2324 43.0986 18.2148C43.0493 18.1973 42.9893 18.1895 42.9189 18.1895C42.8525 18.1895 42.7939 18.1973 42.7427 18.2158C42.6919 18.2344 42.6489 18.2578 42.6147 18.2891C42.5806 18.3193 42.5552 18.3555 42.5376 18.3965C42.52 18.4375 42.5117 18.4824 42.5117 18.5303C42.5117 18.5918 42.5269 18.6426 42.5566 18.6826C42.5869 18.7227 42.6265 18.7578 42.6763 18.7861C42.7256 18.8145 42.7817 18.8398 42.8447 18.8604C42.9072 18.8809 42.9717 18.9023 43.0376 18.9258C43.1035 18.9473 43.1675 18.9727 43.2305 19.002C43.2935 19.0293 43.3496 19.0645 43.3989 19.1074C43.4482 19.1504 43.4883 19.2031 43.5186 19.2656C43.5483 19.3281 43.5635 19.4043 43.5635 19.4951C43.5635 19.5908 43.5474 19.6807 43.5146 19.7656C43.4819 19.8496 43.4341 19.9229 43.3716 19.9854C43.3086 20.0469 43.2314 20.0967 43.1401 20.1318C43.0488 20.168 42.9448 20.1855 42.8286 20.1855C42.6865 20.1855 42.5571 20.1602 42.4404 20.1084C42.3237 20.0566 42.2236 19.9873 42.1411 19.8994L42.2266 19.7588C42.2349 19.7471 42.2451 19.7373 42.2568 19.7305C42.2686 19.7227 42.2813 19.7188 42.2959 19.7188C42.3169 19.7188 42.3418 19.7305 42.3691 19.7529C42.397 19.7764 42.4312 19.8018 42.4727 19.8291C42.5137 19.8564 42.564 19.8818 42.6226 19.9043C42.6812 19.9277 42.7529 19.9395 42.8379 19.9395C42.9082 19.9395 42.9707 19.9297 43.0259 19.9102C43.0811 19.8906 43.1279 19.8633 43.166 19.8281C43.2046 19.793 43.2339 19.751 43.2544 19.7021C43.2744 19.6523 43.2847 19.5986 43.2847 19.5381C43.2847 19.4717 43.2695 19.417 43.2397 19.375C43.2095 19.333 43.1699 19.2969 43.1211 19.2686C43.0718 19.2402 43.0161 19.2158 42.9531 19.1953C42.8906 19.1758 42.8262 19.1553 42.7603 19.1348C42.6943 19.1133 42.6304 19.0898 42.5674 19.0615C42.5049 19.0342 42.4487 18.998 42.3999 18.9551C42.3506 18.9102 42.311 18.8555 42.2812 18.79C42.251 18.7246 42.2358 18.6426 42.2358 18.5459C42.2358 18.4688 42.251 18.3926 42.2812 18.3203C42.311 18.248 42.355 18.1836 42.4121 18.1279C42.4692 18.0723 42.54 18.0273 42.624 17.9932C42.7085 17.959 42.8052 17.9424 42.9141 17.9424C43.0366 17.9424 43.1484 17.9619 43.2495 18C43.3506 18.0391 43.439 18.0957 43.5146 18.1689L43.4424 18.3105Z" fill="#888888"/>
<path d="M61.5 24.75C66.7467 24.75 71 20.4967 71 15.25C71 10.0033 66.7467 5.75 61.5 5.75C56.2533 5.75 52 10.0033 52 15.25C52 20.4967 56.2533 24.75 61.5 24.75Z" fill="white"/>
<path d="M61.5 6.12C61.67 6.12 61.83 6.12 62 6.13V5.39001C61.83 5.38 61.67 5.38 61.5 5.38C56.05 5.38 51.62 9.79999 51.62 15.25C51.62 20.7 56.05 25.12 61.5 25.12C61.67 25.12 61.83 25.12 62 25.11V24.37C61.83 24.38 61.67 24.38 61.5 24.38C56.47 24.38 52.38 20.28 52.38 15.25C52.38 10.22 56.47 6.12 61.5 6.12Z" fill="#222222"/>
<path d="M59.4912 10.7153C59.7031 10.7153 59.8994 10.7456 60.0791 10.8066C60.2588 10.8672 60.4141 10.9536 60.543 11.0654C60.6719 11.1772 60.7734 11.3125 60.8457 11.4712C60.918 11.6299 60.9541 11.8062 60.9541 12C60.9541 12.1587 60.9336 12.3003 60.8926 12.4253C60.8516 12.5498 60.793 12.6597 60.7178 12.7539C60.6426 12.8486 60.5508 12.9287 60.4434 12.9937C60.3359 13.0591 60.2158 13.1118 60.082 13.1514C60.4092 13.2378 60.6543 13.3823 60.8193 13.5854C60.9844 13.7881 61.0664 14.0425 61.0664 14.3481C61.0664 14.5791 61.0225 14.7871 60.9355 14.9712C60.8477 15.1553 60.7275 15.3125 60.5762 15.4419C60.4238 15.5713 60.248 15.6704 60.0459 15.7393C59.8438 15.8081 59.627 15.8428 59.3965 15.8428C59.1309 15.8428 58.9033 15.8096 58.7148 15.7427C58.5254 15.6763 58.3652 15.585 58.2344 15.4683C58.1035 15.3516 57.9961 15.2134 57.9121 15.0532C57.8281 14.8936 57.7578 14.7202 57.6992 14.5337L57.9648 14.4219C58.0137 14.4009 58.0635 14.3901 58.1123 14.3901C58.1582 14.3901 58.2002 14.4004 58.2363 14.4199C58.2725 14.4399 58.2998 14.4707 58.3184 14.5127C58.3232 14.522 58.3281 14.5317 58.332 14.5425C58.3379 14.5527 58.3418 14.564 58.3467 14.5757C58.3789 14.6436 58.4189 14.7197 58.4658 14.8047C58.5117 14.8901 58.5752 14.9702 58.6543 15.0444C58.7344 15.1191 58.832 15.1821 58.9512 15.2339C59.0684 15.2852 59.2148 15.3105 59.3896 15.3105C59.5645 15.3105 59.7188 15.2822 59.8496 15.2251C59.9814 15.168 60.0918 15.0937 60.1787 15.0024C60.2666 14.9116 60.332 14.8101 60.377 14.6982C60.4209 14.5864 60.4434 14.4756 60.4434 14.3657C60.4434 14.2305 60.4248 14.1069 60.3887 13.9946C60.3525 13.8828 60.2871 13.7861 60.1934 13.7041C60.0977 13.6226 59.9678 13.5586 59.8008 13.5117C59.6348 13.4653 59.4199 13.4419 59.1582 13.4419V12.9868C59.3711 12.9868 59.5527 12.9648 59.7031 12.9204C59.8535 12.876 59.9766 12.8154 60.0723 12.7383C60.168 12.6611 60.2373 12.5693 60.2803 12.4619C60.3242 12.3545 60.3457 12.2354 60.3457 12.105C60.3457 11.96 60.3223 11.834 60.2773 11.7271C60.2314 11.6196 60.1689 11.5308 60.0898 11.4609C60.0098 11.3911 59.916 11.3384 59.8086 11.3032C59.6992 11.2686 59.582 11.251 59.4561 11.251C59.3301 11.251 59.2129 11.2695 59.1055 11.3066C58.999 11.3442 58.9043 11.396 58.8203 11.4624C58.7383 11.5288 58.6689 11.6079 58.6133 11.7002C58.5566 11.7925 58.5146 11.8921 58.4863 11.999C58.4688 12.0669 58.4395 12.1157 58.4023 12.146C58.3652 12.1763 58.3174 12.1914 58.2598 12.1914C58.248 12.1914 58.2354 12.1909 58.2227 12.1895C58.209 12.1885 58.1953 12.1865 58.1787 12.1846L57.8535 12.1294C57.8857 11.9009 57.9492 11.6982 58.043 11.522C58.1357 11.3462 58.2539 11.1982 58.3975 11.0796C58.541 10.9604 58.7051 10.8701 58.8906 10.8081C59.0762 10.7466 59.2764 10.7153 59.4912 10.7153Z" fill="#222222"/>
<path d="M64.8037 11.0444C64.8037 11.1333 64.7754 11.2061 64.7197 11.2632C64.6641 11.3203 64.5693 11.3491 64.4355 11.3491H62.8613L62.6309 12.665C62.8916 12.6089 63.1328 12.5806 63.3555 12.5806C63.6162 12.5806 63.8467 12.6191 64.0459 12.6963C64.2461 12.7734 64.4121 12.8794 64.5488 13.0146C64.6836 13.1499 64.7852 13.3101 64.8545 13.4941C64.9238 13.6787 64.957 13.8794 64.957 14.0962C64.957 14.3623 64.9111 14.6025 64.8184 14.8174C64.7246 15.0317 64.5967 15.2158 64.4346 15.3682C64.2725 15.521 64.082 15.6387 63.8623 15.7202C63.6426 15.8018 63.4062 15.8428 63.1523 15.8428C63.0049 15.8428 62.8633 15.8281 62.7285 15.7988C62.5928 15.7695 62.4668 15.7305 62.3496 15.6816C62.2334 15.6328 62.125 15.5767 62.0254 15.5137C61.9238 15.4507 61.8359 15.3843 61.7588 15.314L61.9473 15.0483C61.9902 14.9873 62.0459 14.957 62.1152 14.957C62.1602 14.957 62.2119 14.9751 62.2715 15.0112C62.3311 15.0479 62.4023 15.0879 62.4863 15.1323C62.5703 15.1763 62.6699 15.2168 62.7832 15.2529C62.8955 15.2891 63.0303 15.3071 63.1865 15.3071C63.3613 15.3071 63.5195 15.2793 63.6592 15.2231C63.7988 15.167 63.9189 15.0874 64.0176 14.9834C64.1172 14.8794 64.1934 14.7554 64.2471 14.6108C64.3008 14.4658 64.3281 14.3037 64.3281 14.124C64.3281 13.9678 64.3047 13.8267 64.2598 13.7007C64.2139 13.5747 64.1445 13.4673 64.0527 13.3789C63.9609 13.29 63.8457 13.2212 63.708 13.1724C63.5703 13.123 63.4102 13.0986 63.2246 13.0986C63.0996 13.0986 62.9687 13.1094 62.834 13.1304C62.6973 13.1514 62.5586 13.1851 62.4131 13.2319L62.0215 13.1162L62.4277 10.7715H64.8037V11.0444V11.0444Z" fill="#222222"/>
<path d="M58.916 19.4453C58.9277 19.4727 58.9375 19.5 58.9473 19.5273C58.958 19.499 58.9688 19.4717 58.9805 19.4453C58.9912 19.4189 59.0039 19.3926 59.0186 19.3662L59.7617 18.0176C59.7744 17.9941 59.7881 17.9805 59.8027 17.9746C59.8164 17.9697 59.8369 17.9668 59.8633 17.9668H60.082V20.1611H59.8223V18.5488C59.8223 18.5273 59.8223 18.5039 59.8242 18.4805C59.8242 18.4551 59.8262 18.4297 59.8281 18.4043L59.0762 19.7764C59.0508 19.8223 59.0156 19.8457 58.9688 19.8457H58.9268C58.8809 19.8457 58.8447 19.8223 58.8193 19.7764L58.0508 18.4004C58.0537 18.4268 58.0566 18.4531 58.0576 18.4785C58.0586 18.5039 58.0605 18.5273 58.0605 18.5488V20.1611H57.7998V17.9668H58.0186C58.0449 17.9668 58.0654 17.9697 58.0801 17.9746C58.0938 17.9805 58.1074 17.9941 58.1211 18.0176L58.8789 19.3682C58.8936 19.3926 58.9063 19.418 58.916 19.4453Z" fill="#888888"/>
<path d="M60.9688 20.1611H60.6719V17.9668H60.9688V20.1611Z" fill="#888888"/>
<path d="M61.7695 17.9766C61.7813 17.9834 61.7969 17.9971 61.8125 18.0176L63.084 19.6709C63.0801 19.6445 63.0781 19.6191 63.0771 19.5938C63.0762 19.5684 63.0762 19.5449 63.0762 19.5215V17.9668H63.3359V20.1611H63.1855C63.1621 20.1611 63.1426 20.1572 63.127 20.1484C63.1113 20.1406 63.0957 20.127 63.0801 20.1074L61.8105 18.4551C61.8125 18.4805 61.8145 18.5059 61.8164 18.5303C61.8164 18.5547 61.8174 18.5781 61.8174 18.5977V20.1611H61.5566V17.9668H61.71C61.7363 17.9668 61.7559 17.9707 61.7695 17.9766Z" fill="#888888"/>
<path d="M64.9961 18.3105C64.9863 18.3252 64.9766 18.3369 64.9668 18.3438C64.957 18.3516 64.9434 18.3555 64.9268 18.3555C64.9102 18.3555 64.8887 18.3477 64.8662 18.3301C64.8437 18.3125 64.8145 18.293 64.7793 18.2725C64.7441 18.252 64.7012 18.2324 64.6523 18.2148C64.6025 18.1973 64.543 18.1895 64.4727 18.1895C64.4063 18.1895 64.3477 18.1973 64.2959 18.2158C64.2451 18.2344 64.2021 18.2578 64.168 18.2891C64.1338 18.3193 64.1084 18.3555 64.0908 18.3965C64.0732 18.4375 64.0645 18.4824 64.0645 18.5303C64.0645 18.5918 64.0801 18.6426 64.1094 18.6826C64.1406 18.7227 64.1797 18.7578 64.2295 18.7861C64.2793 18.8145 64.335 18.8398 64.3984 18.8604C64.4609 18.8809 64.5254 18.9023 64.5908 18.9258C64.6563 18.9473 64.7207 18.9727 64.7832 19.002C64.8467 19.0293 64.9023 19.0645 64.9521 19.1074C65.002 19.1504 65.041 19.2031 65.0723 19.2656C65.1016 19.3281 65.1172 19.4043 65.1172 19.4951C65.1172 19.5908 65.1006 19.6807 65.0684 19.7656C65.0352 19.8496 64.9873 19.9229 64.9248 19.9854C64.8613 20.0469 64.7852 20.0967 64.6934 20.1318C64.6016 20.168 64.498 20.1855 64.3818 20.1855C64.2402 20.1855 64.1104 20.1602 63.9941 20.1084C63.877 20.0566 63.7773 19.9873 63.6943 19.8994L63.7793 19.7588C63.7881 19.7471 63.7988 19.7373 63.8105 19.7305C63.8223 19.7227 63.834 19.7188 63.8496 19.7188C63.8701 19.7188 63.8945 19.7305 63.9219 19.7529C63.9502 19.7764 63.9844 19.8018 64.0254 19.8291C64.0664 19.8564 64.1172 19.8818 64.1758 19.9043C64.2344 19.9277 64.3066 19.9395 64.3906 19.9395C64.4609 19.9395 64.5234 19.9297 64.5791 19.9102C64.6348 19.8906 64.6816 19.8633 64.7188 19.8281C64.7578 19.793 64.7871 19.751 64.8076 19.7021C64.8281 19.6523 64.8379 19.5986 64.8379 19.5381C64.8379 19.4717 64.8223 19.417 64.793 19.375C64.7627 19.333 64.7227 19.2969 64.6738 19.2686C64.625 19.2402 64.5693 19.2158 64.5059 19.1953C64.4434 19.1758 64.3789 19.1553 64.3135 19.1348C64.248 19.1133 64.1836 19.0898 64.1211 19.0615C64.0586 19.0342 64.002 18.998 63.9531 18.9551C63.9043 18.9102 63.8643 18.8555 63.834 18.79C63.8047 18.7246 63.7891 18.6426 63.7891 18.5459C63.7891 18.4688 63.8047 18.3926 63.834 18.3203C63.8643 18.248 63.9082 18.1836 63.9648 18.1279C64.0225 18.0723 64.0937 18.0273 64.1777 17.9932C64.2617 17.959 64.3584 17.9424 64.4668 17.9424C64.5898 17.9424 64.7012 17.9619 64.8027 18C64.9043 18.0391 64.9922 18.0957 65.0684 18.1689L64.9961 18.3105Z" fill="#888888"/>
<path d="M84.5 24.75C89.7467 24.75 94 20.4967 94 15.25C94 10.0033 89.7467 5.75 84.5 5.75C79.2533 5.75 75 10.0033 75 15.25C75 20.4967 79.2533 24.75 84.5 24.75Z" fill="white"/>
<path d="M91.89 20.6C90.23 22.89 87.53 24.38 84.5 24.38C79.47 24.38 75.38 20.28 75.38 15.25C75.38 10.22 79.47 6.12 84.5 6.12C84.67 6.12 84.83 6.12 85 6.13V5.39001C84.83 5.38 84.67 5.38 84.5 5.38C79.05 5.38 74.62 9.79999 74.62 15.25C74.62 20.7 79.05 25.12 84.5 25.12C87.79 25.12 90.71 23.51 92.5 21.04L91.89 20.6Z" fill="#222222"/>
<path d="M81.3262 15.3105H82.4043V11.8911C82.4043 11.7886 82.4072 11.6851 82.4141 11.5801L81.5176 12.3462C81.4941 12.3652 81.4717 12.3784 81.4482 12.3867C81.4248 12.3945 81.4023 12.3989 81.3818 12.3989C81.3467 12.3989 81.3154 12.3911 81.2871 12.376C81.2598 12.3608 81.2383 12.3428 81.2246 12.3218L81.0283 12.0522L82.5195 10.7607H83.0273V15.3105H84.0137V15.7866H81.3262V15.3105V15.3105Z" fill="#222222"/>
<path d="M88.1748 10.7715V11.0513C88.1748 11.1309 88.166 11.1963 88.1484 11.2476C88.1309 11.2988 88.1133 11.3418 88.0938 11.377L86.0186 15.5659C85.9883 15.627 85.9463 15.6787 85.8926 15.7217C85.8389 15.7651 85.7666 15.7866 85.6758 15.7866H85.2314L87.3379 11.6499C87.3691 11.5918 87.3994 11.5381 87.4316 11.4888C87.4629 11.4399 87.498 11.3931 87.5371 11.3491H84.9199C84.8809 11.3491 84.8447 11.333 84.8125 11.3018C84.7812 11.27 84.7656 11.2344 84.7656 11.1948V10.7715H88.1748V10.7715Z" fill="#222222"/>
<path d="M82.209 18.3105C82.2012 18.3252 82.1914 18.3369 82.1807 18.3438C82.1699 18.3516 82.1572 18.3555 82.1406 18.3555C82.123 18.3555 82.1035 18.3477 82.0801 18.3301C82.0566 18.3125 82.0283 18.293 81.9932 18.2725C81.957 18.252 81.916 18.2324 81.8652 18.2148C81.8164 18.1973 81.7559 18.1895 81.6855 18.1895C81.6191 18.1895 81.5605 18.1973 81.5098 18.2158C81.459 18.2344 81.416 18.2578 81.3818 18.2891C81.3477 18.3193 81.3223 18.3555 81.3047 18.3965C81.2871 18.4375 81.2793 18.4824 81.2793 18.5303C81.2793 18.5918 81.2939 18.6426 81.3242 18.6826C81.3535 18.7227 81.3936 18.7578 81.4434 18.7861C81.4922 18.8145 81.5488 18.8398 81.6113 18.8604C81.6738 18.8809 81.7383 18.9023 81.8047 18.9258C81.8711 18.9473 81.9346 18.9727 81.998 19.002C82.0605 19.0293 82.1172 19.0645 82.166 19.1074C82.2148 19.1504 82.2559 19.2031 82.2852 19.2656C82.3154 19.3281 82.3301 19.4043 82.3301 19.4951C82.3301 19.5908 82.3145 19.6807 82.2812 19.7656C82.249 19.8496 82.2012 19.9229 82.1387 19.9854C82.0762 20.0469 81.998 20.0967 81.9072 20.1318C81.8164 20.168 81.7119 20.1855 81.5957 20.1855C81.4531 20.1855 81.3242 20.1602 81.207 20.1084C81.0908 20.0566 80.9902 19.9873 80.9082 19.8994L80.9941 19.7588C81.002 19.7471 81.0117 19.7373 81.0234 19.7305C81.0352 19.7227 81.0488 19.7188 81.0625 19.7188C81.084 19.7188 81.1094 19.7305 81.1367 19.7529C81.1641 19.7764 81.1982 19.8018 81.2402 19.8291C81.2812 19.8564 81.3311 19.8818 81.3896 19.9043C81.4482 19.9277 81.5195 19.9395 81.6055 19.9395C81.6758 19.9395 81.7383 19.9297 81.793 19.9102C81.8477 19.8906 81.8945 19.8633 81.9336 19.8281C81.9717 19.793 82.001 19.751 82.0215 19.7021C82.041 19.6523 82.0518 19.5986 82.0518 19.5381C82.0518 19.4717 82.0371 19.417 82.0068 19.375C81.9766 19.333 81.9375 19.2969 81.8887 19.2686C81.8389 19.2402 81.7832 19.2158 81.7207 19.1953C81.6582 19.1758 81.5938 19.1553 81.5273 19.1348C81.4609 19.1133 81.3975 19.0898 81.334 19.0615C81.2715 19.0342 81.2158 18.998 81.167 18.9551C81.1172 18.9102 81.0781 18.8555 81.0488 18.79C81.0176 18.7246 81.0029 18.6426 81.0029 18.5459C81.0029 18.4688 81.0176 18.3926 81.0488 18.3203C81.0781 18.248 81.1221 18.1836 81.1797 18.1279C81.2363 18.0723 81.3066 18.0273 81.3906 17.9932C81.4756 17.959 81.5723 17.9424 81.6816 17.9424C81.8037 17.9424 81.916 17.9619 82.0166 18C82.1172 18.0391 82.2061 18.0957 82.2812 18.1689L82.209 18.3105Z" fill="#888888"/>
<path d="M84.0605 17.9668V18.209H83.0078V18.9375H83.8604V19.1709H83.0078V19.9189H84.0605V20.1611H82.709V17.9668H84.0605Z" fill="#888888"/>
<path d="M86.0352 19.708C86.0508 19.708 86.0664 19.7148 86.0791 19.7275L86.1953 19.8545C86.1055 19.959 85.9961 20.04 85.8691 20.0986C85.7402 20.1563 85.5859 20.1855 85.4053 20.1855C85.2471 20.1855 85.1035 20.1582 84.9746 20.1035C84.8457 20.0488 84.7363 19.9727 84.6465 19.874C84.5547 19.7754 84.4844 19.6572 84.4346 19.5195C84.3848 19.3818 84.3594 19.2305 84.3594 19.0645C84.3594 18.8994 84.3867 18.748 84.4395 18.6094C84.4941 18.4727 84.5684 18.3535 84.666 18.2549C84.7627 18.1563 84.8789 18.0791 85.0137 18.0244C85.1494 17.9697 85.2988 17.9424 85.4619 17.9424C85.623 17.9424 85.7617 17.9668 85.8789 18.0176C85.9961 18.0674 86.0996 18.1348 86.1914 18.2207L86.0938 18.3574C86.0869 18.3672 86.0791 18.376 86.0703 18.3828C86.0605 18.3887 86.0469 18.3926 86.0293 18.3926C86.0166 18.3926 86.002 18.3877 85.9883 18.3779C85.9727 18.3682 85.9551 18.3564 85.9355 18.3418C85.9141 18.3281 85.8906 18.3125 85.8633 18.2969C85.8359 18.2793 85.8027 18.2646 85.7656 18.25C85.7275 18.2363 85.6836 18.2246 85.6328 18.2148C85.584 18.2051 85.5254 18.1992 85.4609 18.1992C85.3428 18.1992 85.2354 18.2197 85.1387 18.2598C85.041 18.3008 84.957 18.3574 84.8867 18.4326C84.8164 18.5068 84.7607 18.5977 84.7217 18.7051C84.6816 18.8125 84.6621 18.9316 84.6621 19.0645C84.6621 19.2012 84.6816 19.3232 84.7217 19.4307C84.7607 19.5381 84.8145 19.6289 84.8828 19.7021C84.9502 19.7764 85.0312 19.833 85.123 19.8721C85.2168 19.9102 85.3164 19.9297 85.4238 19.9297C85.4883 19.9297 85.5479 19.9258 85.5996 19.918C85.6523 19.9111 85.7002 19.8984 85.7441 19.8828C85.7891 19.8662 85.8301 19.8457 85.8691 19.8203C85.9063 19.7959 85.9453 19.7656 85.9844 19.7305C86.002 19.7158 86.0176 19.708 86.0352 19.708Z" fill="#888888"/>
<path d="M87.709 18.3105C87.7012 18.3252 87.6914 18.3369 87.6807 18.3438C87.6699 18.3516 87.6572 18.3555 87.6406 18.3555C87.623 18.3555 87.6035 18.3477 87.5801 18.3301C87.5566 18.3125 87.5283 18.293 87.4932 18.2725C87.457 18.252 87.416 18.2324 87.3652 18.2148C87.3164 18.1973 87.2559 18.1895 87.1855 18.1895C87.1191 18.1895 87.0605 18.1973 87.0098 18.2158C86.959 18.2344 86.916 18.2578 86.8818 18.2891C86.8477 18.3193 86.8223 18.3555 86.8047 18.3965C86.7871 18.4375 86.7793 18.4824 86.7793 18.5303C86.7793 18.5918 86.7939 18.6426 86.8242 18.6826C86.8535 18.7227 86.8936 18.7578 86.9434 18.7861C86.9922 18.8145 87.0488 18.8398 87.1113 18.8604C87.1738 18.8809 87.2383 18.9023 87.3047 18.9258C87.3711 18.9473 87.4346 18.9727 87.498 19.002C87.5605 19.0293 87.6172 19.0645 87.666 19.1074C87.7148 19.1504 87.7559 19.2031 87.7852 19.2656C87.8154 19.3281 87.8301 19.4043 87.8301 19.4951C87.8301 19.5908 87.8145 19.6807 87.7812 19.7656C87.749 19.8496 87.7012 19.9229 87.6387 19.9854C87.5762 20.0469 87.498 20.0967 87.4072 20.1318C87.3164 20.168 87.2119 20.1855 87.0957 20.1855C86.9531 20.1855 86.8242 20.1602 86.707 20.1084C86.5908 20.0566 86.4902 19.9873 86.4082 19.8994L86.4941 19.7588C86.502 19.7471 86.5117 19.7373 86.5234 19.7305C86.5352 19.7227 86.5488 19.7188 86.5625 19.7188C86.584 19.7188 86.6094 19.7305 86.6367 19.7529C86.6641 19.7764 86.6982 19.8018 86.7402 19.8291C86.7812 19.8564 86.8311 19.8818 86.8896 19.9043C86.9482 19.9277 87.0195 19.9395 87.1055 19.9395C87.1758 19.9395 87.2383 19.9297 87.293 19.9102C87.3477 19.8906 87.3945 19.8633 87.4336 19.8281C87.4717 19.793 87.501 19.751 87.5215 19.7021C87.541 19.6523 87.5518 19.5986 87.5518 19.5381C87.5518 19.4717 87.5371 19.417 87.5068 19.375C87.4766 19.333 87.4375 19.2969 87.3887 19.2686C87.3389 19.2402 87.2832 19.2158 87.2207 19.1953C87.1582 19.1758 87.0938 19.1553 87.0273 19.1348C86.9609 19.1133 86.8975 19.0898 86.834 19.0615C86.7715 19.0342 86.7158 18.998 86.667 18.9551C86.6172 18.9102 86.5781 18.8555 86.5488 18.79C86.5176 18.7246 86.5029 18.6426 86.5029 18.5459C86.5029 18.4688 86.5176 18.3926 86.5488 18.3203C86.5781 18.248 86.6221 18.1836 86.6797 18.1279C86.7363 18.0723 86.8066 18.0273 86.8906 17.9932C86.9756 17.959 87.0723 17.9424 87.1816 17.9424C87.3037 17.9424 87.416 17.9619 87.5166 18C87.6172 18.0391 87.7061 18.0957 87.7812 18.1689L87.709 18.3105Z" fill="#888888"/>
</svg>
