<svg width="300" height="90" viewBox="0 0 100 30" fill="none" xmlns="http://www.w3.org/2000/svg">
<path d="M100 0H0V30H100V0Z" fill="white"/>
<path d="M10.2827 14.8975H11.3608V11.4775C11.3608 11.376 11.3643 11.2715 11.3711 11.167L10.4751 11.9326C10.4521 11.9521 10.4287 11.9658 10.4053 11.9736C10.3818 11.9814 10.3599 11.9854 10.3389 11.9854C10.3037 11.9854 10.2725 11.9775 10.2441 11.9629C10.2163 11.9482 10.1953 11.9297 10.1812 11.9092L9.98535 11.6396L11.4766 10.3477H11.9839V14.8975H12.9707V15.374H10.2827V14.8975V14.8975Z" fill="#222222"/>
<path d="M17.1885 12.8682C17.1885 13.3057 17.1411 13.6865 17.0464 14.0068C16.9521 14.3271 16.8232 14.5928 16.6597 14.8037C16.4966 15.0127 16.3032 15.1689 16.0806 15.2725C15.8579 15.374 15.6191 15.4268 15.3647 15.4268C15.1084 15.4268 14.8696 15.374 14.6489 15.2725C14.4287 15.1689 14.2368 15.0127 14.0732 14.8037C13.9102 14.5928 13.7817 14.3271 13.6885 14.0068C13.5952 13.6865 13.5483 13.3057 13.5483 12.8682C13.5483 12.4287 13.5952 12.0479 13.6885 11.7266C13.7817 11.4043 13.9102 11.1377 14.0732 10.9268C14.2368 10.7158 14.4287 10.5586 14.6489 10.4561C14.8696 10.3535 15.1084 10.3018 15.3647 10.3018C15.6191 10.3018 15.8579 10.3535 16.0806 10.4561C16.3032 10.5586 16.4966 10.7158 16.6597 10.9268C16.8232 11.1377 16.9521 11.4043 17.0464 11.7266C17.1411 12.0479 17.1885 12.4287 17.1885 12.8682ZM16.541 12.8682C16.541 12.4854 16.5088 12.1631 16.4448 11.9033C16.3804 11.6436 16.2939 11.4336 16.1855 11.2744C16.0771 11.1162 15.9517 11.0029 15.8096 10.9336C15.667 10.8643 15.519 10.8311 15.3647 10.8311C15.2109 10.8311 15.0625 10.8643 14.9204 10.9336C14.7778 11.0029 14.6533 11.1162 14.5459 11.2744C14.4385 11.4336 14.3525 11.6436 14.2886 11.9033C14.2246 12.1631 14.1924 12.4854 14.1924 12.8682C14.1924 13.25 14.2246 13.5713 14.2886 13.8301C14.3525 14.0889 14.4385 14.2979 14.5459 14.4561C14.6533 14.6152 14.7778 14.7295 14.9204 14.7979C15.0625 14.8662 15.2109 14.9014 15.3647 14.9014C15.519 14.9014 15.667 14.8662 15.8096 14.7979C15.9517 14.7295 16.0771 14.6152 16.1855 14.4561C16.2939 14.2979 16.3804 14.0889 16.4448 13.8301C16.5088 13.5713 16.541 13.25 16.541 12.8682Z" fill="#222222"/>
<path d="M19.4243 15.4297C19.1748 15.4297 18.9463 15.3965 18.7383 15.3291C18.5308 15.2627 18.3521 15.1689 18.2031 15.0439C18.0537 14.9209 17.938 14.7705 17.8564 14.5947C17.7749 14.4189 17.7339 14.2207 17.7339 14.001C17.7339 13.6797 17.8179 13.4141 17.9858 13.2051C18.1538 12.9971 18.394 12.8477 18.707 12.7588C18.4434 12.6611 18.2441 12.5146 18.1104 12.3193C17.9761 12.125 17.9092 11.8916 17.9092 11.6221C17.9092 11.4365 17.9453 11.2646 18.0176 11.1035C18.0898 10.9424 18.1924 10.8027 18.3257 10.6836C18.4585 10.5645 18.6177 10.4717 18.8032 10.4033C18.9888 10.3359 19.1958 10.3018 19.4243 10.3018C19.6509 10.3018 19.8574 10.3359 20.0439 10.4033C20.2305 10.4717 20.3906 10.5645 20.5234 10.6836C20.6562 10.8027 20.7593 10.9424 20.8315 11.1035C20.9038 11.2646 20.9399 11.4365 20.9399 11.6221C20.9399 11.8916 20.8721 12.125 20.7368 12.3193C20.6016 12.5146 20.4033 12.6611 20.1421 12.7588C20.4546 12.8477 20.6948 12.9971 20.8628 13.2051C21.0308 13.4141 21.1147 13.6797 21.1147 14.001C21.1147 14.2207 21.0737 14.4189 20.9907 14.5947C20.9077 14.7705 20.7925 14.9209 20.644 15.0439C20.4961 15.1689 20.3179 15.2627 20.1104 15.3291C19.9028 15.3965 19.6743 15.4297 19.4243 15.4297ZM19.4243 14.9326C19.5879 14.9326 19.7344 14.9092 19.8638 14.8643C19.9932 14.8193 20.103 14.7549 20.1929 14.6719C20.2827 14.5889 20.3516 14.4893 20.3994 14.374C20.4468 14.2588 20.4712 14.1309 20.4712 13.9912C20.4712 13.8184 20.4424 13.6709 20.3853 13.5479C20.3281 13.4258 20.251 13.3262 20.1543 13.249C20.0571 13.1719 19.9458 13.1162 19.8198 13.0791C19.6938 13.043 19.562 13.0244 19.4243 13.0244C19.2866 13.0244 19.1548 13.043 19.0288 13.0791C18.9028 13.1162 18.7915 13.1719 18.6948 13.249C18.5977 13.3262 18.521 13.4258 18.4639 13.5479C18.4067 13.6709 18.3779 13.8184 18.3779 13.9912C18.3779 14.1309 18.4019 14.2588 18.4497 14.374C18.4976 14.4893 18.5664 14.5889 18.6562 14.6719C18.7461 14.7549 18.8555 14.8193 18.9854 14.8643C19.1147 14.9092 19.2612 14.9326 19.4243 14.9326ZM19.4243 12.5244C19.5879 12.5244 19.7271 12.499 19.8428 12.4492C19.958 12.3994 20.0522 12.333 20.1245 12.25C20.1968 12.167 20.249 12.0713 20.2817 11.9639C20.3145 11.8574 20.3311 11.7471 20.3311 11.6318C20.3311 11.5156 20.3115 11.4053 20.2734 11.3037C20.2349 11.2002 20.1777 11.1104 20.1016 11.0342C20.0259 10.9561 19.9312 10.8955 19.8184 10.8516C19.7051 10.8076 19.5737 10.7852 19.4243 10.7852C19.2749 10.7852 19.144 10.8076 19.0308 10.8516C18.9175 10.8955 18.8228 10.9561 18.7471 11.0342C18.6714 11.1104 18.6143 11.2002 18.5757 11.3037C18.5371 11.4053 18.5181 11.5156 18.5181 11.6318C18.5181 11.7471 18.5342 11.8574 18.5669 11.9639C18.5996 12.0713 18.6519 12.167 18.7246 12.25C18.7969 12.333 18.8906 12.3994 19.0063 12.4492C19.1216 12.499 19.2612 12.5244 19.4243 12.5244Z" fill="#222222"/>
<path d="M13.7588 18.5986C13.7588 18.7607 13.7334 18.9072 13.6821 19.0391C13.6313 19.1709 13.5591 19.2842 13.4663 19.3779C13.373 19.4717 13.2617 19.5439 13.1318 19.5967C13.002 19.6475 12.8579 19.6729 12.6997 19.6729H11.896V17.5244H12.6997C12.8579 17.5244 13.002 17.5498 13.1318 17.6006C13.2617 17.6533 13.373 17.7256 13.4663 17.8203C13.5591 17.915 13.6313 18.0283 13.6821 18.1592C13.7334 18.292 13.7588 18.4385 13.7588 18.5986ZM13.4604 18.5986C13.4604 18.4678 13.4424 18.3486 13.4062 18.2451C13.3701 18.1416 13.3193 18.0537 13.2534 17.9814C13.1875 17.9092 13.1074 17.8545 13.0132 17.8164C12.9194 17.7783 12.8149 17.7588 12.6997 17.7588H12.1885V19.4385H12.6997C12.8149 19.4385 12.9194 19.4189 13.0132 19.3809C13.1074 19.3428 13.1875 19.2881 13.2534 19.2168C13.3193 19.1455 13.3701 19.0576 13.4062 18.9531C13.4424 18.8486 13.4604 18.7314 13.4604 18.5986Z" fill="#888888"/>
<path d="M15.8599 19.6729H15.6353C15.6089 19.6729 15.5879 19.667 15.5723 19.6533C15.5562 19.6406 15.5439 19.624 15.5361 19.6045L15.335 19.085H14.3706L14.1694 19.6045C14.1626 19.6221 14.1504 19.6377 14.1338 19.6523C14.1167 19.667 14.0957 19.6729 14.0708 19.6729H13.8457L14.7051 17.5244H15.0005L15.8599 19.6729ZM14.4517 18.876H15.2539L14.9165 18.001C14.8945 17.9463 14.873 17.8799 14.8521 17.7979C14.8408 17.8389 14.8301 17.877 14.8198 17.9111C14.8091 17.9463 14.7988 17.9766 14.7891 18.0029L14.4517 18.876Z" fill="#888888"/>
<path d="M16.7139 18.8184V19.6729H16.4243V18.8184L15.6372 17.5244H15.8921C15.918 17.5244 15.9385 17.5303 15.9536 17.5439C15.9683 17.5557 15.9814 17.5723 15.9927 17.5908L16.4844 18.4268C16.5044 18.4619 16.5215 18.4951 16.5347 18.5264C16.5483 18.5566 16.5605 18.5869 16.5713 18.6172C16.5825 18.5869 16.5947 18.5557 16.6074 18.5244C16.6206 18.4932 16.6372 18.4609 16.6572 18.4268L17.1475 17.5908C17.1567 17.5752 17.1689 17.5596 17.1841 17.5459C17.1997 17.5313 17.2202 17.5244 17.2451 17.5244H17.5029L16.7139 18.8184Z" fill="#888888"/>
<path d="M18.8735 17.8604C18.8647 17.875 18.855 17.8857 18.8452 17.8936C18.8354 17.9014 18.8223 17.9053 18.8062 17.9053C18.7891 17.9053 18.7695 17.8965 18.7471 17.8799C18.7246 17.8623 18.6958 17.8437 18.6616 17.8232C18.627 17.8027 18.5854 17.7842 18.5371 17.7666C18.4883 17.75 18.4297 17.7412 18.3608 17.7412C18.2959 17.7412 18.2383 17.75 18.188 17.7676C18.1382 17.7852 18.0967 17.8096 18.063 17.8389C18.0293 17.8682 18.0044 17.9043 17.9873 17.9443C17.9702 17.9854 17.9619 18.0283 17.9619 18.0752C17.9619 18.1357 17.9766 18.1855 18.0059 18.2256C18.0356 18.2646 18.0742 18.2979 18.123 18.3262C18.1714 18.3545 18.2266 18.3779 18.2881 18.3994C18.3496 18.4189 18.4126 18.4404 18.4771 18.4629C18.5415 18.4854 18.6045 18.5098 18.666 18.5371C18.7275 18.5645 18.7822 18.5986 18.8311 18.6416C18.8794 18.6826 18.9185 18.7354 18.9478 18.7959C18.9775 18.8564 18.9922 18.9316 18.9922 19.0205C18.9922 19.1143 18.9761 19.2031 18.9443 19.2861C18.9121 19.3682 18.8652 19.4404 18.8042 19.501C18.7427 19.5615 18.667 19.6104 18.5776 19.6455C18.4878 19.6797 18.3862 19.6973 18.2725 19.6973C18.1333 19.6973 18.0063 19.6719 17.8921 19.6221C17.7773 19.5713 17.6797 19.5029 17.5986 19.417L17.6826 19.2783C17.6909 19.2686 17.7007 19.2588 17.7119 19.251C17.7236 19.2432 17.7363 19.2393 17.75 19.2393C17.771 19.2393 17.7954 19.251 17.8223 19.2734C17.8491 19.2959 17.8828 19.3213 17.9233 19.3477C17.9639 19.375 18.0132 19.3994 18.0703 19.4219C18.1279 19.4443 18.1982 19.4561 18.2812 19.4561C18.3501 19.4561 18.4116 19.4463 18.4658 19.4268C18.5195 19.4082 18.5654 19.3818 18.603 19.3467C18.6406 19.3125 18.6694 19.2715 18.6895 19.2236C18.709 19.1748 18.7192 19.1221 18.7192 19.0635C18.7192 18.998 18.7046 18.9443 18.6748 18.9033C18.6455 18.8623 18.6069 18.8271 18.5586 18.7988C18.5107 18.7705 18.4561 18.7471 18.3945 18.7275C18.333 18.708 18.27 18.6885 18.2056 18.667C18.1411 18.6475 18.0781 18.624 18.0166 18.5967C17.9551 18.5693 17.9004 18.5342 17.8521 18.4912C17.8042 18.4482 17.7656 18.3945 17.7358 18.3301C17.7065 18.2656 17.6919 18.1865 17.6919 18.0908C17.6919 18.0146 17.7065 17.9414 17.7358 17.8701C17.7656 17.7998 17.8081 17.7363 17.8643 17.6807C17.9204 17.626 17.9893 17.583 18.0718 17.5498C18.1543 17.5166 18.249 17.5 18.3564 17.5C18.4761 17.5 18.5859 17.5186 18.6846 17.5566C18.7837 17.5947 18.8701 17.6494 18.9443 17.7217L18.8735 17.8604Z" fill="#888888"/>
<path d="M35.3125 14.8975H36.3906V11.4775C36.3906 11.376 36.394 11.2715 36.4009 11.167L35.5049 11.9326C35.4819 11.9521 35.4585 11.9658 35.4351 11.9736C35.4116 11.9814 35.3896 11.9854 35.3687 11.9854C35.3335 11.9854 35.3022 11.9775 35.2739 11.9629C35.2461 11.9482 35.2251 11.9297 35.2109 11.9092L35.0151 11.6396L36.5063 10.3477H37.0137V14.8975H38.0005V15.374H35.3125V14.8975Z" fill="#222222"/>
<path d="M41.791 10.6309C41.791 10.7197 41.7632 10.792 41.707 10.8496C41.6514 10.9072 41.5566 10.9355 41.4238 10.9355H39.8486L39.6177 12.251C39.8789 12.1953 40.1206 12.167 40.3423 12.167C40.6035 12.167 40.834 12.2061 41.0332 12.2832C41.2329 12.3604 41.4004 12.4658 41.5356 12.6016C41.6709 12.7373 41.7729 12.8975 41.8418 13.0811C41.9106 13.2656 41.9453 13.4658 41.9453 13.6826C41.9453 13.9492 41.8984 14.1895 41.8052 14.4033C41.7119 14.6182 41.584 14.8018 41.4219 14.9551C41.2598 15.1084 41.0688 15.2256 40.8496 15.3076C40.6304 15.3887 40.3936 15.4297 40.1392 15.4297C39.9922 15.4297 39.8511 15.415 39.7158 15.3857C39.5801 15.3564 39.4541 15.3174 39.3379 15.2686C39.2212 15.2197 39.1123 15.1631 39.0122 15.1006C38.9116 15.0381 38.8232 14.9717 38.7461 14.9014L38.9351 14.6357C38.9771 14.5742 39.0332 14.5439 39.103 14.5439C39.1475 14.5439 39.1992 14.5615 39.2588 14.5986C39.3184 14.6338 39.3901 14.6748 39.4741 14.7197C39.5581 14.7627 39.6567 14.8037 39.77 14.8398C39.8833 14.876 40.0176 14.8936 40.1743 14.8936C40.3491 14.8936 40.5068 14.8662 40.6465 14.8096C40.7866 14.7539 40.9062 14.6748 41.0054 14.5703C41.1045 14.4658 41.1812 14.3428 41.2349 14.1982C41.2881 14.0527 41.3149 13.8906 41.3149 13.7109C41.3149 13.5547 41.2925 13.4131 41.2471 13.2881C41.2012 13.1611 41.1323 13.0537 41.0405 12.9658C40.9482 12.877 40.8335 12.8076 40.6958 12.7588C40.5581 12.71 40.397 12.6855 40.2129 12.6855C40.0864 12.6855 39.9561 12.6963 39.8208 12.7168C39.6855 12.7373 39.5454 12.7725 39.4009 12.8184L39.0088 12.7031L39.4146 10.3584H41.791V10.6309V10.6309Z" fill="#222222"/>
<path d="M35.1851 19.6729H34.8926V18.6953H33.7349V19.6729H33.4424V17.5244H33.7349V18.4824H34.8926V17.5244H35.1851V19.6729Z" fill="#888888"/>
<path d="M37.7065 18.5986C37.7065 18.7607 37.6812 18.9082 37.6304 19.042C37.5791 19.1768 37.5073 19.293 37.4141 19.3896C37.3213 19.4873 37.2095 19.5615 37.0791 19.6162C36.9482 19.6689 36.8042 19.6963 36.646 19.6963C36.4883 19.6963 36.3442 19.6689 36.2144 19.6162C36.084 19.5615 35.9727 19.4873 35.8799 19.3896C35.7866 19.293 35.7148 19.1768 35.6636 19.042C35.6128 18.9082 35.5874 18.7607 35.5874 18.5986C35.5874 18.4385 35.6128 18.29 35.6636 18.1562C35.7148 18.0215 35.7866 17.9053 35.8799 17.8076C35.9727 17.71 36.084 17.6348 36.2144 17.5811C36.3442 17.5264 36.4883 17.5 36.646 17.5C36.8042 17.5 36.9482 17.5264 37.0791 17.5811C37.2095 17.6348 37.3213 17.71 37.4141 17.8076C37.5073 17.9053 37.5791 18.0215 37.6304 18.1562C37.6812 18.29 37.7065 18.4385 37.7065 18.5986ZM37.4082 18.5986C37.4082 18.4678 37.3901 18.3486 37.354 18.2432C37.3184 18.1387 37.2671 18.0498 37.2012 17.9775C37.1353 17.9053 37.0552 17.8486 36.9614 17.8105C36.8672 17.7715 36.7622 17.752 36.646 17.752C36.5312 17.752 36.4268 17.7715 36.3325 17.8105C36.2388 17.8486 36.1587 17.9053 36.0918 17.9775C36.0254 18.0498 35.9741 18.1387 35.938 18.2432C35.9023 18.3486 35.8843 18.4678 35.8843 18.5986C35.8843 18.7314 35.9023 18.8496 35.938 18.9541C35.9741 19.0586 36.0254 19.1475 36.0918 19.2197C36.1587 19.292 36.2388 19.3477 36.3325 19.3857C36.4268 19.4248 36.5312 19.4443 36.646 19.4443C36.7622 19.4443 36.8672 19.4248 36.9614 19.3857C37.0552 19.3477 37.1353 19.292 37.2012 19.2197C37.2671 19.1475 37.3184 19.0586 37.354 18.9541C37.3901 18.8496 37.4082 18.7314 37.4082 18.5986Z" fill="#888888"/>
<path d="M38.9399 19.4424C39.0288 19.4424 39.1084 19.4268 39.1782 19.3975C39.248 19.3672 39.3076 19.3252 39.356 19.2715C39.4043 19.2178 39.4414 19.1533 39.4668 19.0771C39.4927 19.0029 39.5054 18.9209 39.5054 18.8311V17.5244H39.7949V18.8311C39.7949 18.9541 39.7749 19.0693 39.7354 19.1748C39.6958 19.2812 39.6396 19.373 39.5659 19.4502C39.4927 19.5283 39.4028 19.5889 39.2969 19.6328C39.1909 19.6768 39.0718 19.6982 38.9399 19.6982C38.8076 19.6982 38.689 19.6768 38.5825 19.6328C38.4766 19.5889 38.3867 19.5283 38.313 19.4502C38.2388 19.373 38.1821 19.2812 38.1426 19.1748C38.103 19.0693 38.0835 18.9541 38.0835 18.8311V17.5244H38.3726V18.8291C38.3726 18.9189 38.3857 19.001 38.4111 19.0762C38.4365 19.1514 38.4736 19.2158 38.522 19.2705C38.5703 19.3232 38.6299 19.3662 38.7007 19.3965C38.771 19.4268 38.8506 19.4424 38.9399 19.4424Z" fill="#888888"/>
<path d="M40.6138 18.7764V19.6729H40.3242V17.5244H40.9316C41.0679 17.5244 41.1851 17.5381 41.2842 17.5654C41.3833 17.5928 41.4648 17.6318 41.5293 17.6846C41.5937 17.7363 41.6416 17.7998 41.6729 17.8721C41.7036 17.9463 41.7192 18.0283 41.7192 18.1191C41.7192 18.1953 41.707 18.2666 41.6831 18.333C41.6592 18.3984 41.6245 18.458 41.5791 18.5107C41.5332 18.5625 41.478 18.6074 41.4126 18.6445C41.3472 18.6807 41.2725 18.71 41.1899 18.7285C41.2256 18.749 41.2578 18.7803 41.2856 18.8193L41.9126 19.6729H41.6548C41.6016 19.6729 41.5625 19.6533 41.5376 19.6123L40.9795 18.8438C40.9629 18.8193 40.9443 18.8027 40.9243 18.792C40.9043 18.7822 40.874 18.7764 40.834 18.7764H40.6138ZM40.6138 18.5654H40.918C41.0034 18.5654 41.0781 18.5547 41.1426 18.5342C41.207 18.5137 41.2607 18.4844 41.3047 18.4473C41.3481 18.4092 41.3809 18.3643 41.4028 18.3135C41.4248 18.2607 41.4355 18.2031 41.4355 18.1396C41.4355 18.0127 41.3936 17.916 41.3091 17.8506C41.2246 17.7861 41.0986 17.7529 40.9316 17.7529H40.6138V18.5654V18.5654Z" fill="#888888"/>
<path d="M43.3267 17.8604C43.3179 17.875 43.3081 17.8857 43.2983 17.8936C43.2886 17.9014 43.2754 17.9053 43.2593 17.9053C43.2422 17.9053 43.2227 17.8965 43.2002 17.8799C43.1777 17.8623 43.1489 17.8437 43.1147 17.8232C43.0801 17.8027 43.0386 17.7842 42.9902 17.7666C42.9414 17.75 42.8828 17.7412 42.814 17.7412C42.749 17.7412 42.6914 17.75 42.6411 17.7676C42.5913 17.7852 42.5498 17.8096 42.5161 17.8389C42.4824 17.8682 42.4575 17.9043 42.4404 17.9443C42.4233 17.9854 42.415 18.0283 42.415 18.0752C42.415 18.1357 42.4297 18.1855 42.459 18.2256C42.4888 18.2646 42.5273 18.2979 42.5762 18.3262C42.6245 18.3545 42.6797 18.3779 42.7412 18.3994C42.8027 18.4189 42.8657 18.4404 42.9302 18.4629C42.9946 18.4854 43.0576 18.5098 43.1191 18.5371C43.1807 18.5645 43.2354 18.5986 43.2842 18.6416C43.3325 18.6826 43.3716 18.7354 43.4009 18.7959C43.4307 18.8564 43.4453 18.9316 43.4453 19.0205C43.4453 19.1143 43.4292 19.2031 43.3975 19.2861C43.3652 19.3682 43.3184 19.4404 43.2573 19.501C43.1958 19.5615 43.1201 19.6104 43.0308 19.6455C42.9409 19.6797 42.8394 19.6973 42.7256 19.6973C42.5864 19.6973 42.4595 19.6719 42.3452 19.6221C42.2305 19.5713 42.1328 19.5029 42.0518 19.417L42.1357 19.2783C42.144 19.2686 42.1538 19.2588 42.165 19.251C42.1768 19.2432 42.1895 19.2393 42.2031 19.2393C42.2241 19.2393 42.2485 19.251 42.2754 19.2734C42.3022 19.2959 42.3359 19.3213 42.3765 19.3477C42.417 19.375 42.4663 19.3994 42.5234 19.4219C42.5811 19.4443 42.6514 19.4561 42.7344 19.4561C42.8032 19.4561 42.8647 19.4463 42.9189 19.4268C42.9727 19.4082 43.0186 19.3818 43.0562 19.3467C43.0938 19.3125 43.1226 19.2715 43.1426 19.2236C43.1621 19.1748 43.1724 19.1221 43.1724 19.0635C43.1724 18.998 43.1577 18.9443 43.1279 18.9033C43.0986 18.8623 43.0601 18.8271 43.0117 18.7988C42.9639 18.7705 42.9092 18.7471 42.8477 18.7275C42.7861 18.708 42.7231 18.6885 42.6587 18.667C42.5942 18.6475 42.5312 18.624 42.4697 18.5967C42.4082 18.5693 42.3535 18.5342 42.3052 18.4912C42.2573 18.4482 42.2187 18.3945 42.189 18.3301C42.1597 18.2656 42.145 18.1865 42.145 18.0908C42.145 18.0146 42.1597 17.9414 42.189 17.8701C42.2188 17.7998 42.2612 17.7363 42.3174 17.6807C42.3735 17.626 42.4424 17.583 42.5249 17.5498C42.6074 17.5166 42.7021 17.5 42.8096 17.5C42.9292 17.5 43.0391 17.5186 43.1377 17.5566C43.2368 17.5947 43.3232 17.6494 43.3975 17.7217L43.3267 17.8604Z" fill="#888888"/>
<path d="M59.4121 10.3018C59.624 10.3018 59.8223 10.333 60.0068 10.3965C60.1914 10.46 60.3496 10.5518 60.4844 10.6709C60.6191 10.792 60.7246 10.9385 60.8008 11.1104C60.8779 11.2832 60.916 11.4795 60.916 11.6982C60.916 11.8857 60.8887 12.0576 60.832 12.2158C60.7764 12.375 60.7012 12.5273 60.6055 12.6729C60.5098 12.8193 60.3984 12.96 60.2744 13.0967C60.1494 13.2334 60.0176 13.3721 59.877 13.5146L58.5576 14.8662C58.6504 14.8408 58.7461 14.8193 58.8418 14.8047C58.9365 14.79 59.0293 14.7822 59.1172 14.7822H60.7969C60.8652 14.7822 60.9189 14.8018 60.959 14.8408C60.998 14.8818 61.0176 14.9326 61.0176 14.9951V15.374H57.6719V15.1602C57.6719 15.1162 57.6807 15.0703 57.6982 15.0234C57.7158 14.9775 57.7441 14.9336 57.7842 14.8936L59.3906 13.2803C59.5234 13.1455 59.6445 13.0146 59.7539 12.8896C59.8643 12.7656 59.958 12.6396 60.0361 12.5146C60.1152 12.3877 60.1748 12.2607 60.2168 12.1309C60.2588 12.001 60.2793 11.8623 60.2793 11.7158C60.2793 11.5693 60.2559 11.4404 60.209 11.3291C60.1631 11.2178 60.0986 11.127 60.0176 11.0547C59.9355 10.9824 59.8398 10.9287 59.7305 10.8916C59.6211 10.8555 59.502 10.8369 59.377 10.8369C59.25 10.8369 59.1338 10.8564 59.0264 10.8936C58.9199 10.9307 58.8242 10.9834 58.7412 11.0498C58.6582 11.1162 58.5879 11.1943 58.5312 11.2861C58.4746 11.376 58.4336 11.4775 58.4102 11.5869C58.3926 11.6543 58.3633 11.7031 58.3262 11.7334C58.2891 11.7637 58.2402 11.7783 58.1797 11.7783C58.168 11.7783 58.1563 11.7783 58.1426 11.7773C58.1299 11.7764 58.1152 11.7744 58.0996 11.7725L57.7734 11.7158C57.8066 11.4873 57.8691 11.2852 57.9629 11.1084C58.0557 10.9326 58.1738 10.7852 58.3184 10.666C58.4609 10.5469 58.626 10.4561 58.8115 10.3955C58.9971 10.333 59.1973 10.3018 59.4121 10.3018Z" fill="#222222"/>
<path d="M65.1621 10.3584V10.6377C65.1621 10.7178 65.1533 10.7822 65.1357 10.834C65.1191 10.8857 65.0996 10.9287 65.082 10.9639L63.0059 15.1533C62.9756 15.2139 62.9336 15.2656 62.8809 15.3086C62.8262 15.3525 62.7539 15.374 62.6631 15.374H62.2188L64.3262 11.2363C64.3555 11.1787 64.3867 11.124 64.418 11.0752C64.4492 11.0264 64.4854 10.9795 64.5254 10.9355H61.9072C61.8672 10.9355 61.832 10.9199 61.8008 10.8877C61.7695 10.8564 61.7529 10.8213 61.7529 10.7822V10.3584H65.1621Z" fill="#222222"/>
<path d="M58.9541 18.9717C58.9648 18.999 58.9746 19.0254 58.9844 19.0518C58.9941 19.0244 59.0049 18.9971 59.0156 18.9717C59.0273 18.9463 59.0391 18.9209 59.0537 18.8955L59.7812 17.5732C59.7939 17.5498 59.8076 17.5361 59.8223 17.5312C59.8359 17.5264 59.8555 17.5244 59.8818 17.5244H60.0957V19.6729H59.8418V18.0938C59.8418 18.0732 59.8418 18.0498 59.8428 18.0264C59.8438 18.0029 59.8457 17.9775 59.8477 17.9521L59.1113 19.2969C59.0859 19.3418 59.0508 19.3643 59.0059 19.3643H58.9639C58.918 19.3643 58.8838 19.3418 58.8584 19.2969L58.1055 17.9482C58.1084 17.9736 58.1113 18 58.1123 18.0244C58.1133 18.0498 58.1152 18.0732 58.1152 18.0938V19.6729H57.8594V17.5244H58.0742C58.0996 17.5244 58.1201 17.5264 58.1348 17.5312C58.1484 17.5361 58.1621 17.5498 58.1748 17.5732L58.917 18.8965C58.9316 18.9209 58.9434 18.9463 58.9541 18.9717Z" fill="#888888"/>
<path d="M60.9648 19.6729H60.6738V17.5244H60.9648V19.6729Z" fill="#888888"/>
<path d="M61.748 17.5342C61.7617 17.54 61.7754 17.5537 61.791 17.5732L63.0361 19.1934C63.0332 19.167 63.0313 19.1416 63.0303 19.1182C63.0293 19.0928 63.0293 19.0693 63.0293 19.0459V17.5244H63.2832V19.6729H63.1367C63.1133 19.6729 63.0947 19.6689 63.0791 19.6611C63.0635 19.6533 63.0488 19.6396 63.0332 19.6201L61.7891 18.0029C61.792 18.0273 61.793 18.0518 61.7949 18.0752C61.7949 18.0996 61.7959 18.1221 61.7959 18.1416V19.6729H61.541V17.5244H61.6914C61.7168 17.5244 61.7363 17.5264 61.748 17.5342Z" fill="#888888"/>
<path d="M64.9092 17.8604C64.9004 17.875 64.8906 17.8857 64.8809 17.8936C64.8711 17.9014 64.8574 17.9053 64.8418 17.9053C64.8242 17.9053 64.8047 17.8965 64.7832 17.8799C64.7598 17.8623 64.7314 17.8437 64.6973 17.8232C64.6621 17.8027 64.6211 17.7842 64.5723 17.7666C64.5234 17.75 64.4648 17.7412 64.3965 17.7412C64.332 17.7412 64.2734 17.75 64.2236 17.7676C64.1738 17.7852 64.1328 17.8096 64.0986 17.8389C64.0645 17.8682 64.04 17.9043 64.0234 17.9443C64.0059 17.9854 63.998 18.0283 63.998 18.0752C63.998 18.1357 64.0117 18.1855 64.041 18.2256C64.0713 18.2646 64.1094 18.2979 64.1582 18.3262C64.207 18.3545 64.2617 18.3779 64.3242 18.3994C64.3848 18.4189 64.4482 18.4404 64.5127 18.4629C64.5771 18.4854 64.6406 18.5098 64.7012 18.5371C64.7637 18.5645 64.8184 18.5986 64.8672 18.6416C64.915 18.6826 64.9541 18.7354 64.9834 18.7959C65.0137 18.8564 65.0273 18.9316 65.0273 19.0205C65.0273 19.1143 65.0117 19.2031 64.9805 19.2861C64.9473 19.3682 64.9004 19.4404 64.8398 19.501C64.7783 19.5615 64.7031 19.6104 64.6133 19.6455C64.5234 19.6797 64.4219 19.6973 64.3086 19.6973C64.1689 19.6973 64.042 19.6719 63.9277 19.6221C63.8125 19.5713 63.7148 19.5029 63.6348 19.417L63.7188 19.2783C63.7266 19.2686 63.7363 19.2588 63.748 19.251C63.7598 19.2432 63.7715 19.2393 63.7852 19.2393C63.8066 19.2393 63.8311 19.251 63.8574 19.2734C63.8848 19.2959 63.918 19.3213 63.959 19.3477C64 19.375 64.0488 19.3994 64.1055 19.4219C64.1641 19.4443 64.2344 19.4561 64.3164 19.4561C64.3857 19.4561 64.4473 19.4463 64.502 19.4268C64.5547 19.4082 64.6016 19.3818 64.6387 19.3467C64.6758 19.3125 64.7051 19.2715 64.7246 19.2236C64.7441 19.1748 64.7549 19.1221 64.7549 19.0635C64.7549 18.998 64.7402 18.9443 64.7109 18.9033C64.6816 18.8623 64.6426 18.8271 64.5938 18.7988C64.5469 18.7705 64.4922 18.7471 64.4297 18.7275C64.3691 18.708 64.3057 18.6885 64.2412 18.667C64.1768 18.6475 64.1133 18.624 64.0527 18.5967C63.9902 18.5693 63.9355 18.5342 63.8877 18.4912C63.8398 18.4482 63.8008 18.3945 63.7715 18.3301C63.7422 18.2656 63.7275 18.1865 63.7275 18.0908C63.7275 18.0146 63.7422 17.9414 63.7715 17.8701C63.8008 17.7998 63.8438 17.7363 63.9004 17.6807C63.9561 17.626 64.0254 17.583 64.1074 17.5498C64.1895 17.5166 64.2852 17.5 64.3926 17.5C64.5117 17.5 64.6211 17.5186 64.7207 17.5566C64.8193 17.5947 64.9063 17.6494 64.9805 17.7217L64.9092 17.8604Z" fill="#888888"/>
<path d="M81.3125 14.8975H82.3906V11.4775C82.3906 11.376 82.3945 11.2715 82.4004 11.167L81.5049 11.9326C81.4824 11.9521 81.459 11.9658 81.4355 11.9736C81.4121 11.9814 81.3896 11.9854 81.3691 11.9854C81.334 11.9854 81.3027 11.9775 81.2734 11.9629C81.2461 11.9482 81.2246 11.9297 81.2109 11.9092L81.0156 11.6396L82.5059 10.3477H83.0137V14.8975H84V15.374H81.3125V14.8975Z" fill="#222222"/>
<path d="M86.5381 10.3018C86.75 10.3018 86.9463 10.333 87.126 10.3936C87.3057 10.4541 87.4609 10.54 87.5898 10.6514C87.7187 10.7646 87.8203 10.8994 87.8926 11.0576C87.9648 11.2168 88.001 11.3936 88.001 11.5869C88.001 11.7451 87.9805 11.8877 87.9395 12.0117C87.8984 12.1367 87.8408 12.2461 87.7656 12.3408C87.6895 12.4346 87.5977 12.5146 87.4902 12.5811C87.3828 12.6455 87.2627 12.6982 87.1299 12.7373C87.457 12.8242 87.7021 12.9697 87.8662 13.1719C88.0313 13.375 88.1133 13.6299 88.1133 13.9346C88.1133 14.166 88.0693 14.374 87.9824 14.5576C87.8945 14.7422 87.7754 14.8994 87.623 15.0283C87.4717 15.1582 87.2949 15.2568 87.0928 15.3262C86.8906 15.3955 86.6748 15.4297 86.4434 15.4297C86.1777 15.4297 85.9502 15.3965 85.7617 15.3291C85.5723 15.2627 85.4121 15.1719 85.2812 15.0557C85.1504 14.9385 85.043 14.7998 84.959 14.6396C84.875 14.4805 84.8047 14.3076 84.7461 14.1201L85.0117 14.0088C85.0605 13.9873 85.1104 13.9775 85.1592 13.9775C85.2061 13.9775 85.2471 13.9873 85.2832 14.0068C85.3193 14.0264 85.3477 14.0576 85.3652 14.0996C85.3701 14.1084 85.375 14.1182 85.3799 14.1299C85.3848 14.1396 85.3887 14.1514 85.3936 14.1631C85.4258 14.2305 85.4658 14.3066 85.5127 14.3916C85.5586 14.4775 85.6221 14.5576 85.7012 14.6318C85.7812 14.7061 85.8789 14.7686 85.998 14.8203C86.1152 14.8721 86.2617 14.8975 86.4365 14.8975C86.6113 14.8975 86.7656 14.8691 86.8965 14.8115C87.0293 14.7549 87.1387 14.6807 87.2266 14.5889C87.3135 14.499 87.3789 14.3975 87.4238 14.2852C87.4678 14.1729 87.4902 14.0615 87.4902 13.9521C87.4902 13.8174 87.4727 13.6934 87.4355 13.5811C87.4004 13.4697 87.334 13.3721 87.2402 13.291C87.1455 13.21 87.0146 13.1455 86.8477 13.0986C86.6816 13.0518 86.4668 13.0283 86.2051 13.0283V12.5732C86.418 12.5732 86.5996 12.5518 86.75 12.5068C86.9004 12.4629 87.0234 12.4014 87.1191 12.3252C87.2148 12.248 87.2842 12.1553 87.3281 12.0479C87.3711 11.9414 87.3926 11.8223 87.3926 11.6914C87.3926 11.5469 87.3691 11.4209 87.3242 11.3135C87.2783 11.2061 87.2158 11.1182 87.1367 11.0479C87.0566 10.9775 86.9629 10.9248 86.8555 10.8896C86.7461 10.8545 86.6289 10.8369 86.5029 10.8369C86.377 10.8369 86.2598 10.8564 86.1533 10.8936C86.0459 10.9307 85.9512 10.9834 85.8672 11.0488C85.7852 11.1162 85.7158 11.1943 85.6602 11.2861C85.6035 11.3789 85.5615 11.4785 85.5332 11.5859C85.5156 11.6533 85.4863 11.7021 85.4492 11.7324C85.4121 11.7627 85.3643 11.7783 85.3066 11.7783C85.2949 11.7783 85.2822 11.7773 85.2695 11.7764C85.2559 11.7754 85.2422 11.7734 85.2256 11.7705L84.9004 11.7158C84.9326 11.4873 84.9961 11.2852 85.0898 11.1084C85.1826 10.9326 85.3008 10.7852 85.4443 10.666C85.5879 10.5469 85.752 10.4561 85.9375 10.3955C86.123 10.333 86.3232 10.3018 86.5381 10.3018Z" fill="#222222"/>
<path d="M82.2412 17.8604C82.2324 17.875 82.2227 17.8857 82.2129 17.8936C82.2031 17.9014 82.1895 17.9053 82.1738 17.9053C82.1563 17.9053 82.1367 17.8965 82.1152 17.8799C82.0918 17.8623 82.0635 17.8437 82.0293 17.8232C81.9941 17.8027 81.9531 17.7842 81.9043 17.7666C81.8555 17.75 81.7969 17.7412 81.7285 17.7412C81.6641 17.7412 81.6055 17.75 81.5557 17.7676C81.5059 17.7852 81.4648 17.8096 81.4307 17.8389C81.3965 17.8682 81.3721 17.9043 81.3555 17.9443C81.3379 17.9854 81.3301 18.0283 81.3301 18.0752C81.3301 18.1357 81.3437 18.1855 81.373 18.2256C81.4033 18.2646 81.4414 18.2979 81.4902 18.3262C81.5391 18.3545 81.5938 18.3779 81.6562 18.3994C81.7168 18.4189 81.7803 18.4404 81.8447 18.4629C81.9092 18.4854 81.9727 18.5098 82.0332 18.5371C82.0957 18.5645 82.1504 18.5986 82.1992 18.6416C82.2471 18.6826 82.2861 18.7354 82.3154 18.7959C82.3457 18.8564 82.3594 18.9316 82.3594 19.0205C82.3594 19.1143 82.3438 19.2031 82.3125 19.2861C82.2793 19.3682 82.2324 19.4404 82.1719 19.501C82.1104 19.5615 82.0352 19.6104 81.9453 19.6455C81.8555 19.6797 81.7539 19.6973 81.6406 19.6973C81.501 19.6973 81.374 19.6719 81.2598 19.6221C81.1445 19.5713 81.0469 19.5029 80.9668 19.417L81.0508 19.2783C81.0586 19.2686 81.0684 19.2588 81.0801 19.251C81.0918 19.2432 81.1035 19.2393 81.1172 19.2393C81.1387 19.2393 81.1631 19.251 81.1895 19.2734C81.2168 19.2959 81.25 19.3213 81.291 19.3477C81.332 19.375 81.3809 19.3994 81.4375 19.4219C81.4961 19.4443 81.5664 19.4561 81.6484 19.4561C81.7178 19.4561 81.7793 19.4463 81.834 19.4268C81.8867 19.4082 81.9336 19.3818 81.9707 19.3467C82.0078 19.3125 82.0371 19.2715 82.0566 19.2236C82.0762 19.1748 82.0869 19.1221 82.0869 19.0635C82.0869 18.998 82.0723 18.9443 82.043 18.9033C82.0137 18.8623 81.9746 18.8271 81.9258 18.7988C81.8789 18.7705 81.8242 18.7471 81.7617 18.7275C81.7012 18.708 81.6377 18.6885 81.5732 18.667C81.5088 18.6475 81.4453 18.624 81.3848 18.5967C81.3223 18.5693 81.2676 18.5342 81.2197 18.4912C81.1719 18.4482 81.1328 18.3945 81.1035 18.3301C81.0742 18.2656 81.0596 18.1865 81.0596 18.0908C81.0596 18.0146 81.0742 17.9414 81.1035 17.8701C81.1328 17.7998 81.1758 17.7363 81.2324 17.6807C81.2881 17.626 81.3574 17.583 81.4395 17.5498C81.5215 17.5166 81.6172 17.5 81.7246 17.5C81.8437 17.5 81.9531 17.5186 82.0527 17.5566C82.1514 17.5947 82.2383 17.6494 82.3125 17.7217L82.2412 17.8604Z" fill="#888888"/>
<path d="M84.0547 17.5244V17.7607H83.0234V18.4746H83.8584V18.7021H83.0234V19.4365H84.0547V19.6729H82.7305V17.5244H84.0547V17.5244Z" fill="#888888"/>
<path d="M85.9883 19.2295C86.0039 19.2295 86.0195 19.2354 86.0312 19.249L86.1465 19.374C86.0586 19.4756 85.9512 19.5547 85.8262 19.6123C85.7002 19.6689 85.5488 19.6973 85.3721 19.6973C85.2168 19.6973 85.0762 19.6709 84.9502 19.6172C84.8242 19.5635 84.7168 19.4893 84.6279 19.3916C84.5391 19.2959 84.4697 19.1797 84.4209 19.0449C84.3721 18.9092 84.3477 18.7607 84.3477 18.5986C84.3477 18.4375 84.373 18.2891 84.4258 18.1533C84.4785 18.0186 84.5527 17.9033 84.6475 17.8057C84.7422 17.709 84.8555 17.6338 84.9883 17.5801C85.1211 17.5264 85.2676 17.5 85.4277 17.5C85.5859 17.5 85.7217 17.5244 85.8359 17.5732C85.9512 17.6221 86.0527 17.6885 86.1416 17.7725L86.0469 17.9062C86.04 17.917 86.0312 17.9248 86.0234 17.9307C86.0137 17.9375 86.001 17.9404 85.9844 17.9404C85.9707 17.9404 85.957 17.9365 85.9434 17.9268C85.9277 17.917 85.9111 17.9053 85.8906 17.8916C85.8711 17.8779 85.8477 17.8623 85.8203 17.8467C85.793 17.8311 85.7617 17.8154 85.7246 17.8018C85.6875 17.7871 85.6445 17.7754 85.5957 17.7666C85.5469 17.7568 85.4902 17.752 85.4258 17.752C85.3105 17.752 85.2051 17.7715 85.1104 17.8115C85.0146 17.8506 84.9326 17.9072 84.8633 17.9795C84.7949 18.0527 84.7402 18.1416 84.7021 18.2471C84.6641 18.3525 84.6445 18.4697 84.6445 18.5986C84.6445 18.7334 84.6641 18.8525 84.7021 18.958C84.7402 19.0635 84.793 19.1514 84.8594 19.2236C84.9258 19.2959 85.0049 19.3525 85.0957 19.3896C85.1875 19.4277 85.2852 19.4463 85.3906 19.4463C85.4541 19.4463 85.5117 19.4424 85.5625 19.4355C85.6133 19.4287 85.6602 19.417 85.7041 19.4004C85.748 19.3838 85.7881 19.3643 85.8262 19.3389C85.8633 19.3154 85.9004 19.2861 85.9395 19.252C85.9561 19.2373 85.9727 19.2295 85.9883 19.2295Z" fill="#888888"/>
<path d="M87.6289 17.8604C87.6211 17.875 87.6113 17.8857 87.6016 17.8936C87.5918 17.9014 87.5781 17.9053 87.5625 17.9053C87.5449 17.9053 87.5254 17.8965 87.5029 17.8799C87.4805 17.8623 87.4512 17.8437 87.418 17.8232C87.3828 17.8027 87.3418 17.7842 87.293 17.7666C87.2441 17.75 87.1855 17.7412 87.1172 17.7412C87.0518 17.7412 86.9941 17.75 86.9434 17.7676C86.8945 17.7852 86.8525 17.8096 86.8184 17.8389C86.7852 17.8682 86.7598 17.9043 86.7432 17.9443C86.7266 17.9854 86.7178 18.0283 86.7178 18.0752C86.7178 18.1357 86.7324 18.1855 86.7617 18.2256C86.791 18.2646 86.8301 18.2979 86.8789 18.3262C86.9277 18.3545 86.9824 18.3779 87.0439 18.3994C87.1055 18.4189 87.168 18.4404 87.2324 18.4629C87.2969 18.4854 87.3604 18.5098 87.4219 18.5371C87.4834 18.5645 87.5381 18.5986 87.5869 18.6416C87.6348 18.6826 87.6738 18.7354 87.7031 18.7959C87.7334 18.8564 87.748 18.9316 87.748 19.0205C87.748 19.1143 87.7324 19.2031 87.7002 19.2861C87.668 19.3682 87.6211 19.4404 87.5605 19.501C87.498 19.5615 87.4229 19.6104 87.334 19.6455C87.2441 19.6797 87.1426 19.6973 87.0283 19.6973C86.8887 19.6973 86.7617 19.6719 86.6484 19.6221C86.5332 19.5713 86.4355 19.5029 86.3545 19.417L86.4385 19.2783C86.4473 19.2686 86.457 19.2588 86.4678 19.251C86.4795 19.2432 86.4922 19.2393 86.5059 19.2393C86.5273 19.2393 86.5508 19.251 86.5781 19.2734C86.6055 19.2959 86.6387 19.3213 86.6797 19.3477C86.7197 19.375 86.7695 19.3994 86.8262 19.4219C86.8838 19.4443 86.9541 19.4561 87.0371 19.4561C87.1055 19.4561 87.168 19.4463 87.2217 19.4268C87.2754 19.4082 87.3213 19.3818 87.3594 19.3467C87.3965 19.3125 87.4258 19.2715 87.4453 19.2236C87.4648 19.1748 87.4746 19.1221 87.4746 19.0635C87.4746 18.998 87.4609 18.9443 87.4307 18.9033C87.4014 18.8623 87.3633 18.8271 87.3145 18.7988C87.2666 18.7705 87.2119 18.7471 87.1504 18.7275C87.0889 18.708 87.0254 18.6885 86.9609 18.667C86.8965 18.6475 86.834 18.624 86.7725 18.5967C86.7109 18.5693 86.6563 18.5342 86.6074 18.4912C86.5605 18.4482 86.5215 18.3945 86.4922 18.3301C86.4629 18.2656 86.4473 18.1865 86.4473 18.0908C86.4473 18.0146 86.4629 17.9414 86.4922 17.8701C86.5215 17.7998 86.5645 17.7363 86.6201 17.6807C86.6758 17.626 86.7451 17.583 86.8281 17.5498C86.9102 17.5166 87.0049 17.5 87.1123 17.5C87.2324 17.5 87.3418 17.5186 87.4404 17.5566C87.5391 17.5947 87.626 17.6494 87.7002 17.7217L87.6289 17.8604Z" fill="#888888"/>
<path d="M26.2754 13.4668C26.2754 13.4058 26.2861 13.3486 26.3086 13.2949C26.3306 13.2412 26.3608 13.1948 26.3994 13.1553C26.438 13.1152 26.4839 13.084 26.5376 13.0605C26.5913 13.0371 26.6484 13.0254 26.709 13.0254C26.77 13.0254 26.8271 13.0371 26.8809 13.0605C26.9341 13.084 26.981 13.1152 27.0205 13.1553C27.0601 13.1948 27.0913 13.2412 27.1133 13.2949C27.1357 13.3486 27.1465 13.4058 27.1465 13.4668C27.1465 13.5298 27.1357 13.5874 27.1133 13.6396C27.0913 13.6924 27.0601 13.7383 27.0205 13.7778C26.981 13.8179 26.9341 13.8486 26.8809 13.8706C26.8271 13.8931 26.77 13.9043 26.709 13.9043C26.6484 13.9043 26.5913 13.8931 26.5376 13.8706C26.4839 13.8486 26.438 13.8179 26.3994 13.7778C26.3608 13.7383 26.3306 13.6924 26.3086 13.6396C26.2861 13.5874 26.2754 13.5298 26.2754 13.4668ZM26.2754 16.0918C26.2754 16.0312 26.2861 15.9736 26.3086 15.9199C26.3306 15.8662 26.3608 15.8193 26.3994 15.7803C26.438 15.7402 26.4839 15.709 26.5376 15.6855C26.5913 15.6621 26.6484 15.6504 26.709 15.6504C26.77 15.6504 26.8271 15.6621 26.8809 15.6855C26.9341 15.709 26.981 15.7402 27.0205 15.7803C27.0601 15.8193 27.0913 15.8662 27.1133 15.9199C27.1357 15.9736 27.1465 16.0312 27.1465 16.0918C27.1465 16.1543 27.1357 16.2119 27.1133 16.2646C27.0913 16.3174 27.0601 16.3633 27.0205 16.4033C26.981 16.4424 26.9341 16.4736 26.8809 16.4961C26.8271 16.5176 26.77 16.5293 26.709 16.5293C26.6484 16.5293 26.5913 16.5176 26.5376 16.4961C26.4839 16.4736 26.438 16.4424 26.3994 16.4033C26.3608 16.3633 26.3306 16.3174 26.3086 16.2646C26.2861 16.2119 26.2754 16.1543 26.2754 16.0918Z" fill="#222222"/>
<path d="M50.2754 13.4668C50.2754 13.4058 50.2861 13.3486 50.3086 13.2949C50.3306 13.2412 50.3608 13.1948 50.3994 13.1553C50.438 13.1152 50.4839 13.084 50.5376 13.0605C50.5913 13.0371 50.6484 13.0254 50.709 13.0254C50.77 13.0254 50.8271 13.0371 50.8809 13.0605C50.9341 13.084 50.981 13.1152 51.0205 13.1553C51.0601 13.1948 51.0913 13.2412 51.1133 13.2949C51.1357 13.3486 51.1465 13.4058 51.1465 13.4668C51.1465 13.5298 51.1357 13.5874 51.1133 13.6396C51.0913 13.6924 51.0601 13.7383 51.0205 13.7778C50.981 13.8179 50.9341 13.8486 50.8809 13.8706C50.8271 13.8931 50.77 13.9043 50.709 13.9043C50.6484 13.9043 50.5913 13.8931 50.5376 13.8706C50.4839 13.8486 50.438 13.8179 50.3994 13.7778C50.3608 13.7383 50.3306 13.6924 50.3086 13.6396C50.2861 13.5874 50.2754 13.5298 50.2754 13.4668ZM50.2754 16.0918C50.2754 16.0312 50.2861 15.9736 50.3086 15.9199C50.3306 15.8662 50.3608 15.8193 50.3994 15.7803C50.438 15.7402 50.4839 15.709 50.5376 15.6855C50.5913 15.6621 50.6484 15.6504 50.709 15.6504C50.77 15.6504 50.8271 15.6621 50.8809 15.6855C50.9341 15.709 50.981 15.7402 51.0205 15.7803C51.0601 15.8193 51.0913 15.8662 51.1133 15.9199C51.1357 15.9736 51.1465 16.0312 51.1465 16.0918C51.1465 16.1543 51.1357 16.2119 51.1133 16.2646C51.0913 16.3174 51.0601 16.3633 51.0205 16.4033C50.981 16.4424 50.9341 16.4736 50.8809 16.4961C50.8271 16.5176 50.77 16.5293 50.709 16.5293C50.6484 16.5293 50.5913 16.5176 50.5376 16.4961C50.4839 16.4736 50.438 16.4424 50.3994 16.4033C50.3608 16.3633 50.3306 16.3174 50.3086 16.2646C50.2861 16.2119 50.2754 16.1543 50.2754 16.0918Z" fill="#222222"/>
<path d="M73.2754 13.4668C73.2754 13.4058 73.2861 13.3486 73.3086 13.2949C73.3306 13.2412 73.3608 13.1948 73.3994 13.1553C73.438 13.1152 73.4839 13.084 73.5376 13.0605C73.5913 13.0371 73.6484 13.0254 73.709 13.0254C73.77 13.0254 73.8271 13.0371 73.8809 13.0605C73.9341 13.084 73.981 13.1152 74.0205 13.1553C74.0601 13.1948 74.0913 13.2412 74.1133 13.2949C74.1357 13.3486 74.1465 13.4058 74.1465 13.4668C74.1465 13.5298 74.1357 13.5874 74.1133 13.6396C74.0913 13.6924 74.0601 13.7383 74.0205 13.7778C73.981 13.8179 73.9341 13.8486 73.8809 13.8706C73.8271 13.8931 73.77 13.9043 73.709 13.9043C73.6484 13.9043 73.5913 13.8931 73.5376 13.8706C73.4839 13.8486 73.438 13.8179 73.3994 13.7778C73.3608 13.7383 73.3306 13.6924 73.3086 13.6396C73.2861 13.5874 73.2754 13.5298 73.2754 13.4668ZM73.2754 16.0918C73.2754 16.0312 73.2861 15.9736 73.3086 15.9199C73.3306 15.8662 73.3608 15.8193 73.3994 15.7803C73.438 15.7402 73.4839 15.709 73.5376 15.6855C73.5913 15.6621 73.6484 15.6504 73.709 15.6504C73.77 15.6504 73.8271 15.6621 73.8809 15.6855C73.9341 15.709 73.981 15.7402 74.0205 15.7803C74.0601 15.8193 74.0913 15.8662 74.1133 15.9199C74.1357 15.9736 74.1465 16.0312 74.1465 16.0918C74.1465 16.1543 74.1357 16.2119 74.1133 16.2646C74.0913 16.3174 74.0601 16.3633 74.0205 16.4033C73.981 16.4424 73.9341 16.4736 73.8809 16.4961C73.8271 16.5176 73.77 16.5293 73.709 16.5293C73.6484 16.5293 73.5913 16.5176 73.5376 16.4961C73.4839 16.4736 73.438 16.4424 73.3994 16.4033C73.3608 16.3633 73.3306 16.3174 73.3086 16.2646C73.2861 16.2119 73.2754 16.1543 73.2754 16.0918Z" fill="#222222"/>
</svg>
