<svg version="1.1" id="Capa_1" xmlns="http://www.w3.org/2000/svg" width="50" height="50" xmlns:xlink="http://www.w3.org/1999/xlink" x="0px" y="0px"
	 viewBox="0 0 24 24" style="enable-background:new 0 0 24 24;" xml:space="preserve">
<g>
	<g>
		<g>
			<path d="M0.4,10.6999998C0.4,12.3999996,0.8,14,1.6,15.6000004c0.6999999,1.2999992,1.6,2.5,2.8000002,3.5v4.3000011
				c0,0.2999992,0.1999998,0.5,0.3000002,0.5C4.8000002,24,4.9000001,24,5.0999999,24s0.4000001-0.1000004,0.5-0.2000008
				L8.3999996,21c0.8999996,0.2000008,1.8000002,0.2999992,2.6999998,0.2999992H13
				c5.8999996,0,10.7000008-4.7999992,10.7000008-10.6999998S18.7999992,0,12.8999996,0H11
				C5.1999998,0,0.4,4.8000002,0.4,10.6999998z M1.8,10.6999998C1.8,5.5999999,5.8999996,1.5,11,1.5h1.8999996
				C18,1.5,22.0999985,5.5999999,22.0999985,10.6999998s-4.1000004,9.1999998-9.1999998,9.1999998H11
				c-0.8999996,0-1.8000002-0.1000004-2.6999998-0.3999996c-0.1000004,0-0.1000004,0-0.1999998,0
				c-0.1999998,0-0.4000001,0.1000004-0.5,0.2000008L5.8000002,21.5v-2.7999992C5.8000002,18.5,5.7000003,18.3000011,5.5,18.1000004
				C3.2,16.2999992,1.8,13.6000004,1.8,10.6999998z"/>
		</g>
	</g>
	<g>
		<g>
			<path d="M15.3000002,8C15.1999998,6.5,14,5.1999998,12.3999996,5.0999999C11.5,5,10.6999998,5.2999997,10.0999994,5.9000001
				s-1,1.4000001-1,2.2999997C9.1000004,8.6999998,9.3999996,9,9.8000002,9s0.6345634-0.3185778,0.6345634-0.7185774
				c0-0.4999995,0.1563873-0.9724855,0.4563875-1.2724853s0.6140118-0.6383286,1.5716562-0.6577334
				c0.8998156-0.0182328,1.5907354,0.9214139,1.5907354,1.7214146S13.3169003,9.6810942,12.516901,9.881094
				C11.9169006,9.9810944,11.2999992,10.5,11.2999992,11.1999998V13c0,0.3999996,0.3000002,0.6999998,0.6999998,0.6999998
				S12.6999989,13.3999996,12.6999989,13v-1.6999998C14.3999996,10.8999996,15.3999996,9.6000004,15.3000002,8z"/>
		</g>
	</g>
	<g>
		<g>
			<path d="M12.5,15.3999996c-0.1000004-0.1000004-0.3000002-0.1999998-0.5-0.1999998s-0.3999996,0.1000004-0.5,0.1999998
				c-0.1000004,0.1000004-0.1999998,0.3000002-0.1999998,0.5c0,0.2000008,0.1000004,0.3999996,0.1999998,0.5
				C11.6000004,16.5,11.8000002,16.6000004,12,16.6000004S12.3999996,16.5,12.5,16.3999996s0.1999998-0.2999992,0.1999998-0.5
				C12.6837339,15.6512785,12.6324301,15.530714,12.5,15.3999996z"/>
		</g>
	</g>
</g>
</svg>
