<svg width="100" height="100" viewBox="0 0 100 100" fill="none" xmlns="http://www.w3.org/2000/svg">
<rect width="100" height="100" fill="white"/>
<rect x="6" y="6" width="27.3103" height="41.4713" fill="#E1E1E1"/>
<path opacity="0.2" d="M25.7964 20.9557L25.7964 32.8768H19.6552H13.514L13.514 20.9557H25.7964ZM25.7964 19.1494H13.514C12.4302 19.1494 12.069 20.2332 12.069 20.5944V32.8768C12.069 33.9606 13.1527 34.3218 13.514 34.3218H25.7964C26.8801 34.3218 27.2414 33.2381 27.2414 32.8768V20.9557C27.2414 20.2332 26.8801 19.1494 25.7964 19.1494ZM21.4614 27.4581L18.9327 31.0706L16.7652 28.9031L14.2365 32.1544H25.0739C24.7126 31.7931 21.4614 27.4581 21.4614 27.4581Z" fill="white"/>
<rect x="13.0804" y="24.2184" width="13.1494" height="2" fill="#888888"/>
<rect x="15.1035" y="27.2414" width="9.10345" height="1.01149" fill="#C8C8C8"/>
<rect x="36.3448" y="6" width="27.3103" height="41.4713" fill="#E1E1E1"/>
<path opacity="0.2" d="M56.1412 20.9557L56.1412 32.8768H50H43.8588L43.8588 20.9557H56.1412ZM56.1412 19.1494H43.8588C42.775 19.1494 42.4138 20.2332 42.4138 20.5944V32.8768C42.4138 33.9606 43.4975 34.3218 43.8588 34.3218H56.1412C57.2249 34.3218 57.5862 33.2381 57.5862 32.8768V20.9557C57.5862 20.2332 57.2249 19.1494 56.1412 19.1494ZM51.8062 27.4581L49.2775 31.0706L47.11 28.9031L44.5813 32.1544H55.4187C55.0575 31.7931 51.8062 27.4581 51.8062 27.4581Z" fill="white"/>
<rect x="43.4253" y="24.2184" width="13.1494" height="2" fill="#888888"/>
<rect x="45.4483" y="27.2414" width="9.10345" height="1.01149" fill="#C8C8C8"/>
<rect x="66.6897" y="6" width="27.3103" height="41.4713" fill="#E1E1E1"/>
<path opacity="0.2" d="M86.486 20.9557L86.486 32.8768H80.3448H74.2036L74.2036 20.9557H86.486ZM86.486 19.1494H74.2036C73.1199 19.1494 72.7586 20.2332 72.7586 20.5944V32.8768C72.7586 33.9606 73.8423 34.3218 74.2036 34.3218H86.486C87.5698 34.3218 87.931 33.2381 87.931 32.8768V20.9557C87.931 20.2332 87.5698 19.1494 86.486 19.1494ZM82.1511 27.4581L79.6223 31.0706L77.4548 28.9031L74.9261 32.1544H85.7635C85.4023 31.7931 82.1511 27.4581 82.1511 27.4581Z" fill="white"/>
<rect x="73.7701" y="24.2184" width="13.1494" height="2" fill="#888888"/>
<rect x="75.7931" y="27.2414" width="9.10345" height="1.01149" fill="#C8C8C8"/>
<rect x="6" y="53" width="27.3103" height="41.4713" fill="#E1E1E1"/>
<path opacity="0.2" d="M25.7964 67.9557L25.7964 79.8769H19.6552H13.514L13.514 67.9557H25.7964ZM25.7964 66.1494H13.514C12.4302 66.1494 12.069 67.2332 12.069 67.5944V79.8769C12.069 80.9606 13.1527 81.3218 13.514 81.3218H25.7964C26.8801 81.3218 27.2414 80.2381 27.2414 79.8769V67.9557C27.2414 67.2332 26.8801 66.1494 25.7964 66.1494ZM21.4614 74.4581L18.9327 78.0706L16.7652 75.9031L14.2365 79.1544H25.0739C24.7126 78.7931 21.4614 74.4581 21.4614 74.4581Z" fill="white"/>
<rect x="13.0804" y="71.2184" width="13.1494" height="2" fill="#888888"/>
<rect x="15.1035" y="74.2414" width="9.10345" height="1.01149" fill="#C8C8C8"/>
<rect x="36.3448" y="53" width="27.3103" height="41.4713" fill="#E1E1E1"/>
<path opacity="0.2" d="M56.1412 67.9557L56.1412 79.8769H50H43.8588L43.8588 67.9557H56.1412ZM56.1412 66.1494H43.8588C42.775 66.1494 42.4138 67.2332 42.4138 67.5944V79.8769C42.4138 80.9606 43.4975 81.3218 43.8588 81.3218H56.1412C57.2249 81.3218 57.5862 80.2381 57.5862 79.8769V67.9557C57.5862 67.2332 57.2249 66.1494 56.1412 66.1494ZM51.8062 74.4581L49.2775 78.0706L47.11 75.9031L44.5813 79.1544H55.4187C55.0575 78.7931 51.8062 74.4581 51.8062 74.4581Z" fill="white"/>
<rect x="43.4253" y="71.2184" width="13.1494" height="2" fill="#888888"/>
<rect x="45.4483" y="74.2414" width="9.10345" height="1.01149" fill="#C8C8C8"/>
<rect x="66.6897" y="53" width="27.3103" height="41.4713" fill="#E1E1E1"/>
<path opacity="0.2" d="M86.486 67.9557L86.486 79.8769H80.3448H74.2036L74.2036 67.9557H86.486ZM86.486 66.1494H74.2036C73.1199 66.1494 72.7586 67.2332 72.7586 67.5944V79.8769C72.7586 80.9606 73.8423 81.3218 74.2036 81.3218H86.486C87.5698 81.3218 87.931 80.2381 87.931 79.8769V67.9557C87.931 67.2332 87.5698 66.1494 86.486 66.1494ZM82.1511 74.4581L79.6223 78.0706L77.4548 75.9031L74.9261 79.1544H85.7635C85.4023 78.7931 82.1511 74.4581 82.1511 74.4581Z" fill="white"/>
<rect x="73.7701" y="71.2184" width="13.1494" height="2" fill="#888888"/>
<rect x="75.7931" y="74.2414" width="9.10345" height="1.01149" fill="#C8C8C8"/>
</svg>
