<svg width="100" height="100" viewBox="0 0 100 100" fill="none" xmlns="http://www.w3.org/2000/svg">
<rect width="100" height="100" fill="white"/>
<rect x="6" y="29" width="27.3103" height="41.4713" fill="#E1E1E1"/>
<path opacity="0.2" d="M25.7964 43.9557L25.7964 55.8769H19.6552H13.514L13.514 43.9557H25.7964ZM25.7964 42.1494H13.514C12.4302 42.1494 12.069 43.2332 12.069 43.5944V55.8769C12.069 56.9606 13.1527 57.3218 13.514 57.3218H25.7964C26.8801 57.3218 27.2414 56.2381 27.2414 55.8769V43.9557C27.2414 43.2332 26.8801 42.1494 25.7964 42.1494ZM21.4614 50.4581L18.9327 54.0706L16.7652 51.9031L14.2365 55.1544H25.0739C24.7126 54.7931 21.4614 50.4581 21.4614 50.4581Z" fill="white"/>
<rect x="13.0805" y="47.2184" width="13.1494" height="2" fill="#888888"/>
<rect x="15.1035" y="50.2414" width="9.10345" height="1" fill="#C8C8C8"/>
<rect x="36.3448" y="29" width="27.3103" height="41.4713" fill="#E1E1E1"/>
<path opacity="0.2" d="M56.1412 43.9557L56.1412 55.8769H50H43.8588L43.8588 43.9557H56.1412ZM56.1412 42.1494H43.8588C42.775 42.1494 42.4138 43.2332 42.4138 43.5944V55.8769C42.4138 56.9606 43.4975 57.3218 43.8588 57.3218H56.1412C57.2249 57.3218 57.5862 56.2381 57.5862 55.8769V43.9557C57.5862 43.2332 57.2249 42.1494 56.1412 42.1494ZM51.8062 50.4581L49.2775 54.0706L47.11 51.9031L44.5813 55.1544H55.4187C55.0575 54.7931 51.8062 50.4581 51.8062 50.4581Z" fill="white"/>
<rect x="43.4253" y="47.2184" width="13.1494" height="2" fill="#888888"/>
<rect x="45.4483" y="50.2414" width="9.10345" height="1" fill="#C8C8C8"/>
<rect x="66.6897" y="29" width="27.3103" height="41.4713" fill="#E1E1E1"/>
<path opacity="0.2" d="M86.486 43.9557L86.486 55.8769H80.3448H74.2036L74.2036 43.9557H86.486ZM86.486 42.1494H74.2036C73.1199 42.1494 72.7586 43.2332 72.7586 43.5944V55.8769C72.7586 56.9606 73.8423 57.3218 74.2036 57.3218H86.486C87.5698 57.3218 87.931 56.2381 87.931 55.8769V43.9557C87.931 43.2332 87.5698 42.1494 86.486 42.1494ZM82.1511 50.4581L79.6223 54.0706L77.4548 51.9031L74.9261 55.1544H85.7635C85.4023 54.7931 82.1511 50.4581 82.1511 50.4581Z" fill="white"/>
<rect x="73.7701" y="47.2184" width="13.1494" height="2" fill="#888888"/>
<rect x="75.7931" y="50.2414" width="9.10345" height="1" fill="#C8C8C8"/>
<rect x="2" y="44" width="8" height="8" fill="#888888"/>
<path d="M6.95071 49.6991L5.39624 47.998L6.9545 46.2889L6.95829 46.2849C7.01517 46.2126 7.01137 46.1043 6.95071 46.0481C6.89005 45.984 6.7801 45.984 6.71565 46.0481L5.04744 47.8776C4.98677 47.9418 4.98298 48.0461 5.04365 48.1184L6.71565 49.9478C6.74977 49.984 6.78768 50 6.83318 50C6.87488 50 6.9128 49.984 6.94313 49.9519C6.97346 49.9238 6.99242 49.8837 7 49.8355V49.8275C7 49.7793 6.98104 49.7352 6.95071 49.6991Z" fill="white"/>
<rect x="89" y="44" width="8" height="8" fill="#888888"/>
<path d="M92.0493 46.3009L93.6038 48.002L92.0455 49.7111L92.0417 49.7151C91.9848 49.7874 91.9886 49.8957 92.0493 49.9519C92.11 50.016 92.2199 50.016 92.2844 49.9519L93.9526 48.1224C94.0132 48.0582 94.017 47.9539 93.9564 47.8816L92.2844 46.0522C92.2502 46.016 92.2123 46 92.1668 46C92.1251 46 92.0872 46.016 92.0569 46.0481C92.0265 46.0762 92.0076 46.1163 92 46.1645L92 46.1725C92 46.2207 92.019 46.2648 92.0493 46.3009Z" fill="white"/>
</svg>
