<?xml version="1.0" encoding="utf-8"?>
<!-- Generator: Adobe Illustrator 21.0.0, SVG Export Plug-In . SVG Version: 6.00 Build 0)  -->
<svg version="1.1" id="Layer_1" xmlns="http://www.w3.org/2000/svg" width="80" height="80" xmlns:xlink="http://www.w3.org/1999/xlink" x="0px" y="0px"
	 viewBox="0 0 50 50" style="enable-background:new 0 0 50 50;" xml:space="preserve">
<style type="text/css">
	.st0{fill:#222222;stroke:#222222;stroke-width:0.2;stroke-miterlimit:10;}
	.st1{fill:#222222;}
</style>
<g>
	<g>
		<g>
			<g>
				<g>
					<path class="st0" d="M36,26.6000004l-12.3999996-12.5C23.3999996,13.9000006,23.2000008,13.9000006,22.8999996,14
						C22.6999989,14.1000004,22.5,14.3000002,22.5,14.6000004v17.2999992c0,0.1999989,0.1000004,0.5000019,0.3999996,0.6000004
						c0.2000008,0.0999985,0.5,0.0999985,0.7000008-0.0999985l3.2000008-2.5l2.7999992,5
						c0.1000004,0.2000008,0.2999992,0.2999992,0.5,0.2999992c0.1000004,0,0.2000008,0,0.2999992-0.0999985l3.6999989-1.9000015
						C34.2999992,33.1000023,34.3999977,33,34.3999977,32.7999992s0-0.2999992,0-0.5l-2.6000004-4.7000008h3.8999996
						c0.2999992,0,0.5-0.2000008,0.5999985-0.3999996C36.2000008,27,36.2000008,26.7000008,36,26.6000004z M30.6000004,26.3999996
						c-0.2000008,0-0.3999996,0.1000004-0.5,0.2999992C30,26.8999996,30,27.0999985,30.1000004,27.2999992l2.8000011,5.0999985
						l-2.6000004,1.2999992l-2.7999992-5.1000004c-0.1000004-0.2000008-0.2000008-0.2999992-0.3999996-0.2999992H27
						c-0.1000004,0-0.2999992,0-0.3999996,0.1000004l-2.7000008,2.1000004V16l10.3999996,10.3999996H30.6000004
						L30.6000004,26.3999996z"/>
				</g>
			</g>
			<g>
				<g>
					<path class="st0" d="M23.1000004,5.0999999C22.8000011,5.0999999,22.5,5.4000001,22.5,5.6999998v3.6999998
						C22.5,9.6999998,22.7999992,10,23.1000004,10c0.2999992,0,0.6000004-0.3000002,0.6000004-0.6000004V5.8000002
						C23.7000008,5.4000001,23.5,5.0999999,23.1000004,5.0999999z"/>
				</g>
			</g>
			<g>
				<g>
					<path class="st0" d="M18.1000004,13.8999996h-3.6999998c-0.3000002,0-0.6000004,0.3000002-0.6000004,0.6000004
						s0.3000002,0.6000004,0.6000004,0.6000004h3.6999998c0.2999992,0,0.6000004-0.3000002,0.6000004-0.6000004
						C18.7999992,14.1999998,18.5,13.8999996,18.1000004,13.8999996z"/>
				</g>
			</g>
			<g>
				<g>
					<path class="st0" d="M31.8999996,13.8999996h-3.7000008c-0.2999992,0-0.6000004,0.3000002-0.6000004,0.6000004
						s0.2999992,0.6000004,0.6000004,0.6000004h3.7000008C32.2000008,15.1000004,32.5,14.8000002,32.5,14.5
						S32.2000008,13.8999996,31.8999996,13.8999996z"/>
				</g>
			</g>
			<g>
				<g>
					<path class="st0" d="M20,10.5l-2.7000008-2.6999998c-0.2000008-0.1999998-0.6000004-0.1999998-0.8999996,0
						c-0.2000008,0.1999998-0.2000008,0.6000004,0,0.8999996l2.7000008,2.6999998
						C19.2000008,11.5,19.3999996,11.5999994,19.5,11.5999994c0.2000008,0,0.2999992-0.1000004,0.3999996-0.1999998
						C20.2999992,11.1999998,20.2999992,10.8000002,20,10.5z"/>
				</g>
			</g>
			<g>
				<g>
					<path class="st0" d="M20,17.6000004c-0.2000008-0.2000008-0.6000004-0.2000008-0.8999996,0l-2.7000008,2.7000008
						c-0.2000008,0.2000008-0.2000008,0.6000004,0,0.8999996c0.1000004,0.1000004,0.2999992,0.2000008,0.3999996,0.2000008
						c0.2000008,0,0.2999992-0.1000004,0.3999996-0.2000008L19.8999996,18.5
						C20.2999992,18.2000008,20.2999992,17.7999992,20,17.6000004z"/>
				</g>
			</g>
			<g>
				<g>
					<path class="st0" d="M29.7999992,7.9000001c-0.2000008-0.1999998-0.6000004-0.1999998-0.8999996,0l-2.7000008,2.7000003
						c-0.2000008,0.1999998-0.2000008,0.6000004,0,0.8999996c0.1000004,0.1000004,0.2999992,0.1999998,0.3999996,0.1999998
						S26.8999977,11.5999994,26.9999981,11.5l2.7000008-2.6999998C30,8.5,30,8.1000004,29.7999992,7.9000001z"/>
				</g>
			</g>
		</g>
	</g>
</g>
<g>
	<path class="st1" d="M17.2999992,41.0999985c0,0.7000008-0.2000008,1.2999992-0.5,1.5999985s-0.8999996,0.5999985-1.5,0.5999985
		s-1.1999998-0.2000008-1.5-0.5999985s-0.5-0.9000015-0.5-1.5999985s0.1999998-1.2999992,0.5-1.5999985
		c0.3999996-0.4000015,0.8999996-0.5999985,1.5-0.5999985S16.5,39.1000023,16.7999992,39.5
		C17.2000008,39.9000015,17.2999992,40.4000015,17.2999992,41.0999985z M14.1999998,41.0999985
		c0,0.5,0.1000004,0.7999992,0.3000002,1.0999985s0.5,0.4000015,0.8000002,0.4000015c0.6999998,0,1.0999994-0.5,1.0999994-1.4000015
		c0-1-0.3999996-1.4000015-1.1000004-1.4000015c-0.3999996,0-0.6000004,0.0999985-0.8000002,0.4000015
		C14.3000002,40.2999992,14.1999998,40.7000008,14.1999998,41.0999985z"/>
	<path class="st1" d="M21.2000008,43.2999992h-0.8999996v-1.9000015c0-0.2000008,0-0.4000015-0.1000004-0.5
		S20,40.6999969,19.8000011,40.6999969c-0.2000008,0-0.3999996,0.0999985-0.5,0.2999992s-0.2000008,0.4000015-0.2000008,0.7999992
		v1.5h-0.8999996V40h0.7000008l0.1000004,0.4000015l0,0C19.1000023,40.2000008,19.2000027,40.1000023,19.4000015,40
		s0.3999996-0.0999985,0.6000004-0.0999985c0.3999996,0,0.7000008,0.0999985,0.8999996,0.2999992s0.2999992,0.5,0.2999992,0.9000015
		V43.2999992z"/>
	<path class="st1" d="M25,43.2999992c-1,0-1.5-0.5999985-1.5-1.7000008c0-0.5999985,0.1000004-1,0.3999996-1.2999992
		s0.7000008-0.4000015,1.2000008-0.4000015c0.3999996,0,0.7000008,0.0999985,1,0.2000008l-0.2999992,0.7000008
		c-0.1000004-0.0999985-0.2999992-0.0999985-0.3999996-0.0999985s-0.2000008-0.0999985-0.3999996-0.0999985
		c-0.5,0-0.7000008,0.2999992-0.7000008,1c0,0.5999985,0.2000008,1,0.7000008,1c0.2000008,0,0.2999992,0,0.5-0.0999985
		c0.1000004,0,0.2999992-0.0999985,0.3999996-0.2000008v0.7999992c-0.1000004,0.0999985-0.2999992,0.2000008-0.3999996,0.2000008
		C25.3999996,43.2999992,25.2000008,43.2999992,25,43.2999992z"/>
	<path class="st1" d="M27.6000004,43.2999992h-0.8999996v-4.5999985h0.8999996V43.2999992z"/>
	<path class="st1" d="M28.5,39.2000008c0-0.2999992,0.2000008-0.4000015,0.5-0.4000015s0.5,0.0999985,0.5,0.4000015
		c0,0.0999985,0,0.2000008-0.1000004,0.2999992S29.1999989,39.5999985,29,39.5999985
		C28.7000008,39.5999985,28.5,39.5,28.5,39.2000008z M29.5,43.2999992h-0.8999996V40H29.5V43.2999992z"/>
	<path class="st1" d="M31.7000008,43.2999992c-1,0-1.5-0.5999985-1.5-1.7000008c0-0.5999985,0.1000004-1,0.3999996-1.2999992
		s0.7000008-0.4000015,1.2000008-0.4000015c0.3999996,0,0.6999989,0.0999985,1.0000019,0.2000008l-0.2999992,0.7000008
		c-0.0999985-0.0999985-0.2999992-0.0999985-0.4000015-0.0999985c-0.0999985,0-0.2000008-0.0999985-0.3999996-0.0999985
		c-0.5,0-0.7000008,0.2999992-0.7000008,1c0,0.5999985,0.2000008,1,0.7000008,1c0.2000008,0,0.3000011,0,0.5000019-0.0999985
		c0.0999985,0,0.2999992-0.0999985,0.4000015-0.2000008v0.7999992c-0.0999985,0.0999985-0.2999992,0.2000008-0.4000015,0.2000008
		C32.0999985,43.2999992,32,43.2999992,31.7000008,43.2999992z"/>
	<path class="st1" d="M34.2999992,41.5l0.4000015-0.5l0.9000015-1h1l-1.2999992,1.4000015l1.4000015,1.9000015h-1L34.7999992,42
		l-0.4000015,0.2999992v1h-0.9000015v-4.5999985h0.9000015v2L34.2999992,41.5L34.2999992,41.5z"/>
</g>
</svg>
