<?xml version="1.0" encoding="utf-8"?>
<!-- Generator: Adobe Illustrator 21.0.0, SVG Export Plug-In . SVG Version: 6.00 Build 0)  -->
<svg version="1.1" id="Layer_1" xmlns="http://www.w3.org/2000/svg" width="80" height="80" xmlns:xlink="http://www.w3.org/1999/xlink" x="0px" y="0px"
	 viewBox="0 0 50 50" style="enable-background:new 0 0 50 50;" xml:space="preserve">
<style type="text/css">
	.st0{fill:#222222;stroke:#222222;stroke-width:0.6;stroke-linejoin:round;stroke-miterlimit:10;}
	.st1{fill:#222222;}
</style>
<g>
	<g>
		<g>
			<path class="st0" d="M25,35.0999985c3.6000004,0,7-1.4000015,9.5999985-4s4-6,4-9.6000004s-1.4000015-7-4-9.6000004
				c-2.5-2.5-5.7000008-3.9000001-9.1000004-4V6.0999999h2.2999992v-1H25h-0.5h-2.2999992v1H24.5V8
				c-3.5,0.1000004-6.7000008,1.5-9.1000004,4c-2.6000004,2.6000004-4,6-4,9.6000004s1.3999996,7,4,9.6000004
				C18,33.7000008,21.3999996,35.0999985,25,35.0999985z M16.1000004,12.6000004
				c2.2999992-2.3000002,5.3000011-3.6000004,8.5-3.6999998v1.3999996H25.5V8.8999996
				C28.7000008,9,31.7000008,10.2999992,34,12.5999994s3.5999985,5.3000002,3.7000008,8.499999h-1.4000015V22h1.4000015
				C37.6000023,25.2000008,36.2999992,28.2000008,34,30.5s-5.2999992,3.5999985-8.5,3.7000008v-1.4000015h-0.8999996v1.4000015
				c-3.2000008-0.0999985-6.1999989-1.4000015-8.5-3.7000008S12.5,25.2000008,12.4000006,22h1.3999996v-0.8999996h-1.3999996
				C12.5,17.8999996,13.8000002,14.8999996,16.1000004,12.6000004z"/>
			<path class="st0" d="M17.7999992,15L16.5,13.6999998L17.2000008,13L18.5,14.3000002L17.7999992,15z"/>
			<path class="st0" d="M32.7999992,30L31.5,28.7000008L32.2000008,28L33.5,29.2999992L32.7999992,30z"/>
			<path class="st0" d="M32.2000008,15L31.5,14.3000002L32.7999992,13L33.5,13.6999998L32.2000008,15z"/>
			<path class="st0" d="M17.2000008,30L16.5,29.2999992L17.7999992,28L18.5,28.7000008L17.2000008,30z"/>
			<path class="st0" d="M25,23.3999996c1,0,1.8999996-0.7999992,1.8999996-1.8999996
				c0-0.8999996-0.6000004-1.6000004-1.3999996-1.7999992v-4.8000002h-0.8999996v4.8000002
				C23.8000011,19.9000015,23.2000008,20.6000004,23.2000008,21.5C23.1000004,22.6000004,24,23.3999996,25,23.3999996z
				 M25,20.6000004c0.5,0,0.8999996,0.3999996,0.8999996,0.8999996S25.5,22.3999996,25,22.3999996S24.1000004,22,24.1000004,21.5
				S24.5,20.6000004,25,20.6000004z"/>
		</g>
	</g>
</g>
<g>
	<path class="st1" d="M16,41.0999985c0,0.7000008-0.1999998,1.2999992-0.5,1.5999985s-0.8999996,0.5999985-1.5,0.5999985
		s-1.1999998-0.2000008-1.5-0.5999985S12,41.7999954,12,41.0999985S12.1999998,39.7999992,12.5,39.5
		c0.3999996-0.4000015,0.8999996-0.5999985,1.5-0.5999985S15.1999998,39.1000023,15.5,39.5
		C15.8000002,39.7999992,16,40.4000015,16,41.0999985z M12.8999996,41.0999985c0,0.5,0.1000004,0.7999992,0.3000002,1.0999985
		s0.5,0.4000015,0.8000002,0.4000015c0.6999998,0,1.1000004-0.5,1.1000004-1.4000015c0-1-0.3999996-1.4000015-1.1000004-1.4000015
		c-0.3999996,0-0.6000004,0.0999985-0.8000002,0.4000015C13,40.2000008,12.8999996,40.5999985,12.8999996,41.0999985z"/>
	<path class="st1" d="M19.7999992,43.2000008H19v-1.9000015c0-0.2000008,0-0.4000015-0.1000004-0.5
		S18.6999989,40.5999985,18.5,40.5999985c-0.2000008,0-0.3999996,0.0999985-0.5,0.2999992s-0.2000008,0.4000015-0.2000008,0.7999992
		v1.5h-0.8999996V40h0.7000008l0.1000004,0.4000015l0,0C17.8000011,40.2000008,17.9000015,40.1000023,18.1000004,40
		S18.5,39.9000015,18.7000008,39.9000015c0.3999996,0,0.7000008,0.0999985,0.8999996,0.2999992s0.2999992,0.5,0.2999992,0.9000015
		v2.0999985H19.7999992z"/>
	<path class="st1" d="M23.3999996,43.2999992C23,43.2999992,22.6999989,43.2000008,22.5,42.8999977
		c-0.2000008-0.2999992-0.2999992-0.7000008-0.2999992-1.2000008s0.1000004-1,0.2999992-1.2999992
		c0.2000008-0.2999992,0.5-0.5,0.8999996-0.5s0.7000008,0.2000008,0.8999996,0.5l0,0c0-0.2000008-0.1000004-0.5-0.1000004-0.7000008
		v-1h0.8999996v4.5999985h-0.7000008l-0.2000008-0.4000015l0,0C24.1000004,43.0999985,23.7999992,43.2999992,23.3999996,43.2999992z
		 M23.7000008,42.5999985c0.2000008,0,0.3999996-0.0999985,0.5-0.2000008
		c0.1000004-0.0999985,0.2000008-0.4000015,0.2000008-0.7000008v-0.0999985c0-0.4000015-0.1000004-0.5999985-0.2000008-0.7999992
		s-0.2999992-0.2000008-0.5-0.2000008s-0.3999996,0.0999985-0.5,0.2999992C23.1000004,41,23,41.2999992,23,41.5999985
		s0.1000004,0.5999985,0.2000008,0.7000008C23.2999992,42.5,23.5,42.5999985,23.7000008,42.5999985z"/>
	<path class="st1" d="M27.6000004,43.2999992c-0.5,0-0.8999996-0.0999985-1.2000008-0.4000015S26,42.1999969,26,41.6999969
		s0.1000004-1,0.3999996-1.2999992s0.7000008-0.5,1.1000004-0.5c0.5,0,0.7999992,0.0999985,1.1000004,0.4000015
		S29,40.8999977,29,41.3999977v0.4000015h-2.1000004c0,0.2999992,0.1000004,0.5,0.2000008,0.5999985
		s0.2999992,0.2000008,0.6000004,0.2000008c0.2000008,0,0.3999996,0,0.6000004-0.0999985s0.3999996-0.0999985,0.6000004-0.2000008
		V43c-0.2000008,0.0999985-0.2999992,0.0999985-0.5,0.2000008C28.1000004,43.2999992,27.8999996,43.2999992,27.6000004,43.2999992z
		 M27.5,40.5c-0.2000008,0-0.2999992,0.0999985-0.3999996,0.2000008C27,40.7999992,26.8999996,41,26.8999996,41.2000008h1.2999992
		c0-0.2000008-0.1000004-0.4000015-0.2000008-0.5C27.7999992,40.5999985,27.7000008,40.5,27.5,40.5z"/>
	<path class="st1" d="M30.6000004,43.2000008h-0.8999996v-4.5999985h0.8999996V43.2000008z"/>
	<path class="st1" d="M33.5999985,43.2000008l-0.2000008-0.4000015l0,0c-0.2000008,0.2000008-0.2999992,0.2999992-0.5,0.4000015
		c-0.2000008,0.0999985-0.4000015,0.0999985-0.5999985,0.0999985C32,43.2999992,31.6999989,43.2000008,31.5999985,43
		c-0.2000008-0.2000008-0.2999992-0.4000015-0.2999992-0.7999992c0-0.2999992,0.1000004-0.5999985,0.3999996-0.7999992
		c0.2000008-0.2000008,0.6000004-0.2999992,1.1000004-0.2999992h0.5999985V41c0-0.2999992-0.2000008-0.5-0.5-0.5
		s-0.5999985,0.0999985-0.8999996,0.2000008l-0.2999992-0.5999985C32.0999985,39.9000015,32.5,39.8000031,33,39.8000031
		c0.4000015,0,0.7999992,0.0999985,1,0.2999992s0.4000015,0.5,0.4000015,0.9000015v2.2000008
		C34.4000015,43.2000046,33.5999985,43.2000046,33.5999985,43.2000008z M33.2999992,41.7000008H33
		c-0.2999992,0-0.5,0.0999985-0.5999985,0.0999985S32.2000008,42,32.2000008,42.2000008
		c0,0.2999992,0.0999985,0.4000015,0.4000015,0.4000015c0.2000008,0,0.4000015-0.0999985,0.5-0.2000008
		c0.0999985-0.0999985,0.2000008-0.2999992,0.2000008-0.5C33.3000031,41.9000015,33.3000031,41.7000008,33.2999992,41.7000008z"/>
	<path class="st1" d="M34.7000008,40h1l0.5999985,1.7999992C36.3999977,42,36.3999977,42.0999985,36.3999977,42.3999977l0,0
		c0-0.2000008,0.0999985-0.4000015,0.0999985-0.5999985L37.0999947,40h1l-1.4000015,3.7000008
		C36.5999947,44,36.3999939,44.2999992,36.1999931,44.5s-0.5,0.2999992-0.7999992,0.2999992c-0.2000008,0-0.2999992,0-0.5,0
		v-0.7000008c0.0999985,0,0.2000008,0,0.4000015,0s0.2999992,0,0.4000015-0.0999985
		c0.0999985-0.0999985,0.2000008-0.2000008,0.2999992-0.4000015l0.0999985-0.2000008L34.7000008,40z"/>
</g>
</svg>
