<?xml version="1.0" encoding="utf-8"?>
<!-- Generator: Adobe Illustrator 21.0.0, SVG Export Plug-In . SVG Version: 6.00 Build 0)  -->
<svg version="1.1" id="Layer_1" xmlns="http://www.w3.org/2000/svg" width="80" height="80" xmlns:xlink="http://www.w3.org/1999/xlink" x="0px" y="0px"
	 viewBox="0 0 50 50" style="enable-background:new 0 0 50 50;" xml:space="preserve">
<style type="text/css">
	.st0{fill:#222222;}
	.st1{fill:#222222;stroke:#222222;stroke-width:0.7;stroke-miterlimit:10;}
</style>
<g>
	<g>
		<g>
			<path class="st0" d="M38.2999992,21.7000008V22.5H11.6999998v-12c0-1.1000004,0.8999996-2,2-2h22.5999985
				c0.5999985,0,1.0999985,0.3000002,1.5,0.6999998h2c-0.5999985-1.4000001-2-2.4000001-3.5-2.4000001H13.6999998
				C11.6999998,6.7999997,10,8.5,10,10.5v14.2999992c0,2,1.6999998,3.7000008,3.6999998,3.7000008h10.500001V32H19
				c-0.5,0-0.7999992,0.4000015-0.7999992,0.7999992c0,0.4000015,0.3999996,0.7999992,0.7999992,0.7999992h12.1000004
				c0.5,0,0.7999992-0.4000015,0.7999992-0.7999992C31.8999996,32.3999977,31.5,32,31.1000004,32h-5.1999989v-3.5h10.5
				c2,0,3.7000008-1.7000008,3.7000008-3.7000008v-3.1000004C40.0999985,21.7000008,38.2999992,21.7000008,38.2999992,21.7000008z
				 M38.2999992,24.7999992c0,1.1000004-0.9000015,2-2,2H13.6999998c-1.1000004,0-2-0.8999996-2-2v-0.7000008h26.5999985V24.7999992
				z"/>
		</g>
		<path class="st1" d="M39.2000008,11c-1.5999985,0-2.7999992,1.1999998-2.7999992,2.6000004v3.6000004
			c0,1.3999996,1.2999992,2.6000004,2.7999992,2.6000004C40.7999992,19.8000011,42,18.6000004,42,17.2000008v-3.6000004
			C42,12.1999998,40.7000008,11,39.2000008,11z M41.4000015,17.2000008c0,1.1000004-1,2.1000004-2.2000008,2.1000004
			S37,18.3999996,37,17.2000008v-3.6000004C37,12.5,38,11.5,39.2000008,11.5s2.2000008,0.8999996,2.2000008,2.1000004V17.2000008z"
			/>
		<path class="st1" d="M39.2000008,13.1000004c-0.2000008,0-0.2999992,0.1000004-0.2999992,0.3000002v1.3999996
			C38.9000015,15,39,15.1000004,39.2000008,15.1000004S39.5,15,39.5,14.8000002v-1.3999996
			C39.5,13.1999998,39.4000015,13.1000004,39.2000008,13.1000004z"/>
	</g>
</g>
<g>
	<path class="st0" d="M8.3000002,39.4000015c0,0.7000008-0.1999998,1.2999992-0.5,1.5999985S7,41.5999985,6.3000002,41.5999985
		S5.0999999,41.4000015,4.8000002,41s-0.5-0.9000015-0.5-1.5999985s0.1999998-1.2999992,0.5-1.5999985
		c0.4000001-0.4000015,0.9000001-0.5999985,1.5-0.5999985s1.1999998,0.2000008,1.5,0.5999985
		S8.3000002,38.7000008,8.3000002,39.4000015z M5.1999998,39.4000015c0,0.5,0.0999999,0.7999992,0.3000002,1.0999985
		s0.5,0.4000015,0.8000002,0.4000015c0.6999998,0,1.0999999-0.5,1.0999999-1.4000015c0-1-0.4000001-1.4000015-1.0999999-1.4000015
		C5.9000001,38.0999985,5.7000003,38.1999969,5.5,38.5C5.3000002,38.5999985,5.1999998,38.9000015,5.1999998,39.4000015z"/>
	<path class="st0" d="M12.1999998,41.5999985h-0.8999996v-1.9000015c0-0.2000008,0-0.4000015-0.1000004-0.5
		S11,38.9999962,10.8000002,38.9999962s-0.3999996,0.0999985-0.5,0.2999992C10.1000004,39.4000015,10,39.5999985,10,40v1.5
		H9.1999998v-3.2999992h0.6999998L10,38.6000023l0,0c0.1000004-0.2000008,0.1999998-0.2999992,0.3999996-0.4000015
		S10.7999992,38.1000023,11,38.1000023c0.3999996,0,0.6999998,0.0999985,0.8999996,0.2999992s0.3000002,0.5,0.3000002,0.9000015
		V41.5999985z"/>
	<path class="st0" d="M17.6000004,41.5999985h-0.8999996v-1.9000015c0-0.2000008,0-0.4000015-0.1000004-0.5
		s-0.2000008-0.2000008-0.3999996-0.2000008c-0.2000008,0-0.3999996,0.0999985-0.5,0.2999992
		s-0.1999998,0.4000015-0.1999998,0.7999992v1.5h-0.8999996v-3.2999992h0.6999998l0.1000004,0.4000015l0,0
		c0.1000004-0.2000008,0.1999998-0.2999992,0.3999996-0.4000015c0.2000008-0.0999985,0.3999996-0.0999985,0.6000004-0.0999985
		c0.5,0,0.7999992,0.2000008,1,0.5h0.1000004c0.1000004-0.2000008,0.2000008-0.2999992,0.3999996-0.4000015
		s0.3999996-0.0999985,0.6000004-0.0999985c0.3999996,0,0.7000008,0.0999985,0.7999992,0.2999992
		c0.2000008,0.2000008,0.2999992,0.5,0.2999992,0.9000015v2.0999985h-0.8999996v-1.9000015c0-0.2000008,0-0.4000015-0.1000004-0.5
		s-0.2000008-0.2000008-0.3999996-0.2000008c-0.2000008,0-0.3999996,0.0999985-0.5,0.2000008S17.5,39.4999962,17.5,39.7999954
		v1.8000031H17.6000004z"/>
	<path class="st0" d="M23.5,39.9000015c0,0.5-0.1000004,1-0.3999996,1.2999992s-0.7000008,0.5-1.2000008,0.5
		c-0.2999992,0-0.6000004-0.0999985-0.7999992-0.2000008C20.8999996,41.4000015,20.7000008,41.2000008,20.5,40.9000015
		S20.2999992,40.3000031,20.2999992,40c0-0.5,0.1000004-1,0.3999996-1.2000008s0.7000008-0.4000015,1.2000008-0.4000015
		c0.2999992,0,0.6000004,0.0999985,0.7999992,0.2000008s0.3999996,0.2999992,0.6000004,0.5999985S23.5,39.5999985,23.5,39.9000015z
		 M21.2999992,39.9000015c0,0.2999992,0.1000004,0.5999985,0.2000008,0.7000008s0.2999992,0.2000008,0.5,0.2000008
		s0.3999996-0.0999985,0.5-0.2000008s0.2000008-0.4000015,0.2000008-0.7000008S22.6000004,39.3000031,22.5,39.2000008
		S22.2000008,39,22,39s-0.3999996,0.0999985-0.5,0.2000008C21.2999992,39.2999992,21.2999992,39.5999985,21.2999992,39.9000015z"/>
	<path class="st0" d="M26.6000004,41.5999985L26.5,41.1999969l0,0c-0.1000004,0.2000008-0.2000008,0.2999992-0.3999996,0.4000015
		C25.8999996,41.6999969,25.7000008,41.6999969,25.5,41.6999969c-0.3999996,0-0.7000008-0.0999985-0.8999996-0.2999992
		s-0.2999992-0.5-0.2999992-0.9000015v-2.0999985h0.8999996v1.9000015c0,0.2000008,0,0.4000015,0.1000004,0.5
		S25.5000019,41,25.7000008,41c0.2000008,0,0.3999996-0.0999985,0.5-0.2999992s0.2000008-0.4000015,0.2000008-0.7999992v-1.5
		h0.8999996v3.2999992h-0.7000008V41.5999985z"/>
	<path class="st0" d="M30.5,40.5999985c0,0.2999992-0.1000004,0.5999985-0.2999992,0.7999992
		c-0.2000008,0.2000008-0.6000004,0.2999992-1,0.2999992c-0.2000008,0-0.3999996,0-0.6000004,0s-0.2999992-0.0999985-0.5-0.0999985
		v-0.7000008c0.2000008,0.0999985,0.3999996,0.0999985,0.6000004,0.2000008c0.2000008,0.0999985,0.3999996,0.0999985,0.5,0.0999985
		c0.2999992,0,0.5-0.0999985,0.5-0.2999992c0-0.0999985,0-0.0999985-0.1000004-0.2000008
		c0,0-0.1000004-0.0999985-0.2000008-0.2000008C29.2999992,40.3999977,29.1999989,40.3999977,29,40.2999954
		c-0.2999992-0.0999985-0.3999996-0.2000008-0.6000004-0.2999992c-0.1000004-0.0999985-0.2000008-0.2000008-0.2999992-0.2999992
		C28,39.5,28,39.2999992,28,39.0999985c0-0.2999992,0.1000004-0.5,0.2999992-0.7000008
		c0.2000008-0.2000008,0.5-0.2000008,1-0.2000008c0.3999996,0,0.7999992,0.0999985,1.2000008,0.2999992l-0.2999992,0.5999985
		C30,39.0999985,29.8999996,39,29.7000008,39s-0.2999992-0.0999985-0.3999996-0.0999985
		c-0.2999992,0-0.3999996,0.0999985-0.3999996,0.2000008c0,0.0999985,0,0.0999985,0.1000004,0.2000008
		c0.1000004,0.0999985,0.2999992,0.0999985,0.6000004,0.2999992c0.2999992,0.0999985,0.3999996,0.2000008,0.6000004,0.2999992
		s0.2000008,0.2000008,0.2999992,0.2999992S30.5,40.4000015,30.5,40.5999985z"/>
	<path class="st0" d="M32.7000008,41.5999985c-0.5,0-0.8999996-0.0999985-1.2000008-0.4000015S31,40.5,31,39.9000015
		c0-0.5,0.1000004-1,0.3999996-1.2999992s0.6999989-0.5,1.1000004-0.5c0.5,0,0.7999992,0.0999985,1.0999985,0.4000015
		S34,39.1000023,34,39.6000023v0.4000015h-2.1000004c0,0.2999992,0.1000004,0.5,0.1999989,0.5999985
		s0.2999992,0.2000008,0.5999985,0.2000008c0.2000008,0,0.4000015,0,0.5999985-0.0999985s0.4000015-0.0999985,0.5999985-0.2000008
		v0.7000008c-0.2000008,0.0999985-0.2999992,0.0999985-0.5,0.2000008
		C33.0999985,41.5999985,32.9000015,41.5999985,32.7000008,41.5999985z M32.5,38.9000015
		c-0.2000008,0-0.2999992,0.0999985-0.4000015,0.2000008c-0.1000004,0.0999985-0.2000008,0.2999992-0.2000008,0.5h1.2999992
		c0-0.2000008-0.0999985-0.4000015-0.2000008-0.5C32.9000015,38.9000015,32.7000008,38.9000015,32.5,38.9000015z"/>
	<path class="st0" d="M39.2999992,39.9000015c0,0.5-0.0999985,1-0.4000015,1.2999992s-0.7000008,0.5-1.2000008,0.5
		c-0.2999992,0-0.5999985-0.0999985-0.7999992-0.2000008c-0.2000008-0.0999985-0.4000015-0.2999992-0.5999985-0.5999985
		S36.0999985,40.3000031,36.0999985,40c0-0.5,0.0999985-1,0.4000015-1.2000008s0.7000008-0.4000015,1.2000008-0.4000015
		c0.2999992,0,0.5999985,0.0999985,0.7999992,0.2000008s0.4000015,0.2999992,0.5999985,0.5999985
		S39.2999992,39.5999985,39.2999992,39.9000015z M37,39.9000015c0,0.2999992,0.0999985,0.5999985,0.2000008,0.7000008
		s0.2999992,0.2000008,0.5,0.2000008s0.4000015-0.0999985,0.5-0.2000008
		c0.0999985-0.2000008,0.2000008-0.4000015,0.2000008-0.7000008s-0.0999985-0.5999985-0.2000008-0.7000008
		S37.9000015,39,37.7000008,39s-0.4000015,0.0999985-0.5,0.2000008C37.0999985,39.2999992,37,39.5999985,37,39.9000015z"/>
	<path class="st0" d="M42.2999992,41.5999985l-0.0999985-0.4000015l0,0C42.1000023,41.3999977,42,41.4999962,41.7999992,41.5999985
		c-0.2000008,0.0999985-0.4000015,0.0999985-0.5999985,0.0999985c-0.4000015,0-0.7000008-0.0999985-0.9000015-0.2999992
		S40,40.7999992,40,40.4000015v-2.0999985h0.9000015v1.9000015c0,0.2000008,0,0.4000015,0.0999985,0.5
		s0.2000008,0.2000008,0.4000015,0.2000008s0.4000015-0.0999985,0.5-0.2999992s0.2000008-0.4000015,0.2000008-0.7999992v-1.5H43
		v3.2999992C43,41.6000061,42.2999992,41.6000061,42.2999992,41.5999985z"/>
	<path class="st0" d="M45.2999992,40.9000015c0.2000008,0,0.2999992,0,0.5999985-0.0999985v0.7000008
		c-0.2000008,0.0999985-0.5,0.0999985-0.7999992,0.0999985c-0.4000015,0-0.5999985-0.0999985-0.7999992-0.2999992
		s-0.2000008-0.5-0.2000008-0.7999992V39h-0.4000015v-0.4000015l0.5-0.2999992l0.2999992-0.7000008h0.5999985v0.7000008h0.9000015
		V39h-0.9000015v1.5999985c0,0.0999985,0,0.2000008,0.0999985,0.2999992
		C45.0999985,40.9000015,45.2000008,40.9000015,45.2999992,40.9000015z"/>
</g>
</svg>
