<?xml version="1.0" encoding="utf-8"?>
<!-- Generator: Adobe Illustrator 21.0.0, SVG Export Plug-In . SVG Version: 6.00 Build 0)  -->
<svg version="1.1" id="Layer_1" xmlns="http://www.w3.org/2000/svg" width="50" height="50" xmlns:xlink="http://www.w3.org/1999/xlink" x="0px" y="0px"
	 viewBox="0 0 50 50" style="enable-background:new 0 0 50 50;" xml:space="preserve">
<style type="text/css">
	.st0{fill:#222222;}
</style>
<path class="st0" d="M38.4000015,15.3000002H11.6000004C10.7000008,15.3000002,10,16,10,16.8999996v16.3999996
	c0,0.9000015,0.6999998,1.5999985,1.6000004,1.5999985h26.8000011C39.3000031,34.8999977,40,34.1999969,40,33.2999992v-16.5
	C40,15.8999996,39.2999992,15.3000002,38.4000015,15.3000002z M38.2999992,18.3999996V31l-8.8999996-7.1000004
	L38.2999992,18.3999996z M11.6000004,33.0999985L22,24.8999996L24.5,26.5c0.2999992,0.2000008,0.6000004,0.2000008,0.8999996,0
	l2.5-1.6000004l10.3999996,8.1999989H11.6000004L11.6000004,33.0999985z M25,24.7999992l-12.8000002-8h25.5L25,24.7999992z
	 M11.6999998,31.1000004V18.2999992l8.8999987,5.6000004L11.6999998,31.1000004z"/>
</svg>
