<svg width="100" height="100" viewBox="0 0 100 100" fill="none" xmlns="http://www.w3.org/2000/svg">
<rect width="100" height="100" fill="white"/>
<rect x="6" y="32" width="42" height="36" fill="#E1E1E1"/>
<path d="M30.9524 46.3095L30.9524 54.9524H26.5H22.0476L22.0476 46.3095H30.9524ZM30.9524 45H22.0476C21.2619 45 21 45.7857 21 46.0476V54.9524C21 55.7381 21.7857 56 22.0476 56H30.9524C31.7381 56 32 55.2143 32 54.9524V46.3095C32 45.7857 31.7381 45 30.9524 45ZM27.8095 51.0238L25.9762 53.6429L24.4048 52.0714L22.5714 54.4286H30.4286C30.1667 54.1667 27.8095 51.0238 27.8095 51.0238Z" fill="#888888"/>
<rect x="52" y="52" width="42" height="2" fill="#E1E1E1"/>
<rect x="52" y="56" width="22" height="2" fill="#E1E1E1"/>
<rect x="52" y="47" width="34.3256" height="2" fill="#C8C8C8"/>
<rect x="52" y="43" width="42" height="2" fill="#888888"/>
</svg>
