<svg width="100" height="100" viewBox="0 0 100 100" fill="none" xmlns="http://www.w3.org/2000/svg">
<rect width="100" height="100" fill="white"/>
<rect x="6" y="15" width="88" height="48" fill="#E1E1E1"/>
<path d="M53.9524 35.3095L53.9524 43.9524H49.5H45.0476L45.0476 35.3095H53.9524ZM53.9524 34H45.0476C44.2619 34 44 34.7857 44 35.0476V43.9524C44 44.7381 44.7857 45 45.0476 45H53.9524C54.7381 45 55 44.2143 55 43.9524V35.3095C55 34.7857 54.7381 34 53.9524 34ZM50.8095 40.0238L48.9762 42.6429L47.4048 41.0714L45.5714 43.4286H53.4286C53.1667 43.1667 50.8095 40.0238 50.8095 40.0238Z" fill="#888888"/>
<rect x="29" y="79" width="42" height="2" fill="#E1E1E1"/>
<rect x="39" y="83" width="22" height="2" fill="#E1E1E1"/>
<rect x="33" y="74" width="34.3256" height="2" fill="#C8C8C8"/>
<rect x="29" y="70" width="42" height="2" fill="#888888"/>
</svg>
