<svg width="100" height="100" viewBox="0 0 100 100" fill="none" xmlns="http://www.w3.org/2000/svg">
<rect width="100" height="100" fill="white"/>
<rect x="6" y="7" width="42" height="26" fill="#E1E1E1"/>
<path d="M29.1933 17.6833L29.1933 22.1933H26.87H24.5467L24.5467 17.6833H29.1933ZM29.1933 17H24.5467C24.1367 17 24 17.41 24 17.5467V22.1933C24 22.6033 24.41 22.74 24.5467 22.74H29.1933C29.6033 22.74 29.74 22.33 29.74 22.1933V17.6833C29.74 17.41 29.6033 17 29.1933 17ZM27.5533 20.1433L26.5967 21.51L25.7767 20.69L24.82 21.92H28.92C28.7833 21.7833 27.5533 20.1433 27.5533 20.1433Z" fill="#888888"/>
<rect x="52" y="19" width="42" height="2" fill="#E1E1E1"/>
<rect x="52" y="23" width="42" height="2" fill="#E1E1E1"/>
<rect x="52" y="27" width="22.8837" height="2" fill="#E1E1E1"/>
<rect x="52" y="14" width="34.3256" height="2" fill="#888888"/>
<rect x="52" y="10" width="42" height="2" fill="#888888"/>
<rect x="52" y="37" width="42" height="26" fill="#E1E1E1"/>
<path d="M75.1933 47.6833L75.1933 52.1933H72.87H70.5467L70.5467 47.6833H75.1933ZM75.1933 47H70.5467C70.1367 47 70 47.41 70 47.5467V52.1933C70 52.6033 70.41 52.74 70.5467 52.74H75.1933C75.6033 52.74 75.74 52.33 75.74 52.1933V47.6833C75.74 47.41 75.6033 47 75.1933 47ZM73.5533 50.1433L72.5967 51.51L71.7767 50.69L70.82 51.92H74.92C74.7833 51.7833 73.5533 50.1433 73.5533 50.1433Z" fill="#888888"/>
<rect x="6" y="49" width="42" height="2" fill="#E1E1E1"/>
<rect x="6" y="53" width="42" height="2" fill="#E1E1E1"/>
<rect x="6" y="57" width="22.8837" height="2" fill="#E1E1E1"/>
<rect x="6" y="44" width="34.3256" height="2" fill="#888888"/>
<rect x="6" y="40" width="42" height="2" fill="#888888"/>
<rect x="6" y="67" width="42" height="26" fill="#E1E1E1"/>
<path d="M29.1933 77.6833L29.1933 82.1933H26.87H24.5467L24.5467 77.6833H29.1933ZM29.1933 77H24.5467C24.1367 77 24 77.41 24 77.5467V82.1933C24 82.6033 24.41 82.74 24.5467 82.74H29.1933C29.6033 82.74 29.74 82.33 29.74 82.1933V77.6833C29.74 77.41 29.6033 77 29.1933 77ZM27.5533 80.1433L26.5967 81.51L25.7767 80.69L24.82 81.92H28.92C28.7833 81.7833 27.5533 80.1433 27.5533 80.1433Z" fill="#888888"/>
<rect x="52" y="79" width="42" height="2" fill="#E1E1E1"/>
<rect x="52" y="83" width="42" height="2" fill="#E1E1E1"/>
<rect x="52" y="87" width="22.8837" height="2" fill="#E1E1E1"/>
<rect x="52" y="74" width="34.3256" height="2" fill="#888888"/>
<rect x="52" y="70" width="42" height="2" fill="#888888"/>
</svg>
