<svg width="100" height="100" viewBox="0 0 100 100" fill="none" xmlns="http://www.w3.org/2000/svg">
<rect width="100" height="100" fill="white"/>
<rect x="6" y="6" width="27.3103" height="33.3793" fill="#E1E1E1"/>
<path d="M22.3795 20.8521L22.3795 25.4139H20.0294H17.6794L17.6794 20.8521H22.3795ZM22.3795 20.1609H17.6794C17.2647 20.1609 17.1264 20.5756 17.1264 20.7139V25.4139C17.1264 25.8287 17.5411 25.9669 17.6794 25.9669H22.3795C22.7942 25.9669 22.9324 25.5522 22.9324 25.4139V20.8521C22.9324 20.5756 22.7942 20.1609 22.3795 20.1609ZM20.7206 23.3404L19.7529 24.7228L18.9235 23.8933L17.9559 25.1375H22.103C21.9648 24.9992 20.7206 23.3404 20.7206 23.3404Z" fill="#888888"/>
<rect x="6" y="40.3908" width="20.2299" height="2" fill="#888888"/>
<rect x="6" y="43.4138" width="13.1494" height="2" fill="#E1E1E1"/>
<rect x="20.1609" y="43.4138" width="2" height="2" fill="#E1E1E1"/>
<rect x="36.3448" y="6" width="27.3103" height="33.3793" fill="#E1E1E1"/>
<path d="M52.7243 20.8521L52.7243 25.4139H50.3742H48.0242L48.0242 20.8521H52.7243ZM52.7243 20.1609H48.0242C47.6095 20.1609 47.4713 20.5756 47.4713 20.7139V25.4139C47.4713 25.8287 47.886 25.9669 48.0242 25.9669H52.7243C53.139 25.9669 53.2772 25.5522 53.2772 25.4139V20.8521C53.2772 20.5756 53.139 20.1609 52.7243 20.1609ZM51.0654 23.3404L50.0978 24.7228L49.2683 23.8933L48.3007 25.1375H52.4478C52.3096 24.9992 51.0654 23.3404 51.0654 23.3404Z" fill="#888888"/>
<rect x="36.3448" y="40.3908" width="20.2299" height="2" fill="#888888"/>
<rect x="36.3448" y="43.4138" width="13.1494" height="2" fill="#E1E1E1"/>
<rect x="50.5057" y="43.4138" width="2" height="2" fill="#E1E1E1"/>
<rect x="66.6897" y="6" width="27.3103" height="33.3793" fill="#E1E1E1"/>
<path d="M83.0691 20.8521L83.0691 25.4139H80.7191H78.3691L78.3691 20.8521H83.0691ZM83.0691 20.1609H78.3691C77.9543 20.1609 77.8161 20.5756 77.8161 20.7139V25.4139C77.8161 25.8287 78.2308 25.9669 78.3691 25.9669H83.0691C83.4838 25.9669 83.6221 25.5522 83.6221 25.4139V20.8521C83.6221 20.5756 83.4838 20.1609 83.0691 20.1609ZM81.4103 23.3404L80.4426 24.7228L79.6132 23.8933L78.6455 25.1375H82.7927C82.6544 24.9992 81.4103 23.3404 81.4103 23.3404Z" fill="#888888"/>
<rect x="66.6897" y="40.3908" width="20.2299" height="2" fill="#888888"/>
<rect x="66.6897" y="43.4138" width="13.1494" height="2" fill="#E1E1E1"/>
<rect x="80.8506" y="43.4138" width="2" height="2" fill="#E1E1E1"/>
<rect x="6" y="52.5287" width="27.3103" height="33.3793" fill="#E1E1E1"/>
<path d="M22.3795 67.3809L22.3795 71.9427H20.0294H17.6794L17.6794 67.3809H22.3795ZM22.3795 66.6897H17.6794C17.2647 66.6897 17.1264 67.1044 17.1264 67.2426V71.9427C17.1264 72.3574 17.5411 72.4956 17.6794 72.4956H22.3795C22.7942 72.4956 22.9324 72.0809 22.9324 71.9427V67.3809C22.9324 67.1044 22.7942 66.6897 22.3795 66.6897ZM20.7206 69.8691L19.7529 71.2515L18.9235 70.4221L17.9559 71.6662H22.103C21.9648 71.528 20.7206 69.8691 20.7206 69.8691Z" fill="#888888"/>
<rect x="6" y="86.9195" width="20.2299" height="2" fill="#888888"/>
<rect x="6" y="89.9425" width="13.1494" height="1.99999" fill="#E1E1E1"/>
<rect x="20.1609" y="89.9425" width="2" height="1.99999" fill="#E1E1E1"/>
<rect x="36.3448" y="52.5287" width="27.3103" height="33.3793" fill="#E1E1E1"/>
<path d="M52.7243 67.3809L52.7243 71.9427H50.3742H48.0242L48.0242 67.3809H52.7243ZM52.7243 66.6897H48.0242C47.6095 66.6897 47.4713 67.1044 47.4713 67.2426V71.9427C47.4713 72.3574 47.886 72.4956 48.0242 72.4956H52.7243C53.139 72.4956 53.2772 72.0809 53.2772 71.9427V67.3809C53.2772 67.1044 53.139 66.6897 52.7243 66.6897ZM51.0654 69.8691L50.0978 71.2515L49.2683 70.4221L48.3007 71.6662H52.4478C52.3096 71.528 51.0654 69.8691 51.0654 69.8691Z" fill="#888888"/>
<rect x="36.3448" y="86.9195" width="20.2299" height="2" fill="#888888"/>
<rect x="36.3448" y="89.9425" width="13.1494" height="1.99999" fill="#E1E1E1"/>
<rect x="50.5057" y="89.9425" width="2" height="1.99999" fill="#E1E1E1"/>
<rect x="66.6897" y="52.5287" width="27.3103" height="33.3793" fill="#E1E1E1"/>
<path d="M83.0691 67.3809L83.0691 71.9427H80.7191H78.3691L78.3691 67.3809H83.0691ZM83.0691 66.6897H78.3691C77.9543 66.6897 77.8161 67.1044 77.8161 67.2426V71.9427C77.8161 72.3574 78.2308 72.4956 78.3691 72.4956H83.0691C83.4838 72.4956 83.6221 72.0809 83.6221 71.9427V67.3809C83.6221 67.1044 83.4838 66.6897 83.0691 66.6897ZM81.4103 69.8691L80.4426 71.2515L79.6132 70.4221L78.6455 71.6662H82.7927C82.6544 71.528 81.4103 69.8691 81.4103 69.8691Z" fill="#888888"/>
<rect x="66.6897" y="86.9195" width="20.2299" height="2" fill="#888888"/>
<rect x="66.6897" y="89.9425" width="13.1494" height="1.99999" fill="#E1E1E1"/>
<rect x="80.8506" y="89.9425" width="2" height="1.99999" fill="#E1E1E1"/>
</svg>
