<svg width="100" height="100" viewBox="0 0 100 100" fill="none" xmlns="http://www.w3.org/2000/svg">
<rect width="100" height="100" fill="white"/>
<rect x="6" y="29" width="27.3103" height="33.3793" fill="#E1E1E1"/>
<path d="M22.3795 43.8521L22.3795 48.4139H20.0294H17.6794L17.6794 43.8521H22.3795ZM22.3795 43.1609H17.6794C17.2647 43.1609 17.1264 43.5756 17.1264 43.7139V48.4139C17.1264 48.8287 17.5411 48.9669 17.6794 48.9669H22.3795C22.7942 48.9669 22.9324 48.5522 22.9324 48.4139V43.8521C22.9324 43.5756 22.7942 43.1609 22.3795 43.1609ZM20.7206 46.3404L19.7529 47.7228L18.9235 46.8933L17.9559 48.1375H22.103C21.9648 47.9992 20.7206 46.3404 20.7206 46.3404Z" fill="#888888"/>
<rect x="6" y="63.3908" width="20.2299" height="2" fill="#888888"/>
<rect x="6" y="66.4138" width="13.1494" height="1.99999" fill="#E1E1E1"/>
<rect x="20.1609" y="66.4138" width="2" height="1.99999" fill="#E1E1E1"/>
<rect x="36.3448" y="29" width="27.3103" height="33.3793" fill="#E1E1E1"/>
<path d="M52.7243 43.8521L52.7243 48.4139H50.3742H48.0242L48.0242 43.8521H52.7243ZM52.7243 43.1609H48.0242C47.6095 43.1609 47.4713 43.5756 47.4713 43.7139V48.4139C47.4713 48.8287 47.886 48.9669 48.0242 48.9669H52.7243C53.139 48.9669 53.2772 48.5522 53.2772 48.4139V43.8521C53.2772 43.5756 53.139 43.1609 52.7243 43.1609ZM51.0654 46.3404L50.0978 47.7228L49.2683 46.8933L48.3007 48.1375H52.4478C52.3096 47.9992 51.0654 46.3404 51.0654 46.3404Z" fill="#888888"/>
<rect x="36.3448" y="63.3908" width="20.2299" height="2" fill="#888888"/>
<rect x="36.3448" y="66.4138" width="13.1494" height="1.99999" fill="#E1E1E1"/>
<rect x="50.5057" y="66.4138" width="2" height="1.99999" fill="#E1E1E1"/>
<rect x="66.6897" y="29" width="27.3103" height="33.3793" fill="#E1E1E1"/>
<path d="M83.0691 43.8521L83.0691 48.4139H80.7191H78.369L78.369 43.8521H83.0691ZM83.0691 43.1609H78.369C77.9543 43.1609 77.8161 43.5756 77.8161 43.7139V48.4139C77.8161 48.8287 78.2308 48.9669 78.369 48.9669H83.0691C83.4838 48.9669 83.6221 48.5522 83.6221 48.4139V43.8521C83.6221 43.5756 83.4838 43.1609 83.0691 43.1609ZM81.4103 46.3404L80.4426 47.7228L79.6132 46.8933L78.6455 48.1375H82.7926C82.6544 47.9992 81.4103 46.3404 81.4103 46.3404Z" fill="#888888"/>
<rect x="66.6897" y="63.3908" width="20.2299" height="2" fill="#888888"/>
<rect x="66.6897" y="66.4138" width="13.1494" height="1.99999" fill="#E1E1E1"/>
<rect x="80.8506" y="66.4138" width="2" height="1.99999" fill="#E1E1E1"/>
<rect x="2" y="44" width="8" height="8" fill="#888888"/>
<path d="M6.95071 49.6991L5.39624 47.998L6.9545 46.2889L6.95829 46.2849C7.01517 46.2126 7.01137 46.1043 6.95071 46.0481C6.89005 45.984 6.7801 45.984 6.71565 46.0481L5.04744 47.8776C4.98677 47.9418 4.98298 48.0461 5.04365 48.1184L6.71565 49.9478C6.74977 49.984 6.78768 50 6.83318 50C6.87488 50 6.9128 49.984 6.94313 49.9519C6.97346 49.9238 6.99242 49.8837 7 49.8355V49.8275C7 49.7793 6.98104 49.7352 6.95071 49.6991Z" fill="white"/>
<rect x="89" y="44" width="8" height="8" fill="#888888"/>
<path d="M92.0493 46.3009L93.6038 48.002L92.0455 49.7111L92.0417 49.7151C91.9848 49.7874 91.9886 49.8957 92.0493 49.9519C92.11 50.016 92.2199 50.016 92.2844 49.9519L93.9526 48.1224C94.0132 48.0582 94.017 47.9539 93.9564 47.8816L92.2844 46.0522C92.2502 46.016 92.2123 46 92.1668 46C92.1251 46 92.0872 46.016 92.0569 46.0481C92.0265 46.0762 92.0076 46.1163 92 46.1645L92 46.1725C92 46.2207 92.019 46.2648 92.0493 46.3009Z" fill="white"/>
</svg>
