<?xml version="1.0" encoding="utf-8"?>
<!-- Generator: Adobe Illustrator 21.0.0, SVG Export Plug-In . SVG Version: 6.00 Build 0)  -->
<svg version="1.1" id="Layer_1" xmlns="http://www.w3.org/2000/svg" width="120" height="120" xmlns:xlink="http://www.w3.org/1999/xlink" x="0px" y="0px"
	 viewBox="0 0 120 120" style="enable-background:new 0 0 120 120;" xml:space="preserve">
<style type="text/css">
	.st0{fill:#C1C1C1;enable-background:new    ;}
	.st1{fill:#E1E1E1;}
	.st2{fill:#888888;}
</style>
<g>
	<g>
		<rect id="Background_10_" x="60" y="12" class="st0" width="34.1" height="3.4"/>
		<rect id="Background_11_" x="60" y="17.8" class="st0" width="42" height="3.4"/>
		<rect id="Background_7_" x="60" y="28.3" class="st1" width="52.8" height="3.4"/>
		<rect id="Background_12_" x="60" y="34.1" class="st1" width="52.8" height="3.4"/>
		<rect id="Background_2_" x="60" y="39.8" class="st1" width="52.8" height="3.4"/>
		<rect id="Background_1_" x="60" y="45.6" class="st1" width="52.8" height="3.4"/>
		<rect id="Background_4_" x="60" y="51.4" class="st1" width="52.8" height="3.4"/>
		<rect id="Background_3_" x="60" y="57.1" class="st1" width="52.8" height="3.4"/>
		<rect id="Background_15_" x="60" y="62.9" class="st1" width="52.8" height="3.4"/>
		<rect id="Background_14_" x="60" y="68.6" class="st1" width="52.8" height="3.4"/>
		<rect id="Background_13_" x="60" y="74.4" class="st1" width="52.8" height="3.4"/>
	</g>
	<rect id="Background_6_" x="7.2" y="108.5" class="st1" width="48" height="11.5"/>
	<rect id="Background_5_" x="7.2" y="58.1" class="st1" width="48" height="45.8"/>
	<rect id="Background" x="7.2" y="7.2" class="st1" width="48" height="45.8"/>
</g>
<path class="st2" d="M36.5,25v10.3H26.2V25H36.5 M36.5,23.5H26.2c-0.7,0-1.4,0.7-1.4,1.4v10.3c0,0.7,0.7,1.4,1.4,1.4h10.3
	c0.7,0,1.4-0.7,1.4-1.4V25C37.9,24.2,37.4,23.5,36.5,23.5z M33.1,30L31,32.9L29.3,31l-2.2,2.9H36C35.8,33.8,33.1,30,33.1,30z"/>
<path class="st2" d="M36.5,75.8v10.3H26.2V75.8H36.5 M36.5,74.4H26.2c-0.7,0-1.4,0.7-1.4,1.4v10.3c0,0.7,0.7,1.4,1.4,1.4h10.3
	c0.7,0,1.4-0.7,1.4-1.4V75.8C37.9,75.1,37.4,74.4,36.5,74.4z M33.1,80.9L31,83.8l-1.7-1.9l-2.2,2.9H36
	C35.8,84.7,33.1,80.9,33.1,80.9z"/>
</svg>
