<?xml version="1.0" encoding="utf-8"?>
<!-- Generator: Adobe Illustrator 21.0.0, SVG Export Plug-In . SVG Version: 6.00 Build 0)  -->
<svg version="1.1" id="Layer_1" xmlns="http://www.w3.org/2000/svg" width="120" height="120" xmlns:xlink="http://www.w3.org/1999/xlink" x="0px" y="0px"
	 viewBox="0 0 120 120" style="enable-background:new 0 0 120 120;" xml:space="preserve">
<style type="text/css">
	.st0{fill:#C1C1C1;enable-background:new    ;}
	.st1{fill:#E1E1E1;}
	.st2{fill:none;}
	.st3{fill:#888888;}
</style>
<g>
	<rect id="Background_10_" x="25.9" y="60" class="st0" width="68.2" height="3.4"/>
	<rect id="Background_11_" x="18" y="65.8" class="st0" width="84" height="3.4"/>
	<rect id="Background_7_" x="7.2" y="76.3" class="st1" width="105.6" height="3.4"/>
	<rect id="Background_12_" x="7.2" y="82.1" class="st1" width="105.6" height="3.4"/>
	<rect id="Background_2_" x="7.2" y="87.8" class="st1" width="105.6" height="3.4"/>
	<rect id="Background_1_" x="7.2" y="93.6" class="st1" width="105.6" height="3.4"/>
	<rect id="Background_4_" x="7.2" y="99.4" class="st1" width="105.6" height="3.4"/>
	<rect id="Background_3_" x="7.2" y="105.1" class="st1" width="105.6" height="3.4"/>
	<rect id="Background_15_" x="7.2" y="110.9" class="st1" width="105.6" height="3.4"/>
</g>
<rect id="Background_5_" x="98.9" y="7.2" class="st1" width="21.1" height="45.8"/>
<rect id="Background" x="25.2" y="7.2" class="st1" width="68.2" height="45.8"/>
<rect id="Background_6_" y="7.2" class="st1" width="21.1" height="45.8"/>
<path class="st2" d="M50.4,21.4h17.5v17.5H50.4V21.4z"/>
<path class="st3" d="M64.3,25v10.3H54V25H64.3 M64.3,23.5H54c-0.7,0-1.4,0.7-1.4,1.4v10.3c0,0.7,0.7,1.4,1.4,1.4h10.3
	c0.7,0,1.4-0.7,1.4-1.4V25C65.8,24.2,65.3,23.5,64.3,23.5z M61,30l-2.2,2.9L57.1,31L55,33.8h8.9C63.6,33.8,61,30,61,30z"/>
</svg>
