<?xml version="1.0" encoding="utf-8"?>
<!-- Generator: Adobe Illustrator 21.0.0, SVG Export Plug-In . SVG Version: 6.00 Build 0)  -->
<svg version="1.1" id="Layer_1" xmlns="http://www.w3.org/2000/svg" width="120" height="120" xmlns:xlink="http://www.w3.org/1999/xlink" x="0px" y="0px"
	 viewBox="0 0 120 120" style="enable-background:new 0 0 120 120;" xml:space="preserve">
<style type="text/css">
	.st0{fill:#C1C1C1;enable-background:new    ;}
	.st1{fill:#E1E1E1;}
	.st2{fill:#888888;}
</style>
<g>
	<g>
		<rect id="Background_10_" x="71.8" y="12" class="st0" width="26.4" height="3.4"/>
		<rect id="Background_11_" x="71.8" y="17.8" class="st0" width="32.6" height="3.4"/>
		<rect id="Background_7_" x="71.8" y="28.3" class="st1" width="41" height="3.4"/>
		<rect id="Background_12_" x="71.8" y="34.1" class="st1" width="41" height="3.4"/>
		<rect id="Background_2_" x="71.8" y="39.8" class="st1" width="41" height="3.4"/>
		<rect id="Background_1_" x="71.8" y="45.6" class="st1" width="41" height="3.4"/>
		<rect id="Background_4_" x="71.8" y="51.4" class="st1" width="41" height="3.4"/>
		<rect id="Background_3_" x="71.8" y="57.1" class="st1" width="41" height="3.4"/>
		<rect id="Background_15_" x="71.8" y="62.9" class="st1" width="41" height="3.4"/>
		<rect id="Background_14_" x="71.8" y="68.6" class="st1" width="41" height="3.4"/>
		<rect id="Background_13_" x="71.8" y="74.4" class="st1" width="41" height="3.4"/>
		<rect id="Background_9_" x="71.8" y="80.2" class="st1" width="41" height="3.4"/>
	</g>
	<rect id="Background" x="7.2" y="7.2" class="st1" width="27.6" height="35.8"/>
	<rect id="Background_5_" x="39.6" y="7.2" class="st1" width="27.6" height="35.8"/>
	<rect id="Background_8_" x="7.2" y="48" class="st1" width="27.6" height="35.8"/>
	<rect id="Background_6_" x="39.6" y="48" class="st1" width="27.6" height="35.8"/>
	<rect id="Background_17_" x="7.2" y="88.6" class="st1" width="27.6" height="31.4"/>
	<rect id="Background_16_" x="39.6" y="88.6" class="st1" width="27.6" height="31.4"/>
</g>
<path class="st2" d="M56.9,21.6v6.7h-7v-6.7L56.9,21.6 M56.9,20.4h-7c-0.5,0-1,0.5-1,1v7c0,0.5,0.5,1,1,1h7c0.5,0,1-0.5,1-1v-6.7
	C57.8,20.9,57.4,20.4,56.9,20.4z M54.5,25l-1.7,1.9l-1.2-1.2l-1.2,1.9h6L54.5,25z"/>
<path class="st2" d="M24.5,21.6v7h-7v-7H24.5 M24.5,20.4h-7c-0.7,0-1,0.5-1,1.2v7c0,0.5,0.5,1,1,1h7c0.5,0,1-0.5,1-1v-7
	C25.4,20.9,25.2,20.4,24.5,20.4z M22.1,25l-1.4,1.9l-1.2-1.2L18,27.6h6L22.1,25z"/>
<path class="st2" d="M56.9,61.4v7h-7v-7H56.9 M56.9,60.5h-7c-0.5,0-1,0.5-1,1v7c0,0.5,0.5,1,1,1h7c0.5,0,1-0.5,1-1v-7
	C57.8,61,57.4,60.5,56.9,60.5z M54.5,65l-1.7,2l-1.2-1.2l-1.2,1.9h6L54.5,65z"/>
<path class="st2" d="M24.5,61.4v7.2h-7v-7.2L24.5,61.4 M24.5,60.5h-7c-0.5,0-1,0.5-1,1v7c0,0.7,0.2,1.2,1,1.2h7c0.5,0,1-0.5,1-1v-7
	C25.4,61,25.2,60.5,24.5,60.5z M22.1,65l-1.5,2l-1.2-1.2L18,67.7h6L22.1,65z"/>
<path class="st2" d="M56.9,102.7v7h-7v-7H56.9 M56.9,101.8h-7c-0.5,0-1,0.5-1,1v7c0,0.5,0.5,1,1,1h7c0.5,0,1-0.5,1-1v-7
	C57.8,102.2,57.4,101.8,56.9,101.8z M54.5,106.1l-1.7,1.9l-1.2-1.2l-1.2,1.9h6L54.5,106.1z"/>
<path class="st2" d="M24.5,102.7v7h-7v-7H24.5 M24.5,101.8h-7c-0.5,0-1,0.5-1,1v7c0,0.5,0.5,1,1,1h7c0.5,0,1-0.5,1-1v-7
	C25.4,102.2,25.2,101.8,24.5,101.8z M22.1,106.1l-1.4,1.9l-1.2-1.2l-1.4,1.9h6L22.1,106.1z"/>
</svg>
