<?xml version="1.0" encoding="utf-8"?>
<!-- Generator: Adobe Illustrator 21.0.0, SVG Export Plug-In . SVG Version: 6.00 Build 0)  -->
<svg version="1.1" id="Layer_1" xmlns="http://www.w3.org/2000/svg" width="120" height="120" xmlns:xlink="http://www.w3.org/1999/xlink" x="0px" y="0px"
	 viewBox="0 0 120 120" style="enable-background:new 0 0 120 120;" xml:space="preserve">
<style type="text/css">
	.st0{fill:#C1C1C1;enable-background:new    ;}
	.st1{fill:#E1E1E1;enable-background:new    ;}
	.st2{fill:#E1E1E1;}
	.st3{fill:#888888;}
</style>
<g>
	<g>
		<rect id="Background_10_" x="60" y="27.6" class="st0" width="34.1" height="3.4"/>
		<rect id="Background_11_" x="60" y="33.4" class="st0" width="42" height="3.4"/>
		<rect id="Background_7_" x="60" y="43.9" class="st1" width="52.8" height="3.4"/>
		<rect id="Background_12_" x="60" y="49.7" class="st1" width="52.8" height="3.4"/>
		<rect id="Background_2_" x="60" y="55.4" class="st1" width="52.8" height="3.4"/>
		<rect id="Background_1_" x="60" y="61.2" class="st1" width="52.8" height="3.4"/>
		<rect id="Background_4_" x="60" y="67" class="st1" width="52.8" height="3.4"/>
		<rect id="Background_3_" x="60" y="72.7" class="st1" width="52.8" height="3.4"/>
		<rect id="Background_15_" x="60" y="78.5" class="st1" width="52.8" height="3.4"/>
		<rect id="Background_14_" x="60" y="84.2" class="st1" width="52.8" height="3.4"/>
		<rect id="Background_13_" x="60" y="90" class="st1" width="52.8" height="3.4"/>
	</g>
	<rect id="Background_5_" x="7.2" y="80.4" class="st2" width="13.2" height="16.8"/>
	<rect id="Background_6_" x="24.7" y="80.4" class="st2" width="13.2" height="16.8"/>
	<rect id="Background_8_" x="42" y="80.4" class="st2" width="13.2" height="16.8"/>
	<rect id="Background" x="7.2" y="22.8" class="st2" width="48" height="52.8"/>
</g>
<path class="st3" d="M36.5,43.9v10.3H26.2V43.9H36.5 M36.5,42.7H26.2c-0.7,0-1.4,0.7-1.4,1.4v10.3c0,0.7,0.7,1.4,1.4,1.4h10.3
	c0.7,0,1.4-0.7,1.4-1.4V44.2C37.9,43.2,37.4,42.7,36.5,42.7z M33.1,49L31,51.8l-1.7-1.9l-2.2,2.9H36C35.8,52.8,33.1,49,33.1,49z"/>
</svg>
