<?xml version="1.0" encoding="utf-8"?>
<!-- Generator: Adobe Illustrator 21.0.0, SVG Export Plug-In . SVG Version: 6.00 Build 0)  -->
<svg version="1.1" id="Layer_1" xmlns="http://www.w3.org/2000/svg" width="430" height="80" xmlns:xlink="http://www.w3.org/1999/xlink" x="0px" y="0px"
	 viewBox="0 0 430 70" style="enable-background:new 0 0 430 70;" xml:space="preserve">
<style type="text/css">
	.st0{enable-background:new    ;}
	.st1{fill:#222222;}
	.st2{fill:#E1E1E1;}
</style>
<g class="st0">
	<path class="st1" d="M29.2000008,41.9000015h-1.8999996v-6.5999985h-7.1999989v6.5999985h-1.8999996V27.6000004h1.8999996
		v6.1000004h7.2000008v-6.1000004h1.8999996C29.2000027,27.6000004,29.2000027,41.9000015,29.2000008,41.9000015z"/>
	<path class="st1" d="M43.4000015,35.2000008c0,1.4000015-0.2000008,2.5999985-0.7000008,3.5999985
		s-1.0999985,1.7999992-2,2.4000015S38.7999992,42,37.7000008,42s-2.0999985-0.2999992-3-0.7999992s-1.5-1.2999992-2-2.4000015
		S32,36.7000008,32,35.2999992v-1c0-1.4000015,0.2000008-2.6000004,0.7000008-3.6000004s1.0999985-1.8999996,2-2.3999996
		s1.9000015-0.7999992,3-0.7999992s2.0999985,0.2999992,3,0.7999992s1.5,1.2999992,2,2.3999996S43.4000015,33,43.4000015,34.2999992
		V35.2000008z M41.5999985,34.2999992c0-1.7000008-0.2999992-3-1-3.8999996S39,29,37.7999992,29S35.7000008,29.5,35,30.3999996
		s-1,2.1999989-1,3.8000011v1c0,1.5999985,0.2999992,2.9000015,1,3.9000015s1.5999985,1.4000015,2.7999992,1.4000015
		s2.0999985-0.4000015,2.7999992-1.2999992s1-2.0999985,1-3.7999992V34.2999992z"/>
	<path class="st1" d="M48.7000008,27.6000004l4.5999985,11.6000004L58,27.6000004h2.4000015v14.1999989H58.5v-5.5l0.2000008-6
		L54,41.9000015h-1.4000015l-4.7000008-11.5l0.2000008,5.9000015v5.5h-1.9000015V27.6000004H48.7000008z"/>
	<path class="st1" d="M71.6999969,35.2999992H65.5v5h7.1999969v1.5h-9V27.6000004h8.9000015v1.5H65.5v4.6000004h6.1999969
		V35.2999992z"/>
</g>
<g class="st0">
	<path class="st2" d="M116.5999985,35.5c-1.5999985-0.5-2.8000031-1-3.5-1.7000008s-1.0999985-1.5-1.0999985-2.5
		c0-1.1000004,0.4000015-2,1.3000031-2.7999992s2.0999985-1.1000004,3.5-1.1000004c1,0,1.8000031,0.2000008,2.5999985,0.6000004
		s1.4000015,0.8999996,1.8000031,1.6000004S121.8000031,31,121.8000031,31.8000011h-1.9000015
		c0-0.8999996-0.3000031-1.5-0.8000031-2s-1.3000031-0.7000008-2.3000031-0.7000008
		c-0.9000015,0-1.5999985,0.2000008-2.1999969,0.6000004c-0.5,0.3999996-0.8000031,1-0.8000031,1.7000008
		c0,0.5999985,0.1999969,1.0999985,0.6999969,1.5s1.3000031,0.7999992,2.5,1.0999985s2.0999985,0.7000008,2.8000031,1.0999985
		S120.9999924,36,121.2999954,36.5s0.5,1.2000008,0.5,1.9000015c0,1.2000008-0.4000015,2.0999985-1.3000031,2.7999992
		s-2.0999985,1-3.5999985,1c-1,0-1.9000015-0.2000008-2.6999969-0.5999985s-1.5-0.9000015-2-1.5S111.5,38.7000008,111.5,37.9000015
		h1.9000015c0,0.9000015,0.3000031,1.5,1,2s1.5,0.7000008,2.5,0.7000008s1.6999969-0.2000008,2.3000031-0.5999985
		s0.8000031-1,0.8000031-1.7000008s-0.1999969-1.2000008-0.6999969-1.5999985S117.9000015,35.9000015,116.5999985,35.5z"/>
	<path class="st2" d="M135.1999969,41.9000015h-1.8999939v-6.5999985h-7.1999969v6.5999985h-1.9000015V27.6000004h1.9000015
		v6.1000004h7.1999969v-6.1000004h1.8999939V41.9000015z"/>
	<path class="st2" d="M149.3999939,35.2000008c0,1.4000015-0.1999969,2.5999985-0.6999969,3.5999985
		s-1.1000061,1.7999992-2,2.4000015S144.8000031,42,143.6999969,42s-2.1000061-0.2999992-3-0.7999992s-1.5-1.2999992-2-2.4000015
		S138,36.5999985,138,35.2999992v-1c0-1.4000015,0.1999969-2.6000004,0.6999969-3.6000004s1.1000061-1.8999996,2-2.3999996
		s1.8999939-0.7999992,3-0.7999992s2.1000061,0.2999992,3,0.7999992s1.5,1.2999992,2,2.3999996
		S149.3999939,33,149.3999939,34.2999992V35.2000008z M147.6000061,34.2999992c0-1.7000008-0.3000031-3-1-3.8999996
		S145,29,143.8000031,29S141.6999969,29.5,141,30.3999996s-1,2.1999989-1,3.8000011v1c0,1.5999985,0.3000031,2.9000015,1,3.9000015
		s1.6000061,1.4000015,2.8000031,1.4000015s2.1000061-0.4000015,2.8000031-1.2999992s1-2.0999985,1-3.7999992V34.2999992z"/>
	<path class="st2" d="M154.1000061,36.2999992v5.5999985h-1.8999939V27.6000004h5.1999969
		c1.6000061,0,2.8000031,0.3999996,3.6999969,1.2000008S162.4000092,30.6000004,162.4000092,32
		c0,1.4000015-0.3999939,2.4000015-1.3000031,3.2000008S159,36.2999992,157.4000092,36.2999992H154.1000061z
		 M154.1000061,34.7999992H157.5c1,0,1.8000031-0.2000008,2.3000031-0.7000008s0.8000031-1.2000008,0.8000031-2
		s-0.3000031-1.5-0.8000031-2S158.5,29.2999992,157.6000061,29.2999992h-3.5V34.7999992z"/>
	<path class="st2" d="M199.5,41.9000015V27.6000004h4.6000061c1.5,0,2.6999969,0.2999992,3.5,1
		s1.1999969,1.6000004,1.1999969,2.7999992c0,0.6999989-0.1999969,1.3000011-0.6000061,1.8000011
		s-0.8999939,0.9000015-1.5,1.2000008C207.5,34.6000023,208.0999908,35,208.5,35.6000023s0.6999969,1.2999992,0.6999969,2.2000008
		c0,1.2999992-0.3999939,2.2999992-1.1999969,3s-2,1.0999985-3.5,1.0999985H199.5z M201.3999939,33.7000008h2.8000031
		c0.8000031,0,1.5-0.2000008,2-0.5999985s0.6999969-1,0.6999969-1.7000008c0-0.7999992-0.1999969-1.3999996-0.6999969-1.7000008
		s-1.1000061-0.5-2.1000061-0.5h-2.8000031v4.5H201.3999939z M201.3999939,35.2000008v5.0999985H204.5
		c0.8999939,0,1.6000061-0.2000008,2.1000061-0.7000008s0.8000031-1.0999985,0.8000031-1.9000015
		c0-1.7000008-0.8999939-2.5999985-2.8000031-2.5999985h-3.2000122V35.2000008z"/>
	<path class="st2" d="M213.8999939,40.2999992h6.6999969v1.5H212V27.6000004h1.8999939V40.2999992z"/>
	<path class="st2" d="M233,35.2000008c0,1.4000015-0.1999969,2.5999985-0.6999969,3.5999985s-1.1000061,1.7999992-2,2.4000015
		S228.4000092,42,227.3000031,42s-2.1000061-0.2999992-3-0.7999992s-1.5-1.2999992-2-2.4000015s-0.6999969-2.2000008-0.6999969-3.5
		v-1c0-1.4000015,0.1999969-2.6000004,0.6999969-3.6000004s1.1000061-1.8999996,2-2.3999996s1.8999939-0.7999992,3-0.7999992
		s2.1000061,0.2999992,3,0.7999992s1.5,1.2999992,2,2.3999996S233,33,233,34.2999992V35.2000008z M231.1999969,34.2999992
		c0-1.7000008-0.3000031-3-1-3.8999996S228.5999908,29,227.3999939,29s-2.1000061,0.5-2.8000031,1.3999996s-1,2.1999989-1,3.8000011
		v1c0,1.5999985,0.3000031,2.9000015,1,3.9000015s1.6000061,1.4000015,2.8000031,1.4000015s2.1000061-0.4000015,2.8000031-1.2999992
		s1-2.0999985,1-3.7999992V34.2999992z"/>
	<path class="st2" d="M246.3999939,40c-0.5,0.7000008-1.1999969,1.2000008-2,1.5s-1.8999939,0.5-3,0.5
		c-1.1999969,0-2.1999969-0.2999992-3.1000061-0.7999992s-1.6000061-1.2999992-2.1000061-2.2999992
		s-0.6999969-2.2000008-0.8000031-3.5v-1.2000008c0-2.0999985,0.5-3.7999992,1.5-5s2.3999939-1.7999992,4.1999969-1.7999992
		c1.5,0,2.6999969,0.3999996,3.6000061,1.1000004s1.5,1.7999992,1.6999969,3.2000008h-1.8999939
		c-0.3999939-1.8999996-1.5-2.7999992-3.3999939-2.7999992c-1.3000031,0-2.1999969,0.3999996-2.8999939,1.2999992
		s-1,2.1999989-1,3.8000011v1.2000008c0,1.5999985,0.3999939,2.9000015,1.1000061,3.7999992s1.6999969,1.4000015,3,1.4000015
		c0.6999969,0,1.3000031-0.0999985,1.8000031-0.2000008c0.5-0.2000008,1-0.4000015,1.3000031-0.7999992v-3.2000008h-3.3000031v-1.5
		h5.1999969V40H246.3999939z"/>
	<path class="st2" d="M294.6000061,37.2999992c-0.2000122,1.5-0.7000122,2.7000008-1.7000122,3.5S290.6999817,42,289.1999817,42
		c-1.7000122,0-3-0.5999985-4-1.7999992s-1.5-2.7999992-1.5-4.7999992V34c0-1.2999992,0.2000122-2.5,0.7000122-3.5
		s1.1000061-1.7999992,2-2.2999992s1.8999939-0.7999992,3-0.7999992c1.5,0,2.7000122,0.3999996,3.6000061,1.2999992
		s1.3999939,2,1.6000061,3.5h-1.8999939c-0.2000122-1.1000004-0.5-2-1.1000061-2.5
		c-0.5-0.5-1.2999878-0.7999992-2.2999878-0.7999992c-1.2000122,0-2.1000061,0.3999996-2.7999878,1.2999992
		c-0.7000122,0.8999996-1,2.0999985-1,3.7999992v1.4000015c0,1.5,0.2999878,2.7999992,1,3.7000008
		s1.5,1.4000015,2.7000122,1.4000015c1,0,1.7999878-0.2000008,2.3999939-0.7000008s0.8999939-1.2999992,1.1000061-2.5
		C292.7000427,37.3000031,294.6000061,37.3000031,294.6000061,37.2999992z"/>
	<path class="st2" d="M308.1000061,35.2000008c0,1.4000015-0.2000122,2.5999985-0.7000122,3.5999985
		s-1.1000061,1.7999992-2,2.4000015S303.5,42,302.3999939,42s-2.1000061-0.2999992-3-0.7999992s-1.5-1.2999992-2-2.4000015
		s-0.7000122-2.2000008-0.7000122-3.5v-1c0-1.4000015,0.2000122-2.6000004,0.7000122-3.6000004s1.1000061-1.8999996,2-2.3999996
		s1.8999939-0.7999992,3-0.7999992s2.1000061,0.2999992,3,0.7999992s1.5,1.2999992,2,2.3999996
		S308.1000061,33,308.1000061,34.2999992V35.2000008z M306.2000122,34.2999992c0-1.7000008-0.2999878-3-1-3.8999996
		S303.6000061,29,302.4000244,29c-1.2000122,0-2.1000061,0.5-2.7999878,1.3999996s-1,2.1999989-1,3.8000011v1
		c0,1.5999985,0.2999878,2.9000015,1,3.9000015s1.6000061,1.4000015,2.7999878,1.4000015
		c1.2000122,0,2.1000061-0.4000015,2.7999878-1.2999992s1-2.0999985,1-3.7999992V34.2999992z"/>
	<path class="st2" d="M321.7999878,41.9000015H320l-7.2000122-11v11h-1.8999939V27.6000004h1.8999939L320,38.5999985v-11h1.8999939
		v14.3000031H321.7999878z"/>
	<path class="st2" d="M334.7000122,29.2000008h-4.6000061v12.7000008h-1.8999939V29.2000008h-4.6000061v-1.5h11v1.5H334.7000122z"/>
	<path class="st2" d="M343.8999939,38.0999985h-6l-1.2999878,3.7000008h-1.8999939l5.3999939-14.2000008h1.6000061
		l5.3999939,14.2000008h-1.8999939L343.8999939,38.0999985z M338.5,36.5999985h4.7999878l-2.3999939-6.7000008L338.5,36.5999985z"/>
	<path class="st2" d="M359.3999939,37.2999992c-0.2000122,1.5-0.7000122,2.7000008-1.7000122,3.5S355.4999695,42,353.9999695,42
		c-1.7000122,0-3-0.5999985-4-1.7999992s-1.5-2.7999992-1.5-4.7999992V34c0-1.2999992,0.2000122-2.5,0.7000122-3.5
		s1.1000061-1.7999992,2-2.2999992s1.8999939-0.7999992,3-0.7999992c1.5,0,2.7000122,0.3999996,3.6000061,1.2999992
		s1.3999939,2,1.6000061,3.5H357.5c-0.2000122-1.1000004-0.5-2-1.1000061-2.5c-0.5-0.5-1.2999878-0.7999992-2.2999878-0.7999992
		c-1.2000122,0-2.1000061,0.3999996-2.7999878,1.2999992c-0.7000122,0.8999996-1,2.0999985-1,3.7999992v1.4000015
		c0,1.5,0.2999878,2.7999992,1,3.7000008s1.5,1.4000015,2.7000122,1.4000015c1,0,1.7999878-0.2000008,2.3999939-0.7000008
		s0.8999939-1.2999992,1.1000061-2.5C357.5000305,37.3000031,359.3999939,37.3000031,359.3999939,37.2999992z"/>
	<path class="st2" d="M371.5,29.2000008H367v12.7000008h-1.8999939V29.2000008H360.5v-1.5h11V29.2000008z"/>
	<path class="st2" d="M388.2000122,27.6000004v9.6999989c0,1.2999992-0.3999939,2.4000015-1.2999878,3.2999992
		s-2,1.2999992-3.3999939,1.4000015h-0.5c-1.6000061,0-2.7999878-0.4000015-3.7000122-1.2999992s-1.3999939-2-1.3999939-3.5V27.5
		h1.8999939v9.5999985c0,1,0.2999878,1.7999992,0.7999878,2.4000015S382,40.4000015,383,40.4000015
		c1.1000061,0,1.8999939-0.2999992,2.3999939-0.7999992s0.7999878-1.4000015,0.7999878-2.4000015v-9.6000004H388.2000122z"/>
	<path class="st2" d="M395.3999939,35.5c-1.6000061-0.5-2.7999878-1-3.5-1.7000008s-1.1000061-1.5-1.1000061-2.5
		c0-1.1000004,0.3999939-2,1.2999878-2.7999992s2.1000061-1.1000004,3.5-1.1000004c1,0,1.7999878,0.2000008,2.6000061,0.6000004
		s1.3999939,0.8999996,1.7999878,1.6000004S400.5999756,31,400.5999756,31.8000011h-1.8999939
		c0-0.8999996-0.2999878-1.5-0.7999878-2s-1.2999878-0.7000008-2.2999878-0.7000008
		c-0.8999939,0-1.6000061,0.2000008-2.2000122,0.6000004c-0.5,0.3999996-0.7999878,1-0.7999878,1.7000008
		c0,0.5999985,0.2000122,1.0999985,0.7000122,1.5s1.2999878,0.7999992,2.5,1.0999985s2.1000061,0.7000008,2.7999878,1.0999985
		S399.8000183,36,400.1000061,36.5s0.5,1.2000008,0.5,1.9000015c0,1.2000008-0.3999939,2.0999985-1.2999878,2.7999992
		s-2.1000061,1-3.6000061,1c-1,0-1.8999939-0.2000008-2.7000122-0.5999985s-1.5-0.9000015-2-1.5
		s-0.7000122-1.4000015-0.7000122-2.2000008h1.8999939c0,0.9000015,0.2999878,1.5,1,2s1.5,0.7000008,2.5,0.7000008
		s1.7000122-0.2000008,2.2999878-0.5999985s0.7999878-1,0.7999878-1.7000008s-0.2000122-1.2000008-0.7000122-1.5999985
		S396.7000122,35.9000015,395.3999939,35.5z"/>
</g>
<g>
	<path class="st1" d="M94.3000031,37L94.3000031,37c-1.0999985,0-2-0.9000015-2-2l0,0c0-1.0999985,0.9000015-2,2-2l0,0
		c1.0999985,0,2,0.9000015,2,2l0,0C96.3000031,36.0999985,95.4000015,37,94.3000031,37z"/>
</g>
<g>
	<path class="st1" d="M180.9500122,37L180.9500122,37c-1.1000061,0-2-0.9000015-2-2l0,0c0-1.0999985,0.8999939-2,2-2l0,0
		c1.1000061,0,2,0.9000015,2,2l0,0C182.9500122,36.0999985,182.0500183,37,180.9500122,37z"/>
</g>
<g>
	<path class="st1" d="M264.9499817,37L264.9499817,37c-1.1000061,0-2-0.9000015-2-2l0,0c0-1.0999985,0.8999939-2,2-2l0,0
		c1.1000061,0,2,0.9000015,2,2l0,0C266.9499817,36.0999985,266.0499878,37,264.9499817,37z"/>
</g>
</svg>
