<?xml version="1.0" encoding="utf-8"?>
<!-- Generator: Adobe Illustrator 24.2.0, SVG Export Plug-In . SVG Version: 6.00 Build 0)  -->
<svg version="1.1" id="Layer_1" xmlns="http://www.w3.org/2000/svg" width="430" height="80" xmlns:xlink="http://www.w3.org/1999/xlink" x="0px" y="0px"
	 viewBox="0 0 430 80" style="enable-background:new 0 0 430 80;" xml:space="preserve">
<style type="text/css">
	.st0{fill:#E1E1E1;}
	.st1{fill:#222222;}
</style>
<g>
	<path class="st0" d="M29.0966797,46.8818359h-1.8847656v-6.5722656h-7.1679688v6.5722656h-1.875v-14.21875h1.875v6.1132812
		h7.1679688v-6.1132812h1.8847656V46.8818359z"/>
	<path class="st0" d="M43.3642578,40.2314453c0,1.3935547-0.234375,2.609375-0.703125,3.6474609
		c-0.46875,1.0390625-1.1328125,1.8310547-1.9921875,2.3779297s-1.8618164,0.8203125-3.0078125,0.8203125
		c-1.1196289,0-2.112793-0.2744141-2.9785156-0.8251953c-0.8657227-0.5498047-1.5380859-1.3339844-2.0166016-2.3535156
		c-0.4785156-1.0185547-0.7241211-2.1982422-0.7373047-3.5400391v-1.0253906c0-1.3671875,0.237793-2.574707,0.7128906-3.6230469
		s1.1474609-1.8505859,2.0166016-2.4072266s1.8637695-0.8349609,2.9833984-0.8349609
		c1.1391602,0,2.1435547,0.2749023,3.0126953,0.8251953s1.5380859,1.3476562,2.0068359,2.3925781
		s0.703125,2.2607422,0.703125,3.6474609V40.2314453z M41.4990234,39.3134766c0-1.6860352-0.3383789-2.9799805-1.015625-3.8818359
		s-1.6245117-1.3525391-2.8417969-1.3525391c-1.1850586,0-2.1176758,0.4506836-2.7978516,1.3525391
		s-1.0302734,2.1533203-1.0498047,3.7548828v1.0449219c0,1.6347656,0.3432617,2.9189453,1.0302734,3.8525391
		c0.6870117,0.9345703,1.6323242,1.4013672,2.8369141,1.4013672c1.2109375,0,2.1484375-0.4404297,2.8125-1.3232422
		c0.6640625-0.8818359,1.0058594-2.1464844,1.0253906-3.7939453V39.3134766z"/>
	<path class="st0" d="M48.5986328,32.6630859l4.6484375,11.6015625l4.6484375-11.6015625h2.4316406v14.21875h-1.875v-5.5371094
		l0.1757812-5.9765625l-4.6679688,11.5136719h-1.4355469l-4.6582031-11.484375l0.1855469,5.9472656v5.5371094h-1.875v-14.21875
		H48.5986328z"/>
	<path class="st0" d="M71.6748047,40.3095703h-6.1621094v5.0390625h7.1582031v1.5332031h-9.0332031v-14.21875h8.9355469v1.5332031
		h-7.0605469v4.5800781h6.1621094V40.3095703z"/>
</g>
<g>
	<path class="st1" d="M118.1303711,40.5439453c-1.6079102-0.4624023-2.7783203-1.0302734-3.5107422-1.7041016
		s-1.0986328-1.5053711-1.0986328-2.4951172c0-1.1196289,0.4477539-2.0458984,1.3427734-2.7783203
		s2.059082-1.0986328,3.4912109-1.0986328c0.9765625,0,1.847168,0.1889648,2.6123047,0.5664062
		s1.3574219,0.8984375,1.7773438,1.5625s0.6298828,1.3901367,0.6298828,2.1777344h-1.8847656
		c0-0.8623047-0.2734375-1.5400391-0.8203125-2.0336914c-0.546875-0.4931641-1.3183594-0.7397461-2.3144531-0.7397461
		c-0.9243164,0-1.6455078,0.2041016-2.1630859,0.6113281c-0.5175781,0.4082031-0.7763672,0.9736328-0.7763672,1.6972656
		c0,0.5810547,0.2456055,1.0717773,0.7373047,1.4726562c0.4916992,0.4013672,1.328125,0.7680664,2.5097656,1.1005859
		s2.105957,0.6992188,2.7734375,1.0996094s1.1621094,0.8676758,1.484375,1.4013672
		c0.3222656,0.5341797,0.4833984,1.1621094,0.4833984,1.8847656c0,1.1523438-0.4492188,2.0751953-1.3476562,2.7685547
		s-2.0996094,1.0400391-3.6035156,1.0400391c-0.9765625,0-1.8881836-0.1865234-2.734375-0.5615234
		c-0.8461914-0.3740234-1.4990234-0.8867188-1.9580078-1.5380859c-0.4589844-0.6503906-0.6884766-1.3896484-0.6884766-2.2167969
		h1.8847656c0,0.859375,0.3173828,1.5380859,0.9521484,2.0361328s1.4829102,0.7470703,2.5439453,0.7470703
		c0.9897461,0,1.7480469-0.2011719,2.2753906-0.6054688c0.5273438-0.4033203,0.7910156-0.953125,0.7910156-1.6503906
		c0-0.6962891-0.2441406-1.2353516-0.7324219-1.6162109S119.4130859,40.9150391,118.1303711,40.5439453z"/>
	<path class="st1" d="M136.7338867,46.8818359h-1.8847656v-6.5722656h-7.1679688v6.5722656h-1.875v-14.21875h1.875v6.1132812
		h7.1679688v-6.1132812h1.8847656V46.8818359z"/>
	<path class="st1" d="M151.0014648,40.2314453c0,1.3935547-0.234375,2.609375-0.703125,3.6474609
		c-0.46875,1.0390625-1.1328125,1.8310547-1.9921875,2.3779297s-1.8618164,0.8203125-3.0078125,0.8203125
		c-1.1196289,0-2.112793-0.2744141-2.9785156-0.8251953c-0.8657227-0.5498047-1.5380859-1.3339844-2.0166016-2.3535156
		c-0.4785156-1.0185547-0.7241211-2.1982422-0.7373047-3.5400391v-1.0253906c0-1.3671875,0.237793-2.574707,0.7128906-3.6230469
		s1.1474609-1.8505859,2.0166016-2.4072266s1.8637695-0.8349609,2.9833984-0.8349609
		c1.1391602,0,2.1435547,0.2749023,3.0126953,0.8251953s1.5380859,1.3476562,2.0068359,2.3925781
		s0.703125,2.2607422,0.703125,3.6474609V40.2314453z M149.1362305,39.3134766c0-1.6860352-0.3383789-2.9799805-1.015625-3.8818359
		s-1.6245117-1.3525391-2.8417969-1.3525391c-1.1850586,0-2.1176758,0.4506836-2.7978516,1.3525391
		s-1.0302734,2.1533203-1.0498047,3.7548828v1.0449219c0,1.6347656,0.3432617,2.9189453,1.0302734,3.8525391
		c0.6870117,0.9345703,1.6323242,1.4013672,2.8369141,1.4013672c1.2109375,0,2.1484375-0.4404297,2.8125-1.3232422
		c0.6640625-0.8818359,1.0058594-2.1464844,1.0253906-3.7939453V39.3134766z"/>
	<path class="st1" d="M155.6889648,41.3154297v5.5664062h-1.875v-14.21875h5.2441406
		c1.5561523,0,2.7749023,0.3969727,3.6572266,1.1914062s1.3232422,1.8457031,1.3232422,3.1542969
		c0,1.3803711-0.4311523,2.4428711-1.2939453,3.1884766s-2.0981445,1.1181641-3.7060547,1.1181641H155.6889648z
		 M155.6889648,39.7822266h3.3691406c1.0024414,0,1.7709961-0.2363281,2.3046875-0.7089844
		c0.5336914-0.4731445,0.8007812-1.15625,0.8007812-2.0498047c0-0.8476562-0.2670898-1.5258789-0.8007812-2.034668
		s-1.2661133-0.7729492-2.1972656-0.7924805h-3.4765625V39.7822266z"/>
</g>
<g>
	<path class="st0" d="M296.8691406,42.3701172c-0.1757812,1.5039062-0.7304688,2.6650391-1.6650391,3.4814453
		c-0.9335938,0.8173828-2.1757812,1.2255859-3.7255859,1.2255859c-1.6796875,0-3.0253906-0.6015625-4.0380859-1.8066406
		c-1.0117188-1.2041016-1.5185547-2.8154297-1.5185547-4.8339844v-1.3671875c0-1.3217773,0.2363281-2.4838867,0.7080078-3.4863281
		c0.4726562-1.0024414,1.1416016-1.7724609,2.0068359-2.3095703c0.8662109-0.5371094,1.8691406-0.8056641,3.0078125-0.8056641
		c1.5107422,0,2.7216797,0.4213867,3.6328125,1.2646484c0.9121094,0.8432617,1.4423828,2.0102539,1.5917969,3.5009766h-1.8847656
		c-0.1621094-1.1362305-0.515625-1.9589844-1.0595703-2.4682617c-0.5429688-0.5092773-1.3037109-0.7641602-2.2802734-0.7641602
		c-1.1972656,0-2.1367188,0.4433594-2.8173828,1.3291016c-0.6796875,0.8867188-1.0205078,2.1469727-1.0205078,3.7827148v1.3779297
		c0,1.5444336,0.3222656,2.7729492,0.9667969,3.6850586s1.546875,1.3681641,2.7050781,1.3681641
		c1.0419922,0,1.8408203-0.2353516,2.3974609-0.7080078c0.5566406-0.4716797,0.9267578-1.2939453,1.1083984-2.4658203H296.8691406z"
		/>
	<path class="st0" d="M310.3652344,40.2314453c0,1.3935547-0.234375,2.609375-0.703125,3.6474609
		c-0.46875,1.0390625-1.1328125,1.8310547-1.9921875,2.3779297s-1.8613281,0.8203125-3.0078125,0.8203125
		c-1.1191406,0-2.1123047-0.2744141-2.9785156-0.8251953c-0.8652344-0.5498047-1.5380859-1.3339844-2.0166016-2.3535156
		c-0.4785156-1.0185547-0.7236328-2.1982422-0.7373047-3.5400391v-1.0253906c0-1.3671875,0.2382812-2.574707,0.7128906-3.6230469
		c0.4755859-1.0483398,1.1474609-1.8505859,2.0166016-2.4072266s1.8642578-0.8349609,2.9833984-0.8349609
		c1.1396484,0,2.1435547,0.2749023,3.0126953,0.8251953s1.5380859,1.3476562,2.0068359,2.3925781
		s0.703125,2.2607422,0.703125,3.6474609V40.2314453z M308.5,39.3134766c0-1.6860352-0.3378906-2.9799805-1.015625-3.8818359
		c-0.6767578-0.9018555-1.6240234-1.3525391-2.8417969-1.3525391c-1.1845703,0-2.1171875,0.4506836-2.7978516,1.3525391
		c-0.6796875,0.9018555-1.0302734,2.1533203-1.0498047,3.7548828v1.0449219c0,1.6347656,0.34375,2.9189453,1.0302734,3.8525391
		c0.6875,0.9345703,1.6328125,1.4013672,2.8369141,1.4013672c1.2109375,0,2.1484375-0.4404297,2.8125-1.3232422
		c0.6640625-0.8818359,1.0058594-2.1464844,1.0253906-3.7939453V39.3134766z"/>
	<path class="st0" d="M324.1054688,46.8818359h-1.8847656L315.0625,35.9248047v10.9570312h-1.8847656v-14.21875H315.0625
		l7.1777344,11.0058594V32.6630859h1.8652344V46.8818359z"/>
	<path class="st0" d="M336.9765625,34.1962891H332.40625v12.6855469h-1.8652344V34.1962891h-4.5605469v-1.5332031h10.9960938
		V34.1962891z"/>
	<path class="st0" d="M346.1660156,43.1611328h-5.9570312l-1.3378906,3.7207031H336.9375l5.4296875-14.21875h1.640625
		l5.4394531,14.21875h-1.9238281L346.1660156,43.1611328z M340.7753906,41.6279297h4.8339844l-2.421875-6.6503906
		L340.7753906,41.6279297z"/>
	<path class="st0" d="M361.7128906,42.3701172c-0.1757812,1.5039062-0.7304688,2.6650391-1.6650391,3.4814453
		c-0.9335938,0.8173828-2.1757812,1.2255859-3.7255859,1.2255859c-1.6796875,0-3.0253906-0.6015625-4.0380859-1.8066406
		c-1.0117188-1.2041016-1.5185547-2.8154297-1.5185547-4.8339844v-1.3671875c0-1.3217773,0.2363281-2.4838867,0.7080078-3.4863281
		c0.4726562-1.0024414,1.1416016-1.7724609,2.0068359-2.3095703c0.8662109-0.5371094,1.8691406-0.8056641,3.0078125-0.8056641
		c1.5107422,0,2.7216797,0.4213867,3.6328125,1.2646484c0.9121094,0.8432617,1.4423828,2.0102539,1.5917969,3.5009766h-1.8847656
		c-0.1621094-1.1362305-0.515625-1.9589844-1.0595703-2.4682617c-0.5429688-0.5092773-1.3037109-0.7641602-2.2802734-0.7641602
		c-1.1972656,0-2.1367188,0.4433594-2.8173828,1.3291016c-0.6796875,0.8867188-1.0205078,2.1469727-1.0205078,3.7827148v1.3779297
		c0,1.5444336,0.3222656,2.7729492,0.9667969,3.6850586s1.546875,1.3681641,2.7050781,1.3681641
		c1.0419922,0,1.8408203-0.2353516,2.3974609-0.7080078c0.5566406-0.4716797,0.9267578-1.2939453,1.1083984-2.4658203H361.7128906z"
		/>
	<path class="st0" d="M373.8125,34.1962891h-4.5703125v12.6855469h-1.8652344V34.1962891h-4.5605469v-1.5332031H373.8125V34.1962891
		z"/>
	<path class="st0" d="M390.4921875,32.6630859v9.6679688c-0.0068359,1.3417969-0.4277344,2.4384766-1.2646484,3.2910156
		c-0.8369141,0.8535156-1.9707031,1.3320312-3.4033203,1.4355469l-0.4980469,0.0195312
		c-1.5556641,0-2.7958984-0.4199219-3.7207031-1.2597656s-1.3935547-1.9951172-1.40625-3.4667969v-9.6875h1.8554688v9.6289062
		c0,1.0292969,0.2832031,1.828125,0.8496094,2.3974609c0.5664062,0.5703125,1.3740234,0.8544922,2.421875,0.8544922
		c1.0615234,0,1.8730469-0.2832031,2.4365234-0.8496094s0.8447266-1.3632812,0.8447266-2.3925781v-9.6386719H390.4921875z"/>
	<path class="st0" d="M397.640625,40.5439453c-1.6083984-0.4624023-2.7783203-1.0302734-3.5107422-1.7041016
		s-1.0986328-1.5053711-1.0986328-2.4951172c0-1.1196289,0.4472656-2.0458984,1.3427734-2.7783203
		s2.0585938-1.0986328,3.4912109-1.0986328c0.9765625,0,1.8476562,0.1889648,2.6123047,0.5664062
		s1.3574219,0.8984375,1.7773438,1.5625s0.6298828,1.3901367,0.6298828,2.1777344H401
		c0-0.8623047-0.2734375-1.5400391-0.8203125-2.0336914c-0.546875-0.4931641-1.3183594-0.7397461-2.3144531-0.7397461
		c-0.9248047,0-1.6455078,0.2041016-2.1630859,0.6113281c-0.5175781,0.4082031-0.7763672,0.9736328-0.7763672,1.6972656
		c0,0.5810547,0.2460938,1.0717773,0.7373047,1.4726562c0.4912109,0.4013672,1.328125,0.7680664,2.5097656,1.1005859
		s2.1064453,0.6992188,2.7734375,1.0996094s1.1621094,0.8676758,1.484375,1.4013672
		c0.3222656,0.5341797,0.4833984,1.1621094,0.4833984,1.8847656c0,1.1523438-0.4492188,2.0751953-1.3476562,2.7685547
		s-2.0996094,1.0400391-3.6035156,1.0400391c-0.9765625,0-1.8876953-0.1865234-2.734375-0.5615234
		c-0.8466797-0.3740234-1.4990234-0.8867188-1.9580078-1.5380859c-0.4589844-0.6503906-0.6884766-1.3896484-0.6884766-2.2167969
		h1.8847656c0,0.859375,0.3173828,1.5380859,0.9521484,2.0361328s1.4824219,0.7470703,2.5439453,0.7470703
		c0.9892578,0,1.7480469-0.2011719,2.2753906-0.6054688c0.5273438-0.4033203,0.7910156-0.953125,0.7910156-1.6503906
		c0-0.6962891-0.2441406-1.2353516-0.7324219-1.6162109S398.9228516,40.9150391,397.640625,40.5439453z"/>
</g>
<g>
	<path class="st0" d="M202.3100586,46.8818359v-14.21875h4.6484375c1.5429688,0,2.7036133,0.3188477,3.4814453,0.9570312
		s1.1669922,1.5820312,1.1669922,2.8320312c0,0.6640625-0.1889648,1.2514648-0.5664062,1.7626953
		s-0.8920898,0.9067383-1.5429688,1.1865234c0.7680664,0.2148438,1.3754883,0.6235352,1.8212891,1.2255859
		c0.4458008,0.6025391,0.6689453,1.3203125,0.6689453,2.1533203c0,1.2763672-0.4135742,2.2792969-1.2402344,3.0078125
		c-0.8266602,0.7294922-1.9956055,1.09375-3.5058594,1.09375H202.3100586z M204.1850586,38.7275391h2.8320312
		c0.8203125,0,1.4760742-0.2055664,1.9677734-0.6162109c0.4916992-0.4111328,0.7373047-0.9692383,0.7373047-1.6738281
		c0-0.7827148-0.2280273-1.3520508-0.6835938-1.7080078c-0.4555664-0.3554688-1.1489258-0.5332031-2.0800781-0.5332031h-2.7734375
		V38.7275391z M204.1850586,40.2314453v5.1171875h3.0957031c0.8725586,0,1.5610352-0.2255859,2.0654297-0.6787109
		c0.5043945-0.4521484,0.7568359-1.0751953,0.7568359-1.8701172c0-1.7119141-0.9311523-2.5683594-2.7929688-2.5683594H204.1850586z"
		/>
	<path class="st0" d="M216.6464844,45.3486328h6.7382812v1.5332031h-8.6235352v-14.21875h1.8852539V45.3486328z"/>
	<path class="st0" d="M235.8261719,40.2314453c0,1.3935547-0.234375,2.609375-0.703125,3.6474609
		c-0.46875,1.0390625-1.1328125,1.8310547-1.9921875,2.3779297s-1.8623047,0.8203125-3.0078125,0.8203125
		c-1.1201172,0-2.1132812-0.2744141-2.9785156-0.8251953c-0.8662109-0.5498047-1.5380859-1.3339844-2.0166016-2.3535156
		c-0.4785156-1.0185547-0.7246094-2.1982422-0.7373047-3.5400391v-1.0253906c0-1.3671875,0.2373047-2.574707,0.7128906-3.6230469
		c0.4746094-1.0483398,1.1474609-1.8505859,2.0166016-2.4072266s1.8632812-0.8349609,2.9833984-0.8349609
		c1.1386719,0,2.1435547,0.2749023,3.0126953,0.8251953s1.5380859,1.3476562,2.0068359,2.3925781
		s0.703125,2.2607422,0.703125,3.6474609V40.2314453z M233.9609375,39.3134766c0-1.6860352-0.3388672-2.9799805-1.015625-3.8818359
		c-0.6777344-0.9018555-1.625-1.3525391-2.8417969-1.3525391c-1.1855469,0-2.1181641,0.4506836-2.7978516,1.3525391
		c-0.6806641,0.9018555-1.0302734,2.1533203-1.0498047,3.7548828v1.0449219c0,1.6347656,0.3427734,2.9189453,1.0302734,3.8525391
		c0.6865234,0.9345703,1.6318359,1.4013672,2.8369141,1.4013672c1.2109375,0,2.1484375-0.4404297,2.8125-1.3232422
		c0.6640625-0.8818359,1.0058594-2.1464844,1.0253906-3.7939453V39.3134766z"/>
	<path class="st0" d="M249.1367188,45.0166016c-0.4824219,0.6904297-1.1542969,1.2060547-2.0166016,1.5478516
		c-0.8632812,0.3417969-1.8671875,0.5126953-3.0126953,0.5126953c-1.1591797,0-2.1875-0.2714844-3.0859375-0.8154297
		c-0.8984375-0.5429688-1.59375-1.3164062-2.0849609-2.3193359c-0.4921875-1.0019531-0.7441406-2.1640625-0.7568359-3.4863281
		v-1.2402344c0-2.1420898,0.4990234-3.8022461,1.4990234-4.9804688c0.9990234-1.1782227,2.4033203-1.7675781,4.2138672-1.7675781
		c1.484375,0,2.6787109,0.3793945,3.5839844,1.1376953c0.9042969,0.7583008,1.4580078,1.8344727,1.6601562,3.2275391h-1.875
		c-0.3515625-1.8881836-1.4716797-2.8320312-3.359375-2.8320312c-1.2568359,0-2.2089844,0.4414062-2.8564453,1.3242188
		c-0.6484375,0.8833008-0.9755859,2.1621094-0.9814453,3.8364258v1.1630859c0,1.5961914,0.3642578,2.8657227,1.09375,3.8071289
		c0.7285156,0.9414062,1.7148438,1.4121094,2.9589844,1.4121094c0.703125,0,1.3183594-0.0771484,1.8457031-0.2333984
		s0.9628906-0.4189453,1.3085938-0.7890625v-3.1865234h-3.2910156v-1.5332031h5.15625V45.0166016z"/>
</g>
<polygon class="st1" points="150.706192,67.5880814 125.6337814,67.5880814 138.1699829,55.0518761 "/>
</svg>
