<?xml version="1.0" encoding="utf-8"?>
<!-- Generator: Adobe Illustrator 21.0.0, SVG Export Plug-In . SVG Version: 6.00 Build 0)  -->
<svg version="1.1" id="Layer_1" xmlns="http://www.w3.org/2000/svg" width="430" height="80" xmlns:xlink="http://www.w3.org/1999/xlink" x="0px" y="0px"
	 viewBox="0 0 430 70" style="enable-background:new 0 0 430 70;" xml:space="preserve">
<style type="text/css">
	.st0{fill:#222222;}
	.st1{enable-background:new    ;}
	.st2{fill:#FFFFFF;}
</style>
<g>
	<g>
		<g>
			<rect x="324.7000122" y="22.3999996" class="st0" width="87.8999939" height="25.1000004"/>
		</g>
		<g class="st1">
			<path class="st2" d="M344.5,37.4000015c-0.1000061,1.2999992-0.6000061,2.2000008-1.3999939,2.9000015s-1.7999878,1-3.1000061,1
				c-1.3999939,0-2.5-0.5-3.3999939-1.5c-0.7999878-1-1.2999878-2.4000015-1.2999878-4v-1.0999985
				c0-1.0999985,0.2000122-2.0999985,0.6000061-2.8999996c0.3999939-0.7999992,1-1.5,1.7000122-1.8999996
				c0.7000122-0.5,1.6000061-0.7000008,2.5-0.7000008c1.2999878,0,2.2999878,0.3999996,3,1.1000004
				c0.7999878,0.7000008,1.2000122,1.6999989,1.2999878,2.8999996h-1.6000061c-0.1000061-1-0.3999939-1.6000004-0.8999939-2.1000004
				c-0.5-0.3999996-1.1000061-0.6000004-1.8999939-0.6000004c-1,0-1.7999878,0.3999996-2.3999939,1.1000004
				c-0.6000061,0.6999989-0.8999939,1.8000011-0.8999939,3.1999989v1.2000008c0,1.2999992,0.2999878,2.2999992,0.7999878,3.0999985
				s1.2999878,1.0999985,2.2999878,1.0999985c0.8999939,0,1.5-0.2000008,2-0.5999985
				c0.5-0.4000015,0.7999878-1.0999985,0.8999939-2.0999985H344.5V37.4000015z"/>
			<path class="st2" d="M355,29.2000008v8.1000023c0,1.0999985-0.3999939,2-1.1000061,2.7999992
				s-1.7000122,1.0999985-2.7999878,1.2000008h-0.3999939c-1.2999878,0-2.2999878-0.4000015-3.1000061-1.0999985
				c-0.7999878-0.7000008-1.2000122-1.7000008-1.2000122-2.9000015v-8.1000004H348v8.1000004c0,0.9000015,0.2000122,1.5,0.7000122,2
				s1.2000122,0.7000008,2,0.7000008c0.8999939,0,1.6000061-0.2000008,2-0.7000008c0.5-0.5,0.7000122-1.0999985,0.7000122-2
				v-8.1000004C353.4000244,29.2000027,355,29.2000027,355,29.2000008z"/>
			<path class="st2" d="M361,35.7999992c-1.2999878-0.4000015-2.2999878-0.9000015-2.8999939-1.4000015
				c-0.6000061-0.5999985-0.8999939-1.2999992-0.8999939-2.0999985c0-0.8999996,0.3999939-1.7000008,1.1000061-2.2999992
				c0.7000122-0.6000004,1.7000122-0.8999996,2.8999939-0.8999996c0.7999878,0,1.5,0.2000008,2.2000122,0.5
				c0.6000061,0.2999992,1.1000061,0.7999992,1.5,1.2999992s0.5,1.1999989,0.5,1.8000011h-1.6000061
				c0-0.7000008-0.2000122-1.2999992-0.7000122-1.7000008c-0.5-0.3999996-1.1000061-0.6000004-1.8999939-0.6000004
				s-1.3999939,0.2000008-1.7999878,0.5s-0.6000061,0.7999992-0.6000061,1.3999996c0,0.5,0.2000122,0.9000015,0.6000061,1.2000008
				s1.1000061,0.5999985,2.1000061,0.9000015c1,0.2999992,1.7999878,0.5999985,2.2999878,0.9000015s1,0.7000008,1.2000122,1.2000008
				c0.2999878,0.4000015,0.3999939,1,0.3999939,1.5999985c0,1-0.3999939,1.7000008-1.1000061,2.2999992
				s-1.7999878,0.9000015-3,0.9000015c-0.7999878,0-1.6000061-0.2000008-2.2999878-0.5s-1.2999878-0.7000008-1.6000061-1.2999992
				s-0.6000061-1.2000008-0.6000061-1.9000015h1.6000061c0,0.7000008,0.2999878,1.2999992,0.7999878,1.7000008
				s1.2000122,0.5999985,2.1000061,0.5999985c0.7999878,0,1.5-0.2000008,1.8999939-0.5S363.9000244,38.6000023,363.9000244,38
				s-0.2000122-1-0.6000061-1.4000015C362.7999878,36.5,362.1000061,36.0999985,361,35.7999992z"/>
			<path class="st2" d="M375.7000122,30.5h-3.7999878v10.5999985h-1.6000061V30.5h-3.7999878v-1.2999992h9.2000122V30.5H375.7000122
				z"/>
			<path class="st2" d="M386.3999939,35.5999985c0,1.2000008-0.2000122,2.2000008-0.6000061,3.0999985s-0.8999939,1.5-1.7000122,2
				c-0.7000122,0.5-1.6000061,0.7000008-2.5,0.7000008s-1.7999878-0.2000008-2.5-0.7000008s-1.2999878-1.0999985-1.7000122-2
				c-0.3999939-0.9000015-0.6000061-1.7999992-0.6000061-3v-0.9000015c0-1.0999985,0.2000122-2.2000008,0.6000061-3
				c0.3999939-0.8999996,1-1.5,1.7000122-2s1.6000061-0.7000008,2.5-0.7000008c1,0,1.7999878,0.2000008,2.5,0.7000008
				s1.2999878,1.1000004,1.7000122,2c0.3999939,0.9000015,0.6000061,1.9000015,0.6000061,3.0999985V35.5999985z
				 M384.7999878,34.7999992c0-1.4000015-0.2999878-2.5-0.8999939-3.2000008
				C383.2999878,30.7999992,382.5,30.4999981,381.5,30.4999981s-1.7999878,0.3999996-2.2999878,1.1000004
				c-0.6000061,0.7999992-0.8999939,1.7999992-0.8999939,3.0999985v0.9000015c0,1.4000015,0.2999878,2.4000015,0.8999939,3.2000008
				S380.6000061,40,381.6000061,40S383.3999939,39.5999985,384,38.9000015s0.7999878-1.7999992,0.8999939-3.2000008v-0.9000015
				H384.7999878z"/>
			<path class="st2" d="M390.7000122,29.2000008l3.8999939,9.7000008L398.5,29.2000008h2v11.8999977H399V36.5l0.1000061-5
				l-3.8999939,9.5999985H394l-3.8999939-9.6000004L390.3000183,36.5v4.5999985h-1.6000061V29.2000008H390.7000122z"/>
		</g>
	</g>
	<g>
		<g>
			<g>
				<path class="st0" d="M309.2999878,23.3999996v23.0000019h-85.8000031v-23L309.2999878,23.3999996 M310.2999878,22.3999996
					h-87.8999939V47.5h87.8999939V22.3999996L310.2999878,22.3999996z"/>
			</g>
		</g>
		<g class="st1">
			<path class="st0" d="M242.3000031,37.4000015c-0.1000061,1.2999992-0.6000061,2.2000008-1.3999939,2.9000015
				s-1.8000031,1-3.1000061,1c-1.3999939,0-2.5-0.5-3.3999939-1.5c-0.8000031-1-1.3000031-2.4000015-1.3000031-4v-1.0999985
				c0-1.0999985,0.1999969-2.0999985,0.6000061-2.8999996c0.3999939-0.7999992,1-1.5,1.6999969-1.8999996
				c0.6999969-0.5,1.6000061-0.7000008,2.5-0.7000008c1.3000031,0,2.3000031,0.3999996,3,1.1000004
				c0.8000031,0.7000008,1.1999969,1.6999989,1.3000031,2.8999996h-1.6000061c-0.1000061-1-0.3999939-1.6000004-0.8999939-2.1000004
				c-0.5-0.3999996-1.1000061-0.6000004-1.8999939-0.6000004c-1,0-1.8000031,0.3999996-2.3999939,1.1000004
				c-0.6000061,0.6999989-0.8999939,1.8000011-0.8999939,3.1999989v1.2000008c0,1.2999992,0.3000031,2.2999992,0.8000031,3.0999985
				s1.3000031,1.0999985,2.3000031,1.0999985c0.8999939,0,1.5-0.2000008,2-0.5999985
				c0.5-0.4000015,0.8000031-1.0999985,0.8999939-2.0999985h1.7999725V37.4000015z"/>
			<path class="st0" d="M252.8000031,29.2000008v8.1000023c0,1.0999985-0.3999939,2-1.1000061,2.7999992
				s-1.6000061,1.0999985-2.8000031,1.2000008H248.5c-1.3000031,0-2.3000031-0.4000015-3.1000061-1.0999985
				c-0.8000031-0.7000008-1.1999969-1.7000008-1.1999969-2.9000015v-8.1000004h1.6000061v8.1000004
				c0,0.9000015,0.1999969,1.5,0.6999969,2s1.1000061,0.7000008,2,0.7000008s1.6000061-0.2000008,2-0.7000008
				c0.5-0.5,0.6999969-1.0999985,0.6999969-2v-8.1000004C251.1999969,29.2000027,252.8000031,29.2000027,252.8000031,29.2000008z"/>
			<path class="st0" d="M258.7999878,35.7999992C257.5,35.3999977,256.5,34.8999977,255.8999939,34.3999977
				C255.2999878,33.7999992,255,33.0999985,255,32.2999992c0-0.8999996,0.3999939-1.7000008,1.1000061-2.2999992
				S257.8000183,29.1000004,259,29.1000004c0.7999878,0,1.5,0.2000008,2.2000122,0.5
				c0.6000061,0.2999992,1.1000061,0.7999992,1.5,1.2999992s0.5,1.1999989,0.5,1.8000011h-1.6000061
				c0-0.7000008-0.2000122-1.2999992-0.7000122-1.7000008c-0.5-0.3999996-1.1000061-0.6000004-1.8999939-0.6000004
				s-1.3999939,0.2000008-1.7999878,0.5S256.5,31.6999989,256.5,32.2999992c0,0.5,0.2000122,0.9000015,0.6000061,1.2000008
				s1.1000061,0.5999985,2.1000061,0.9000015C260.2000122,34.7000008,261,35,261.5,35.3000031s1,0.7000008,1.2000122,1.2000008
				c0.2999878,0.4000015,0.3999939,1,0.3999939,1.5999985c0,1-0.3999939,1.7000008-1.1000061,2.2999992
				s-1.7999878,0.9000015-3,0.9000015c-0.7999878,0-1.6000061-0.2000008-2.2999878-0.5
				c-0.7000122-0.2999992-1.3000031-0.7000008-1.6000061-1.2999992c-0.3999939-0.5-0.6000061-1.2000008-0.6000061-1.9000015
				h1.6000061c0,0.7000008,0.2999878,1.2999992,0.7999878,1.7000008S258.1000061,39.9000015,259,39.9000015
				c0.7999878,0,1.5-0.2000008,1.8999939-0.5S261.6000061,38.6000023,261.6000061,38S261.3999939,37,261,36.5999985
				C260.6000061,36.5,259.7999878,36.0999985,258.7999878,35.7999992z"/>
			<path class="st0" d="M273.3999939,30.5h-3.7999878v10.5999985H268V30.5h-3.7999878v-1.2999992h9.2000122V30.5H273.3999939z"/>
			<path class="st0" d="M284.1000061,35.5999985c0,1.2000008-0.2000122,2.2000008-0.6000061,3.0999985s-0.8999939,1.5-1.7000122,2
				c-0.7000122,0.5-1.6000061,0.7000008-2.5,0.7000008s-1.7999878-0.2000008-2.5-0.7000008s-1.2999878-1.0999985-1.7000122-2
				c-0.3999939-0.9000015-0.6000061-1.7999992-0.6000061-3v-0.9000015c0-1.0999985,0.2000122-2.2000008,0.6000061-3
				c0.3999939-0.8999996,1-1.5,1.7000122-2s1.6000061-0.7000008,2.5-0.7000008c1,0,1.7999878,0.2000008,2.5,0.7000008
				s1.2999878,1.1000004,1.7000122,2c0.3999939,0.9000015,0.6000061,1.9000015,0.6000061,3.0999985V35.5999985z M282.5,34.7999992
				c0-1.4000015-0.2999878-2.5-0.8999939-3.2000008c-0.6000061-0.7999992-1.3999939-1.1000004-2.3999939-1.1000004
				s-1.7999878,0.3999996-2.2999878,1.1000004c-0.6000061,0.7999992-0.8999939,1.7999992-0.8999939,3.0999985v0.9000015
				c0,1.4000015,0.2999878,2.4000015,0.8999939,3.2000008S278.3000183,40,279.3000183,40s1.7999878-0.4000015,2.3999939-1.0999985
				s0.7999878-1.7999992,0.8999939-3.2000008v-0.9000015H282.5z"/>
			<path class="st0" d="M288.5,29.2000008l3.8999939,9.7000008l3.8999939-9.7000008h2v11.8999977h-1.6000061V36.5l0.1000061-5
				l-3.8999939,9.5999985h-1.2000122l-3.8999939-9.6000004L288,36.5v4.5999985h-1.6000061V29.2000008H288.5z"/>
		</g>
	</g>
	<g>
		<g>
			<g>
				<path class="st0" d="M194.6000061,47.5999985h-62.6999969C125.0000076,47.5999985,119.3000107,42,119.3000107,35l0,0
					c0-6.8999996,5.5999985-12.6000004,12.5999985-12.6000004h62.6999969C201.5,22.3999996,207.2000122,28,207.2000122,35l0,0
					C207.1000061,41.9000015,201.5,47.5999985,194.6000061,47.5999985z"/>
			</g>
		</g>
		<g class="st1">
			<path class="st2" d="M139,37.4000015c-0.1000061,1.2999992-0.6000061,2.2000008-1.3999939,2.9000015
				c-0.8000031,0.7000008-1.8000031,1-3.1000061,1c-1.3999939,0-2.5-0.5-3.3999939-1.5s-1.3000031-2.4000015-1.3000031-4v-1.0999985
				c0-1.0999985,0.1999969-2.0999985,0.6000061-2.8999996c0.3999939-0.7999992,1-1.5,1.6999969-1.8999996
				c0.6999969-0.5,1.6000061-0.7000008,2.5-0.7000008c1.3000031,0,2.3000031,0.3999996,3,1.1000004
				c0.8000031,0.7000008,1.1999969,1.6999989,1.3000031,2.8999996h-1.6000061c-0.1000061-1-0.3999939-1.6000004-0.8999939-2.1000004
				c-0.5-0.3999996-1.1000061-0.6000004-1.8999939-0.6000004c-1,0-1.8000031,0.3999996-2.3999939,1.1000004
				c-0.6000061,0.6999989-0.8999939,1.8000011-0.8999939,3.1999989v1.2000008c0,1.2999992,0.3000031,2.2999992,0.8000031,3.0999985
				s1.3000031,1.0999985,2.3000031,1.0999985c0.8999939,0,1.5-0.2000008,2-0.5999985
				c0.5-0.4000015,0.8000031-1.0999985,0.8999939-2.0999985H139V37.4000015z"/>
			<path class="st2" d="M149.6000061,29.2000008v8.1000023c0,1.0999985-0.3999939,2-1.1000061,2.7999992
				s-1.6000061,1.0999985-2.8000031,1.2000008h-0.3999939c-1.3000031,0-2.3000031-0.4000015-3.1000061-1.0999985
				C141.3999939,39.5000038,141,38.5000038,141,37.3000031v-8.1000004h1.6000061v8.1000004c0,0.9000015,0.1999969,1.5,0.6999969,2
				s1.1000061,0.7000008,2,0.7000008s1.6000061-0.2000008,2-0.7000008c0.5-0.5,0.6999969-1.0999985,0.6999969-2v-8.1000004
				C148,29.2000027,149.6000061,29.2000027,149.6000061,29.2000008z"/>
			<path class="st2" d="M155.5,35.7999992c-1.3000031-0.4000015-2.3000031-0.9000015-2.8999939-1.4000015
				c-0.6000061-0.5999985-0.8999939-1.2999992-0.8999939-2.0999985c0-0.8999996,0.3999939-1.7000008,1.1000061-2.2999992
				c0.6999969-0.6000004,1.6999969-0.8999996,2.8999939-0.8999996c0.8000031,0,1.5,0.2000008,2.1999969,0.5
				c0.6000061,0.2999992,1.1000061,0.7999992,1.5,1.2999992s0.5,1.1999989,0.5,1.8000011h-1.6000061
				c0-0.7000008-0.1999969-1.2999992-0.6999969-1.7000008c-0.5-0.3999996-1.1000061-0.6000004-1.8999939-0.6000004
				c-0.8000031,0-1.3999939,0.2000008-1.8000031,0.5c-0.3999939,0.2999992-0.6000061,0.7999992-0.6000061,1.3999996
				c0,0.5,0.1999969,0.9000015,0.6000061,1.2000008c0.3999939,0.2999992,1.1000061,0.5999985,2.1000061,0.9000015
				c1,0.2999992,1.8000031,0.5999985,2.3000031,0.9000015s1,0.7000008,1.1999969,1.2000008
				c0.3000031,0.4000015,0.3999939,1,0.3999939,1.5999985c0,1-0.3999939,1.7000008-1.1000061,2.2999992
				s-1.8000031,0.9000015-3,0.9000015c-0.8000031,0-1.6000061-0.2000008-2.3000031-0.5s-1.3000031-0.7000008-1.6000061-1.2999992
				c-0.3999939-0.5-0.6000061-1.2000008-0.6000061-1.9000015h1.6000061c0,0.7000008,0.3000031,1.2999992,0.8000031,1.7000008
				s1.1999969,0.5999985,2.1000061,0.5999985c0.8000031,0,1.5-0.2000008,1.8999939-0.5S158.3999939,38.6000023,158.3999939,38
				s-0.1999969-1-0.6000061-1.4000015C157.3999939,36.5,156.6000061,36.0999985,155.5,35.7999992z"/>
			<path class="st2" d="M170.1999969,30.5h-3.8000031v10.5999985h-1.6000061V30.5H161v-1.2999992h9.1999969V30.5z"/>
			<path class="st2" d="M180.8999939,35.5999985c0,1.2000008-0.1999969,2.2000008-0.6000061,3.0999985s-0.8999939,1.5-1.6999969,2
				c-0.6999969,0.5-1.6000061,0.7000008-2.5,0.7000008s-1.8000031-0.2000008-2.5-0.7000008s-1.3000031-1.0999985-1.6999969-2
				s-0.6000061-1.7999992-0.6000061-3v-0.9000015c0-1.0999985,0.1999969-2.2000008,0.6000061-3
				c0.3999939-0.8999996,1-1.5,1.6999969-2s1.6000061-0.7000008,2.5-0.7000008c1,0,1.8000031,0.2000008,2.5,0.7000008
				s1.3000031,1.1000004,1.6999969,2c0.3999939,0.9000015,0.6000061,1.9000015,0.6000061,3.0999985V35.5999985z
				 M179.3000031,34.7999992c0-1.4000015-0.3000031-2.5-0.8999939-3.2000008
				c-0.6000061-0.7999992-1.3999939-1.1000004-2.3999939-1.1000004s-1.8000031,0.3999996-2.3000031,1.1000004
				c-0.6000061,0.7999992-0.8999939,1.7999992-0.8999939,3.0999985v0.9000015c0,1.4000015,0.3000031,2.4000015,0.8999939,3.2000008
				S175.1000061,40,176.1000061,40s1.8000031-0.4000015,2.3999939-1.0999985s0.8000031-1.7999992,0.8999939-3.2000008v-0.9000015
				H179.3000031z"/>
			<path class="st2" d="M185.3000031,29.2000008l3.8999939,9.7000008l3.8999939-9.7000008h2v11.8999977h-1.6000061V36.5l0.1000061-5
				l-3.8999939,9.5999985H188.5l-3.8999939-9.6000004L184.8000031,36.5v4.5999985h-1.6000061V29.2000008H185.3000031z"/>
		</g>
	</g>
	<g>
		<g>
			<g>
				<path class="st0" d="M92.8000031,23.3999996c6.4000015,0,11.5999985,5.1999989,11.5999985,11.6000004
					s-5.1999969,11.5999985-11.5999985,11.5999985H30c-6.3999996,0-11.6000004-5.2000008-11.6000004-11.5999985
					S23.6000004,23.3999996,30,23.3999996H92.8000031 M92.8000031,22.3999996H30C23.1000004,22.3999996,17.3999996,28,17.3999996,35
					l0,0C17.3999996,41.9000015,23,47.5999985,30,47.5999985h62.6999969C99.5999985,47.5999985,105.2999954,42,105.2999954,35l0,0
					C105.3000031,28.1000004,99.6999969,22.3999996,92.8000031,22.3999996L92.8000031,22.3999996z"/>
			</g>
		</g>
		<g class="st1">
			<path class="st0" d="M37.2999992,37.4000015c-0.0999985,1.2999992-0.5999985,2.2000008-1.4000015,2.9000015
				c-0.7999992,0.7000008-1.7999992,1-3.0999985,1c-1.3999996,0-2.5-0.5-3.3999996-1.5s-1.2999992-2.4000015-1.2999992-4v-1.0999985
				c0-1.0999985,0.2000008-2.0999985,0.6000004-2.8999996c0.3999996-0.7999992,1-1.5,1.7000008-1.8999996
				c0.7000008-0.5,1.5999985-0.7000008,2.5-0.7000008c1.2999992,0,2.2999992,0.3999996,3,1.1000004
				c0.7999992,0.7000008,1.2000008,1.6999989,1.2999992,2.8999996h-1.5999985c-0.0999985-1-0.4000015-1.6000004-0.9000015-2.1000004
				c-0.5-0.3999996-1.0999985-0.6000004-1.9000015-0.6000004c-1,0-1.7999992,0.3999996-2.3999996,1.1000004
				C29.7999992,32.3000031,29.5,33.4000053,29.5,34.8000031v1.2000008c0,1.2999992,0.2999992,2.2999992,0.7999992,3.0999985
				s1.2999992,1.0999985,2.2999992,1.0999985c0.9000015,0,1.5-0.2000008,2-0.5999985
				c0.5-0.4000015,0.7999992-1.0999985,0.9000015-2.0999985h1.7999992V37.4000015z"/>
			<path class="st0" d="M47.7999992,29.2000008v8.1000023c0,1.0999985-0.4000015,2-1.0999985,2.7999992
				s-1.5999985,1.0999985-2.7999992,1.2000008H43.5c-1.2999992,0-2.2999992-0.4000015-3.0999985-1.0999985
				c-0.7999992-0.7000008-1.2000008-1.7000008-1.2000008-2.9000015v-8.1000004h1.5999985v8.1000004
				c0,0.9000015,0.2000008,1.5,0.7000008,2s1.0999985,0.7000008,2,0.7000008s1.5999985-0.2000008,2-0.7000008
				c0.5-0.5,0.7000008-1.0999985,0.7000008-2v-8.1000004C46.2000008,29.2000027,47.7999992,29.2000027,47.7999992,29.2000008z"/>
			<path class="st0" d="M53.7999992,35.7999992C52.5,35.3999977,51.5,34.8999977,50.8999977,34.3999977
				c-0.5999985-0.5999985-0.9000015-1.2999992-0.9000015-2.0999985c0-0.8999996,0.4000015-1.7000008,1.0999985-2.2999992
				c0.7000008-0.6000004,1.7000008-0.8999996,2.9000015-0.8999996c0.7999992,0,1.5,0.2000008,2.2000008,0.5
				c0.5999985,0.2999992,1.0999985,0.7999992,1.5,1.2999992s0.5,1.1999989,0.5,1.8000011h-1.5999985
				C56.5999985,32,56.3999977,31.4000015,55.8999977,31c-0.5-0.3999996-1.0999985-0.6000004-1.9000015-0.6000004
				c-0.7999992,0-1.4000015,0.2000008-1.7999992,0.5c-0.4000015,0.2999992-0.5999985,0.7999992-0.5999985,1.3999996
				c0,0.5,0.2000008,0.9000015,0.5999985,1.2000008c0.4000015,0.2999992,1.0999985,0.5999985,2.0999985,0.9000015
				c1,0.2999992,1.7999992,0.5999985,2.2999992,0.9000015s1,0.7000008,1.2000008,1.2000008
				c0.2999992,0.4000015,0.4000015,1,0.4000015,1.5999985c0,1-0.4000015,1.7000008-1.0999985,2.2999992
				s-1.7999992,0.9000015-3,0.9000015c-0.7999992,0-1.5999985-0.2000008-2.2999992-0.5S50.5,40.1000023,50.2000008,39.5000038
				c-0.4000015-0.5-0.5999985-1.2000008-0.5999985-1.9000015h1.5999985c0,0.7000008,0.2999992,1.2999992,0.7999992,1.7000008
				s1.2000008,0.5999985,2.0999985,0.5999985c0.7999992,0,1.5-0.2000008,1.9000015-0.5S56.7000008,38.6000023,56.7000008,38
				S56.5,37,56.1000023,36.5999985C55.5999985,36.5,54.9000015,36.0999985,53.7999992,35.7999992z"/>
			<path class="st0" d="M68.4000015,30.5h-3.8000031v10.5999985H63V30.5h-3.7999992v-1.2999992h9.2000008V30.5z"/>
			<path class="st0" d="M79.0999985,35.5999985c0,1.2000008-0.1999969,2.2000008-0.5999985,3.0999985s-0.9000015,1.5-1.6999969,2
				c-0.6999969,0.5-1.5999985,0.7000008-2.5,0.7000008s-1.8000031-0.2000008-2.5-0.7000008s-1.3000031-1.0999985-1.6999969-2
				c-0.4000015-0.9000015-0.5999985-1.7999992-0.5999985-3v-0.9000015c0-1.0999985,0.1999969-2.2000008,0.5999985-3
				c0.4000015-0.8999996,1-1.5,1.6999969-2s1.5999985-0.7000008,2.5-0.7000008c1,0,1.8000031,0.2000008,2.5,0.7000008
				s1.3000031,1.1000004,1.6999969,2c0.4000015,0.9000015,0.5999985,1.9000015,0.5999985,3.0999985V35.5999985z
				 M77.5999985,34.7999992c0-1.4000015-0.3000031-2.5-0.9000015-3.2000008
				c-0.5999985-0.7999992-1.4000015-1.1000004-2.4000015-1.1000004s-1.8000031,0.3999996-2.3000031,1.1000004
				c-0.5999985,0.7999992-0.9000015,1.7999992-0.9000015,3.0999985v0.9000015C71.0999908,37,71.3999939,38,71.9999924,38.7999992
				S73.3999939,40,74.3999939,40s1.8000031-0.4000015,2.4000015-1.0999985s0.8000031-1.7999992,0.9000015-3.2000008v-0.9000015
				H77.5999985z"/>
			<path class="st0" d="M83.5,29.2000008l3.9000015,9.7000008l3.9000015-9.7000008h2v11.8999977h-1.5999985V36.5l0.0999985-5
				L88,41.0999985h-1.1999969l-3.9000015-9.6000004L83.0999985,36.5v4.5999985H81.5V29.2000008H83.5z"/>
		</g>
	</g>
</g>
</svg>
