<?xml version="1.0" encoding="utf-8"?>
<!-- Generator: Adobe Illustrator 21.0.0, SVG Export Plug-In . SVG Version: 6.00 Build 0)  -->
<svg version="1.1" id="Layer_1" xmlns="http://www.w3.org/2000/svg" width="430" height="70" xmlns:xlink="http://www.w3.org/1999/xlink" x="0px" y="0px"
	 viewBox="0 0 430 70" style="enable-background:new 0 0 430 70;" xml:space="preserve">
<style type="text/css">
	.st0{fill:#222222;}
	.st1{fill:#FFFFFF;}
</style>
<g>
	<g id="Add_to_cart">
		<rect x="158.1" y="19" class="st0" width="163.1" height="30"/>
		<g>
			<path class="st1" d="M201.8,39l-1-2.8H197l-1,2.8h-1.7l3.7-10h1.8l3.7,10H201.8z M200.3,34.8l-0.9-2.7c-0.1-0.2-0.2-0.5-0.3-0.9
				s-0.2-0.7-0.2-0.9c-0.1,0.6-0.3,1.2-0.5,1.8l-0.9,2.6h2.8V34.8z"/>
			<path class="st1" d="M212.9,33.9c0,1.7-0.5,2.9-1.4,3.8c-0.9,0.9-2.2,1.3-4,1.3h-2.8V29h3.1c1.6,0,2.8,0.4,3.7,1.3
				S212.9,32.4,212.9,33.9z M211.2,34c0-2.4-1.1-3.6-3.4-3.6h-1.4v7.3h1.2C210,37.6,211.2,36.4,211.2,34z"/>
			<path class="st1" d="M223.2,33.9c0,1.7-0.5,2.9-1.4,3.8c-0.9,0.9-2.2,1.3-4,1.3H215V29h3.1c1.6,0,2.8,0.4,3.7,1.3
				S223.2,32.4,223.2,33.9z M221.5,34c0-2.4-1.1-3.6-3.4-3.6h-1.4v7.3h1.2C220.3,37.6,221.5,36.4,221.5,34z"/>
			<path class="st1" d="M232.4,39h-1.6v-8.6h-2.9V29h7.5v1.4h-2.9V39H232.4z"/>
			<path class="st1" d="M245.8,34c0,1.6-0.4,2.9-1.2,3.8c-0.8,0.9-2,1.4-3.5,1.4s-2.7-0.4-3.5-1.3c-0.8-0.9-1.2-2.2-1.2-3.8
				s0.4-2.9,1.2-3.8s2-1.3,3.5-1.3s2.6,0.4,3.4,1.3S245.8,32.4,245.8,34z M238.2,34c0,1.2,0.2,2.2,0.7,2.8s1.2,1,2.2,1
				s1.7-0.3,2.2-0.9c0.5-0.6,0.7-1.6,0.7-2.8s-0.2-2.2-0.7-2.8c-0.5-0.6-1.2-1-2.2-1s-1.7,0.3-2.2,1C238.4,31.8,238.2,32.8,238.2,34
				z"/>
			<path class="st1" d="M255.8,30.3c-0.9,0-1.7,0.3-2.2,1s-0.8,1.6-0.8,2.8s0.3,2.2,0.8,2.8s1.3,0.9,2.2,0.9c0.4,0,0.8,0,1.2-0.1
				s0.8-0.2,1.2-0.3v1.4c-0.8,0.3-1.7,0.4-2.7,0.4c-1.5,0-2.6-0.4-3.4-1.3c-0.8-0.9-1.2-2.2-1.2-3.8c0-1,0.2-1.9,0.6-2.7
				c0.4-0.8,0.9-1.4,1.7-1.8s1.6-0.6,2.5-0.6c1,0,2,0.2,2.8,0.6l-0.6,1.4c-0.3-0.2-0.7-0.3-1.1-0.4
				C256.6,30.3,256.2,30.3,255.8,30.3z"/>
			<path class="st1" d="M266.6,39l-1-2.8h-3.8l-1,2.8h-1.7l3.7-10h1.8l3.7,10H266.6z M265.2,34.8l-0.9-2.7c-0.1-0.2-0.2-0.5-0.3-0.9
				c-0.1-0.4-0.2-0.7-0.2-0.9c-0.1,0.6-0.3,1.2-0.5,1.8l-0.9,2.6h2.8V34.8z"/>
			<path class="st1" d="M271.3,35v4h-1.6V29h2.8c1.3,0,2.2,0.2,2.9,0.7s0.9,1.2,0.9,2.2c0,1.2-0.6,2.1-1.9,2.7l2.8,4.4h-1.9l-2.4-4
				C272.9,35,271.3,35,271.3,35z M271.3,33.7h1.1c0.8,0,1.3-0.1,1.7-0.4s0.5-0.7,0.5-1.3c0-0.6-0.2-1-0.6-1.2s-0.9-0.4-1.7-0.4h-1.1
				v3.3H271.3z"/>
			<path class="st1" d="M282.1,39h-1.6v-8.6h-2.9V29h7.5v1.4h-2.9V39H282.1z"/>
		</g>
	</g>
	<g>
		<g>
			<path class="st0" d="M140.7,34.8h6.5c0.4,0,0.7-0.3,0.7-0.7l0,0c0-0.4-0.3-0.7-0.7-0.7h-6.5c-0.4,0-0.7,0.3-0.7,0.7l0,0
				C140,34.5,140.3,34.8,140.7,34.8z"/>
			<path class="st0" d="M144.7,37.4v-6.5c0-0.4-0.3-0.7-0.7-0.7l0,0c-0.4,0-0.7,0.3-0.7,0.7v6.5c0,0.4,0.3,0.7,0.7,0.7l0,0
				C144.4,38.1,144.7,37.8,144.7,37.4z"/>
		</g>
		<path class="st0" d="M109.5,34.8h6.5c0.4,0,0.7-0.3,0.7-0.7l0,0c0-0.4-0.3-0.7-0.7-0.7h-6.5c-0.4,0-0.7,0.3-0.7,0.7l0,0
			C108.7,34.5,109.1,34.8,109.5,34.8z"/>
		<g>
			<path class="st0" d="M129.8,39.7H128v-7.4c0-0.9,0-1.6,0.1-2.1c-0.1,0.1-0.3,0.3-0.4,0.4c-0.2,0.2-0.8,0.6-1.8,1.4l-0.9-1.2
				l3.4-2.6h1.5L129.8,39.7C129.9,39.7,129.8,39.7,129.8,39.7z"/>
		</g>
	</g>
</g>
</svg>
