<?xml version="1.0" encoding="utf-8"?>
<!-- Generator: Adobe Illustrator 21.0.0, SVG Export Plug-In . SVG Version: 6.00 Build 0)  -->
<svg version="1.1" id="Layer_1" xmlns="http://www.w3.org/2000/svg" width="430" height="70" xmlns:xlink="http://www.w3.org/1999/xlink" x="0px" y="0px"
	 viewBox="0 0 430 70" style="enable-background:new 0 0 430 70;" xml:space="preserve">
<style type="text/css">
	.st0{fill:#222222;}
	.st1{fill:#FFFFFF;}
</style>
<g>
	<g id="Add_to_cart">
		<rect x="161.1" y="19" class="st0" width="163.1" height="30"/>
		<g>
			<path class="st1" d="M204.7,39l-1-2.8h-3.8l-1,2.8h-1.7l3.7-10h1.8l3.7,10H204.7z M203.3,34.8l-0.9-2.7c-0.1-0.2-0.2-0.5-0.3-0.9
				s-0.2-0.7-0.2-0.9c-0.1,0.6-0.3,1.2-0.5,1.8l-0.9,2.6h2.8V34.8z"/>
			<path class="st1" d="M215.9,33.9c0,1.7-0.5,2.9-1.4,3.8c-0.9,0.9-2.2,1.3-4,1.3h-2.8V29h3.1c1.6,0,2.8,0.4,3.7,1.3
				S215.9,32.4,215.9,33.9z M214.2,34c0-2.4-1.1-3.6-3.4-3.6h-1.4v7.3h1.2C213,37.6,214.2,36.4,214.2,34z"/>
			<path class="st1" d="M226.2,33.9c0,1.7-0.5,2.9-1.4,3.8c-0.9,0.9-2.2,1.3-4,1.3H218V29h3.1c1.6,0,2.8,0.4,3.7,1.3
				S226.2,32.4,226.2,33.9z M224.5,34c0-2.4-1.1-3.6-3.4-3.6h-1.4v7.3h1.2C223.3,37.6,224.5,36.4,224.5,34z"/>
			<path class="st1" d="M235.4,39h-1.6v-8.6h-2.9V29h7.5v1.4h-2.9V39H235.4z"/>
			<path class="st1" d="M248.8,34c0,1.6-0.4,2.9-1.2,3.8c-0.8,0.9-2,1.4-3.5,1.4s-2.7-0.4-3.5-1.3c-0.8-0.9-1.2-2.2-1.2-3.8
				s0.4-2.9,1.2-3.8s2-1.3,3.5-1.3s2.6,0.4,3.4,1.3S248.8,32.4,248.8,34z M241.2,34c0,1.2,0.2,2.2,0.7,2.8s1.2,1,2.2,1
				s1.7-0.3,2.2-0.9c0.5-0.6,0.7-1.6,0.7-2.8s-0.2-2.2-0.7-2.8c-0.5-0.6-1.2-1-2.2-1s-1.7,0.3-2.2,1C241.4,31.8,241.2,32.8,241.2,34
				z"/>
			<path class="st1" d="M258.8,30.3c-0.9,0-1.7,0.3-2.2,1s-0.8,1.6-0.8,2.8s0.3,2.2,0.8,2.8s1.3,0.9,2.2,0.9c0.4,0,0.8,0,1.2-0.1
				c0.4-0.1,0.8-0.2,1.2-0.3v1.4c-0.8,0.3-1.7,0.4-2.7,0.4c-1.5,0-2.6-0.4-3.4-1.3c-0.8-0.9-1.2-2.2-1.2-3.8c0-1,0.2-1.9,0.6-2.7
				c0.4-0.8,0.9-1.4,1.7-1.8c0.8-0.4,1.6-0.6,2.5-0.6c1,0,2,0.2,2.8,0.6l-0.6,1.4c-0.3-0.2-0.7-0.3-1.1-0.4
				C259.6,30.3,259.2,30.3,258.8,30.3z"/>
			<path class="st1" d="M269.6,39l-1-2.8h-3.8l-1,2.8h-1.7l3.7-10h1.8l3.7,10H269.6z M268.2,34.8l-0.9-2.7c-0.1-0.2-0.2-0.5-0.3-0.9
				c-0.1-0.4-0.2-0.7-0.2-0.9c-0.1,0.6-0.3,1.2-0.5,1.8l-0.9,2.6h2.8V34.8z"/>
			<path class="st1" d="M274.3,35v4h-1.6V29h2.8c1.3,0,2.2,0.2,2.9,0.7s0.9,1.2,0.9,2.2c0,1.2-0.6,2.1-1.9,2.7l2.8,4.4h-1.9l-2.4-4
				C275.9,35,274.3,35,274.3,35z M274.3,33.7h1.1c0.8,0,1.3-0.1,1.7-0.4s0.5-0.7,0.5-1.3c0-0.6-0.2-1-0.6-1.2s-0.9-0.4-1.7-0.4h-1.1
				v3.3H274.3z"/>
			<path class="st1" d="M285.1,39h-1.6v-8.6h-2.9V29h7.5v1.4h-2.9V39H285.1z"/>
		</g>
	</g>
	<g>
		<g>
			<g>
				<path class="st0" d="M146.6,33.3H141c-0.4,0-0.7,0.3-0.7,0.7l0,0c0,0.4,0.3,0.7,0.7,0.7h5.5c0.4,0,0.7-0.3,0.7-0.7l0,0
					C147.2,33.5,147,33.3,146.6,33.3z"/>
				<path class="st0" d="M143.1,31.3v5.5c0,0.4,0.3,0.7,0.7,0.7l0,0c0.4,0,0.7-0.3,0.7-0.7v-5.5c0-0.4-0.3-0.7-0.7-0.7l0,0
					C143.4,30.6,143.1,30.8,143.1,31.3z"/>
			</g>
			<path class="st0" d="M143.9,41c-3.8,0-7-3.1-7-7c0-3.8,3.1-7,7-7s7,3.1,7,7S147.7,41,143.9,41z M143.9,28.3
				c-3.1,0-5.7,2.5-5.7,5.7s2.5,5.7,5.7,5.7s5.7-2.5,5.7-5.7S147,28.3,143.9,28.3z"/>
		</g>
		<g>
			<path class="st0" d="M110.8,34.8h4c0.4,0,0.7-0.3,0.7-0.7l0,0c0-0.4-0.3-0.7-0.7-0.7h-4c-0.4,0-0.7,0.3-0.7,0.7l0,0
				C110.1,34.4,110.4,34.8,110.8,34.8z"/>
			<g>
				<path class="st0" d="M112.8,41c-3.8,0-7-3.1-7-7c0-3.8,3.1-7,7-7s7,3.1,7,7S116.6,41,112.8,41z M112.8,28.3
					c-3.1,0-5.7,2.5-5.7,5.7s2.5,5.7,5.7,5.7s5.7-2.5,5.7-5.7S115.9,28.3,112.8,28.3z"/>
			</g>
		</g>
		<g>
			<path class="st0" d="M129.8,39.8H128v-7.4c0-0.9,0-1.6,0.1-2.1c-0.1,0.1-0.3,0.3-0.4,0.4c-0.2,0.2-0.8,0.6-1.8,1.4l-0.9-1.2
				l3.4-2.6h1.5L129.8,39.8C129.9,39.8,129.8,39.8,129.8,39.8z"/>
		</g>
	</g>
</g>
</svg>
