<?xml version="1.0" encoding="utf-8"?>
<!-- Generator: Adobe Illustrator 21.0.0, SVG Export Plug-In . SVG Version: 6.00 Build 0)  -->
<svg version="1.1" id="Layer_1" xmlns="http://www.w3.org/2000/svg" width="430" height="70" xmlns:xlink="http://www.w3.org/1999/xlink" x="0px" y="0px"
	 viewBox="0 0 430 70" style="enable-background:new 0 0 430 70;" xml:space="preserve">
<style type="text/css">
	.st0{fill:#222222;}
	.st1{fill:#FFFFFF;}
</style>
<g>
	<g>
		<path class="st0" d="M129.8,40.3H128v-7.7c0-0.9,0-1.7,0.1-2.2c-0.1,0.1-0.3,0.3-0.4,0.4c-0.2,0.2-0.8,0.6-1.9,1.5l-0.9-1.2
			l3.5-2.7h1.6v11.9C130,40.3,129.8,40.3,129.8,40.3z"/>
	</g>
	<g>
		<path class="st0" d="M147.3,33.7h-5.8c-0.4,0-0.7,0.3-0.7,0.7l0,0c0,0.4,0.3,0.7,0.7,0.7h5.7c0.4,0,0.7-0.3,0.7-0.7l0,0
			C148.1,33.9,147.7,33.7,147.3,33.7z"/>
		<path class="st0" d="M143.7,31.6v5.7c0,0.4,0.3,0.7,0.7,0.7l0,0c0.4,0,0.7-0.3,0.7-0.7v-5.7c0-0.4-0.3-0.7-0.7-0.7l0,0
			C144,30.8,143.7,31.1,143.7,31.6z"/>
	</g>
	<g>
		<path class="st0" d="M118.1,21.4v27.3h-11.8V21.4H118.1 M119.5,20H105v30h14.5V20L119.5,20z"/>
	</g>
	<g>
		<path class="st0" d="M150.3,21.4v27.3h-11.8V21.4H150.3 M151.7,20h-14.5v30h14.5V20L151.7,20z"/>
	</g>
	<g>
		<path class="st0" d="M150.3,21.4v27.3h-44V21.4H150.3 M151.7,20H105v30h46.7V20L151.7,20z"/>
	</g>
	<path class="st0" d="M115.1,33.6h-5.8c-0.4,0-0.7,0.3-0.7,0.7l0,0c0,0.4,0.3,0.7,0.7,0.7h5.7c0.4,0,0.7-0.3,0.7-0.7l0,0
		C115.7,33.9,115.5,33.6,115.1,33.6z"/>
</g>
<g id="Add_to_cart">
	<rect x="162" y="20" class="st0" width="163.1" height="30"/>
	<g>
		<path class="st1" d="M205.6,40l-1-2.8h-3.8l-1,2.8h-1.7l3.7-10h1.8l3.7,10H205.6z M204.2,35.8l-0.9-2.7c-0.1-0.2-0.2-0.5-0.3-0.9
			c-0.1-0.4-0.2-0.7-0.2-0.9c-0.1,0.6-0.3,1.2-0.5,1.8l-0.9,2.6h2.8V35.8z"/>
		<path class="st1" d="M216.8,34.9c0,1.7-0.5,2.9-1.4,3.8c-0.9,0.9-2.2,1.3-4,1.3h-2.8V30h3.1c1.6,0,2.8,0.4,3.7,1.3
			C216.3,32.2,216.8,33.4,216.8,34.9z M215.1,35c0-2.4-1.1-3.6-3.4-3.6h-1.4v7.3h1.2C213.9,38.6,215.1,37.4,215.1,35z"/>
		<path class="st1" d="M227.1,34.9c0,1.7-0.5,2.9-1.4,3.8c-0.9,0.9-2.2,1.3-4,1.3h-2.8V30h3.1c1.6,0,2.8,0.4,3.7,1.3
			C226.6,32.2,227.1,33.4,227.1,34.9z M225.4,35c0-2.4-1.1-3.6-3.4-3.6h-1.4v7.3h1.2C224.2,38.6,225.4,37.4,225.4,35z"/>
		<path class="st1" d="M236.3,40h-1.6v-8.6h-2.9V30h7.5v1.4h-2.9V40H236.3z"/>
		<path class="st1" d="M249.7,35c0,1.6-0.4,2.9-1.2,3.8c-0.8,0.9-2,1.4-3.5,1.4s-2.7-0.4-3.5-1.3c-0.8-0.9-1.2-2.2-1.2-3.8
			s0.4-2.9,1.2-3.8c0.8-0.9,2-1.3,3.5-1.3s2.6,0.4,3.4,1.3C249.2,32.2,249.7,33.4,249.7,35z M242,35c0,1.2,0.2,2.2,0.7,2.8
			s1.2,1,2.2,1s1.7-0.3,2.2-0.9c0.5-0.6,0.7-1.6,0.7-2.8s-0.2-2.2-0.7-2.8c-0.5-0.6-1.2-1-2.2-1s-1.7,0.3-2.2,1
			C242.3,32.8,242,33.8,242,35z"/>
		<path class="st1" d="M259.7,31.3c-0.9,0-1.7,0.3-2.2,1s-0.8,1.6-0.8,2.8s0.3,2.2,0.8,2.8s1.3,0.9,2.2,0.9c0.4,0,0.8,0,1.2-0.1
			c0.4-0.1,0.8-0.2,1.2-0.3v1.4c-0.8,0.3-1.7,0.4-2.7,0.4c-1.5,0-2.6-0.4-3.4-1.3c-0.8-0.9-1.2-2.2-1.2-3.8c0-1,0.2-1.9,0.6-2.7
			c0.4-0.8,0.9-1.4,1.7-1.8s1.6-0.6,2.5-0.6c1,0,2,0.2,2.8,0.6l-0.6,1.4c-0.3-0.2-0.7-0.3-1.1-0.4C260.5,31.3,260.1,31.3,259.7,31.3
			z"/>
		<path class="st1" d="M270.5,40l-1-2.8h-3.8l-1,2.8H263l3.7-10h1.8l3.7,10H270.5z M269.1,35.8l-0.9-2.7c-0.1-0.2-0.2-0.5-0.3-0.9
			c-0.1-0.4-0.2-0.7-0.2-0.9c-0.1,0.6-0.3,1.2-0.5,1.8l-0.9,2.6h2.8V35.8z"/>
		<path class="st1" d="M275.2,36v4h-1.6V30h2.8c1.3,0,2.2,0.2,2.9,0.7s0.9,1.2,0.9,2.2c0,1.2-0.6,2.1-1.9,2.7l2.8,4.4h-1.9l-2.4-4
			C276.8,36,275.2,36,275.2,36z M275.2,34.7h1.1c0.8,0,1.3-0.1,1.7-0.4s0.5-0.7,0.5-1.3s-0.2-1-0.6-1.2s-0.9-0.4-1.7-0.4h-1.1v3.3
			H275.2z"/>
		<path class="st1" d="M286,40h-1.6v-8.6h-2.9V30h7.5v1.4h-3V40z"/>
	</g>
</g>
</svg>
