<?xml version="1.0" encoding="utf-8"?>
<!-- Generator: Adobe Illustrator 21.0.0, SVG Export Plug-In . SVG Version: 6.00 Build 0)  -->
<svg version="1.1" id="Layer_1" xmlns="http://www.w3.org/2000/svg" width="430" height="70" xmlns:xlink="http://www.w3.org/1999/xlink" x="0px" y="0px"
	 viewBox="0 0 430 70" style="enable-background:new 0 0 430 70;" xml:space="preserve">
<style type="text/css">
	.st0{fill:#222222;}
	.st1{fill:#FFFFFF;}
</style>
<g>
	<g id="Add_to_cart">
		<rect x="158.2" y="19" class="st0" width="163.1" height="30"/>
		<g>
			<path class="st1" d="M201.8,39l-1-2.8H197l-1,2.8h-1.7l3.7-10h1.8l3.7,10H201.8z M200.4,34.8l-0.9-2.7c-0.1-0.2-0.2-0.5-0.3-0.9
				s-0.2-0.7-0.2-0.9c-0.1,0.6-0.3,1.2-0.5,1.8l-0.9,2.6h2.8V34.8z"/>
			<path class="st1" d="M213,33.9c0,1.7-0.5,2.9-1.4,3.8c-0.9,0.9-2.2,1.3-4,1.3h-2.8V29h3.1c1.6,0,2.8,0.4,3.7,1.3
				S213,32.4,213,33.9z M211.3,34c0-2.4-1.1-3.6-3.4-3.6h-1.4v7.3h1.2C210.1,37.6,211.3,36.4,211.3,34z"/>
			<path class="st1" d="M223.3,33.9c0,1.7-0.5,2.9-1.4,3.8c-0.9,0.9-2.2,1.3-4,1.3h-2.8V29h3.1c1.6,0,2.8,0.4,3.7,1.3
				S223.3,32.4,223.3,33.9z M221.6,34c0-2.4-1.1-3.6-3.4-3.6h-1.4v7.3h1.2C220.4,37.6,221.6,36.4,221.6,34z"/>
			<path class="st1" d="M232.5,39h-1.6v-8.6H228V29h7.5v1.4h-2.9V39H232.5z"/>
			<path class="st1" d="M245.9,34c0,1.6-0.4,2.9-1.2,3.8c-0.8,0.9-2,1.4-3.5,1.4s-2.7-0.4-3.5-1.3c-0.8-0.9-1.2-2.2-1.2-3.8
				s0.4-2.9,1.2-3.8s2-1.3,3.5-1.3s2.6,0.4,3.4,1.3S245.9,32.4,245.9,34z M238.2,34c0,1.2,0.2,2.2,0.7,2.8s1.2,1,2.2,1
				s1.7-0.3,2.2-0.9c0.5-0.6,0.7-1.6,0.7-2.8s-0.2-2.2-0.7-2.8c-0.5-0.6-1.2-1-2.2-1s-1.7,0.3-2.2,1C238.5,31.8,238.2,32.8,238.2,34
				z"/>
			<path class="st1" d="M255.9,30.3c-0.9,0-1.7,0.3-2.2,1s-0.8,1.6-0.8,2.8s0.3,2.2,0.8,2.8s1.3,0.9,2.2,0.9c0.4,0,0.8,0,1.2-0.1
				c0.4-0.1,0.8-0.2,1.2-0.3v1.4c-0.8,0.3-1.7,0.4-2.7,0.4c-1.5,0-2.6-0.4-3.4-1.3c-0.8-0.9-1.2-2.2-1.2-3.8c0-1,0.2-1.9,0.6-2.7
				c0.4-0.8,0.9-1.4,1.7-1.8s1.6-0.6,2.5-0.6c1,0,2,0.2,2.8,0.6L258,31c-0.3-0.2-0.7-0.3-1.1-0.4C256.7,30.3,256.3,30.3,255.9,30.3z
				"/>
			<path class="st1" d="M266.7,39l-1-2.8h-3.8l-1,2.8h-1.7l3.7-10h1.8l3.7,10H266.7z M265.3,34.8l-0.9-2.7c-0.1-0.2-0.2-0.5-0.3-0.9
				c-0.1-0.4-0.2-0.7-0.2-0.9c-0.1,0.6-0.3,1.2-0.5,1.8l-0.9,2.6h2.8V34.8z"/>
			<path class="st1" d="M271.4,35v4h-1.6V29h2.8c1.3,0,2.2,0.2,2.9,0.7s0.9,1.2,0.9,2.2c0,1.2-0.6,2.1-1.9,2.7l2.8,4.4h-1.9l-2.4-4
				C273,35,271.4,35,271.4,35z M271.4,33.7h1.1c0.8,0,1.3-0.1,1.7-0.4s0.5-0.7,0.5-1.3c0-0.6-0.2-1-0.6-1.2s-0.9-0.4-1.7-0.4h-1.1
				v3.3H271.4z"/>
			<path class="st1" d="M282.2,39h-1.6v-8.6h-2.9V29h7.5v1.4h-2.9V39H282.2z"/>
		</g>
	</g>
	<g>
		<g>
			<path class="st0" d="M146.7,20.3v27.5H110V20.3H146.7 M147.9,19h-39.2v30H148V19H147.9z"/>
		</g>
		<g>
			<path class="st0" d="M125.2,39.7h-1.9V32c0-0.9,0-1.7,0.1-2.2c-0.1,0.1-0.3,0.3-0.4,0.4c-0.2,0.2-0.8,0.6-1.9,1.5l-0.9-1.2
				l3.5-2.7h1.5C125.2,27.8,125.2,39.7,125.2,39.7z"/>
		</g>
		<g>
			<g>
				<g>
					<path class="st0" d="M139.5,30.2l-0.8,0.8l-1,1c-0.1,0.1-0.2,0.1-0.3,0.1s-0.2,0-0.4-0.1c-0.2-0.2-0.2-0.5,0-0.7l1.1-1.1
						l0.7-0.7L139.5,30.2z"/>
					<path class="st0" d="M140.9,31.7c0,0.1-0.1,0.3-0.2,0.4c-0.2,0.2-0.5,0.2-0.7,0l-1.1-1.1l-0.7-0.7l0.7-0.7l0.7,0.7l1.1,1.1
						C140.7,31.5,140.8,31.5,140.9,31.7z"/>
				</g>
				<g>
					<path class="st0" d="M138.8,37.2l-0.7-0.7l-1.1-1.1c-0.2-0.2-0.2-0.5,0-0.7c0.2-0.1,0.3-0.1,0.4-0.1c0.1,0,0.2,0,0.3,0.1l1,1
						l0.8,0.8L138.8,37.2z"/>
					<path class="st0" d="M140.7,35.3l-1.1,1.1l-0.7,0.7l-0.7-0.7l0.7-0.7l1.1-1.1c0.3-0.2,0.6-0.2,0.7,0c0.1,0.1,0.2,0.3,0.2,0.4
						C140.8,35.2,140.7,35.2,140.7,35.3z"/>
				</g>
			</g>
			<g>
				<path class="st0" d="M138.7,26.4c1.8,0,3.2,1.5,3.2,3.2v8c0,1.8-1.5,3.2-3.2,3.2c-1.8,0-3.2-1.5-3.2-3.2v-8
					C135.5,27.8,136.9,26.4,138.7,26.4 M138.7,25.2c-2.4,0-4.4,2-4.4,4.4v8c0,2.4,2,4.4,4.4,4.4s4.4-2,4.4-4.4v-8
					C143,27.2,141.1,25.2,138.7,25.2L138.7,25.2z"/>
			</g>
		</g>
	</g>
</g>
</svg>
