<?xml version="1.0" encoding="utf-8"?>
<!-- Generator: Adobe Illustrator 24.2.0, SVG Export Plug-In . SVG Version: 6.00 Build 0)  -->
<svg version="1.1" id="Layer_1" xmlns="http://www.w3.org/2000/svg" width="430" height="70" xmlns:xlink="http://www.w3.org/1999/xlink" x="0px" y="0px"
	 viewBox="0 0 430 70" style="enable-background:new 0 0 430 70;" xml:space="preserve">
<style type="text/css">
	.st0{fill:#222222;}
	.st1{fill:#FFFFFF;}
</style>
<g>
	<g>
		<path class="st0" d="M115.8000031,40.2999992H114v-7.7000008c0-0.8999996,0-1.7000008,0.1000061-2.2000008
			c-0.1000061,0.1000004-0.3000031,0.2999992-0.4000015,0.3999996c-0.1999969,0.2000008-0.8000031,0.6000004-1.9000015,1.4999981
			l-0.9000015-1.2000008l3.4999924-2.7000008H116v11.9000015C116,40.2999992,115.8000031,40.2999992,115.8000031,40.2999992z"/>
	</g>
	<g>
		<path class="st0" d="M119.5,21.4000244V20H105v30h14.5v-1.2999878h-13.2000122V21.4000244H119.5z"/>
	</g>
	<g>
		<path class="st0" d="M137.2000122,20v1.4000244h13.0999756v27.2999878h-13.0999756V50h14.5V20H137.2000122z"/>
	</g>
	<g>
		<path class="st0" d="M105,20v30h46.7000122V20H105z M150.2999878,48.7000122h-44V21.4000244h44V48.7000122z"/>
	</g>
	<path class="st0" d="M145.1034241,31.3501968c-0.2000122-0.3463745-0.6098022-0.4561768-0.9562378-0.2562256l-5.3121948,4.0670166
		l-5.3122559-4.0670166c-0.3464355-0.1999512-0.7562256-0.0901489-0.9562378,0.2562256
		c-0.2866211,0.2964478-0.09021,0.7562256,0.2562256,0.9562378l5.6291504,4.25
		c0.1243286,0.0717773,0.2550659,0.0906372,0.3831177,0.0859985c0.1280518,0.0046387,0.258728-0.0142212,0.3830566-0.0859985
		l5.6291504-4.25C145.193634,32.1064224,145.3900452,31.6466446,145.1034241,31.3501968z"/>
</g>
<g id="Add_to_cart">
	<rect x="162" y="20" class="st0" width="163.1000061" height="30"/>
	<g>
		<path class="st1" d="M205.6000061,40l-1-2.7999992h-3.8000031l-1,2.7999992h-1.6999969l3.6999969-10h1.8000031l3.6999969,10
			H205.6000061z M204.1999969,35.7999992l-0.8999939-2.7000008c-0.1000061-0.2000008-0.1999969-0.5-0.3000031-0.9000015
			c-0.1000061-0.3999996-0.1999969-0.7000008-0.1999969-0.8999996c-0.1000061,0.6000004-0.3000031,1.1999989-0.5,1.8000011
			l-0.8999939,2.5999985h2.8000031v0.1000023H204.1999969z"/>
		<path class="st1" d="M216.8000031,34.9000015c0,1.7000008-0.5,2.9000015-1.3999939,3.7999992
			c-0.8999939,0.9000015-2.1999969,1.2999992-4,1.2999992h-2.8000031V30h3.1000061
			c1.6000061,0,2.8000031,0.3999996,3.6999969,1.2999992C216.3000031,32.2000008,216.8000031,33.4000015,216.8000031,34.9000015z
			 M215.1000061,35c0-2.4000015-1.1000061-3.6000004-3.3999939-3.6000004h-1.3999939v7.3000011h1.1999969
			C213.8999939,38.5999985,215.1000061,37.4000015,215.1000061,35z"/>
		<path class="st1" d="M227.1000061,34.9000015c0,1.7000008-0.5,2.9000015-1.3999939,3.7999992
			c-0.8999939,0.9000015-2.1999969,1.2999992-4,1.2999992h-2.8000031V30h3.1000061
			c1.6000061,0,2.8000031,0.3999996,3.6999969,1.2999992C226.6000061,32.2000008,227.1000061,33.4000015,227.1000061,34.9000015z
			 M225.3999939,35c0-2.4000015-1.1000061-3.6000004-3.3999939-3.6000004h-1.3999939v7.3000011h1.1999969
			C224.1999969,38.5999985,225.3999939,37.4000015,225.3999939,35z"/>
		<path class="st1" d="M236.3000031,40h-1.6000061v-8.6000004h-2.8999939V30h7.5v1.3999996h-2.8999939V40H236.3000031z"/>
		<path class="st1" d="M249.6999969,35c0,1.5999985-0.3999939,2.9000015-1.1999969,3.7999992
			c-0.8000031,0.9000015-2,1.4000015-3.5,1.4000015s-2.6999969-0.4000015-3.5-1.2999992
			c-0.8000031-0.9000015-1.1999969-2.2000008-1.1999969-3.7999992s0.3999939-2.9000015,1.1999969-3.7999992
			c0.8000031-0.8999996,2-1.2999992,3.5-1.2999992s2.6000061,0.3999996,3.3999939,1.2999992
			C249.1999969,32.2000008,249.6999969,33.4000015,249.6999969,35z M242,35c0,1.2000008,0.1999969,2.2000008,0.6999969,2.7999992
			s1.1999969,1,2.1999969,1s1.6999969-0.2999992,2.1999969-0.9000015c0.5-0.5999985,0.6999969-1.5999985,0.6999969-2.7999992
			s-0.1999969-2.2000008-0.6999969-2.7999992c-0.5-0.6000004-1.1999969-1-2.1999969-1s-1.6999969,0.2999992-2.1999969,1
			C242.3000031,32.7999992,242,33.7999992,242,35z"/>
		<path class="st1" d="M259.7000122,31.2999992c-0.8999939,0-1.7000122,0.2999992-2.2000122,1
			s-0.7999878,1.5999985-0.7999878,2.7999992S257,37.2999992,257.5,37.8999977s1.2999878,0.9000015,2.2000122,0.9000015
			c0.3999939,0,0.7999878,0,1.2000122-0.0999985c0.3999939-0.0999985,0.7999878-0.2000008,1.2000122-0.2999992v1.4000015
			c-0.7999878,0.2999992-1.7000122,0.4000015-2.7000122,0.4000015c-1.5,0-2.6000061-0.4000015-3.3999939-1.2999992
			c-0.8000031-0.9000015-1.1999969-2.2000008-1.1999969-3.7999992c0-1,0.1999969-1.9000015,0.6000061-2.7000008
			c0.3999939-0.7999992,0.9000092-1.3999996,1.6999969-1.7999992s1.6000061-0.6000004,2.5-0.6000004
			c1,0,2,0.2000008,2.7999878,0.6000004l-0.6000061,1.4000015c-0.2999878-0.2000008-0.7000122-0.2999992-1.1000061-0.3999996
			C260.5,31.2999992,260.1000061,31.2999992,259.7000122,31.2999992z"/>
		<path class="st1" d="M270.5,40l-1-2.7999992h-3.7999878l-1,2.7999992H263l3.7000122-10H268.5l3.7000122,10H270.5z
			 M269.1000061,35.7999992l-0.8999939-2.7000008c-0.1000061-0.2000008-0.2000122-0.5-0.2999878-0.9000015
			c-0.1000061-0.3999996-0.2000122-0.7000008-0.2000122-0.8999996c-0.1000061,0.6000004-0.2999878,1.1999989-0.5,1.8000011
			l-0.8999939,2.5999985h2.7999878V35.7999992z"/>
		<path class="st1" d="M275.2000122,36v4h-1.6000061V30h2.7999878c1.2999878,0,2.2000122,0.2000008,2.8999939,0.7000008
			s0.8999939,1.2000008,0.8999939,2.2000008c0,1.2000008-0.6000061,2.0999985-1.8999939,2.7000008l2.7999878,4.4000015h-1.8999939
			l-2.3999939-4C276.7999878,36,275.2000122,36,275.2000122,36z M275.2000122,34.7000008h1.1000061
			c0.7999878,0,1.2999878-0.0999985,1.7000122-0.4000015s0.5-0.7000008,0.5-1.2999992s-0.2000122-1-0.6000061-1.2000008
			s-0.8999939-0.3999996-1.7000122-0.3999996h-1.1000061v3.3000011H275.2000122z"/>
		<path class="st1" d="M286,40h-1.6000061v-8.6000004H281.5V30h7.5v1.3999996h-3V40z"/>
	</g>
</g>
</svg>
